<?xml version="1.0" encoding="utf-8"?>
<!-- Generator: Adobe Illustrator 16.0.0, SVG Export Plug-In . SVG Version: 6.00 Build 0)  -->
<!DOCTYPE svg PUBLIC "-//W3C//DTD SVG 1.1//EN" "http://www.w3.org/Graphics/SVG/1.1/DTD/svg11.dtd">
<svg version="1.1" id="Layer_1" xmlns="http://www.w3.org/2000/svg" xmlns:xlink="http://www.w3.org/1999/xlink" x="0px" y="0px"
	 width="100px" height="100px" viewBox="-26.5 -22.5 100 100" enable-background="new -26.5 -22.5 100 100" xml:space="preserve">
<g>
	<path fill="#FCFCFC" d="M-11.786,28.373c7.133,0,12.931,5.797,12.931,12.965c0,7.132-5.798,12.931-12.931,12.931
		c-7.167-0.002-12.964-5.799-12.964-12.931C-24.75,34.17-18.953,28.373-11.786,28.373z M-11.786,32.237
		c-5.024,0-9.1,4.074-9.1,9.097c0,4.99,4.078,9.067,9.1,9.067c4.989,0,9.065-4.077,9.065-9.067
		C-2.719,36.312-6.797,32.237-11.786,32.237z"/>
	<path fill="#FCFCFC" d="M-20.359,11.578l1.021,1.019h10.715h0.037c3.723,0,6.744,3.021,6.744,6.745
		c0,3.761-3.021,6.782-6.744,6.782h-0.037h-10.715l-1.019,1.019v-1.019V22.33v-0.035v-0.982l0.983,0.982h4.674c0,0,0,0,0-0.035
		h6.042c0.036,0,0.036,0.035,0.073,0.035c1.615,0,2.916-1.334,2.916-2.986c0-1.475-1.053-2.671-2.495-2.917h-0.881
		c-0.035,0.036-0.035,0.036-0.07,0.036h-5.586c0,0,0,0,0-0.036h-4.637l-1.021,1.021v-1.021v-3.793V11.578z"/>
	<path fill="#FCFCFC" d="M-16.53,1.741h13.669l1.019-1.019v1.019v3.83v1.018L-2.861,5.57H-16.53v4.777h-3.829V5.57v-3.83v-4.777
		h3.829V1.741z"/>
	<path fill="#FCFCFC" d="M40.095,13.124c0,6.903-5.58,12.479-12.482,12.479c-6.9,0-12.479-5.578-12.479-12.479
		c0-6.899,5.579-12.48,12.479-12.48C34.515,0.644,40.095,6.225,40.095,13.124z M34.942,13.124c0-4.066-3.313-7.327-7.33-7.327
		c-4.067,0-7.326,3.264-7.326,7.327c0,4.018,3.261,7.329,7.326,7.329C31.631,20.453,34.942,17.144,34.942,13.124z"/>
	<path fill="#FCFCFC" d="M48.271,5.797v3.972h9.028v5.105v0.047v1.324l-1.325-1.324h-7.703v9.267l1.371,1.371h-1.371h-5.151h-1.372
		l1.372-1.371V2.016l-1.372-1.372h1.372h1.323h3.828h11.347v5.153H48.271z"/>
	<path fill="#FCFCFC" d="M25.862,44.729c0,3.197-2.602,5.831-5.798,5.831h-8.328h-0.737H9.978l1.021-1.02V33.064l-1.021-1.02h1.021
		h0.985h2.846h4.673v0.033c2.881,0,5.2,2.354,5.2,5.272c0,1.055-0.313,2.071-0.878,2.915C25.051,41.354,25.862,42.936,25.862,44.729
		z M14.828,38.825h4.673v-0.036c0.773,0,1.405-0.666,1.405-1.438c0-0.841-0.667-1.511-1.475-1.511c-0.035,0-0.07,0.039-0.105,0.039
		h-4.498V38.825z M21.891,44.48c0-1.017-0.843-1.859-1.896-1.859c-0.106,0-0.246,0.038-0.351,0.038H14.83v3.723h5.165
		C21.046,46.378,21.891,45.535,21.891,44.48z"/>
	<path fill="#FCFCFC" d="M31.939,35.874v2.951h6.712v3.796v0.038v0.981l-0.986-0.981h-5.726v4.108h7.414l1.019-1.017v1.017v3.796
		h-8.433h-2.846h-0.988h-1.017l1.021-1.019v-16.48l-1.021-1.02h1.021h0.984h2.85h8.433v3.829H31.939z"/>
	<path fill="#FCFCFC" d="M55.584,47.854c-1.684,1.686-4.004,2.741-6.573,2.741c-2.495,0-4.743-0.984-6.396-2.563l-1.017-0.036
		l1.057-0.986l1.755-1.654l0.072-0.064l0.42-0.389l0.561-0.524l-0.041,1.019c0.953,0.843,2.215,1.367,3.584,1.367
		c0.598,0,1.16-0.105,1.723-0.282c0.351-0.178,3.233-1.541-0.739-3.404c-2.315-1.126-4.353-2.284-6.043-3.234
		c-2.671-1.476-1.791-5.27,0.141-6.396c1.44-0.911,3.13-1.402,4.919-1.402c2.532,0,4.813,1.02,6.501,2.67h1.017l-1.057,0.983
		l-1.759,1.652l-1.057,0.986l0.04-1.019c-0.95-0.882-2.249-1.439-3.688-1.439c-0.458,0-0.878,0.067-1.299,0.173
		c-0.56,0.178-2.604,1.126,2.914,3.552c5.127,2.25,7.446,5.446,4.953,8.222v0.031h0.013V47.854z"/>
	<path fill="#FCFCFC" d="M66.438,35.874V49.54l1.021,1.02h-1.021h-3.83h-1.015l1.015-1.02V35.874H57.83v-3.829h4.778h3.83h4.776
		v3.829H66.438z"/>
</g>
<line fill="none" stroke="#FDFDFE" stroke-width="2" stroke-miterlimit="10" x1="4.245" y1="-1.908" x2="4.245" y2="50.56"/>
</svg>
