<?xml version="1.0" encoding="utf-8"?>
<!-- Generator: Adobe Illustrator 16.0.0, SVG Export Plug-In . SVG Version: 6.00 Build 0)  -->
<!DOCTYPE svg PUBLIC "-//W3C//DTD SVG 1.1//EN" "http://www.w3.org/Graphics/SVG/1.1/DTD/svg11.dtd">
<svg version="1.1" id="Layer_1" xmlns="http://www.w3.org/2000/svg" xmlns:xlink="http://www.w3.org/1999/xlink" x="0px" y="0px"
	 width="500px" height="500px" viewBox="0 0 500 500" enable-background="new 0 0 500 500" xml:space="preserve">
<g>
	<path fill="#FCFCFC" d="M67.053,258.376c36.889,0,66.871,29.982,66.871,67.052c0,36.89-29.982,66.872-66.871,66.872
		C29.982,392.3,0,362.317,0,325.428C0,288.358,29.982,258.376,67.053,258.376z M67.053,278.363
		c-25.986,0-47.066,21.078-47.066,47.064c0,25.803,21.08,46.885,47.066,46.885c25.802,0,46.881-21.082,46.881-46.885
		C113.934,299.441,92.854,278.363,67.053,278.363z"/>
	<path fill="#FCFCFC" d="M22.712,171.519l5.269,5.269h55.424h0.185c19.26,0,34.889,15.629,34.889,34.89
		c0,19.445-15.629,35.074-34.889,35.074h-0.185H27.982l-5.269,5.271v-5.271v-19.625v-0.181v-5.091l5.088,5.091h24.167
		c0,0,0,0,0-0.184h31.252c0.184,0,0.184,0.184,0.369,0.184c8.354,0,15.08-6.907,15.08-15.448c0-7.63-5.45-13.811-12.903-15.08
		h-4.542c-0.181,0.181-0.181,0.181-0.365,0.181H51.968c0,0,0,0,0-0.181H27.981l-5.269,5.269v-5.269v-19.629V171.519z"/>
	<path fill="#FCFCFC" d="M42.518,120.645h70.688l5.272-5.269v5.269v19.806v5.269l-5.272-5.269H42.518v24.713H22.712v-24.713v-19.806
		V95.931h19.806V120.645z"/>
	<path fill="#FCFCFC" d="M335.369,179.52c0,35.7-28.854,64.548-64.549,64.548c-35.693,0-64.547-28.849-64.547-64.548
		c0-35.694,28.854-64.545,64.547-64.545C306.516,114.974,335.369,143.825,335.369,179.52z M308.721,179.52
		c0-21.024-17.119-37.896-37.9-37.896c-21.028,0-37.898,16.872-37.898,37.896c0,20.782,16.87,37.899,37.898,37.899
		C291.602,217.418,308.721,200.301,308.721,179.52z"/>
	<path fill="#FCFCFC" d="M377.658,141.624v20.538h46.699v26.404v0.248v6.846l-6.846-6.846h-39.854v47.921l7.092,7.094h-7.092H351.01
		h-7.09l7.09-7.094V122.063l-7.09-7.089h7.09h6.846h19.803h58.678v26.649H377.658z"/>
	<path fill="#FCFCFC" d="M261.754,342.969c0,16.537-13.449,30.166-29.986,30.166h-43.066h-3.815h-5.272l5.272-5.272v-85.225
		l-5.272-5.268h5.272h5.088h14.719h24.167v0.177c14.902,0,26.894,12.176,26.894,27.26c0,5.452-1.633,10.722-4.541,15.083
		C257.574,325.523,261.754,333.7,261.754,342.969z M204.693,312.437h24.167v-0.178c4,0,7.269-3.453,7.269-7.452
		c0-4.362-3.45-7.815-7.63-7.815c-0.181,0-0.365,0.185-0.546,0.185h-23.259V312.437z M241.217,341.695
		c0-5.271-4.361-9.634-9.811-9.634c-0.546,0-1.273,0.185-1.819,0.185h-24.894v19.261h26.713
		C236.856,351.507,241.217,347.146,241.217,341.695z"/>
	<path fill="#FCFCFC" d="M293.188,297.176v15.261h34.709v19.625v0.185v5.088l-5.09-5.088h-29.619v21.26h38.342l5.27-5.269v5.269
		v19.629h-43.611h-14.719h-5.09h-5.271l5.271-5.272v-85.225l-5.271-5.268h5.271h5.09h14.719h43.611v19.806H293.188z"/>
	<path fill="#FCFCFC" d="M415.477,359.14c-8.721,8.723-20.717,14.173-33.98,14.173c-12.904,0-24.533-5.084-33.072-13.261
		l-5.268-0.185l5.449-5.088l9.088-8.541l0.361-0.362l2.182-2l2.906-2.723l-0.18,5.269c4.906,4.361,11.445,7.084,18.533,7.084
		c3.088,0,5.994-0.546,8.902-1.453c1.818-0.908,16.723-7.992-3.814-17.626c-11.992-5.814-22.533-11.813-31.256-16.718
		c-13.811-7.634-9.264-27.256,0.727-33.07c7.453-4.727,16.176-7.269,25.441-7.269c13.082,0,24.893,5.268,33.615,13.806h5.273
		l-5.453,5.093l-9.084,8.538l-5.453,5.091l0.182-5.272c-4.906-4.542-11.631-7.449-19.08-7.449c-2.361,0-4.543,0.361-6.723,0.908
		c-2.908,0.907-13.449,5.814,15.084,18.353c26.527,11.633,38.523,28.167,25.619,42.523V359.14z"/>
	<path fill="#FCFCFC" d="M471.623,297.176v70.687l5.27,5.272h-5.27h-19.807h-5.271l5.271-5.272v-70.687h-24.713V277.37h24.713
		h19.807h24.715v19.806H471.623z"/>
</g>
<line fill="#FCFCFC" stroke="#FDFDFE" stroke-width="6" stroke-miterlimit="10" x1="149.956" y1="101.762" x2="149.956" y2="373.135"/>
</svg>
