<?xml version="1.0" encoding="utf-8"?>
<!-- Generator: Adobe Illustrator 13.0.0, SVG Export Plug-In . SVG Version: 6.00 Build 14948)  -->
<!DOCTYPE svg PUBLIC "-//W3C//DTD SVG 1.1//EN" "http://www.w3.org/Graphics/SVG/1.1/DTD/svg11.dtd">
<svg version="1.1" id="Layer_1" xmlns="http://www.w3.org/2000/svg" xmlns:xlink="http://www.w3.org/1999/xlink" x="0px" y="0px"
	 width="500px" height="500px" viewBox="646 646 500 500" enable-background="new 646 646 500 500" xml:space="preserve">
<path fill="#DA5050" d="M877.697,924.607v109.818c0,15.253-5.339,28.218-16.016,38.895s-23.641,16.015-38.894,16.015H712.968
	c-15.252,0-28.218-5.338-38.895-16.015s-16.015-23.642-16.015-38.895V833.09c0-19.828,3.861-38.751,11.582-56.768
	c7.722-18.017,18.161-33.604,31.316-46.759c13.155-13.155,28.741-23.594,46.759-31.316c18.017-7.721,36.94-11.582,56.768-11.582
	h18.304c4.957,0,9.247,1.812,12.869,5.434c3.623,3.623,5.434,7.913,5.434,12.87v36.606c0,4.957-1.811,9.247-5.434,12.869
	c-3.623,3.623-7.912,5.434-12.869,5.434h-18.304c-20.21,0-37.464,7.15-51.764,21.449c-14.299,14.299-21.449,31.554-21.449,51.764
	v9.152c0,7.626,2.669,14.109,8.008,19.447s11.82,8.007,19.447,8.007h64.062c15.252,0,28.217,5.339,38.894,16.016
	C872.358,896.39,877.697,909.354,877.697,924.607z M1133.941,924.607v109.818c0,15.253-5.339,28.218-16.016,38.895
	c-10.676,10.677-23.642,16.015-38.894,16.015H969.213c-15.252,0-28.218-5.338-38.895-16.015s-16.015-23.642-16.015-38.895V833.09
	c0-19.828,3.86-38.751,11.581-56.768c7.723-18.017,18.161-33.604,31.317-46.759c13.155-13.155,28.74-23.594,46.758-31.316
	c18.018-7.721,36.94-11.582,56.769-11.582h18.304c4.957,0,9.247,1.812,12.869,5.434c3.622,3.623,5.433,7.913,5.433,12.87v36.606
	c0,4.957-1.811,9.247-5.433,12.869c-3.622,3.623-7.912,5.434-12.869,5.434h-18.304c-20.21,0-37.464,7.15-51.764,21.449
	c-14.299,14.299-21.449,31.554-21.449,51.764v9.152c0,7.626,2.67,14.109,8.008,19.447c5.339,5.338,11.821,8.007,19.448,8.007h64.061
	c15.252,0,28.218,5.339,38.894,16.016C1128.603,896.39,1133.941,909.354,1133.941,924.607z"/>
</svg>
