<?xml version="1.0" encoding="utf-8"?>
<!-- Generator: Adobe Illustrator 16.0.0, SVG Export Plug-In . SVG Version: 6.00 Build 0)  -->
<!DOCTYPE svg PUBLIC "-//W3C//DTD SVG 1.1//EN" "http://www.w3.org/Graphics/SVG/1.1/DTD/svg11.dtd">
<svg version="1.1" id="Layer_1" xmlns="http://www.w3.org/2000/svg" xmlns:xlink="http://www.w3.org/1999/xlink" x="0px" y="0px"
	 width="1000px" height="442px" viewBox="0 0 1000 442" enable-background="new 0 0 1000 442" xml:space="preserve">
<g display="none">
	<g display="inline">
		<g>
			<g>
				<path fill="#EBC19C" d="M208.432,295.554c0,0-33.496-31.993-88.452-51.953c0,0-21.785-5.658-47.348-39.453
					c-24.205-32-17.489-64.125-9.455-81.511c8.033-17.384,26.704-51.512,26.704-51.512s10.436,2.602,7.185,23.028l-9.988,25.215
					c0,0-33.209,81.292,62.854,99.719c0,0-50.222-43.012-31.768-76.266c0,0,6.743,9.993,20.008,27.155
					c13.265,17.162,34.354,28.892,52.614,44.523c18.261,15.637,30.232,52.797,18.726,76.707"/>
				<path fill="#EBC19C" d="M109.126,196.879c0,0-15.777-17-5.076-62.446c7.16-30.402,28.74-59.163,5.28-69.875
					c0,0-0.85,17.004-13.863,45.141c-6.121,13.241-8.393,33.84-8.69,42.48C86.076,172.514,109.126,196.879,109.126,196.879z"/>
			</g>
		</g>
		<g>
			<g>
				<path fill="#EBC19C" d="M234.427,295.554c0,0,33.493-31.993,88.448-51.953c0,0,21.787-5.658,47.35-39.453
					c24.208-32,17.489-64.125,9.455-81.511c-8.032-17.384-26.704-51.512-26.704-51.512s-10.435,2.602-7.186,23.028l9.989,25.215
					c0,0,33.207,81.292-62.856,99.719c0,0,50.224-43.012,31.768-76.266c0,0-6.743,9.993-20.008,27.155
					c-13.265,17.162-34.349,28.892-52.611,44.523c-18.262,15.64-30.232,52.797-18.728,76.707"/>
				<path fill="#EBC19C" d="M333.729,196.88c0,0,15.779-17.001,5.076-62.447c-7.155-30.402-28.738-59.163-5.276-69.871
					c0,0,0.847,17,13.861,45.14c6.119,13.238,8.393,33.837,8.692,42.478C356.781,172.514,333.729,196.88,333.729,196.88z"/>
			</g>
		</g>
	</g>
</g>
<g display="none">
	<path display="inline" fill="#DFB28B" d="M182.178,262.214c0,0-22.344-8.273-24.957-13.568
		c-2.609-5.299-11.537-29.688-23.865-30.837c-2.82-0.265-3.538,1.81-3.538,1.81s-11.952-9.989-21.218-7.167
		c-9.271,2.825,7.079,27.354,7.079,27.354s38.146,66.117,122.216,52.514C321.967,278.721,182.178,262.214,182.178,262.214z"/>
	<path display="inline" fill="#EBC19C" d="M317.087,321.815c0,0-9.077-14.814-36.465-12.107
		c-27.383,2.711-56.983,5.543-71.546,0.834c-14.754-4.782-55.482-11.716-68.641-26.111c-12.922-14.142-20.879-20.352-23.426-27.622
		c-1.788-5.114-11.354-33.753-9.703-36.416c1.656-2.67,14.014-2.767,21.237,12.15c4.724,9.74,6.499,20.494,6.499,20.494
		s23.459,15.293,31.041,19.081c7.578,3.792,64.725,20.03,67.145,15.548c2.424-4.479-48.502-13.279-51.061-19.278
		c-3.157-7.402,4.151-17.753,25.453-13.223c21.309,4.531,26.029,5.85,31.494,5.215C244.582,259.745,306.683,245.076,317.087,321.815
		z"/>
	<path display="inline" fill="#D09F76" d="M117.543,212.841c0,0,0.381,0.092,1.088,0.272c0.701,0.169,1.766,0.493,3.022,1.05
		c2.534,1.077,5.925,3.235,9.117,6.603c3.221,3.342,6.252,7.771,8.838,12.765c1.299,2.494,2.456,5.146,3.56,7.853
		c0.537,1.357,1.083,2.727,1.557,4.112l0.725,2.056l0.355,0.977l0.085,0.203l0.038,0.092l0.02,0.049
		c0.136,0.256-0.179-0.32-0.136-0.249l0.021,0.028c0.152,0.239,0.146,0.123,0.1,0.073c0.768,0.64,2.191,1.604,3.383,2.364
		c1.262,0.803,2.518,1.604,3.766,2.399c2.523,1.573,5.078,3.028,7.523,4.486c4.924,2.86,9.588,5.439,13.643,7.557
		c4.057,2.118,7.518,3.745,10.002,4.795c2.48,1.042,3.975,1.534,3.975,1.534s-0.394-0.044-1.126-0.128
		c-0.733-0.095-1.816-0.244-3.167-0.539c-2.713-0.553-6.515-1.656-10.904-3.326c-4.398-1.666-9.385-3.897-14.55-6.586
		c-2.603-1.312-5.196-2.816-7.827-4.367c-1.309-0.784-2.637-1.571-3.934-2.434c-1.335-0.921-2.48-1.634-3.999-2.973
		c-0.317-0.308-0.603-0.678-0.646-0.756l-0.019-0.03l-0.17-0.309l-0.029-0.08l-0.066-0.159l-0.119-0.305l-0.377-1.087l-0.692-2.073
		c-0.456-1.357-0.911-2.715-1.365-4.058c-0.931-2.67-1.958-5.256-3.041-7.723c-2.134-4.941-4.628-9.353-7.263-12.806
		c-2.606-3.485-5.447-5.915-7.673-7.32c-1.107-0.713-2.02-1.215-2.698-1.504C117.897,212.997,117.543,212.841,117.543,212.841z"/>
	<path display="inline" fill="#D09F76" d="M119.283,221.565c0,0,0.441,0.329,1.267,0.947c0.425,0.297,0.915,0.692,1.459,1.205
		c0.567,0.493,1.204,1.077,1.835,1.792c2.662,2.769,5.485,7.485,7.752,13.457c1.147,2.979,2.18,6.259,3.412,9.647
		c0.32,0.841,0.645,1.692,0.979,2.555c0.365,0.833,0.666,1.805,1.137,2.321c1.076,1.293,2.735,2.478,4.41,3.563
		c6.866,4.335,15.014,8.037,23.208,11.463c8.235,3.383,16.528,6.675,24.474,9.361c7.946,2.667,15.391,5.119,21.908,6.772
		c6.51,1.648,12.025,2.793,15.957,2.956c1.954,0.085,3.501-0.012,4.526-0.246c1.021-0.235,1.512-0.519,1.512-0.519
		s-0.45,0.334-1.464,0.672c-1.006,0.342-2.579,0.623-4.582,0.666c-4.01,0.083-9.73-0.497-16.383-1.943
		c-6.656-1.421-14.355-3.369-22.377-6.042c-8.028-2.658-16.545-5.644-24.787-9.227c-4.123-1.781-8.203-3.658-12.154-5.638
		c-3.932-2.009-7.8-4.029-11.255-6.486c-1.719-1.25-3.39-2.492-4.728-4.268c-0.731-1.031-0.898-1.926-1.263-2.803
		c-0.303-0.889-0.603-1.767-0.897-2.636c-1.067-3.462-2.076-6.73-3.008-9.753c-1.863-5.998-4.318-10.729-6.758-13.595
		c-0.568-0.746-1.134-1.359-1.65-1.883c-0.49-0.543-0.947-0.979-1.348-1.306C119.695,221.926,119.283,221.565,119.283,221.565z"/>
	<path display="inline" fill="#F0D0B5" d="M199.628,273.245c0,0-12.524-1.475-15.245-5.465c-2.04-2.984,1.845-8.499,3.814-9.077
		c3.291-0.967,14.19,4.19,14.19,4.19L199.628,273.245z"/>
	<path display="inline" fill="#F5E0CD" d="M199.628,273.245c0,0-6.167-5.701,2.76-10.352L199.628,273.245z"/>
</g>
<g display="none">
	<path display="inline" fill="#DFB28B" d="M239.299,36.456c0,0,23.732,3.707,27.5,8.37c3.765,4.667,18.076,26.753,30.387,25.46
		c2.817-0.294,3.044-2.461,3.044-2.461s13.97,7.42,22.376,2.847c8.418-4.579-13.184-25.348-13.184-25.348
		s-52.427-57.141-131.471-27.372C98.902,47.717,239.299,36.456,239.299,36.456z"/>
	<path display="inline" fill="#EBC19C" d="M93.8,4.644c0,0,12.265,12.699,38.409,4.687c26.143-8.015,54.422-16.583,69.732-14.834
		c15.514,1.782,56.907,0.577,73.064,12.067c15.867,11.289,25.067,15.799,29.223,22.405c2.917,4.647,18.828,30.762,17.823,33.688
		c-1.007,2.934-13.063,5.449-23.539-7.713c-6.849-8.594-11.045-18.756-11.045-18.756s-26.432-10.349-34.71-12.564
		c-8.272-2.222-67.842-6.893-69.181-2.039c-1.343,4.854,50.443,3.475,54.318,8.837c4.781,6.615,0.01,18.162-21.847,17.91
		c-21.862-0.253-26.779-0.617-31.974,1.074C178.877,51.097,121.547,77.603,93.8,4.644z"/>
	<path display="inline" fill="#D09F76" d="M313.777,72.043c0,0-0.394-0.016-1.127-0.054c-0.722-0.027-1.837-0.136-3.193-0.434
		c-2.724-0.557-6.531-2.001-10.424-4.665c-3.911-2.636-7.89-6.371-11.561-10.744c-1.84-2.183-3.577-4.547-5.275-6.977
		c-0.836-1.222-1.685-2.452-2.465-3.714l-1.179-1.867l-0.572-0.884l-0.129-0.183l-0.059-0.083l-0.028-0.044
		c-0.192-0.223,0.247,0.278,0.189,0.218l-0.027-0.024c-0.203-0.204-0.173-0.092-0.114-0.052c-0.897-0.475-2.509-1.138-3.848-1.647
		c-1.418-0.537-2.828-1.073-4.231-1.606c-2.825-1.044-5.656-1.965-8.38-2.911c-5.467-1.83-10.613-3.437-15.063-4.712
		c-4.451-1.274-8.203-2.188-10.872-2.727c-2.664-0.531-4.236-0.72-4.236-0.72s0.393-0.034,1.13-0.096
		c0.74-0.052,1.832-0.118,3.218-0.094c2.778,0.008,6.746,0.342,11.417,1.114c4.683,0.766,10.068,1.97,15.729,3.585
		c2.845,0.771,5.725,1.734,8.651,2.735c1.459,0.509,2.937,1.018,4.399,1.606c1.517,0.638,2.801,1.111,4.591,2.122
		c0.381,0.238,0.745,0.544,0.804,0.611l0.027,0.025l0.235,0.269l0.049,0.072l0.101,0.143l0.186,0.275l0.618,0.989l1.15,1.891
		c0.756,1.235,1.513,2.474,2.263,3.697c1.521,2.426,3.119,4.753,4.743,6.95c3.217,4.412,6.665,8.233,10.032,11.092
		c3.345,2.896,6.677,4.714,9.175,5.651c1.244,0.479,2.252,0.791,2.982,0.94C313.396,71.959,313.777,72.043,313.777,72.043z"/>
	<path display="inline" fill="#D09F76" d="M310.078,63.856c0,0-0.506-0.234-1.455-0.677c-0.485-0.207-1.054-0.497-1.701-0.893
		c-0.668-0.37-1.425-0.815-2.204-1.392c-3.237-2.184-7.076-6.24-10.66-11.632c-1.802-2.688-3.563-5.689-5.543-8.761
		c-0.506-0.759-1.018-1.526-1.542-2.304c-0.548-0.744-1.064-1.634-1.643-2.047c-1.348-1.053-3.242-1.884-5.126-2.616
		c-7.703-2.892-16.516-4.913-25.309-6.655c-8.822-1.692-17.682-3.285-26.062-4.354c-8.377-1.05-16.212-1.987-22.962-2.325
		c-6.739-0.337-12.394-0.373-16.272,0.237c-1.928,0.3-3.418,0.697-4.367,1.128c-0.943,0.43-1.359,0.803-1.359,0.803
		s0.365-0.414,1.277-0.943c0.906-0.531,2.378-1.114,4.326-1.549c3.898-0.867,9.623-1.421,16.457-1.312
		c6.829,0.085,14.8,0.48,23.253,1.521c8.454,1.023,17.459,2.273,26.336,4.16c4.438,0.933,8.855,1.967,13.171,3.127
		c4.303,1.193,8.545,2.41,12.485,4.134c1.966,0.886,3.882,1.771,5.599,3.244c0.95,0.865,1.318,1.707,1.875,2.492
		c0.5,0.809,0.994,1.609,1.48,2.4c1.836,3.174,3.572,6.17,5.174,8.942c3.194,5.496,6.679,9.639,9.719,11.961
		c0.727,0.618,1.421,1.107,2.044,1.518c0.604,0.434,1.15,0.771,1.615,1.012C309.593,63.586,310.078,63.856,310.078,63.856z"/>
	<path display="inline" fill="#F0D0B5" d="M219.719,29.095c0,0,12.576-1.013,16.149,2.354c2.679,2.516,0.146,8.668-1.648,9.618
		c-2.993,1.59-14.828-1.314-14.828-1.314L219.719,29.095z"/>
	<path display="inline" fill="#F5E0CD" d="M219.719,29.095c0,0,7.334,4.362-0.327,10.657L219.719,29.095z"/>
</g>
<g>
	<g>
		<g>
			<g>
				<path fill="#FDD8C6" d="M287.224,318.629c-2.517-13.422-4.334-37.974-2.376-44.405c1.958-6.431,13.282-12.932,17.476-16.077
					c4.194-3.146,22.998-17.896,25.515-22.3c2.517-4.403,6.501-11.744,8.179-13.631s18.035-15.938,20.342-18.245
					c2.307-2.307,6.71-12.373,9.227-18.244c1.405-3.277,5.878-11.191,9.595-18.093c-3.223-2.762-0.844-6.27,1.462-9.227
					c0.196-0.251,0.603,0.074,0.437,0.337c-0.864,1.369-2.043,2.718-2.566,4.271c-0.565,1.677-0.076,2.921,0.953,4.087
					c2.815-5.244,5.128-9.81,5.218-11.154c0.21-3.146-12.161-3.036-17.196,5.662c-1.146,1.981-3.071,4.531-4.716,6.595
					c-1.603,3.247-3.67,6.266-5.76,9.214c-2.561,3.61-5.142,7.231-7.786,10.782c-2.577,3.459-5.742,6.379-8.752,9.447
					c-3,3.059-5.816,6.459-9.232,9.066c-0.313,0.239-0.698-0.277-0.417-0.54c3.329-3.097,6.322-6.431,9.493-9.678
					c2.941-3.012,6.094-5.868,8.539-9.319c3.665-5.174,7.387-10.234,10.878-15.485c0.051-1.606,0.413-13.179,0.413-18.052
					c0-1.306,0.052-3.146,0.111-5.19c-3.418-1.678-3.801-8.613-2.896-11.591c0.091-0.296,0.552-0.246,0.545,0.074
					c-0.057,3.471-0.379,8.076,2.378,10.603c0.174-6.015,0.354-13.315-0.512-14.156c-1.204-1.169-8.645-0.292-10.532,8.097
					c-1.787,7.947-2.926,16.765-3.745,21.282c0.272,5.153-0.336,10.614-0.957,15.672c-0.255,2.081-0.395,4.489-1.453,6.348
					c-1.002,1.762-2.439,3.085-4.007,4.348c-0.454,0.365-1.105-0.27-0.648-0.649c1.697-1.408,3.666-2.916,4.343-5.123
					c0.792-2.585,0.989-5.315,1.257-7.992c0.339-3.393,0.571-6.776,0.754-10.17c-0.238-1.528-1.254-8.075-2.109-13.81
					c-0.772-0.624-1.385-1.623-1.772-2.341c-0.835-1.545-2.053-3.807-1.634-5.627c0.089-0.384,0.644-0.278,0.662,0.09
					c0.075,1.531,0.669,3.107,1.364,4.453c0.28,0.541,0.674,1.353,1.176,2.044c-0.455-3.072-0.837-5.751-0.989-7.057
					c-0.489-4.194-0.839-4.125-2.307-3.985c-1.521,0.145-7.969,2.727-7.969,11.535c-0.07,2.586,0.07,4.403,0.07,4.403
					s-0.037-0.005-0.1-0.009c0.872,5.283,0.886,10.678,0.959,16.023c0.06,4.462,0.212,9.794-2.959,13.344
					c-0.422,0.473-1.115-0.225-0.694-0.694c3.285-3.663,2.848-9.691,2.747-14.272c-0.106-4.814-0.453-9.569-0.764-14.356
					c-0.945,0.154-2.572,0.777-4.082,3.111c-2.307,3.565-3.072,14.063-2.517,19.713c0.769,7.829-3.079,11.054-3.329,11.315
					c3.109-1.713,6.458-2.844,10.145-2.465c3.225,0.332,7.21,2.416,6.486,6.23c-0.299,4.18-3.737,7.739-6.245,10.862
					c-2.002,2.495-4.182,4.884-5.948,7.558c-1.427,2.161-2.541,4.511-3.98,6.661c-3.091,4.62-7.01,9.107-10.86,13.109
					c-1.89,1.967-3.274,3.954-4.527,6.368c-0.986,1.901-1.964,3.793-3.563,5.255c-0.273,0.251-0.623-0.119-0.398-0.397
					c1.598-1.974,2.671-4.178,3.874-6.395c1.128-2.08,2.443-3.68,4.049-5.396c1.957-2.092,3.795-4.286,5.604-6.507
					c1.717-2.109,3.657-4.151,5.112-6.452c2.625-4.151,4.921-8.341,8.049-12.163c1.62-1.98,3.12-4.041,4.692-6.057
					c1.555-1.996,3.052-4.043,3.313-6.639c0.02-0.195,0.144-0.32,0.291-0.375c-0.431-1.621-1.048-3.009-2.746-3.795
					c-1.824-0.843-3.931-1.148-5.929-1.016c-0.102,0.006-0.202,0.019-0.302,0.027c-0.005,0.007-0.006,0.015-0.012,0.021
					c-2.354,2.691-4.728,5.436-6.256,8.697c-0.222,0.474-0.923,0.062-0.702-0.41c1.449-3.077,3.625-5.788,6.021-8.192
					c-2.977,0.485-5.589,1.937-8.124,3.537c-3.416,3.642-9.702,10.483-12.959,14.927c-1.521,2.074-3.409,3.985-5.427,5.755
					c-0.626,0.672-1.249,1.342-1.816,2.033c-1.744,2.127-3.68,4.047-5.657,5.952c-3.142,3.027-6.693,7.045-11.141,8.03
					c-0.366,0.08-0.487-0.416-0.152-0.551c4.571-1.832,8.033-5.478,11.537-8.814c1.259-1.199,8.695-9.647,9.859-10.938
					c-3.044,2.341-12.365,10.212-14.68,12.023c-4.823,3.774-15.029,5.382-26.983,16.078c-11.953,10.695-17.826,19.502-15.519,34.183
					c2.307,14.68,1.937,47.418,1.937,47.418 M317.224,196.895c0.887,2.156,3.153,5.195,5.686,5.323
					c0.322,0.017,0.387,0.462,0.076,0.56c-1.418,0.447-2.867-0.871-3.732-1.848c-1.02-1.15-1.944-2.449-2.402-3.933
					C316.776,196.753,317.132,196.671,317.224,196.895z"/>
				<path opacity="0.05" fill="#E18D8F" d="M281.072,278.838c0,0-14.809,3.354-24.811-0.839c0,0-0.112-14.681,3.122-18.874
					c3.234-4.194,20.85-19.294,27.142-27.682c6.291-8.389,15.518-3.355,9.646,7.55c-5.872,10.904-2.097,7.548,6.711,2.097
					c8.808-5.452,20.552-20.971,25.166-16.777c4.614,4.194-13.002,21.113-22.229,27.543c-9.228,6.431-25.166,17.335-24.746,25.724"
					/>
			</g>
			<g>
				<path fill="#FDD8C6" d="M220,318.629c0,0,0.046-34.129,2.354-48.809c2.307-14.681-3.565-23.487-15.519-34.183
					c-11.954-10.696-22.16-12.304-26.983-16.078c-2.314-1.812-11.635-9.683-14.68-12.023c1.165,1.29,8.601,9.738,9.86,10.938
					c3.504,3.337,6.966,6.982,11.537,8.814c0.335,0.135,0.215,0.631-0.152,0.551c-4.448-0.985-8-5.003-11.141-8.03
					c-1.978-1.905-3.914-3.825-5.657-5.952c-0.567-0.691-1.189-1.361-1.816-2.033c-2.018-1.77-3.906-3.681-5.427-5.755
					c-3.258-4.443-9.543-11.285-12.959-14.927c-2.536-1.601-5.147-3.052-8.125-3.537c2.396,2.404,4.571,5.115,6.021,8.192
					c0.222,0.472-0.479,0.884-0.701,0.41c-1.529-3.262-3.903-6.006-6.256-8.697c-0.006-0.007-0.007-0.015-0.013-0.021
					c-0.101-0.009-0.2-0.021-0.302-0.027c-1.999-0.133-4.105,0.173-5.929,1.016c-1.698,0.786-2.314,2.174-2.746,3.795
					c0.147,0.055,0.271,0.18,0.291,0.375c0.262,2.596,1.759,4.643,3.313,6.639c1.572,2.016,3.072,4.076,4.692,6.057
					c3.128,3.822,5.424,8.012,8.05,12.163c1.455,2.301,3.394,4.343,5.111,6.452c1.809,2.221,3.646,4.415,5.604,6.507
					c1.606,1.716,2.921,3.315,4.049,5.396c1.203,2.217,2.276,4.421,3.874,6.395c0.225,0.278-0.125,0.648-0.398,0.397
					c-1.598-1.462-2.576-3.354-3.563-5.255c-1.252-2.414-2.637-4.401-4.527-6.368c-3.85-4.002-7.769-8.489-10.859-13.109
					c-1.439-2.15-2.554-4.5-3.98-6.661c-1.766-2.674-3.946-5.063-5.949-7.558c-2.506-3.123-5.945-6.683-6.244-10.862
					c-0.725-3.814,3.261-5.898,6.486-6.23c3.687-0.379,7.036,0.752,10.144,2.465c-0.25-0.261-4.098-3.486-3.329-11.315
					c0.555-5.65-0.209-16.148-2.517-19.713c-1.511-2.334-3.136-2.958-4.082-3.111c-0.311,4.787-0.658,9.542-0.764,14.356
					c-0.102,4.581-0.539,10.61,2.747,14.272c0.421,0.47-0.272,1.167-0.694,0.694c-3.17-3.55-3.019-8.881-2.958-13.344
					c0.072-5.345,0.087-10.74,0.958-16.023c-0.063,0.004-0.1,0.009-0.1,0.009s0.14-1.817,0.07-4.403
					c0-8.808-6.449-11.39-7.969-11.535c-1.468-0.14-1.818-0.209-2.307,3.985c-0.152,1.305-0.534,3.984-0.989,7.057
					c0.502-0.691,0.896-1.503,1.176-2.044c0.695-1.346,1.289-2.922,1.364-4.453c0.018-0.368,0.572-0.474,0.662-0.09
					c0.419,1.82-0.799,4.082-1.634,5.627c-0.388,0.718-1,1.717-1.773,2.341c-0.855,5.735-1.872,12.282-2.109,13.81
					c0.184,3.394,0.415,6.777,0.754,10.17c0.268,2.677,0.464,5.407,1.257,7.992c0.677,2.207,2.646,3.715,4.343,5.123
					c0.457,0.38-0.195,1.015-0.649,0.649c-1.567-1.263-3.004-2.586-4.006-4.348c-1.059-1.859-1.198-4.268-1.453-6.348
					c-0.621-5.058-1.229-10.519-0.957-15.672c-0.818-4.518-1.957-13.335-3.745-21.282c-1.887-8.388-9.328-9.266-10.532-8.097
					c-0.865,0.84-0.686,8.141-0.511,14.156c2.756-2.526,2.434-7.132,2.377-10.603c-0.006-0.319,0.455-0.37,0.545-0.074
					c0.905,2.978,0.522,9.913-2.896,11.591c0.06,2.044,0.111,3.884,0.111,5.19c0,4.874,0.362,16.446,0.413,18.052
					c3.492,5.251,7.213,10.311,10.879,15.485c2.444,3.451,5.597,6.308,8.538,9.319c3.172,3.247,6.164,6.581,9.493,9.678
					c0.282,0.263-0.104,0.779-0.417,0.54c-3.417-2.607-6.232-6.008-9.232-9.066c-3.011-3.068-6.176-5.988-8.753-9.447
					c-2.644-3.551-5.225-7.172-7.786-10.782c-2.09-2.949-4.157-5.967-5.76-9.214c-1.645-2.064-3.569-4.614-4.715-6.595
					c-5.036-8.698-17.406-8.808-17.196-5.662c0.089,1.345,2.403,5.91,5.218,11.154c1.028-1.166,1.518-2.41,0.953-4.087
					c-0.523-1.553-1.702-2.901-2.566-4.271c-0.166-0.264,0.241-0.588,0.438-0.337c2.306,2.957,4.685,6.465,1.462,9.227
					c3.717,6.902,8.19,14.816,9.595,18.093c2.517,5.871,6.92,15.938,9.227,18.244c2.307,2.307,18.664,16.358,20.342,18.245
					c1.678,1.887,5.662,9.228,8.178,13.631c2.517,4.404,21.321,19.154,25.515,22.3c4.194,3.146,15.518,9.646,17.476,16.077
					c1.958,6.432,0.697,30.983-1.819,44.405 M147.148,196.997c-0.458,1.483-1.381,2.782-2.402,3.933
					c-0.865,0.977-2.314,2.295-3.732,1.848c-0.311-0.098-0.246-0.543,0.076-0.56c2.533-0.128,4.799-3.167,5.686-5.323
					C146.868,196.671,147.224,196.753,147.148,196.997z"/>
				<path opacity="0.05" fill="#E18D8F" d="M182.928,278.838c0,0,14.81,3.354,24.811-0.839c0,0,0.112-14.681-3.122-18.874
					c-3.234-4.194-20.85-19.294-27.142-27.682c-6.291-8.389-15.518-3.355-9.646,7.55c5.872,10.904,2.097,7.548-6.711,2.097
					c-8.808-5.452-20.552-20.971-25.166-16.777c-4.613,4.194,13.002,21.113,22.229,27.543c9.227,6.431,25.165,17.335,24.746,25.724"
					/>
			</g>
		</g>
	</g>
	<g display="none">
		<g display="inline">
			<path fill="#59181C" d="M230.992,332.93h0.313v-0.393c0-0.414,0.052-0.738,0.156-0.981c0.104-0.243,0.281-0.419,0.53-0.53
				c0.247-0.109,0.59-0.165,1.021-0.165c0.769,0,1.151,0.187,1.151,0.565c0,0.119-0.042,0.225-0.122,0.312
				c-0.08,0.084-0.174,0.13-0.283,0.13c-0.051,0-0.141-0.011-0.268-0.031c-0.119-0.017-0.229-0.028-0.315-0.028
				c-0.236,0-0.388,0.07-0.458,0.21c-0.066,0.14-0.101,0.34-0.101,0.6v0.313h0.322c0.501,0,0.75,0.152,0.75,0.454
				c0,0.212-0.065,0.349-0.2,0.406c-0.133,0.059-0.317,0.088-0.551,0.088h-0.322v3.48c0,0.259-0.06,0.456-0.186,0.591
				c-0.124,0.14-0.281,0.206-0.479,0.206c-0.184,0-0.339-0.066-0.463-0.206c-0.124-0.135-0.185-0.332-0.185-0.591v-3.48h-0.362
				c-0.196,0-0.347-0.043-0.452-0.133c-0.105-0.087-0.16-0.201-0.16-0.342C230.331,333.087,230.551,332.93,230.992,332.93z"/>
			<path fill="#59181C" d="M234.614,332.813c0.219,0,0.376,0.069,0.474,0.207c0.095,0.139,0.149,0.342,0.16,0.613
				c0.155-0.271,0.316-0.475,0.481-0.613c0.166-0.138,0.385-0.207,0.662-0.207c0.278,0,0.544,0.069,0.804,0.207
				c0.26,0.139,0.39,0.321,0.39,0.549c0,0.161-0.055,0.295-0.166,0.397c-0.111,0.105-0.228,0.156-0.358,0.156
				c-0.05,0-0.167-0.029-0.35-0.09c-0.186-0.059-0.348-0.088-0.488-0.088c-0.191,0-0.349,0.053-0.47,0.15
				c-0.122,0.103-0.218,0.252-0.285,0.449c-0.068,0.199-0.114,0.438-0.139,0.711c-0.026,0.277-0.038,0.609-0.038,1.005v1.098
				c0,0.266-0.065,0.466-0.19,0.597c-0.125,0.135-0.282,0.2-0.474,0.2c-0.193,0-0.348-0.066-0.468-0.202
				c-0.123-0.134-0.184-0.334-0.184-0.595"/>
			<path fill="#59181C" d="M241.328,335.809h-2.57c0.003,0.297,0.063,0.562,0.181,0.788c0.116,0.228,0.271,0.399,0.466,0.516
				c0.197,0.114,0.409,0.172,0.643,0.172c0.157,0,0.3-0.018,0.43-0.058c0.13-0.034,0.257-0.092,0.377-0.171
				c0.123-0.077,0.233-0.161,0.338-0.251c0.102-0.092,0.235-0.214,0.4-0.367c0.067-0.057,0.164-0.087,0.288-0.087
				c0.135,0,0.243,0.037,0.328,0.11c0.085,0.077,0.125,0.179,0.125,0.313c0,0.121-0.046,0.258-0.137,0.417
				c-0.095,0.161-0.235,0.312-0.425,0.458c-0.187,0.145-0.423,0.27-0.707,0.361c-0.284,0.098-0.61,0.146-0.979,0.146
				c-0.844,0-1.499-0.237-1.966-0.721c-0.471-0.482-0.706-1.136-0.706-1.958c0-0.39,0.059-0.75,0.175-1.081
				c0.114-0.335,0.284-0.616,0.506-0.854c0.221-0.238,0.493-0.422,0.816-0.547c0.323-0.126,0.681-0.189,1.076-0.189
				c0.515,0,0.956,0.106,1.322,0.325c0.368,0.216,0.646,0.495,0.826,0.838c0.182,0.346,0.275,0.694,0.275,1.051
				c0,0.328-0.096,0.544-0.286,0.642C241.938,335.759,241.671,335.809,241.328,335.809z M238.758,335.061h2.382
				c-0.032-0.447-0.153-0.783-0.363-1.006c-0.209-0.223-0.486-0.334-0.83-0.334c-0.326,0-0.596,0.111-0.807,0.34
				C238.931,334.285,238.803,334.62,238.758,335.061z"/>
			<path fill="#59181C" d="M246.791,335.809h-2.569c0.003,0.297,0.064,0.562,0.181,0.788c0.116,0.228,0.273,0.399,0.466,0.516
				c0.194,0.114,0.409,0.172,0.643,0.172c0.156,0,0.301-0.018,0.43-0.058c0.131-0.034,0.255-0.092,0.379-0.171
				c0.122-0.077,0.234-0.161,0.337-0.251c0.101-0.092,0.235-0.214,0.397-0.367c0.069-0.057,0.166-0.087,0.288-0.087
				c0.136,0,0.246,0.037,0.33,0.11c0.084,0.077,0.123,0.179,0.123,0.313c0,0.121-0.044,0.258-0.14,0.417
				c-0.09,0.161-0.23,0.312-0.42,0.458c-0.187,0.145-0.424,0.27-0.708,0.361c-0.282,0.098-0.61,0.146-0.98,0.146
				c-0.841,0-1.498-0.237-1.967-0.721c-0.468-0.482-0.703-1.136-0.703-1.958c0-0.39,0.059-0.75,0.175-1.081
				c0.116-0.335,0.283-0.616,0.504-0.854c0.223-0.238,0.495-0.422,0.818-0.547c0.326-0.126,0.684-0.189,1.078-0.189
				c0.512,0,0.953,0.106,1.324,0.325c0.366,0.216,0.642,0.495,0.823,0.838c0.183,0.346,0.274,0.694,0.274,1.051
				c0,0.328-0.095,0.544-0.284,0.642C247.399,335.759,247.132,335.809,246.791,335.809z M244.222,335.061h2.382
				c-0.031-0.447-0.155-0.783-0.363-1.006c-0.211-0.223-0.487-0.334-0.831-0.334c-0.328,0-0.595,0.111-0.805,0.34
				C244.393,334.285,244.266,334.62,244.222,335.061z"/>
			<path fill="#59181C" d="M249.667,333.553v0.157c0.247-0.304,0.506-0.529,0.773-0.67c0.265-0.145,0.566-0.217,0.903-0.217
				c0.404,0,0.777,0.105,1.117,0.313c0.342,0.21,0.609,0.514,0.805,0.916c0.198,0.4,0.297,0.875,0.297,1.424
				c0,0.403-0.057,0.775-0.17,1.114c-0.112,0.338-0.271,0.62-0.469,0.852c-0.199,0.226-0.436,0.405-0.705,0.529
				c-0.273,0.122-0.563,0.184-0.875,0.184c-0.375,0-0.69-0.075-0.945-0.226c-0.255-0.149-0.498-0.373-0.73-0.663v1.973
				c0,0.576-0.21,0.867-0.629,0.867c-0.249,0-0.409-0.075-0.492-0.224c-0.078-0.151-0.119-0.367-0.119-0.654v-5.668
				c0-0.251,0.054-0.436,0.162-0.563c0.111-0.121,0.261-0.185,0.449-0.185c0.186,0,0.338,0.063,0.454,0.19
				C249.61,333.131,249.667,333.313,249.667,333.553z M252.242,335.462c0-0.348-0.052-0.645-0.158-0.893
				c-0.105-0.249-0.252-0.439-0.438-0.571c-0.188-0.134-0.397-0.201-0.625-0.201c-0.361,0-0.669,0.143-0.917,0.427
				c-0.25,0.288-0.373,0.707-0.373,1.263c0,0.521,0.122,0.929,0.37,1.219c0.247,0.291,0.551,0.435,0.919,0.435
				c0.217,0,0.421-0.063,0.606-0.188c0.186-0.128,0.336-0.316,0.449-0.571C252.188,336.127,252.242,335.82,252.242,335.462z"/>
			<path fill="#59181C" d="M254.884,332.202c-0.183,0-0.337-0.058-0.466-0.169c-0.131-0.113-0.198-0.27-0.198-0.473
				c0-0.187,0.068-0.342,0.201-0.462c0.133-0.118,0.288-0.181,0.463-0.181c0.171,0,0.322,0.056,0.454,0.162
				c0.131,0.109,0.198,0.27,0.198,0.48c0,0.2-0.065,0.358-0.194,0.472C255.215,332.145,255.063,332.202,254.884,332.202z
				 M255.536,333.561v3.798c0,0.261-0.064,0.461-0.188,0.595c-0.127,0.136-0.285,0.202-0.478,0.202
				c-0.192,0-0.348-0.066-0.467-0.206c-0.121-0.141-0.183-0.336-0.183-0.591v-3.761c0-0.26,0.062-0.455,0.183-0.586
				c0.12-0.133,0.275-0.198,0.467-0.198c0.193,0,0.351,0.065,0.478,0.198C255.472,333.143,255.536,333.327,255.536,333.561z"/>
			<path fill="#59181C" d="M259.771,337.557l-1.159-1.908l-0.713,0.673v1.046c0,0.252-0.067,0.447-0.201,0.582
				c-0.13,0.14-0.286,0.206-0.459,0.206c-0.201,0-0.361-0.066-0.476-0.202c-0.115-0.134-0.174-0.334-0.174-0.595v-5.604
				c0-0.289,0.057-0.513,0.168-0.667c0.113-0.152,0.275-0.228,0.482-0.228c0.203,0,0.362,0.069,0.48,0.209
				c0.121,0.136,0.179,0.34,0.179,0.607v3.188l1.478-1.552c0.183-0.189,0.32-0.323,0.418-0.395c0.095-0.068,0.213-0.105,0.35-0.105
				c0.165,0,0.3,0.053,0.413,0.156c0.106,0.105,0.161,0.235,0.161,0.393c0,0.191-0.179,0.45-0.535,0.771l-0.696,0.639l1.348,2.119
				c0.097,0.159,0.171,0.274,0.213,0.357c0.044,0.081,0.065,0.163,0.065,0.234c0,0.209-0.057,0.371-0.171,0.494
				c-0.113,0.119-0.264,0.179-0.448,0.179c-0.164,0-0.286-0.04-0.375-0.13C260.036,337.938,259.917,337.78,259.771,337.557z"/>
			<path fill="#59181C" d="M262.623,338.155c-0.198,0-0.37-0.065-0.514-0.193c-0.144-0.126-0.217-0.307-0.217-0.538
				c0-0.197,0.072-0.365,0.207-0.505c0.14-0.141,0.31-0.212,0.512-0.212s0.373,0.071,0.519,0.209
				c0.141,0.14,0.214,0.311,0.214,0.508c0,0.229-0.074,0.408-0.214,0.537C262.983,338.09,262.815,338.155,262.623,338.155z"/>
			<path fill="#59181C" d="M269.155,336.528c0,0.163-0.048,0.339-0.147,0.526c-0.098,0.186-0.246,0.362-0.447,0.531
				c-0.202,0.168-0.451,0.304-0.758,0.405c-0.306,0.103-0.648,0.155-1.028,0.155c-0.813,0-1.446-0.237-1.904-0.709
				c-0.454-0.473-0.681-1.109-0.681-1.904c0-0.541,0.102-1.014,0.312-1.43c0.208-0.413,0.51-0.733,0.904-0.96
				c0.394-0.226,0.868-0.338,1.413-0.338c0.342,0,0.653,0.049,0.939,0.149c0.284,0.098,0.523,0.229,0.722,0.383
				c0.195,0.159,0.347,0.325,0.45,0.503c0.105,0.179,0.157,0.345,0.157,0.5c0,0.157-0.057,0.289-0.175,0.398
				c-0.118,0.11-0.26,0.164-0.425,0.164c-0.111,0-0.201-0.028-0.271-0.084c-0.074-0.057-0.154-0.146-0.244-0.274
				c-0.159-0.242-0.327-0.426-0.504-0.545c-0.174-0.124-0.397-0.185-0.667-0.185c-0.384,0-0.698,0.151-0.938,0.454
				c-0.237,0.303-0.355,0.719-0.355,1.243c0,0.247,0.032,0.477,0.092,0.683c0.06,0.205,0.146,0.383,0.264,0.528
				c0.118,0.146,0.255,0.255,0.418,0.332c0.165,0.078,0.344,0.114,0.539,0.114c0.265,0,0.489-0.062,0.677-0.184
				c0.191-0.12,0.356-0.307,0.5-0.559c0.081-0.146,0.167-0.26,0.258-0.344c0.093-0.084,0.208-0.127,0.343-0.127
				c0.162,0,0.294,0.062,0.399,0.183S269.155,336.393,269.155,336.528z"/>
			<path fill="#59181C" d="M274.824,335.486c0,0.39-0.062,0.751-0.181,1.083c-0.125,0.33-0.3,0.614-0.532,0.85
				c-0.228,0.237-0.507,0.419-0.827,0.547c-0.323,0.124-0.682,0.189-1.083,0.189c-0.399,0-0.755-0.065-1.073-0.193
				c-0.316-0.126-0.595-0.312-0.824-0.547c-0.234-0.242-0.411-0.524-0.534-0.851c-0.115-0.326-0.179-0.685-0.179-1.078
				c0-0.399,0.065-0.763,0.185-1.094c0.121-0.332,0.296-0.613,0.525-0.846c0.228-0.234,0.503-0.416,0.826-0.543
				c0.324-0.127,0.683-0.19,1.073-0.19c0.398,0,0.759,0.063,1.083,0.193c0.324,0.127,0.6,0.312,0.833,0.547
				c0.231,0.238,0.406,0.521,0.527,0.847C274.763,334.73,274.824,335.09,274.824,335.486z M273.506,335.486
				c0-0.536-0.12-0.953-0.354-1.252c-0.235-0.3-0.551-0.449-0.95-0.449c-0.257,0-0.483,0.068-0.681,0.2
				c-0.195,0.134-0.344,0.329-0.45,0.59c-0.105,0.261-0.161,0.563-0.161,0.911c0,0.343,0.052,0.642,0.157,0.896
				c0.105,0.261,0.255,0.456,0.449,0.591c0.195,0.135,0.423,0.205,0.686,0.205c0.398,0,0.715-0.15,0.95-0.451
				C273.386,336.428,273.506,336.014,273.506,335.486z"/>
			<path fill="#59181C" d="M279.833,335.583v1.745c0,0.277-0.061,0.48-0.187,0.621c-0.125,0.14-0.291,0.206-0.496,0.206
				c-0.198,0-0.361-0.066-0.481-0.206c-0.125-0.141-0.188-0.344-0.188-0.621v-2.093c0-0.33-0.011-0.588-0.031-0.771
				c-0.025-0.18-0.086-0.333-0.185-0.448c-0.098-0.117-0.256-0.177-0.471-0.177c-0.431,0-0.713,0.146-0.849,0.445
				c-0.136,0.292-0.205,0.716-0.205,1.27v1.774c0,0.272-0.063,0.479-0.185,0.618c-0.125,0.14-0.287,0.209-0.489,0.209
				c-0.199,0-0.361-0.069-0.487-0.209c-0.127-0.14-0.192-0.346-0.192-0.618v-3.759c0-0.246,0.058-0.436,0.172-0.563
				c0.115-0.13,0.265-0.193,0.45-0.193c0.181,0,0.33,0.063,0.451,0.182c0.12,0.12,0.179,0.284,0.179,0.498v0.123
				c0.23-0.27,0.472-0.472,0.734-0.6c0.259-0.129,0.546-0.193,0.864-0.193c0.331,0,0.616,0.066,0.852,0.197
				c0.238,0.132,0.433,0.331,0.587,0.596c0.22-0.267,0.459-0.468,0.712-0.6c0.255-0.129,0.534-0.193,0.842-0.193
				c0.36,0,0.67,0.072,0.93,0.212c0.26,0.142,0.453,0.346,0.579,0.606c0.114,0.239,0.17,0.612,0.17,1.123v2.563
				c0,0.277-0.063,0.48-0.186,0.621c-0.125,0.14-0.29,0.206-0.497,0.206c-0.198,0-0.362-0.069-0.489-0.209
				c-0.126-0.14-0.188-0.346-0.188-0.618v-2.21c0-0.282-0.014-0.508-0.038-0.677c-0.021-0.17-0.088-0.313-0.194-0.43
				c-0.108-0.113-0.267-0.173-0.482-0.173c-0.173,0-0.336,0.052-0.493,0.155c-0.155,0.102-0.276,0.24-0.365,0.412
				C279.883,334.626,279.833,335.02,279.833,335.583z"/>
			<g>
				<path fill-rule="evenodd" clip-rule="evenodd" fill="#59181C" d="M221.895,338.615c0,0-0.718-0.115-1.417-0.88
					c-0.705-0.771-0.824-1.589-0.824-1.589s0.894,0.212,1.536,0.281c1.13,0.129,2.15,0.058,2.63,0.006
					c1.04-0.115,1.594-0.307,1.817-0.362c1.329-0.318,2.606-1.179,2.606-1.179s0.161,0.999-0.59,2.105
					c-0.293,0.432-0.875,0.93-1.547,1.271C223.809,339.249,221.895,338.615,221.895,338.615z"/>
				<path fill-rule="evenodd" clip-rule="evenodd" fill="#59181C" d="M227.326,332.943c-0.249-0.299-1.07-1.71-2.736-1.912
					c-0.427-0.051-2.678,0.036-4.028,1.287c-0.135,0.125-0.821,0.728-1.048,1.849c-0.177,0.866,0.114,1.844,0.114,1.844
					s1.497,0.311,2.626,0.282c1.791-0.045,2.691-0.202,3.628-0.485c1.378-0.42,2.354-1.117,2.354-1.117
					S227.574,333.245,227.326,332.943z M222.16,335.09c-0.756,0.051-1.408-0.521-1.456-1.274c-0.047-0.751,0.529-1.402,1.286-1.449
					c0.759-0.053,1.411,0.521,1.456,1.272C223.495,334.393,222.917,335.043,222.16,335.09z M226.027,334.119
					c-0.477,0.027-0.888-0.33-0.918-0.806c-0.028-0.472,0.334-0.88,0.811-0.911c0.475-0.031,0.888,0.33,0.916,0.802
					C226.867,333.679,226.502,334.088,226.027,334.119z"/>
				<path fill-rule="evenodd" clip-rule="evenodd" fill="#59181C" d="M226.678,331.97l0.435-0.523c0,0,0.601,0.295,0.986,0.853
					c0.385,0.555,0.635,1.063,0.635,1.063l-0.717,0.437c0,0-0.223-0.536-0.557-0.966C227.129,332.405,226.678,331.97,226.678,331.97
					z"/>
				<path fill-rule="evenodd" clip-rule="evenodd" fill="#59181C" d="M228.043,332.331c0.112-0.067,0.303-0.076,0.291-0.237
					c-0.007-0.157-0.114-0.472,0.197-0.577c0.315-0.107,0.139,0.092,0.03,0.231c-0.109,0.137-0.074,0.222-0.06,0.426
					c0.012,0.199-0.13,0.268-0.344,0.365C227.945,332.642,227.933,332.397,228.043,332.331z"/>
				<path fill-rule="evenodd" clip-rule="evenodd" fill="#59181C" d="M220.063,332.651c0,0-0.503,0.585-0.631,1.114
					c-0.127,0.53-0.101,1.169-0.101,1.169l-0.747-0.257c0,0-0.042-0.732,0.296-1.326c0.379-0.657,0.861-0.954,0.861-0.954
					L220.063,332.651z"/>
				<path fill-rule="evenodd" clip-rule="evenodd" fill="#59181C" d="M218.967,333.318c-0.121-0.08-0.133-0.27-0.229-0.393
					c-0.095-0.125-0.119-0.05-0.338-0.05c-0.219-0.002-0.225-0.104-0.288-0.156c-0.063-0.054-0.091,0.164-0.091,0.164
					s0.041,0.187,0.275,0.2c0.233,0.016,0.226-0.101,0.328,0.109c0.1,0.213,0.301,0.374,0.301,0.374
					S219.089,333.396,218.967,333.318z"/>
				<path fill-rule="evenodd" clip-rule="evenodd" fill="#59181C" d="M222.924,330.54c1.223-0.307,1.989,0.048,1.989,0.048
					l-0.065,0.351c0,0-0.895-0.06-1.604,0.047c-0.708,0.101-1.03,0.324-1.03,0.324l-0.153-0.353
					C222.061,330.957,222.396,330.672,222.924,330.54z"/>
				<path fill-rule="evenodd" clip-rule="evenodd" fill="#59181C" d="M223.292,330.038l0.171-0.064l0.228,0.611l-0.171,0.063
					L223.292,330.038z"/>
				<path fill-rule="evenodd" clip-rule="evenodd" fill="#59181C" d="M228.679,331.171c0.173-0.011,0.32,0.121,0.331,0.295
					c0.012,0.171-0.119,0.318-0.292,0.329c-0.173,0.013-0.32-0.121-0.331-0.292C228.375,331.331,228.506,331.186,228.679,331.171z"
					/>
				<path fill-rule="evenodd" clip-rule="evenodd" fill="#59181C" d="M217.936,332.353c0.174-0.009,0.322,0.12,0.333,0.292
					c0.01,0.172-0.121,0.318-0.293,0.33s-0.32-0.119-0.333-0.29C217.633,332.513,217.765,332.366,217.936,332.353z"/>
				<path fill-rule="evenodd" clip-rule="evenodd" fill="#59181C" d="M223.44,329.259c0.275-0.018,0.512,0.189,0.528,0.464
					c0.018,0.272-0.191,0.508-0.466,0.525c-0.275,0.02-0.51-0.188-0.529-0.464C222.956,329.512,223.165,329.274,223.44,329.259z"/>
			</g>
		</g>
		<g display="inline">
			<path fill="#59181C" d="M184.364,337.432c0,0.309-0.194,0.512-0.462,0.512c-0.253,0-0.401-0.14-0.458-0.385
				c-0.173,0.282-0.528,0.422-0.841,0.422c-0.925,0-1.511-0.859-1.511-1.727c0-0.895,0.491-1.818,1.479-1.818
				c0.319,0,0.631,0.109,0.874,0.32v-1.251c0-0.304,0.19-0.509,0.458-0.509c0.268,0,0.462,0.205,0.462,0.509V337.432z
				 M182.724,335.277c-0.479,0-0.714,0.503-0.714,0.938c0,0.428,0.235,0.924,0.714,0.924c0.503,0,0.72-0.511,0.72-0.956
				C183.444,335.736,183.214,335.277,182.724,335.277z"/>
			<path fill="#59181C" d="M185.623,336.514c0.065,0.452,0.441,0.664,0.869,0.664c0.471,0,0.795-0.371,1.039-0.371
				c0.197,0,0.374,0.197,0.374,0.397c0,0.396-0.815,0.776-1.497,0.776c-1.034,0-1.722-0.754-1.722-1.765
				c0-0.931,0.677-1.78,1.645-1.78c0.994,0,1.652,0.908,1.652,1.671c0,0.274-0.122,0.407-0.403,0.407H185.623z M187.066,335.902
				c-0.052-0.403-0.307-0.699-0.734-0.699c-0.408,0-0.683,0.31-0.727,0.699H187.066z"/>
			<path fill="#59181C" d="M190.24,335.507c-0.173,0-0.524-0.267-0.823-0.267c-0.165,0-0.313,0.075-0.313,0.254
				c0,0.427,1.594,0.364,1.594,1.411c0,0.61-0.516,1.075-1.308,1.075c-0.516,0-1.28-0.293-1.28-0.707c0-0.14,0.14-0.407,0.396-0.407
				c0.356,0,0.516,0.312,0.949,0.312c0.28,0,0.364-0.089,0.364-0.262c0-0.422-1.596-0.357-1.596-1.409
				c0-0.636,0.518-1.071,1.243-1.071c0.454,0,1.148,0.212,1.148,0.665C190.615,335.31,190.455,335.507,190.24,335.507z"/>
			<path fill="#59181C" d="M191.986,333.601c0,0.289-0.229,0.529-0.517,0.529c-0.274,0-0.516-0.248-0.516-0.529
				c0-0.262,0.242-0.501,0.516-0.501C191.743,333.1,191.986,333.332,191.986,333.601z M191.011,334.985
				c0-0.307,0.19-0.511,0.458-0.511s0.459,0.204,0.459,0.511v2.446c0,0.309-0.191,0.512-0.459,0.512s-0.458-0.203-0.458-0.512
				V334.985z"/>
			<path fill="#59181C" d="M195.574,337.638c0,1.102-0.72,1.659-1.766,1.659c-0.375,0-1.447-0.188-1.447-0.691
				c0-0.171,0.191-0.401,0.37-0.401c0.293,0,0.619,0.285,1.147,0.285c0.447,0,0.779-0.258,0.779-0.726v-0.216h-0.014
				c-0.19,0.28-0.503,0.433-0.923,0.433c-0.963,0-1.417-0.847-1.417-1.758c0-0.926,0.587-1.787,1.512-1.787
				c0.312,0,0.668,0.141,0.842,0.42c0.057-0.24,0.203-0.381,0.458-0.381c0.268,0,0.459,0.204,0.459,0.511V337.638z M193.935,335.277
				c-0.477,0-0.712,0.498-0.712,0.927c0,0.489,0.235,0.936,0.712,0.936c0.492,0,0.722-0.458,0.722-0.908
				C194.657,335.789,194.439,335.277,193.935,335.277z"/>
			<path fill="#59181C" d="M196.096,334.985c0-0.307,0.191-0.511,0.459-0.511c0.237,0,0.39,0.127,0.42,0.339
				c0.181-0.25,0.454-0.378,0.886-0.378c0.721,0,1.256,0.459,1.256,1.237v1.759c0,0.309-0.189,0.512-0.458,0.512
				c-0.267,0-0.46-0.203-0.46-0.512v-1.601c0-0.425-0.268-0.628-0.599-0.628c-0.375,0-0.586,0.273-0.586,0.628v1.601
				c0,0.309-0.193,0.512-0.459,0.512c-0.269,0-0.459-0.203-0.459-0.512V334.985z"/>
			<path fill="#59181C" d="M200.381,336.514c0.063,0.452,0.439,0.664,0.866,0.664c0.472,0,0.797-0.371,1.04-0.371
				c0.197,0,0.377,0.197,0.377,0.397c0,0.396-0.817,0.776-1.499,0.776c-1.034,0-1.721-0.754-1.721-1.765
				c0-0.931,0.675-1.78,1.646-1.78c0.993,0,1.649,0.908,1.649,1.671c0,0.274-0.121,0.407-0.401,0.407H200.381z M201.821,335.902
				c-0.052-0.403-0.305-0.699-0.732-0.699c-0.41,0-0.685,0.31-0.728,0.699H201.821z"/>
			<path fill="#59181C" d="M206.2,337.432c0,0.309-0.19,0.512-0.459,0.512c-0.254,0-0.4-0.14-0.457-0.385
				c-0.174,0.282-0.529,0.422-0.843,0.422c-0.923,0-1.509-0.859-1.509-1.727c0-0.895,0.49-1.818,1.479-1.818
				c0.317,0,0.63,0.109,0.873,0.32v-1.251c0-0.304,0.191-0.509,0.457-0.509c0.27,0,0.459,0.205,0.459,0.509V337.432z
				 M204.563,335.277c-0.479,0-0.714,0.503-0.714,0.938c0,0.428,0.235,0.924,0.714,0.924c0.502,0,0.72-0.511,0.72-0.956
				C205.283,335.736,205.054,335.277,204.563,335.277z"/>
			<path fill="#59181C" d="M208.432,333.505c0-0.304,0.192-0.509,0.46-0.509c0.267,0,0.457,0.205,0.457,0.509v1.251
				c0.245-0.211,0.556-0.32,0.874-0.32c0.99,0,1.479,0.924,1.479,1.818c0,0.867-0.585,1.727-1.511,1.727
				c-0.311,0-0.668-0.14-0.841-0.422c-0.057,0.245-0.202,0.385-0.457,0.385c-0.268,0-0.46-0.203-0.46-0.512V333.505z
				 M210.069,337.14c0.478,0,0.715-0.496,0.715-0.924c0-0.436-0.237-0.938-0.715-0.938c-0.49,0-0.721,0.459-0.721,0.906
				C209.349,336.629,209.567,337.14,210.069,337.14z"/>
			<path fill="#59181C" d="M211.861,335.105c-0.026-0.069-0.045-0.142-0.045-0.234c0-0.23,0.243-0.396,0.434-0.396
				c0.223,0,0.383,0.122,0.459,0.325l0.631,1.728l0.674-1.728c0.076-0.203,0.236-0.325,0.46-0.325c0.192,0,0.434,0.166,0.434,0.396
				c0,0.093-0.014,0.165-0.044,0.234l-1.537,3.826c-0.077,0.189-0.218,0.365-0.434,0.365c-0.311,0-0.479-0.201-0.479-0.396
				c0-0.092,0.026-0.187,0.058-0.27l0.403-0.993L211.861,335.105z"/>
		</g>
	</g>
</g>
<g display="none">
	<g display="inline">
		<path fill="#FDD8C6" d="M226.687,310.396c0,0,9.745-44.553-33.001-70.45c0,0-34.037-13.558-33.287-17.852
			c0,0-1.12,21.75,23.24,31.255c24.358,9.505,17.598,14.37,9.262,15.194c-8.333,0.823-63.953-16.063-63.953-16.063
			s-15.997-53.095-37.881-49.752c0,0,13.768,31.312,15.912,41.366c2.145,10.053,5.948,28.675,10.009,30.262
			c4.06,1.582,40.175,4.466,64.05,12.486C204.911,294.86,226.687,310.396,226.687,310.396z"/>
		<path fill="#FDD8C6" d="M109.409,255.15l-13.884-30.467c0,0-6.302-8.063-17.494-6.687c0,0,0.155,5.896,7.759,12.522
			C93.396,237.146,109.409,255.15,109.409,255.15z"/>
		<path fill="#FDD8C6" d="M111.205,265.255l-15.979-20.452c0,0-6.394-9.225-15.703-5.741c0,0,2.979,8.388,10.859,12.502
			C98.26,255.678,111.205,265.255,111.205,265.255z"/>
	</g>
	<g display="inline">
		<path fill="#FDD8C6" d="M236.832,310.396c0,0-9.745-44.553,33.001-70.45c0,0,34.037-13.558,33.287-17.852
			c0,0,1.12,21.75-23.24,31.255c-24.358,9.505-17.598,14.37-9.262,15.194c8.333,0.823,63.953-16.063,63.953-16.063
			s15.997-53.095,37.881-49.752c0,0-13.768,31.312-15.912,41.366c-2.145,10.053-5.947,28.675-10.009,30.262
			c-4.06,1.582-40.175,4.466-64.05,12.486C258.608,294.86,236.832,310.396,236.832,310.396z"/>
		<path fill="#FDD8C6" d="M354.11,255.15l13.884-30.467c0,0,6.302-8.063,17.494-6.687c0,0-0.155,5.896-7.759,12.522
			S354.11,255.15,354.11,255.15z"/>
		<path fill="#FDD8C6" d="M352.314,265.255l15.979-20.452c0,0,6.394-9.225,15.704-5.741c0,0-2.98,8.388-10.859,12.502
			C365.259,255.678,352.314,265.255,352.314,265.255z"/>
	</g>
</g>
<g opacity="0.3">
	<circle fill="none" stroke="#FFFFFF" stroke-miterlimit="10" cx="230.842" cy="187.168" r="76.602"/>
	<g>
		<g>
			<path fill="none" stroke="#FFFFFF" stroke-miterlimit="10" d="M230.981,111.037c31.393,9.943,54.232,40.266,54.232,76.131
				c0,35.709-22.642,65.924-53.823,75.998"/>
			<path fill="none" stroke="#FFFFFF" stroke-miterlimit="10" d="M230.862,110.814c16.597,18.342,27.136,45.741,27.136,76.354
				c0,30.359-10.365,57.555-26.726,75.896"/>
		</g>
		<g>
			<path fill="none" stroke="#FFFFFF" stroke-miterlimit="10" d="M230.702,110.983c-31.393,9.943-54.23,40.267-54.23,76.132
				c0,35.709,22.641,65.924,53.822,76"/>
			<path fill="none" stroke="#FFFFFF" stroke-miterlimit="10" d="M230.823,110.762c-16.599,18.342-27.137,45.741-27.137,76.353
				c0,30.358,10.364,57.558,26.726,75.896"/>
		</g>
	</g>
	<line fill="none" stroke="#FFFFFF" stroke-miterlimit="10" x1="230.842" y1="110.565" x2="230.842" y2="263.769"/>
	<line fill="none" stroke="#FFFFFF" stroke-miterlimit="10" x1="165.278" y1="148.078" x2="296.404" y2="148.078"/>
	<line fill="none" stroke="#FFFFFF" stroke-miterlimit="10" x1="154.241" y1="187.168" x2="307.444" y2="187.168"/>
	<line fill="none" stroke="#FFFFFF" stroke-miterlimit="10" x1="165.278" y1="226.266" x2="296.404" y2="226.266"/>
</g>
<line fill="none" stroke="#515251" stroke-width="3" stroke-miterlimit="10" x1="42.585" y1="338.656" x2="987.068" y2="338.656"/>
<g>
	<path fill="#0C123A" stroke="#4B6BB3" stroke-width="3" stroke-miterlimit="10" d="M439.487,212.999v-63.415h42.825v11.988h-28.55
		v12.445h25.348v11.713h-25.348v15.282h30.655v11.987H439.487z"/>
	<path fill="#0C123A" stroke="#4B6BB3" stroke-width="3" stroke-miterlimit="10" d="M511.777,149.584
		c1.101,2.013,2.369,4.5,3.808,7.458c1.437,2.96,2.936,6.163,4.495,9.608c1.56,3.447,3.104,6.97,4.634,10.569
		c1.528,3.601,2.966,6.986,4.313,10.157c1.346-3.171,2.782-6.557,4.313-10.157c1.528-3.599,3.072-7.122,4.633-10.569
		c1.56-3.446,3.058-6.648,4.496-9.608c1.438-2.958,2.707-5.445,3.808-7.458h12.994c0.609,4.209,1.174,8.922,1.693,14.138
		c0.518,5.216,0.975,10.646,1.372,16.289c0.396,5.644,0.763,11.301,1.099,16.975c0.334,5.673,0.624,11.012,0.869,16.014h-13.909
		c-0.184-6.161-0.428-12.871-0.732-20.132c-0.306-7.259-0.764-14.58-1.372-21.962c-1.103,2.563-2.326,5.399-3.672,8.51
		c-1.347,3.112-2.679,6.223-3.994,9.333c-1.315,3.111-2.585,6.086-3.809,8.923c-1.224,2.836-2.265,5.262-3.121,7.274h-9.975
		c-0.857-2.013-1.897-4.438-3.121-7.274c-1.224-2.837-2.495-5.812-3.811-8.923c-1.315-3.11-2.646-6.222-3.992-9.333
		c-1.347-3.111-2.57-5.948-3.672-8.51c-0.61,7.382-1.067,14.703-1.372,21.962c-0.306,7.261-0.549,13.971-0.732,20.132h-13.909
		c0.243-5.002,0.534-10.341,0.87-16.014c0.334-5.674,0.701-11.331,1.098-16.975c0.396-5.642,0.854-11.073,1.373-16.289
		c0.518-5.216,1.083-9.929,1.693-14.138H511.777z"/>
	<path fill="#0C123A" stroke="#4B6BB3" stroke-width="3" stroke-miterlimit="10" d="M596.055,148.852
		c9.455,0,16.714,1.663,21.778,4.987c5.063,3.326,7.596,8.771,7.596,16.334c0,7.626-2.563,13.131-7.687,16.517
		c-5.125,3.386-12.445,5.079-21.962,5.079h-4.484v21.229h-14.275v-62.5c3.111-0.609,6.406-1.037,9.883-1.281
		C590.381,148.975,593.431,148.852,596.055,148.852z M596.97,161.022c-1.038,0-2.06,0.032-3.065,0.092
		c-1.007,0.062-1.876,0.123-2.608,0.183v18.301h4.484c4.941,0,8.661-0.67,11.163-2.013c2.501-1.341,3.752-3.843,3.752-7.503
		c0-1.769-0.32-3.233-0.961-4.393c-0.64-1.158-1.556-2.089-2.745-2.791c-1.189-0.701-2.639-1.189-4.347-1.464
		S599.043,161.022,596.97,161.022z"/>
	<path fill="#0C123A" stroke="#4B6BB3" stroke-width="3" stroke-miterlimit="10" d="M696.347,181.246
		c0,5.431-0.81,10.203-2.425,14.32c-1.617,4.118-3.829,7.565-6.635,10.341c-2.807,2.776-6.146,4.865-10.02,6.269
		c-3.875,1.402-8.039,2.104-12.491,2.104c-4.332,0-8.419-0.702-12.262-2.104c-3.844-1.403-7.199-3.492-10.066-6.269
		c-2.868-2.775-5.124-6.223-6.771-10.341c-1.646-4.117-2.471-8.89-2.471-14.32c0-5.429,0.854-10.203,2.563-14.321
		c1.707-4.118,4.011-7.579,6.909-10.386c2.896-2.805,6.252-4.91,10.065-6.314c3.812-1.402,7.824-2.104,12.033-2.104
		c4.331,0,8.419,0.702,12.262,2.104c3.844,1.404,7.198,3.509,10.066,6.314c2.866,2.807,5.124,6.269,6.771,10.386
		C695.523,171.043,696.347,175.817,696.347,181.246z M647.939,181.246c0,3.111,0.38,5.918,1.144,8.419
		c0.762,2.502,1.86,4.652,3.294,6.451c1.433,1.8,3.188,3.188,5.262,4.163c2.073,0.977,4.452,1.464,7.138,1.464
		c2.622,0,4.987-0.487,7.092-1.464c2.104-0.975,3.873-2.363,5.308-4.163c1.433-1.799,2.53-3.949,3.294-6.451
		c0.763-2.501,1.145-5.308,1.145-8.419s-0.382-5.933-1.145-8.465c-0.764-2.531-1.861-4.697-3.294-6.497
		c-1.435-1.798-3.203-3.187-5.308-4.164c-2.104-0.975-4.47-1.464-7.092-1.464c-2.686,0-5.064,0.503-7.138,1.51
		c-2.074,1.007-3.829,2.411-5.262,4.209c-1.434,1.8-2.532,3.966-3.294,6.497C648.319,175.405,647.939,178.196,647.939,181.246z"/>
	<path fill="#0C123A" stroke="#4B6BB3" stroke-width="3" stroke-miterlimit="10" d="M749.942,156.356
		c0.731,2.502,1.537,5.323,2.421,8.464c0.884,3.143,1.827,6.391,2.833,9.746c1.003,3.355,2.024,6.711,3.06,10.066
		c1.035,3.355,2.04,6.467,3.016,9.334c0.796-3.111,1.608-6.497,2.437-10.158c0.826-3.659,1.608-7.442,2.343-11.347
		c0.735-3.903,1.456-7.792,2.161-11.667c0.704-3.874,1.363-7.609,1.977-11.21h14.829c-2.147,10.615-4.618,21.383-7.411,32.303
		c-2.792,10.921-5.814,21.291-9.066,31.112h-13.057c-2.132-5.856-4.202-12.002-6.211-18.438c-2.011-6.436-3.989-12.887-5.937-19.354
		c-1.955,6.467-3.909,12.918-5.864,19.354c-1.954,6.437-4,12.582-6.138,18.438h-13.047c-3.249-9.821-6.266-20.191-9.053-31.112
		c-2.788-10.92-5.253-21.688-7.397-32.303h15.465c0.612,3.601,1.287,7.336,2.023,11.21c0.734,3.875,1.501,7.764,2.299,11.667
		c0.797,3.905,1.608,7.688,2.437,11.347c0.828,3.661,1.671,7.047,2.529,10.158c1.1-2.988,2.169-6.161,3.208-9.518
		c1.038-3.354,2.048-6.709,3.026-10.065c0.978-3.354,1.878-6.588,2.703-9.7s1.574-5.887,2.246-8.327H749.942z"/>
	<path fill="#0C123A" stroke="#4B6BB3" stroke-width="3" stroke-miterlimit="10" d="M794.076,212.999v-63.415h42.826v11.988h-28.551
		v12.445h25.348v11.713h-25.348v15.282h30.655v11.987H794.076z"/>
	<path fill="#0C123A" stroke="#4B6BB3" stroke-width="3" stroke-miterlimit="10" d="M868.104,148.852
		c9.517,0,16.806,1.693,21.87,5.079c5.063,3.386,7.596,8.647,7.596,15.785c0,4.454-1.022,8.068-3.065,10.844
		c-2.045,2.776-4.987,4.957-8.831,6.543c1.281,1.587,2.623,3.401,4.026,5.444c1.403,2.045,2.791,4.18,4.164,6.405
		c1.372,2.229,2.699,4.546,3.98,6.955c1.281,2.41,2.471,4.774,3.568,7.092h-15.958c-1.163-2.073-2.343-4.178-3.537-6.314
		c-1.193-2.135-2.418-4.209-3.673-6.222c-1.256-2.014-2.497-3.92-3.721-5.72c-1.226-1.799-2.45-3.432-3.675-4.896h-7.046v23.151
		h-14.275v-62.5c3.111-0.609,6.329-1.037,9.654-1.281C862.507,148.975,865.481,148.852,868.104,148.852z M868.929,161.022
		c-1.038,0-1.968,0.032-2.791,0.092c-0.824,0.062-1.602,0.123-2.334,0.183V178.5h4.026c5.367,0,9.211-0.67,11.53-2.013
		c2.317-1.341,3.478-3.629,3.478-6.863c0-3.111-1.176-5.322-3.523-6.634C876.965,161.679,873.504,161.022,868.929,161.022z"/>
</g>
<g>
	<path fill="#0C123A" d="M468.571,279.01c-0.864-2.225-1.658-4.364-2.385-6.418c-0.726-2.054-1.419-4.055-2.081-6.001h-22.128
		c-0.756,1.957-1.496,3.963-2.219,6.018s-1.489,4.189-2.297,6.401h-4.641c1.72-4.715,3.345-9.109,4.875-13.182
		s3.031-7.926,4.502-11.56s2.932-7.125,4.382-10.476s2.974-6.71,4.573-10.079h3.918c1.598,3.354,3.114,6.71,4.548,10.065
		c1.434,3.357,2.889,6.852,4.365,10.483c1.476,3.632,2.972,7.487,4.487,11.565s3.185,8.472,5.004,13.182H468.571z M452.984,238.812
		c-1.64,3.763-3.236,7.581-4.79,11.454c-1.554,3.874-3.161,8.052-4.824,12.534h19.334c-1.673-4.488-3.302-8.673-4.886-12.552
		C456.234,246.369,454.623,242.558,452.984,238.812z"/>
	<path fill="#0C123A" d="M493.672,279.729c-2.615,0-4.925-0.414-6.929-1.241c-2.004-0.828-3.671-2.016-5-3.563
		c-1.33-1.547-2.343-3.399-3.04-5.556c-0.697-2.157-1.046-4.543-1.046-7.157c0-2.658,0.36-5.076,1.079-7.256
		c0.719-2.178,1.753-4.052,3.105-5.621c1.35-1.568,2.984-2.777,4.902-3.628c1.917-0.85,4.074-1.274,6.471-1.274
		c1.83,0,3.54,0.153,5.131,0.458c1.59,0.306,2.82,0.697,3.693,1.177l-1.111,3.66c-0.873-0.436-1.853-0.784-2.941-1.046
		c-1.09-0.262-2.549-0.393-4.379-0.393c-3.748,0-6.591,1.21-8.53,3.628c-1.939,2.418-2.909,5.85-2.909,10.295
		c0,2.005,0.217,3.846,0.654,5.522c0.435,1.679,1.144,3.116,2.124,4.314c0.98,1.199,2.244,2.136,3.791,2.811
		c1.546,0.676,3.432,1.013,5.654,1.013c1.83,0,3.366-0.206,4.608-0.621c1.242-0.413,2.146-0.772,2.712-1.078l0.915,3.66
		c-0.784,0.437-2.016,0.861-3.693,1.274C497.256,279.521,495.502,279.729,493.672,279.729z"/>
	<path fill="#0C123A" d="M520.013,244.433c2.223,0,4.106,0.317,5.654,0.948c1.546,0.632,2.799,1.503,3.758,2.614
		c0.958,1.111,1.656,2.43,2.092,3.954c0.436,1.526,0.654,3.182,0.654,4.968v21.309c-0.437,0.131-1.068,0.272-1.896,0.425
		c-0.829,0.153-1.788,0.316-2.876,0.49c-1.09,0.174-2.3,0.315-3.628,0.425c-1.33,0.108-2.691,0.163-4.085,0.163
		c-1.787,0-3.432-0.196-4.936-0.588c-1.503-0.393-2.811-1.014-3.922-1.863c-1.11-0.85-1.982-1.938-2.614-3.268
		s-0.947-2.952-0.947-4.87c0-1.83,0.348-3.398,1.046-4.706c0.696-1.307,1.677-2.386,2.941-3.235c1.263-0.85,2.767-1.471,4.51-1.862
		c1.742-0.393,3.638-0.589,5.687-0.589c0.609,0,1.252,0.033,1.928,0.099s1.329,0.153,1.961,0.261
		c0.632,0.109,1.177,0.219,1.634,0.327c0.458,0.109,0.773,0.207,0.948,0.294v-2.092c0-1.176-0.088-2.32-0.262-3.431
		c-0.175-1.111-0.556-2.113-1.144-3.007c-0.588-0.893-1.417-1.612-2.483-2.157c-1.068-0.544-2.474-0.817-4.216-0.817
		c-2.484,0-4.337,0.175-5.557,0.523s-2.113,0.632-2.68,0.85l-0.588-3.726c0.74-0.349,1.884-0.675,3.432-0.98
		C515.971,244.586,517.834,244.433,520.013,244.433z M520.405,275.938c1.655,0,3.104-0.054,4.347-0.163
		c1.242-0.108,2.298-0.25,3.17-0.425v-11.896c-0.48-0.217-1.242-0.446-2.288-0.686c-1.045-0.239-2.483-0.36-4.313-0.36
		c-1.046,0-2.136,0.077-3.269,0.229c-1.133,0.153-2.179,0.479-3.137,0.98c-0.959,0.501-1.744,1.188-2.354,2.059
		c-0.61,0.872-0.915,2.026-0.915,3.464c0,1.265,0.206,2.332,0.621,3.203c0.413,0.872,1.002,1.568,1.765,2.092
		c0.762,0.522,1.677,0.904,2.745,1.144C517.845,275.818,519.054,275.938,520.405,275.938z"/>
	<path fill="#0C123A" d="M569.884,277.964c-1.265,0.437-2.876,0.85-4.837,1.242c-1.961,0.392-4.444,0.588-7.451,0.588
		c-2.484,0-4.739-0.403-6.766-1.209c-2.025-0.806-3.77-1.971-5.229-3.497c-1.461-1.524-2.593-3.376-3.399-5.556
		c-0.807-2.179-1.209-4.641-1.209-7.386c0-2.571,0.337-4.936,1.014-7.092c0.675-2.157,1.666-4.021,2.974-5.589
		s2.908-2.788,4.804-3.66c1.896-0.871,4.063-1.308,6.504-1.308c2.223,0,4.15,0.316,5.785,0.948c1.634,0.632,2.82,1.231,3.562,1.797
		v-18.171l4.249-0.784V277.964z M565.635,251.361c-0.392-0.305-0.882-0.631-1.471-0.98c-0.588-0.349-1.274-0.675-2.059-0.98
		c-0.784-0.305-1.634-0.556-2.549-0.752c-0.915-0.195-1.874-0.294-2.876-0.294c-2.092,0-3.847,0.371-5.262,1.111
		c-1.417,0.741-2.561,1.732-3.432,2.974c-0.872,1.242-1.504,2.703-1.896,4.38c-0.393,1.678-0.589,3.454-0.589,5.327
		c0,4.444,1.111,7.854,3.334,10.229c2.223,2.376,5.164,3.563,8.824,3.563c2.092,0,3.779-0.098,5.065-0.294
		c1.285-0.196,2.255-0.402,2.908-0.621V251.361z"/>
	<path fill="#0C123A" d="M579.099,262.081c0-2.963,0.425-5.545,1.274-7.746c0.85-2.199,1.961-4.041,3.334-5.522
		c1.372-1.481,2.941-2.582,4.706-3.301c1.765-0.72,3.584-1.079,5.458-1.079c4.139,0,7.439,1.352,9.902,4.053
		c2.461,2.702,3.692,6.863,3.692,12.484c0,0.35-0.011,0.697-0.032,1.046c-0.022,0.35-0.056,0.676-0.098,0.98h-23.728
		c0.131,4.141,1.154,7.32,3.072,9.543c1.917,2.222,4.968,3.333,9.151,3.333c2.309,0,4.139-0.217,5.49-0.653
		c1.35-0.436,2.33-0.806,2.941-1.111l0.784,3.66c-0.61,0.35-1.755,0.764-3.432,1.242c-1.678,0.479-3.65,0.719-5.915,0.719
		c-2.964,0-5.49-0.436-7.582-1.307s-3.813-2.092-5.164-3.661c-1.351-1.568-2.331-3.431-2.941-5.588S579.099,264.652,579.099,262.081
		z M603.087,259.401c-0.088-3.53-0.915-6.275-2.483-8.236c-1.569-1.961-3.791-2.941-6.667-2.941c-1.526,0-2.888,0.306-4.086,0.915
		c-1.198,0.611-2.244,1.428-3.137,2.451c-0.894,1.024-1.592,2.213-2.092,3.563c-0.502,1.352-0.796,2.768-0.883,4.249H603.087z"/>
	<path fill="#0C123A" d="M616.943,246.394c1.264-0.348,2.909-0.74,4.935-1.176c2.026-0.436,4.651-0.654,7.877-0.654
		c4.27,0,7.363,1.242,9.281,3.726c0.218-0.174,0.643-0.468,1.274-0.882c0.631-0.414,1.427-0.839,2.386-1.274
		c0.958-0.436,2.08-0.807,3.366-1.111c1.285-0.305,2.713-0.458,4.281-0.458c2.57,0,4.651,0.382,6.242,1.144
		c1.59,0.764,2.82,1.831,3.693,3.203c0.871,1.373,1.459,3.018,1.765,4.935c0.304,1.918,0.457,4.01,0.457,6.275v18.89h-4.248v-17.518
		c0-2.222-0.099-4.15-0.295-5.784c-0.195-1.634-0.588-2.984-1.176-4.053c-0.589-1.067-1.428-1.873-2.517-2.418
		c-1.09-0.545-2.507-0.817-4.249-0.817c-1.307,0-2.495,0.121-3.562,0.359c-1.068,0.24-1.994,0.534-2.778,0.883
		c-0.784,0.35-1.428,0.697-1.928,1.046c-0.502,0.349-0.861,0.61-1.079,0.784c0.393,1.134,0.687,2.408,0.883,3.823
		c0.196,1.417,0.294,2.909,0.294,4.478v19.217h-4.249v-17.518c0-2.222-0.098-4.15-0.294-5.784s-0.6-2.984-1.209-4.053
		c-0.61-1.067-1.471-1.873-2.582-2.418s-2.582-0.817-4.412-0.817c-2.049,0-3.78,0.109-5.196,0.327
		c-1.416,0.219-2.32,0.414-2.712,0.588v29.675h-4.249V246.394z"/>
	<path fill="#0C123A" d="M682.565,279.729c-1.419-2.665-2.795-5.436-4.129-8.309c-1.334-2.874-2.581-5.782-3.74-8.722
		c-1.159-2.938-2.219-5.879-3.181-8.818s-1.788-5.827-2.479-8.662h4.51c0.478,2.091,1.088,4.347,1.828,6.766
		c0.739,2.418,1.577,4.913,2.513,7.485c0.936,2.571,1.968,5.208,3.1,7.91c1.131,2.703,2.366,5.36,3.704,7.971
		c0.97-2.692,1.83-5.235,2.578-7.63c0.749-2.395,1.442-4.778,2.082-7.151c0.638-2.373,1.255-4.801,1.85-7.283
		c0.594-2.481,1.2-5.171,1.821-8.067h4.251c-1.42,6.323-3.015,12.474-4.784,18.448c-1.769,5.976-3.702,11.438-5.798,16.39
		c-0.828,1.961-1.68,3.649-2.555,5.065s-1.849,2.582-2.92,3.497c-1.072,0.915-2.319,1.59-3.741,2.026
		c-1.423,0.435-3.097,0.653-5.021,0.653c-1.095,0-2.091-0.131-2.987-0.392c-0.896-0.262-1.454-0.458-1.673-0.589l0.85-3.529
		c0.175,0.131,0.666,0.315,1.475,0.556c0.808,0.238,1.648,0.359,2.522,0.359c1.223,0,2.326-0.131,3.31-0.393
		c0.982-0.261,1.866-0.709,2.653-1.34c0.786-0.632,1.496-1.449,2.129-2.451C681.367,282.517,681.978,281.254,682.565,279.729z"/>
</g>
<g>
	<path fill="#0C123A" d="M466.809,71.625v3.856h-14.51v41.44h-4.445v-41.44h-14.51v-3.856H466.809z"/>
	<path fill="#0C123A" d="M473.605,116.921V66.984l4.249-0.784v17.909c1.394-0.523,2.811-0.925,4.249-1.209
		c1.438-0.283,2.876-0.425,4.314-0.425c2.615,0,4.793,0.371,6.537,1.111c1.742,0.742,3.137,1.797,4.183,3.17
		c1.046,1.373,1.775,3.018,2.189,4.935c0.414,1.918,0.621,4.031,0.621,6.34v18.89h-4.249V99.404c0-2.396-0.164-4.422-0.49-6.079
		c-0.327-1.656-0.872-3.007-1.634-4.053c-0.763-1.046-1.776-1.797-3.039-2.255c-1.265-0.458-2.854-0.687-4.771-0.687
		c-0.742,0-1.536,0.065-2.386,0.196c-0.85,0.131-1.646,0.272-2.386,0.425c-0.742,0.153-1.405,0.316-1.994,0.49
		c-0.588,0.175-0.97,0.305-1.144,0.392v29.086H473.605z"/>
	<path fill="#0C123A" d="M508.77,99.992c0-2.963,0.425-5.545,1.274-7.746c0.85-2.2,1.961-4.042,3.334-5.523
		c1.372-1.48,2.941-2.582,4.706-3.301c1.765-0.719,3.584-1.078,5.458-1.078c4.139,0,7.439,1.351,9.902,4.052
		c2.461,2.703,3.692,6.863,3.692,12.484c0,0.349-0.011,0.697-0.032,1.046c-0.022,0.349-0.056,0.676-0.098,0.98h-23.728
		c0.131,4.14,1.154,7.32,3.072,9.543c1.917,2.222,4.968,3.333,9.151,3.333c2.309,0,4.139-0.218,5.49-0.654
		c1.35-0.435,2.33-0.806,2.941-1.111l0.784,3.661c-0.61,0.349-1.755,0.763-3.432,1.242c-1.678,0.479-3.65,0.719-5.915,0.719
		c-2.964,0-5.49-0.436-7.582-1.307s-3.813-2.091-5.164-3.66s-2.331-3.432-2.941-5.588C509.074,104.927,508.77,102.563,508.77,99.992
		z M532.758,97.312c-0.088-3.529-0.915-6.275-2.483-8.235c-1.569-1.961-3.791-2.941-6.667-2.941c-1.526,0-2.888,0.305-4.086,0.915
		c-1.198,0.611-2.244,1.428-3.137,2.451c-0.894,1.024-1.592,2.212-2.092,3.562c-0.502,1.351-0.796,2.768-0.883,4.249H532.758z"/>
</g>
<g>
	<path fill="#454546" d="M116.336,393.561c-0.726-1.868-1.393-3.666-2.003-5.391c-0.61-1.726-1.192-3.406-1.749-5.041H93.997
		c-0.635,1.644-1.257,3.328-1.864,5.055c-0.607,1.726-1.25,3.519-1.929,5.377h-3.898c1.445-3.961,2.81-7.651,4.095-11.072
		s2.546-6.657,3.782-9.71s2.463-5.985,3.681-8.8s2.498-5.637,3.842-8.467h3.292c1.342,2.817,2.616,5.637,3.82,8.455
		c1.204,2.82,2.427,5.756,3.667,8.807s2.497,6.289,3.77,9.715c1.273,3.425,2.675,7.115,4.204,11.072H116.336z M103.244,359.794
		c-1.378,3.161-2.719,6.368-4.023,9.621c-1.305,3.254-2.655,6.764-4.052,10.529h16.241c-1.405-3.771-2.773-7.285-4.104-10.544
		C105.973,366.143,104.62,362.941,103.244,359.794z"/>
	<path fill="#454546" d="M125.671,366.163c1.062-0.292,2.489-0.622,4.283-0.988c1.793-0.365,3.989-0.549,6.588-0.549
		c2.16,0,3.962,0.312,5.408,0.934c1.446,0.622,2.599,1.51,3.459,2.662c0.86,1.153,1.473,2.535,1.839,4.146
		c0.365,1.611,0.549,3.387,0.549,5.326v15.867h-3.568v-14.715c0-2.012-0.138-3.714-0.412-5.105
		c-0.274-1.391-0.732-2.525-1.373-3.404c-0.641-0.879-1.482-1.51-2.525-1.895c-1.043-0.384-2.353-0.576-3.926-0.576
		c-1.684,0-3.139,0.092-4.365,0.274c-1.227,0.184-2.022,0.349-2.388,0.494v24.927h-3.569V366.163z"/>
	<path fill="#454546" d="M173.822,356.609c0,0.843-0.257,1.51-0.769,2.004c-0.513,0.494-1.135,0.742-1.867,0.742
		c-0.732,0-1.354-0.248-1.867-0.742c-0.513-0.494-0.769-1.161-0.769-2.004c0-0.841,0.256-1.51,0.769-2.004
		c0.512-0.494,1.134-0.741,1.867-0.741c0.732,0,1.354,0.247,1.867,0.741C173.565,355.1,173.822,355.769,173.822,356.609z
		 M172.998,393.561h-3.569v-28.386h3.569V393.561z"/>
	<path fill="#454546" d="M182.442,366.163c1.062-0.292,2.489-0.622,4.283-0.988c1.793-0.365,3.989-0.549,6.588-0.549
		c2.16,0,3.962,0.312,5.408,0.934c1.446,0.622,2.599,1.51,3.459,2.662c0.86,1.153,1.473,2.535,1.839,4.146
		c0.365,1.611,0.549,3.387,0.549,5.326v15.867H201v-14.715c0-2.012-0.138-3.714-0.412-5.105c-0.274-1.391-0.732-2.525-1.373-3.404
		c-0.641-0.879-1.482-1.51-2.525-1.895c-1.043-0.384-2.353-0.576-3.926-0.576c-1.684,0-3.139,0.092-4.365,0.274
		c-1.227,0.184-2.022,0.349-2.388,0.494v24.927h-3.569V366.163z"/>
	<path fill="#454546" d="M219.501,391.035c2.05,0,3.742-0.338,5.079-1.016c1.336-0.677,2.004-1.82,2.004-3.432
		c0-0.769-0.119-1.428-0.357-1.977c-0.239-0.549-0.631-1.043-1.181-1.482c-0.549-0.439-1.272-0.859-2.168-1.263
		c-0.897-0.402-2.004-0.879-3.322-1.428c-1.062-0.439-2.068-0.887-3.02-1.346c-0.952-0.457-1.793-0.988-2.525-1.592
		c-0.733-0.604-1.318-1.326-1.757-2.169c-0.439-0.842-0.659-1.866-0.659-3.074c0-2.307,0.869-4.173,2.608-5.601
		c1.738-1.428,4.126-2.142,7.165-2.142c1.94,0,3.542,0.165,4.804,0.494c1.263,0.33,2.15,0.623,2.663,0.879l-0.824,3.185
		c-0.439-0.22-1.18-0.513-2.224-0.879c-1.043-0.365-2.572-0.549-4.584-0.549c-0.806,0-1.565,0.083-2.278,0.248
		c-0.714,0.165-1.345,0.422-1.895,0.771c-0.549,0.348-0.988,0.788-1.317,1.32c-0.33,0.531-0.494,1.182-0.494,1.952
		s0.146,1.431,0.439,1.981c0.292,0.551,0.723,1.036,1.291,1.458c0.567,0.422,1.263,0.815,2.086,1.179
		c0.823,0.364,1.765,0.766,2.827,1.203c1.098,0.438,2.15,0.883,3.157,1.339c1.006,0.455,1.894,1.004,2.663,1.644
		c0.769,0.641,1.391,1.409,1.867,2.306c0.475,0.897,0.714,2.023,0.714,3.377c0,2.563-0.961,4.502-2.883,5.82
		c-1.921,1.317-4.548,1.977-7.879,1.977c-2.489,0-4.392-0.211-5.71-0.632c-1.318-0.42-2.196-0.741-2.635-0.961l0.933-3.239
		c0.11,0.074,0.348,0.192,0.714,0.357c0.366,0.164,0.86,0.348,1.482,0.549c0.622,0.201,1.363,0.376,2.224,0.521
		C217.369,390.962,218.367,391.035,219.501,391.035z"/>
	<path fill="#454546" d="M240.529,365.175h11.311v3.02h-11.311v15.099c0,1.611,0.137,2.92,0.412,3.926
		c0.274,1.008,0.667,1.785,1.18,2.334c0.512,0.549,1.134,0.915,1.867,1.098c0.732,0.184,1.538,0.274,2.416,0.274
		c1.5,0,2.708-0.173,3.624-0.521c0.915-0.348,1.628-0.667,2.142-0.961l0.878,2.965c-0.513,0.33-1.41,0.705-2.69,1.126
		c-1.282,0.42-2.672,0.631-4.173,0.631c-1.757,0-3.231-0.229-4.42-0.686c-1.19-0.458-2.141-1.153-2.855-2.087
		s-1.217-2.095-1.51-3.486c-0.293-1.391-0.439-3.038-0.439-4.941v-26.135l3.569-0.658V365.175z"/>
	<path fill="#454546" d="M262.821,356.609c0,0.843-0.257,1.51-0.769,2.004c-0.513,0.494-1.135,0.742-1.867,0.742
		c-0.732,0-1.354-0.248-1.867-0.742c-0.513-0.494-0.769-1.161-0.769-2.004c0-0.841,0.256-1.51,0.769-2.004
		c0.512-0.494,1.134-0.741,1.867-0.741c0.732,0,1.354,0.247,1.867,0.741C262.564,355.1,262.821,355.769,262.821,356.609z
		 M261.997,393.561h-3.569v-28.386h3.569V393.561z"/>
	<path fill="#454546" d="M274.79,365.175H286.1v3.02H274.79v15.099c0,1.611,0.137,2.92,0.412,3.926
		c0.274,1.008,0.667,1.785,1.18,2.334c0.512,0.549,1.134,0.915,1.867,1.098c0.732,0.184,1.538,0.274,2.416,0.274
		c1.5,0,2.708-0.173,3.624-0.521c0.915-0.348,1.628-0.667,2.142-0.961l0.878,2.965c-0.513,0.33-1.41,0.705-2.69,1.126
		c-1.282,0.42-2.672,0.631-4.173,0.631c-1.757,0-3.231-0.229-4.42-0.686c-1.19-0.458-2.141-1.153-2.855-2.087
		s-1.217-2.095-1.51-3.486c-0.293-1.391-0.439-3.038-0.439-4.941v-26.135l3.569-0.658V365.175z"/>
	<path fill="#454546" d="M314.485,392.572c-1.062,0.293-2.49,0.623-4.283,0.988c-1.794,0.365-3.99,0.549-6.588,0.549
		c-2.124,0-3.898-0.312-5.326-0.934c-1.428-0.621-2.581-1.5-3.459-2.635c-0.879-1.135-1.51-2.507-1.895-4.118
		c-0.384-1.61-0.576-3.385-0.576-5.325v-15.923h3.568v14.77c0,2.014,0.146,3.716,0.439,5.106c0.292,1.391,0.769,2.517,1.428,3.376
		c0.659,0.86,1.51,1.482,2.553,1.867c1.043,0.384,2.315,0.576,3.816,0.576c1.683,0,3.147-0.091,4.393-0.274
		c1.244-0.183,2.031-0.348,2.361-0.494v-24.927h3.569V392.572z"/>
	<path fill="#454546" d="M327.277,365.175h11.311v3.02h-11.311v15.099c0,1.611,0.137,2.92,0.412,3.926
		c0.274,1.008,0.667,1.785,1.18,2.334c0.512,0.549,1.134,0.915,1.867,1.098c0.732,0.184,1.538,0.274,2.416,0.274
		c1.5,0,2.708-0.173,3.624-0.521c0.915-0.348,1.628-0.667,2.142-0.961l0.878,2.965c-0.513,0.33-1.41,0.705-2.69,1.126
		c-1.282,0.42-2.672,0.631-4.173,0.631c-1.757,0-3.231-0.229-4.42-0.686c-1.19-0.458-2.141-1.153-2.855-2.087
		s-1.217-2.095-1.51-3.486c-0.293-1.391-0.439-3.038-0.439-4.941v-26.135l3.569-0.658V365.175z"/>
	<path fill="#454546" d="M343.474,379.34c0-2.488,0.357-4.657,1.071-6.506c0.714-1.848,1.647-3.395,2.8-4.64
		c1.153-1.243,2.471-2.168,3.953-2.772c1.482-0.604,3.01-0.906,4.584-0.906c3.477,0,6.25,1.136,8.318,3.404
		c2.068,2.271,3.102,5.766,3.102,10.487c0,0.293-0.009,0.586-0.027,0.878c-0.019,0.294-0.046,0.568-0.082,0.824h-19.931
		c0.11,3.478,0.969,6.148,2.581,8.016c1.61,1.867,4.173,2.8,7.687,2.8c1.94,0,3.477-0.183,4.612-0.549
		c1.134-0.365,1.958-0.677,2.471-0.934l0.659,3.075c-0.513,0.293-1.474,0.641-2.882,1.043c-1.41,0.402-3.066,0.604-4.969,0.604
		c-2.489,0-4.612-0.366-6.369-1.098s-3.204-1.757-4.337-3.074c-1.135-1.318-1.958-2.883-2.471-4.694
		C343.729,383.485,343.474,381.5,343.474,379.34z M363.624,377.089c-0.074-2.965-0.769-5.271-2.086-6.918
		c-1.318-1.646-3.185-2.471-5.601-2.471c-1.281,0-2.425,0.257-3.431,0.769c-1.007,0.514-1.886,1.2-2.636,2.06
		c-0.75,0.86-1.336,1.858-1.757,2.992c-0.421,1.135-0.668,2.325-0.741,3.568H363.624z"/>
	<path fill="#454546" d="M398.213,350.954c1.537,0,2.791,0.12,3.761,0.357c0.97,0.238,1.601,0.448,1.895,0.631l-0.714,3.075
		c-0.403-0.183-0.998-0.375-1.785-0.576c-0.788-0.201-1.784-0.303-2.992-0.303c-2.525,0-4.329,0.642-5.408,1.922
		c-1.08,1.282-1.62,3.331-1.62,6.149v2.965h11.42v3.02h-11.42v25.366h-3.569v-31.46c0-3.697,0.851-6.479,2.553-8.346
		C392.036,351.888,394.662,350.954,398.213,350.954z"/>
	<path fill="#454546" d="M432.638,379.396c0,2.232-0.321,4.265-0.96,6.094c-0.641,1.831-1.538,3.387-2.69,4.667
		c-1.153,1.282-2.517,2.278-4.09,2.992c-1.574,0.714-3.313,1.071-5.216,1.071c-1.903,0-3.643-0.357-5.216-1.071
		c-1.574-0.714-2.938-1.71-4.09-2.992c-1.153-1.28-2.05-2.836-2.69-4.667c-0.641-1.829-0.961-3.861-0.961-6.094
		s0.32-4.264,0.961-6.095c0.64-1.83,1.538-3.395,2.69-4.694c1.153-1.299,2.516-2.306,4.09-3.02c1.573-0.714,3.313-1.071,5.216-1.071
		c1.903,0,3.642,0.357,5.216,1.071c1.573,0.714,2.937,1.721,4.09,3.02c1.153,1.3,2.049,2.864,2.69,4.694
		C432.317,375.132,432.638,377.163,432.638,379.396z M428.85,379.396c0-3.55-0.824-6.378-2.471-8.483
		c-1.647-2.104-3.88-3.156-6.699-3.156c-2.819,0-5.051,1.052-6.698,3.156c-1.647,2.105-2.471,4.934-2.471,8.483
		c0,3.551,0.824,6.368,2.471,8.455c1.647,2.086,3.879,3.13,6.698,3.13c2.818,0,5.051-1.044,6.699-3.13
		C428.026,385.764,428.85,382.946,428.85,379.396z"/>
	<path fill="#454546" d="M450.042,364.626c1.171,0,2.279,0.092,3.322,0.274c1.043,0.184,1.766,0.366,2.169,0.549l-0.714,3.075
		c-0.293-0.146-0.888-0.303-1.784-0.467c-0.897-0.165-2.078-0.247-3.542-0.247c-1.537,0-2.772,0.109-3.706,0.329
		s-1.547,0.403-1.839,0.549v24.872h-3.569v-27.068c0.915-0.402,2.177-0.813,3.789-1.235
		C445.777,364.837,447.736,364.626,450.042,364.626z"/>
	<path fill="#454546" d="M489.462,394.384c-2.453,0-4.731-0.438-6.835-1.317c-2.105-0.879-3.935-2.159-5.491-3.844
		c-1.556-1.683-2.782-3.761-3.679-6.231c-0.897-2.471-1.345-5.298-1.345-8.482s0.484-6.012,1.455-8.482
		c0.97-2.471,2.26-4.548,3.871-6.232c1.61-1.683,3.477-2.955,5.6-3.815c2.123-0.859,4.337-1.29,6.644-1.29
		c1.427,0,2.726,0.092,3.898,0.274c1.171,0.184,2.196,0.411,3.075,0.686c0.878,0.275,1.628,0.55,2.251,0.824
		c0.622,0.274,1.098,0.521,1.427,0.741l-1.208,3.239c-0.915-0.549-2.078-1.089-3.486-1.62c-1.41-0.53-3.157-0.796-5.243-0.796
		c-2.38,0-4.457,0.403-6.232,1.208c-1.776,0.806-3.267,1.94-4.475,3.404s-2.114,3.203-2.718,5.216
		c-0.604,2.014-0.906,4.246-0.906,6.698c0,2.525,0.302,4.805,0.906,6.836s1.491,3.761,2.663,5.188
		c1.171,1.428,2.608,2.525,4.31,3.294c1.702,0.769,3.651,1.153,5.848,1.153c2.416,0,4.438-0.229,6.067-0.687
		c1.628-0.457,2.864-0.924,3.706-1.4l1.043,3.185c-0.256,0.184-0.696,0.394-1.317,0.632c-0.623,0.238-1.41,0.485-2.361,0.741
		c-0.953,0.256-2.051,0.467-3.294,0.631C492.391,394.302,491,394.384,489.462,394.384z"/>
	<path fill="#454546" d="M511.26,356.609c0,0.843-0.257,1.51-0.769,2.004c-0.514,0.494-1.135,0.742-1.867,0.742
		s-1.354-0.248-1.866-0.742c-0.514-0.494-0.769-1.161-0.769-2.004c0-0.841,0.255-1.51,0.769-2.004
		c0.512-0.494,1.134-0.741,1.866-0.741s1.354,0.247,1.867,0.741C511.003,355.1,511.26,355.769,511.26,356.609z M510.437,393.561
		h-3.569v-28.386h3.569V393.561z"/>
	<path fill="#454546" d="M528.472,389.717c0.771-1.573,1.56-3.376,2.367-5.407c0.809-2.032,1.589-4.137,2.342-6.314
		c0.752-2.178,1.449-4.373,2.092-6.589c0.643-2.214,1.185-4.291,1.625-6.231h3.57c-0.663,2.6-1.399,5.161-2.209,7.687
		c-0.812,2.525-1.667,4.996-2.569,7.412c-0.903,2.416-1.843,4.741-2.818,6.973c-0.977,2.233-1.925,4.338-2.845,6.314h-3.327
		c-0.958-1.977-1.917-4.081-2.874-6.314c-0.957-2.231-1.888-4.557-2.79-6.973s-1.759-4.887-2.57-7.412
		c-0.811-2.525-1.547-5.087-2.21-7.687h3.789c0.44,1.94,0.982,4.018,1.625,6.231c0.643,2.216,1.34,4.411,2.093,6.589
		s1.533,4.282,2.341,6.314C526.911,386.341,527.7,388.144,528.472,389.717z"/>
	<path fill="#454546" d="M550.626,356.609c0,0.843-0.257,1.51-0.769,2.004c-0.514,0.494-1.135,0.742-1.867,0.742
		s-1.354-0.248-1.866-0.742c-0.514-0.494-0.769-1.161-0.769-2.004c0-0.841,0.255-1.51,0.769-2.004
		c0.512-0.494,1.134-0.741,1.866-0.741s1.354,0.247,1.867,0.741C550.369,355.1,550.626,355.769,550.626,356.609z M549.803,393.561
		h-3.569v-28.386h3.569V393.561z"/>
	<path fill="#454546" d="M566.438,394.055c-1.208-0.037-2.261-0.192-3.157-0.467s-1.646-0.694-2.251-1.263
		c-0.604-0.567-1.062-1.299-1.372-2.196c-0.312-0.896-0.467-2.021-0.467-3.377v-35.139l3.568-0.659v35.688
		c0,0.879,0.083,1.584,0.247,2.114c0.165,0.53,0.412,0.952,0.741,1.263c0.33,0.312,0.76,0.54,1.291,0.686
		c0.529,0.147,1.161,0.275,1.894,0.385L566.438,394.055z"/>
	<path fill="#454546" d="M594.164,391.145c2.965,0,5.271-0.54,6.918-1.623c1.647-1.082,2.471-2.834,2.471-5.255
		c0-1.395-0.266-2.56-0.796-3.494c-0.531-0.936-1.235-1.725-2.114-2.366c-0.878-0.642-1.886-1.191-3.02-1.646
		c-1.135-0.455-2.325-0.937-3.568-1.446c-1.574-0.618-2.984-1.255-4.228-1.91c-1.245-0.654-2.307-1.394-3.185-2.218
		c-0.879-0.823-1.547-1.765-2.004-2.827c-0.459-1.062-0.687-2.306-0.687-3.733c0-3.258,1.079-5.729,3.239-7.412
		c2.159-1.684,5.161-2.525,9.004-2.525c1.024,0,2.032,0.073,3.021,0.219c0.988,0.147,1.912,0.339,2.772,0.577
		c0.859,0.238,1.646,0.503,2.36,0.796s1.309,0.604,1.785,0.934l-1.318,3.13c-1.062-0.732-2.353-1.318-3.87-1.758
		c-1.52-0.438-3.157-0.658-4.914-0.658c-1.208,0-2.315,0.119-3.322,0.356c-1.007,0.238-1.876,0.623-2.607,1.153
		c-0.733,0.531-1.31,1.199-1.729,2.004c-0.422,0.806-0.632,1.775-0.632,2.91c0,1.172,0.22,2.16,0.659,2.965
		c0.439,0.806,1.052,1.501,1.839,2.086c0.787,0.586,1.711,1.117,2.772,1.593s2.215,0.97,3.459,1.482
		c1.501,0.622,2.919,1.244,4.256,1.866c1.335,0.623,2.498,1.354,3.486,2.196c0.988,0.843,1.774,1.867,2.36,3.075
		c0.585,1.207,0.879,2.689,0.879,4.447c0,3.44-1.199,6.021-3.597,7.741c-2.397,1.721-5.646,2.58-9.745,2.58
		c-1.465,0-2.8-0.092-4.008-0.274c-1.208-0.184-2.288-0.411-3.239-0.687c-0.953-0.274-1.758-0.558-2.416-0.851
		c-0.659-0.293-1.172-0.549-1.537-0.769l1.207-3.239c0.366,0.22,0.86,0.476,1.482,0.769s1.354,0.576,2.196,0.851
		s1.793,0.504,2.855,0.687C591.712,391.054,592.883,391.145,594.164,391.145z"/>
	<path fill="#454546" d="M612.447,379.34c0-2.488,0.357-4.657,1.071-6.506c0.713-1.848,1.646-3.395,2.8-4.64
		c1.153-1.243,2.471-2.168,3.953-2.772c1.482-0.604,3.01-0.906,4.584-0.906c3.478,0,6.25,1.136,8.318,3.404
		c2.067,2.271,3.103,5.766,3.103,10.487c0,0.293-0.01,0.586-0.027,0.878c-0.02,0.294-0.047,0.568-0.083,0.824h-19.93
		c0.109,3.478,0.969,6.148,2.58,8.016c1.61,1.867,4.173,2.8,7.687,2.8c1.939,0,3.478-0.183,4.612-0.549
		c1.134-0.365,1.957-0.677,2.471-0.934l0.658,3.075c-0.513,0.293-1.474,0.641-2.882,1.043c-1.41,0.402-3.066,0.604-4.969,0.604
		c-2.49,0-4.612-0.366-6.369-1.098s-3.203-1.757-4.338-3.074c-1.135-1.318-1.958-2.883-2.471-4.694
		C612.703,383.485,612.447,381.5,612.447,379.34z M632.598,377.089c-0.074-2.965-0.769-5.271-2.087-6.918
		c-1.317-1.646-3.185-2.471-5.6-2.471c-1.282,0-2.426,0.257-3.432,0.769c-1.008,0.514-1.886,1.2-2.636,2.06
		c-0.751,0.86-1.337,1.858-1.757,2.992c-0.421,1.135-0.668,2.325-0.741,3.568H632.598z"/>
	<path fill="#454546" d="M653.899,364.626c1.171,0,2.278,0.092,3.322,0.274c1.043,0.184,1.766,0.366,2.168,0.549l-0.713,3.075
		c-0.294-0.146-0.889-0.303-1.785-0.467c-0.897-0.165-2.077-0.247-3.541-0.247c-1.537,0-2.772,0.109-3.706,0.329
		s-1.547,0.403-1.839,0.549v24.872h-3.569v-27.068c0.915-0.402,2.178-0.813,3.788-1.235
		C649.635,364.837,651.594,364.626,653.899,364.626z"/>
	<path fill="#454546" d="M674.516,389.717c0.771-1.573,1.56-3.376,2.367-5.407c0.809-2.032,1.589-4.137,2.342-6.314
		c0.752-2.178,1.449-4.373,2.092-6.589c0.643-2.214,1.185-4.291,1.625-6.231h3.57c-0.663,2.6-1.399,5.161-2.209,7.687
		c-0.812,2.525-1.667,4.996-2.569,7.412c-0.903,2.416-1.843,4.741-2.818,6.973c-0.977,2.233-1.925,4.338-2.845,6.314h-3.327
		c-0.958-1.977-1.917-4.081-2.874-6.314c-0.957-2.231-1.888-4.557-2.79-6.973s-1.759-4.887-2.57-7.412
		c-0.811-2.525-1.547-5.087-2.21-7.687h3.789c0.44,1.94,0.982,4.018,1.625,6.231c0.643,2.216,1.34,4.411,2.093,6.589
		s1.533,4.282,2.341,6.314C672.955,386.341,673.744,388.144,674.516,389.717z"/>
	<path fill="#454546" d="M696.67,356.609c0,0.843-0.257,1.51-0.769,2.004c-0.514,0.494-1.135,0.742-1.867,0.742
		s-1.354-0.248-1.866-0.742c-0.514-0.494-0.769-1.161-0.769-2.004c0-0.841,0.255-1.51,0.769-2.004
		c0.512-0.494,1.134-0.741,1.866-0.741s1.354,0.247,1.867,0.741C696.413,355.1,696.67,355.769,696.67,356.609z M695.847,393.561
		h-3.569v-28.386h3.569V393.561z"/>
	<path fill="#454546" d="M717.039,394.164c-2.196,0-4.137-0.348-5.82-1.043c-1.684-0.694-3.084-1.692-4.2-2.992
		c-1.117-1.299-1.968-2.854-2.553-4.667c-0.586-1.812-0.879-3.815-0.879-6.012c0-2.232,0.302-4.264,0.906-6.095
		c0.604-1.83,1.473-3.404,2.607-4.722s2.507-2.333,4.118-3.047c1.61-0.714,3.422-1.071,5.436-1.071c1.537,0,2.974,0.129,4.311,0.385
		c1.335,0.257,2.369,0.586,3.102,0.988l-0.934,3.074c-0.732-0.365-1.556-0.658-2.471-0.878s-2.141-0.329-3.679-0.329
		c-3.148,0-5.536,1.016-7.165,3.047s-2.442,4.914-2.442,8.647c0,1.684,0.183,3.23,0.549,4.64c0.365,1.409,0.961,2.617,1.784,3.623
		c0.823,1.008,1.885,1.794,3.185,2.361c1.299,0.567,2.883,0.851,4.749,0.851c1.537,0,2.828-0.173,3.871-0.521
		c1.043-0.348,1.802-0.649,2.278-0.905l0.769,3.074c-0.659,0.366-1.693,0.724-3.102,1.07
		C720.049,393.99,718.576,394.164,717.039,394.164z"/>
	<path fill="#454546" d="M728.843,379.34c0-2.488,0.357-4.657,1.071-6.506c0.713-1.848,1.646-3.395,2.8-4.64
		c1.153-1.243,2.471-2.168,3.953-2.772c1.482-0.604,3.01-0.906,4.584-0.906c3.478,0,6.25,1.136,8.318,3.404
		c2.067,2.271,3.103,5.766,3.103,10.487c0,0.293-0.01,0.586-0.027,0.878c-0.02,0.294-0.047,0.568-0.083,0.824h-19.93
		c0.109,3.478,0.969,6.148,2.58,8.016c1.61,1.867,4.173,2.8,7.687,2.8c1.939,0,3.478-0.183,4.612-0.549
		c1.134-0.365,1.957-0.677,2.471-0.934l0.658,3.075c-0.513,0.293-1.474,0.641-2.882,1.043c-1.41,0.402-3.066,0.604-4.969,0.604
		c-2.49,0-4.612-0.366-6.369-1.098s-3.203-1.757-4.338-3.074c-1.135-1.318-1.958-2.883-2.471-4.694
		C729.099,383.485,728.843,381.5,728.843,379.34z M748.993,377.089c-0.074-2.965-0.769-5.271-2.087-6.918
		c-1.317-1.646-3.185-2.471-5.6-2.471c-1.282,0-2.426,0.257-3.432,0.769c-1.008,0.514-1.886,1.2-2.636,2.06
		c-0.751,0.86-1.337,1.858-1.757,2.992c-0.421,1.135-0.668,2.325-0.741,3.568H748.993z"/>
	<path fill="#454546" d="M766.452,391.035c2.049,0,3.742-0.338,5.078-1.016c1.336-0.677,2.004-1.82,2.004-3.432
		c0-0.769-0.119-1.428-0.356-1.977c-0.238-0.549-0.632-1.043-1.181-1.482s-1.272-0.859-2.169-1.263
		c-0.897-0.402-2.004-0.879-3.321-1.428c-1.063-0.439-2.068-0.887-3.02-1.346c-0.952-0.457-1.794-0.988-2.526-1.592
		s-1.317-1.326-1.757-2.169c-0.438-0.842-0.658-1.866-0.658-3.074c0-2.307,0.869-4.173,2.607-5.601s4.127-2.142,7.165-2.142
		c1.939,0,3.542,0.165,4.805,0.494c1.263,0.33,2.149,0.623,2.662,0.879l-0.823,3.185c-0.439-0.22-1.181-0.513-2.224-0.879
		c-1.043-0.365-2.572-0.549-4.584-0.549c-0.806,0-1.565,0.083-2.279,0.248s-1.345,0.422-1.894,0.771
		c-0.55,0.348-0.988,0.788-1.318,1.32c-0.329,0.531-0.494,1.182-0.494,1.952s0.146,1.431,0.439,1.981s0.723,1.036,1.29,1.458
		s1.263,0.815,2.087,1.179c0.823,0.364,1.766,0.766,2.827,1.203c1.099,0.438,2.15,0.883,3.157,1.339
		c1.006,0.455,1.895,1.004,2.663,1.644c0.769,0.641,1.391,1.409,1.866,2.306c0.476,0.897,0.714,2.023,0.714,3.377
		c0,2.563-0.961,4.502-2.882,5.82c-1.922,1.317-4.549,1.977-7.879,1.977c-2.49,0-4.393-0.211-5.71-0.632
		c-1.318-0.42-2.196-0.741-2.636-0.961l0.934-3.239c0.109,0.074,0.347,0.192,0.714,0.357c0.365,0.164,0.859,0.348,1.482,0.549
		c0.621,0.201,1.362,0.376,2.224,0.521C764.319,390.962,765.316,391.035,766.452,391.035z"/>
	<path fill="#454546" d="M797.104,393.561V353.7h23.008v3.394h-19.097v13.861h17.025v3.337h-17.025v15.875h20.592v3.394H797.104z"/>
	<path fill="#454546" d="M838.604,380.98c-0.843,1.002-1.685,2.054-2.526,3.158c-0.843,1.104-1.656,2.192-2.44,3.262
		s-1.5,2.153-2.146,3.25c-0.646,1.098-1.192,2.067-1.639,2.91h-3.875c1.6-2.934,3.301-5.641,5.102-8.123
		c1.801-2.481,3.642-4.917,5.522-7.306l-10.049-14.309h4.372l7.775,11.261l7.754-11.261h4.084l-9.843,14.149
		c0.834,1.045,1.728,2.182,2.681,3.411s1.906,2.506,2.86,3.828c0.952,1.323,1.876,2.693,2.77,4.109s1.711,2.829,2.453,4.239h-4.021
		c-0.456-0.849-1.013-1.779-1.668-2.793c-0.655-1.013-1.378-2.071-2.167-3.173c-0.79-1.102-1.618-2.223-2.484-3.36
		C840.251,383.097,839.412,382.013,838.604,380.98z"/>
	<path fill="#454546" d="M867.046,363.133c1.955,0,3.613,0.278,4.975,0.834c1.361,0.557,2.464,1.323,3.308,2.301
		c0.843,0.978,1.457,2.139,1.841,3.48c0.383,1.343,0.575,2.799,0.575,4.371v18.751c-0.384,0.115-0.94,0.24-1.668,0.374
		c-0.729,0.135-1.573,0.278-2.531,0.432c-0.959,0.152-2.022,0.277-3.192,0.374c-1.17,0.095-2.368,0.144-3.595,0.144
		c-1.572,0-3.02-0.173-4.343-0.518c-1.323-0.346-2.474-0.892-3.451-1.64s-1.745-1.706-2.301-2.876
		c-0.556-1.169-0.834-2.597-0.834-4.285c0-1.61,0.307-2.991,0.921-4.142c0.612-1.15,1.476-2.099,2.588-2.847
		c1.111-0.748,2.435-1.294,3.969-1.64c1.533-0.345,3.201-0.518,5.004-0.518c0.537,0,1.103,0.029,1.697,0.086
		c0.594,0.058,1.169,0.136,1.726,0.23c0.556,0.097,1.035,0.192,1.438,0.288c0.403,0.096,0.681,0.182,0.834,0.259v-1.841
		c0-1.035-0.077-2.042-0.229-3.02c-0.154-0.979-0.489-1.859-1.007-2.646c-0.518-0.785-1.246-1.418-2.186-1.897
		c-0.94-0.479-2.177-0.72-3.71-0.72c-2.186,0-3.816,0.154-4.89,0.461s-1.86,0.556-2.357,0.747l-0.519-3.278
		c0.652-0.307,1.658-0.594,3.021-0.863C863.488,363.268,865.128,363.133,867.046,363.133z M867.391,390.857
		c1.457,0,2.732-0.048,3.825-0.145c1.093-0.095,2.021-0.22,2.789-0.373v-10.469c-0.422-0.191-1.093-0.393-2.013-0.604
		c-0.92-0.21-2.186-0.315-3.796-0.315c-0.921,0-1.88,0.067-2.876,0.201c-0.998,0.135-1.918,0.422-2.762,0.862
		c-0.844,0.441-1.534,1.045-2.07,1.812c-0.537,0.768-0.806,1.783-0.806,3.049c0,1.113,0.182,2.052,0.547,2.818
		c0.364,0.768,0.882,1.381,1.553,1.841s1.476,0.796,2.416,1.007C865.138,390.752,866.201,390.857,867.391,390.857z"/>
	<path fill="#454546" d="M887.291,364.858c1.112-0.307,2.56-0.651,4.343-1.035c1.783-0.383,4.093-0.575,6.932-0.575
		c3.757,0,6.479,1.093,8.167,3.278c0.191-0.152,0.565-0.411,1.122-0.776c0.556-0.364,1.256-0.738,2.1-1.121
		c0.843-0.384,1.83-0.71,2.962-0.979c1.131-0.268,2.387-0.402,3.768-0.402c2.262,0,4.093,0.336,5.493,1.007
		c1.399,0.671,2.482,1.61,3.25,2.818c0.767,1.208,1.284,2.655,1.553,4.343c0.268,1.688,0.402,3.528,0.402,5.521v16.623h-3.738
		v-15.415c0-1.956-0.086-3.652-0.259-5.091c-0.173-1.438-0.518-2.626-1.035-3.565s-1.257-1.648-2.215-2.129
		c-0.959-0.479-2.205-0.719-3.738-0.719c-1.15,0-2.196,0.106-3.135,0.316c-0.94,0.211-1.755,0.47-2.445,0.776
		c-0.69,0.308-1.256,0.614-1.696,0.92c-0.441,0.308-0.758,0.538-0.949,0.69c0.345,0.998,0.604,2.119,0.776,3.365
		s0.259,2.56,0.259,3.94v16.91h-3.738v-15.415c0-1.956-0.087-3.652-0.259-5.091c-0.173-1.438-0.528-2.626-1.064-3.565
		c-0.537-0.939-1.294-1.648-2.272-2.129c-0.978-0.479-2.271-0.719-3.882-0.719c-1.803,0-3.327,0.096-4.573,0.288
		c-1.246,0.191-2.042,0.364-2.387,0.518v26.113h-3.739V364.858z"/>
</g>
<g>
	<circle fill="#3892D0" cx="233.555" cy="139.491" r="85.855"/>
	<path fill="#A6D067" d="M219.165,194.664c-0.937,0-1.593-0.726-2.113-1.438c-0.18-0.199-0.375-0.394-0.582-0.6
		c-0.542-0.541-1.101-1.101-1.54-1.845c-0.146-0.235-0.329-0.501-0.519-0.78c-0.75-1.086-1.591-2.311-1.66-3.904
		c-0.611-1.954-1.352-4.248-2.22-6.485c-0.027-0.069-0.049-0.143-0.063-0.215c-0.309-1.542-0.871-2.748-1.669-3.588l-0.038-0.041
		c-1.445-1.653-1.784-3.604-2.111-5.489c-0.204-1.17-0.396-2.277-0.848-3.223c-0.531-0.636-0.594-1.374-0.635-1.868
		c-0.011-0.12-0.021-0.234-0.035-0.328l-0.062-0.135c-0.204-0.443-0.396-0.863-0.645-1.144c-1.018-0.948-1.194-2.213-1.336-3.23
		c-0.013-0.084-0.024-0.167-0.037-0.251c-1.06-1.599-1.79-3.017-2.298-4.45c-0.057-0.165-0.081-0.335-0.071-0.51
		c0.113-1.971-0.328-3.913-0.794-5.968l-0.02-0.095c-0.065-0.285-0.13-0.57-0.192-0.854c-0.024-0.114-0.034-0.231-0.028-0.35
		c0.011-0.21-0.066-0.504-0.148-0.816c-0.171-0.657-0.408-1.559-0.019-2.538l0.014-0.038c0.344-0.797,0.055-1.756-0.249-2.42
		l-0.015-0.035c-0.609-1.435-0.212-2.778,0.108-3.856c0.196-0.664,0.381-1.291,0.31-1.813c-0.018-0.124-0.017-0.25,0.002-0.375
		c0.013-0.083-0.065-0.263-0.159-0.452c-0.532,0.553-1.116,0.91-1.805,1.104c-0.063,0.019-0.126,0.032-0.19,0.041
		c-0.606,0.079-1.222,0.351-1.875,0.638l-0.121,0.054c-0.128,0.057-0.263,0.092-0.399,0.106c-0.191,0.018-0.386,0.027-0.58,0.027
		c-1.303,0-2.524-0.417-3.442-0.779c-0.082-0.032-0.161-0.074-0.234-0.121c-1.473-0.962-2.467-2.281-3.429-3.558
		c-0.635-0.842-1.235-1.638-1.941-2.291c-0.269-0.249-0.422-0.604-0.417-0.971c0.003-0.301,0.002-0.604,0-0.905
		c-0.003-0.547-0.007-1.113,0.02-1.688c0.004-0.093,0.02-0.184,0.043-0.272c-0.091-0.078-0.179-0.162-0.262-0.248
		c-1.332-0.989-2.035-2.072-2.794-3.606c-0.088-0.179-0.135-0.378-0.135-0.578c0-0.487,0-0.973,0.005-1.462
		c0-0.058,0.005-0.115,0.013-0.171c0.205-1.425,1.137-1.791,1.536-1.947c0.019-0.007,0.038-0.014,0.055-0.021
		c0.238-0.213,0.543-0.329,0.864-0.329c0.002,0,0.365,0.001,0.656,0.002v-0.168c0-0.503,0.293-0.965,0.748-1.179
		c0.584-0.275,1.148-0.408,1.724-0.408c0.992,0,1.76,0.407,2.377,0.733c0.38,0.202,0.708,0.376,1,0.415
		c0.133,0.018,0.26,0.055,0.381,0.111l0.1-0.113c0.247-0.28,0.602-0.441,0.977-0.441c0.031,0,0.062,0,0.093,0.002
		c0.106,0.01,0.223,0.013,0.358,0.013c0.159,0,0.323-0.005,0.485-0.01c0.045-0.001,0.088-0.003,0.134-0.004
		c-0.271-0.532-0.484-1.131-0.649-1.811c-0.193-0.074-0.387-0.148-0.58-0.218c-0.323-0.116-0.593-0.362-0.739-0.675
		c-0.464-0.995-0.636-2.108-0.49-3.17c-0.529-0.173-1.055-0.446-1.567-0.815c-0.364-0.262-0.565-0.688-0.538-1.136
		c0.017-0.275,0.009-0.572,0-0.888c-0.017-0.595-0.034-1.211,0.098-1.877c0.033-0.161,0.093-0.312,0.181-0.448
		c1.19-1.862,2.8-3.466,4.654-4.642c0.116-0.074,0.241-0.127,0.374-0.162c0.483-0.124,0.939-0.124,1.274-0.124h0.087
		c0.126,0,0.252,0,0.377-0.008c0.027-0.001,0.055-0.001,0.082-0.001c0.515,0,0.979,0.304,1.188,0.766
		c0.212-0.05,0.432-0.075,0.653-0.075c0.335,0,0.666,0.058,0.984,0.171c0.173-0.199,0.335-0.453,0.52-0.736
		c0.283-0.44,0.604-0.938,1.063-1.373c0.563-0.634,1.2-1.072,1.816-1.496c0.265-0.182,0.51-0.35,0.737-0.525
		c0.115-0.136,0.233-0.271,0.351-0.407c0.612-0.704,1.192-1.368,1.462-2.129c0.351-1.243,1.456-1.733,2.163-2.021
		c0.366-0.502,0.65-0.928,0.927-1.341c0.264-0.393,0.536-0.8,0.864-1.25c0.082-0.114,0.183-0.212,0.295-0.292
		c0.251-0.178,0.507-0.312,0.732-0.428c0.136-0.07,0.41-0.211,0.476-0.279c0.035-0.12,0.085-0.231,0.151-0.337
		c-0.021-0.106-0.091-0.321-0.116-0.399c-0.188-0.581-0.501-1.55,0.1-2.519c0.178-0.447,0.447-0.823,0.798-1.126
		c-0.049-0.128-0.167-0.415-0.167-0.415l-0.047-0.117c-0.24-0.095-0.48-0.19-0.718-0.281c-0.557-0.212-0.898-0.774-0.832-1.364
		c0.01-0.088-0.389-0.448-0.521-0.567l-0.161-0.148c-0.3-0.277-0.45-0.666-0.415-1.07c0.006-0.07-0.002-0.22-0.008-0.343
		c-0.028-0.521-0.07-1.297,0.464-1.918c-0.133-0.458-0.241-0.913-0.347-1.354c-0.09-0.377-0.176-0.734-0.273-1.092
		c-0.144-0.422-0.157-0.841-0.168-1.178c-0.004-0.125-0.011-0.326-0.029-0.414c-0.194-0.234-0.35-0.5-0.473-0.808
		c-0.181,0.003-0.569,0.01-0.572,0.01c-0.484,0-0.926-0.265-1.152-0.694c-0.692-1.31-0.728-2.759-0.759-4.038l-0.01-0.376
		c-0.012-0.371,0.136-0.729,0.408-0.985c0.438-0.416,0.981-0.49,1.339-0.539c0.034-0.004,0.075-0.009,0.115-0.016
		c0.208-0.131,0.446-0.201,0.695-0.201c0.041,0,0.082,0.001,0.123,0.005c0.018,0.002,0.034,0.003,0.051,0.003
		c0.184,0,0.42-0.102,0.72-0.231c0.246-0.105,0.539-0.232,0.875-0.324c0.084-0.16,0.168-0.318,0.252-0.472
		c0.229-0.415,0.667-0.672,1.14-0.672h0.037c0.392,0.011,0.816,0.017,1.292,0.019c0.08-0.087,0.286-0.304,0.286-0.304
		c0.21-0.223,0.421-0.446,0.627-0.673c0.246-0.272,0.597-0.427,0.964-0.427c0.007,0,0.174,0.002,0.174,0.002
		c1.482,0.031,3.505,0.071,4.797,1.563c0.204,0.089,0.368,0.196,0.492,0.277c0.024,0.016,0.047,0.03,0.067,0.043
		c0.369,0.065,0.697,0.291,0.89,0.614c0.09,0.023,0.296,0.054,0.426,0.076l0.038,0.005c0.035,0.006,0.069,0.013,0.104,0.021
		c0.914,0.218,1.438,0.899,1.494,1.927c0.822,0.403,1.505,0.771,2.127,1.143c0.461-0.147,0.854-0.28,1.072-0.504
		c1.256-1.349,3.066-1.349,4.148-1.349l0.512,0l0.134-0.033c0.703-0.172,1.432-0.352,2.254-0.352c0.097,0,0.193,0.001,0.29,0.007
		c0.444,0.025,0.841,0.271,1.061,0.658c0.159,0.278,0.288,0.579,0.396,0.917c0.717,0.157,1.471,0.349,2.209,0.697
		c0.492,0.233,0.79,0.751,0.743,1.294c-0.012,0.136-0.016,0.292-0.017,0.457c-0.005,0.386-0.01,0.823-0.135,1.298
		c-0.056,0.215-0.165,0.412-0.318,0.572c-0.15,0.157-0.241,0.486-0.347,0.867c-0.191,0.692-0.452,1.639-1.365,2.309
		c-0.386,0.333-0.643,0.84-0.94,1.429c-0.302,0.6-0.615,1.219-1.123,1.794c-0.205,0.231-0.484,0.381-0.787,0.426
		c0.392,0.176,0.675,0.539,0.75,0.962c0.053,0.297,0.184,0.627,0.322,0.977c0.297,0.752,0.668,1.686,0.462,2.818
		c-0.06,0.334-0.247,0.629-0.524,0.827c-0.804,0.575-1.787,1.278-2.946,1.583c0.013,0.305,0.002,0.601-0.007,0.87
		c-0.009,0.259-0.018,0.504-0.006,0.723c0.047,0.113,0.104,0.233,0.174,0.368c1.159,0.026,2.124,0.512,2.978,0.942
		c0.208,0.104,0.407,0.205,0.608,0.298c0.093,0.044,0.181,0.098,0.264,0.163c0.209,0.168,0.42,0.346,0.632,0.525
		c0.786,0.667,1.527,1.295,2.319,1.346c0.263,0.017,0.512,0.112,0.72,0.274c0.31,0.243,0.607,0.489,0.884,0.729
		c0.279,0.241,0.442,0.589,0.45,0.956c0.005,0.246,0.011,0.728,0.013,0.971c0.004,0.403-0.183,0.79-0.5,1.039
		c-0.382,0.298-0.797,0.555-1.197,0.803c-0.436,0.27-0.849,0.527-1.198,0.818c-0.071,0.229-0.113,0.512-0.157,0.808
		c-0.066,0.456-0.145,1-0.37,1.531c1.591,0.299,2.525,1.16,3.43,1.993c0.548,0.504,1.112,1.024,1.906,1.525
		c0.036,0.024,0.074,0.051,0.108,0.078l0.232,0.184c1.455,1.146,1.917,1.511,2.96,1.719c0.49-0.12,1.089-0.26,1.79-0.26
		c0.228,0,0.455,0.013,0.687,0.042c1.155,0.077,2.083,0.138,3.253,0.586c0.18,0.068,0.348,0.18,0.48,0.321
		c0.227,0.239,0.504,0.46,0.799,0.694c0.298,0.237,0.604,0.479,0.909,0.775c0.911,0.349,1.48,0.416,2.33,0.518
		c0.287,0.033,0.595,0.07,0.941,0.119c0.15,0.021,0.297,0.071,0.433,0.145c0.654,0.353,1.006,0.395,1.452,0.45
		c0.404,0.048,0.904,0.11,1.502,0.391c0.17,0.047,0.399,0.053,0.625,0.053l0.407-0.001c0.542,0,1.122,0.035,1.717,0.288
		c0.075,0.02,0.155,0.038,0.246,0.049c-0.115-0.903-0.096-1.793-0.08-2.659c0.008-0.403,0.014-0.779,0.008-1.154
		c0-0.09,0.008-0.182,0.027-0.272c0.274-1.383,1.389-3.121,5.141-3.56c0.048-0.007,0.1-0.009,0.151-0.009
		c0.357,0,0.705,0.15,0.95,0.412c0.253,0.27,0.522,0.544,0.8,0.816c0.264,0.257,0.406,0.617,0.392,0.984
		c-0.009,0.196-0.002,0.412,0.005,0.641c0.014,0.395,0.027,0.836-0.031,1.298c0.452,0.575,0.447,1.264,0.398,1.794
		c0.191,0.039,0.394,0.07,0.608,0.104c0.235,0.036,0.47,0.073,0.71,0.121c1.734-0.603,3.523-0.616,4.978-0.621
		c0.287-0.127,0.584-0.233,0.9-0.322c-0.073-0.163-0.112-0.34-0.112-0.524v-2.262c0-0.551,0.349-1.044,0.866-1.228
		c1.013-0.362,2.114-0.732,3.473-1.166c0.913-0.312,1.716-1.033,2.566-1.801c0.206-0.184,0.409-0.367,0.615-0.544
		c0.064-0.057,0.135-0.109,0.212-0.152c1.157-0.651,2.261-1.599,3.473-2.976c0.247-0.282,0.604-0.442,0.978-0.442l0.244,0
		l0.727-0.004c0.592,0,1.226,0.013,1.873,0.09l0.02,0.001c0.372,0,0.808-0.228,1.31-0.494c0.39-0.204,0.792-0.415,1.253-0.571
		c0.068-0.023,0.144-0.042,0.217-0.053c0.177-0.026,0.355-0.042,0.536-0.042c0.831,0,1.553,0.289,2.132,0.521
		c0.357,0.143,0.631,0.433,0.754,0.797l0.046,0.146c0.103,0.306,0.208,0.616,0.3,0.94c0.184,0.099,0.351,0.19,0.511,0.282
		c0.417,0.239,0.67,0.687,0.657,1.167c-0.007,0.153-0.009,0.306-0.013,0.457c0.11,0.024,0.219,0.049,0.327,0.075
		c0.407,0.096,0.792,0.185,1.128,0.185c0.045,0,0.091-0.001,0.134-0.005c0.037-0.002,0.071-0.002,0.103-0.002
		c0.346,0,0.683,0.14,0.926,0.385c0.246,0.248,0.507,0.512,0.774,0.761c0.275,0.256,0.426,0.619,0.413,0.995
		c-0.005,0.162,0,0.363,0.008,0.574c0.03,0.87,0.082,2.44-1.038,3.337c0.009,0.512,0.012,0.988-0.029,1.489
		c-0.015,0.18-0.065,0.35-0.15,0.51c-0.402,0.75-1.127,1.147-2.095,1.147c-0.107,0-0.217-0.006-0.327-0.009
		c-0.085-0.004-0.154-0.007-0.222-0.007c-0.03,0-0.061,0-0.09,0.003c-0.041,0.004-0.083,0.006-0.127,0.006h-0.049
		c-0.235,0-0.541,0.085-0.862,0.177c-0.077,0.022-0.152,0.044-0.23,0.064c-0.529,0.854-1.31,1.346-2.002,1.782
		c-0.563,0.355-1.049,0.662-1.257,1.074c-0.042,0.086-0.095,0.167-0.156,0.24c-0.046,0.055-0.039,0.183,0.121,0.758
		c0.155,0.549,0.365,1.302,0.177,2.118c-0.079,0.347-0.302,0.65-0.608,0.831c-0.202,0.118-0.404,0.234-0.604,0.351l-0.164,0.094
		c0.008,0.391,0.008,0.819-0.07,1.271c-0.052,0.311-0.216,0.592-0.46,0.79c-0.508,0.414-0.879,0.944-1.078,1.536
		c-0.033,0.097-0.078,0.19-0.131,0.277l-0.135,0.212c-0.347,0.544-0.646,1.013-0.593,1.408c0.054,0.407-0.089,0.82-0.383,1.105
		c-0.227,0.221-0.473,0.472-0.754,0.77c-0.245,0.258-0.589,0.408-0.947,0.408c-0.195,0-0.375,0-0.554,0
		c-0.143,0.152-0.293,0.303-0.447,0.451c0.004,0.444,0.008,0.9-0.011,1.362c-0.005,0.115-0.025,0.229-0.059,0.338
		c-0.164,0.524-0.398,0.959-0.625,1.379c-0.129,0.241-0.251,0.47-0.344,0.687c-0.018,0.55-0.015,1.113-0.013,1.659l0.001,0.041
		c0.002,0.374,0.002,0.748-0.001,1.121c0,0.039-0.002,0.078-0.006,0.116c-0.217,2.139-1.204,3.466-2.577,3.467
		c-1.427,0-2.371-1.443-2.958-2.527c-0.017-0.03-0.03-0.058-0.043-0.088c-0.497-1.114-0.799-2.353-0.875-3.585
		c-0.06-0.407-0.157-0.815-0.273-1.227c-0.164,0.132-0.36,0.225-0.576,0.266c-0.253,0.049-0.51,0.072-0.762,0.072
		c-1.188,0-2.304-0.504-3.411-1.542c-0.112-0.104-0.202-0.223-0.271-0.357c-0.763-1.493-1.073-2.958-0.919-4.354
		c0.03-0.284,0.157-0.555,0.357-0.762c0.949-0.985,1.93-1.767,2.996-2.382c-0.136-0.032-0.259-0.052-0.365-0.052h-0.004
		c-0.889,0.267-1.85,0.403-2.853,0.403c-1.143,0-2.344-0.174-3.574-0.515c-0.087-0.024-0.171-0.058-0.249-0.099
		c-1.053-0.543-1.407-1.525-1.643-2.175c-0.073-0.206-0.143-0.4-0.218-0.545c-0.099-0.036-0.209-0.069-0.325-0.098
		c0.245,0.93,0.095,1.89-0.442,2.759c-0.182,0.297-0.48,0.505-0.813,0.584c1.183,1.528,1.125,3.504,1.079,5.131
		c-0.005,0.21-0.011,0.399-0.015,0.586c0,0.02,0,0.04-0.002,0.059c-0.065,1.025,0.448,2.341,0.942,3.611
		c0.816,2.099,1.742,4.479,0.092,6.219c-0.805,0.848-1.757,1.297-2.756,1.297c-0.681,0-1.706-0.219-2.737-1.257
		c-0.596,0.382-1.286,0.671-2.132,0.896c0,0,0,0.082,0,0.083c-0.002,0.793-0.002,1.614,0.019,2.412
		c0.008,0.279-0.077,0.558-0.239,0.786c-1.16,1.639-2.125,2.854-3.984,3.533c-1.106,0.375-2.267,0.801-3.317,1.374
		c-0.999,0.927-1.796,1.729-2.509,2.52c-0.857,1.336-2.028,2.458-3.382,3.244c-0.67,0.373-1.229,0.954-1.823,1.573
		c-0.219,0.227-0.437,0.454-0.663,0.673c-0.62,0.646-1.321,1.14-2.001,1.617c-0.703,0.493-1.365,0.958-1.837,1.534
		c-0.286,1.072-0.97,1.895-1.884,2.266c-0.848,0.344-1.967,0.773-3.17,1.055c-0.443,0.458-0.938,0.576-1.243,0.649
		c-0.046,0.011-0.146,0.035-0.169,0.046c-0.234,0.252-0.571,0.401-0.92,0.405c-0.046,0.002-0.057,0.002-0.306,0.128
		c-0.193,0.098-0.448,0.229-0.793,0.353c-0.399,0.516-0.651,1.161-0.829,1.697c0.237,0.799,0.24,1.58,0.244,2.271
		c0.002,0.661,0.005,1.284,0.217,1.764c0.062,0.14,0.098,0.289,0.109,0.439c0.086,1.302,0.11,2.691-0.297,4.048
		c0.051,1.411-0.022,3.226-0.999,4.868c-0.009,0.016-0.018,0.031-0.028,0.047c-0.006,0.073-0.009,0.215-0.009,0.272
		c-0.007,0.374-0.022,1.32-0.732,1.884c-0.012,0.893-0.073,1.164-0.393,1.914c-0.076,0.174-0.161,0.376-0.268,0.646
		c-0.027,0.07-0.061,0.137-0.099,0.199c-0.097,0.163-0.272,0.662-0.403,1.027c-0.385,1.102-0.751,2.145-1.533,2.55
		c-0.406,0.587-0.958,0.927-1.365,1.181c-0.111,0.068-0.281,0.172-0.369,0.236c0.001,0.003,0.001,0.006,0.002,0.01
		c0.154,0.656-0.212,1.314-0.852,1.531c-0.128,0.043-0.422,0.412-0.6,0.633c-0.393,0.494-0.836,1.048-1.53,1.369
		c-0.125,0.188-0.193,0.598-0.252,0.962c-0.02,0.12-0.04,0.239-0.061,0.354c-0.042,0.225-0.142,0.433-0.289,0.606
		c-0.398,0.469-0.824,0.89-1.235,1.298c-0.311,0.309-0.629,0.622-0.916,0.941c-0.03,0.033-0.062,0.064-0.095,0.093
		c-0.093,0.086-0.191,0.203-0.292,0.323C220.513,194.079,220.025,194.664,219.165,194.664L219.165,194.664z"/>
	<path fill="#A6D067" d="M199.828,76.026c-0.702-0.333-1.033-1.07-0.959-0.333c0.074,0.737-0.111,0.554,0.221,1.106
		c0.332,0.554,1.144,1.034,1.144,1.034s-0.333,1.034,0.406,0c0.738-1.034,0.664-1.144,0.959-1.438
		c0.294-0.295,0.996-1.107,0.442-1.182c-0.553-0.074-1.106-0.221-1.66,0.295C199.828,76.026,199.828,76.026,199.828,76.026z"/>
	<path fill="#A6D067" d="M198.019,71.228c-0.848,0.407-1.401,0.333-1.253,0.923c0.147,0.591,0.21,0.591-0.025,0.775
		c-0.234,0.184-0.64,0.517-0.64,0.517s-0.626,0.59-0.664,1.033c-0.037,0.443-0.37,1.292,0.221,0.812
		c0.591-0.48,0.686-0.369,1.007-0.886c0.322-0.516,0.507-0.743,0.507-1.071c0-0.331-0.147-0.516,0.443-0.811
		C198.204,72.226,198.019,71.228,198.019,71.228z"/>
	<path fill="#A6D067" d="M211.572,76.813c-0.79,0.472-0.659,0.241-0.955,0.868c-0.297,0.625-1.153,0.921,0.477,0.692
		c1.631-0.231,1.631,0.061,1.861-0.151c0.231-0.212,0.495-0.59,0.495-0.59s0.263-0.642-0.495-0.642
		C212.199,76.989,211.572,76.813,211.572,76.813z"/>
	<path fill="#A6D067" d="M215.179,77.417c-0.693-0.029-0.609,0.041-0.886,0.167c-0.277,0.124-0.701,0.109-0.239,0.414
		c0.461,0.305,0.156,0.602,0.599,0.398C215.095,78.192,215.179,77.417,215.179,77.417z"/>
	<path fill="#A6D067" d="M217.614,76.018c-0.849,0.111-1.034,0.111-1.217,0.332c-0.186,0.222-1.07,0.333-0.186,0.406
		c0.887,0.074,0.887,0.074,0.887,0.074s-0.111-0.061,0.516-0.271c0.627-0.209,0.443-0.099,0.627-0.209
		S217.614,76.018,217.614,76.018z"/>
	<path fill="#A6D067" d="M215.418,75.602c-0.167,0.166-0.129,0.756,0.332,0.571c0.46-0.184,0.277-0.073,0.46-0.184
		c0.186-0.111,0.352-0.221,0.241-0.295C216.341,75.62,215.418,75.602,215.418,75.602z"/>
	<path fill="#A6D067" d="M213.475,75.458c0.172,0.258,0.052,0.623,0.44,0.375c0.388-0.249-0.129-0.359,0.296-0.212
		s0.591-0.019,0.591-0.019v-0.71h-0.877L213.475,75.458z"/>
	<path fill="#A6D067" d="M214.252,74.31c-0.273,0.166-0.679,0.239-0.292,0.35c0.388,0.111,0.441,0.259,0.553,0.092
		c0.112-0.165,0.185-0.351,0.185-0.351L214.252,74.31z"/>
	<path fill="#A6D067" d="M215.908,74.439c-0.323,0.11-0.711,0.037-0.47,0.24c0.239,0.203,0.387,0.277,0.387,0.277
		s0.258-0.054,0.258-0.128C216.083,74.752,215.908,74.439,215.908,74.439z"/>
	<path fill="#A6D067" d="M264.872,110.971c1.083,0.123,1.746-0.345,1.623,0.294c-0.124,0.64,0.542,0.443-0.664,0.862
		c-1.206,0.417-0.959,0.884-1.575,0.516s-0.911-0.615-0.64-0.959C263.888,111.34,264.872,110.971,264.872,110.971z"/>
	<path fill="#A6D067" d="M227.307,77.41c-1.764,0.456-4.527,0.375-1.723,1.04c2.804,0.663,0.984,1.352,2.804,0.663
		c1.821-0.689,2.214-0.946,2.214-1.482C230.603,77.096,228.869,77.006,227.307,77.41z"/>
	<path opacity="0.21" fill="#FFFFFF" d="M160.816,153.74c0-47.416,38.438-85.855,85.854-85.855c20.118,0,38.618,6.92,53.253,18.509
		c-15.726-19.86-40.048-32.603-67.347-32.603c-47.416,0-85.855,38.438-85.855,85.855c0,27.298,12.743,51.622,32.603,67.346
		C167.736,192.357,160.816,173.857,160.816,153.74z"/>
	<path fill="#67CADA" d="M289.771,74.753c13.061,15.063,20.964,34.717,20.964,56.217c0,47.417-38.44,85.854-85.854,85.854
		c-21.501,0-41.155-7.902-56.217-20.963c15.742,18.156,38.977,29.639,64.892,29.639c47.417,0,85.855-38.438,85.855-85.854
		C319.41,113.729,307.927,90.496,289.771,74.753z"/>
</g>
</svg>
