<?xml version="1.0" encoding="utf-8"?>
<!-- Generator: Adobe Illustrator 16.0.0, SVG Export Plug-In . SVG Version: 6.00 Build 0)  -->
<!DOCTYPE svg PUBLIC "-//W3C//DTD SVG 1.1//EN" "http://www.w3.org/Graphics/SVG/1.1/DTD/svg11.dtd">
<svg version="1.1" id="Layer_1" xmlns="http://www.w3.org/2000/svg" xmlns:xlink="http://www.w3.org/1999/xlink" x="0px" y="0px"
	 width="300px" height="300px" viewBox="0 0 300 300" enable-background="new 0 0 300 300" xml:space="preserve">
<g display="none">
	<path display="inline" fill="none" stroke="#19647E" stroke-width="4" stroke-miterlimit="10" d="M157.707,40.434l20.533-15.211
		c-3.127-1.937-9.26-4.623-20.533-4.623h-0.068c-11.28,0-17.402,2.686-20.534,4.623l20.534,15.211H157.707z"/>
	<path display="inline" fill="none" stroke="#19647E" stroke-width="4" stroke-miterlimit="10" d="M255.593,79.342
		c-4.228-17.318-13.5-25.584-21.76-29.013c-6.342-2.629-16.47-5.819-33.442-12.739c-3.517-1.522-6.341-2.875-8.73-4.108
		l-21.07,26.113l-8.02-11.92v53.729h-4.832h-0.057h-4.832V47.675l-8.04,11.92l-21.055-26.113c-2.391,1.227-5.234,2.579-8.75,4.108
		C98.02,44.51,87.904,47.693,81.582,50.33c-8.259,3.429-17.558,11.682-21.76,29.013c-4.234,17.333-8.266,40.501-8.266,40.501
		s2.22,4.637,14.903,6.85c12.714,2.214,22.156,0,22.156,0l4.228-6.253c0,0,2.818,14.91,4.429,23.98
		c1.617,9.072,1.818,15.709,2.246,30.825c0.403,15.111-1.214,37.279-2.246,45.533c-0.994,8.261-3.228,26.988-3.624,34.656
		c-0.409,7.655-2.02,16.922-2.02,16.922s3.63,5.845,65.896,5.845l0.146,0.051v0.013l0.023-0.007l0.025,0.007v-0.013l0.139-0.051
		c62.262,0,65.896-5.845,65.896-5.845s-1.611-9.267-2.02-16.922c-0.402-7.656-2.616-26.396-3.625-34.656
		c-1.012-8.254-2.623-30.436-2.244-45.533c0.408-15.109,0.615-21.753,2.244-30.825c1.611-9.065,4.431-23.98,4.431-23.98l4.228,6.253
		c0,0,9.475,2.214,22.144,0c12.715-2.22,14.903-6.85,14.903-6.85S259.818,96.675,255.593,79.342z"/>
</g>
<g display="none">
	<rect x="148.143" y="117.655" display="inline" fill="#EDC543" width="59.736" height="22.195"/>
	<path display="inline" fill="none" stroke="#EDC543" stroke-width="4" d="M118.151,170.8c0,0-2.341,60.741-5.845,77.093
		c-3.504,16.352-7.009,29.203-7.009,29.203"/>
	<g display="inline">
		<path fill="none" stroke="#034078" stroke-width="4" stroke-miterlimit="10" d="M155.678,31.254l22.34-16.549
			c-3.396-2.108-10.074-5.03-22.34-5.03h-0.041c-12.286,0-18.951,2.922-22.353,5.03l22.353,16.549H155.678z"/>
		<path fill="none" stroke="#034078" stroke-width="4" stroke-miterlimit="10" d="M262.173,73.585
			c-4.563-18.842-14.688-27.835-23.674-31.565c-6.872-2.862-17.918-6.332-36.356-13.86c-3.824-1.657-6.926-3.128-9.525-4.469
			l-22.9,28.41l-8.748-12.969v58.456h-5.256h-0.068h-5.255V39.132l-8.72,12.969l-22.928-28.41c-2.601,1.334-5.694,2.806-9.521,4.469
			c-18.479,7.528-29.457,10.992-36.362,13.86c-8.988,3.73-19.076,12.709-23.675,31.565c-4.606,18.855-8.993,44.063-8.993,44.063
			s2.416,5.044,16.221,7.453c13.812,2.409,24.091,0,24.091,0l4.599-6.803c0,0,3.066,16.221,4.818,26.09
			c1.773,9.869,1.979,17.088,2.45,33.537c0.438,16.438-1.321,40.558-2.45,49.538c-1.068,8.986-3.504,29.361-3.942,37.704
			c-0.438,8.329-2.19,18.41-2.19,18.41s3.942,6.358,71.686,6.358l0.178,0.055v0.014l0.015-0.007l0.026,0.007v-0.014l0.145-0.055
			c67.736,0,71.691-6.358,71.691-6.358s-1.752-10.081-2.195-18.41c-0.438-8.33-2.826-28.718-3.941-37.704
			c-1.117-8.98-2.854-33.113-2.431-49.538c0.444-16.44,0.671-23.668,2.431-33.537c1.752-9.863,4.816-26.09,4.816-26.09l4.6,6.803
			c0,0,10.328,2.409,24.119,0c13.784-2.416,16.207-7.453,16.207-7.453S266.771,92.44,262.173,73.585z"/>
	</g>
	<path display="inline" fill="#EDC543" d="M251.887,75.604c0,0,5.844,9.342,9.35,37.965c0,0-14.024,7.008-25.118,1.752
		c0,0-9.351-12.265-12.267-22.778"/>
	<path display="inline" fill="#EDC543" d="M245.466,69.178"/>
	<path display="inline" fill="#EDC543" d="M60.325,73.852c0,0-5.845,9.342-9.349,37.964c0,0,14.023,7.009,25.118,1.753
		c0,0,9.349-12.265,12.265-22.778"/>
</g>
<g display="none">
	<path display="inline" fill="#EEC643" d="M99.888,242.988H204.75c1.852,0,3.391-1.403,3.391-3.121V65.278
		c0-1.724-1.514-3.128-3.391-3.128H99.888c-1.87,0-3.402,1.404-3.402,3.128v174.583C96.504,241.585,98.018,242.988,99.888,242.988z"
		/>
	<path display="inline" fill="#EEC643" d="M99.888,242.988H204.75c1.852,0,3.391-1.403,3.391-3.121V65.278
		c0-1.724-1.514-3.128-3.391-3.128H99.888c-1.87,0-3.402,1.404-3.402,3.128v174.583C96.504,241.585,98.018,242.988,99.888,242.988z"
		/>
	<path display="inline" fill="none" stroke="#034078" stroke-width="4" d="M95.022,273.598h115.455
		c9.213,0,16.695-7.488,16.695-16.688V48.244c0-9.22-7.496-16.702-16.695-16.702H95.022c-9.2,0-16.715,7.495-16.715,16.702v208.664
		C78.333,266.107,85.81,273.598,95.022,273.598z"/>
	<path display="inline" fill="#EEC643" d="M99.888,242.988H204.75c1.852,0,3.391-1.403,3.391-3.121V65.278
		c0-1.724-1.514-3.128-3.391-3.128H99.888c-1.87,0-3.402,1.404-3.402,3.128v174.583C96.504,241.585,98.018,242.988,99.888,242.988z"
		/>
	<path display="inline" fill="none" stroke="#034078" stroke-width="4" d="M95.022,273.598h115.455
		c9.213,0,16.695-7.488,16.695-16.688V48.244c0-9.22-7.496-16.702-16.695-16.702H95.022c-9.2,0-16.715,7.495-16.715,16.702v208.664
		C78.333,266.107,85.81,273.598,95.022,273.598z"/>
	<path display="inline" fill="none" stroke="#034078" stroke-width="4" d="M95.022,273.598h115.455
		c9.213,0,16.695-7.488,16.695-16.688V48.244c0-9.22-7.496-16.702-16.695-16.702H95.022c-9.2,0-16.715,7.495-16.715,16.702v208.664
		C78.333,266.107,85.81,273.598,95.022,273.598z"/>
	<path display="inline" fill="none" stroke="#034078" stroke-width="4" d="M95.354,74.038c0-7.687,6.258-13.944,13.938-13.944H196.2
		c7.688,0,13.944,6.258,13.944,13.944v157.063c0,7.687-6.258,13.938-13.944,13.938h-38.697c0.99,1.117,1.622,2.579,1.622,4.207
		c0,3.52-2.848,6.359-6.372,6.359c-3.524,0-6.391-2.849-6.391-6.359c0-1.628,0.645-3.084,1.615-4.207h-38.704
		c-7.681,0-13.938-6.251-13.938-13.938L95.354,74.038L95.354,74.038z"/>
</g>
<g transform="translate(0 -1028.4)">
	<path fill="#E74C3C" d="M159.5,1042.073c-50.196,0-90.884,40.688-90.884,90.884c0,16.142,4.337,31.242,11.716,44.377
		c1.226,2.18,2.507,4.327,3.905,6.39l75.264,131.002l75.264-131.002c1.154-1.715,2.152-3.527,3.194-5.325l0.711-1.065
		c7.378-13.136,11.716-28.235,11.716-44.377C250.385,1082.761,209.69,1042.073,159.5,1042.073z M159.5,1087.516
		c25.095,0,45.442,20.347,45.442,45.442S184.595,1178.4,159.5,1178.4c-25.095,0-45.442-20.347-45.442-45.442
		S134.405,1087.516,159.5,1087.516z"/>
	<path fill="#C0392B" d="M159.5,1076.155c-31.37,0-56.803,25.434-56.803,56.803c0,31.364,25.433,56.803,56.803,56.803
		c31.363,0,56.804-25.439,56.804-56.803C216.304,1101.589,190.863,1076.155,159.5,1076.155z M159.5,1098.876
		c18.827,0,34.082,15.26,34.082,34.082c0,18.822-15.255,34.082-34.082,34.082c-18.827,0-34.082-15.26-34.082-34.082
		C125.418,1114.136,140.673,1098.876,159.5,1098.876z"/>
</g>
</svg>
