<?xml version="1.0" encoding="utf-8"?>
<!-- Generator: Adobe Illustrator 21.0.2, SVG Export Plug-In . SVG Version: 6.00 Build 0)  -->
<svg version="1.1" id="Layer_1" xmlns="http://www.w3.org/2000/svg" xmlns:xlink="http://www.w3.org/1999/xlink" x="0px" y="0px"
	 viewBox="0 0 20.7 20.7" style="enable-background:new 0 0 20.7 20.7;" xml:space="preserve">
<style type="text/css">
	.st0{fill:#3B99FD;}
	.st1{fill:#FFFFFF;}
</style>
<g>
	<rect class="st0" width="20.7" height="20.7"/>
	<path class="st1" d="M5,10.9c-0.1-0.1-0.1-0.2-0.1-0.3s0-0.2,0.1-0.3l0.6-0.6c0.2-0.2,0.4-0.2,0.6,0l0,0l2.4,2.5
		c0.1,0.1,0.2,0.1,0.3,0l5.7-6h0l0,0c0.2-0.2,0.4-0.2,0.6,0l0.6,0.6c0.2,0.2,0.2,0.4,0,0.6l0,0L9,14.6c-0.1,0.1-0.2,0.1-0.3,0.1
		c-0.1,0-0.2,0-0.3-0.1L5.1,11L5,10.9L5,10.9z"/>
</g>
</svg>
