<?xml version="1.0" encoding="utf-8"?>
<!-- Generator: Adobe Illustrator 16.0.0, SVG Export Plug-In . SVG Version: 6.00 Build 0)  -->
<!DOCTYPE svg PUBLIC "-//W3C//DTD SVG 1.1//EN" "http://www.w3.org/Graphics/SVG/1.1/DTD/svg11.dtd">
<svg version="1.1" id="Layer_1" xmlns="http://www.w3.org/2000/svg" xmlns:xlink="http://www.w3.org/1999/xlink" x="0px" y="0px"
	 width="500px" height="500px" viewBox="0 0 500 500" enable-background="new 0 0 500 500" xml:space="preserve">
<g id="Layer_1_1_">
	<path id="border_15_" fill="#67CADA" d="M460.059,152.231v264.551c0,19.056-15.456,40.258-34.513,40.258H74.731
		c-19.056,0-34.509-21.202-34.509-40.258V152.231h23.007v265.325c0,12.268,4.254,16.479,16.604,16.479h340.612
		c12.351,0,16.606-4.212,16.606-16.479v-266.1L460.059,152.231z"/>
	<g id="top_1_">
		<g>
			<path fill="#67CADA" d="M429.713,42.96H70.562c-13.58,0-30.339,22.499-30.339,35.978v90.546h419.835V78.938
				C460.059,65.459,443.294,42.96,429.713,42.96z M143.745,140.724c-15.88,0-28.755-12.867-28.755-28.75
				c0-15.883,12.875-28.756,28.755-28.756s28.753,12.873,28.753,28.756C172.498,127.857,159.625,140.724,143.745,140.724z
				 M356.538,140.724c-15.883,0-28.761-12.867-28.761-28.75c0-15.883,12.878-28.756,28.761-28.756
				c15.872,0,28.75,12.873,28.75,28.756C385.288,127.857,372.41,140.724,356.538,140.724z"/>
		</g>
	</g>
	<g enable-background="new    ">
		<path fill="#A6D067" d="M121.491,324.758l44.268-115.27h16.434l47.177,115.27h-17.377l-13.445-34.911h-48.199l-12.659,34.911
			H121.491z M154.75,277.424h39.078l-12.03-31.924c-3.67-9.696-6.396-17.664-8.178-23.902c-1.468,7.391-3.538,14.73-6.211,22.016
			L154.75,277.424z"/>
		<path fill="#A6D067" d="M239.748,356.76V241.255h12.895v10.851c3.039-4.246,6.474-7.431,10.301-9.554
			c3.825-2.123,8.465-3.185,13.917-3.185c7.128,0,13.419,1.836,18.87,5.504c5.451,3.67,9.566,8.846,12.346,15.529
			c2.777,6.684,4.167,14.01,4.167,21.977c0,8.545-1.534,16.237-4.601,23.077c-3.066,6.841-7.521,12.083-13.366,15.727
			c-5.846,3.643-11.991,5.464-18.438,5.464c-4.718,0-8.951-0.996-12.698-2.987c-3.749-1.992-6.829-4.508-9.239-7.549v40.651H239.748
			z M252.564,283.478c0,10.747,2.174,18.688,6.525,23.825c4.351,5.138,9.619,7.705,15.805,7.705c6.29,0,11.676-2.66,16.158-7.98
			s6.723-13.563,6.723-24.729c0-10.641-2.189-18.608-6.565-23.903c-4.378-5.294-9.606-7.941-15.687-7.941
			c-6.028,0-11.361,2.818-16.001,8.452C254.884,264.542,252.564,272.732,252.564,283.478z"/>
		<path fill="#A6D067" d="M329.148,324.758v-83.503h12.737v12.659c3.249-5.923,6.251-9.829,9.003-11.716
			c2.752-1.888,5.779-2.831,9.082-2.831c4.77,0,9.618,1.521,14.546,4.561l-4.875,13.131c-3.46-2.044-6.919-3.066-10.379-3.066
			c-3.094,0-5.872,0.932-8.335,2.791c-2.465,1.861-4.22,4.443-5.268,7.745c-1.572,5.032-2.359,10.536-2.359,16.512v43.718H329.148z"
			/>
	</g>
	<g id="dates">
		<g>
			<path fill="#A6D067" d="M356.516,365.05h13.806v-11.53h-13.806V365.05z M374.926,365.05h13.807v-11.53h-13.807V365.05z
				 M393.331,365.05h13.811v-11.53h-13.811V365.05z M411.741,353.52v11.53h13.805v-11.53H411.741z M355.258,382.314h14.059V370.79
				h-14.059V382.314z M374.005,382.314h14.052V370.79h-14.052V382.314z M392.747,382.314h14.058V370.79h-14.058V382.314z
				 M411.494,382.314h14.052V370.79h-14.052V382.314z M317.769,382.314h14.059V370.79h-14.059V382.314z M336.517,382.314h14.053
				V370.79h-14.053V382.314z M299.027,382.314h14.052V370.79h-14.052V382.314z M355.258,399.483h14.059v-11.53h-14.059V399.483z
				 M374.005,399.483h14.052v-11.53h-14.052V399.483z M392.747,399.483h14.058v-11.53h-14.058V399.483z M411.494,399.483h14.052
				v-11.53h-14.052V399.483z M317.769,399.483h14.059v-11.53h-14.059V399.483z M336.517,399.483h14.053v-11.53h-14.053V399.483z
				 M299.027,399.483h14.052v-11.53h-14.052V399.483z M299.027,416.838h13.625v-11.53h-13.625V416.838z M317.201,416.838h13.637
				v-11.53h-13.637V416.838z M335.376,416.838h13.637v-11.53h-13.637V416.838z M353.551,416.838h13.636v-11.53h-13.636V416.838z
				 M371.73,416.838h13.631v-11.53H371.73V416.838z"/>
		</g>
	</g>
</g>
<g id="Layer_2">
</g>
</svg>
