<?xml version="1.0" encoding="utf-8"?>
<!-- Generator: Adobe Illustrator 16.0.0, SVG Export Plug-In . SVG Version: 6.00 Build 0)  -->
<!DOCTYPE svg PUBLIC "-//W3C//DTD SVG 1.1//EN" "http://www.w3.org/Graphics/SVG/1.1/DTD/svg11.dtd">
<svg version="1.1" id="Layer_1" xmlns="http://www.w3.org/2000/svg" xmlns:xlink="http://www.w3.org/1999/xlink" x="0px" y="0px"
	 width="500px" height="500px" viewBox="0 0 500 500" enable-background="new 0 0 500 500" xml:space="preserve">
<g id="Layer_1_1_">
	<path id="border_15_" fill="#67CADA" d="M460.059,152.231v264.551c0,19.056-15.456,40.258-34.513,40.258H74.731
		c-19.056,0-34.509-21.202-34.509-40.258V152.231h23.007v265.325c0,12.268,4.254,16.479,16.604,16.479h340.612
		c12.351,0,16.606-4.212,16.606-16.479v-266.1L460.059,152.231z"/>
	<g id="top_1_">
		<g>
			<path fill="#67CADA" d="M429.713,42.96H70.562c-13.58,0-30.339,22.499-30.339,35.978v90.546h419.835V78.938
				C460.059,65.459,443.294,42.96,429.713,42.96z M143.745,140.724c-15.88,0-28.755-12.867-28.755-28.75
				c0-15.883,12.875-28.756,28.755-28.756s28.753,12.873,28.753,28.756C172.498,127.857,159.625,140.724,143.745,140.724z
				 M356.538,140.724c-15.883,0-28.761-12.867-28.761-28.75c0-15.883,12.878-28.756,28.761-28.756
				c15.872,0,28.75,12.873,28.75,28.756C385.288,127.857,372.41,140.724,356.538,140.724z"/>
		</g>
	</g>
	<g enable-background="new    ">
		<path fill="#A6D067" d="M97.491,324.758l44.268-115.27h16.434l47.177,115.27h-17.377l-13.445-34.911h-48.199l-12.659,34.911
			H97.491z M130.75,277.424h39.078l-12.03-31.924c-3.67-9.696-6.396-17.664-8.178-23.902c-1.468,7.391-3.538,14.73-6.211,22.016
			L130.75,277.424z"/>
		<path fill="#A6D067" d="M270.473,324.758v-12.266c-6.5,9.435-15.332,14.152-26.498,14.152c-4.928,0-9.527-0.943-13.799-2.83
			c-4.273-1.888-7.444-4.259-9.514-7.116c-2.072-2.856-3.526-6.355-4.364-10.497c-0.577-2.777-0.865-7.181-0.865-13.209v-51.737
			h14.153v46.312c0,7.392,0.287,12.372,0.865,14.939c0.891,3.723,2.778,6.645,5.661,8.768c2.882,2.123,6.448,3.184,10.693,3.184
			c4.246,0,8.229-1.087,11.952-3.263c3.721-2.175,6.355-5.137,7.902-8.885c1.545-3.747,2.318-9.187,2.318-16.315v-44.739h14.154
			v83.503H270.473z"/>
		<path fill="#A6D067" d="M302.711,331.677l13.76,2.045c0.576,4.246,2.174,7.338,4.796,9.278c3.511,2.62,8.308,3.931,14.39,3.931
			c6.551,0,11.609-1.311,15.175-3.931c3.564-2.622,5.976-6.291,7.233-11.009c0.733-2.883,1.074-8.937,1.022-18.163
			c-6.186,7.287-13.892,10.93-23.116,10.93c-11.48,0-20.365-4.141-26.655-12.423s-9.436-18.215-9.436-29.801
			c0-7.967,1.44-15.318,4.325-22.055c2.882-6.735,7.063-11.938,12.541-15.608c5.477-3.668,11.912-5.504,19.303-5.504
			c9.854,0,17.979,3.984,24.375,11.952v-10.064h13.052v72.181c0,12.999-1.324,22.212-3.971,27.638
			c-2.647,5.426-6.84,9.711-12.58,12.855c-5.74,3.146-12.804,4.718-21.19,4.718c-9.96,0-18.006-2.241-24.139-6.723
			S302.5,340.692,302.711,331.677z M314.426,281.513c0,10.956,2.175,18.949,6.526,23.981c4.351,5.032,9.802,7.548,16.354,7.548
			c6.5,0,11.952-2.502,16.355-7.509c4.402-5.005,6.604-12.855,6.604-23.549c0-10.222-2.269-17.928-6.802-23.117
			c-4.534-5.189-9.999-7.784-16.394-7.784c-6.29,0-11.638,2.556-16.04,7.666C316.628,263.86,314.426,271.448,314.426,281.513z"/>
	</g>
	<g id="dates">
		<g>
			<path fill="#A6D067" d="M356.516,365.05h13.806v-11.53h-13.806V365.05z M374.926,365.05h13.807v-11.53h-13.807V365.05z
				 M393.331,365.05h13.811v-11.53h-13.811V365.05z M411.741,353.52v11.53h13.805v-11.53H411.741z M355.258,382.314h14.059V370.79
				h-14.059V382.314z M374.005,382.314h14.052V370.79h-14.052V382.314z M392.747,382.314h14.058V370.79h-14.058V382.314z
				 M411.494,382.314h14.052V370.79h-14.052V382.314z M317.769,382.314h14.059V370.79h-14.059V382.314z M336.517,382.314h14.053
				V370.79h-14.053V382.314z M299.027,382.314h14.052V370.79h-14.052V382.314z M355.258,399.483h14.059v-11.53h-14.059V399.483z
				 M374.005,399.483h14.052v-11.53h-14.052V399.483z M392.747,399.483h14.058v-11.53h-14.058V399.483z M411.494,399.483h14.052
				v-11.53h-14.052V399.483z M317.769,399.483h14.059v-11.53h-14.059V399.483z M336.517,399.483h14.053v-11.53h-14.053V399.483z
				 M299.027,399.483h14.052v-11.53h-14.052V399.483z M299.027,416.838h13.625v-11.53h-13.625V416.838z M317.201,416.838h13.637
				v-11.53h-13.637V416.838z M335.376,416.838h13.637v-11.53h-13.637V416.838z M353.551,416.838h13.636v-11.53h-13.636V416.838z
				 M371.73,416.838h13.631v-11.53H371.73V416.838z"/>
		</g>
	</g>
</g>
<g id="Layer_2">
</g>
</svg>
