<?xml version="1.0" encoding="utf-8"?>
<!-- Generator: Adobe Illustrator 16.0.0, SVG Export Plug-In . SVG Version: 6.00 Build 0)  -->
<!DOCTYPE svg PUBLIC "-//W3C//DTD SVG 1.1//EN" "http://www.w3.org/Graphics/SVG/1.1/DTD/svg11.dtd">
<svg version="1.1" id="Layer_1" xmlns="http://www.w3.org/2000/svg" xmlns:xlink="http://www.w3.org/1999/xlink" x="0px" y="0px"
	 width="500px" height="500px" viewBox="0 0 500 500" enable-background="new 0 0 500 500" xml:space="preserve">
<g id="Layer_1_1_">
	<path id="border_15_" fill="#67CADA" d="M460.059,152.231v264.551c0,19.056-15.456,40.258-34.513,40.258H74.731
		c-19.056,0-34.509-21.202-34.509-40.258V152.231h23.007v265.325c0,12.268,4.254,16.479,16.604,16.479h340.612
		c12.351,0,16.606-4.212,16.606-16.479v-266.1L460.059,152.231z"/>
	<g id="top_1_">
		<g>
			<path fill="#67CADA" d="M429.713,42.96H70.562c-13.58,0-30.339,22.499-30.339,35.978v90.546h419.835V78.938
				C460.059,65.459,443.294,42.96,429.713,42.96z M143.745,140.724c-15.88,0-28.755-12.867-28.755-28.75
				c0-15.883,12.875-28.756,28.755-28.756s28.753,12.873,28.753,28.756C172.498,127.857,159.625,140.724,143.745,140.724z
				 M356.538,140.724c-15.883,0-28.761-12.867-28.761-28.75c0-15.883,12.878-28.756,28.761-28.756
				c15.872,0,28.75,12.873,28.75,28.756C385.288,127.857,372.41,140.724,356.538,140.724z"/>
		</g>
	</g>
	<g enable-background="new    ">
		<path fill="#A6D067" d="M118.936,318.758v-115.27H196.7v13.604h-62.51v35.697h54.096v13.603H134.19v52.366H118.936z"/>
		<path fill="#A6D067" d="M271.869,291.867l14.624,1.809c-2.308,8.544-6.579,15.175-12.816,19.893
			c-6.239,4.718-14.206,7.076-23.903,7.076c-12.214,0-21.898-3.761-29.053-11.283c-7.155-7.521-10.733-18.07-10.733-31.647
			c0-14.048,3.617-24.951,10.851-32.709c7.233-7.758,16.616-11.638,28.149-11.638c11.165,0,20.286,3.802,27.362,11.401
			c7.077,7.602,10.615,18.295,10.615,32.08c0,0.84-0.027,2.098-0.078,3.774h-62.274c0.523,9.174,3.118,16.197,7.784,21.072
			c4.665,4.875,10.483,7.313,17.456,7.313c5.189,0,9.618-1.362,13.288-4.089C266.809,302.194,269.719,297.843,271.869,291.867z
			 M225.399,268.986h46.626c-0.629-7.024-2.411-12.292-5.346-15.805c-4.51-5.451-10.354-8.177-17.535-8.177
			c-6.5,0-11.965,2.176-16.394,6.525C228.321,255.882,225.871,261.7,225.399,268.986z"/>
		<path fill="#A6D067" d="M317.315,318.758h-13.131v-115.27h14.153v41.123c5.976-7.495,13.603-11.244,22.881-11.244
			c5.137,0,9.998,1.036,14.586,3.106c4.586,2.071,8.359,4.98,11.322,8.728c2.961,3.748,5.28,8.27,6.958,13.563
			c1.677,5.295,2.517,10.956,2.517,16.983c0,14.311-3.538,25.371-10.615,33.182c-7.076,7.811-15.568,11.715-25.476,11.715
			c-9.855,0-17.587-4.114-23.195-12.345V318.758z M317.158,276.377c0,10.013,1.363,17.247,4.089,21.701
			c4.454,7.287,10.483,10.93,18.085,10.93c6.184,0,11.531-2.686,16.039-8.06c4.508-5.372,6.763-13.379,6.763-24.021
			c0-10.902-2.162-18.949-6.487-24.139c-4.324-5.189-9.553-7.784-15.686-7.784c-6.186,0-11.533,2.687-16.041,8.059
			C319.412,258.438,317.158,266.208,317.158,276.377z"/>
	</g>
	<g id="dates">
		<g>
			<path fill="#A6D067" d="M356.516,365.05h13.806v-11.53h-13.806V365.05z M374.926,365.05h13.807v-11.53h-13.807V365.05z
				 M393.331,365.05h13.811v-11.53h-13.811V365.05z M411.741,353.52v11.53h13.805v-11.53H411.741z M355.258,382.314h14.059V370.79
				h-14.059V382.314z M374.005,382.314h14.052V370.79h-14.052V382.314z M392.747,382.314h14.058V370.79h-14.058V382.314z
				 M411.494,382.314h14.052V370.79h-14.052V382.314z M317.769,382.314h14.059V370.79h-14.059V382.314z M336.517,382.314h14.053
				V370.79h-14.053V382.314z M299.027,382.314h14.052V370.79h-14.052V382.314z M355.258,399.483h14.059v-11.53h-14.059V399.483z
				 M374.005,399.483h14.052v-11.53h-14.052V399.483z M392.747,399.483h14.058v-11.53h-14.058V399.483z M411.494,399.483h14.052
				v-11.53h-14.052V399.483z M317.769,399.483h14.059v-11.53h-14.059V399.483z M336.517,399.483h14.053v-11.53h-14.053V399.483z
				 M299.027,399.483h14.052v-11.53h-14.052V399.483z M299.027,416.838h13.625v-11.53h-13.625V416.838z M317.201,416.838h13.637
				v-11.53h-13.637V416.838z M335.376,416.838h13.637v-11.53h-13.637V416.838z M353.551,416.838h13.636v-11.53h-13.636V416.838z
				 M371.73,416.838h13.631v-11.53H371.73V416.838z"/>
		</g>
	</g>
</g>
<g id="Layer_2">
</g>
</svg>
