<?xml version="1.0" encoding="utf-8"?>
<!-- Generator: Adobe Illustrator 16.0.0, SVG Export Plug-In . SVG Version: 6.00 Build 0)  -->
<!DOCTYPE svg PUBLIC "-//W3C//DTD SVG 1.1//EN" "http://www.w3.org/Graphics/SVG/1.1/DTD/svg11.dtd">
<svg version="1.1" id="Layer_1" xmlns="http://www.w3.org/2000/svg" xmlns:xlink="http://www.w3.org/1999/xlink" x="0px" y="0px"
	 width="500px" height="500px" viewBox="0 0 500 500" enable-background="new 0 0 500 500" xml:space="preserve">
<g id="Layer_1_1_">
	<path id="border_15_" fill="#67CADA" d="M460.059,152.231v264.551c0,19.056-15.456,40.258-34.513,40.258H74.731
		c-19.056,0-34.509-21.202-34.509-40.258V152.231h23.007v265.325c0,12.268,4.254,16.479,16.604,16.479h340.612
		c12.351,0,16.606-4.212,16.606-16.479v-266.1L460.059,152.231z"/>
	<g id="top_1_">
		<g>
			<path fill="#67CADA" d="M429.713,42.96H70.562c-13.58,0-30.339,22.499-30.339,35.978v90.546h419.835V78.938
				C460.059,65.459,443.294,42.96,429.713,42.96z M143.745,140.724c-15.88,0-28.755-12.867-28.755-28.75
				c0-15.883,12.875-28.756,28.755-28.756s28.753,12.873,28.753,28.756C172.498,127.857,159.625,140.724,143.745,140.724z
				 M356.538,140.724c-15.883,0-28.761-12.867-28.761-28.75c0-15.883,12.878-28.756,28.761-28.756
				c15.872,0,28.75,12.873,28.75,28.756C385.288,127.857,372.41,140.724,356.538,140.724z"/>
		</g>
	</g>
	<g enable-background="new    ">
		<path fill="#A6D067" d="M102.366,292.049l13.76-1.888c0.366,8.807,2.018,14.835,4.954,18.085
			c2.935,3.251,6.998,4.875,12.188,4.875c3.826,0,7.128-0.878,9.907-2.635c2.778-1.755,4.69-4.14,5.74-7.154
			c1.048-3.014,1.573-7.824,1.573-14.429v-79.415h15.254v78.55c0,9.646-1.167,17.115-3.499,22.409
			c-2.333,5.295-6.029,9.331-11.087,12.109c-5.059,2.777-10.996,4.167-17.809,4.167c-10.117,0-17.862-2.909-23.235-8.728
			C104.737,312.178,102.156,303.528,102.366,292.049z"/>
		<path fill="#A6D067" d="M243.347,314.457c-5.243,4.456-10.288,7.602-15.136,9.436c-4.849,1.835-10.052,2.752-15.608,2.752
			c-9.173,0-16.224-2.24-21.151-6.723c-4.928-4.481-7.391-10.208-7.391-17.18c0-4.089,0.93-7.824,2.792-11.205
			c1.86-3.381,4.297-6.094,7.313-8.138c3.014-2.045,6.408-3.59,10.182-4.64c2.778-0.733,6.971-1.44,12.581-2.122
			c11.427-1.363,19.84-2.988,25.24-4.875c0.052-1.939,0.079-3.171,0.079-3.696c0-5.766-1.336-9.828-4.01-12.187
			c-3.617-3.197-8.991-4.797-16.119-4.797c-6.658,0-11.572,1.167-14.743,3.499c-3.172,2.333-5.518,6.461-7.037,12.384l-13.839-1.887
			c1.258-5.923,3.328-10.706,6.212-14.35c2.882-3.643,7.049-6.448,12.502-8.413c5.451-1.966,11.767-2.949,18.949-2.949
			c7.128,0,12.921,0.84,17.377,2.517c4.455,1.678,7.731,3.787,9.829,6.329c2.096,2.543,3.563,5.754,4.402,9.632
			c0.473,2.412,0.708,6.763,0.708,13.053v18.871c0,13.157,0.301,21.479,0.904,24.964c0.602,3.487,1.795,6.829,3.577,10.025h-14.782
			C244.709,321.823,243.766,318.389,243.347,314.457z M242.167,282.849c-5.138,2.098-12.843,3.88-23.117,5.347
			c-5.818,0.84-9.934,1.783-12.345,2.831c-2.412,1.049-4.273,2.582-5.583,4.6c-1.311,2.019-1.966,4.26-1.966,6.723
			c0,3.774,1.428,6.919,4.285,9.436c2.856,2.516,7.038,3.774,12.542,3.774c5.451,0,10.3-1.192,14.546-3.578
			c4.246-2.385,7.364-5.647,9.357-9.789c1.52-3.196,2.28-7.914,2.28-14.153V282.849z"/>
		<path fill="#A6D067" d="M278.414,324.758v-83.503h12.738v11.872c6.133-9.172,14.991-13.76,26.576-13.76
			c5.033,0,9.658,0.904,13.878,2.713s7.378,4.181,9.476,7.116c2.096,2.936,3.563,6.422,4.402,10.457
			c0.523,2.622,0.787,7.208,0.787,13.76v51.345h-14.154v-50.794c0-5.766-0.55-10.077-1.65-12.935
			c-1.102-2.856-3.055-5.137-5.857-6.841c-2.806-1.702-6.094-2.555-9.869-2.555c-6.027,0-11.23,1.914-15.607,5.739
			c-4.377,3.827-6.564,11.087-6.564,21.78v45.604H278.414z"/>
	</g>
	<g id="dates">
		<g>
			<path fill="#A6D067" d="M356.516,365.05h13.806v-11.53h-13.806V365.05z M374.926,365.05h13.807v-11.53h-13.807V365.05z
				 M393.331,365.05h13.811v-11.53h-13.811V365.05z M411.741,353.52v11.53h13.805v-11.53H411.741z M355.258,382.314h14.059V370.79
				h-14.059V382.314z M374.005,382.314h14.052V370.79h-14.052V382.314z M392.747,382.314h14.058V370.79h-14.058V382.314z
				 M411.494,382.314h14.052V370.79h-14.052V382.314z M317.769,382.314h14.059V370.79h-14.059V382.314z M336.517,382.314h14.053
				V370.79h-14.053V382.314z M299.027,382.314h14.052V370.79h-14.052V382.314z M355.258,399.483h14.059v-11.53h-14.059V399.483z
				 M374.005,399.483h14.052v-11.53h-14.052V399.483z M392.747,399.483h14.058v-11.53h-14.058V399.483z M411.494,399.483h14.052
				v-11.53h-14.052V399.483z M317.769,399.483h14.059v-11.53h-14.059V399.483z M336.517,399.483h14.053v-11.53h-14.053V399.483z
				 M299.027,399.483h14.052v-11.53h-14.052V399.483z M299.027,416.838h13.625v-11.53h-13.625V416.838z M317.201,416.838h13.637
				v-11.53h-13.637V416.838z M335.376,416.838h13.637v-11.53h-13.637V416.838z M353.551,416.838h13.636v-11.53h-13.636V416.838z
				 M371.73,416.838h13.631v-11.53H371.73V416.838z"/>
		</g>
	</g>
</g>
<g id="Layer_2">
</g>
</svg>
