<?xml version="1.0" encoding="utf-8"?>
<!-- Generator: Adobe Illustrator 16.0.0, SVG Export Plug-In . SVG Version: 6.00 Build 0)  -->
<!DOCTYPE svg PUBLIC "-//W3C//DTD SVG 1.1//EN" "http://www.w3.org/Graphics/SVG/1.1/DTD/svg11.dtd">
<svg version="1.1" id="Layer_1" xmlns="http://www.w3.org/2000/svg" xmlns:xlink="http://www.w3.org/1999/xlink" x="0px" y="0px"
	 width="500px" height="500px" viewBox="0 0 500 500" enable-background="new 0 0 500 500" xml:space="preserve">
<g id="Layer_1_1_">
	<path id="border_15_" fill="#67CADA" d="M460.059,152.231v264.551c0,19.056-15.456,40.258-34.513,40.258H74.731
		c-19.056,0-34.509-21.202-34.509-40.258V152.231h23.007v265.325c0,12.268,4.254,16.479,16.604,16.479h340.612
		c12.351,0,16.606-4.212,16.606-16.479v-266.1L460.059,152.231z"/>
	<g id="top_1_">
		<g>
			<path fill="#67CADA" d="M429.713,42.96H70.562c-13.58,0-30.339,22.499-30.339,35.978v90.546h419.835V78.938
				C460.059,65.459,443.294,42.96,429.713,42.96z M143.745,140.724c-15.88,0-28.755-12.867-28.755-28.75
				c0-15.883,12.875-28.756,28.755-28.756s28.753,12.873,28.753,28.756C172.498,127.857,159.625,140.724,143.745,140.724z
				 M356.538,140.724c-15.883,0-28.761-12.867-28.761-28.75c0-15.883,12.878-28.756,28.761-28.756
				c15.872,0,28.75,12.873,28.75,28.756C385.288,127.857,372.41,140.724,356.538,140.724z"/>
		</g>
	</g>
	<g enable-background="new    ">
		<path fill="#A6D067" d="M112.511,268.617c0-19.133,5.137-34.111,15.411-44.937c10.273-10.823,23.536-16.236,39.786-16.236
			c10.641,0,20.233,2.543,28.778,7.627c8.543,5.085,15.057,12.175,19.539,21.269c4.482,9.096,6.723,19.409,6.723,30.94
			c0,11.69-2.359,22.147-7.077,31.373c-4.717,9.227-11.401,16.211-20.05,20.954c-8.649,4.745-17.98,7.116-27.992,7.116
			c-10.851,0-20.549-2.621-29.093-7.863c-8.544-5.241-15.018-12.396-19.421-21.465C114.712,288.327,112.511,278.734,112.511,268.617
			z M128.236,268.854c0,13.891,3.735,24.834,11.205,32.827c7.47,7.994,16.839,11.99,28.11,11.99
			c11.479,0,20.927-4.035,28.345-12.108c7.417-8.071,11.126-19.525,11.126-34.36c0-9.383-1.586-17.573-4.757-24.571
			c-3.172-6.998-7.812-12.424-13.917-16.276c-6.107-3.853-12.961-5.779-20.561-5.779c-10.799,0-20.09,3.709-27.874,11.126
			C132.128,239.119,128.236,251.503,128.236,268.854z"/>
		<path fill="#A6D067" d="M295.086,294.172l13.917,1.808c-1.521,9.593-5.413,17.102-11.677,22.527s-13.956,8.138-23.077,8.138
			c-11.428,0-20.614-3.734-27.559-11.204c-6.946-7.47-10.418-18.176-10.418-32.12c0-9.015,1.494-16.904,4.482-23.667
			c2.988-6.762,7.535-11.833,13.642-15.214c6.106-3.382,12.75-5.072,19.933-5.072c9.068,0,16.484,2.294,22.252,6.88
			c5.766,4.588,9.461,11.101,11.086,19.539l-13.76,2.123c-1.311-5.608-3.631-9.828-6.959-12.659
			c-3.329-2.83-7.352-4.245-12.068-4.245c-7.13,0-12.923,2.555-17.377,7.666c-4.457,5.11-6.684,13.197-6.684,24.257
			c0,11.218,2.148,19.369,6.447,24.453c4.297,5.085,9.907,7.627,16.826,7.627c5.556,0,10.195-1.703,13.918-5.11
			C291.73,306.49,294.09,301.248,295.086,294.172z"/>
		<path fill="#A6D067" d="M352.013,312.099l2.044,12.502c-3.984,0.838-7.548,1.258-10.693,1.258c-5.137,0-9.121-0.813-11.951-2.438
			s-4.823-3.761-5.976-6.408c-1.153-2.646-1.729-8.217-1.729-16.708v-48.042h-10.379v-11.008h10.379v-20.68l14.074-8.492v29.172
			h14.231v11.008h-14.231v48.828c0,4.037,0.248,6.632,0.746,7.784c0.498,1.153,1.311,2.071,2.438,2.752
			c1.127,0.682,2.739,1.022,4.836,1.022C347.373,312.649,349.443,312.466,352.013,312.099z"/>
	</g>
	<g id="dates">
		<g>
			<path fill="#A6D067" d="M356.516,365.05h13.806v-11.53h-13.806V365.05z M374.926,365.05h13.807v-11.53h-13.807V365.05z
				 M393.331,365.05h13.811v-11.53h-13.811V365.05z M411.741,353.52v11.53h13.805v-11.53H411.741z M355.258,382.314h14.059V370.79
				h-14.059V382.314z M374.005,382.314h14.052V370.79h-14.052V382.314z M392.747,382.314h14.058V370.79h-14.058V382.314z
				 M411.494,382.314h14.052V370.79h-14.052V382.314z M317.769,382.314h14.059V370.79h-14.059V382.314z M336.517,382.314h14.053
				V370.79h-14.053V382.314z M299.027,382.314h14.052V370.79h-14.052V382.314z M355.258,399.483h14.059v-11.53h-14.059V399.483z
				 M374.005,399.483h14.052v-11.53h-14.052V399.483z M392.747,399.483h14.058v-11.53h-14.058V399.483z M411.494,399.483h14.052
				v-11.53h-14.052V399.483z M317.769,399.483h14.059v-11.53h-14.059V399.483z M336.517,399.483h14.053v-11.53h-14.053V399.483z
				 M299.027,399.483h14.052v-11.53h-14.052V399.483z M299.027,416.838h13.625v-11.53h-13.625V416.838z M317.201,416.838h13.637
				v-11.53h-13.637V416.838z M335.376,416.838h13.637v-11.53h-13.637V416.838z M353.551,416.838h13.636v-11.53h-13.636V416.838z
				 M371.73,416.838h13.631v-11.53H371.73V416.838z"/>
		</g>
	</g>
</g>
<g id="Layer_2">
</g>
</svg>
