<?xml version="1.0" encoding="utf-8"?>
<!-- Generator: Adobe Illustrator 13.0.0, SVG Export Plug-In . SVG Version: 6.00 Build 14948)  -->
<!DOCTYPE svg PUBLIC "-//W3C//DTD SVG 1.1//EN" "http://www.w3.org/Graphics/SVG/1.1/DTD/svg11.dtd">
<svg version="1.1" xmlns="http://www.w3.org/2000/svg" xmlns:xlink="http://www.w3.org/1999/xlink" x="0px" y="0px"
	 width="391.946px" height="455.118px" viewBox="0 0 391.946 455.118" enable-background="new 0 0 391.946 455.118"
	 xml:space="preserve">
<g id="Layer_1">
</g>
<g id="Layer_3">
	<path fill="none" stroke="#176087" stroke-width="10" d="M227.631,200.726c55.502,25.785,73.194,103.571,32.669,150.006
		c-17.835,20.439-48.679,35.471-75.802,35.474c-10.506,0-82.296-1.403-100.829-65.242l1.079-94.357"/>
</g>
<g id="Layer_9">
	<path fill="none" stroke="#176087" stroke-width="10" d="M280.006,80.485c18.029,72.606-42.313,141.354-118.094,127.832
		c-22.451-4.007-43.514-15.485-59.015-32.215"/>
	<path fill="none" stroke="#176087" stroke-width="10" d="M80.23,134.544C62.198,61.939,122.542-6.809,198.322,6.713
		c22.452,4.007,43.517,15.484,59.016,32.215"/>
</g>
<g id="support">
	<path fill="#176087" d="M79.632,211.026c0,0,5.659,11.187,10.087,15.578l-0.125,10.957h-9.84"/>
	<text transform="matrix(1 0 0 1 0 439.4785)"><tspan x="0" y="0" fill="#176087" font-family="'MoskLight300'" font-size="68">Base</tspan><tspan x="134.094" y="0" fill="#176087" font-family="'MoskBold700'" font-size="68">compass</tspan></text>
</g>
<g id="Layer_4" display="none">
	<circle display="inline" opacity="0.4" fill="none" stroke="#ED1C24" stroke-width="10" cx="153.667" cy="238.479" r="46.333"/>
	<circle display="inline" opacity="0.4" fill="none" stroke="#ED1C24" stroke-width="10" cx="153.667" cy="154.479" r="46.333"/>
</g>
<g id="Layer_10">
	<path fill="none" stroke="#176087" stroke-width="3" d="M229.264,103.779c0.843,37.74-42.576,62.613-74.939,43.264"/>
	<path fill="none" stroke="#176087" stroke-width="3" d="M130.989,107.354c-1.039-38.483,43.294-63.411,75.728-43.129"/>
</g>
<g id="Layer_11">
</g>
<g id="Layer_7" display="none">
	<line display="inline" fill="none" stroke="#FF00FF" stroke-width="3" x1="217.507" y1="118.871" x2="91.493" y2="189.586"/>
</g>
<g id="Layer_8">
	<polyline fill="#176087" points="207.683,113.917 320.104,27.781 190.428,79.005 	"/>
	<polyline fill="#176087" points="151.067,100.572 38.647,186.707 168.322,135.484 	"/>
</g>
<g id="Layer_6">
	<circle fill="#176087" stroke="#FFFFFF" stroke-width="3" cx="180.004" cy="106.908" r="25.521"/>
</g>
</svg>
