<?xml version="1.0" encoding="utf-8"?>
<!-- Generator: Adobe Illustrator 13.0.0, SVG Export Plug-In . SVG Version: 6.00 Build 14948)  -->
<!DOCTYPE svg PUBLIC "-//W3C//DTD SVG 1.1//EN" "http://www.w3.org/Graphics/SVG/1.1/DTD/svg11.dtd">
<svg version="1.1" xmlns="http://www.w3.org/2000/svg" xmlns:xlink="http://www.w3.org/1999/xlink" x="0px" y="0px"
	 width="452.694px" height="487.045px" viewBox="0 0 452.694 487.045" enable-background="new 0 0 452.694 487.045"
	 xml:space="preserve">
<g id="Layer_1">
	<path fill="#F71F5E" d="M362.53,354.213c0,6.627-5.373,12-12,12H82.495c-6.627,0-12-5.373-12-12V86.177c0-6.627,5.373-12,12-12
		H350.53c6.627,0,12,5.373,12,12V354.213z"/>
	<path fill="#FFFFFF" d="M277.575,196.398v0.146v2.25v77.444c0,2.771-2.247,5.019-5.019,5.019H160.469
		c-2.771,0-5.018-2.247-5.018-5.019V164.151c0-2.771,2.247-5.018,5.018-5.018h112.088c2.771,0,5.019,2.247,5.019,5.018V196.398z"/>
	<path fill="#FFFFFF" d="M394.504,239.727c0,0.943-2.247,1.709-5.019,1.709H277.397c-2.771,0-5.018-0.766-5.018-1.709v-38.176
		c0-0.944,2.246-1.709,5.018-1.709h112.088c2.771,0,5.019,0.765,5.019,1.709V239.727z"/>
	<path fill="#1F4361" d="M378.46,67.176c0,7.606-5.588,13.771-12.479,13.771H68.816c-6.893,0-12.48-6.164-12.48-13.771V32.769
		c0-7.605,5.587-13.771,12.48-13.771H365.98c6.892,0,12.479,6.165,12.479,13.771V67.176z"/>
</g>
<g id="Layer_7">
	<path fill="#FFFAFC" d="M277.625,197.17"/>
	<path fill="#FFFFFF" d="M277.516,190.451c0,0,0.548,8.198,6.923,9.448l-0.173,0.802h-7.188v-10.188L277.516,190.451z"/>
	<path fill="#FFFFFF" d="M363,190.451c0,0-0.548,8.198-6.923,9.448l0.173,0.802h7.188v-10.188L363,190.451z"/>
	<path fill="#FFFFFF" d="M277.35,250.868c0,0,0.548-8.198,6.923-9.448l-0.173-0.802h-7.188v10.188L277.35,250.868z"/>
	<path fill="#FFFFFF" d="M362.834,250.868c0,0-0.548-8.198-6.923-9.448l0.173-0.802h7.188v10.188L362.834,250.868z"/>
</g>
<g id="Layer_5">
	<path fill="#1F4361" stroke="#FFFFFF" stroke-width="5" d="M215.895,75.907l15.794,40.6l4.6-15.632l14.272,8.267l-13.863-38.243
		C236.697,70.898,229.376,76.255,215.895,75.907z"/>
</g>
<g id="Layer_6">
	<path fill="#1F4361" stroke="#FFFFFF" stroke-width="5" d="M217.561,76.907l-15.794,40.6l-4.6-15.632l-14.272,8.267l13.863-38.243
		C196.758,71.898,204.079,77.255,217.561,76.907z"/>
</g>
<g id="Layer_4">
</g>
<g id="Layer_2">
	<path fill="#1F4361" stroke="#FFFFFF" stroke-width="5" d="M228.213,28.938l30.165-24.075c0,0,12.278-6.437,22.413,1.937
		c5.542,4.579,6.641,8.579,6.641,8.579v69.457c0,0-1.099,12.876-12.099,16.209c0,0-7.666,4.333-15.85-1.266
		c-1.738-1.189-31.546-26.289-31.546-26.289l0.275-43.445V28.938z"/>
	<path fill="#1F4361" stroke="#FFFFFF" stroke-width="5" d="M204.156,28.938L173.991,4.863c0,0-12.278-6.437-22.413,1.937
		c-5.542,4.579-6.641,8.579-6.641,8.579v69.457c0,0,1.099,12.876,12.099,16.209c0,0,7.666,4.333,15.85-1.266
		c1.738-1.189,31.546-26.289,31.546-26.289l-0.275-43.445V28.938z"/>
</g>
<g id="Layer_3">
	<circle fill="#1F4361" stroke="#FFFFFF" stroke-width="5" cx="216.59" cy="50.809" r="23.998"/>
	<text transform="matrix(1 0 0 1 0 470.0449)"><tspan x="0" y="0" fill="#1F4361" font-family="'GothamMedium'" font-size="100">Close</tspan><tspan x="278.497" y="0" fill="#F71F5E" font-family="'GothamMedium'" font-size="100">gift</tspan></text>
</g>
</svg>
