<?xml version="1.0" encoding="utf-8"?>
<!-- Generator: Adobe Illustrator 16.0.0, SVG Export Plug-In . SVG Version: 6.00 Build 0)  -->
<!DOCTYPE svg PUBLIC "-//W3C//DTD SVG 1.1//EN" "http://www.w3.org/Graphics/SVG/1.1/DTD/svg11.dtd">
<svg version="1.1" id="Isolation_Mode" xmlns="http://www.w3.org/2000/svg" xmlns:xlink="http://www.w3.org/1999/xlink" x="0px"
	 y="0px" width="504.666px" height="290.904px" viewBox="0 0 504.666 290.904" enable-background="new 0 0 504.666 290.904"
	 xml:space="preserve">
<g>
	<g>
		<path fill="#B59737" d="M269.511,113.858c-2.345,0.087-4.385,0.479-6.34,0.696c-1.953,0.216-3.083,0.303-3.689,0.434
			c-0.608,0.131-0.479,0.436-0.479,1.13c0,0.693-0.26,0.867,0.348,0.434s1-0.434,1-0.434l1.389,2.997c0,0,1.347-0.696,1.736-1.348
			c0.392-0.649,2.127-0.869,4.473-0.173C270.293,118.288,272.071,114.25,269.511,113.858z"/>
		<path fill="#B59737" d="M259.142,123.003c0.58-0.216,3.703-1.575,3.703-1.575l-2.543-5.479l-7.146,2.38l-2.039,3.548l3.765,4.271
			C254.88,126.149,255.593,123.872,259.142,123.003z"/>
		<path fill="#B59737" d="M282.002,96.419c2.99,1.082,4.966,2.047,2.455,10.775c-2.511,8.729-8.224,6.34-5.426,12.838
			c2.796,6.499-0.64,12.158-2.593,16.36c-1.955,4.202-11.769,8.099-12.313,3.878c-0.544-4.219,1.206-15.983,3.326-21.518
			c2.119-5.533,2.773-7.294,2.456-8.089c-0.318-0.795-1.696-0.637-1.537-2.915s1.748-3.126,3.815-5.671
			c2.066-2.543,3.231-2.81,3.072-4.398C275.103,96.091,279.952,95.137,282.002,96.419z"/>
		<path fill="#B59737" d="M265.483,127.173c1.018,3.666-0.666,10.329-1.174,14.706c-0.51,4.378,0.203,6.007,2.442,9.875
			c2.24,3.869,3.073,6.578,4.327,9.002c1.253,2.423,2.256,5.516,1.838,7.354s-1.086,3.177-2.424,3.845
			c-1.336,0.668-2.102,0.064-2.196,0.69c-0.097,0.625-0.146,0.963,0.435,1.061c0.578,0.096,4.817,0.938,5.588,0.023
			c0.771-0.916,1.181-2.217,2.023-2.987c0.844-0.771,1.614-1.253,1.734-0.698c0.121,0.555,0.289,3.541,0.289,3.541l0.482,0.097
			c0,0-0.41-1.302,0.07-3.012s0.964-2.119,0.604-3.276c-0.361-1.155-0.65-1.444-1.013-1.806c-0.36-0.361-1.209-0.268-2.315-3.52
			c-1.107-3.253-2.284-8.303-3.668-10.794c-1.383-2.49-3.459-2.976-1.521-6.711s3.529-6.021,5.327-10.031
			C278.133,130.518,266.753,124.354,265.483,127.173z"/>
		<path fill="#B59737" d="M274.306,135.406c0.225,2.919-0.226,9.133-0.226,11.902c0,2.771,0.149,9.656-0.226,13.7
			c-0.373,4.042,0,7.411-1.722,8.533c-1.722,1.123-1.048,3.968-2.321,3.894c-1.271-0.075-4.939-0.002-4.939-1.049
			c0-1.048,2.098-0.674,2.845-2.021c0.749-1.348,2.994-4.117,1.946-13.624C268.615,147.233,271.086,128.968,274.306,135.406z"/>
		<path fill="#B59737" d="M231.774,102.407c0.707,1.646,0.656,4.001,0.724,4.886c0.068,0.884,1.528,1.938,2.072,2.482
			c0.545,0.543-0.234,0.852-0.644,1.055c-0.407,0.205,0.138,0.681-0.34,1.157c-0.477,0.476,0.478,0.545,0.136,1.155
			c-0.34,0.613-0.158,0.94,0.096,1.333c0.255,0.395,0.106,1.447-0.981,1.678c-1.087,0.232-1.818,0.012-2.073,0.821
			c-0.254,0.812-1.341,2.638-1.596,2.939c-0.254,0.301-6.432-0.927-6.016-2.916c0.417-1.99,0.717-2.592-0.416-3.68
			c-1.135-1.088-3.032-4.199-2.877-6.388c0.16-2.235,1.308-3.508,3.369-4.424C225.832,101.349,230.97,100.534,231.774,102.407z"/>
		<path fill="#B59737" d="M230.36,116.382c1.368,0.068,3.831,3.419,4.515,4.583c0.685,1.163,2.735,4.172,4.104,4.172
			c1.367,0,4.649-0.342,6.429-1.3c1.778-0.958,3.829-2.325,3.829-2.325s0.068,1.915,0.821,2.599c0.753,0.685,2.12,2.12,2.12,2.12
			s-4.787,3.078-8.001,3.694c-3.216,0.616-9.508,2.804-12.175,0.411C229.335,127.941,227.42,116.382,230.36,116.382z"/>
		<path fill="#B59737" d="M230.498,116.792c1.505,0.273,4.787,4.72,6.36,8.14c1.573,3.419,4.309,14.021,5.267,15.799
			c0.957,1.778,0.929,3.949,2.333,4.61c1.402,0.66,9.488,5.198,10.066,7.591c0.576,2.394-2.063,4.374-4.291,5.363
			c-2.228,0.991-4.126,2.56-6.438,4.127c-2.31,1.567-4.867,2.723-5.609,3.466c-0.743,0.742-1.013,1.713-0.592,2.723
			c0.42,1.011,1.346,2.945,2.861,2.945c1.514,0,2.86-0.589,3.281,0.337c0.421,0.926-1.262,1.347-2.778,1.347
			c-1.514,0-4.292,0-5.218-1.01c-0.925-1.011-1.346-1.432-1.346-1.432s-0.084,3.872-3.198,4.125
			c-3.113,0.252-7.237-1.348-9.257-2.609c-2.021-1.264-3.784-1.815-5.215-1.982c-1.43-0.169-2.843-2.396-3.937-2.396
			c-1.095,0-1.432,0.925-1.516,1.683s2.778,0.674,2.694,1.936c-0.084,1.263-1.936,1.347-3.788,1.178
			c-1.852-0.167-4.292-1.262-3.956-3.196c0.336-1.937,0.336-3.787,0.336-3.787s-1.767-0.674-1.598-2.524
			c0.167-1.852,0.083-2.44,1.346-2.523c1.262-0.085,2.608-0.508,3.956,0c1.346,0.504,2.722,0.599,3.815,0.347
			c0.167-0.038,2.512,1.188,2.896,1.348c1.43,0.589,5.217,2.518,6.901,3.442s3.114,1.348,3.114,1.348s-0.59-3.452-1.178-7.659
			c-0.59-4.209-0.842-5.303-2.272-6.313c-1.43-1.01-2.441,0.253-2.104-3.704c0.337-3.954,1.263-6.06,1.6-8.5
			c0.337-2.44,0.505-3.618-0.673-6.565c-1.179-2.943-2.778-4.712-2.357-8.415c0.421-3.702,1.094-5.723,1.684-7.153
			c0.59-1.432,0.674-3.03,1.094-3.535C223.203,114.832,226.654,115.841,230.498,116.792z"/>
		<path fill="#B59737" d="M223.434,115.087c-0.25,0.6,0.149,1.349,2.896,3.146c2.747,1.798,5.693,4.194,6.941,6.143
			c1.248,1.947,3.046,5.742,3.046,5.742s0.249-1.299-1.498-5.293c-1.464-3.346-2.646-5.568-3.52-6.996
			c-0.1,0.032-0.196,0.059-0.293,0.074c-2.124,0.366-6.125-1.801-7.594-2.923C223.42,115.017,223.426,115.05,223.434,115.087z"/>
		<path fill="#B59737" d="M232.522,123.379c0.289,0.341,0.36,0.917,0.607,1.304c0.248,0.385,0.747,0.693,1.066,1.272
			c-0.077-1.157-0.349-2.575-0.747-4.114c-0.849-1.756-1.345-3.146-1.928-4.097c-0.098,0.032-0.401-0.058-0.516-0.037
			c-0.113,0.02-0.27,0.23-0.413,0.234c-0.356,0.818-0.787,1.504-0.787,1.504s2.058,0.559,2.487,2.103
			C232.458,122.146,232.515,122.801,232.522,123.379z"/>
		<path fill="#B59737" d="M249.16,122.094c1.375-1.229,1.955-1.81,2.535-3.041c0.578-1.23,1.664-1.448,1.882-1.81
			c0.218-0.363,0.796,0.145,1.376,0.577c0.579,0.436,0.651,0.726-0.29,0.436c-0.941-0.289-1.376,0.146-1.665,0.942
			c-0.291,0.797,0.146,2.316,0.146,2.316s0.795-0.217,1.811-0.58c1.014-0.361,2.1-0.869,1.447,0.072
			c-0.651,0.941-2.752,1.883-1.158,1.883s4.779-0.651,4.779,0c0,0.652-2.316,1.086-3.041,1.883
			c-0.726,0.797,0.145,1.884-1.015,2.535c-1.159,0.652-2.245,0.869-3.114,1.738c-0.868,0.869-2.389,1.303-2.389,1.303l-1.521-2.605
			c0,0-0.87-0.508,0.651-1.738C251.115,124.774,246.916,123.906,249.16,122.094z"/>
		<path fill="#B59737" d="M251.645,125.677c0.179-0.086,0.293-0.144,0.293-0.144l-1.944-4.243l-0.742,0.428
			c0.042,0.513,0.206,1.846,0.808,2.393C250.508,124.52,251.178,125.198,251.645,125.677z"/>
		<path fill="#B59737" d="M251.888,131.291c0.549-0.206,1.853-1.234,1.853-1.234l-2.745-3.773l-1.715,1.509
			C249.28,127.792,249.691,131.635,251.888,131.291z"/>
		<path fill="#B59737" d="M239.239,132.449c1.882-0.869,3.404-1.085,5.648-2.969c2.246-1.883,3.331-4.055,4.562-3.258
			c1.231,0.797,2.824,3.766,3.042,4.852c0.216,1.086,0.361,1.303-2.245,2.172c-2.606,0.869-7.313,3.91-9.341,5.068
			C238.878,139.473,234.604,134.767,239.239,132.449z"/>
		<path fill="#B59737" d="M282.915,97.715c-2.402-0.489-3.864,1.806-3.848,5.996c0.02,4.542-0.713,5.492-0.922,6.614
			c-0.117-0.365,0.03-0.349-1.24-2.415c-1.273-2.066-2.6-3.127-1.696-4.135c0.899-1.007,1.907-1.59,2.81-2.967
			c0.899-1.379,1.112-2.438,0.104-1.483c-1.007,0.953-1.907,1.908-2.065,1.007c-0.16-0.902-0.425-1.484-1.22-2.068
			c-0.796-0.582-1.007-0.317-0.53,0.743c0.478,1.059-0.104,0.9-0.582,1.961c-0.479,1.061-1.644,1.165-1.061,3.392
			c0.582,2.227,1.43,7.632,2.755,9.593c1.326,1.961,1.797,2.469,2.024,2.946c0.339,0.71,1.336,0.34,2.503-0.771
			c1.165-1.113,3.741-5.979,4.218-10.537C284.644,101.032,285.517,98.244,282.915,97.715z"/>
		<path fill="#B59737" d="M265.526,89.152c-0.559,1.929,0.078,3.341,0.865,4.127c0.785,0.786,1.455,1.18,1.649,1.927
			c0.196,0.747,0.474,0.747,0.864,0.747c0.395,0,0.824,0.044,1.029,0.397c0.057,0.096,0.129,0.247,0.295,0.173
			c0.172-0.075,0.25,0.3,0.396,0.313c0.456,0.041,0.746,0.396,0.914,0.648c0.314,0.472,1.337,0.394,1.848-0.156
			c0.512-0.551,1.219-0.983,1.571-0.157c0.354,0.825,0.108,2.438,1.282,2.887c1.175,0.452,4.144-4.209,7.576-2.817
			c-2.455-2.021-6.004-2.907-6.465-5.996c-0.594-3.968-3.26-6.888-6.48-6.771C267.649,84.592,266.194,86.849,265.526,89.152z"/>
		<path fill="#B59737" d="M266.123,122.924c-0.876,4.216-2.095,8.782-2.774,14.361c-0.681,5.577,2.017,13.877,2.742,21.404
			c1.376,14.272-10.542,12.396-8.066,15.487c1.233,1.543,5.35-1.338,7.717,0.206c2.365,1.543,3.701,1.646,6.891,0.206
			c3.189-1.441,3.602-0.206,5.864,0.822c2.264,1.028,3.293,0.72,5.864-0.411c2.57-1.132,3.807-0.411,7.305,0.411
			s5.966,0.206,7.921-0.616c1.954-0.823,3.086,0.308,5.556,0.72c2.469,0.411,3.085-1.132,0.719-3.292
			c-2.364-2.161-16.651-7.405-21.601-13.915c-4.946-6.508-9.39-17.302-5.847-25.847C281.957,123.918,266.69,120.181,266.123,122.924
			z"/>
		<path fill="#B59737" d="M265.694,88.955c-1.399,1.188-2.379,2.167-0.84,3.776c1.539,1.607,1.398,2.028,0.629,2.309
			c-0.769,0.279-0.231,0.483,0.351,1.065c0.581,0.581,0.103,0.891-0.31,1.096c-0.409,0.206,0.138,0.409,0.822,0.033
			c0.684-0.376,0.854-0.82,0.377-1.266c-0.479-0.446-0.686-0.513-0.24-0.856c0.445-0.343,0.41-0.991-0.582-2.258
			c-0.992-1.266-0.103-2.361,0.378-2.771C266.758,89.672,266.963,88.201,265.694,88.955z"/>
		<path fill="#B59737" d="M272.606,87.495c4.094,3.775,8.487-0.584,3.715-4.575C271.836,79.17,268.429,83.643,272.606,87.495z"/>
		<path fill="#B59737" d="M274.097,84.967c1.826,0.192,5.161,1.223,5.032,3.452c-0.13,2.229,0.123,2.866,0.916,2.663
			s0.466,0.268,0.313,1.077c-0.151,0.809,0.416,0.792,0.873,0.73c0.453-0.063,0.117,0.417-0.66,0.492
			c-0.776,0.075-1.17-0.195-1.025-0.833c0.146-0.638,0.275-0.81-0.284-0.841s-1.198-0.755-0.993-2.661
			c0.203-1.905-2.304-2.088-2.931-2.158S272.625,85.06,274.097,84.967z"/>
		<path fill="#B59737" d="M274.983,83.883c1.754,0.546,3.89,1.938,3.104,4.021c-0.784,2.083-0.491,2.415,0.326,2.37
			c0.817-0.043,0.403,0.355,0.096,1.118c-0.307,0.765,0.255,0.859,0.714,0.887c0.459,0.028,0.034,0.432-0.742,0.354
			s-1.109-0.419-0.842-1.018c0.266-0.598,0.428-0.74-0.115-0.881s-1.156-1.47-0.738-3.022c0.416-1.554,0.693-0.819,0.091-1.009
			C276.274,86.511,273.521,83.687,274.983,83.883z"/>
		<path fill="#B59737" d="M273.556,83.659c1.353-0.882,3.92-0.216,4.641,1.684s1.326,3.529,2.08,3.208
			c0.752-0.322,0.5,0.195,0.474,1.017c-0.026,0.822,0.534,0.72,0.974,0.59c0.439-0.132,0.182,0.393-0.576,0.586
			c-0.758,0.192-1.186-0.016-1.141-0.667c0.047-0.651,0.149-0.842-0.408-0.788c-0.559,0.053-1.59-0.985-1.731-2.587
			c-0.142-1.604-2.593-1.103-3.226-1.075C274.013,85.654,272.114,83.977,273.556,83.659z"/>
		<path fill="#B59737" d="M259.056,115.858c-0.078,0.707-0.472,1.649-0.039,1.649c0.432,0,0.668-1.217,0.862-1.493
			C260.076,115.741,259.173,115.309,259.056,115.858z"/>
		<g>
			<g>
				
					<ellipse transform="matrix(-0.9745 -0.2242 0.2242 -0.9745 520.3378 227.4537)" fill="#B59737" cx="273.083" cy="84.185" rx="0.383" ry="0.552"/>
				
					<ellipse transform="matrix(-0.5158 0.8567 -0.8567 -0.5158 485.2704 -105.306)" fill="#B59737" cx="272.394" cy="84.479" rx="0.382" ry="0.552"/>
				
					<ellipse transform="matrix(0.6558 0.7549 -0.7549 0.6558 158.135 -176.3497)" fill="#B59737" cx="272.462" cy="85.244" rx="0.384" ry="0.552"/>
				
					<ellipse transform="matrix(0.9211 -0.3894 0.3894 0.9211 -11.6868 113.1349)" fill="#B59737" cx="273.203" cy="85.393" rx="0.381" ry="0.55"/>
				
					<ellipse transform="matrix(-0.0866 -0.9962 0.9962 -0.0866 212.8508 364.6477)" fill="#B59737" cx="273.583" cy="84.751" rx="0.383" ry="0.551"/>
			</g>
			<g>
				
					<ellipse transform="matrix(-0.9753 -0.221 0.221 -0.9753 520.5062 227.4294)" fill="#B59737" cx="272.974" cy="84.602" rx="0.128" ry="0.184"/>
				
					<ellipse transform="matrix(-0.5117 0.8592 -0.8592 -0.5117 485.0774 -106.3253)" fill="#B59737" cx="272.754" cy="84.685" rx="0.128" ry="0.185"/>
				
					<ellipse transform="matrix(0.6558 0.7549 -0.7549 0.6558 158.0134 -176.6847)" fill="#B59737" cx="272.769" cy="84.944" rx="0.128" ry="0.184"/>
				
					<ellipse transform="matrix(0.9229 -0.3852 0.3852 0.9229 -11.6733 111.7142)" fill="#B59737" cx="273.023" cy="84.996" rx="0.128" ry="0.184"/>
				
					<ellipse transform="matrix(-0.0878 -0.9961 0.9961 -0.0878 212.6602 364.353)" fill="#B59737" cx="273.159" cy="84.804" rx="0.128" ry="0.184"/>
			</g>
			<circle fill="#B59737" cx="272.937" cy="84.807" r="0.375"/>
		</g>
		<g>
			<g>
				
					<ellipse transform="matrix(-0.9019 0.4319 -0.4319 -0.9019 551.7096 43.1039)" fill="#B59737" cx="270.961" cy="84.191" rx="0.205" ry="0.296"/>
				
					<ellipse transform="matrix(0.1311 0.9914 -0.9914 0.1311 319.0992 -194.9724)" fill="#B59737" cx="270.773" cy="84.546" rx="0.205" ry="0.296"/>
				
					<ellipse transform="matrix(0.9829 0.1841 -0.1841 0.9829 20.2591 -48.4612)" fill="#B59737" cx="271.049" cy="84.846" rx="0.204" ry="0.296"/>
				
					<ellipse transform="matrix(0.4764 -0.8793 0.8793 0.4764 67.6834 282.9756)" fill="#B59737" cx="271.416" cy="84.664" rx="0.206" ry="0.297"/>
				
					<ellipse transform="matrix(-0.6878 -0.7259 0.7259 -0.6878 396.8357 339.1991)" fill="#B59737" cx="271.359" cy="84.264" rx="0.205" ry="0.296"/>
			</g>
			<g>
				
					<ellipse transform="matrix(-0.9027 0.4302 -0.4302 -0.9027 552.0447 44.0025)" fill="#B59737" cx="271.048" cy="84.41" rx="0.069" ry="0.099"/>
				
					<ellipse transform="matrix(0.1293 0.9916 -0.9916 0.1293 319.7643 -195.1378)" fill="#B59737" cx="271.004" cy="84.522" rx="0.068" ry="0.098"/>
				
					<ellipse transform="matrix(0.9838 0.1795 -0.1795 0.9838 19.5943 -47.2904)" fill="#B59737" cx="271.088" cy="84.618" rx="0.068" ry="0.099"/>
				
					<ellipse transform="matrix(0.4754 -0.8798 0.8798 0.4754 67.8844 282.9786)" fill="#B59737" cx="271.214" cy="84.57" rx="0.069" ry="0.098"/>
				
					<ellipse transform="matrix(-0.6891 -0.7246 0.7246 -0.6891 396.9051 339.1015)" fill="#B59737" cx="271.191" cy="84.413" rx="0.069" ry="0.099"/>
			</g>
			<circle fill="#B59737" cx="271.114" cy="84.508" r="0.201"/>
		</g>
		<g>
			<g>
				
					<ellipse transform="matrix(-0.903 0.4297 -0.4297 -0.903 559.0001 44.7444)" fill="#B59737" cx="274.448" cy="85.485" rx="0.247" ry="0.358"/>
				
					<ellipse transform="matrix(0.1298 0.9915 -0.9915 0.1298 323.7846 -197.1384)" fill="#B59737" cx="274.211" cy="85.906" rx="0.248" ry="0.359"/>
				
					<ellipse transform="matrix(0.9832 0.1827 -0.1827 0.9832 20.3848 -48.7164)" fill="#B59737" cx="274.552" cy="86.26" rx="0.246" ry="0.358"/>
				
					<ellipse transform="matrix(0.4754 -0.8798 0.8798 0.4754 68.5565 287.09)" fill="#B59737" cx="275.005" cy="86.06" rx="0.248" ry="0.357"/>
				
					<ellipse transform="matrix(-0.6891 -0.7247 0.7247 -0.6891 402.373 343.7406)" fill="#B59737" cx="274.921" cy="85.558" rx="0.247" ry="0.357"/>
			</g>
			<g>
				
					<ellipse transform="matrix(-0.9025 0.4306 -0.4306 -0.9025 559.3155 44.8373)" fill="#B59737" cx="274.583" cy="85.717" rx="0.083" ry="0.119"/>
				
					<ellipse transform="matrix(0.1333 0.9911 -0.9911 0.1333 323.0139 -197.6057)" fill="#B59737" cx="274.489" cy="85.882" rx="0.084" ry="0.12"/>
				
					<ellipse transform="matrix(0.9834 0.1815 -0.1815 0.9834 20.1603 -48.4035)" fill="#B59737" cx="274.61" cy="85.976" rx="0.083" ry="0.121"/>
				
					<ellipse transform="matrix(0.4751 -0.8799 0.8799 0.4751 68.6159 286.8329)" fill="#B59737" cx="274.744" cy="85.9" rx="0.083" ry="0.119"/>
				
					<ellipse transform="matrix(-0.6923 -0.7216 0.7216 -0.6923 403.0457 343.3517)" fill="#B59737" cx="274.729" cy="85.743" rx="0.083" ry="0.12"/>
			</g>
			<circle fill="#B59737" cx="274.63" cy="85.852" r="0.243"/>
		</g>
		<g>
			<g>
				
					<ellipse transform="matrix(-0.9037 0.4281 -0.4281 -0.9037 561.3051 47.2781)" fill="#B59737" cx="275.337" cy="86.748" rx="0.205" ry="0.295"/>
				
					<ellipse transform="matrix(0.1293 0.9916 -0.9916 0.1293 325.9431 -197.0284)" fill="#B59737" cx="275.17" cy="87.095" rx="0.204" ry="0.294"/>
				
					<ellipse transform="matrix(0.9834 0.1814 -0.1814 0.9834 20.4246 -48.5145)" fill="#B59737" cx="275.431" cy="87.4" rx="0.205" ry="0.296"/>
				
					<ellipse transform="matrix(0.4784 -0.8782 0.8782 0.4784 67.2866 287.7007)" fill="#B59737" cx="275.808" cy="87.214" rx="0.205" ry="0.297"/>
				
					<ellipse transform="matrix(-0.6891 -0.7247 0.7247 -0.6891 402.8452 346.4873)" fill="#B59737" cx="275.754" cy="86.822" rx="0.205" ry="0.295"/>
			</g>
			<g>
				
					<ellipse transform="matrix(-0.9082 0.4186 -0.4186 -0.9082 562.0087 50.6354)" fill="#B59737" cx="275.45" cy="86.964" rx="0.069" ry="0.099"/>
				
					<ellipse transform="matrix(0.1364 0.9907 -0.9907 0.1364 324.0847 -197.6036)" fill="#B59737" cx="275.379" cy="87.079" rx="0.068" ry="0.099"/>
				
					<ellipse transform="matrix(0.9842 0.177 -0.177 0.9842 19.7783 -47.3852)" fill="#B59737" cx="275.464" cy="87.157" rx="0.069" ry="0.099"/>
				
					<ellipse transform="matrix(0.4789 -0.8779 0.8779 0.4789 67.1505 287.3381)" fill="#B59737" cx="275.592" cy="87.11" rx="0.067" ry="0.099"/>
				
					<ellipse transform="matrix(-0.6889 -0.7248 0.7248 -0.6889 402.4185 346.6399)" fill="#B59737" cx="275.591" cy="86.969" rx="0.068" ry="0.099"/>
			</g>
			<circle fill="#B59737" cx="275.495" cy="87.057" r="0.202"/>
		</g>
	</g>
</g>
<g>
	<path fill="#B59737" d="M203.333,170.244c0.287,0.506,0.11,1.148-0.396,1.435c-0.505,0.287-1.148,0.11-1.434-0.396
		c-2.469-4.327-6.17-7.095-9.853-8.312c-2.025-0.669-4.036-0.865-5.818-0.592c-1.221,0.188-2.332,0.598-3.256,1.228v-2.422
		c0.902-0.433,1.893-0.729,2.942-0.892c2.103-0.322,4.45-0.099,6.791,0.676C196.439,162.333,200.581,165.422,203.333,170.244
		L203.333,170.244z M182.577,164.875v2.45c0.393,0.263,0.779,0.582,1.155,0.967c1.647,1.683,1.927,3.272,1.499,4.447
		c-0.293,0.807-0.915,1.431-1.642,1.747c-0.325,0.143-0.671,0.222-1.012,0.223v2.106c0.634-0.002,1.264-0.143,1.854-0.399
		c1.229-0.537,2.282-1.593,2.779-2.959c0.677-1.86,0.344-4.27-1.977-6.641C184.359,165.924,183.473,165.298,182.577,164.875z
		 M182.577,163.608c-0.373,0.254-0.715,0.543-1.022,0.869c0.342,0.105,0.684,0.236,1.022,0.397v2.45
		c-0.727-0.486-1.479-0.778-2.251-0.932c-0.368,0.896-0.575,1.94-0.582,3.139c-0.014,2.802,0.755,4.304,1.75,4.89
		c0.337,0.198,0.708,0.288,1.083,0.287v2.106c-0.735,0.003-1.473-0.179-2.155-0.582c-1.577-0.929-2.8-3.026-2.78-6.711
		c0.007-1.188,0.176-2.269,0.484-3.234c-1.302,0.097-2.642,0.428-3.993,0.761c-4.225,1.044-8.553,2.114-12.773-2.334
		c-0.401-0.421-0.385-1.088,0.036-1.489c0.421-0.398,1.088-0.384,1.488,0.039c3.379,3.562,7.107,2.64,10.746,1.74
		c1.87-0.461,3.717-0.919,5.533-0.892c0.257-0.387,0.544-0.746,0.857-1.078c0.729-0.771,1.592-1.388,2.557-1.85V163.608z"/>
	<path fill="#B59737" d="M329.283,161.186c0.963,0.462,1.828,1.078,2.557,1.85c0.313,0.332,0.601,0.691,0.857,1.079
		c1.813-0.028,3.665,0.43,5.531,0.891c3.641,0.898,7.366,1.82,10.746-1.74c0.4-0.423,1.066-0.438,1.487-0.039
		c0.421,0.401,0.438,1.068,0.037,1.489c-4.22,4.448-8.548,3.378-12.773,2.334c-1.351-0.333-2.689-0.664-3.991-0.761
		c0.308,0.967,0.477,2.046,0.482,3.234c0.021,3.685-1.204,5.783-2.78,6.712c-0.022,0.015-0.047,0.026-0.071,0.039
		c-0.661,0.373-1.375,0.544-2.082,0.542v-2.106c0.357,0.002,0.714-0.079,1.039-0.26l0.044-0.027c0.993-0.586,1.764-2.088,1.749-4.89
		c-0.006-1.197-0.213-2.242-0.581-3.139c-0.773,0.151-1.525,0.444-2.251,0.932v-2.45c0.338-0.16,0.68-0.292,1.021-0.397
		c-0.308-0.326-0.65-0.614-1.021-0.869V161.186z M310.356,171.283c-0.287,0.506-0.93,0.683-1.435,0.396
		c-0.505-0.285-0.683-0.929-0.396-1.435c2.751-4.821,6.892-7.909,11.021-9.273c2.34-0.772,4.688-0.998,6.79-0.676
		c1.049,0.162,2.039,0.459,2.943,0.892v2.422c-0.925-0.63-2.035-1.04-3.257-1.228c-1.782-0.273-3.793-0.077-5.817,0.593
		C316.525,164.189,312.825,166.956,310.356,171.283L310.356,171.283z M329.283,176.816v-2.106c-0.344-0.001-0.688-0.08-1.015-0.223
		c-0.726-0.316-1.348-0.94-1.642-1.747c-0.428-1.175-0.146-2.766,1.499-4.447c0.377-0.385,0.762-0.704,1.156-0.967v-2.45
		c-0.896,0.425-1.783,1.05-2.656,1.941c-2.322,2.371-2.656,4.778-1.977,6.641c0.497,1.366,1.55,2.422,2.777,2.959
		C328.018,176.673,328.648,176.814,329.283,176.816z"/>
</g>
<path fill="#B59737" stroke="#B59737" stroke-width="3" stroke-miterlimit="10" d="M488.221,164.021c0,0-93.479,9.498-122.628,0
	c-1.714-0.559-8.468-5.87-1.788-6.981c5.433-0.906,7.502,13.712-4.396,13.708c-11.126-0.003-9.939-10.956-5.044-10.606
	c3.62,0.26,4.654,3.737,3.491,5.045"/>
<path fill="#B59737" stroke="#B59737" stroke-width="3" stroke-miterlimit="10" d="M26.237,164.021c0,0,93.479,9.498,122.628,0
	c1.714-0.559,8.467-5.87,1.788-6.981c-5.432-0.906-7.501,13.712,4.397,13.708c11.126-0.003,9.939-10.956,5.044-10.606
	c-3.621,0.26-4.656,3.737-3.492,5.045"/>
</svg>
