<?xml version="1.0" encoding="utf-8"?>
<!-- Generator: Adobe Illustrator 16.0.0, SVG Export Plug-In . SVG Version: 6.00 Build 0)  -->
<!DOCTYPE svg PUBLIC "-//W3C//DTD SVG 1.1//EN" "http://www.w3.org/Graphics/SVG/1.1/DTD/svg11.dtd">
<svg version="1.1" id="Isolation_Mode" xmlns="http://www.w3.org/2000/svg" xmlns:xlink="http://www.w3.org/1999/xlink" x="0px"
	 y="0px" width="119px" height="75px" viewBox="0 0 119 75" enable-background="new 0 0 119 75" xml:space="preserve">
<g>
	<path fill-rule="evenodd" clip-rule="evenodd" fill="#393939" d="M30.086,35.375c0.562,0.505,1.177,0.665,1.833,0.709
		c0.483,0.034,1.001-0.043,1.441,0.109c0.434,0.15,0.849,0.19,1.279,0.163c1.01-0.063,2.019-0.153,3.051-0.232
		c-0.428-0.679-1.124-1.085-1.798-1.085c-0.185,0-0.37-0.017-0.552-0.038c-0.813-0.092-1.092-0.359-1.106-1.048
		c-0.012-0.619,0.48-1.214,1.095-1.325c0.867-0.157,1.956,0.539,1.472,1.673c-0.044,0.104-0.056,0.218-0.102,0.405
		c0.509,0.337,1.002,0.723,1.547,1.003c0.356,0.183,0.785,0.254,1.19,0.305c2.102,0.264,4.185-0.133,6.278-0.193
		c0.017,0,0.032-0.023,0.125-0.098c-0.704-0.494-1.389-0.972-2.074-1.451c-0.242-0.17-0.436-0.004-0.641,0.089
		c-1.018,0.473-2.345-0.12-2.661-1.189c-0.019-0.066-0.051-0.13-0.061-0.197c-0.138-0.892,0.95-2.157,1.852-2.095
		c0.451,0.031,0.918,0.145,1.333,0.323c0.681,0.292,1.021,1.299,0.743,2.036c-0.08,0.212-0.189,0.414-0.298,0.65
		c0.752,0.665,1.549,1.244,2.432,1.698c0.197,0.101,0.448,0.173,0.663,0.152c1.009-0.101,1.973,0.167,2.949,0.325
		c0.735,0.118,1.461,0.28,2.186,0.452c0.212,0.05,0.407,0.085,0.399,0.471c-0.608-0.074-1.192-0.146-1.776-0.215
		c-1.054-0.125-2.106-0.256-3.162-0.367c-0.286-0.028-0.598-0.081-0.783,0.272c-0.048,0.091-0.238,0.146-0.365,0.149
		c-1.055,0.025-1.965,0.456-2.844,0.985c-0.711,0.428-1.425,0.853-2.134,1.286c-0.35,0.213-0.623,0.483-0.562,0.947
		c0.002,0.022-0.003,0.045-0.008,0.069c-0.208,1.256-1.187,1.891-2.426,1.553c-0.169-0.045-0.352-0.145-0.469-0.273
		c-0.497-0.547-0.46-1.884,0.047-2.471c0.589-0.679,1.365-0.771,2.25-0.259c0.158,0.092,0.299,0.214,0.504,0.365
		c0.751-0.474,1.514-0.989,2.309-1.449c0.789-0.457,1.608-0.858,2.417-1.284c-0.47,0-0.963-0.02-1.456,0.002
		c-1.706,0.078-3.411,0.172-5.117,0.255c-0.231,0.011-0.423,0.039-0.62,0.219c-0.231,0.211-0.552,0.322-0.833,0.477
		c-0.443,0.245-0.918,0.446-1.321,0.745c-0.6,0.443-1.132,0.964-1.141,1.802c-0.001,0.111-0.05,0.225-0.09,0.333
		c-0.398,1.092-0.996,1.379-2.105,1.017c-0.706-0.232-1.172-1.18-0.857-1.858c0.238-0.51,0.647-0.906,1.188-1.106
		c0.389-0.145,0.769-0.09,1.096,0.211c0.146,0.137,0.329,0.235,0.466,0.331c0.468-0.422,0.86-0.853,1.327-1.179
		c0.463-0.325,1-0.546,1.623-0.876c-0.215-0.041-0.314-0.082-0.41-0.076c-2.118,0.132-4.24,0.234-6.322,0.693
		c-1.19,0.262-2.146,0.942-3.041,1.72c-0.115,0.1-0.173,0.317-0.176,0.483c-0.012,0.492-0.246,0.885-0.524,1.255
		c-0.248,0.331-0.596,0.405-0.993,0.329c-0.38-0.074-0.5-0.335-0.596-0.674c-0.167-0.592-0.095-1.08,0.404-1.494
		c0.275-0.229,0.556-0.296,0.895-0.258c0.663,0.078,0.89-0.033,1.429-0.704c-1.171,0.126-2.285,0.231-3.355,0.588
		c-0.125,0.042-0.255,0.269-0.266,0.418c-0.087,1.256-0.967,1.278-1.841,1.177c-0.285-0.034-0.522-0.207-0.576-0.525
		c-0.056-0.338-0.139-0.681-0.13-1.02c0.013-0.493,0.232-0.888,0.737-1.066c0.51-0.181,0.952-0.056,1.343,0.291
		c0.085,0.075,0.153,0.17,0.279,0.313c2.441-0.468,4.905-0.942,7.367-1.414c0.002-0.046,0.006-0.091,0.008-0.136
		c-0.204-0.06-0.406-0.127-0.612-0.176c-0.179-0.044-0.372-0.045-0.544-0.104c-0.629-0.219-1.223-0.492-1.944-0.379
		c-0.547,0.085-0.955-0.356-1.217-0.782c-0.145-0.234-0.173-0.663-0.054-0.908c0.248-0.515,0.705-0.847,1.321-0.855
		c0.634-0.007,1.017,0.401,1.321,0.872c0.092,0.144,0.048,0.402,0.009,0.597C30.3,35.005,30.188,35.164,30.086,35.375z
		 M42.372,31.257c-0.516-0.009-0.702,0.065-0.966,0.425c-0.162,0.22-0.306,0.462-0.41,0.714c-0.201,0.488-0.066,0.98,0.371,1.284
		c0.792,0.551,1.233,0.504,2.054-0.13c0.596-0.459,0.699-1.063,0.268-1.674C43.343,31.388,42.818,31.32,42.372,31.257z M39.499,41.1
		c0.763-0.013,1.03-0.402,1.068-1.361c0.022-0.525-0.549-1.015-1.174-1.007c-0.636,0.007-1.215,0.655-1.206,1.357
		C38.194,40.705,38.723,41.112,39.499,41.1z M34.728,39.621c-0.02-0.491-0.624-1.098-1.089-1.093
		c-0.536,0.006-1.198,0.769-1.166,1.34c0.032,0.569,0.555,0.948,1.244,0.903C34.221,40.738,34.749,40.137,34.728,39.621z
		 M24.395,38.891c-0.007-0.512-0.422-0.983-0.867-0.98c-0.486,0.003-0.793,0.328-0.792,0.84c0,0.526,0.412,0.886,1.009,0.883
		C24.097,39.632,24.4,39.287,24.395,38.891z M29.931,34.619c-0.478-0.9-0.988-1.058-1.605-0.52c-0.413,0.358-0.383,0.754,0.08,1.06
		c0.646,0.424,0.911,0.373,1.357-0.267C29.827,34.8,29.881,34.702,29.931,34.619z M34.672,33.845
		c-0.012,0.437,0.374,0.73,0.965,0.73c0.414,0.001,0.807-0.357,0.831-0.754c0.023-0.384-0.415-0.804-0.853-0.819
		C35.209,32.988,34.684,33.458,34.672,33.845z M26.147,39.937c0.011,0.313,0.279,0.567,0.581,0.552
		c0.284-0.014,0.656-0.511,0.653-0.871c-0.002-0.239-0.316-0.543-0.539-0.522C26.534,39.126,26.135,39.607,26.147,39.937z"/>
	<path fill-rule="evenodd" clip-rule="evenodd" fill="#393939" d="M89.757,34.833c-0.039-0.195-0.083-0.453,0.009-0.597
		c0.304-0.471,0.687-0.879,1.321-0.872c0.617,0.008,1.074,0.34,1.321,0.855c0.119,0.245,0.09,0.673-0.054,0.908
		c-0.263,0.426-0.67,0.867-1.218,0.782c-0.72-0.112-1.314,0.16-1.943,0.379c-0.172,0.059-0.365,0.06-0.544,0.104
		c-0.207,0.049-0.408,0.116-0.612,0.176c0.002,0.045,0.005,0.09,0.008,0.136c2.462,0.472,4.925,0.946,7.367,1.414
		c0.126-0.143,0.193-0.238,0.279-0.313c0.392-0.347,0.833-0.472,1.343-0.291c0.505,0.179,0.724,0.574,0.738,1.066
		c0.009,0.339-0.074,0.682-0.13,1.02c-0.053,0.318-0.291,0.491-0.576,0.525c-0.874,0.101-1.754,0.079-1.841-1.177
		c-0.011-0.149-0.141-0.377-0.266-0.418c-1.071-0.356-2.185-0.462-3.355-0.588c0.54,0.671,0.766,0.782,1.429,0.704
		c0.338-0.039,0.62,0.029,0.895,0.258c0.499,0.414,0.571,0.902,0.404,1.494c-0.095,0.339-0.216,0.6-0.596,0.674
		c-0.397,0.076-0.745,0.001-0.993-0.329c-0.278-0.371-0.511-0.763-0.524-1.255c-0.003-0.166-0.061-0.383-0.176-0.483
		c-0.895-0.777-1.85-1.458-3.041-1.72c-2.082-0.459-4.204-0.561-6.322-0.693c-0.096-0.006-0.195,0.035-0.41,0.076
		c0.623,0.33,1.159,0.551,1.623,0.876c0.466,0.326,0.859,0.756,1.327,1.179c0.138-0.096,0.32-0.194,0.467-0.331
		c0.327-0.302,0.707-0.356,1.096-0.211c0.54,0.2,0.95,0.596,1.188,1.106c0.315,0.678-0.151,1.625-0.857,1.858
		c-1.109,0.363-1.708,0.076-2.105-1.017c-0.04-0.108-0.089-0.222-0.09-0.333c-0.008-0.837-0.541-1.358-1.14-1.802
		c-0.404-0.299-0.878-0.5-1.321-0.745c-0.281-0.154-0.602-0.266-0.833-0.477c-0.197-0.18-0.388-0.208-0.62-0.219
		c-1.706-0.083-3.411-0.178-5.117-0.255c-0.492-0.021-0.986-0.002-1.456-0.002c0.809,0.426,1.628,0.827,2.417,1.284
		c0.794,0.459,1.557,0.975,2.308,1.449c0.205-0.15,0.346-0.272,0.504-0.365c0.886-0.512,1.662-0.419,2.25,0.259
		c0.508,0.587,0.545,1.924,0.047,2.471c-0.117,0.129-0.299,0.228-0.469,0.273c-1.239,0.337-2.218-0.297-2.426-1.553
		c-0.004-0.023-0.01-0.047-0.007-0.069c0.062-0.464-0.212-0.734-0.562-0.947c-0.708-0.434-1.422-0.858-2.134-1.286
		c-0.878-0.529-1.789-0.959-2.843-0.985c-0.127-0.004-0.317-0.059-0.365-0.149c-0.186-0.353-0.498-0.3-0.783-0.272
		c-1.055,0.111-2.108,0.243-3.162,0.367c-0.584,0.068-1.168,0.141-1.776,0.215c-0.008-0.386,0.188-0.421,0.399-0.471
		c0.725-0.172,1.451-0.334,2.186-0.452c0.977-0.158,1.939-0.426,2.949-0.325c0.215,0.021,0.467-0.051,0.664-0.152
		c0.882-0.454,1.679-1.034,2.431-1.698c-0.109-0.236-0.218-0.438-0.298-0.65c-0.277-0.737,0.062-1.745,0.743-2.036
		c0.415-0.178,0.883-0.292,1.333-0.323c0.902-0.062,1.99,1.204,1.853,2.095c-0.01,0.067-0.042,0.131-0.061,0.197
		c-0.315,1.069-1.643,1.662-2.66,1.189c-0.205-0.094-0.399-0.26-0.642-0.089c-0.685,0.479-1.37,0.958-2.074,1.451
		c0.092,0.074,0.108,0.098,0.125,0.098c2.093,0.06,4.176,0.457,6.278,0.193c0.405-0.051,0.833-0.122,1.189-0.305
		c0.545-0.28,1.039-0.666,1.547-1.003c-0.045-0.187-0.057-0.301-0.102-0.405c-0.483-1.134,0.605-1.83,1.473-1.673
		c0.615,0.111,1.106,0.707,1.095,1.325c-0.013,0.689-0.293,0.956-1.105,1.048c-0.183,0.021-0.368,0.038-0.552,0.038
		c-0.674,0-1.37,0.406-1.798,1.085c1.032,0.08,2.041,0.17,3.051,0.232c0.43,0.027,0.845-0.013,1.279-0.163
		c0.439-0.152,0.958-0.075,1.441-0.109c0.656-0.044,1.271-0.204,1.832-0.709C89.905,35.164,89.792,35.005,89.757,34.833z
		 M76.404,31.876c-0.432,0.611-0.329,1.215,0.267,1.674c0.821,0.634,1.261,0.681,2.054,0.13c0.437-0.304,0.572-0.796,0.371-1.284
		c-0.104-0.252-0.248-0.494-0.409-0.714c-0.264-0.359-0.45-0.434-0.966-0.425C77.273,31.32,76.749,31.388,76.404,31.876z
		 M81.904,40.089c0.009-0.702-0.57-1.35-1.206-1.357c-0.625-0.008-1.196,0.482-1.174,1.007c0.039,0.958,0.306,1.348,1.069,1.361
		C81.369,41.112,81.897,40.705,81.904,40.089z M86.375,40.771c0.689,0.045,1.212-0.333,1.244-0.903
		c0.033-0.572-0.629-1.334-1.165-1.34c-0.466-0.005-1.07,0.603-1.09,1.093C85.343,40.137,85.872,40.738,86.375,40.771z
		 M96.348,39.633c0.597,0.003,1.008-0.357,1.009-0.883c0-0.512-0.306-0.837-0.793-0.84c-0.444-0.002-0.86,0.468-0.866,0.98
		C95.692,39.287,95.995,39.632,96.348,39.633z M90.329,34.892c0.446,0.64,0.711,0.691,1.357,0.267
		c0.463-0.306,0.494-0.702,0.081-1.06c-0.618-0.538-1.127-0.38-1.606,0.52C90.211,34.702,90.265,34.8,90.329,34.892z M84.478,33.001
		c-0.438,0.016-0.876,0.435-0.853,0.819c0.023,0.397,0.417,0.755,0.83,0.754c0.591,0,0.977-0.293,0.965-0.73
		C85.408,33.458,84.883,32.988,84.478,33.001z M93.249,39.096c-0.222-0.021-0.536,0.283-0.538,0.522
		c-0.003,0.359,0.369,0.857,0.653,0.871c0.302,0.015,0.57-0.24,0.581-0.552C93.957,39.607,93.558,39.126,93.249,39.096z"/>
	<path fill="#393939" d="M57.867,30.578c0.564,0,1.044,0.228,1.425,0.677l0.044,0.051l0.058-0.034
		c0.508-0.303,1.103-0.47,1.673-0.47c1.14,0,1.961,0.64,2.199,1.712l0.011,0.049l0.05,0.011c0.686,0.15,1.281,0.555,1.678,1.141
		l0.027,0.04l0.048-0.006c0.017-0.002,0.029-0.004,0.041-0.004c0.005,0,0.011,0,0.017,0.001c1.105,0.198,2.003,0.915,2.402,1.919
		c0.381,0.958,0.211,2.049-0.518,3.335l-0.014,0.025l0.004,0.028c0.262,1.564-0.787,3.369-2.337,4.022l-0.023,0.01l-0.014,0.021
		c-0.461,0.739-1.255,1.274-2.125,1.431l-0.022,0.004l-0.017,0.016c-0.833,0.756-1.915,1.227-2.825,1.227
		c-0.866,0-1.562-0.413-2.013-1.194c0-0.002-0.001-0.005-0.002-0.007c-0.002-0.008-0.004-0.016-0.007-0.024l-0.017-0.047
		l-0.05-0.005c-0.382-0.035-0.745-0.165-1.05-0.375c-0.441-0.306-0.758-0.776-0.89-1.326l-0.012-0.05l-0.051-0.009
		c-0.008-0.001-0.016-0.002-0.023-0.003c-0.005,0-0.011-0.001-0.013-0.002c-1.685-0.69-2.607-2.314-2.296-4.042l0.015-0.083
		l-0.083-0.01c-0.051-0.006-0.093-0.032-0.124-0.077c-0.625-0.907-0.778-1.951-0.433-2.94c0.343-0.983,1.142-1.751,2.137-2.056
		l0.052-0.016l0.004-0.054C54.901,32.033,56.452,30.578,57.867,30.578L57.867,30.578z M56.231,33.394
		c0.315-0.286,0.676-0.533,0.956-0.717c0.439-0.29,0.836-0.445,1.18-0.461l0.041-0.002l0.022-0.034
		c0.146-0.225,0.334-0.434,0.557-0.62l0.064-0.054l-0.058-0.062c-0.32-0.341-0.71-0.515-1.162-0.515
		c-1.143,0-2.466,1.188-2.671,2.398l-0.018,0.107l0.107-0.015c0.159-0.022,0.321-0.033,0.481-0.033c0.145,0,0.291,0.009,0.436,0.027
		l0.037,0.004L56.231,33.394z M62.878,32.411c-0.257-0.816-0.907-1.284-1.784-1.284c-0.83,0-1.708,0.42-2.239,1.071l-0.062,0.076
		l0.087,0.045c0.154,0.079,0.283,0.195,0.396,0.355c0.006,0.008,0.01,0.017,0.014,0.026l0.035,0.07l0.071-0.033
		c0.36-0.172,0.762-0.263,1.163-0.263c0.415,0,0.828,0.097,1.196,0.28l0.077,0.039l0.032-0.081c0.019-0.047,0.054-0.077,0.106-0.092
		c0.252-0.071,0.513-0.107,0.775-0.107c0.019,0,0.037,0,0.055,0l0.111,0.002L62.878,32.411z M56.767,33.395l-0.069,0.056
		c-0.535,0.428-0.851,0.852-0.995,1.333l-0.041,0.135l0.136-0.035c0.137-0.035,0.278-0.06,0.419-0.074
		c0.007-0.001,0.013-0.001,0.02-0.001c0.047,0,0.082,0.018,0.106,0.057l0.054,0.084l0.07-0.071c0.086-0.088,0.178-0.169,0.272-0.241
		c0.362-0.274,0.781-0.426,1.246-0.45l0.049-0.002l0.02-0.045c0.208-0.471,0.52-0.859,0.927-1.155l0.075-0.055
		c-0.109-0.175-0.186-0.25-0.381-0.335C58.094,32.342,57.261,32.995,56.767,33.395z M62.726,34.308
		c-0.376-0.924-1.215-1.498-2.188-1.498l0,0c-0.888,0-1.666,0.482-2.08,1.289l-0.051,0.099l0.11,0.016
		c0.42,0.059,0.863,0.208,1.316,0.439l0.05,0.026l0.041-0.039c0.239-0.227,0.769-0.352,1.491-0.352l0,0
		c0.43,0,0.896,0.048,1.217,0.126l0.151,0.037L62.726,34.308z M65.087,35.618c0.11-0.697-0.084-1.398-0.535-1.926
		c-0.449-0.525-1.104-0.827-1.797-0.827c-0.165,0-0.332,0.017-0.498,0.05l-0.167,0.033l0.132,0.106
		c0.41,0.329,0.712,0.766,0.898,1.298c0.019,0.056,0.011,0.102-0.026,0.142l-0.067,0.072l0.085,0.05
		c0.26,0.153,0.47,0.343,0.625,0.565l0.021,0.031l0.049,0.004l0.004,0c0.424,0.05,0.811,0.202,1.15,0.452l0.105,0.077L65.087,35.618
		z M53.994,37.242c-0.022-0.91,0.464-1.736,1.268-2.154l0.044-0.023l-0.002-0.05c0-0.009-0.001-0.017-0.002-0.025
		c0-0.003-0.001-0.006-0.001-0.01c0.057-0.402,0.221-0.771,0.501-1.128l0.098-0.125l-0.159-0.004c-0.024,0-0.047,0-0.071,0l0,0
		c-1.188,0-2.213,0.691-2.662,1.789c-0.354,0.866-0.278,1.835,0.21,2.66l0.088,0.149l0.055-0.164c0.089-0.263,0.207-0.519,0.35-0.76
		c0.032-0.054,0.076-0.081,0.133-0.081c0.017,0,0.033,0.002,0.05,0.007l0.103,0.027L53.994,37.242z M66.944,38.354
		c0.437-1.041,0.467-2.092,0.085-2.885c-0.307-0.636-0.874-1.086-1.642-1.303l-0.152-0.043l0.056,0.148
		c0.208,0.546,0.232,1.142,0.07,1.721l-0.011,0.041l0.026,0.032c0.188,0.226,0.333,0.475,0.432,0.741
		c0.055,0.148,0.098,0.308,0.126,0.472l0.005,0.03l0.024,0.019c0.369,0.286,0.649,0.632,0.834,1.03l0.076,0.163L66.944,38.354z
		 M58.917,35.697c0.213-0.243,0.48-0.445,0.772-0.583l0.145-0.068l-0.142-0.074c-0.569-0.295-1.1-0.444-1.578-0.444
		c-0.492,0-0.92,0.16-1.274,0.476c-0.569,0.508-0.836,1.262-0.715,2.017l0.008,0.05l0.048,0.014c0.034,0.01,0.062,0.024,0.082,0.042
		l0.083,0.076l0.043-0.104c0.356-0.856,1.164-1.409,2.057-1.409c0.131,0,0.264,0.012,0.397,0.034l0.044,0.008L58.917,35.697z
		 M63.471,37.546c0.453-1.032,0.378-1.84-0.222-2.404c-0.483-0.453-1.157-0.539-1.516-0.549l0,0c-0.007,0-0.679,0.049-1.142,0.15
		l0.018,0.157h0.012c0.286,0,0.563,0.06,0.823,0.176c0.756,0.339,1.231,1.136,1.209,2.03l-0.002,0.069l0.069,0.011
		c0.245,0.039,0.452,0.166,0.615,0.376l0.082,0.105L63.471,37.546z M55.162,38.673c0.1-0.481,0.315-0.921,0.642-1.306l0.027-0.032
		l-0.01-0.04c-0.174-0.667-0.059-1.393,0.314-1.991l0.093-0.149l-0.173,0.029c-0.798,0.132-1.429,0.686-1.647,1.446
		c-0.217,0.755,0.022,1.555,0.625,2.087l0.103,0.091L55.162,38.673z M62.306,36.867c-0.09-0.899-0.878-1.603-1.793-1.603
		c-0.468,0-0.896,0.187-1.235,0.54l-0.035,0.037l0.022,0.056c0.002,0.005,0.004,0.01,0.006,0.016l0.021,0.083l0.082-0.027
		c0.146-0.048,0.279-0.081,0.406-0.1c0.085-0.013,0.174-0.02,0.264-0.02l0,0c0.55,0,1.192,0.249,1.3,0.796l0.012,0.062l0.063,0.002
		c0.279,0.01,0.544,0.09,0.767,0.232l0.138,0.088L62.306,36.867z M65.245,39.186c0.368-0.939,0.525-2.22-0.14-2.996l-0.01-0.012
		l-0.014-0.007c-0.034-0.018-0.059-0.042-0.073-0.075l-0.006-0.015l-0.012-0.011c-0.24-0.228-0.546-0.383-0.91-0.46l-0.13-0.028
		l0.037,0.128c0.199,0.685,0.014,1.41-0.177,1.898l-0.037,0.093l0.099,0.014c0.807,0.116,1.159,0.824,1.22,1.449L65.245,39.186z
		 M57.144,39.164c0.005-0.008,0.009-0.016,0.014-0.023c0.005-0.008,0.01-0.017,0.015-0.025c0.031-0.046,0.072-0.072,0.124-0.078
		l0.074-0.009l-0.006-0.103c-0.001-0.019-0.003-0.037-0.002-0.056c0.004-0.45,0.225-0.769,0.41-0.958l0.069-0.07l-0.083-0.053
		c-0.042-0.027-0.086-0.078-0.053-0.167c0.219-0.589,0.622-1.088,1.136-1.405l0.177-0.109l-0.205-0.037
		c-0.121-0.022-0.243-0.033-0.361-0.033c-0.736,0-1.391,0.422-1.708,1.102c-0.32,0.686-0.218,1.445,0.273,2.031l0.07,0.084
		L57.144,39.164z M59.477,37.52c0.145-0.088,0.306-0.16,0.479-0.211l0.03-0.009l0.016-0.027c0.013-0.022,0.02-0.034,0.031-0.044
		c0.258-0.235,0.576-0.399,0.919-0.476l0.072-0.016l-0.011-0.073c-0.032-0.209-0.193-0.459-0.781-0.459
		c-0.434,0-0.899,0.137-1.078,0.229c-0.438,0.226-0.787,0.584-1.009,1.037l-0.099,0.202l0.204-0.095
		c0.215-0.1,0.448-0.153,0.674-0.153l0,0c0.135,0,0.268,0.019,0.394,0.055c0.025,0.007,0.047,0.019,0.066,0.034l0.043,0.037
		L59.477,37.52z M61.783,39.05c0.229-0.045,0.424-0.185,0.549-0.391c0.231-0.381,0.183-0.906-0.112-1.229
		c-0.367-0.409-0.909-0.479-1.405-0.288l-0.16,0.062l0.15,0.082c0.453,0.247,0.696,0.734,0.667,1.337l-0.001,0.031l0.022,0.026
		l0.007,0.007c0.072,0.095,0.139,0.203,0.195,0.319l0.027,0.055L61.783,39.05z M61.541,41.358c0.711,0,1.421-0.542,1.689-1.29
		c0.233-0.648,0.275-2.019-0.323-2.42l-0.188-0.126l0.068,0.216c0.104,0.329,0.071,0.677-0.092,0.979
		c-0.166,0.309-0.454,0.541-0.791,0.636l-0.072,0.02l0.016,0.073c0.154,0.701-0.085,1.367-0.626,1.738l-0.151,0.104l0.179,0.039
		C61.345,41.348,61.443,41.358,61.541,41.358z M60.09,39.927c0.449,0,0.833-0.367,0.979-0.934c0.131-0.509,0.039-1.146-0.462-1.421
		l-0.025-0.014l-0.028,0.005c-0.008,0.001-0.016,0.004-0.024,0.006c-0.003,0.001-0.005,0.002-0.009,0.002
		c-0.601,0.001-1.301,0.357-1.476,1.036c-0.134,0.521,0.189,1.076,0.736,1.265C59.886,39.909,59.99,39.927,60.09,39.927z
		 M55.552,42.251c-0.005-0.382,0.074-0.762,0.23-1.097l0.021-0.046l-0.033-0.039c-0.43-0.511-0.666-1.162-0.664-1.831l0-0.063
		l-0.061-0.015c-0.021-0.005-0.041-0.015-0.061-0.03c-0.465-0.359-0.782-0.833-0.917-1.369l-0.051-0.202l-0.096,0.185
		c-0.444,0.85-0.527,1.794-0.234,2.658c0.287,0.846,0.909,1.529,1.752,1.922l0.115,0.053L55.552,42.251z M57.255,41.571
		c0.01-0.018,0.021-0.031,0.033-0.04l0.067-0.052l-0.056-0.063c-0.408-0.466-0.549-1.143-0.371-1.768l0.013-0.045l-0.034-0.033
		c-0.509-0.499-0.75-1.147-0.68-1.825l0.012-0.113l-0.11,0.027c-0.018,0.005-0.037,0.007-0.055,0.007c-0.004,0-0.009,0-0.014,0
		l-0.042-0.002l-0.026,0.034c-0.511,0.665-0.672,1.488-0.442,2.26c0.229,0.77,0.815,1.371,1.61,1.649l0.062,0.022L57.255,41.571z
		 M58.919,39.981c0.03,0,0.061-0.001,0.091-0.003l0.025-0.002l0.02-0.016c0.004-0.001,0.01-0.004,0.016-0.008l0.082-0.053
		l-0.068-0.069c-0.341-0.346-0.487-0.814-0.39-1.254c0.054-0.246,0.167-0.472,0.334-0.672l0.103-0.123l-0.161-0.007
		c-0.018,0-0.035-0.001-0.052-0.001c-0.576,0-1.198,0.44-1.207,1.096c-0.003,0.271,0.105,0.532,0.306,0.735
		C58.25,39.84,58.587,39.981,58.919,39.981z M65.084,42.475c1.503-0.99,2.233-3.229,1.022-4.555l-0.125-0.137l-0.013,0.185
		c-0.051,0.744-0.601,2.014-1.104,2.443l0.015,0.041l0.002,0.003c0.233,0.65,0.262,1.318,0.082,1.931l-0.062,0.208L65.084,42.475z
		 M62.555,41.878c0.695,0,1.367-0.478,1.841-1.31c0.319-0.56,0.49-1.458,0.178-2.019c-0.172-0.311-0.478-0.483-0.882-0.498
		l-0.109-0.004l0.029,0.104c0.202,0.728,0.097,1.687-0.12,2.192c-0.206,0.479-0.57,0.875-1.025,1.114l-0.034,0.018l-0.007,0.038
		c-0.002,0.009-0.002,0.018-0.002,0.026c-0.017,0.052-0.037,0.1-0.059,0.15c-0.01,0.024-0.021,0.048-0.03,0.073l-0.04,0.099
		l0.105,0.01C62.452,41.876,62.504,41.878,62.555,41.878z M58.924,40.332c-0.587,0-1.157-0.342-1.416-0.85l-0.073-0.142l-0.07,0.144
		c-0.29,0.597-0.204,1.278,0.218,1.735c0.264,0.287,0.64,0.444,1.059,0.444c0.354,0,0.7-0.115,0.974-0.324l0.088-0.067l-0.091-0.062
		c-0.287-0.195-0.489-0.485-0.569-0.818l-0.015-0.063l-0.064,0.002C58.951,40.332,58.938,40.332,58.924,40.332z M61.292,39.378
		l-0.026,0.054c-0.257,0.528-0.696,0.844-1.174,0.844c-0.128,0-0.26-0.021-0.394-0.064c-0.054-0.017-0.11-0.04-0.177-0.071
		l-0.079-0.037l-0.03,0.082c-0.002,0.005-0.01,0.015-0.016,0.024l-0.03,0.041l0.006,0.034c0.161,0.815,1.131,1.022,1.708,0.569
		c0.422-0.331,0.572-0.842,0.411-1.402l-0.015-0.053l-0.054-0.005c-0.011-0.001-0.022-0.001-0.034-0.002s-0.023-0.001-0.035-0.002
		L61.292,39.378z M62.443,44.214c0.72-0.125,1.375-0.545,1.798-1.15c0.412-0.589,0.567-1.312,0.437-2.032l-0.035-0.191l-0.109,0.16
		c-0.535,0.783-1.256,1.231-1.978,1.231c-0.123,0-0.248-0.013-0.371-0.039l-0.054-0.011l-0.029,0.047
		c-0.398,0.64-1.026,1.07-1.768,1.211l-0.11,0.021l0.057,0.097c0.112,0.25,0.881,0.695,1.711,0.695c0.107,0,0.216-0.006,0.323-0.02
		l0.012-0.001l0.011-0.004c0.022-0.01,0.044-0.015,0.065-0.015c0.006,0,0.011,0,0.017,0.001l0.012,0.001L62.443,44.214z
		 M56.147,41.442l-0.086-0.07l-0.038,0.105c-0.34,0.931,0.01,1.984,0.812,2.448c0.288,0.167,0.604,0.25,0.939,0.25
		c0.538,0,1.079-0.224,1.484-0.614l0.106-0.102l-0.144-0.033c-0.771-0.174-1.408-0.66-1.795-1.368L57.4,42.013
		C56.994,41.975,56.47,41.705,56.147,41.442z M60.376,41.449c-0.105,0-0.208-0.012-0.305-0.035L60,41.397l-0.022,0.069
		c-0.01,0.029-0.024,0.051-0.047,0.069c-0.363,0.306-0.824,0.474-1.298,0.474c-0.275,0-0.536-0.057-0.774-0.168l-0.223-0.104
		l0.12,0.215c0.424,0.76,1.187,1.213,2.041,1.213c0.792,0,1.528-0.394,1.969-1.053l0.029-0.043l-0.029-0.044
		c-0.042-0.065-0.044-0.155-0.003-0.22l0.083-0.133l-0.157,0.012c-0.046,0.004-0.093,0.005-0.139,0.005
		c-0.321,0-0.625-0.083-0.903-0.246l-0.024-0.014l-0.028,0.004C60.521,41.444,60.448,41.449,60.376,41.449z M59.672,45.447
		c0.637,0,1.365-0.26,2.049-0.734l0.178-0.123l-0.216-0.021c-0.681-0.067-1.319-0.366-1.846-0.865
		c-0.015-0.015-0.027-0.032-0.038-0.055l-0.054-0.115l-0.08,0.098c-0.375,0.458-0.938,0.772-1.544,0.859l-0.129,0.019l0.075,0.106
		C58.459,45.167,58.999,45.447,59.672,45.447z"/>
</g>
</svg>
