<?xml version="1.0" encoding="utf-8"?>
<!-- Generator: Adobe Illustrator 16.0.0, SVG Export Plug-In . SVG Version: 6.00 Build 0)  -->
<!DOCTYPE svg PUBLIC "-//W3C//DTD SVG 1.1//EN" "http://www.w3.org/Graphics/SVG/1.1/DTD/svg11.dtd">
<svg version="1.1" id="Isolation_Mode" xmlns="http://www.w3.org/2000/svg" xmlns:xlink="http://www.w3.org/1999/xlink" x="0px"
	 y="0px" width="138px" height="117px" viewBox="0 0 138 117" enable-background="new 0 0 138 117" xml:space="preserve">
<g>
	<path fill-rule="evenodd" clip-rule="evenodd" fill="#393939" d="M72.626,68.841c-3.243,1.088-3.209,3.927-3.547,6.571
		c-0.848,0.24-0.571-0.401-0.51-0.723c0.195-1.043,0.355-2.114,0.727-3.099c0.3-0.792,0.797-1.557,1.374-2.18
		c0.478-0.516,1.188-0.828,1.821-1.185c0.219-0.123,0.516-0.107,0.776-0.154c0,0.285,0.072,0.595-0.014,0.85
		c-0.224,0.667-0.485,1.327-0.794,1.96c-0.738,1.508-1.513,2.998-2.25,4.449c1.355-0.677,2.842-1.419,4.064-2.028
		c0.453-1.843,0.769-3.534,1.292-5.16c0.582-1.81,2.194-2.693,3.917-3.843c0.184,3.121-1.914,5.145-2.773,7.698
		c2.266-1.5,4.53-3,6.603-4.37c-0.13-0.794-0.29-1.338-0.292-1.883c-0.007-1.479,0.074-2.958,0.079-4.438
		c0.003-1.733,0.933-2.97,2.19-4.32c0.383,1.794,0.2,3.369-0.039,4.932c-0.239,1.565-0.55,3.119-0.801,4.515
		c0.603-0.599,1.417-1.313,2.115-2.122c1.496-1.736,2.927-3.525,4.397-5.284c0.435-0.521,0.366-0.901-0.127-1.378
		c-0.65-0.633-1.195-1.373-1.786-2.065c-1.127-1.325-1.032-2.979-1.083-4.537c-0.041-1.204,0.763-2.189,1.434-3.194
		c1.172,3.144,2.934,6.076,2.532,9.63c0.994-1.991,1.755-4.032,2.696-5.983c0.379-0.785,0.268-1.36-0.134-1.971
		c-0.577-0.879-1.19-1.736-1.821-2.578c-1.044-1.393-1.172-3.071-1.396-4.687c-0.136-0.989-0.064-2.063,0.862-3.171
		c1.47,3.205,2.957,6.202,3.758,9.735c0.297-1.014,0.562-1.818,0.766-2.638c0.419-1.687,0.854-3.372,1.17-5.077
		c0.073-0.397-0.197-0.965-0.488-1.298c-0.585-0.671-1.412-1.148-1.928-1.858c-1.547-2.128-2.771-4.425-2.969-7.125
		c0.62-0.082,1.336,0.503,3.222,3.051c0.919,1.242,1.647,2.625,2.497,4.005c-0.163-1.958-0.22-3.932-0.528-5.87
		c-0.191-1.199-0.862-2.314-1.145-3.51c-0.445-1.878-0.7-3.787,0.484-5.582c0.124,0.3,0.182,0.615,0.129,0.908
		c-0.035,0.188-0.323,0.333-0.349,0.521c-0.321,2.405,0.176,4.675,1.195,7.079c0.417-3.374,0.553-6.488-0.951-9.484
		c0.454,0.312,0.945,0.65,1.016,1.063c0.303,1.765,0.577,3.547,0.682,5.333c0.129,2.189-0.832,4.338-0.257,6.581
		c0.234,0.913,0.176,1.902,0.259,2.946c0.824-2.014,2.054-3.546,3.788-4.738c0.748-0.514,1.895-0.697,2.166-1.937
		c0.252,0.424,0.519,0.903,0.404,1.257c-0.342,1.054-0.773,2.089-1.28,3.075c-0.738,1.432-1.597,2.813-3.233,3.38
		c-0.588,0.206-1.236,0.238-1.813,0.342c-0.485,2.512-1.003,5.194-1.539,7.977c1.709-2.176,3.819-3.696,6.169-4.91
		c0.468-0.241,1.02,0.022,0.91,0.507c-0.165,0.729-0.286,1.599-0.755,2.103c-1.249,1.336-2.609,2.589-4.051,3.712
		c-0.828,0.645-1.859,1.272-3.001,0.415c-1.198,2.681-2.37,5.304-3.578,8.011c1.288-0.762,2.43-1.82,3.741-2.104
		c1.358-0.295,2.878,0.163,4.459,0.303c-1.254,2.059-6.227,3.369-8.441,2.568c-2.381,2.865-4.715,5.674-6.853,8.244
		c0.974-0.139,2.192-0.541,3.36-0.426c1.985,0.193,3.938,0.712,5.849,1.082c0.319,0.872-0.006,1.21-0.853,1.205
		c-0.313-0.002-0.65,0.118-0.937,0.261c-2.696,1.34-5.298,0.354-7.865-0.406c-0.63-0.188-1.033-0.317-1.571,0.08
		c-1.299,0.956-2.618,1.887-3.942,2.812c-0.901,0.628-1.823,1.227-2.868,1.927c1.535,0.069,2.709,0.553,3.801,1.318
		c1.045,0.73,2.146,1.381,3.191,2.113c0.195,0.138,0.269,0.488,0.316,0.756c0.011,0.058-0.331,0.258-0.509,0.257
		c-0.817-0.008-1.644,0.015-2.444-0.121c-1.71-0.29-3.504-0.451-4.818-1.773c-0.473-0.476-0.775-1.125-1.163-1.709
		c-1.419,0.712-2.86,1.433-4.348,2.178c1.819,0.962,4.65,5.859,4.425,7.556c-2.177-0.19-5.851-4.525-5.893-7
		c-1.156,0.532-2.272,1.112-3.439,1.563c-1.143,0.443-2.337,0.755-3.638,1.163c3.05,1.484,4.188,4.395,6.173,6.668
		c-1.646,0.485-4.014-0.329-4.951-1.756c-0.93-1.416-1.694-2.938-2.593-4.52c-2.039,0.414-4.229,0.858-6.418,1.302
		c-0.05-0.091-0.101-0.182-0.15-0.272c0.213-0.156,0.404-0.397,0.641-0.451c1.118-0.255,2.254-0.431,3.372-0.69
		c1.033-0.239,2.05-0.547,3.076-0.825l-0.039,0.003c2.668-0.402,5.118-1.422,7.491-2.659c0.039-0.02-0.003-0.192-0.006-0.295
		C71.247,73.762,71.904,71.278,72.626,68.841z M99.114,38.396c2.014,0.621,5.704-3.386,5.426-5.89
		C102.042,33.902,99.846,35.472,99.114,38.396z M103.684,43.019c-2.492,0.565-6.216,3.83-6.385,5.652
		C99.679,48.568,103.529,45.13,103.684,43.019z M89.369,49.136c-1.829,2.248-0.531,6.158,1.911,7.849
		C91.576,54.094,90.511,51.63,89.369,49.136z M64.129,80.482c-0.334-0.386-0.965-0.542-1.487-0.723
		c-0.149-0.052-0.396,0.184-0.568,0.272c0.97,2.688,2.404,4.829,5.462,5.194c0.075-0.076,0.149-0.15,0.225-0.225
		C66.56,83.487,65.395,81.941,64.129,80.482z M94.367,67.249c-1.671-0.335-3.218-0.763-4.794-0.92
		c-1.045-0.105-2.133,0.152-3.194,0.306c-0.239,0.036-0.443,0.321-0.669,0.495C88.583,68.491,91.398,68.66,94.367,67.249z
		 M74.86,82.377c0.237-0.913-0.405-1.499-0.829-2.123c-0.824-1.216-1.676-2.418-2.612-3.546c-0.296-0.354-0.901-0.454-1.437-0.703
		C70.074,78.188,72.943,81.858,74.86,82.377z M77.147,74.909c1.149,1.013,4.447,1.72,5.851,1.371
		c-2.047-1.478-3.973-3.368-7.181-2.907C76.317,73.958,76.678,74.496,77.147,74.909z M91.888,42.284
		c-0.041,2.688,1.397,4.689,3.079,6.574c0.227-1.095-1.409-5.992-2.948-8.148C91.975,41.234,91.896,41.759,91.888,42.284z
		 M79.063,65.393c-3.234,1.365-3.404,4.248-3.87,6.987C77.11,70.458,78.168,68.056,79.063,65.393z M93.293,32.398
		c0.815,2.518,1.898,4.875,4.113,6.741C97.17,36.077,95.308,34.191,93.293,32.398z M93.831,57.439
		c2.177,0.282,4.008-0.401,5.716-1.599C96.922,54.897,95.764,55.222,93.831,57.439z M84.967,58.362
		c-1.238,1.162-1.417,2.256-1.175,7.423C84.736,63.429,84.928,60.95,84.967,58.362z"/>
	<path fill-rule="evenodd" clip-rule="evenodd" fill="#393939" d="M61.597,78.368c-0.224-0.051-0.448-0.103-0.718-0.164
		c1.18-2.843,1.891-5.966,5.625-6.467c0.167,0.842,0.037,1.059-1.087,2.294c-1.304,1.431-2.572,2.892-3.857,4.34
		C61.56,78.371,61.599,78.368,61.597,78.368z M61.728,77.781c1.478-1.737,2.957-3.474,4.437-5.211
		C63.831,72.923,62.341,74.658,61.728,77.781z"/>
</g>
</svg>
