<?xml version="1.0" encoding="utf-8"?>
<!-- Generator: Adobe Illustrator 16.0.0, SVG Export Plug-In . SVG Version: 6.00 Build 0)  -->
<!DOCTYPE svg PUBLIC "-//W3C//DTD SVG 1.1//EN" "http://www.w3.org/Graphics/SVG/1.1/DTD/svg11.dtd">
<svg version="1.1" id="Layer_1" xmlns="http://www.w3.org/2000/svg" xmlns:xlink="http://www.w3.org/1999/xlink" x="0px" y="0px"
	 width="200px" height="200px" viewBox="0 0 200 200" enable-background="new 0 0 200 200" xml:space="preserve">
<g>
	<g>
		<path fill="#171617" d="M72.376,85.332c-2.544,0-4.606-2.052-4.606-4.583h-3.685c0,4.557,3.712,8.25,8.292,8.25
			s8.292-3.693,8.292-8.25h-3.685C76.983,83.28,74.92,85.332,72.376,85.332z M147,114.666c-0.011,9.108-7.43,16.49-16.584,16.5
			c-1.018,0-1.842,0.821-1.842,1.834v18.333H88.038v-16.5h9.213v-3.667H71.455c-5.085-0.006-9.207-4.106-9.212-9.166v-14.667
			c0-1.013-0.825-1.834-1.843-1.834h-8.503l12.048-36.204c4.971-12.366,16.959-20.517,30.343-20.629h25.073
			c3.531-0.006,7.029,0.664,10.305,1.975l1.375-3.401c-3.713-1.486-7.678-2.247-11.68-2.24H94.288
			c-14.92,0.122-28.281,9.222-33.794,23.018l-12.898,38.74c-0.319,0.962,0.205,1.999,1.17,2.316
			c0.187,0.062,0.382,0.093,0.578,0.093h9.213V122c0.009,7.084,5.778,12.824,12.897,12.833h12.898v18.333
			c0,1.013,0.825,1.834,1.842,1.834h44.221c1.018,0,1.844-0.821,1.844-1.834V134.75c10.43-0.96,18.412-9.661,18.425-20.084V77.999
			H147V114.666z M148.023,53.905l3.91-3.891l-2.605-2.592l-3.909,3.89l-0.782-5.445l-3.649,0.52l1.174,8.168l-1.953,1.943
			l-0.781-5.449l-3.65,0.519l1.174,8.168l-3.316,3.3c-9.321-7.849-23.272-6.692-31.161,2.582
			c-7.888,9.275-6.726,23.157,2.596,31.006c9.321,7.85,23.272,6.693,31.16-2.582c6.974-8.198,6.978-20.208,0.011-28.411l3.316-3.301
			l8.209,1.168l0.524-3.63l-5.472-0.777l1.953-1.943l8.208,1.168l0.521-3.632L148.023,53.905z M132.391,92.796
			c-7.195,7.16-18.861,7.162-26.059,0.002c-7.196-7.158-7.197-18.767-0.002-25.927c6.691-6.659,17.363-7.191,24.691-1.232
			l-2.632,2.616c-6.431-4.967-15.69-3.805-20.683,2.595c-4.99,6.398-3.824,15.612,2.607,20.578
			c6.432,4.967,15.691,3.806,20.683-2.594c4.128-5.292,4.128-12.693,0-17.984l2.63-2.617
			C139.604,75.525,139.068,86.134,132.391,92.796z M120.664,81.129l2.246-2.235c0.086,0.306,0.133,0.622,0.137,0.938
			c0.002,0.974-0.387,1.907-1.08,2.593c-1.457,1.386-3.753,1.386-5.211,0c-1.451-1.405-1.481-3.713-0.07-5.156
			c0.938-0.958,2.326-1.329,3.619-0.967l-2.246,2.234L120.664,81.129z M114.15,74.649c-2.91,2.851-2.947,7.509-0.083,10.404
			c2.864,2.896,7.546,2.934,10.456,0.083c2.428-2.377,2.909-6.096,1.167-9.008l2.661-2.646c3.117,4.365,2.623,10.33-1.172,14.128
			c-4.304,4.325-11.316,4.36-15.664,0.079c-4.346-4.282-4.382-11.26-0.078-15.585c3.823-3.843,9.884-4.358,14.307-1.216l-2.674,2.66
			C120.178,71.925,116.558,72.372,114.15,74.649z"/>
	</g>
</g>
</svg>
