<?xml version="1.0" encoding="utf-8"?>
<!-- Generator: Adobe Illustrator 16.0.0, SVG Export Plug-In . SVG Version: 6.00 Build 0)  -->
<!DOCTYPE svg PUBLIC "-//W3C//DTD SVG 1.1//EN" "http://www.w3.org/Graphics/SVG/1.1/DTD/svg11.dtd">
<svg version="1.1" id="OBJECTS" xmlns="http://www.w3.org/2000/svg" xmlns:xlink="http://www.w3.org/1999/xlink" x="0px" y="0px"
	 width="500px" height="118.496px" viewBox="0 0 500 118.496" enable-background="new 0 0 500 118.496" xml:space="preserve">
<g>
	<path fill="#B59737" d="M248.241,66.404c-0.775,0.696-1.53,1.459-2.358,2.09c-0.478,0.36-1.029,0.61-1.574,0.264
		c-0.106-0.067-0.174-0.203-0.133-0.33c0.425-1.354,1.498-2.326,2.839-2.645c0.047-0.06,0.118-0.101,0.218-0.101h0.442
		c0.166,0,0.254,0.11,0.274,0.237C248.211,65.853,248.482,66.186,248.241,66.404z"/>
	<path fill="#B59737" d="M250.46,63.471c-0.013,0.368-0.776,0.389-0.891,0.19c-0.563-0.979-0.908-2.043-0.964-3.175
		c-0.026-0.534-0.132-2.061,0.596-2.273C250.967,57.708,250.493,62.791,250.46,63.471z"/>
	<path fill="#B59737" d="M249.983,64.962c-0.973,0.146-5.368,0.717-5.229-1.182c0.159-2.203,4.006-0.131,4.767,0.44
		C249.669,64.339,250.698,64.855,249.983,64.962z"/>
	<path fill="#B59737" d="M251.006,63.617c-0.027-0.039-0.044-0.086-0.047-0.146c-0.035-1.091,0.256-2.161,0.908-3.046
		c0.339-0.463,1.027-1.055,1.636-0.684c0.692,0.422,0.204,1.379-0.067,1.904c-0.479,0.929-1.183,1.688-2.017,2.31
		C251.18,64.13,250.947,63.851,251.006,63.617z"/>
	<path fill="#B59737" d="M250.145,66.271c0.065,0.693-0.15,5.869-1.89,4.771c-0.643-0.405-0.386-1.735-0.286-2.313
		c0.207-1.186,0.752-2.234,1.533-3.143c0.248-0.289,0.663,0.129,0.418,0.416c-0.003,0-0.003,0.002-0.003,0.002
		C250.033,66.039,250.13,66.125,250.145,66.271z"/>
	<path fill="#B59737" d="M257.709,64.33c-0.15,0.758-1.535,0.854-2.131,0.901c-1.133,0.088-2.217-0.171-3.223-0.685
		c-0.303-0.153-0.094-0.574,0.194-0.537c0.009-0.105,0.07-0.205,0.203-0.246C253.484,63.539,258.084,62.458,257.709,64.33z"/>
	<path fill="#B59737" d="M253.709,70.024c-0.021,0.197-0.248,0.397-0.445,0.254c-1.449-1.063-2.302-2.642-2.375-4.444
		c-0.004-0.071,0.021-0.127,0.053-0.172c0.009-0.201,0.211-0.393,0.433-0.256C252.973,66.38,253.883,68.152,253.709,70.024z"/>
	<path fill="#B59737" d="M240.564,62.398c0.029,0.092,0.035,0.193,0.012,0.301c-0.085,0.346-0.424,0.451-0.731,0.504
		c-0.778,0.143-2.146,0.334-2.842-0.177c-0.655-0.483,0.135-1.165,0.625-1.345c0.896-0.333,1.904,0.006,2.747,0.339
		C240.547,62.087,240.597,62.255,240.564,62.398z"/>
	<path fill="#B59737" d="M244.986,62.083c0.062,0.162-0.027,0.276-0.15,0.326c-0.074,0.127-0.233,0.213-0.401,0.125
		c-0.961-0.492-1.952-1.016-2.694-1.816c-0.398-0.43-1.262-1.485-0.545-2.001c0.666-0.48,1.559,0.294,2.019,0.716
		C244.016,60.162,244.597,61.076,244.986,62.083z"/>
	<path fill="#B59737" d="M247.787,61.634c0.127,0.298-0.274,0.451-0.483,0.271c-1.389,0.268-2.65-2.855-2.223-3.893
		c0.262-0.643,0.922-0.321,1.211,0.112c0.315,0.469,0.48,1.097,0.699,1.612C247.256,60.371,247.521,61,247.787,61.634z"/>
	<path fill="#B59737" d="M242.377,54.592c-0.239-0.493-0.743-1.486-0.227-1.955c0.598-0.545,1.323,0.359,1.66,0.793
		c0.595,0.761,0.955,1.657,1.087,2.612c0.024,0.162-0.074,0.28-0.191,0.336c-0.009,0.035-0.021,0.073-0.042,0.112
		c-0.135,0.247-0.498,0.288-0.687,0.079c-0.033-0.032-0.053-0.07-0.065-0.106C243.273,55.954,242.74,55.334,242.377,54.592z"/>
	<path fill="#B59737" d="M248.877,57.106c0.006,0.112-0.059,0.207-0.15,0.26c-0.165,0.142-0.431,0.003-0.463-0.209
		c-0.469-0.899-1.804-4.413-0.059-4.318c0.796,0.041,1.038,1.096,1.111,1.709C249.423,55.441,249.249,56.301,248.877,57.106z"/>
	<path fill="#B59737" d="M236.714,55.27c0.354-0.648,1.055-0.368,1.571-0.095c0.749,0.398,1.33,1.044,1.686,1.808
		c0.009,0.015,0.009,0.029,0.012,0.041c0.003,0,0.006,0.003,0.009,0.003c0.38-0.003,0.38,0.587,0,0.59
		c-0.911,0.003-1.801-0.236-2.553-0.761C236.944,56.514,236.367,55.913,236.714,55.27z"/>
	<path fill="#B59737" d="M251.504,59.447c-0.006,0.003-0.016,0.003-0.023,0.009c-0.117,0.263-0.584,0.23-0.561-0.108
		c0.064-0.882,0.41-3.824,2.002-3.004C254.316,57.059,252.197,59.052,251.504,59.447z"/>
	<path fill="#B59737" d="M244.237,65.319c-1.191,1.067-2.729,1.489-4.304,1.181c-0.174-0.033-0.289-0.287-0.177-0.435
		c1.126-1.485,3.054-1.993,4.767-1.259C244.868,64.957,244.576,65.453,244.237,65.319z"/>
	<path fill="#B59737" d="M248.633,75.912c-0.192,0.465-0.737,0.777-1.206,0.506c-0.536-0.31-0.551-1.146-0.51-1.686
		c0.065-0.796,0.389-1.501,0.89-2.113c0.124-0.154,0.295-0.109,0.398,0.006c0.139,0.012,0.277,0.104,0.295,0.276
		c0.059,0.603,0.121,1.203,0.18,1.806C248.718,75.103,248.789,75.531,248.633,75.912z"/>
	<path fill="#B59737" d="M254.502,75.791c0.092,0.558-0.162,1.301-0.857,1.24c-0.651-0.056-1.145-0.926-1.348-1.455
		c-0.292-0.762-0.277-1.59,0.012-2.348c0.053-0.137,0.172-0.193,0.287-0.197c0.111-0.139,0.37-0.188,0.512,0.004
		C253.691,73.815,254.337,74.808,254.502,75.791z"/>
	<path fill="#B59737" d="M254.396,58.338c0.511-0.863,1.119-1.713,1.97-2.278c0.438-0.292,1.655-0.967,2.051-0.289
		c0.397,0.678-0.513,1.604-0.983,1.966c-0.759,0.587-1.691,0.888-2.598,1.159c-0.168,0.05-0.286-0.045-0.336-0.168
		C254.375,58.651,254.299,58.498,254.396,58.338z"/>
	<path fill="#B59737" d="M257.494,61.944c-0.955,0.384-2.025,0.365-3.037,0.33c-0.693-0.021,0.887-2.051,2.488-2.497
		c0.593-0.165,1.691-0.368,1.961,0.404C259.197,61.018,258.121,61.69,257.494,61.944z"/>
	<path fill="#B59737" d="M262.537,70.891c-1.418,0.571-3.039-0.692-3.342-2.043c-0.08-0.353,0.424-0.505,0.548-0.204
		c0.041-0.025,0.095-0.047,0.165-0.038c0.932,0.093,1.938,0.371,2.683,0.97C263.07,69.962,263.204,70.621,262.537,70.891z"/>
	<path fill="#B59737" d="M258.363,65.009c-0.279-0.215-0.035-0.682,0.248-0.543c0.015-0.094,0.074-0.186,0.197-0.221
		c1.325-0.39,2.664-0.104,3.739,0.758c0.14,0.111,0.104,0.393-0.06,0.463C261.113,66.074,259.566,65.929,258.363,65.009z"/>
	<path fill="#B59737" d="M252.049,54.999c-0.063-0.05-0.104-0.121-0.1-0.221c0.018-0.775-0.051-3.658,1.496-2.951
		c1.693,0.772-0.287,2.624-0.43,3.62c-0.035,0.242-0.283,0.26-0.441,0.139c-0.186,0.153-0.549,0-0.475-0.301
		C252.126,55.184,252.111,55.082,252.049,54.999z"/>
	<path fill="#B59737" d="M262.697,61.224c-0.803,0.404-1.723,0.445-2.568,0.15c-0.008-0.004-0.014-0.013-0.021-0.016
		c-0.186,0.09-0.438,0.01-0.412-0.244c0.086-0.771,0.563-1.386,1.295-1.666c0.648-0.247,1.939-0.304,2.471,0.245
		C264.044,60.302,263.201,60.968,262.697,61.224z"/>
	<path fill="#B59737" d="M243.273,73.57c-0.118,0.658-1.238,4.477-2.432,3.443c-0.495-0.428-0.139-1.374,0.065-1.863
		c0.336-0.799,0.887-1.441,1.598-1.938c0.121-0.084,0.239-0.059,0.321,0.019C243.008,73.13,243.324,73.291,243.273,73.57z"/>
	<path fill="#B59737" d="M239.58,68.5c-0.542,0.547-1.149,1.127-1.913,1.33c-0.445,0.121-1.359,0.178-1.324-0.52
		c0.033-0.611,0.687-1.303,1.2-1.559c0.607-0.305,1.291-0.219,1.815,0.199c0.024,0.018,0.042,0.035,0.056,0.057
		C239.615,68.048,239.771,68.311,239.58,68.5z"/>
	<path fill="#B59737" d="M246.746,69.541c0.085,0.112,0.103,0.287-0.018,0.403c-0.059,0.858-0.312,1.695-0.775,2.431
		c-0.315,0.498-0.991,1.385-1.674,0.939c-0.613-0.398-0.257-1.447,0.032-1.945c0.427-0.74,1.138-1.272,1.839-1.742
		c0.003-0.039,0.006-0.076,0.006-0.117c0-0.381,0.59-0.381,0.59,0V69.541z"/>
	<path fill="#B59737" d="M243.547,68.565c-0.289,0.854-0.766,1.63-1.438,2.237c-0.38,0.342-1.3,1.148-1.795,0.557
		c-0.254-0.303-0.095-0.697,0.026-1.021c0.165-0.445,0.348-0.889,0.64-1.269c0.483-0.637,1.273-1.008,2.061-0.767
		C243.226,68.089,243.654,68.248,243.547,68.565z"/>
	<path fill="#B59737" d="M257.148,71.785c0.228,0.438,0.584,1.19,0.092,1.586c-1.254,0.996-2.229-2.678-2.322-3.338
		c-0.051-0.371,0.516-0.529,0.568-0.156c0.006,0.029,0.012,0.074,0.022,0.131C256.193,70.458,256.771,71.048,257.148,71.785z"/>
	<path fill="#B59737" d="M258.381,68.921c-0.967,1.406-3.654-1.104-4.333-1.821c-0.222-0.233,0.048-0.565,0.292-0.492
		c0.053-0.124,0.174-0.226,0.34-0.194C255.445,66.542,259.348,67.515,258.381,68.921z"/>
	<path fill="#B59737" d="M251.15,69.38c0.485,0.738,0.869,1.637,0.877,2.535c0.008,0.467-0.18,1.092-0.713,1.183
		c-0.666,0.118-0.952-0.666-1.062-1.173c-0.183-0.844-0.091-1.698,0.233-2.491c0.069-0.168,0.239-0.218,0.377-0.187
		C250.967,69.234,251.076,69.269,251.15,69.38z"/>
</g>
<path fill="#B59737" d="M458.692,64.259c-0.437-0.01-0.85-0.012-1.264-0.031c-0.728-0.035-1.455-0.123-2.182-0.113
	c-1.666,0.024-3.306,0.182-4.836,0.914c-0.613-0.009-1.234-0.121-1.9-0.227c0.708-0.459,1.297-0.834,1.876-1.219
	c1.512-1.008,2.124-2.51,2.284-4.238c0.031-0.335,0.113-0.744-0.307-0.96c-0.37,0.229-0.718,0.455-1.074,0.664
	c-0.629,0.368-1.285,0.691-1.889,1.097c-1.676,1.128-3.226,2.383-4.063,4.378c-2.123,0.097-4.25,0.603-6.648,0.228
	c2.403-1.719,4.222-3.567,4.082-6.79c-0.82,0.484-1.518,0.838-2.148,1.279c-1.902,1.326-3.6,2.816-3.795,5.469
	c-0.557,0-1.098,0.017-1.639-0.002c-1.835-0.06-3.67,0.34-5.507-0.026c-0.776-0.154-1.569-0.233-2.5-0.367
	c4.154-2.132,5.2-4.147,4.805-6.797c-0.848,0.292-1.624,0.674-2.319,1.211c-1.035,0.797-2.059,1.606-3.07,2.435
	c-0.938,0.764-1.694,1.643-1.6,3.051c-0.85-0.041-1.643-0.021-2.413-0.135c-1.124-0.168-2.231-0.215-3.345,0.047
	c-1.185,0.279-2.365,0.261-3.65-0.037c0.196-0.164,0.313-0.254,0.42-0.352c0.742-0.664,1.539-1.273,2.205-2.007
	c0.74-0.813,1.313-1.759,1.225-2.946c-0.022-0.297,0.009-0.63-0.393-0.723c-2.325,1.855-5.07,3.284-6.199,6.287
	c-1.067,0.052-2.066,0.097-3.063,0.152c-0.94,0.053-1.877,0.139-2.816,0.168c-0.912,0.027-1.825,0.008-2.737-0.008
	c-0.152-0.004-0.304-0.102-0.439-0.148c0.737-0.751,1.49-1.414,2.119-2.182c0.61-0.744,1.11-1.58,1.622-2.398
	c0.197-0.319,0.008-0.62-0.36-0.594c-0.387,0.026-0.796,0.072-1.148,0.221c-2.258,0.939-3.61,2.738-4.559,4.877h-7.958
	c0.247-0.15,0.362-0.225,0.479-0.293c0.735-0.43,1.362-0.955,1.907-1.641c0.74-0.93,1.037-2.037,1.505-3.077
	c0.17-0.379,0.088-0.78-0.255-1.07c-0.053-0.045-0.167-0.017-0.319-0.024c-0.021,0.216-0.04,0.413-0.059,0.6
	c-2.104,1.438-4.583,2.48-5.462,5.24c-1.569,0.429-3.153,0.066-4.723,0.123c-1.549,0.056-3.099,0.011-4.646,0.011
	c1.564-1.026,2.72-2.386,3.726-3.872c0.334-0.493,0.549-1.072,0.778-1.628c0.051-0.12-0.065-0.31-0.138-0.596
	c-1.251,0.594-2.441,1.104-3.583,1.712c-1.74,0.927-2.942,2.291-3.226,4.438c-0.706,0-1.432,0.004-2.153-0.002
	c-2.675-0.018-5.352-0.029-8.026-0.063c-0.324-0.002-0.691,0.041-1.001-0.235c0.107-0.054,0.158-0.085,0.216-0.104
	c0.057-0.018,0.118-0.02,0.178-0.035c1.924-0.563,3.44-1.662,4.338-3.475c0.457-0.921,0.768-1.914,1.121-2.882
	c0.061-0.162,0.01-0.362,0.01-0.591c-0.214,0.048-0.315,0.044-0.38,0.09c-1.138,0.809-2.268,1.623-3.401,2.431
	c-1.716,1.225-3.113,2.694-3.718,4.859c-3.033-0.125-6.036-0.248-9.198-0.377c2.314-1.56,3.908-3.392,4.375-6.098
	c-0.222-0.149-0.435-0.292-0.711-0.477c-0.257,0.704-0.817,0.848-1.392,1.07c-1.69,0.649-3.133,1.637-3.794,3.431
	c-0.232,0.636-0.354,1.312-0.53,1.987c-3.198,0.074-6.458,0.152-9.866,0.232c0.316-0.328,0.511-0.552,0.728-0.746
	c1.146-1.024,2.065-2.203,2.639-3.65c0.209-0.529,0.539-1.011,0.795-1.522c0.199-0.397,0.232-0.794-0.122-1.208
	c-0.317,0.367-0.566,0.743-0.898,1.02c-0.793,0.657-1.617,1.276-2.443,1.894c-1.347,1.01-2.306,2.239-2.377,4.004
	c-0.001,0.051-0.06,0.098-0.094,0.146c-3.315,0.238-11.248,0.193-12.037-0.12c1.727-0.271,2.748-1.358,3.731-2.551
	c1.015-1.226,1.701-2.534,1.678-4.252c-0.803,0.157-1.399,0.499-1.936,0.923c-2.01,1.583-3.766,3.357-4.288,6.074
	c-2.57-0.02-5.095,0.113-7.638-0.256c0.469-0.446,0.893-0.834,1.294-1.241c1.297-1.312,1.729-3.115,2.618-4.658
	c0.232-0.402,0.008-0.614-0.326-0.718c-1.037,0.95-2,1.828-2.959,2.708c-1.265,1.156-2.8,2.093-3.189,4.044
	c-1.251,0-2.469-0.017-3.684,0.005c-1.699,0.025-3.399,0.083-5.102,0.109c-0.203,0.004-0.405-0.09-0.607-0.139
	c-0.009-0.063-0.016-0.126-0.022-0.188c1.248-0.413,2.025-1.334,2.632-2.4c0.597-1.052,1.249-2.113,0.96-3.408
	c-0.734-0.003-0.888,0.605-1.275,0.916c-0.899,0.722-1.809,1.433-2.719,2.142c-0.775,0.604-1.496,1.256-1.863,2.197
	c-0.249,0.641-0.798,0.897-1.379,0.926c-2.307,0.102-4.614,0.141-6.923,0.191c-0.186,0.004-0.37-0.072-0.473-0.095
	c0.668-0.687,1.33-1.342,1.967-2.024c1.035-1.117,1.792-2.412,2.338-3.83c0.077-0.197,0.036-0.441,0.059-0.797
	c-1.289,0.435-2.404,0.872-3.271,1.77c-1.157,1.198-1.866,2.588-1.736,4.124c-0.443,0.342-0.771,0.593-1.099,0.844
	c-3.293,0.227-6.661,0.168-10.169-0.044c3.158-1.407,5.715-4.964,4.916-6.82c-0.162,0.156-0.299,0.293-0.439,0.424
	c-0.174,0.157-0.332,0.34-0.527,0.459c-1.223,0.732-2.471,1.418-3.674,2.179c-0.926,0.585-1.601,1.382-1.74,2.53
	c-0.055,0.441-0.129,0.885-0.198,1.367c-1.806,0-3.619-0.025-5.433,0.008c-1.832,0.035-3.664,0.15-5.535,0.056
	c0.063-0.164,0.068-0.233,0.106-0.269c1.792-1.554,3.106-3.475,4.245-5.525c0.145-0.259,0.211-0.565,0.289-0.854
	c0.072-0.269,0.135-0.607-0.196-0.698c-0.163-0.045-0.415,0.152-0.599,0.279c-0.363,0.256-0.693,0.562-1.063,0.81
	c-0.806,0.541-1.646,1.03-2.431,1.601c-0.409,0.296-0.749,0.699-1.087,1.082c-0.7,0.793-1.379,1.603-2.063,2.407
	c-0.322,0.379-0.637,0.763-1.015,1.216c-0.604,0-1.299-0.005-1.994,0.002c-0.668,0.005-1.336,0.011-2.002,0.037
	c-0.692,0.028-1.385,0.084-2.079,0.129c-0.664,0.045-1.333,0.072-1.994,0.144c-0.656,0.067-1.351-0.184-1.992,0.229
	c0.192,0.178,0.397,0.301,0.604,0.296c0.85-0.008,1.699-0.021,2.546-0.093c0.683-0.059,1.175,0.117,1.685,0.629
	c1.265,1.26,2.598,2.454,3.947,3.62c0.497,0.43,1.166,0.657,1.676,1.075c0.252,0.203,0.453,0.349,0.693,0.177
	c0.254-0.185,0.461-0.403,0.391-0.835c-0.25-1.521-1.121-2.592-2.34-3.428c-0.623-0.426-1.283-0.795-1.929-1.19
	c0.022-0.052,0.044-0.104,0.065-0.155h9.902c0.12,0.189,0.242,0.33,0.311,0.492c0.82,1.96,2.209,3.372,4.07,4.374
	c1.164,0.629,2.35,0.871,3.688,0.524c-0.469-2.987-2.666-4.344-5.093-5.506c1.214-0.002,2.396,0.11,3.572,0.076
	c0.854-0.025,1.742,0.476,2.569-0.113c1.212,0.051,2.423,0.105,3.636,0.147c0.351,0.013,0.545,0.187,0.696,0.487
	c0.177,0.348,0.331,0.742,0.606,0.998c1.752,1.604,3.642,3.016,5.854,3.934c0.142,0.059,0.339-0.018,0.593-0.035
	c-0.019-0.381,0.021-0.721-0.057-1.029c-0.259-1.024-0.758-1.928-1.586-2.604c-0.712-0.58-1.466-1.107-2.337-1.76
	c1.021,0,1.871,0.018,2.719-0.003c1.211-0.032,2.429-0.041,3.634-0.16c0.797-0.078,1.271,0.341,1.768,0.822
	c1.352,1.317,2.752,2.563,4.476,3.403c0.649,0.315,1.235,0.754,1.866,1.11c0.16,0.091,0.377,0.085,0.678,0.146
	c-0.196-2.86-1.957-4.403-4.222-5.608c0.778-0.083,1.509-0.069,2.237-0.086c0.815-0.021,1.633-0.093,2.448-0.093
	c0.727-0.002,1.454,0.128,2.177,0.078c0.617-0.039,1.053,0.234,1.442,0.597c0.867,0.804,1.675,1.672,2.547,2.464
	c1.035,0.939,2.148,1.787,3.459,2.316c0.282,0.113,0.607,0.121,1.054,0.201c-0.17-0.748-0.268-1.34-0.439-1.912
	c-0.337-1.113-1.209-1.805-2.106-2.43c-0.7-0.484-1.478-0.861-2.313-1.339c3.293-0.024,6.478-0.243,9.653,0.188
	c0.401,1.701,1.359,3.047,2.681,4.115c1.295,1.045,2.617,2.072,4.471,2.66c-0.332-1.084-0.498-1.988-0.878-2.795
	c-0.851-1.813-2.444-2.926-4.073-4.027c0.198-0.106,0.363-0.156,0.525-0.151c0.757,0.026,1.514,0.093,2.271,0.101
	c1.701,0.02,3.405,0.012,5.107,0.018c0.655,0.002,0.895,0.215,1.089,0.844c0.125,0.398,0.265,0.818,0.505,1.152
	c1.127,1.568,2.598,2.699,4.425,3.363c0.325,0.117,0.606,0.356,0.904,0.549c0.325,0.205,0.629,0.488,1.141,0.224
	c-0.241-1.501-1.08-2.675-2.007-3.785c-0.938-1.122-2.293-1.667-3.532-2.388c0.683-0.031,1.337-0.012,1.991,0.029
	c0.51,0.033,1.034,0.029,1.522,0.162c0.375,0.1,0.689,0.092,1.058-0.002c0.52-0.134,1.062-0.238,1.598-0.257
	c1.15-0.042,2.301-0.021,3.451-0.022c0.234,0,0.469,0,0.756,0c-0.104,0.277-0.185,0.496-0.258,0.688
	c0.244,0.317,0.525,0.57,0.664,0.886c0.443,1.01,1.216,1.748,2.022,2.424c1.109,0.93,2.24,1.888,3.895,1.707
	c0.218-0.375,0.247-0.81,0.046-1.188c-0.365-0.69-0.726-1.409-1.22-2.004c-0.963-1.151-2.211-1.955-3.715-2.589
	c0.211-0.047,0.285-0.077,0.357-0.075c1.303,0.036,2.604,0.087,3.908,0.108c0.332,0.006,0.459,0.207,0.637,0.422
	c0.332,0.402,0.645,0.445,0.879,0.049c0.275-0.469,0.629-0.48,1.07-0.45c1.058,0.076,2.115,0.144,3.178,0.197
	c0.752,0.038,1.328,0.29,1.799,0.952c0.976,1.375,2.169,2.545,3.717,3.283c0.722,0.342,1.464,0.639,2.236,0.974
	c0.295-0.199,0.226-0.513,0.153-0.854c-0.198-0.961-0.702-1.75-1.38-2.42c-0.588-0.587-1.234-1.113-1.931-1.734
	c1.144-0.059,2.195-0.157,3.246-0.153c1.396,0,2.788,0.112,4.185,0.11c0.565-0.002,0.979,0.177,1.308,0.604
	c0.11,0.144,0.202,0.298,0.304,0.448c1.166,1.72,2.425,3.337,4.312,4.357c0.459,0.25,0.805,0.707,1.216,1.055
	c0.146,0.125,0.331,0.201,0.498,0.302c0.833-1.462,0.2-3.546-0.841-4.368c-0.965-0.762-2.038-1.313-3.149-1.811
	c-0.307-0.139-0.605-0.288-0.909-0.434c2.786-0.145,5.518-0.193,8.248-0.214c0.165-0.003,0.405,0.171,0.488,0.329
	c1.397,2.604,3.59,4.373,6.068,5.854c0.42,0.252,0.848,0.438,1.346,0.392c0.186-0.759,0.109-1.19-0.279-2.021
	c-0.723-1.545-1.896-2.648-3.355-3.471c-0.677-0.38-1.38-0.713-2.253-1.162c0.399,0,0.582-0.005,0.764,0.002
	c2.692,0.098,5.379,0.346,8.077,0.194c0.594-0.03,1.052,0.289,1.353,0.845c0.287,0.531,0.615,1.053,0.992,1.521
	c0.683,0.854,1.421,1.658,2.117,2.496c0.742,0.895,1.742,1.375,2.787,1.787c0.114,0.045,0.271-0.017,0.378-0.027
	c-0.198-0.539-0.376-1.033-0.563-1.525c-0.189-0.504-0.299-1.068-0.598-1.498c-0.93-1.338-2.076-2.453-3.595-3.131
	c-0.188-0.082-0.335-0.252-0.622-0.474c3.34,0.075,6.493,0.147,9.692,0.222c1.533,2.605,3.616,4.54,6.824,5.02
	c0.256-0.406,0.115-0.805-0.079-1.184c-0.595-1.162-1.458-2.091-2.547-2.8c-0.553-0.358-1.136-0.669-1.706-1.002
	c0.017-0.049,0.03-0.099,0.045-0.147c2.413-0.105,4.828-0.211,7.229-0.316c0.334,0.449,0.766,0.822,0.906,1.283
	c0.153,0.507,0.458,0.851,0.801,1.164c1.117,1.029,2.311,1.959,3.707,2.606c0.454,0.21,0.855,0.544,1.252,0.861
	c0.52,0.415,0.649,0.392,0.988-0.183c-0.265-0.461-0.542-0.84-0.714-1.264c-0.723-1.787-1.959-3.046-3.751-3.755
	c-0.496-0.196-0.996-0.39-1.588-0.617c1.378-0.337,2.651-0.463,3.952-0.271c0.568,0.082,1.145,0.164,1.717,0.174
	c1.567,0.023,3.129,0.105,4.679,0.352c0.332,0.053,0.821,0.178,0.923,0.409c0.339,0.771,0.98,1.226,1.56,1.749
	c1.785,1.614,3.802,2.854,6.103,3.689c0.237-0.373,0.368-0.698-0.063-1.028c-0.135-0.104-0.241-0.267-0.325-0.422
	c-0.908-1.712-2.317-2.847-4.077-3.586c-0.197-0.082-0.375-0.214-0.734-0.423c0.441-0.092,0.672-0.176,0.904-0.182
	c1.002-0.027,2.005-0.035,3.009-0.041c0.865-0.005,1.73-0.014,2.595,0.021c0.543,0.021,1.086,0.175,1.625,0.161
	c0.67-0.018,1.141,0.224,1.557,0.736c1.56,1.912,3.462,3.381,5.752,4.338c0.188,0.078,0.386,0.203,0.509,0.359
	c0.2,0.255,0.471,0.395,0.688,0.195c0.16-0.143,0.222-0.485,0.193-0.725c-0.092-0.77-0.484-1.398-0.971-2.002
	c-1.097-1.361-2.6-2.054-4.173-2.646c-0.202-0.076-0.391-0.19-0.587-0.286c0.883-0.195,1.729-0.307,2.568-0.268
	c1.483,0.066,2.968,0.187,4.442,0.363c0.01,0,0.02,0.002,0.027,0.002c0.003,0.004,0.005,0.006,0.007,0.01
	c0.617,0.428,1.503,1.039,2.119,1.467c0.004,0,0.008,0.003,0.013,0.004c0.352,0.121,0.715,0.271,1.065,0.441
	c0.26,0,0.521,0,0.772-0.002c1.814-0.018,3.148-0.939,4.229-2.301C458.635,64.966,458.927,64.669,458.692,64.259z"/>
<path fill="#B59737" d="M39.509,64.708c0.436-0.01,0.849-0.012,1.263-0.031c0.728-0.035,1.455-0.123,2.182-0.113
	c1.666,0.023,3.306,0.182,4.836,0.914c0.613-0.01,1.234-0.121,1.9-0.227c-0.708-0.459-1.297-0.834-1.876-1.219
	c-1.511-1.009-2.124-2.511-2.284-4.238c-0.031-0.335-0.113-0.745,0.307-0.96c0.37,0.229,0.717,0.455,1.074,0.664
	c0.629,0.369,1.285,0.691,1.889,1.097c1.675,1.128,3.225,2.383,4.063,4.378c2.123,0.097,4.25,0.603,6.649,0.228
	c-2.404-1.72-4.222-3.568-4.082-6.79c0.82,0.484,1.517,0.838,2.148,1.279c1.902,1.326,3.6,2.815,3.795,5.47
	c0.556,0,1.098,0.016,1.639-0.002c1.834-0.06,3.669,0.34,5.506-0.027c0.777-0.153,1.57-0.232,2.5-0.366
	c-4.154-2.132-5.2-4.147-4.804-6.797c0.847,0.292,1.624,0.674,2.319,1.211c1.035,0.797,2.059,1.607,3.07,2.434
	c0.938,0.765,1.695,1.644,1.6,3.052c0.849-0.041,1.642-0.021,2.413-0.136c1.124-0.167,2.231-0.214,3.345,0.048
	c1.184,0.278,2.365,0.26,3.65-0.037c-0.196-0.164-0.313-0.254-0.42-0.352c-0.742-0.664-1.539-1.273-2.205-2.007
	c-0.74-0.813-1.313-1.759-1.225-2.946c0.023-0.297-0.008-0.63,0.393-0.723c2.325,1.856,5.07,3.284,6.199,6.288
	c1.068,0.052,2.067,0.097,3.064,0.152c0.94,0.053,1.877,0.139,2.816,0.168c0.912,0.027,1.825,0.008,2.737-0.009
	c0.153-0.003,0.304-0.101,0.44-0.147c-0.737-0.752-1.49-1.414-2.119-2.182c-0.611-0.744-1.111-1.58-1.622-2.398
	c-0.198-0.319-0.008-0.62,0.36-0.594c0.387,0.025,0.796,0.071,1.148,0.221c2.258,0.939,3.611,2.738,4.559,4.877h7.958
	c-0.247-0.15-0.362-0.225-0.479-0.293c-0.736-0.43-1.363-0.955-1.908-1.641c-0.74-0.931-1.037-2.037-1.505-3.076
	c-0.169-0.379-0.087-0.78,0.255-1.07c0.053-0.045,0.167-0.017,0.32-0.024c0.021,0.216,0.04,0.413,0.058,0.6
	c2.105,1.438,4.583,2.48,5.462,5.241c1.57,0.428,3.154,0.066,4.723,0.123c1.549,0.055,3.098,0.01,4.645,0.01
	c-1.564-1.026-2.719-2.385-3.725-3.871c-0.334-0.493-0.549-1.072-0.779-1.628c-0.05-0.12,0.066-0.31,0.138-0.596
	c1.251,0.594,2.442,1.104,3.583,1.712c1.74,0.926,2.943,2.291,3.226,4.438c0.706,0,1.431,0.004,2.153-0.002
	c2.675-0.018,5.352-0.03,8.026-0.063c0.325-0.002,0.692,0.041,1.001-0.236c-0.107-0.053-0.158-0.084-0.215-0.104
	c-0.057-0.018-0.119-0.02-0.178-0.035c-1.924-0.563-3.441-1.662-4.338-3.476c-0.457-0.92-0.768-1.913-1.121-2.881
	c-0.061-0.162-0.01-0.362-0.01-0.591c0.214,0.048,0.316,0.044,0.38,0.09c1.138,0.809,2.268,1.623,3.401,2.431
	c1.716,1.226,3.114,2.694,3.718,4.858c3.033-0.125,6.036-0.247,9.198-0.377c-2.314-1.559-3.908-3.391-4.375-6.097
	c0.222-0.149,0.435-0.292,0.711-0.477c0.257,0.704,0.818,0.848,1.392,1.07c1.69,0.649,3.133,1.637,3.794,3.431
	c0.232,0.635,0.354,1.312,0.53,1.987c3.198,0.074,6.458,0.152,9.866,0.232c-0.316-0.328-0.51-0.552-0.727-0.746
	c-1.146-1.025-2.066-2.203-2.639-3.65c-0.209-0.529-0.539-1.011-0.795-1.522c-0.199-0.397-0.232-0.794,0.122-1.208
	c0.318,0.367,0.567,0.743,0.899,1.02c0.793,0.657,1.617,1.276,2.443,1.894c1.347,1.01,2.306,2.239,2.377,4.004
	c0.001,0.051,0.06,0.098,0.094,0.146c3.315,0.238,11.248,0.193,12.037-0.12c-1.727-0.271-2.748-1.358-3.732-2.552
	c-1.014-1.226-1.701-2.533-1.677-4.251c0.802,0.157,1.399,0.499,1.935,0.923c2.01,1.583,3.766,3.358,4.288,6.075
	c2.571-0.021,5.095,0.113,7.638-0.256c-0.469-0.447-0.893-0.834-1.294-1.242c-1.297-1.312-1.728-3.114-2.618-4.657
	c-0.232-0.402-0.008-0.614,0.326-0.718c1.037,0.95,2,1.828,2.959,2.708c1.265,1.156,2.8,2.092,3.19,4.043
	c1.251,0,2.468-0.016,3.683,0.006c1.699,0.025,3.4,0.082,5.102,0.109c0.203,0.004,0.405-0.09,0.607-0.139
	c0.009-0.063,0.016-0.126,0.023-0.188c-1.248-0.414-2.026-1.334-2.632-2.4c-0.597-1.053-1.249-2.113-0.96-3.408
	c0.734-0.003,0.887,0.605,1.275,0.916c0.9,0.723,1.809,1.434,2.719,2.143c0.775,0.604,1.496,1.256,1.863,2.196
	c0.249,0.642,0.798,0.897,1.379,0.927c2.307,0.102,4.614,0.141,6.923,0.191c0.185,0.004,0.37-0.072,0.472-0.096
	c-0.668-0.686-1.33-1.342-1.966-2.024c-1.036-1.116-1.792-2.411-2.338-3.829c-0.077-0.197-0.036-0.441-0.058-0.797
	c1.289,0.435,2.403,0.872,3.271,1.77c1.157,1.199,1.866,2.588,1.736,4.125c0.444,0.342,0.771,0.593,1.099,0.844
	c3.293,0.227,6.661,0.168,10.169-0.044c-3.158-1.408-5.715-4.964-4.916-6.82c0.162,0.156,0.299,0.293,0.439,0.424
	c0.174,0.157,0.332,0.34,0.528,0.459c1.222,0.732,2.47,1.418,3.674,2.178c0.925,0.586,1.6,1.383,1.739,2.531
	c0.055,0.441,0.129,0.885,0.199,1.367c1.806,0,3.619-0.025,5.432,0.008c1.832,0.034,3.664,0.15,5.536,0.055
	c-0.064-0.164-0.069-0.233-0.107-0.268c-1.792-1.554-3.106-3.475-4.245-5.526c-0.145-0.259-0.211-0.565-0.289-0.854
	c-0.072-0.269-0.135-0.607,0.196-0.698c0.164-0.045,0.415,0.152,0.599,0.279c0.363,0.256,0.693,0.562,1.062,0.81
	c0.806,0.541,1.646,1.03,2.431,1.601c0.409,0.296,0.749,0.698,1.087,1.082c0.7,0.793,1.379,1.603,2.063,2.407
	c0.322,0.379,0.636,0.763,1.014,1.216c0.604,0,1.299-0.005,1.994,0.002c0.668,0.004,1.336,0.01,2.002,0.037
	c0.693,0.028,1.385,0.084,2.079,0.129c0.665,0.045,1.333,0.071,1.995,0.144c0.656,0.067,1.35-0.184,1.992,0.229
	c-0.193,0.178-0.398,0.3-0.604,0.296c-0.85-0.009-1.699-0.021-2.546-0.093c-0.682-0.059-1.175,0.117-1.685,0.629
	c-1.264,1.26-2.597,2.453-3.947,3.619c-0.497,0.431-1.166,0.658-1.676,1.076c-0.251,0.203-0.453,0.348-0.693,0.176
	c-0.254-0.184-0.461-0.403-0.39-0.834c0.249-1.521,1.12-2.592,2.34-3.428c0.622-0.427,1.283-0.795,1.928-1.19
	c-0.022-0.052-0.044-0.104-0.066-0.155h-9.902c-0.12,0.189-0.242,0.33-0.31,0.492c-0.82,1.96-2.209,3.372-4.07,4.374
	c-1.165,0.629-2.35,0.871-3.689,0.524c0.469-2.988,2.666-4.344,5.093-5.506c-1.214-0.002-2.396,0.11-3.572,0.075
	c-0.854-0.024-1.743,0.476-2.57-0.112c-1.212,0.051-2.423,0.105-3.636,0.147c-0.35,0.013-0.545,0.187-0.696,0.487
	c-0.176,0.348-0.331,0.742-0.606,0.998c-1.752,1.604-3.642,3.016-5.855,3.934c-0.141,0.059-0.338-0.018-0.592-0.035
	c0.018-0.382-0.021-0.721,0.056-1.029c0.259-1.024,0.758-1.929,1.586-2.604c0.712-0.581,1.466-1.107,2.337-1.76
	c-1.02,0-1.871,0.018-2.719-0.004c-1.211-0.031-2.428-0.041-3.633-0.159c-0.797-0.078-1.272,0.341-1.768,0.821
	c-1.352,1.318-2.752,2.564-4.476,3.404c-0.649,0.315-1.235,0.754-1.866,1.11c-0.16,0.091-0.377,0.085-0.678,0.146
	c0.197-2.861,1.957-4.404,4.222-5.608c-0.778-0.083-1.509-0.069-2.237-0.087c-0.816-0.02-1.633-0.092-2.449-0.092
	c-0.726-0.002-1.454,0.127-2.176,0.078c-0.617-0.039-1.053,0.233-1.443,0.596c-0.867,0.805-1.674,1.673-2.547,2.465
	c-1.035,0.939-2.148,1.787-3.459,2.316c-0.282,0.113-0.607,0.121-1.053,0.201c0.17-0.748,0.267-1.341,0.439-1.912
	c0.337-1.113,1.209-1.806,2.107-2.43c0.7-0.484,1.477-0.861,2.313-1.339c-3.293-0.024-6.477-0.244-9.653,0.188
	c-0.402,1.701-1.36,3.047-2.681,4.114c-1.295,1.046-2.617,2.073-4.471,2.661c0.332-1.083,0.499-1.988,0.878-2.794
	c0.851-1.812,2.445-2.926,4.074-4.028c-0.199-0.105-0.364-0.156-0.526-0.15c-0.757,0.027-1.513,0.093-2.27,0.101
	c-1.701,0.019-3.406,0.011-5.108,0.019c-0.655,0-0.894,0.213-1.089,0.843c-0.125,0.399-0.264,0.819-0.504,1.151
	c-1.127,1.568-2.598,2.699-4.425,3.363c-0.325,0.118-0.607,0.357-0.905,0.549c-0.325,0.205-0.628,0.49-1.14,0.225
	c0.241-1.502,1.08-2.674,2.007-3.785c0.938-1.122,2.293-1.667,3.532-2.389c-0.683-0.03-1.337-0.012-1.991,0.031
	c-0.51,0.032-1.035,0.028-1.523,0.16c-0.375,0.102-0.689,0.094-1.057-0.002c-0.52-0.133-1.062-0.238-1.598-0.256
	c-1.15-0.042-2.301-0.02-3.451-0.021c-0.235,0-0.469,0-0.756,0c0.103,0.275,0.184,0.494,0.258,0.688
	c-0.244,0.316-0.526,0.57-0.664,0.886c-0.444,1.009-1.216,1.747-2.023,2.425c-1.109,0.928-2.24,1.887-3.894,1.705
	c-0.218-0.375-0.247-0.809-0.046-1.188c0.365-0.691,0.725-1.409,1.22-2.004c0.962-1.152,2.21-1.955,3.714-2.59
	c-0.211-0.045-0.285-0.076-0.357-0.074c-1.303,0.035-2.604,0.087-3.908,0.109c-0.332,0.006-0.459,0.207-0.637,0.422
	c-0.332,0.4-0.645,0.443-0.879,0.047c-0.275-0.467-0.629-0.48-1.07-0.449c-1.058,0.076-2.115,0.143-3.178,0.197
	c-0.752,0.039-1.328,0.289-1.799,0.953c-0.975,1.375-2.169,2.545-3.717,3.283c-0.721,0.342-1.463,0.637-2.236,0.973
	c-0.295-0.199-0.225-0.512-0.153-0.854c0.198-0.961,0.702-1.75,1.38-2.421c0.588-0.586,1.234-1.113,1.93-1.732
	c-1.143-0.061-2.195-0.158-3.246-0.154c-1.395,0-2.788,0.111-4.184,0.109c-0.566,0-0.979,0.178-1.308,0.605
	c-0.11,0.143-0.202,0.298-0.304,0.447c-1.166,1.721-2.424,3.338-4.311,4.357c-0.459,0.25-0.805,0.709-1.216,1.055
	c-0.146,0.125-0.331,0.201-0.498,0.301c-0.833-1.461-0.2-3.545,0.841-4.367c0.965-0.762,2.038-1.313,3.149-1.811
	c0.307-0.139,0.606-0.289,0.909-0.434c-2.786-0.145-5.517-0.193-8.248-0.214c-0.165-0.003-0.405,0.171-0.488,0.329
	c-1.397,2.604-3.59,4.373-6.068,5.854c-0.42,0.252-0.848,0.438-1.346,0.391c-0.186-0.758-0.109-1.191,0.279-2.021
	c0.723-1.544,1.896-2.648,3.356-3.47c0.677-0.38,1.38-0.713,2.253-1.162c-0.4,0-0.582-0.005-0.764,0.002
	c-2.692,0.099-5.379,0.345-8.077,0.194c-0.594-0.031-1.052,0.289-1.353,0.845c-0.287,0.53-0.615,1.052-0.992,1.521
	c-0.682,0.854-1.421,1.658-2.117,2.498c-0.742,0.894-1.742,1.375-2.787,1.787c-0.114,0.045-0.271-0.017-0.378-0.027
	c0.198-0.539,0.376-1.034,0.562-1.527c0.19-0.503,0.299-1.066,0.598-1.498c0.93-1.337,2.076-2.451,3.595-3.13
	c0.187-0.083,0.335-0.252,0.622-0.474c-3.34,0.076-6.493,0.147-9.693,0.222c-1.533,2.606-3.616,4.54-6.824,5.021
	c-0.256-0.408-0.115-0.806,0.079-1.186c0.595-1.161,1.458-2.09,2.547-2.799c0.553-0.358,1.136-0.67,1.706-1.002
	c-0.016-0.049-0.03-0.1-0.045-0.148c-2.413-0.105-4.828-0.211-7.229-0.316c-0.334,0.451-0.766,0.822-0.906,1.283
	c-0.154,0.508-0.458,0.852-0.801,1.166c-1.117,1.027-2.311,1.957-3.707,2.605c-0.454,0.21-0.856,0.544-1.252,0.861
	c-0.52,0.416-0.65,0.392-0.988-0.183c0.264-0.461,0.542-0.84,0.713-1.264c0.723-1.787,1.959-3.046,3.751-3.755
	c0.497-0.196,0.997-0.389,1.588-0.617c-1.378-0.337-2.651-0.463-3.952-0.271c-0.568,0.084-1.144,0.164-1.717,0.174
	c-1.567,0.024-3.129,0.106-4.678,0.352c-0.332,0.055-0.822,0.18-0.923,0.41c-0.339,0.771-0.981,1.227-1.56,1.749
	c-1.785,1.614-3.801,2.854-6.102,3.69c-0.238-0.375-0.368-0.699,0.062-1.029c0.135-0.105,0.241-0.268,0.325-0.422
	c0.909-1.713,2.318-2.846,4.078-3.586c0.197-0.082,0.375-0.215,0.734-0.422c-0.441-0.094-0.672-0.178-0.904-0.184
	c-1.002-0.025-2.005-0.035-3.009-0.04c-0.865-0.005-1.731-0.015-2.595,0.021c-0.543,0.021-1.086,0.174-1.625,0.16
	c-0.67-0.017-1.141,0.225-1.557,0.736c-1.559,1.913-3.461,3.383-5.751,4.338c-0.188,0.078-0.386,0.203-0.509,0.36
	c-0.2,0.256-0.471,0.396-0.689,0.194c-0.16-0.143-0.221-0.484-0.193-0.724c0.092-0.769,0.484-1.397,0.971-2.001
	c1.096-1.361,2.599-2.054,4.172-2.646c0.203-0.075,0.391-0.19,0.587-0.285c-0.882-0.195-1.729-0.307-2.568-0.268
	c-1.483,0.066-2.968,0.187-4.442,0.362c-0.01,0.001-0.02,0.002-0.028,0.003c-0.003,0.003-0.005,0.006-0.007,0.01
	c-0.617,0.428-1.503,1.039-2.119,1.467c-0.004,0-0.008,0.002-0.012,0.004c-0.352,0.121-0.715,0.271-1.066,0.44
	c-0.26,0.001-0.52,0.001-0.772-0.001c-1.815-0.018-3.149-0.939-4.229-2.301C39.566,65.416,39.274,65.119,39.509,64.708z"/>
</svg>
