<?xml version="1.0" encoding="utf-8"?>
<!-- Generator: Adobe Illustrator 16.0.0, SVG Export Plug-In . SVG Version: 6.00 Build 0)  -->
<!DOCTYPE svg PUBLIC "-//W3C//DTD SVG 1.1//EN" "http://www.w3.org/Graphics/SVG/1.1/DTD/svg11.dtd">
<svg version="1.1" id="Layer_1" xmlns="http://www.w3.org/2000/svg" xmlns:xlink="http://www.w3.org/1999/xlink" x="0px" y="0px"
	 width="500px" height="500px" viewBox="0 0 500 500" enable-background="new 0 0 500 500" xml:space="preserve">
<g>
	<title>background</title>
</g>
<g id="Layer_1_1_">
	<g>
		<path fill="none" stroke="#4C9CD4" stroke-width="12" stroke-miterlimit="10" d="M435.042,439.391
			c0,25.547-20.713,46.261-46.261,46.261H111.219c-25.548,0-46.261-20.714-46.261-46.261V69.307c0-25.545,20.713-46.26,46.261-46.26
			h277.562c25.548,0,46.261,20.715,46.261,46.26V439.391z"/>
	</g>
	<g>
		<g>
			<path fill="none" stroke="#4C9CD4" stroke-width="12" stroke-miterlimit="10" d="M284.695,23.046v90.736
				c0,3.049,1.886,5.828,4.755,6.992c0.96,0.373,1.952,0.575,2.948,0.575c1.998,0,3.975-0.768,5.44-2.212l33.116-32.472
				l33.091,32.472c1.47,1.444,3.454,2.212,5.455,2.212c0.993,0,1.998-0.18,2.946-0.575c2.881-1.164,4.768-3.943,4.768-6.992V23.046
				H284.695z"/>
		</g>
	</g>
	<g>
		
			<rect x="111.219" y="23.046" fill="none" stroke="#4C9CD4" stroke-width="12" stroke-miterlimit="10" width="34.695" height="462.604"/>
	</g>
</g>
<g id="Layer_2">
</g>
</svg>
