<?xml version="1.0" encoding="utf-8"?>
<!-- Generator: Adobe Illustrator 16.0.0, SVG Export Plug-In . SVG Version: 6.00 Build 0)  -->
<!DOCTYPE svg PUBLIC "-//W3C//DTD SVG 1.1//EN" "http://www.w3.org/Graphics/SVG/1.1/DTD/svg11.dtd">
<svg version="1.1" id="Layer_1" xmlns="http://www.w3.org/2000/svg" xmlns:xlink="http://www.w3.org/1999/xlink" x="0px" y="0px"
	 width="500px" height="500px" viewBox="0 0 500 500" enable-background="new 0 0 500 500" xml:space="preserve">
<path fill="#F37554" d="M153.806,402.82c-4.836-13.715-39.561-111.646-49.109-138.574c20.297-9.352,24.966-35.761,9.462-51.509
	c23.055-28.313,53.678-65.867,69.596-85.273c-11.561,26.281-7.726,58.036,12.528,80.899l9.821,11.082L319.616,118.88l-9.817-11.085
	C287.071,82.143,251.49,75.91,222.553,88.66l-10.315-9.9c-9.018-8.592-23.201-8.185-31.728,0.757
	c-3.122,3.275-5.041,7.257-5.804,11.408c-9.652,11.103-70.597,83.053-98.566,116.091c-19.017,10.317-22.591,36.012-7.07,51.099
	l52.979,146.492c-22.835,5.351-43.588,19.399-59.22,40.455H48.672v10.672h401.983v-10.672H223.044
	C205.151,420.963,180.557,406.021,153.806,402.82z M182.403,112.332c-12.878,15.553-51.465,62.894-76.919,94.157
	c-3.715-1.839-7.829-2.964-12.182-3.229c25.159-29.702,66.97-79.04,83.383-98.272C178.384,108.42,179.985,110.025,182.403,112.332z
	 M304.553,117.97l-97.54,86.412c-3.345-3.782-5.748-6.302-9.278-11.982l97.313-84.035
	C299.627,112.248,301.318,114.322,304.553,117.97z M286.124,101.965L192.749,182.6C168.822,123.591,233.971,71.14,286.124,101.965z
	 M196.473,83.237c5.864-0.361,8.437,3.283,16.196,10.731c-7.735,4.896-12.551,9.335-17.749,15.546l-6.288-5.993
	C181.056,96.299,186.047,83.491,196.473,83.237z M91.36,213.832c11.77,0,21.344,9.574,21.344,21.344
	c0,11.771-9.575,21.344-21.344,21.344c-11.77,0-21.345-9.573-21.345-21.344C70.016,223.406,79.59,213.832,91.36,213.832z
	 M83.314,266.13c3.969,1.031,7.462,1.246,11.051,0.914c15.55,43.845,40.657,114.669,47.89,135.12
	c-3.202,0.024-6.378,0.237-9.529,0.591L83.314,266.13z M209.382,445.062H76.491C113.596,402.095,172.21,402.022,209.382,445.062z
	 M90.912,230.729c7.05-0.002,7.067,10.669,0.007,10.673C83.869,241.404,83.852,230.732,90.912,230.729z M436.426,92.88H304.803
	V82.209h142.295v234.786h-10.672V92.88z M226.541,224.504v163.64h135.18v10.671H215.869V224.504H226.541z M436.547,357.859
	c-46.905-133.877-34.197-112.39-74.52-158.323l-6.424-17.228l-9.999,3.731l5.614,15.06c5.19,69.229-15.521,2.98,43.779,172.151
	l-0.079,0.026c2.074,5.594,1.295,3.439,3.403,9.453l0.087-0.03l8.238,22.232l41.649-15.432l-11.729-31.651L436.547,357.859z
	 M381.846,239.907c-6.268,6.948-13.795,7.841-18.467,7.563c-1.321-8.16-1.084-15.501-1.227-31.613
	C371.849,226.895,377.393,232.949,381.846,239.907z M365.984,258.143c6.523-0.25,14.284-2.404,21.065-8.456
	c1.98,4.527-1.021-3.745,39.277,111.29l-21.528,7.977C404.249,367.389,366.494,259.72,365.984,258.143z M412.949,391.218
	l-4.315-11.638l21.632-8.015l4.315,11.634L412.949,391.218z M445.274,397.343l5.347,14.431c2.087,5.631-0.795,11.908-6.428,13.996
	l-10.82,4.014c-5.671,2.091-11.93-0.827-14-6.435l-5.646-15.227l10.006-3.711l5.646,15.23l11.105-3.877l-5.214-14.713
	L445.274,397.343z M322.59,149.799v10.672h-21.344v-10.672H322.59z M244.327,203.159H255v17.786h-10.673V203.159z M301.021,195.507
	l-7.546,7.546l-14.407-14.407l7.546-7.546L301.021,195.507z M255,252.963h74.705v10.672H255V252.963z M329.705,302.766H255v-10.672
	h74.705V302.766z M255,331.225h14.229v10.673H255V331.225z M283.458,341.897v-10.673h14.229v10.673H283.458z M311.917,341.897
	v-10.673h14.23v10.673H311.917z M384.844,161.926l-20.966-20.966l7.546-7.545l13.42,13.42l21.129-21.129l7.546,7.546
	L384.844,161.926z"/>
</svg>
