<?xml version="1.0" encoding="utf-8"?>
<!-- Generator: Adobe Illustrator 13.0.0, SVG Export Plug-In . SVG Version: 6.00 Build 14948)  -->
<!DOCTYPE svg PUBLIC "-//W3C//DTD SVG 1.1//EN" "http://www.w3.org/Graphics/SVG/1.1/DTD/svg11.dtd">
<svg version="1.1" id="Layer_1" xmlns="http://www.w3.org/2000/svg" xmlns:xlink="http://www.w3.org/1999/xlink" x="0px" y="0px"
	 width="500px" height="500px" viewBox="-226 -226 500 500" enable-background="new -226 -226 500 500" xml:space="preserve">
<g>
	<title>background</title>
	<rect id="canvas_background" x="-1" y="-1" fill="none" width="582" height="402"/>
</g>
<g>
	<title  fill="#3892d0" stroke="#3892d0">Layer 1</title>
	<path id="svg_3" fill="#3892D0" stroke="#3892D0" d="M43.833,262H4.167c-16.4,0-29.75-13.345-29.75-29.75v-36.936
		c-12.691-3.661-24.913-8.735-36.504-15.137l-26.119,26.128c-11.248,11.244-30.83,11.225-42.078,0l-28.055-28.035
		c-5.622-5.617-8.716-13.094-8.716-21.034c0-7.951,3.094-15.428,8.716-21.034l26.133-26.147
		c-6.396-11.563-11.466-23.785-15.122-36.481h-36.921c-16.4,0-29.75-13.354-29.75-29.75V4.157c0-7.956,3.094-15.422,8.706-21.034
		c5.622-5.612,13.093-8.716,21.044-8.716h36.931c3.666-12.672,8.726-24.903,15.132-36.486l-26.119-26.128
		c-11.606-11.602-11.606-30.467,0-42.068l28.041-28.05c11.238-11.229,30.834-11.249,42.078,0l26.128,26.128
		c11.587-6.396,23.804-11.466,36.476-15.122v-36.931c0-16.4,13.35-29.75,29.75-29.75h39.667c16.405,0,29.75,13.35,29.75,29.75
		v36.931c12.687,3.666,24.908,8.735,36.471,15.122l26.129-26.128c11.253-11.229,30.834-11.249,42.087,0l28.046,28.041
		c5.627,5.612,8.716,13.093,8.716,21.034c0,7.946-3.089,15.422-8.716,21.034l-26.118,26.128
		c6.401,11.582,11.476,23.799,15.137,36.495h36.916c16.405,0,29.75,13.35,29.75,29.75v39.666c0,7.951-3.099,15.428-8.706,21.034
		c-5.607,5.607-13.093,8.716-21.044,8.716h-36.936c-3.661,12.696-8.735,24.918-15.127,36.5l26.118,26.129
		c11.611,11.602,11.611,30.456,0,42.068l-28.036,28.045c-11.253,11.234-30.834,11.234-42.087,0l-26.109-26.128
		c-11.582,6.411-23.804,11.466-36.48,15.127v36.936C73.583,248.655,60.238,262,43.833,262z M-63.691,157.855
		c1.772,0,3.569,0.475,5.167,1.453c14.038,8.58,29.242,14.895,45.187,18.748c4.455,1.085,7.587,5.056,7.587,9.636v44.558
		c0,5.472,4.455,9.917,9.917,9.917h39.667c5.462,0,9.917-4.445,9.917-9.917v-44.558c0-4.58,3.138-8.551,7.593-9.636
		c15.921-3.854,31.125-10.148,45.167-18.748c3.932-2.383,8.948-1.782,12.192,1.452l31.522,31.532c3.719,3.699,10.304,3.719,14.022,0
		l28.046-28.065c3.873-3.863,3.873-10.148,0-14.022l-31.522-31.522c-3.244-3.225-3.845-8.279-1.443-12.192
		c8.581-14.022,14.875-29.217,18.729-45.167c1.065-4.455,5.056-7.603,9.636-7.603h44.558c2.653,0,5.152-1.036,7.021-2.905
		c1.868-1.85,2.896-4.328,2.896-6.992V4.157c0-5.477-4.455-9.917-9.917-9.917h-44.558c-4.58,0-8.57-3.133-9.636-7.597
		c-3.854-15.936-10.148-31.14-18.729-45.182c-2.401-3.902-1.801-8.934,1.443-12.183l31.522-31.527
		c1.85-1.854,2.905-4.402,2.905-7.012s-1.056-5.167-2.905-7.011l-28.046-28.045c-3.758-3.738-10.284-3.738-14.042,0l-31.522,31.527
		c-3.225,3.254-8.261,3.859-12.192,1.448c-14.003-8.57-29.198-14.875-45.147-18.734c-4.455-1.061-7.593-5.036-7.593-9.617v-44.557
		c0-5.472-4.455-9.917-9.917-9.917H4.167c-5.462,0-9.917,4.445-9.917,9.917v44.557c0,4.581-3.133,8.556-7.587,9.636
		c-15.926,3.85-31.125,10.145-45.177,18.734c-3.917,2.392-8.948,1.796-12.178-1.448l-31.527-31.527
		c-3.748-3.738-10.285-3.738-14.032,0l-28.036,28.046c-3.864,3.869-3.864,10.154,0,14.022l31.527,31.527
		c3.244,3.229,3.84,8.28,1.448,12.188c-8.59,14.042-14.885,29.242-18.734,45.167c-1.07,4.455-5.055,7.597-9.636,7.597h-44.567
		c-2.648,0-5.147,1.031-7.021,2.905c-1.864,1.854-2.896,4.343-2.896,7.002v39.666c0,5.472,4.455,9.917,9.917,9.917h44.557
		c4.581,0,8.566,3.128,9.636,7.603c3.859,15.94,10.154,31.145,18.734,45.167c2.392,3.902,1.796,8.929-1.448,12.183l-31.527,31.532
		c-1.845,1.859-2.905,4.406-2.905,7.012c0,2.614,1.061,5.171,2.905,7.011l28.056,28.046c3.738,3.738,10.285,3.738,14.032,0
		l31.518-31.522C-68.79,158.844-66.262,157.855-63.691,157.855z"/>
	<path id="svg_5" fill="#3892D0" stroke="#3892D0" d="M24,123.167c-54.682,0-99.167-44.489-99.167-99.167
		c0-54.682,44.484-99.167,99.167-99.167c54.677,0,99.167,44.484,99.167,99.167C123.167,78.678,78.696,123.167,24,123.167z
		 M24-55.333c-43.744,0-79.333,35.59-79.333,79.333c0,43.744,35.59,79.333,79.333,79.333c43.744,0,79.333-35.589,79.333-79.333
		C103.333-19.744,67.753-55.333,24-55.333z"/>
</g>
</svg>
