<?xml version="1.0" encoding="utf-8"?>
<!-- Generator: Adobe Illustrator 16.0.0, SVG Export Plug-In . SVG Version: 6.00 Build 0)  -->
<!DOCTYPE svg PUBLIC "-//W3C//DTD SVG 1.1//EN" "http://www.w3.org/Graphics/SVG/1.1/DTD/svg11.dtd">
<svg version="1.1" id="Layer_1" xmlns="http://www.w3.org/2000/svg" xmlns:xlink="http://www.w3.org/1999/xlink" x="0px" y="0px"
	 width="500px" height="500px" viewBox="0 0 500 500" enable-background="new 0 0 500 500" xml:space="preserve">
<path fill="#F37554" d="M214.686,101.216c3.137,11.812,1.186,23.784-4.505,33.59c-5.695,9.812-15.14,17.455-26.982,20.601
	c-11.81,3.139-23.781,1.188-33.587-4.5c-9.812-5.693-17.454-15.133-20.6-26.97c-3.138-11.811-1.188-23.781,4.5-33.587
	c5.693-9.813,15.133-17.455,26.969-20.6c11.816-3.139,23.792-1.191,33.6,4.496C203.896,79.937,211.54,89.377,214.686,101.216
	L214.686,101.216z M195.13,126.088c3.46-5.963,4.645-13.25,2.733-20.446c-1.905-7.169-6.542-12.892-12.5-16.346
	c-5.963-3.457-13.252-4.638-20.455-2.725c-7.169,1.904-12.892,6.541-16.345,12.496c-3.458,5.96-4.642,13.247-2.729,20.442
	c1.905,7.168,6.542,12.891,12.496,16.346c5.96,3.458,13.248,4.642,20.442,2.73C185.948,136.679,191.674,132.042,195.13,126.088z"/>
<path fill="#F37554" d="M269.246,250.674c1.505-0.255,2.713-0.716,3.591-1.403c0.87-0.683,1.563-1.774,2.061-3.322
	c0.164-0.511,0.278-1.023,0.328-1.526c0.042-0.437,0.041-0.873-0.015-1.299l-0.028,0.004c-0.012-0.082-0.021-0.163-0.029-0.244
	c-0.266-1.807-1.207-3.339-2.527-4.368c-1.354-1.054-3.143-1.589-5.042-1.354c-12.662,1.576-22.67,2.122-30.653,1.594
	c-8.999-0.594-15.688-2.6-20.775-6.06l4.869-7.186l-4.903,7.208c-0.198-0.135-0.388-0.277-0.571-0.423
	c-4.706-3.39-8.57-8.425-12.324-15.222c-3.416-6.184-6.833-14.003-10.905-23.595l8.001-3.405l-8.023,3.407
	c-0.062-0.145-0.12-0.292-0.173-0.438c-0.109-0.214-0.126-0.26-0.143-0.29l-0.037,0.023c-0.435-0.693-0.759-1.423-0.98-2.172
	c-1.494-3.47-4.083-6.447-7.218-8.84c-4.012-3.063-8.85-5.102-13.506-6.011l-0.002,0.009c-0.324-0.062-0.64-0.144-0.947-0.24
	c-1.821-0.376-3.753-0.456-5.729-0.328c-2.427,0.156-4.834,0.603-7.161,1.2l0.004,0.016l-0.041,0.011l0.005,0.02
	c-0.147,0.038-0.296,0.071-0.444,0.102c-5.527,1.576-10.783,4.947-14.481,9.444c-3.201,3.889-5.163,8.604-4.923,13.617l0.024-0.002
	c0.017,0.346,0.012,0.688-0.01,1.024c0.066,4.973-0.191,12.277-0.497,20.997c-1.151,32.795-3.053,87.025,7.034,93.007
	c6.746,4.002,17.494,4.757,27.595,5.466c17.912,1.257,34.307,2.41,38.831,18.809l0.008-0.003l0.075,0.254l0.008-0.002l0.044,0.177
	l21.126,70.737l0.011-0.004c0.071,0.238,0.132,0.477,0.182,0.717c0.94,3.113,3.013,5.601,5.642,7.128
	c2.754,1.6,6.116,2.149,9.431,1.275l0.032-0.009l2.214,8.411l-2.215-8.433l0.044-0.01v-0.001l0.099-0.023l0.085-0.022
	c0.071-0.017,0.142-0.032,0.212-0.047c3.114-0.944,5.6-3.017,7.127-5.647c1.603-2.76,2.152-6.135,1.273-9.471l-0.019,0.006
	c-0.134-0.51-0.221-1.021-0.263-1.527l-9.207-64.299c-5.407-19.774-16.747-23.998-26.007-27.445
	c-12.018-4.475-21.84-8.131-22.716-25.708l-1.614-33.328l-0.024,0.002c-0.234-4.809,3.477-8.897,8.286-9.13
	c2.204-0.106,4.254,0.615,5.854,1.891c5.719,3.8,12.707,6.229,21.704,7.354c9.975,1.245,22.284,0.882,37.797-1.018l-0.001-0.003
	C268.877,250.701,269.063,250.685,269.246,250.674L269.246,250.674z M283.529,262.959c-3.305,2.591-7.252,4.19-11.772,4.902
	c-0.309,0.072-0.625,0.129-0.946,0.168l-1.06-8.652l1.055,8.649c-16.938,2.073-30.618,2.441-42.022,1.018
	c-5.727-0.715-10.898-1.882-15.627-3.508l0.9,18.602c0.306,6.114,5.299,7.975,11.411,10.249
	c13.029,4.85,28.987,10.796,36.717,39.111c0.183,0.525,0.319,1.075,0.401,1.646l-8.63,1.235l8.615-1.226l9.297,64.919
	c1.89,7.775,0.55,15.606-3.189,22.046c-3.722,6.411-9.821,11.445-17.471,13.675c-0.206,0.073-0.417,0.139-0.633,0.197l-0.085,0.023
	l0,0l-0.01,0.002l-0.005-0.019l-0.018,0.004c-7.939,2.097-15.986,0.782-22.575-3.045c-6.418-3.727-11.457-9.835-13.679-17.498
	c-0.047-0.134-0.092-0.271-0.133-0.409l0.017-0.004l-0.001-0.006l-0.006,0.002l-21.124-70.728c-0.08-0.226-0.152-0.457-0.215-0.694
	l8.427-2.234l-8.411,2.214c-1.218-4.594-11.741-5.332-23.242-6.139c-12.12-0.852-25.019-1.757-35.292-7.85
	c-18.959-11.248-16.833-71.872-15.546-108.536c0.299-8.527,0.549-15.672,0.495-20.161c-0.016-0.154-0.028-0.311-0.036-0.467
	l0.028-0.001v-0.015h-0.004c-0.469-9.64,3.07-18.431,8.872-25.48c5.967-7.251,14.419-12.674,23.28-15.181
	c0.23-0.081,0.467-0.153,0.707-0.215l2.177,8.441l-2.146-8.411c3.404-0.877,6.915-1.535,10.426-1.76
	c3.527-0.228,7.121-0.038,10.717,0.756c0.128,0.02,0.257,0.042,0.386,0.067l-0.003,0.021h0.001l0.002-0.012
	c7.084,1.381,14.503,4.528,20.729,9.281c5.469,4.176,10.061,9.636,12.813,16.311c0.198,0.331,0.359,0.614,0.478,0.845
	c0.162,0.313,0.318,0.636,0.47,0.973c0.1,0.195,0.194,0.395,0.281,0.6l-0.02,0.008c3.849,9.063,7.061,16.422,10.153,22.021
	c2.485,4.499,4.754,7.642,7.11,9.389c0.113,0.07,0.225,0.142,0.337,0.217l-0.011,0.015l0.011,0.008l-0.011,0.016
	c2.457,1.661,6.342,2.668,12.104,3.048c6.796,0.449,15.769-0.072,27.451-1.526c6.603-0.816,12.939,1.14,17.847,4.964
	c4.815,3.752,8.22,9.295,9.112,15.771c0.014,0.086,0.026,0.171,0.038,0.257l-0.004,0.002l0.01,0.079l-0.024,0.003
	c0.227,1.769,0.239,3.501,0.074,5.186c-0.176,1.779-0.549,3.496-1.077,5.136C289.851,256.241,287.175,260.104,283.529,262.959z"/>
<path fill="#F37554" d="M137.629,63.493l43.907-11.667l-0.004-0.02c4.652-1.236,9.426,1.534,10.664,6.187
	c0.051,0.191,0.093,0.383,0.13,0.574l3.438,12.935l0.019-0.005c1.237,4.653-1.533,9.428-6.186,10.664
	c-0.191,0.051-0.383,0.094-0.574,0.131l-43.908,11.667l0.005,0.02c-4.653,1.236-9.429-1.534-10.663-6.187
	c-0.051-0.191-0.096-0.383-0.133-0.575l-3.436-12.934l-0.02,0.005c-1.236-4.653,1.534-9.427,6.188-10.664
	C137.246,63.573,137.437,63.53,137.629,63.493z"/>
<path fill="#F37554" d="M119.827,68.223c-4.645,1.222-7.42,5.979-6.196,10.624c1.221,4.646,5.979,7.42,10.624,6.198l78.981-20.986
	c4.645-1.222,7.42-5.979,6.197-10.624c-1.222-4.645-5.979-7.42-10.624-6.198L119.827,68.223z"/>
<path fill="#F37554" d="M75.592,208.76c-0.885-4.72-5.427-7.83-10.148-6.946c-4.72,0.882-7.831,5.427-6.947,10.147L84.649,351.44
	l8.548-1.601l-8.569,1.606c0.794,4.229,4.516,7.168,8.677,7.111h79.208l9.677,96.273c0.47,4.776,4.725,8.269,9.502,7.798
	c4.776-0.47,8.267-4.724,7.797-9.501l-10.402-103.485c-0.106-4.724-3.968-8.521-8.716-8.521h-79.962L75.592,208.76z"/>
<path fill="#F37554" d="M101.608,352.088c1.24-4.646-1.519-9.418-6.164-10.659c-4.646-1.241-9.417,1.519-10.659,6.164
	L56.298,453.911c-1.241,4.646,1.519,9.417,6.164,10.659c4.646,1.24,9.417-1.519,10.659-6.164L101.608,352.088z"/>
<path fill="#F37554" d="M293.697,262.195c-4.814,0-8.717,3.903-8.717,8.719c0,4.813,3.902,8.717,8.717,8.717h156.914
	c4.813,0,8.718-3.903,8.718-8.717c0-4.815-3.904-8.719-8.718-8.719H293.697z"/>
<path fill="#F37554" d="M328.567,270.914c0-4.815-3.903-8.719-8.718-8.719s-8.717,3.903-8.717,8.719v183.065
	c0,4.814,3.902,8.717,8.717,8.717s8.718-3.902,8.718-8.717V270.914z"/>
<path fill="#F37554" d="M424.459,270.914c0-4.815-3.903-8.719-8.718-8.719s-8.718,3.903-8.718,8.719v183.065
	c0,4.814,3.903,8.717,8.718,8.717s8.718-3.902,8.718-8.717V270.914z"/>
<path fill="#F37554" d="M319.85,236.513c-4.814,0-8.717,3.903-8.717,8.718c0,4.814,3.902,8.717,8.717,8.717h61.021
	c4.144,0,7.611-2.89,8.498-6.764l25.896-77.687c1.505-4.551-0.965-9.46-5.517-10.965c-4.552-1.504-9.461,0.965-10.965,5.517
	l-24.155,72.463H319.85z"/>
</svg>
