<?xml version="1.0" encoding="utf-8"?>
<!-- Generator: Adobe Illustrator 16.0.0, SVG Export Plug-In . SVG Version: 6.00 Build 0)  -->
<!DOCTYPE svg PUBLIC "-//W3C//DTD SVG 1.1//EN" "http://www.w3.org/Graphics/SVG/1.1/DTD/svg11.dtd">
<svg version="1.1" id="Layer_1" xmlns="http://www.w3.org/2000/svg" xmlns:xlink="http://www.w3.org/1999/xlink" x="0px" y="0px"
	 width="500px" height="500px" viewBox="0 0 500 500" enable-background="new 0 0 500 500" xml:space="preserve">
<g>
	<path fill="#F37554" d="M468.834,86.404H339.638c-42.851,0-72.599,27.751-86.638,44.477
		c-14.039-16.726-43.787-44.477-86.638-44.477H37.166c-5.935,0-10.746,4.811-10.746,10.746v147.541
		c0,5.935,4.811,10.747,10.746,10.747c5.936,0,10.746-4.813,10.746-10.747V107.896h118.451c41.564,0,69.151,34.761,75.892,44.227
		v218.625c-21.194-17.313-56.266-29.359-104.846-35.95c-37.108-5.034-72.187-5.542-89.496-5.409v-33.753
		c0-5.935-4.811-10.745-10.746-10.745s-10.746,4.812-10.746,10.745v44.705v62.505c0,5.937,4.811,10.746,10.746,10.746h215.812
		c0.006,0,0.012,0.003,0.017,0.003c0.002,0,0.005,0,0.007,0s0.005,0,0.007,0c0.005,0,0.011-0.003,0.017-0.003h215.812
		c5.938,0,10.746-4.811,10.746-10.746v-62.505V97.15C479.58,91.216,474.77,86.404,468.834,86.404z M339.638,107.896h118.45v221.5
		c-1.349-0.01-2.808-0.017-4.366-0.017c-23.501,0-69.311,1.29-112.068,9.912c-34.805,7.019-60.849,17.56-77.905,31.485V152.104
		C270.454,142.609,297.848,107.896,339.638,107.896z M47.912,350.896c16.608-0.115,50.988,0.364,86.605,5.199
		c48.584,6.592,82.788,19.139,99.144,36.006H47.912V350.896z M272.186,392.102c28.722-30.098,109.229-41.227,181.534-41.227
		c1.567,0,3.021,0.006,4.367,0.018v41.211H272.186V392.102z"/>
	<path fill="#F37554" d="M335.078,166.414h75.995c5.937,0,10.746-4.811,10.746-10.746s-4.811-10.746-10.746-10.746h-75.995
		c-5.936,0-10.746,4.811-10.746,10.746S329.144,166.414,335.078,166.414z"/>
	<path fill="#F37554" d="M335.078,231.012h75.995c5.937,0,10.746-4.811,10.746-10.746s-4.811-10.746-10.746-10.746h-75.995
		c-5.936,0-10.746,4.811-10.746,10.746S329.144,231.012,335.078,231.012z"/>
	<path fill="#F37554" d="M335.078,295.611h75.995c5.937,0,10.746-4.813,10.746-10.746c0-5.936-4.811-10.746-10.746-10.746h-75.995
		c-5.936,0-10.746,4.811-10.746,10.746C324.332,290.8,329.144,295.611,335.078,295.611z"/>
	<path fill="#F37554" d="M94.923,166.414h75.998c5.936,0,10.746-4.811,10.746-10.746s-4.811-10.746-10.746-10.746H94.923
		c-5.935,0-10.746,4.811-10.746,10.746S88.989,166.414,94.923,166.414z"/>
	<path fill="#F37554" d="M94.923,231.012h75.998c5.936,0,10.746-4.811,10.746-10.746s-4.811-10.746-10.746-10.746H94.923
		c-5.935,0-10.746,4.811-10.746,10.746S88.989,231.012,94.923,231.012z"/>
	<path fill="#F37554" d="M94.923,295.611h75.998c5.936,0,10.746-4.813,10.746-10.746c0-5.936-4.811-10.746-10.746-10.746H94.923
		c-5.935,0-10.746,4.811-10.746,10.746C84.177,290.8,88.989,295.611,94.923,295.611z"/>
</g>
</svg>
