<?xml version="1.0" encoding="utf-8"?>
<!-- Generator: Adobe Illustrator 16.0.0, SVG Export Plug-In . SVG Version: 6.00 Build 0)  -->
<!DOCTYPE svg PUBLIC "-//W3C//DTD SVG 1.1//EN" "http://www.w3.org/Graphics/SVG/1.1/DTD/svg11.dtd">
<svg version="1.1" id="Layer_1" xmlns="http://www.w3.org/2000/svg" xmlns:xlink="http://www.w3.org/1999/xlink" x="0px" y="0px"
	 width="500px" height="500px" viewBox="0 0 500 500" enable-background="new 0 0 500 500" xml:space="preserve">
<path fill="#F37554" d="M415.315,268.636h12.474v20.46h-12.474V268.636z M415.315,115.04v134.225h12.474l-0.013-133.835
	c1.214-19.335-3.337-48.37-19.766-71.883l-10.224,7.146C412.372,71.566,416.411,97.418,415.315,115.04z M478.388,358.214v50.007
	c0,25.592-20.821,46.414-46.418,46.414h-58.861v-12.474h30.281c-11.279-10.249-18.218-24.979-18.218-40.908l0.02-287.772
	c0.155-2.01,3.343-49.669-36.392-63.873c-5.696-1.673-11.56-1.925-17.176-0.962v0.021c-4.161,0-20.13,5.027-28.104,20.545
	c-11.625,22.636,8.409,49.572,29.485,44.139c19.429-4.974,23.132-31.057,4.727-36.502l3.532-11.961
	c15.518,4.584,24.418,20.939,19.834,36.458c-5.083,17.224-23.025,28.73-41.902,24.159v0.475H88.852
	c-40.041,0-59.901-48.614-31.78-76.74c15.531-15.522,35.954-13.151,31.796-13.155c62.248,0.036,195.028,0.109,241.892,0.109
	c39.815-5.782,69.321,34.772,66.885,77.97v287.09c0,18.812,12.457,35.499,30.383,40.908c25.365,0,37.887-16.651,37.887-33.94
	v-37.533h-57.277v-12.474H478.388z M303.971,48.662c-7.024,0-221.849-0.106-215.135-0.106c-17.934,0-32.458,14.511-32.458,32.474
	c0,17.906,14.568,32.474,32.474,32.474H299.5C282.914,95.367,283.121,67.181,303.971,48.662z M107.147,394.489V142.337H94.674
	v252.152c0,33.164,26.981,60.146,60.145,60.146h203.067l16.631-12.474H154.819C128.533,442.161,107.147,420.775,107.147,394.489z
	 M346.192,154.745H148.107v12.474h198.085V154.745z M148.107,212.434h198.085V199.96H148.107V212.434z M308.055,259.805v-12.473
	h-16.631v12.473H308.055z M274.792,259.805v-12.473h-16.63v12.473H274.792z M341.316,259.805v-12.473h-16.631v12.473H341.316z
	 M148.107,247.332v12.473c52.472,0,39.113,0,93.424,0v-12.473C187.196,247.332,200.644,247.332,148.107,247.332z M223.467,294.699
	h-75.359v12.474h75.359V294.699z M148.107,354.539h75.359v-12.474h-75.359V354.539z"/>
</svg>
