<?xml version="1.0" encoding="utf-8"?>
<!-- Generator: Adobe Illustrator 16.0.0, SVG Export Plug-In . SVG Version: 6.00 Build 0)  -->
<!DOCTYPE svg PUBLIC "-//W3C//DTD SVG 1.1//EN" "http://www.w3.org/Graphics/SVG/1.1/DTD/svg11.dtd">
<svg version="1.1"
	 id="svg4475" xmlns:inkscape="http://www.inkscape.org/namespaces/inkscape" xmlns:rdf="http://www.w3.org/1999/02/22-rdf-syntax-ns#" xmlns:cc="http://creativecommons.org/ns#" xmlns:svg="http://www.w3.org/2000/svg" xmlns:sodipodi="http://sodipodi.sourceforge.net/DTD/sodipodi-0.dtd" xmlns:dc="http://purl.org/dc/elements/1.1/"
	 xmlns="http://www.w3.org/2000/svg" xmlns:xlink="http://www.w3.org/1999/xlink" x="0px" y="0px" width="32px" height="32px"
	 viewBox="0 0 32 32" enable-background="new 0 0 32 32" xml:space="preserve">
<g id="layer1" transform="translate(0,-1020.3622)">
	<g id="g10414" transform="translate(309.5948,-461.25192)">
		<g id="g15415" transform="translate(66.405195,515.25192)">
			<g id="g15417" transform="translate(-150,-49.999983)">
				<g id="g14600" transform="translate(-49.999995,-130.00002)">
					<path id="path9997" fill="#F3317A" d="M-160.063,1149.175c-3.589,0-6.819,1.496-9.156,3.875c0,0.011,0,0.021,0,0.031
						c-0.015,0.016-0.047,0.016-0.063,0.031c-0.06,0.031-0.113,0.073-0.156,0.125c-0.132,0.173-0.291,0.357-0.438,0.531
						c-0.062,0.073-0.127,0.145-0.188,0.219c-0.059,0.069-0.098,0.148-0.156,0.219c-0.032,0.042-0.062,0.083-0.094,0.125
						c-0.103,0.127-0.213,0.239-0.313,0.375c-0.065,0.093-0.125,0.187-0.188,0.281c-0.063,0.094-0.128,0.182-0.188,0.281
						c-0.033,0.058-0.054,0.122-0.063,0.188c-1.195,1.969-1.914,4.252-1.938,6.719c-0.001,0.021-0.001,0.042,0,0.063
						c0,0.021,0,0.041,0,0.063c0,0.674,0.063,1.352,0.156,2c0.001,0.01-0.001,0.021,0,0.031c0.002,0.054,0.013,0.106,0.031,0.156
						c0.084,0.537,0.198,1.049,0.344,1.563c-1.211,1.096-2.218,1.97-2.844,2.813c-0.334,0.45-0.58,0.884-0.656,1.375
						c-0.075,0.481,0.042,0.98,0.313,1.438c0.006,0.005-0.003,0.025,0,0.031c0.445,0.825,1.316,1.37,2.438,1.5
						c1.139,0.133,2.575-0.088,4.344-0.688c0.129-0.045,0.275-0.109,0.406-0.156c2.285,1.955,5.197,3.188,8.406,3.188
						c6.831,0,12.412-5.385,12.938-12.188c0-0.01,0-0.021,0-0.031c0.025-0.336,0.063-0.689,0.063-1.031
						c0-1.038-0.135-1.992-0.344-2.938c1.148-1.091,2.148-2.227,2.75-3.281c0.344-0.603,0.554-1.198,0.625-1.75
						c0.066-0.517-0.07-1.013-0.406-1.406l0.031-0.031c-0.013-0.02-0.049-0.012-0.063-0.031c-0.414-0.572-1.184-0.781-2.188-0.75
						c-0.012,0-0.02,0-0.031,0c-0.01-0.011-0.021-0.021-0.031-0.031h-0.125c-0.01,0-0.021,0-0.031,0
						c-1.034,0.075-2.454,0.425-4.031,0.969C-153.26,1150.67-156.49,1149.175-160.063,1149.175z M-160.063,1150.175
						c3.675,0,6.957,1.693,9.156,4.344c0.072,0.089,0.162,0.205,0.219,0.281c0.018,0.034,0.038,0.065,0.063,0.094
						c0.501,0.653,0.947,1.344,1.313,2.094h-5.938c-0.83,0-1.438,0.692-1.438,1.438c0,0.746,0.607,1.469,1.438,1.469h1.813h1.125
						c-1.27,0.961-2.672,1.943-4.219,2.938h-1.656c-1.297,0-2.375,1.102-2.375,2.406v0.063c-3.41,1.967-6.684,3.48-9.094,4.313
						c-0.545-0.727-0.981-1.521-1.344-2.375c-0.005-0.043-0.016-0.085-0.031-0.125c-0.103-0.262-0.208-0.521-0.313-0.781
						c-0.167-0.502-0.304-1.001-0.406-1.531h5c0.794,0,1.438-0.676,1.438-1.469c0-0.831-0.644-1.531-1.438-1.531h-5.219
						c0.009-0.223,0.011-0.437,0.031-0.656h5.188c0.276,0.004,0.503-0.217,0.507-0.493c0.004-0.276-0.217-0.503-0.493-0.507
						c-0.005,0-0.009,0-0.014,0h-5.031c0.265-1.493,0.781-2.874,1.531-4.125h8.313c0.794,0,1.438-0.676,1.438-1.469
						c0-0.831-0.644-1.5-1.438-1.5h-5.813C-165.675,1151.268-163.009,1150.175-160.063,1150.175z M-158.125,1153.05
						c-0.794,0-1.438,0.669-1.438,1.5c0,0.793,0.644,1.469,1.438,1.469s1.438-0.676,1.438-1.469
						C-156.688,1153.719-157.331,1153.05-158.125,1153.05z M-146.813,1153.081c0.01,0,0.021,0,0.031,0
						c0.998-0.068,1.391,0.16,1.531,0.375c0.02,0.023,0.04,0.044,0.063,0.063c0.146,0.149,0.232,0.335,0.188,0.688
						c-0.045,0.353-0.229,0.844-0.531,1.375c-0.605,1.062-1.699,2.32-3,3.5c0,0.011,0,0.021,0,0.031
						c-1.266,1.211-2.854,2.506-4.625,3.781c-0.061,0.031-0.113,0.073-0.156,0.125c-1.55,1.109-3.232,2.186-5,3.25
						c-0.226,0.137-0.461,0.242-0.688,0.375c-0.061,0.031-0.113,0.073-0.156,0.125c-2.871,1.681-5.733,3.107-8.25,4.125
						c-0.021,0.01-0.042,0.02-0.063,0.031c-0.009,0.004-0.022-0.004-0.031,0c-0.034,0.018-0.065,0.039-0.094,0.063
						c-0.55,0.22-1.115,0.417-1.625,0.594c-1.683,0.57-2.965,0.73-3.875,0.625s-1.407-0.427-1.688-0.969
						c-0.01-0.011-0.021-0.021-0.031-0.031c-0.185-0.303-0.228-0.549-0.188-0.813c0.041-0.263,0.192-0.564,0.469-0.938
						c0.454-0.61,1.372-1.494,2.375-2.406c0.032,0.086,0.091,0.164,0.125,0.25c-0.426,0.738-0.804,1.346-0.813,2
						c-0.001,0.012,0,0.021,0,0.031c-0.017,0.361,0.088,0.729,0.313,0.969c0.231,0.248,0.534,0.357,0.844,0.438
						c0.619,0.16,1.326,0.133,1.969-0.031c0.011-0.01,0.021-0.021,0.031-0.031c2.537-0.838,6.02-2.449,9.625-4.531
						c0.187-0.004,0.356-0.113,0.438-0.281c0.418-0.244,0.831-0.461,1.25-0.719c0.734-0.438,1.424-0.865,2.125-1.313
						c0.205,0.002,0.392-0.121,0.469-0.313c3.104-2.005,5.826-4.042,7.563-5.75c0.011-0.01,0.021-0.021,0.031-0.031
						c1.021-1.118,1.371-2.306,0.938-3.188c-0.259-0.463-0.758-0.704-1.313-0.781c-0.443-0.062-0.969,0.048-1.5,0.188
						c-0.02-0.024-0.043-0.039-0.063-0.063C-148.85,1153.49-147.571,1153.139-146.813,1153.081z M-168.813,1154.05h6.875
						c0.213,0,0.438,0.161,0.438,0.5c0,0.231-0.225,0.469-0.438,0.469h-7.625C-169.315,1154.705-169.081,1154.386-168.813,1154.05z
						 M-158.125,1154.05c0.213,0,0.438,0.161,0.438,0.5c0,0.231-0.225,0.469-0.438,0.469s-0.438-0.237-0.438-0.469
						C-158.563,1154.211-158.338,1154.05-158.125,1154.05z M-149.344,1154.769c0.238-0.029,0.443-0.025,0.625,0
						c0.34,0.047,0.518,0.16,0.563,0.219c0.001,0-0.001,0.03,0,0.031c0.099,0.229,0.06,0.765-0.313,1.406
						c-0.287-0.571-0.637-1.104-1-1.625C-149.43,1154.794-149.382,1154.773-149.344,1154.769z M-155.25,1157.987h5.313
						c-0.33,0.291-0.686,0.601-1.063,0.906h-0.563h-1.875h-1.813c-0.32,0-0.438-0.19-0.438-0.469
						C-155.688,1158.147-155.57,1157.987-155.25,1157.987z M-164.813,1160.144c-0.288,0-0.5,0.207-0.5,0.5
						c0,0.291,0.212,0.5,0.5,0.5c0.216,0,0.438-0.206,0.438-0.5C-164.375,1160.353-164.597,1160.144-164.813,1160.144z
						 M-148.281,1160.175c0.128,0.698,0.219,1.387,0.219,2.125c0,0.18-0.023,0.354-0.031,0.531h-2.188h-1.156
						C-150.279,1161.941-149.211,1161.036-148.281,1160.175z M-171.969,1162.8h5.219c0.213,0,0.438,0.192,0.438,0.531
						c0,0.231-0.225,0.469-0.438,0.469h-5.125C-171.91,1163.464-171.953,1163.126-171.969,1162.8z M-158.188,1163.831h0.063
						c-0.254,0.156-0.492,0.314-0.75,0.469c-0.165,0.102-0.335,0.182-0.5,0.281C-159.131,1164.15-158.675,1163.831-158.188,1163.831
						z M-152.75,1163.831h2.469h2.031c-0.111,0.967-0.36,1.934-0.719,2.875h-8.125
						C-155.564,1165.762-154.107,1164.813-152.75,1163.831z M-158.688,1167.675c0.214,0.059,0.393,0.031,0.5,0.031h8.906
						c-0.199,0.414-0.445,0.801-0.688,1.188h-6.219c-0.01,0-0.021,0-0.031,0c-0.276,0.009-0.493,0.24-0.484,0.516
						c0.009,0.276,0.239,0.493,0.516,0.484h5.531c-2.197,2.842-5.585,4.656-9.406,4.656c-1.482,0-2.907-0.268-4.219-0.781h3.781
						c0.276,0.004,0.503-0.217,0.507-0.492c0.004-0.277-0.217-0.504-0.493-0.508c-0.005,0-0.009,0-0.014,0h-5.75
						c-0.01,0-0.021,0-0.031,0c-0.391-0.244-0.763-0.527-1.125-0.813c0.031-0.012,0.063-0.02,0.094-0.031
						c0.011-0.01,0.021-0.021,0.031-0.031c0.009-0.004,0.022,0.004,0.031,0h5.75c0.276,0.004,0.503-0.217,0.507-0.492
						c0.004-0.277-0.217-0.504-0.493-0.508c-0.005,0-0.009,0-0.014,0h-3.406C-162.917,1169.991-160.808,1168.912-158.688,1167.675z
						 M-171.531,1168.456c0.247,0.478,0.508,0.937,0.813,1.375c-0.274,0.01-0.524-0.012-0.719-0.063
						c-0.185-0.048-0.289-0.098-0.344-0.156s-0.072-0.111-0.063-0.25c0-0.01,0-0.021,0-0.031
						C-171.844,1169.165-171.72,1168.853-171.531,1168.456z M-158.125,1168.894c-0.287,0-0.5,0.238-0.5,0.531
						c0,0.294,0.213,0.5,0.5,0.5s0.5-0.206,0.5-0.5C-157.625,1169.13-157.838,1168.894-158.125,1168.894z M-159.063,1172.862
						c-0.287,0-0.5,0.217-0.5,0.438c0,0.295,0.213,0.5,0.5,0.5c0.216,0,0.438-0.206,0.438-0.5
						C-158.625,1173.079-158.847,1172.862-159.063,1172.862z"/>
				</g>
			</g>
		</g>
	</g>
</g>
</svg>
