<?xml version="1.0" encoding="utf-8"?>
<!-- Generator: Adobe Illustrator 16.0.0, SVG Export Plug-In . SVG Version: 6.00 Build 0)  -->
<!DOCTYPE svg PUBLIC "-//W3C//DTD SVG 1.1//EN" "http://www.w3.org/Graphics/SVG/1.1/DTD/svg11.dtd">
<svg version="1.1" id="Layer_1" xmlns="http://www.w3.org/2000/svg" xmlns:xlink="http://www.w3.org/1999/xlink" x="0px" y="0px"
	 width="491.52px" height="491.52px" viewBox="0 0 491.52 491.52" enable-background="new 0 0 491.52 491.52" xml:space="preserve">
<g id="Layer_x0020_1">
	<g id="_377328008">
		<polygon id="_377328224" fill="#F3317A" points="94.966,122.503 94.966,369.017 79.605,369.017 79.605,122.503 		"/>
		<polygon id="_377328896" fill="#F3317A" points="119.458,122.503 119.458,333.801 107.938,333.801 107.938,122.503 		"/>
		<polygon id="_377328824" fill="#F3317A" points="145.871,122.503 145.871,333.801 134.351,333.801 134.351,122.503 		"/>
		<polygon id="_377328776" fill="#F3317A" points="172.282,122.503 172.282,333.801 160.762,333.801 160.762,122.503 		"/>
		<polygon id="_377328488" fill="#F3317A" points="198.695,122.503 198.695,333.801 187.175,333.801 187.175,122.503 		"/>
		<polygon id="_377328560" fill="#F3317A" points="227.027,122.503 227.027,369.017 211.667,369.017 211.667,122.503 		"/>
		<polygon id="_377328632" fill="#F3317A" points="251.52,122.503 251.52,333.801 240,333.801 240,122.503 		"/>
		<polygon id="_377328800" fill="#F3317A" points="279.853,122.503 279.853,369.017 264.492,369.017 264.492,122.503 		"/>
		<polygon id="_377327720" fill="#F3317A" points="411.914,122.503 411.914,369.017 396.554,369.017 396.554,122.503 		"/>
		<polygon id="_377327480" fill="#F3317A" points="304.345,122.503 304.345,333.801 292.824,333.801 292.824,122.503 		"/>
		<polygon id="_377328056" fill="#F3317A" points="330.757,122.503 330.757,333.801 319.237,333.801 319.237,122.503 		"/>
		<polygon id="_377328152" fill="#F3317A" points="357.17,122.503 357.17,333.801 345.649,333.801 345.649,122.503 		"/>
		<polygon id="_377328128" fill="#F3317A" points="383.581,122.503 383.581,333.801 372.062,333.801 372.062,122.503 		"/>
		<path id="_377328080" fill="#F3317A" d="M116.308,343.404c2.346,0,4.174,0.838,5.491,2.509c1.57,1.976,2.357,5.255,2.357,9.841
			c0,4.568-0.793,7.854-2.374,9.857c-1.305,1.647-3.128,2.469-5.474,2.469c-2.346,0-4.242-0.9-5.683-2.711
			c-1.44-1.807-2.16-5.03-2.16-9.666c0-4.552,0.793-7.826,2.374-9.824C112.145,344.231,113.967,343.404,116.308,343.404
			L116.308,343.404z M116.308,347.246c-0.557,0-1.058,0.181-1.497,0.535c-0.439,0.359-0.782,1.002-1.024,1.924
			c-0.315,1.199-0.479,3.213-0.479,6.049s0.146,4.781,0.428,5.84c0.287,1.063,0.647,1.767,1.08,2.121
			c0.439,0.349,0.934,0.529,1.491,0.529c0.563,0,1.063-0.181,1.502-0.541c0.439-0.354,0.782-0.996,1.024-1.918
			c0.315-1.188,0.478-3.195,0.478-6.031s-0.146-4.783-0.427-5.846c-0.287-1.059-0.647-1.768-1.08-2.127
			C117.366,347.427,116.871,347.246,116.308,347.246L116.308,347.246z M145.397,367.67h-4.631v-17.458
			c-1.693,1.587-3.685,2.757-5.98,3.511v-4.203c1.204-0.394,2.521-1.142,3.938-2.244c1.418-1.109,2.391-2.397,2.914-3.871h3.759
			V367.67L145.397,367.67z M174.256,363.365v4.305h-16.237c0.18-1.626,0.703-3.168,1.586-4.625c0.878-1.457,2.616-3.387,5.205-5.795
			c2.093-1.941,3.37-3.264,3.842-3.955c0.636-0.957,0.957-1.902,0.957-2.836c0-1.029-0.276-1.822-0.833-2.379
			c-0.557-0.558-1.322-0.834-2.301-0.834c-0.968,0-1.733,0.293-2.307,0.873c-0.568,0.585-0.9,1.553-0.99,2.902l-4.613-0.461
			c0.275-2.549,1.136-4.377,2.588-5.491c1.452-1.108,3.263-1.665,5.44-1.665c2.386,0,4.259,0.646,5.621,1.93
			c1.362,1.288,2.042,2.887,2.042,4.799c0,1.086-0.196,2.121-0.585,3.105c-0.388,0.984-1.007,2.015-1.851,3.09
			c-0.563,0.714-1.575,1.744-3.032,3.082c-1.463,1.34-2.391,2.234-2.779,2.673s-0.709,0.866-0.951,1.282H174.256L174.256,363.365z
			 M183.519,361.256l4.478-0.54c0.146,1.142,0.529,2.015,1.159,2.616c0.625,0.607,1.384,0.912,2.273,0.912
			c0.957,0,1.761-0.366,2.414-1.092c0.653-0.727,0.979-1.699,0.979-2.932c0-1.164-0.31-2.088-0.939-2.768
			c-0.625-0.688-1.39-1.024-2.29-1.024c-0.591,0-1.3,0.112-2.126,0.343l0.512-3.77c1.255,0.028,2.211-0.242,2.869-0.815
			c0.659-0.579,0.991-1.345,0.991-2.302c0-0.814-0.242-1.462-0.726-1.945c-0.484-0.484-1.131-0.727-1.93-0.727
			c-0.793,0-1.468,0.275-2.025,0.827c-0.563,0.546-0.906,1.351-1.024,2.402l-4.271-0.72c0.298-1.463,0.743-2.633,1.345-3.506
			c0.597-0.871,1.435-1.559,2.504-2.059c1.074-0.501,2.273-0.754,3.601-0.754c2.279,0,4.102,0.726,5.474,2.177
			c1.131,1.188,1.699,2.526,1.699,4.022c0,2.121-1.159,3.814-3.477,5.075c1.384,0.298,2.487,0.962,3.319,1.997
			c0.827,1.029,1.244,2.279,1.244,3.742c0,2.121-0.776,3.927-2.324,5.424c-1.547,1.49-3.477,2.238-5.784,2.238
			c-2.188,0-4-0.63-5.44-1.885C184.582,364.936,183.749,363.293,183.519,361.256L183.519,361.256z"/>
		<path id="_377327648" fill="#F3317A" d="M301.993,367.67v-4.861h-9.892v-4.057l10.488-15.348h3.888v15.331h2.998v4.073h-2.998
			v4.861H301.993L301.993,367.67z M301.993,358.735v-8.259l-5.554,8.259H301.993z M318.047,361.453l4.613-0.473
			c0.129,1.041,0.522,1.867,1.17,2.475c0.646,0.613,1.396,0.918,2.239,0.918c0.968,0,1.789-0.395,2.459-1.176
			c0.669-0.789,1.007-1.976,1.007-3.557c0-1.479-0.332-2.594-1.001-3.336c-0.664-0.742-1.531-1.113-2.594-1.113
			c-1.328,0-2.521,0.59-3.578,1.766l-3.759-0.546l2.374-12.574h12.248v4.332h-8.737l-0.726,4.106
			c1.035-0.518,2.087-0.775,3.167-0.775c2.054,0,3.798,0.748,5.222,2.239c1.429,1.496,2.144,3.438,2.144,5.823
			c0,1.986-0.574,3.764-1.728,5.322c-1.575,2.132-3.753,3.195-6.543,3.195c-2.233,0-4.051-0.597-5.457-1.795
			C319.16,365.087,318.316,363.478,318.047,361.453L318.047,361.453z M358.737,349.424l-4.484,0.495
			c-0.107-0.923-0.394-1.604-0.855-2.048c-0.461-0.439-1.063-0.658-1.8-0.658c-0.974,0-1.801,0.438-2.481,1.322
			c-0.676,0.877-1.097,2.706-1.277,5.485c1.159-1.362,2.588-2.042,4.304-2.042c1.936,0,3.59,0.736,4.969,2.211
			c1.378,1.469,2.07,3.369,2.07,5.699c0,2.475-0.727,4.455-2.178,5.952c-1.445,1.491-3.313,2.239-5.587,2.239
			c-2.436,0-4.444-0.945-6.015-2.841c-1.569-1.896-2.357-5.002-2.357-9.323c0-4.428,0.816-7.617,2.453-9.575
			c1.638-1.958,3.765-2.937,6.381-2.937c1.834,0,3.353,0.518,4.557,1.541C357.64,345.975,358.405,347.466,358.737,349.424z
			 M348.238,359.528c0,1.503,0.343,2.667,1.035,3.483c0.692,0.82,1.485,1.231,2.375,1.231c0.86,0,1.569-0.337,2.144-1.007
			c0.573-0.67,0.854-1.772,0.854-3.297c0-1.57-0.304-2.723-0.923-3.455c-0.613-0.73-1.384-1.097-2.307-1.097
			c-0.889,0-1.643,0.349-2.256,1.046C348.542,357.132,348.238,358.167,348.238,359.528L348.238,359.528z M368.112,348.135v-4.297
			h15.837v3.357c-1.305,1.289-2.633,3.135-3.988,5.543c-1.351,2.402-2.38,4.962-3.089,7.668c-0.709,2.712-1.058,5.131-1.047,7.264
			h-4.467c0.078-3.342,0.765-6.746,2.07-10.218c1.3-3.477,3.038-6.577,5.216-9.317H368.112L368.112,348.135z"/>
	</g>
</g>
<rect fill="none" width="491.52" height="491.52"/>
</svg>
