<?xml version="1.0" encoding="utf-8"?>
<!-- Generator: Adobe Illustrator 16.0.0, SVG Export Plug-In . SVG Version: 6.00 Build 0)  -->
<!DOCTYPE svg PUBLIC "-//W3C//DTD SVG 1.1//EN" "http://www.w3.org/Graphics/SVG/1.1/DTD/svg11.dtd">
<svg version="1.1" id="Capa_1" xmlns="http://www.w3.org/2000/svg" xmlns:xlink="http://www.w3.org/1999/xlink" x="0px" y="0px"
	 width="492px" height="492px" viewBox="60 150 492 492" enable-background="new 60 150 492 492" xml:space="preserve">
<g>
	<g>
		<path fill="#F3317A" d="M306,243c-16.9,0-30.6,13.7-30.6,30.6c0,16.9,13.7,30.6,30.6,30.6s30.6-13.7,30.6-30.6
			C336.6,256.7,322.9,243,306,243z M306,283.8c-5.633,0-10.2-4.567-10.2-10.2c0-5.633,4.567-10.2,10.2-10.2s10.2,4.567,10.2,10.2
			C316.2,279.233,311.633,283.8,306,283.8z"/>
	</g>
</g>
<g>
	<g>
		<path fill="#F3317A" d="M450.656,555.66c-0.012-0.869-0.175-1.729-0.48-2.544l-38.479-96.184h16.171
			c4.206,0,7.616-3.409,7.616-7.615c0-4.207-3.41-7.617-7.616-7.617h-22.264l-46.828-117.083c-0.498-1.176-1.283-2.208-2.284-3.001
			c6.468-18.975,1.665-39.976-12.408-54.253v-38.929c0-4.207-3.41-7.617-7.616-7.617h-7.617v-45.7c0-4.207-3.41-7.617-7.616-7.617
			h-30.467c-4.207,0-7.617,3.41-7.617,7.617v45.7h-7.616c-4.207,0-7.617,3.41-7.617,7.617v38.929
			c-14.07,14.279-18.869,35.279-12.4,54.253c-1.001,0.793-1.787,1.825-2.285,3.001L206.397,441.7h-22.264
			c-4.207,0-7.617,3.41-7.617,7.617c0,4.206,3.41,7.615,7.617,7.615h16.17l-38.479,96.184c-0.305,0.812-0.467,1.67-0.48,2.536
			c0,0.107-0.061,0.191-0.061,0.298v30.467c0,4.206,3.41,7.616,7.616,7.616h15.233v22.85c0,4.207,3.411,7.617,7.617,7.617
			s7.617-3.41,7.617-7.617v-22.85H214.6c4.206,0,7.616-3.41,7.616-7.616V557.42l40.194-100.487h35.973v15.234
			c0,4.206,3.411,7.616,7.617,7.616s7.617-3.41,7.617-7.616v-15.234h35.974l40.192,100.487v28.997c0,4.206,3.41,7.616,7.617,7.616
			h15.232v22.85c0,4.207,3.411,7.617,7.617,7.617s7.617-3.41,7.617-7.617v-22.85H443.1c4.207,0,7.617-3.41,7.617-7.616V555.95
			C450.717,555.844,450.663,555.76,450.656,555.66z M298.383,182.733h15.234v38.083h-15.234V182.733z M283.15,236.05h45.7v20.451
			c-14.438-6.956-31.26-6.956-45.7,0V236.05z M306,266.517c21.032,0,38.083,17.051,38.083,38.083
			c0,21.032-17.051,38.083-38.083,38.083s-38.083-17.051-38.083-38.083C267.941,283.578,284.978,266.542,306,266.517z
			 M206.983,578.8h-30.467v-15.232h30.467V578.8z M209.444,548.333H180.15l36.56-91.4h29.294L209.444,548.333z M252.097,441.7
			h-29.293l41.557-103.891c5.949,7.437,13.774,13.152,22.667,16.558L252.097,441.7z M313.617,441.7v-15.233
			c0-4.206-3.411-7.617-7.617-7.617s-7.617,3.411-7.617,7.617V441.7h-29.88l33.597-83.981c1.288,0.091,2.582,0.198,3.9,0.198
			c1.317,0,2.613-0.106,3.9-0.198l33.597,83.981H313.617z M324.973,354.367c8.895-3.406,16.718-9.122,22.668-16.558L389.197,441.7
			h-29.294L324.973,354.367z M365.997,456.933h29.293l36.56,91.4h-29.293L365.997,456.933z M435.483,578.8h-30.467v-15.232h30.467
			V578.8z"/>
	</g>
</g>
</svg>
