<?xml version="1.0" encoding="utf-8"?>
<!-- Generator: Adobe Illustrator 16.0.0, SVG Export Plug-In . SVG Version: 6.00 Build 0)  -->
<!DOCTYPE svg PUBLIC "-//W3C//DTD SVG 1.1//EN" "http://www.w3.org/Graphics/SVG/1.1/DTD/svg11.dtd">
<svg version="1.1" id="Layer_1" xmlns="http://www.w3.org/2000/svg" xmlns:xlink="http://www.w3.org/1999/xlink" x="0px" y="0px"
	 width="491.52px" height="491.52px" viewBox="0 0 491.52 491.52" enable-background="new 0 0 491.52 491.52" xml:space="preserve">
<g id="Layer_x0020_1">
	<g id="_373685976">
		<path id="_373687344" fill="#F3317A" d="M79.184,135.26H276.48c4.887,0,9.326,1.994,12.537,5.207
			c3.213,3.212,5.207,7.65,5.207,12.538V300.35c0,4.888-1.994,9.326-5.207,12.538c-3.211,3.212-7.65,5.206-12.537,5.206H151.122
			h-4.889l-2.071-4.47c-1.555-3.356-4.033-6.183-7.099-8.142c-2.955-1.889-6.501-2.982-10.343-2.982
			c-3.842,0-7.389,1.094-10.343,2.982c-3.066,1.959-5.543,4.785-7.099,8.142l-2.071,4.47h-4.889H79.184
			c-4.888,0-9.326-1.994-12.538-5.206c-3.212-3.212-5.207-7.65-5.207-12.538V153.004c0-4.887,1.994-9.325,5.207-12.538
			C69.859,137.254,74.296,135.26,79.184,135.26L79.184,135.26z M276.48,150.62H79.184c-0.647,0-1.242,0.271-1.678,0.706
			c-0.436,0.436-0.706,1.031-0.706,1.678V300.35c0,0.647,0.271,1.242,0.707,1.678s1.03,0.707,1.678,0.707h18.667
			c2.676-4.059,6.193-7.523,10.306-10.152c5.392-3.445,11.763-5.443,18.563-5.443c6.799,0,13.171,1.998,18.563,5.443
			c4.112,2.629,7.629,6.094,10.306,10.152H276.48c0.647,0,1.242-0.271,1.678-0.707s0.706-1.03,0.706-1.678V153.004
			c0-0.647-0.271-1.242-0.706-1.678S277.128,150.62,276.48,150.62L276.48,150.62z"/>
		<path id="_373686768" fill="#F3317A" d="M126.72,287.139c9.542,0,18.183,3.869,24.437,10.123s10.123,14.895,10.123,24.438
			s-3.869,18.184-10.123,24.438s-14.895,10.123-24.437,10.123c-9.543,0-18.183-3.869-24.438-10.123
			c-6.254-6.254-10.123-14.895-10.123-24.438s3.869-18.184,10.123-24.438S117.177,287.139,126.72,287.139L126.72,287.139z
			 M140.297,308.122c-3.473-3.474-8.274-5.623-13.577-5.623c-5.303,0-10.104,2.149-13.577,5.623
			c-3.474,3.474-5.623,8.274-5.623,13.577s2.149,10.104,5.623,13.577s8.274,5.622,13.577,5.622c5.303,0,10.104-2.148,13.577-5.622
			c3.474-3.474,5.623-8.274,5.623-13.577S143.771,311.596,140.297,308.122z"/>
		<path id="_373686672" fill="#F3317A" d="M345.19,287.139c9.542,0,18.183,3.869,24.438,10.123
			c6.254,6.254,10.123,14.895,10.123,24.438s-3.869,18.184-10.123,24.438c-6.255,6.254-14.896,10.123-24.438,10.123
			c-9.543,0-18.184-3.869-24.438-10.123s-10.123-14.895-10.123-24.438s3.869-18.184,10.123-24.438S335.647,287.139,345.19,287.139
			L345.19,287.139z M358.768,308.122c-3.474-3.474-8.274-5.623-13.577-5.623s-10.104,2.149-13.577,5.623s-5.623,8.274-5.623,13.577
			s2.149,10.104,5.623,13.577s8.274,5.622,13.577,5.622s10.104-2.148,13.577-5.622s5.623-8.274,5.623-13.577
			S362.241,311.596,358.768,308.122z"/>
		<path id="_373686576" fill="#F3317A" d="M430.08,253.084v57.229c0,4.242-3.439,7.681-7.681,7.681h-52.854
			c-3.285,0-6.089-2.063-7.186-4.964c-1.568-3.1-3.953-5.72-6.873-7.576c-2.938-1.87-6.469-2.953-10.296-2.953
			s-7.357,1.083-10.296,2.953c-3.083,1.961-5.569,4.771-7.129,8.1l-6.93-3.24l6.955,3.258c-1.326,2.831-4.159,4.475-7.095,4.423
			h-34.152c-4.241,0-7.681-3.438-7.681-7.681V173.661c0-4.241,3.439-7.68,7.681-7.68h87.839c2.927,0,5.471,1.637,6.767,4.045
			l47.813,79.018l0.008-0.005C429.736,250.306,430.094,251.705,430.08,253.084L430.08,253.084z M414.72,302.633v-47.492
			l-44.656-73.8h-75.839v121.292h22.177c2.679-4.039,6.184-7.479,10.272-10.081c5.388-3.427,11.743-5.413,18.517-5.413
			s13.128,1.986,18.516,5.413c4.089,2.602,7.594,6.042,10.273,10.081H414.72L414.72,302.633z"/>
		<path id="_373686192" fill="#F3317A" d="M321.831,196.521h38.838h3.399l1.641,2.993l20.412,37.238l4.675,8.528h-9.714h-59.251
			h-5.761v-5.76v-37.238v-5.76H321.831z M357.27,208.041h-29.679v25.719h43.776L357.27,208.041z"/>
	</g>
</g>
<rect fill="none" width="491.52" height="491.52"/>
</svg>
