<?xml version="1.0" encoding="utf-8"?>
<!-- Generator: Adobe Illustrator 16.0.0, SVG Export Plug-In . SVG Version: 6.00 Build 0)  -->
<!DOCTYPE svg PUBLIC "-//W3C//DTD SVG 1.1//EN" "http://www.w3.org/Graphics/SVG/1.1/DTD/svg11.dtd">
<svg version="1.1" id="Layer_1" xmlns="http://www.w3.org/2000/svg" xmlns:xlink="http://www.w3.org/1999/xlink" x="0px" y="0px"
	 width="491.52px" height="491.52px" viewBox="0 0 491.52 491.52" enable-background="new 0 0 491.52 491.52" xml:space="preserve">
<g id="Layer_x0020_1">
	<g id="_375241656">
		<path id="_375242424" fill="#F3317A" d="M258.678,199.473h149.24h9.244l-1.714,9.09l-33.312,176.64l-1.183,6.271h-6.348H291.99
			h-6.348l-1.183-6.271l-33.312-176.64l-1.715-9.09H258.678L258.678,199.473z M398.674,214.833H267.922l30.415,161.28h69.922
			L398.674,214.833L398.674,214.833z"/>
		<polygon id="_375242856" fill="#F3317A" points="269.678,233.489 402.896,233.489 402.896,248.85 269.678,248.85 		"/>
		<polygon id="_375242712" fill="#F3317A" points="356.392,205.473 378.95,106.047 380.312,100.046 386.421,100.046 
			415.598,100.046 415.598,115.407 392.529,115.407 371.332,208.833 		"/>
		<g>
			<path id="_375242688" fill="#F3317A" d="M88.388,211.268h21.837h5.888l1.522,5.73c1.831,6.89,6.329,12.942,12.508,17.283
				c6.212,4.365,14.115,6.971,22.758,6.971c8.644,0,16.546-2.606,22.758-6.971c6.179-4.341,10.677-10.394,12.508-17.283l1.522-5.73
				h5.887h28.584c0.472,0,1.022,0.036,1.641,0.105c3.069,0.343,5.977,1.668,8.152,3.618c2.594,2.325,4.237,5.504,4.237,9.124
				c0,0.349-0.029,0.781-0.086,1.295l-16.866,150.672c-0.39,3.484-2.042,6.665-4.599,8.938c-2.448,2.178-5.669,3.525-9.346,3.525
				H105.254c-3.678,0-6.898-1.348-9.347-3.525c-2.557-2.272-4.208-5.453-4.598-8.938L74.443,225.41
				c-0.057-0.515-0.086-0.947-0.086-1.296c0-3.619,1.643-6.798,4.237-9.124c2.175-1.949,5.083-3.274,8.152-3.618
				C87.366,211.304,87.916,211.268,88.388,211.268L88.388,211.268z M104.777,226.628H90.008l16.405,146.556h99.724l16.406-146.556
				h-21.517c-3.399,8.051-9.174,15.014-16.546,20.194c-8.727,6.131-19.699,9.791-31.579,9.791c-11.879,0-22.853-3.66-31.579-9.791
				C113.951,241.642,108.176,234.68,104.777,226.628L104.777,226.628z"/>
			<path id="_375242328" fill="#F3317A" d="M133.833,169.825c-0.547-4.192-4.389-7.147-8.58-6.6s-7.146,4.389-6.6,8.58l9.792,75.12
				c0.547,4.192,4.389,7.147,8.581,6.601c4.191-0.547,7.146-4.389,6.6-8.581L133.833,169.825z"/>
			<path id="_375242064" fill="#F3317A" d="M167.998,171.806c0.547-4.191-2.408-8.033-6.6-8.58c-4.191-0.547-8.033,2.408-8.58,6.6
				l-9.792,75.12c-0.547,4.191,2.408,8.033,6.6,8.58c4.191,0.547,8.033-2.408,8.58-6.6L167.998,171.806L167.998,171.806z"/>
			<path id="_375241800" fill="#F3317A" d="M190.792,172.166c0.746-4.158-2.021-8.134-6.18-8.88c-4.158-0.746-8.134,2.021-8.88,6.18
				l-13.493,75.12c-0.746,4.159,2.021,8.135,6.18,8.88c4.159,0.746,8.135-2.021,8.88-6.18L190.792,172.166z"/>
			<path id="_375241560" fill="#F3317A" d="M211.031,173.073c0.745-4.158-2.021-8.134-6.18-8.88c-4.158-0.746-8.134,2.021-8.88,6.18
				l-9.39,52.127c-0.746,4.158,2.021,8.135,6.18,8.88c4.158,0.746,8.135-2.021,8.88-6.18L211.031,173.073z"/>
			<path id="_375241992" fill="#F3317A" d="M152.902,285.48c8.641,0,16.464,3.503,22.127,9.166
				c5.663,5.662,9.166,13.486,9.166,22.127c0,8.64-3.503,16.463-9.166,22.126c-5.664,5.663-13.487,9.166-22.127,9.166
				s-16.464-3.503-22.126-9.166s-9.166-13.486-9.166-22.126c0-8.641,3.503-16.465,9.166-22.127
				C136.438,288.983,144.262,285.48,152.902,285.48L152.902,285.48z M164.168,305.506c-2.882-2.882-6.866-4.666-11.267-4.666
				c-4.4,0-8.384,1.784-11.266,4.666c-2.883,2.883-4.666,6.866-4.666,11.268c0,4.4,1.784,8.384,4.666,11.266
				c2.882,2.883,6.866,4.666,11.266,4.666s8.384-1.783,11.267-4.666c2.882-2.882,4.666-6.865,4.666-11.266
				C168.834,312.372,167.051,308.389,164.168,305.506z"/>
		</g>
	</g>
</g>
<rect fill="none" width="491.52" height="491.52"/>
</svg>
