<?xml version="1.0" encoding="utf-8"?>
<!-- Generator: Adobe Illustrator 16.0.0, SVG Export Plug-In . SVG Version: 6.00 Build 0)  -->
<!DOCTYPE svg PUBLIC "-//W3C//DTD SVG 1.1//EN" "http://www.w3.org/Graphics/SVG/1.1/DTD/svg11.dtd">
<svg version="1.1" id="Layer_1" xmlns="http://www.w3.org/2000/svg" xmlns:xlink="http://www.w3.org/1999/xlink" x="0px" y="0px"
	 width="491.52px" height="491.52px" viewBox="0 0 491.52 491.52" enable-background="new 0 0 491.52 491.52" xml:space="preserve">
<g id="Layer_x0020_1">
	<g id="_373688832">
		<path id="_373689408" fill="#F3317A" d="M77.584,171.091H380.61c4.448,0,8.486,1.814,11.408,4.736
			c2.923,2.923,4.736,6.961,4.736,11.408v149.503c0,4.447-1.813,8.486-4.736,11.408c-2.922,2.922-6.96,4.736-11.408,4.736H77.584
			c-4.447,0-8.485-1.814-11.408-4.736c-2.922-2.922-4.736-6.961-4.736-11.408V187.235c0-4.448,1.814-8.486,4.736-11.408
			S73.137,171.091,77.584,171.091L77.584,171.091z M380.61,186.451H77.584c-0.208,0-0.403,0.091-0.548,0.236
			c-0.146,0.145-0.236,0.34-0.236,0.548v149.503c0,0.207,0.091,0.402,0.236,0.548s0.34,0.236,0.548,0.236H380.61
			c0.208,0,0.403-0.091,0.548-0.236c0.146-0.146,0.236-0.341,0.236-0.548V187.235c0-0.208-0.09-0.402-0.236-0.548
			C381.014,186.542,380.818,186.451,380.61,186.451z"/>
		<path id="_373688352" fill="#F3317A" d="M77.584,171.091h32.274h4.62l2.16,4.14c1.405,2.693,2.498,5.562,3.23,8.559
			c0.725,2.966,1.109,6.001,1.109,9.053c0,10.535-4.271,20.073-11.175,26.977c-6.904,6.905-16.442,11.175-26.977,11.175
			c-3.026,0-5.981-0.357-8.823-1.031c-2.88-0.683-5.673-1.718-8.333-3.06l-4.23-2.134v-4.707v-32.829
			c0-4.448,1.814-8.486,4.736-11.408S73.137,171.091,77.584,171.091L77.584,171.091z M104.738,186.451H77.584
			c-0.208,0-0.403,0.091-0.548,0.236c-0.146,0.145-0.236,0.34-0.236,0.548v27.6c0.245,0.066,0.493,0.129,0.743,0.188
			c1.684,0.4,3.453,0.611,5.283,0.611c6.295,0,11.993-2.551,16.117-6.675c4.124-4.124,6.675-9.822,6.675-16.117
			c0-1.946-0.218-3.771-0.629-5.453C104.911,187.074,104.828,186.761,104.738,186.451L104.738,186.451z M350.192,171.091h30.419
			c4.447,0,8.485,1.814,11.408,4.736c2.922,2.923,4.736,6.961,4.736,11.408v33.689v5.061l-4.711,1.99
			c-2.301,0.972-4.731,1.727-7.263,2.238c-2.544,0.513-5.074,0.782-7.557,0.782c-10.534,0-20.072-4.271-26.978-11.175
			c-6.904-6.904-11.175-16.442-11.175-26.977c0-3.052,0.385-6.087,1.109-9.054c0.732-2.996,1.825-5.865,3.229-8.558l2.159-4.14
			H350.192L350.192,171.091z M380.611,186.451h-25.298c-0.09,0.31-0.174,0.623-0.251,0.938c-0.41,1.682-0.629,3.507-0.629,5.453
			c0,6.295,2.551,11.993,6.675,16.117s9.822,6.675,16.117,6.675c1.509,0,2.9-0.12,4.17-0.348v-28.051
			c0-0.208-0.091-0.402-0.236-0.548S380.818,186.451,380.611,186.451L380.611,186.451z M396.756,303.426v33.313
			c0,4.447-1.814,8.486-4.737,11.408c-2.922,2.922-6.96,4.736-11.407,4.736h-30.612h-4.709l-2.131-4.23
			c-1.341-2.658-2.374-5.45-3.056-8.327c-0.674-2.841-1.03-5.794-1.03-8.817c0-10.535,4.271-20.072,11.175-26.977
			c6.905-6.905,16.443-11.176,26.978-11.176c2.483,0,5.014,0.27,7.558,0.782c2.531,0.511,4.961,1.266,7.263,2.238l4.71,1.99V303.426
			L396.756,303.426z M381.395,336.738v-27.674c-1.269-0.229-2.66-0.349-4.169-0.349c-6.295,0-11.993,2.551-16.117,6.675
			s-6.675,9.822-6.675,16.117c0,1.828,0.211,3.596,0.609,5.277c0.059,0.248,0.121,0.494,0.188,0.737h25.381
			c0.207,0,0.402-0.091,0.548-0.235C381.305,337.141,381.396,336.946,381.395,336.738L381.395,336.738z M110.052,352.883H77.584
			c-4.447,0-8.485-1.814-11.408-4.736c-2.922-2.922-4.736-6.961-4.736-11.408v-32.451v-4.707l4.23-2.134
			c2.66-1.341,5.453-2.376,8.333-3.06c2.842-0.674,5.797-1.031,8.823-1.031c10.534,0,20.072,4.271,26.977,11.176
			c6.904,6.904,11.175,16.441,11.175,26.977c0,3.023-0.356,5.977-1.03,8.818c-0.681,2.876-1.715,5.668-3.056,8.326l-2.132,4.23
			H110.052L110.052,352.883z M77.584,337.522h27.236c0.066-0.243,0.128-0.489,0.187-0.737c0.398-1.682,0.61-3.449,0.61-5.277
			c0-6.295-2.551-11.993-6.675-16.117s-9.822-6.675-16.117-6.675c-1.83,0-3.599,0.212-5.283,0.611
			c-0.25,0.06-0.498,0.122-0.743,0.188v27.223c0,0.208,0.091,0.402,0.236,0.549C77.182,337.432,77.377,337.523,77.584,337.522
			L77.584,337.522z"/>
		<path id="_373688280" fill="#F3317A" d="M229.098,191.707c19.406,0,36.977,7.867,49.695,20.585
			c12.719,12.718,20.585,30.289,20.585,49.695c0,19.406-7.866,36.977-20.585,49.695c-12.719,12.718-30.289,20.585-49.695,20.585
			c-19.407,0-36.977-7.867-49.695-20.585c-12.719-12.719-20.585-30.289-20.585-49.695c0-19.407,7.867-36.977,20.585-49.695
			C192.121,199.573,209.691,191.707,229.098,191.707z M267.933,223.152c-9.938-9.938-23.668-16.085-38.835-16.085
			c-15.167,0-28.897,6.147-38.835,16.085s-16.085,23.668-16.085,38.834c0,15.168,6.147,28.898,16.085,38.836
			s23.668,16.085,38.835,16.085c15.167,0,28.896-6.147,38.835-16.085s16.085-23.668,16.085-38.836
			C284.018,246.82,277.871,233.09,267.933,223.152z"/>
		<path id="_373688232" fill="#F3317A" d="M228.515,307.431v-9.023c-4.521-0.565-8.185-1.575-11.01-3.03
			c-2.825-1.456-5.274-3.818-7.329-7.055c-2.055-3.254-3.253-7.209-3.579-11.883l9.075-1.713c0.702,4.846,1.935,8.407,3.716,10.685
			c2.534,3.22,5.582,5,9.126,5.359v-28.731c-3.716-0.702-7.5-2.141-11.387-4.314c-2.876-1.61-5.085-3.836-6.644-6.678
			c-1.558-2.844-2.329-6.062-2.329-9.675c0-6.421,2.277-11.626,6.815-15.599c3.048-2.688,7.568-4.314,13.544-4.914v-4.315h5.325
			v4.315c5.239,0.497,9.417,2.038,12.482,4.606c3.955,3.271,6.318,7.774,7.123,13.493l-9.332,1.404
			c-0.531-3.544-1.644-6.267-3.339-8.15c-1.678-1.883-3.99-3.133-6.935-3.732v26.026c4.537,1.147,7.551,2.038,9.023,2.671
			c2.808,1.232,5.103,2.74,6.867,4.504c1.78,1.78,3.15,3.887,4.092,6.317c0.959,2.448,1.438,5.085,1.438,7.929
			c0,6.266-2.003,11.472-5.975,15.649c-3.973,4.195-9.127,6.421-15.445,6.729v9.126H228.515L228.515,307.431z M228.515,228.376
			c-3.51,0.53-6.284,1.935-8.305,4.212s-3.031,4.966-3.031,8.082c0,3.065,0.856,5.65,2.585,7.723
			c1.729,2.071,4.641,3.732,8.75,4.965V228.376L228.515,228.376z M233.84,290.771c3.51-0.428,6.404-1.952,8.698-4.555
			c2.294-2.603,3.442-5.839,3.442-9.691c0-3.271-0.822-5.907-2.432-7.894c-1.626-1.986-4.862-3.767-9.708-5.342V290.771
			L233.84,290.771z"/>
		<path id="_373688736" fill="#F3317A" d="M118.433,230.662c8.649,0,16.481,3.507,22.15,9.176c5.669,5.669,9.176,13.5,9.176,22.149
			s-3.506,16.481-9.176,22.149c-5.669,5.67-13.5,9.176-22.15,9.176c-8.649,0-16.48-3.506-22.149-9.176
			c-5.669-5.668-9.176-13.5-9.176-22.149s3.506-16.48,9.176-22.149C101.952,234.168,109.783,230.662,118.433,230.662
			L118.433,230.662z M129.723,250.697c-2.889-2.888-6.88-4.675-11.29-4.675c-4.409,0-8.401,1.786-11.29,4.675
			c-2.888,2.889-4.675,6.881-4.675,11.29s1.787,8.401,4.675,11.29c2.889,2.889,6.881,4.676,11.29,4.676
			c4.409,0,8.401-1.787,11.29-4.676s4.675-6.881,4.675-11.29S132.611,253.586,129.723,250.697z"/>
		<path id="_373688976" fill="#F3317A" d="M339.763,230.662c8.649,0,16.48,3.506,22.149,9.176c5.669,5.669,9.176,13.5,9.176,22.149
			s-3.507,16.481-9.176,22.149c-5.669,5.67-13.501,9.176-22.149,9.176c-8.649,0-16.481-3.506-22.15-9.176
			c-5.669-5.668-9.176-13.5-9.176-22.149s3.507-16.48,9.176-22.149C323.281,234.168,331.112,230.662,339.763,230.662z
			 M351.052,250.697c-2.889-2.889-6.88-4.675-11.289-4.675c-4.41,0-8.402,1.787-11.29,4.675c-2.889,2.889-4.676,6.881-4.676,11.29
			s1.787,8.401,4.676,11.29s6.88,4.676,11.29,4.676c4.408,0,8.4-1.787,11.289-4.676s4.676-6.881,4.676-11.29
			S353.94,253.586,351.052,250.697z"/>
		<path id="_373688688" fill="#F3317A" d="M77.468,166.808v-10.69c0-4.663,1.774-8.943,4.631-12.082
			c3.032-3.331,7.267-5.399,11.971-5.399h319.408c4.704,0,8.938,2.068,11.971,5.399c2.857,3.139,4.631,7.419,4.631,12.082v173.108
			c0,4.663-1.773,8.944-4.631,12.081c-3.032,3.332-7.267,5.4-11.971,5.4h-13.404v-15.361h13.404c0.202,0,0.429-0.137,0.631-0.358
			c0.376-0.413,0.61-1.034,0.61-1.762V156.118c0-0.727-0.234-1.348-0.61-1.762c-0.202-0.221-0.429-0.358-0.631-0.358H94.07
			c-0.203,0-0.43,0.137-0.631,0.358c-0.376,0.414-0.611,1.035-0.611,1.762v10.69H77.468L77.468,166.808z"/>
	</g>
</g>
<rect fill="none" width="491.52" height="491.52"/>
</svg>
