<?xml version="1.0" encoding="utf-8"?>
<!-- Generator: Adobe Illustrator 16.0.0, SVG Export Plug-In . SVG Version: 6.00 Build 0)  -->
<!DOCTYPE svg PUBLIC "-//W3C//DTD SVG 1.1//EN" "http://www.w3.org/Graphics/SVG/1.1/DTD/svg11.dtd">
<svg version="1.1" id="Layer_1" xmlns="http://www.w3.org/2000/svg" xmlns:xlink="http://www.w3.org/1999/xlink" x="0px" y="0px"
	 width="491.52px" height="491.52px" viewBox="0 0 491.52 491.52" enable-background="new 0 0 491.52 491.52" xml:space="preserve">
<g id="Layer_x0020_1">
	<g id="_377321192">
		<path id="_377320904" fill="#F3317A" d="M325.771,70.031l41.759,24.109c17.909,10.34,29.518,27.728,33.793,47.411
			c4.214,19.399,1.265,41.078-9.863,60.352v0.03L263.197,424.092l-3.826,6.626l-6.645-3.836L94.975,335.803l-6.613-3.818
			l3.823-6.621l128.263-222.158c11.13-19.279,28.438-32.676,47.356-38.73c19.18-6.137,40.036-4.779,57.938,5.557H325.771
			L325.771,70.031z M359.85,107.4l-41.758-24.109l0.008-0.013c-13.992-8.069-30.418-9.086-45.615-4.223
			c-15.466,4.949-29.636,15.938-38.776,31.77l-124.44,215.536l144.495,83.425L378.2,194.254l0.013,0.007
			c9.132-15.83,11.559-33.596,8.111-49.469C382.937,129.196,373.839,115.478,359.85,107.4L359.85,107.4z"/>
		<path id="_377321120" fill="#F3317A" d="M335.131,102.039c5.506,3.179,9.202,8.288,10.727,13.977
			c1.519,5.67,0.867,11.934-2.314,17.445c-3.192,5.529-8.301,9.236-13.977,10.757c-5.683,1.522-11.957,0.872-17.476-2.315
			c-5.506-3.179-9.202-8.287-10.727-13.976c-1.517-5.661-0.87-11.913,2.299-17.417l0.016-0.059
			c3.179-5.506,8.288-9.202,13.977-10.726C323.338,98.202,329.612,98.853,335.131,102.039L335.131,102.039L335.131,102.039z
			 M331.037,119.976c-0.511-1.904-1.746-3.614-3.587-4.676v0c-1.828-1.055-3.925-1.266-5.835-0.754
			c-1.904,0.51-3.614,1.747-4.677,3.586l-0.013-0.007c-1.048,1.829-1.255,3.928-0.741,5.843c0.51,1.905,1.746,3.614,3.586,4.677
			c1.828,1.055,3.925,1.266,5.836,0.754c1.917-0.514,3.628-1.74,4.676-3.557C331.342,124.007,331.553,121.899,331.037,119.976
			L331.037,119.976z"/>
		<path id="_377321168" fill="#F3317A" d="M222.838,357.955l-53.208-30.721l6.037-10.455l48.104-1.266L188.24,295l5.765-9.985
			l53.208,30.72l-6.229,10.791l-47.081,1.41l34.7,20.033L222.838,357.955L222.838,357.955z M253.772,304.375l-53.208-30.721
			l22.773-39.444l9.006,5.199l-16.572,28.704l11.794,6.81l15.42-26.71l8.958,5.172l-15.421,26.709l14.482,8.361l17.159-29.72
			l8.97,5.179L253.772,304.375L253.772,304.375z M286.752,247.252l-60.539-18.022l6.344-10.988l41.181,13.072l-30.932-30.825
			l7.374-12.772l42.552,12.129l-32.452-29.622l6.244-10.815l45.748,43.641l-6.58,11.398l-45.896-12.375l33.679,33.534
			L286.752,247.252z"/>
		<polygon id="_377320496" fill="#F3317A" points="252.027,151.569 152.187,324.496 138.927,316.877 238.767,143.949 		"/>
		<polygon id="_377321216" fill="#F3317A" points="345.143,205.33 245.302,378.257 232.042,370.637 331.882,197.709 		"/>
	</g>
</g>
<rect fill="none" width="491.52" height="491.52"/>
</svg>
