<?xml version="1.0" encoding="utf-8"?>
<!-- Generator: Adobe Illustrator 16.0.0, SVG Export Plug-In . SVG Version: 6.00 Build 0)  -->
<!DOCTYPE svg PUBLIC "-//W3C//DTD SVG 1.1//EN" "http://www.w3.org/Graphics/SVG/1.1/DTD/svg11.dtd">
<svg version="1.1" id="Capa_1" xmlns="http://www.w3.org/2000/svg" xmlns:xlink="http://www.w3.org/1999/xlink" x="0px" y="0px"
	 width="492px" height="492px" viewBox="60 150 492 492" enable-background="new 60 150 492 492" xml:space="preserve">
<g>
	<g>
		<path fill="#F3317A" d="M532.199,265.033c-0.031,0-0.062,0-0.093,0.001h-62.127v-45.348c0-3.757-3.045-6.802-6.802-6.802H114.267
			C91.497,212.933,73.05,231.379,73,254.15V537.85c0.05,22.771,18.497,41.218,41.267,41.268h383.465
			c22.771-0.05,41.218-18.497,41.268-41.268V271.836C539,268.079,535.955,265.034,532.199,265.033z M114.267,565.603
			c-15.257-0.05-27.612-12.404-27.663-27.662V254.422c0.05-15.257,12.406-27.613,27.663-27.663h342.108v311.09
			c0.025,10.228,3.838,20.082,10.702,27.662L114.267,565.603z M524.941,537.85c0.004,15.118-12.094,27.457-27.209,27.753
			c-15.024,0.253-27.409-11.723-27.662-26.747c-0.006-0.306-0.006-0.61,0-0.915V278.729h54.871V537.85z"/>
	</g>
</g>
<g>
	<g>
		<path fill="#F3317A" d="M178.752,254.513c-2.685,0.048-4.849,2.213-4.897,4.897v37.458l-29.839-40.632
			c-1.619-2.177-4.683-2.661-6.893-1.088c-1.321,0.969-2.07,2.535-1.995,4.172v52.966c-0.058,2.755,2.129,5.034,4.883,5.092
			c0.157,0.003,0.312-0.001,0.468-0.013c2.699-0.096,4.851-2.288,4.897-4.988v-37.82l29.204,40.451l0.454,0.544
			c0.911,1.125,2.272,1.788,3.719,1.814c2.735-0.048,4.94-2.253,4.988-4.988v-52.967
			C183.644,256.711,181.453,254.56,178.752,254.513z"/>
	</g>
</g>
<g>
	<g>
		<path fill="#F3317A" d="M234.712,307.298h-24.942v-16.87h21.224c2.779-0.374,4.73-2.93,4.356-5.71
			c-0.305-2.268-2.088-4.052-4.356-4.357h-21.224v-16.688h24.942c2.75-0.096,4.942-2.329,4.988-5.079
			c-0.049-2.734-2.254-4.939-4.988-4.988h-30.021c-2.754,0-4.988,2.234-4.988,4.988v53.692c-0.05,2.755,2.143,5.028,4.896,5.078
			c0.031,0,0.062,0.001,0.092,0.001h30.021c2.78-0.374,4.731-2.93,4.357-5.71C238.764,309.387,236.98,307.604,234.712,307.298z"/>
	</g>
</g>
<g>
	<g>
		<path fill="#F3317A" d="M330.851,254.694c-2.555-1.077-5.502,0.093-6.621,2.63l-18.139,42.174l-11.7-27.935
			c-0.824-1.869-2.673-3.078-4.716-3.083c-2.057-0.043-3.931,1.181-4.716,3.083l-11.699,27.935l-18.14-42.174
			c-1.475-2.327-4.558-3.017-6.884-1.542c-1.794,1.137-2.67,3.285-2.186,5.351l26.937,53.058c0.133,0.282,0.285,0.555,0.454,0.816
			v0.544c0,0,0,0,0.635,0c0.231,0.237,0.509,0.422,0.816,0.544h0.635h2.268c0.237-0.066,0.488-0.066,0.725,0l0.726-0.544h0.544
			l0.544-0.544v-0.816l11.882-28.207l11.972,28.207c-0.044,0.27-0.044,0.547,0,0.816v0.544h0.635
			c0.213,0.256,0.497,0.446,0.816,0.544h0.635h2.176h0.727c0,0,0.544,0,0.816-0.544h0.634v-0.544
			c0.201-0.242,0.354-0.518,0.454-0.816l22.312-53.058C334.466,258.654,333.329,255.772,330.851,254.694z"/>
	</g>
</g>
<g>
	<g>
		<path fill="#F3317A" d="M396.605,290.248c-2.254-3.312-5.398-5.921-9.069-7.528c-4.024-1.838-8.258-3.178-12.606-3.991
			c-4.001-0.587-7.852-1.942-11.337-3.991c-0.959-0.625-1.789-1.425-2.449-2.358c-0.468-0.762-0.688-1.648-0.635-2.539
			c0.152-2.352,1.438-4.481,3.446-5.714c2.983-2.06,6.533-3.138,10.158-3.083c5.469-0.066,10.745,2.018,14.693,5.804
			c1.989,1.438,4.767,0.99,6.204-1c0.084-0.117,0.162-0.237,0.235-0.36c1.384-2.137,0.823-4.988-1.271-6.439
			c-5.551-4.698-12.591-7.27-19.862-7.255c-5.632-0.069-11.146,1.61-15.781,4.806c-4.395,3.044-7.086,7.99-7.256,13.333
			c-0.019,2.625,0.705,5.204,2.086,7.437c2.081,3.112,5.008,5.566,8.435,7.074c3.766,1.674,7.727,2.861,11.791,3.538
			c4.397,0.643,8.64,2.087,12.517,4.263c1.102,0.688,2.032,1.619,2.721,2.721c0.554,0.865,0.839,1.875,0.816,2.902
			c-0.145,2.687-1.604,5.129-3.9,6.53c-3.343,2.26-7.302,3.432-11.337,3.356c-6.408-0.382-12.518-2.833-17.414-6.984
			c-2.005-1.645-4.964-1.361-6.621,0.635c-1.573,2.044-1.253,4.966,0.727,6.621c6.528,5.524,14.679,8.771,23.218,9.251
			c6.028,0.106,11.936-1.704,16.869-5.17c4.741-3.173,7.647-8.447,7.801-14.149C398.78,295.236,398.027,292.568,396.605,290.248z"/>
	</g>
</g>
<g>
	<g>
		<path fill="#F3317A" d="M403.317,339.224H129.141c-3.757,0-6.802,3.045-6.802,6.803c0,3.757,3.045,6.802,6.802,6.802h274.176
			c3.758,0,6.803-3.045,6.803-6.802C410.12,342.269,407.075,339.224,403.317,339.224z"/>
	</g>
</g>
<g>
	<g>
		<path fill="#F3317A" d="M373.025,394.367H129.141c-3.757,0-6.802,3.046-6.802,6.803s3.045,6.802,6.802,6.802h243.884
			c3.756,0,6.802-3.045,6.802-6.802S376.781,394.367,373.025,394.367z"/>
	</g>
</g>
<g>
	<g>
		<path fill="#F3317A" d="M373.025,429.558H129.141c-3.757,0-6.802,3.045-6.802,6.803c0,3.757,3.045,6.802,6.802,6.802h243.884
			c3.756,0,6.802-3.045,6.802-6.802C379.827,432.603,376.781,429.558,373.025,429.558z"/>
	</g>
</g>
<g>
	<g>
		<path fill="#F3317A" d="M373.025,464.657H129.141c-3.757,0-6.802,3.045-6.802,6.803c0,3.757,3.045,6.802,6.802,6.802h243.884
			c3.756,0,6.802-3.045,6.802-6.802C379.827,467.702,376.781,464.657,373.025,464.657z"/>
	</g>
</g>
<g>
	<g>
		<path fill="#F3317A" d="M373.025,499.848H129.141c-3.757,0-6.802,3.045-6.802,6.803c0,3.757,3.045,6.802,6.802,6.802h243.884
			c3.756,0,6.802-3.045,6.802-6.802C379.827,502.893,376.781,499.848,373.025,499.848z"/>
	</g>
</g>
</svg>
