<?xml version="1.0" encoding="utf-8"?>
<!-- Generator: Adobe Illustrator 16.0.0, SVG Export Plug-In . SVG Version: 6.00 Build 0)  -->
<!DOCTYPE svg PUBLIC "-//W3C//DTD SVG 1.1//EN" "http://www.w3.org/Graphics/SVG/1.1/DTD/svg11.dtd">
<svg version="1.1" id="Layer_1" xmlns="http://www.w3.org/2000/svg" xmlns:xlink="http://www.w3.org/1999/xlink" x="0px" y="0px"
	 width="492px" height="492px" viewBox="60 150 492 492" enable-background="new 60 150 492 492" xml:space="preserve">
<g id="web_x5F_settings">
</g>
<g id="web_x5F_search">
</g>
<g id="web_x5F_speed">
</g>
<g id="web_x5F_award">
</g>
<g id="funnel">
</g>
<g id="chain">
</g>
<g id="globe_x5F_settings">
</g>
<g id="target">
</g>
<g id="web_x5F_coins">
</g>
<g id="pc_x5F_chart">
</g>
<g id="marketing">
</g>
<g id="flag">
</g>
<g id="search">
	<g>
		<path fill="#F3317A" d="M524.318,537.227l-114.545-105.34c-8.183-7.16-20.455-7.16-28.638,1.021l-6.135,6.138l-17.387-17.387
			c24.545-27.614,37.84-63.409,37.84-101.25c0-84.886-68.521-153.409-153.409-153.409c-84.886,0-153.409,68.523-153.409,153.409
			c0,84.887,68.523,153.409,153.409,153.409c26.59,0,53.183-7.159,76.706-20.454c5.113-3.068,6.135-9.203,4.09-14.317
			c-3.066-5.114-9.204-6.138-14.318-4.092c-20.455,11.251-42.953,17.386-66.477,17.386
			c-73.636,1.023-132.955-58.295-132.955-131.931c0-73.636,59.319-132.955,132.955-132.955c73.636,0,132.956,59.319,132.956,132.955
			c0,34.773-13.297,68.522-37.841,93.068c-2.047,2.047-3.068,4.091-3.068,7.159v2.047c0,3.067,1.021,5.112,3.068,7.159
			l23.522,23.521l-6.138,6.136c-8.182,8.183-8.182,20.455-1.021,28.638l105.34,114.545c8.182,9.204,20.455,14.318,33.751,14.318
			c25.567,0,46.022-20.455,46.022-46.022C538.637,558.705,533.522,546.432,524.318,537.227z M492.614,596.545
			c-7.159,0-14.317-3.068-18.41-8.181L368.865,473.817l26.589-26.589l114.547,105.339c5.112,5.114,8.181,11.251,8.181,18.41
			C518.182,585.296,506.933,596.545,492.614,596.545z"/>
		<path fill="#F3317A" d="M242.045,207.909c-62.386,0-112.5,50.114-112.5,112.5c0,62.387,50.114,112.5,112.5,112.5
			c62.387,0,112.5-50.112,112.5-112.5C354.545,258.023,304.433,207.909,242.045,207.909z M242.045,412.455
			c-51.136,0-92.045-40.91-92.045-92.046s40.909-92.045,92.045-92.045s92.046,40.909,92.046,92.045S293.182,412.455,242.045,412.455
			z"/>
		<path fill="#F3317A" d="M242.045,245.75c-40.909,0-74.658,33.75-74.658,74.658c0,6.137,4.09,10.228,10.227,10.228
			s10.228-4.09,10.228-10.228c0-29.659,24.544-54.204,54.204-54.204c6.137,0,10.228-4.091,10.228-10.228
			S248.183,245.75,242.045,245.75z"/>
	</g>
</g>
<g id="clipboard">
</g>
<g id="pc_x5F_lock">
</g>
<g id="idea">
</g>
<g id="ppc">
</g>
<g id="web_x5F_eye">
</g>
<g id="globe_x5F_location">
</g>
<g id="target_x5F_audience">
</g>
</svg>
