<?xml version="1.0" encoding="utf-8"?>
<!-- Generator: Adobe Illustrator 16.0.0, SVG Export Plug-In . SVG Version: 6.00 Build 0)  -->
<!DOCTYPE svg PUBLIC "-//W3C//DTD SVG 1.1//EN" "http://www.w3.org/Graphics/SVG/1.1/DTD/svg11.dtd">
<svg version="1.1" id="Layer_1" xmlns="http://www.w3.org/2000/svg" xmlns:xlink="http://www.w3.org/1999/xlink" x="0px" y="0px"
	 width="491.52px" height="491.52px" viewBox="0 0 491.52 491.52" enable-background="new 0 0 491.52 491.52" xml:space="preserve">
<g id="Layer_x0020_1">
	<g id="_377319344">
		<path id="_377319944" fill="#F3317A" d="M91.241,66.681h309.037c7.119,0,13.586,2.907,18.269,7.59
			c4.684,4.683,7.59,11.149,7.59,18.269v159.972c0,7.119-2.907,13.586-7.59,18.27c-4.683,4.683-11.149,7.59-18.269,7.59H261.223
			h-7.68v-7.68v-2.021c0-7.78-3.189-14.859-8.325-19.995c-5.136-5.137-12.215-8.325-19.995-8.325h-20.161
			c-7.779,0-14.858,3.188-19.995,8.325c-5.136,5.136-8.325,12.215-8.325,19.995v2.021v7.68h-7.68H91.241
			c-7.119,0-13.586-2.907-18.269-7.59c-4.683-4.684-7.59-11.15-7.59-18.27V92.54c0-7.119,2.907-13.586,7.59-18.269
			C77.655,69.588,84.123,66.681,91.241,66.681z M400.278,82.042H91.241c-2.879,0-5.502,1.184-7.409,3.09
			c-1.906,1.906-3.09,4.529-3.09,7.409v159.972c0,2.88,1.184,5.503,3.09,7.409s4.53,3.09,7.409,3.09h70.508
			c1.276-9.768,5.807-18.545,12.458-25.196c7.913-7.914,18.835-12.825,30.854-12.825h20.161c12.02,0,22.941,4.912,30.855,12.825
			c6.65,6.651,11.182,15.428,12.457,25.196h131.743c2.879,0,5.502-1.184,7.408-3.09s3.09-4.529,3.09-7.409V92.54
			c0-2.879-1.184-5.502-3.09-7.409S403.157,82.042,400.278,82.042L400.278,82.042z"/>
		<path id="_377319896" fill="#F3317A" d="M73.063,113.945h345.395h7.68v7.68v30.877v7.68h-7.68H73.063h-7.68v-7.68v-30.877v-7.68
			H73.063z M410.776,129.306H80.743v15.517h330.033V129.306z"/>
		<polygon id="_377320352" fill="#F3317A" points="327.348,230.288 353.231,230.288 353.231,245.648 327.348,245.648 		"/>
		<polygon id="_377319752" fill="#F3317A" points="363.863,230.288 389.747,230.288 389.747,245.648 363.863,245.648 		"/>
		<path id="_377320088" fill="#F3317A" d="M158.333,294.278h113.619c4.449,0,8.489,1.815,11.412,4.738
			c2.924,2.924,4.738,6.964,4.738,11.413v98.259c0,4.449-1.814,8.489-4.738,11.412c-2.923,2.924-6.963,4.738-11.412,4.738H158.333
			c-4.449,0-8.489-1.814-11.413-4.738c-2.923-2.923-4.738-6.963-4.738-11.412V310.43c0-4.449,1.815-8.489,4.738-11.413
			C149.844,296.094,153.884,294.278,158.333,294.278z M271.952,309.639H158.333c-0.209,0-0.406,0.092-0.552,0.238
			c-0.147,0.146-0.238,0.343-0.238,0.553v98.259c0,0.209,0.091,0.405,0.238,0.552c0.146,0.147,0.343,0.238,0.552,0.238h113.619
			c0.21,0,0.405-0.092,0.552-0.238s0.238-0.343,0.238-0.552V310.43c0-0.21-0.092-0.406-0.238-0.553S272.162,309.639,271.952,309.639
			z"/>
		<path id="_377320256" fill="#F3317A" d="M205.063,224.989h20.161c12.02,0,22.942,4.912,30.855,12.825
			c7.913,7.913,12.824,18.835,12.824,30.854v33.289v7.681h-7.68h-92.16h-7.68v-7.681v-33.289c0-12.02,4.912-22.942,12.825-30.854
			C182.121,229.901,193.043,224.989,205.063,224.989L205.063,224.989z M225.223,240.35h-20.161c-7.78,0-14.859,3.188-19.995,8.324
			c-5.137,5.137-8.325,12.216-8.325,19.995v25.608h76.8v-25.608c0-7.779-3.189-14.858-8.325-19.995
			C240.082,243.538,233.002,240.35,225.223,240.35L225.223,240.35z"/>
		<path id="_377319560" fill="#F3317A" d="M215.143,335.318c4.572,0,8.712,1.854,11.709,4.851c2.996,2.997,4.851,7.138,4.851,11.71
			s-1.854,8.713-4.851,11.709c-2.997,2.996-7.138,4.851-11.709,4.851c-4.573,0-8.713-1.854-11.709-4.851s-4.851-7.137-4.851-11.709
			s1.854-8.713,4.851-11.71S210.57,335.318,215.143,335.318z M219.725,347.296c-1.172-1.172-2.793-1.897-4.583-1.897
			c-1.79,0-3.411,0.725-4.583,1.897c-1.172,1.172-1.897,2.793-1.897,4.583c0,1.789,0.725,3.41,1.897,4.582
			c1.172,1.172,2.792,1.897,4.583,1.897c1.79,0,3.41-0.726,4.583-1.897c1.172-1.172,1.897-2.793,1.897-4.582
			C221.623,350.089,220.897,348.468,219.725,347.296z"/>
		<path id="_377319104" fill="#F3317A" d="M220.183,363.398c0-2.783-2.257-5.04-5.04-5.04s-5.04,2.257-5.04,5.04v26.202
			c0,2.783,2.257,5.04,5.04,5.04s5.04-2.257,5.04-5.04V363.398z"/>
	</g>
</g>
<rect fill="none" width="491.52" height="491.52"/>
</svg>
