<?xml version="1.0" encoding="utf-8"?>
<!-- Generator: Adobe Illustrator 16.0.0, SVG Export Plug-In . SVG Version: 6.00 Build 0)  -->
<!DOCTYPE svg PUBLIC "-//W3C//DTD SVG 1.1//EN" "http://www.w3.org/Graphics/SVG/1.1/DTD/svg11.dtd">
<svg version="1.1" id="Layer_1" xmlns="http://www.w3.org/2000/svg" xmlns:xlink="http://www.w3.org/1999/xlink" x="0px" y="0px"
	 width="491.52px" height="491.52px" viewBox="0 0 491.52 491.52" enable-background="new 0 0 491.52 491.52" xml:space="preserve">
<g id="Layer_x0020_1">
	<g id="_373678200">
		<path id="_373678584" fill="#F3317A" d="M112.802,80.64c-4.241,0-7.68,3.438-7.68,7.68c0,4.241,3.439,7.68,7.68,7.68h263.07
			c4.241,0,7.68-3.439,7.68-7.68c0-4.242-3.438-7.68-7.68-7.68H112.802z"/>
		<path id="_373678920" fill="#F3317A" d="M97.471,103.679h286.081h5.409l1.821,5.1l38.399,107.52l3.664,10.26h-10.895H68.671
			h-9.998l2.587-9.66l28.8-107.52l1.527-5.7H97.471L97.471,103.679z M378.144,119.04h-274.79l-24.686,92.16h332.388L378.144,119.04z
			"/>
		<path id="_373678680" fill="#F3317A" d="M99.392,211.2h291.84h7.681v7.68V403.2v7.68h-7.681H99.392h-7.68v-7.68V218.88v-7.68
			H99.392L99.392,211.2z M383.552,226.56h-276.48V395.52h276.48V226.56z"/>
		<polygon id="_373678392" fill="#F3317A" points="214.591,218.88 214.591,403.2 199.23,403.2 199.23,218.88 		"/>
		<polygon id="_373678368" fill="#F3317A" points="181.34,289.318 181.34,314.394 173.66,314.394 173.66,289.318 		"/>
		<path id="_373678872" fill="#F3317A" d="M177.5,274.158c2.819,0,5.373,1.144,7.221,2.992c1.848,1.848,2.991,4.4,2.991,7.221
			c0,2.819-1.143,5.372-2.991,7.221c-1.848,1.848-4.401,2.991-7.221,2.991c-2.82,0-5.373-1.144-7.221-2.991
			c-1.848-1.849-2.991-4.401-2.991-7.221c0-2.82,1.143-5.373,2.991-7.221C172.127,275.302,174.68,274.158,177.5,274.158
			L177.5,274.158z M179.29,282.58c-0.458-0.457-1.091-0.741-1.791-0.741c-0.7,0-1.333,0.284-1.791,0.741
			c-0.458,0.458-0.741,1.092-0.741,1.791s0.283,1.332,0.741,1.791c0.458,0.457,1.091,0.74,1.791,0.74
			c0.699,0,1.333-0.283,1.791-0.74c0.458-0.459,0.741-1.092,0.741-1.791S179.748,283.038,179.29,282.58z"/>
		<path id="_373678848" fill="#F3317A" d="M177.5,307.199c2.819,0,5.373,1.144,7.221,2.992c1.848,1.848,2.991,4.4,2.991,7.221
			c0,2.819-1.143,5.372-2.991,7.221c-1.848,1.848-4.401,2.99-7.221,2.99c-2.82,0-5.373-1.143-7.221-2.99
			c-1.848-1.849-2.991-4.402-2.991-7.221c0-2.82,1.143-5.373,2.991-7.221C172.127,308.343,174.68,307.199,177.5,307.199z
			 M179.29,315.621c-0.458-0.458-1.091-0.741-1.791-0.741c-0.7,0-1.333,0.283-1.791,0.741c-0.458,0.457-0.741,1.092-0.741,1.791
			s0.283,1.332,0.741,1.79c0.458,0.458,1.091,0.741,1.791,0.741c0.699,0,1.333-0.283,1.791-0.741
			c0.458-0.458,0.741-1.091,0.741-1.79S179.748,316.078,179.29,315.621z"/>
		<path id="_373677528" fill="#F3317A" d="M353.81,299.494c1.499-1.5,1.499-3.931,0-5.43c-1.499-1.5-3.931-1.5-5.431,0
			L283.1,359.344c-1.5,1.5-1.5,3.932,0,5.43c1.499,1.5,3.931,1.5,5.43,0L353.81,299.494L353.81,299.494z"/>
		<path id="_373678104" fill="#F3317A" d="M355.547,329.115c1.499-1.5,1.499-3.932,0-5.431s-3.931-1.499-5.43,0l-34.561,34.561
			c-1.499,1.499-1.499,3.931,0,5.431c1.499,1.498,3.931,1.498,5.43,0L355.547,329.115z"/>
		<polygon id="_373677960" fill="#F3317A" points="81.214,157.685 402.752,157.685 402.752,173.045 81.214,173.045 		"/>
	</g>
</g>
<rect fill="none" width="491.52" height="491.52"/>
</svg>
