<?xml version="1.0" encoding="utf-8"?>
<!-- Generator: Adobe Illustrator 16.0.0, SVG Export Plug-In . SVG Version: 6.00 Build 0)  -->
<!DOCTYPE svg PUBLIC "-//W3C//DTD SVG 1.1//EN" "http://www.w3.org/Graphics/SVG/1.1/DTD/svg11.dtd">
<svg version="1.1" id="Layer_1" xmlns="http://www.w3.org/2000/svg" xmlns:xlink="http://www.w3.org/1999/xlink" x="0px" y="0px"
	 width="491.52px" height="491.52px" viewBox="0 0 491.52 491.52" enable-background="new 0 0 491.52 491.52" xml:space="preserve">
<g id="Layer_x0020_1">
	<g id="_373679544">
		<path id="_373679184" fill="#F3317A" d="M69.12,78.815c-4.241,0-7.68,3.439-7.68,7.68c0,4.242,3.439,7.68,7.68,7.68h50.365
			l13.304,21.454l37.981,217.878l7.56-1.291l-7.566,1.319c0.656,3.765,3.951,6.407,7.653,6.361h220.429
			c4.241,0,7.681-3.438,7.681-7.681c0-4.241-3.439-7.68-7.681-7.68h-214.07l-37.048-212.53c-0.126-1.087-0.487-2.166-1.103-3.158
			l-0.024,0.015L130.585,83.04c-1.265-2.506-3.862-4.225-6.86-4.225L69.12,78.815L69.12,78.815z"/>
		<path id="_373679736" fill="#F3317A" d="M151.027,133.42h257.098c0.532,0,1.24,0.043,2.109,0.127
			c5.218,0.506,10.1,2.856,13.672,6.367c3.773,3.708,6.174,8.705,6.174,14.275c0,0.439-0.038,1.056-0.115,1.851l-11.376,117.173
			c-0.563,5.802-3.026,11.119-6.851,14.943c-3.853,3.853-9.012,6.237-14.989,6.237h-232.03v-15.361h232.03
			c1.634,0,3.057-0.664,4.129-1.736c1.37-1.369,2.259-3.334,2.471-5.523l11.376-117.173c0.004-0.035-0.005-0.104-0.005-0.411
			c0-1.241-0.604-2.422-1.553-3.355c-1.15-1.13-2.712-1.886-4.373-2.047c-0.05-0.005-0.27-0.007-0.669-0.007H151.027V133.42
			L151.027,133.42z"/>
		<polygon id="_373679136" fill="#F3317A" points="219.062,141.101 219.062,286.714 203.701,286.714 203.701,141.101 		"/>
		<polygon id="_373679592" fill="#F3317A" points="285.574,141.101 285.574,286.714 270.215,286.714 270.215,141.101 		"/>
		<polygon id="_373679496" fill="#F3317A" points="352.089,141.101 352.089,286.714 336.729,286.714 336.729,141.101 		"/>
		<polygon id="_373679472" fill="#F3317A" points="160.128,182.244 419.153,182.244 419.153,197.604 160.128,197.604 		"/>
		<polygon id="_373679256" fill="#F3317A" points="160.128,230.21 419.153,230.21 419.153,245.57 160.128,245.57 		"/>
		<path id="_373679424" fill="#F3317A" d="M210.183,351.84c8.402,0,16.01,3.407,21.518,8.914c5.507,5.508,8.914,13.116,8.914,21.519
			s-3.407,16.011-8.914,21.518c-5.507,5.507-13.115,8.914-21.518,8.914c-8.403,0-16.011-3.407-21.518-8.914
			c-5.508-5.507-8.915-13.115-8.915-21.518s3.407-16.011,8.915-21.519C194.171,355.247,201.78,351.84,210.183,351.84z
			 M220.84,371.614c-2.727-2.727-6.495-4.413-10.658-4.413c-4.163,0-7.932,1.687-10.658,4.413
			c-2.727,2.728-4.414,6.495-4.414,10.658s1.687,7.931,4.414,10.658c2.727,2.727,6.495,4.413,10.658,4.413
			c4.163,0,7.931-1.687,10.658-4.413c2.727-2.728,4.414-6.495,4.414-10.658S223.567,374.342,220.84,371.614L220.84,371.614z"/>
		<path id="_373679232" fill="#F3317A" d="M346.694,351.84c8.402,0,16.012,3.407,21.519,8.914
			c5.507,5.508,8.914,13.116,8.914,21.519s-3.407,16.011-8.914,21.518c-5.508,5.507-13.116,8.914-21.519,8.914
			s-16.011-3.406-21.518-8.914c-5.508-5.507-8.914-13.114-8.914-21.518c0-8.402,3.406-16.011,8.914-21.519
			C330.684,355.247,338.292,351.84,346.694,351.84z M357.353,371.614c-2.727-2.727-6.495-4.413-10.658-4.413
			s-7.931,1.687-10.658,4.413c-2.727,2.728-4.413,6.495-4.413,10.658s1.687,7.931,4.413,10.657
			c2.728,2.728,6.495,4.414,10.658,4.414s7.932-1.687,10.658-4.413c2.727-2.728,4.414-6.495,4.414-10.658
			S360.079,374.342,357.353,371.614z"/>
	</g>
</g>
<rect fill="none" width="491.52" height="491.52"/>
</svg>
