<?xml version="1.0" encoding="utf-8"?>
<!-- Generator: Adobe Illustrator 16.0.0, SVG Export Plug-In . SVG Version: 6.00 Build 0)  -->
<!DOCTYPE svg PUBLIC "-//W3C//DTD SVG 1.1//EN" "http://www.w3.org/Graphics/SVG/1.1/DTD/svg11.dtd">
<svg version="1.1" id="Layer_1" xmlns="http://www.w3.org/2000/svg" xmlns:xlink="http://www.w3.org/1999/xlink" x="0px" y="0px"
	 width="200px" height="200px" viewBox="0 0 200 200" enable-background="new 0 0 200 200" xml:space="preserve">
<g>
	<path fill="#DA5050" d="M91.097,100.126c0.246-0.072,0.516-0.15,0.804-0.235v6.679c1.783-0.137,3.842-0.227,6.187-0.254l1.544-12.1
		h-0.019l-0.74-1.479c-5.343,0.282-11.165,2.383-11.427,2.478c-0.16,0.056-0.285,0.17-0.432,0.25
		c-0.149,0.093-0.305,0.167-0.443,0.27c-0.163,0.148-0.279,0.316-0.405,0.487c-0.097,0.131-0.212,0.247-0.285,0.399
		c-0.103,0.189-0.149,0.404-0.203,0.612c-0.034,0.137-0.109,0.242-0.124,0.391l-1.099,9.957c1.452-0.328,3.378-0.655,5.916-0.891
		L91.097,100.126z M99.999,92.12c4.036,0,7.313-4.709,7.313-8.77c0-4.054-3.276-7.347-7.313-7.347c-4.043,0-7.314,3.293-7.314,7.347
		C92.685,87.412,95.956,92.12,99.999,92.12z M111.521,106.193l-2.133-1.687l0.24,2.187c0.725,0.067,1.439,0.137,2.109,0.223
		L111.521,106.193z M108.102,103.497L108.102,103.497l-4.201-3.303c-0.299,0.115-0.623,0.171-0.955,0.171
		c-0.735,0-1.397-0.304-1.893-0.781l0.857,6.734c2.232,0.027,4.297,0.109,6.191,0.257V103.497L108.102,103.497z M100.382,94.216
		h-0.016l0.255,2c0.482-0.811,1.324-1.379,2.324-1.379c1.516,0,2.744,1.232,2.752,2.753l8.477,6.667l0.221,0.546l0.804,2.693
		c0.126,0.021,0.227,0.051,0.348,0.082l-1.104-9.957c-0.012-0.149-0.088-0.26-0.127-0.402c-0.051-0.2-0.094-0.412-0.189-0.596
		c-0.081-0.155-0.197-0.284-0.301-0.415c-0.122-0.162-0.233-0.327-0.389-0.465c-0.145-0.117-0.309-0.196-0.467-0.278
		c-0.146-0.084-0.252-0.197-0.412-0.25c-0.264-0.094-6.086-2.196-11.433-2.478L100.382,94.216z M118.881,110.09
		c0,0-0.977-0.809-4.674-1.505l-1.021-3.423c-0.017-0.063-0.052-0.111-0.104-0.158l-8.749-6.88c0.063-0.164,0.106-0.336,0.106-0.524
		c0-0.826-0.666-1.496-1.496-1.496c-0.82,0-1.488,0.67-1.488,1.496c0,0.824,0.668,1.499,1.488,1.499
		c0.414,0,0.785-0.169,1.053-0.439l8.617,6.781l0.898,3.02c-2.867-0.488-7.143-0.9-13.515-0.9c-15.819,0-18.883,2.528-18.883,2.528
		v5.158h37.766L118.881,110.09L118.881,110.09z M74.5,116.402v2.164l3.776,6.43h43.445l3.779-6.43v-2.164H74.5z"/>
</g>
</svg>
