<?xml version="1.0" encoding="utf-8"?>
<!-- Generator: Adobe Illustrator 16.0.0, SVG Export Plug-In . SVG Version: 6.00 Build 0)  -->
<!DOCTYPE svg PUBLIC "-//W3C//DTD SVG 1.1//EN" "http://www.w3.org/Graphics/SVG/1.1/DTD/svg11.dtd">
<svg version="1.1" id="Layer_1" xmlns="http://www.w3.org/2000/svg" xmlns:xlink="http://www.w3.org/1999/xlink" x="0px" y="0px"
	 width="200px" height="200px" viewBox="0 0 200 200" enable-background="new 0 0 200 200" xml:space="preserve">
<g>
	<g>
		<path fill="#DA5050" d="M109.529,72.327c-4.791,0-8.676,3.884-8.676,8.675c0,4.792,3.885,8.676,8.676,8.676
			s8.676-3.884,8.676-8.676S114.32,72.327,109.529,72.327z M90.752,105.004c0.724,0,1.366-0.326,1.807-0.832l14.604-13.447
			c-2.897-0.703-5.306-2.67-6.603-5.283l-11.536,15.356c-0.425,0.595-0.677,1.112-0.677,1.8
			C88.347,103.926,89.425,105.004,90.752,105.004z M99.885,108.811c-2.936,1.407-5.232,3.448-5.363,3.565
			c-1.578,1.51-6.65,5.384-9.172,3.447c-0.549-0.423-0.831-0.933-0.89-1.605c-0.199-2.323,2.257-5.668,3.479-7.067l2.721-0.948
			c0,0-0.545-0.062-1.828-1.211c-1.2-1.078-1.518-2.244-1.518-2.244l-1.225,2.487c-0.872,0.974-4.598,5.375-4.274,9.207
			c0.119,1.412,0.782,2.619,1.918,3.488c4.853,3.729,12.313-3.334,12.592-3.604c0.08-0.07,7.948-6.998,11.616-2.895
			c0.767,0.854,1.086,1.842,0.984,3.021c-0.385,4.371-6.455,10.034-8.762,11.849c-0.576,0.453-0.676,1.288-0.223,1.864
			c0.262,0.335,0.65,0.508,1.045,0.508c0.285,0,0.576-0.093,0.816-0.282c0.377-0.295,9.203-7.289,9.768-13.703
			c0.171-1.924-0.385-3.615-1.647-5.026C108.305,107.852,105.248,106.234,99.885,108.811z"/>
	</g>
</g>
</svg>
