<?xml version="1.0" encoding="utf-8"?>
<!-- Generator: Adobe Illustrator 13.0.0, SVG Export Plug-In . SVG Version: 6.00 Build 14948)  -->
<!DOCTYPE svg PUBLIC "-//W3C//DTD SVG 1.1//EN" "http://www.w3.org/Graphics/SVG/1.1/DTD/svg11.dtd">
<svg version="1.1" id="Layer_1" xmlns="http://www.w3.org/2000/svg" xmlns:xlink="http://www.w3.org/1999/xlink" x="0px" y="0px"
	 width="64px" height="64px" viewBox="0 0 64 64" enable-background="new 0 0 64 64" xml:space="preserve">
<g>
	<title>Layer 1</title>
	<path id="Fill-3" fill="#2193A8" d="M55.5,18.8l-1.9-1.9L36,34.5c-2.2,2.2-5.9,2.2-8.1,0L10.3,17l-1.9,1.9L21.5,32L8.4,45.1
		l1.9,1.9l13.1-13.1l2.6,2.6c1.6,1.6,3.7,2.5,5.9,2.5s4.3-0.9,5.9-2.5l2.601-2.6L53.5,47l1.9-1.9L42.3,32L55.5,18.8"/>
	<path id="Fill-4" fill="#2193A8" d="M51.8,50.4H12.3c-2.3,0-4.2-1.9-4.2-4.2V18c0-2.3,1.9-4.2,4.2-4.2h39.5c2.3,0,4.2,1.9,4.2,4.2
		v28.2C56,48.5,54.1,50.4,51.8,50.4L51.8,50.4z M12.2,16.5c-0.8,0-1.4,0.6-1.4,1.4v28.2c0,0.801,0.6,1.4,1.4,1.4h39.5
		c0.8,0,1.399-0.6,1.399-1.4V17.9c0-0.8-0.601-1.4-1.399-1.4H12.2L12.2,16.5z"/>
</g>
</svg>
