<?xml version="1.0" encoding="utf-8"?>
<!-- Generator: Adobe Illustrator 13.0.0, SVG Export Plug-In . SVG Version: 6.00 Build 14948)  -->
<!DOCTYPE svg PUBLIC "-//W3C//DTD SVG 1.1//EN" "http://www.w3.org/Graphics/SVG/1.1/DTD/svg11.dtd">
<svg version="1.1" id="Layer_1" xmlns="http://www.w3.org/2000/svg" xmlns:xlink="http://www.w3.org/1999/xlink" x="0px" y="0px"
	 width="80px" height="80px" viewBox="660 1960 80 80" enable-background="new 660 1960 80 80" xml:space="preserve">
<title></title>
<path fill="#0966A1" d="M720.323,2007.307v-20.988c0-8.738-6.86-15.843-15.599-16.251c-0.408-3.349-3.512-5.717-6.86-5.309
	c-2.776,0.327-4.9,2.532-5.308,5.309c-8.738,0.408-15.598,7.595-15.598,16.333v20.906l-3.104,1.634v15.843l3.104,0.816v2.777
	c0,3.349,2.695,6.125,6.125,6.125h31.033c3.43,0,6.125-2.776,6.125-6.125v-2.777l3.104-0.816v-15.843L720.323,2007.307z
	 M677.04,2023.885l-1.47-0.408v-7.514h1.47V2023.885z M677.04,2014.33h-1.47v-4.409l1.47-0.736V2014.33z M710.114,1973.007
	c0.572,0.246,1.144,0.572,1.634,0.898v13.312h-1.634V1973.007z M710.114,1989.177h1.634c0.081,0,0.163,0,0.245,0.082h0.081
	c0.082,0.082,0.164,0.082,0.164,0.164v0.082c0,0.081,0.082,0.163,0.082,0.245c0,0.327-0.327,0.653-0.654,0.653h-1.634
	c-0.326,0-0.652-0.327-0.652-0.653S709.788,1989.177,710.114,1989.177z M711.748,1992.444v11.025h-1.634v-11.025H711.748z
	 M698.682,1966.311L698.682,1966.311c2.204,0,4.001,1.552,4.41,3.675h-8.82C694.68,1967.863,696.558,1966.311,698.682,1966.311z
	 M688.882,1991.872c1.143-0.898,1.307-2.531,0.408-3.675c-0.164-0.163-0.245-0.327-0.408-0.408v-15.435
	c1.47-0.49,2.94-0.735,4.491-0.735h10.698c1.552,0,3.022,0.245,4.492,0.653v15.435c-1.144,0.898-1.307,2.532-0.409,3.675
	c0.164,0.163,0.245,0.327,0.409,0.408v11.596h-19.682V1991.872z M685.615,1973.906c0.49-0.327,1.062-0.653,1.633-0.898v14.21h-1.633
	V1973.906z M685.615,1989.177h1.633c0,0,0.082,0,0.164,0c0.164,0,0.245,0.082,0.327,0.164c0.082,0.082,0.164,0.164,0.164,0.327
	c0,0,0,0.082,0,0.163c0,0.082,0,0.082,0,0.164c0,0.163-0.082,0.245-0.164,0.327c-0.082,0.082-0.163,0.164-0.327,0.164
	c0,0-0.082,0-0.164,0h-1.633c-0.327,0-0.653-0.327-0.653-0.654C684.962,1989.504,685.289,1989.177,685.615,1989.177z
	 M687.248,1992.444v11.025h-1.633v-11.025H687.248z M683.982,1987.789c-1.144,0.898-1.307,2.532-0.409,3.675
	c0.164,0.164,0.245,0.327,0.409,0.408v11.597h-1.226v17.559h-4.083V1986.4c0-3.919,1.552-7.676,4.329-10.453
	c0.326-0.327,0.653-0.653,0.98-0.898V1987.789z M712.973,2027.233H684.39v-16.823h1.471v2.287h1.633v-2.287h25.479V2027.233z
	 M718.689,2021.027h-4.083v-17.477h-1.226v-11.679c1.144-0.898,1.308-2.531,0.408-3.675c-0.163-0.163-0.244-0.327-0.408-0.408
	v-12.74c3.349,2.777,5.309,6.941,5.309,11.27V2021.027z M721.712,2023.477l-1.471,0.408v-7.922h1.471V2023.477z M721.712,2014.33
	h-1.471v-5.227l1.471,0.735V2014.33z"/>
<path fill="#0966A1" d="M703.989,2019.884v5.716h7.351v-5.716H703.989z M709.706,2023.967h-4.083v-2.45h4.083V2023.967z"/>
<path fill="#0966A1" d="M704.807,1985.829l-4.9-4.9c-0.817-0.817-2.042-0.817-2.858,0l-4.9,4.9c-0.817,0.817-0.817,2.042,0,2.858
	l4.9,4.9c0.816,0.816,2.042,0.816,2.858,0l4.9-4.9C705.623,1987.871,705.623,1986.564,704.807,1985.829z M697.702,1988.851
	c0,0.408-0.408,0.817-0.817,0.817c-0.408,0-0.816-0.409-0.816-0.817v-2.45c0-0.408,0.408-0.816,0.816-0.816
	c0.409,0,0.817,0.409,0.817,0.816V1988.851z M700.968,1988.851c0,0.408-0.408,0.817-0.816,0.817c-0.409,0-0.817-0.409-0.817-0.817
	v-2.45c0-0.408,0.408-0.816,0.817-0.816c0.408,0,0.816,0.409,0.816,0.816V1988.851z"/>
</svg>
