<svg width="512" height="512" xmlns="http://www.w3.org/2000/svg">

 <g>
  <title>background</title>
  <rect fill="none" id="canvas_background" height="402" width="582" y="-1" x="-1"/>
 </g>
 <g>
  <title>Layer 1</title>
  <path fill="#fcfcfc" id="svg_3" d="m485.964,14.894c-22.337,17.634 -165.582,190.607 -219.671,239.073c-27.1,24.242 -13.756,44.413 -13.756,44.413c8.077,0.811 16.164,12.937 16.164,12.937c15.753,1.809 40.38,-24.238 83.204,-91.277c57.523,-90.095 142.137,-200.306 142.137,-200.306c5.66,-11.302 -8.078,-4.84 -8.078,-4.84z"/>
  <path fill="#fa684b" id="svg_4" d="m215.171,313.482c-26.522,46.432 -64.131,31.596 -64.131,34.49c0,13.7 47.371,28.042 74.159,21.448c32.842,-8.077 41.552,-35.141 41.552,-48.841c0,-13.71 -33.52,-38.675 -51.58,-7.097z"/>
  <path stroke-width="5" stroke="#fa684b" fill="none" id="svg_5" d="m309.612,373.45c-19.947,-4.222 -35.956,-10.403 -48.705,-18.051c-7.262,9.039 -18.133,17.007 -34.022,20.908c-5.01,1.246 -10.743,1.868 -17.062,1.868c-26.852,0 -65.875,-11.768 -65.875,-30.203c0,-3.261 2.129,-6.109 5.289,-7.098c0.912,-0.275 1.869,-0.422 3.041,-0.422c0.957,0 1.983,0.092 3.311,0.192c1.805,0.151 4.048,0.315 6.681,0.315c19.274,0 34.99,-10.426 46.749,-30.991c2.913,-5.087 6.118,-8.843 9.415,-11.622c-18.738,-75.675 42.77,-176.737 -9.314,-176.737c-106.758,0 -193.304,84.701 -193.304,189.175c0,104.473 86.546,189.16 193.304,189.16c106.766,0.001 161.449,-113.608 100.492,-126.494zm-149.565,-217.944c11.974,0 21.678,9.708 21.678,21.673c0,11.97 -9.704,21.664 -21.678,21.664c-11.957,0 -21.65,-9.694 -21.65,-21.664c0,-11.966 9.694,-21.673 21.65,-21.673zm-55.554,46.908c16.096,0 29.137,13.056 29.137,29.146c0,16.105 -13.041,29.151 -29.137,29.151c-16.105,0 -29.16,-13.046 -29.16,-29.151c0,-16.09 13.055,-29.146 29.16,-29.146zm-66.581,120.19c0,-20.675 16.746,-37.426 37.421,-37.426c20.67,0 37.425,16.751 37.425,37.426c0,20.666 -16.755,37.421 -37.425,37.421c-20.675,-0.001 -37.421,-16.755 -37.421,-37.421zm103.997,148.566c-25.24,0 -45.709,-20.46 -45.709,-45.709c0,-25.231 20.469,-45.7 45.709,-45.7c25.254,0 45.714,20.469 45.714,45.7c0,25.249 -20.46,45.709 -45.714,45.709z"/>
 </g>
</svg>