<svg width="128" height="128" xmlns="http://www.w3.org/2000/svg">

 <g>
  <title>background</title>
  <rect fill="none" id="canvas_background" height="402" width="582" y="-1" x="-1"/>
 </g>
 <g>
  <title>Layer 1</title>
  <path id="svg_3" fill-rule="evenodd" fill="#fa684b" d="m60,32c6.618,0 12,-5.383 12,-12s-5.382,-12 -12,-12c-6.617,0 -12,5.383 -12,12s5.383,12 12,12zm0,-16c2.211,0 4,1.789 4,4s-1.789,4 -4,4s-4,-1.789 -4,-4s1.79,-4 4,-4zm16.001,-8c2.211,0 4,-1.789 4,-4s-1.789,-4 -4,-4s-4,1.789 -4,4s1.789,4 4,4zm-52.001,112l8,0l0,-8l-8,0l0,8zm0,-16l8,0l0,-8l-8,8zm8,0l0,8l8,0l0,-8l-8,0zm8,-16l-8,0l0,8l8,0l0,-8zm8,-8l-8,0l0,8l8,0l0,-8zm-8,16l0,8l8,0l0,-8l-8,0zm0,24l8,0l0,-8l-8,0l0,8zm8,-16l0,8l8,0l0,-8l-8,0zm8,-8l0,-8l-8,0l0,8l8,0zm8,-16l-8,0l0,8l8,0l0,-8zm-8,16l0,8l8,0l0,-8l-8,0zm0,24l8,0l0,-8l-8,0l0,8zm8,-16l0,8l8,0l0,-8l-8,0zm8.001,-8l0,-8l-8,0l0,8l8,0zm8,-16l-8,0l0,8l8,0l0,-8zm-8,16l0,8l8,0l0,-8l-8,0zm0,24l8,0l0,-8l-8,0l0,8zm8,-16l0,8l8,0l0,-8l-8,0zm8,-8l0,-8l-8,0l0,8l8,0zm8,8l0,-8l-8,0l0,8l8,0zm-8,16l8,0l0,-8l-8,0l0,8zm8,-16l0,8l8,0l0,-8l-8,0z" clip-rule="evenodd"/>
  <path id="svg_4" fill="#d9d9d9" d="m110.415,110.047l-30.414,-51.109l0,-10.938l4,0c2.211,0 4,-1.789 4,-4s-1.789,-4 -4,-4l-8,0c-2.211,0 -4,1.789 -4,4l0,16c0,0.695 0.184,1.383 0.527,1.984l30.645,51.578c0.926,1.203 1.09,2.836 0.418,4.203c-0.676,1.367 -2.066,2.234 -3.59,2.234l-72.001,0c-1.523,0 -2.914,-0.867 -3.59,-2.234c-0.672,-1.367 -0.508,-3 0.418,-4.203l30.645,-51.578c0.344,-0.601 0.527,-1.289 0.527,-1.984l0,-16c0,-2.211 -1.789,-4 -4,-4l-8,0c-2.211,0 -4,1.789 -4,4s1.789,4 4,4l4,0l0,10.938l-30.418,51.109c-2.127,3.711 -2.109,8.273 0.039,11.977s6.102,5.976 10.379,5.976l72,0c4.277,0 8.23,-2.273 10.379,-5.977s2.165,-8.265 0.036,-11.976z"/>
 </g>
</svg>