<?xml version="1.0" encoding="utf-8"?>
<!-- Generator: Adobe Illustrator 16.0.0, SVG Export Plug-In . SVG Version: 6.00 Build 0)  -->
<!DOCTYPE svg PUBLIC "-//W3C//DTD SVG 1.1//EN" "http://www.w3.org/Graphics/SVG/1.1/DTD/svg11.dtd">
<svg version="1.1" id="Capa_1" xmlns="http://www.w3.org/2000/svg" xmlns:xlink="http://www.w3.org/1999/xlink" x="0px" y="0px"
	 width="100px" height="100px" viewBox="31.489 31.489 100 100" enable-background="new 31.489 31.489 100 100"
	 xml:space="preserve">
<g>
	<g>
		<path fill="#2193A8" d="M126.249,92.261l-10.771-21.545l-10.772,21.545h7.256c-4.567,14.258-17.925,24.621-33.684,24.621
			c-19.515,0-35.395-15.878-35.395-35.394c0-19.515,15.879-35.395,35.395-35.395c15.037,0,27.883,9.442,32.998,22.699l3.538-7.076
			C107.775,48.758,94.039,39.94,78.28,39.94c-22.91,0-41.55,18.639-41.55,41.549c0,22.909,18.64,41.55,41.55,41.55
			c19.183,0,35.335-13.078,40.096-30.776L126.249,92.261L126.249,92.261z"/>
		<path fill="#2193A8" d="M56.221,89.779h3.891l1.181-4.256h4.748l1.281,4.256h4.034l-5.142-16.583h-4.921L56.221,89.779z
			 M62.816,79.199c0.271-0.96,0.518-2.216,0.764-3.198h0.049c0.246,0.982,0.542,2.217,0.838,3.198l1.034,3.522h-3.667L62.816,79.199
			z"/>
		<path fill="#2193A8" d="M81.625,76.125c1.819,0,2.95,0.32,3.861,0.71l0.789-3.003c-0.813-0.393-2.462-0.813-4.602-0.813
			c-5.438,0-9.448,3.147-9.477,8.661c-0.023,2.436,0.813,4.599,2.34,6.031c1.526,1.476,3.715,2.238,6.744,2.238
			c2.186,0,4.38-0.541,5.534-0.935v-8.735H80.64v2.928h2.562v3.468c-0.297,0.15-0.987,0.246-1.848,0.246
			c-3.078,0-5.216-2.02-5.216-5.439C76.137,77.894,78.497,76.125,81.625,76.125z"/>
		<polygon fill="#2193A8" points="99.992,76.273 99.992,73.198 89.756,73.198 89.756,89.779 100.338,89.779 100.338,86.707 
			93.521,86.707 93.521,82.77 99.625,82.77 99.625,79.716 93.521,79.716 93.521,76.273 		"/>
	</g>
</g>
</svg>
