<?xml version="1.0" encoding="utf-8"?>
<!-- Generator: Adobe Illustrator 16.0.0, SVG Export Plug-In . SVG Version: 6.00 Build 0)  -->
<!DOCTYPE svg PUBLIC "-//W3C//DTD SVG 1.1//EN" "http://www.w3.org/Graphics/SVG/1.1/DTD/svg11.dtd">
<svg version="1.1" id="Capa_1" xmlns="http://www.w3.org/2000/svg" xmlns:xlink="http://www.w3.org/1999/xlink" x="0px" y="0px"
	 width="100px" height="100px" viewBox="172.029 172.029 100 100" enable-background="new 172.029 172.029 100 100"
	 xml:space="preserve">
<g>
	<g>
		<g>
			<path fill="#2193A8" d="M250.771,241.131c-0.694-1.662-2.366-2.727-3.962-3.381l-10.787-4.967l-5.182-4.37l-8.328,8.282h-0.006
				l3.593,24.022c0.013,0.082-0.008,0.167-0.058,0.234l-3.757,5.142c-0.06,0.083-0.155,0.131-0.257,0.131s-0.197-0.049-0.257-0.131
				l-3.757-5.142c-0.049-0.067-0.07-0.152-0.058-0.234l3.593-24.023h-0.005l-8.327-8.281l-5.182,4.37l-10.788,4.967
				c-1.596,0.654-3.164,1.648-3.962,3.381c0,0-11.726,27.914-5.366,27.914h68.217C262.497,269.046,250.771,241.131,250.771,241.131z
				"/>
			<path fill="#2193A8" d="M251.521,202.856c0.162-0.018,0.309-0.095,0.409-0.221c0.102-0.125,0.147-0.287,0.129-0.448
				c-0.12-1.031-0.241-2.06-0.361-3.091l-0.251-2.157c-0.039-0.322-0.327-0.557-0.651-0.527l-0.467,0l0.01-7.243l0.244-0.088
				l0.813-0.294c0.689-0.25,1.148-0.903,1.148-1.636s-0.459-1.387-1.148-1.636l-28.776-10.399c-0.382-0.138-0.801-0.138-1.183,0
				l-28.776,10.399c-0.689,0.25-1.148,0.904-1.148,1.636s0.459,1.386,1.148,1.636l10.638,3.844
				c-0.751,2.371-1.093,5.085-1.062,8.107c0.188,17.238,10.194,27.517,19.453,27.517c9.15,0,19.266-10.279,19.452-27.517
				c0.03-2.929-0.292-5.567-0.995-7.885l7.735-2.795l0.017,6.357l-0.468,0c-0.324-0.028-0.613,0.205-0.65,0.53l-0.604,5.249
				c-0.019,0.16,0.029,0.32,0.13,0.446c0.102,0.125,0.249,0.205,0.409,0.219 M221.691,224.069c-8.078,0-13.652-9.463-14.777-18.923
				c-1.04-8.749,11.612-9.156,12.347-3.733c0.227,1.667-1.688,3.453-1.471,4.142c1.071,3.398,18.798-11.093,18.677-0.412
				C236.382,212.683,229.388,224.069,221.691,224.069z"/>
		</g>
	</g>
</g>
</svg>
