<?xml version="1.0" encoding="utf-8"?>
<!-- Generator: Adobe Illustrator 16.0.0, SVG Export Plug-In . SVG Version: 6.00 Build 0)  -->
<!DOCTYPE svg PUBLIC "-//W3C//DTD SVG 1.1//EN" "http://www.w3.org/Graphics/SVG/1.1/DTD/svg11.dtd">
<svg version="1.1" id="Layer_1" xmlns="http://www.w3.org/2000/svg" xmlns:xlink="http://www.w3.org/1999/xlink" x="0px" y="0px"
	 width="100px" height="100px" viewBox="256 346 100 100" enable-background="new 256 346 100 100" xml:space="preserve">
<title></title>
<path fill="#2193A8" d="M307.929,423.182c-13.224-5.863-23.735-16.519-29.42-29.82l7.66-5.167
	c-2.12-5.479-3.211-11.301-3.221-17.175h-18.303c0,36.636,29.7,66.336,66.336,66.336v-18.304c-6.065-0.013-12.073-1.18-17.703-3.438
	L307.929,423.182z"/>
<path fill="#2193A8" d="M303.689,376.478c12.058,0,21.833,9.775,21.833,21.833"/>
<path fill="#2193A8" d="M303.689,365.561c18.087,0,32.749,14.663,32.749,32.75"/>
<path fill="#2193A8" d="M303.689,354.645c24.116,0,43.666,19.55,43.666,43.666"/>
</svg>
