<?xml version="1.0" encoding="utf-8"?>
<!-- Generator: Adobe Illustrator 16.0.0, SVG Export Plug-In . SVG Version: 6.00 Build 0)  -->
<!DOCTYPE svg PUBLIC "-//W3C//DTD SVG 1.1//EN" "http://www.w3.org/Graphics/SVG/1.1/DTD/svg11.dtd">
<svg version="1.1" id="Layer_1" xmlns="http://www.w3.org/2000/svg" xmlns:xlink="http://www.w3.org/1999/xlink" x="0px" y="0px"
	 width="100px" height="100px" viewBox="256 311.452 100 100" enable-background="new 256 311.452 100 100" xml:space="preserve">
<g>
	<rect x="312.528" y="353.432" fill="#2193A8" width="2.806" height="4.208"/>
	<path fill="#2193A8" d="M292.89,329.586c-4.162,0-7.618,3.039-8.29,7.013h-5.737h-6.649c-4.841,0-8.78,3.94-8.78,8.781v11.558
		c0,2.707,2.202,4.91,4.909,4.91c0.756,0,1.465-0.187,2.104-0.492v20.831c0,2.708,2.202,4.909,4.909,4.909
		c1.375,0,2.615-0.57,3.507-1.483c0.893,0.913,2.133,1.483,3.507,1.483c0.756,0,1.464-0.186,2.104-0.491v5.401
		c0,2.708,2.202,4.909,4.909,4.909c1.375,0,2.614-0.571,3.507-1.484c0.893,0.913,2.132,1.484,3.507,1.484
		c2.707,0,4.909-2.201,4.909-4.909H298.5c0,1.16-0.943,2.104-2.104,2.104s-2.104-0.944-2.104-2.104V373.07h-2.806v18.937
		c0,1.16-0.943,2.104-2.104,2.104s-2.104-0.944-2.104-2.104v-25.249v-0.701v-12.625h-2.805v12.625v0.701
		c0,1.16-0.944,2.104-2.104,2.104s-2.104-0.944-2.104-2.104v-3.507v-8.052c0-3.295,2.681-5.976,5.976-5.976h13.298v-2.805h-6.648
		h-5.611v-2.16c1.491,1.338,3.454,2.16,5.611,2.16c4.642,0,8.416-3.775,8.416-8.417S297.531,329.586,292.89,329.586z
		 M282.369,371.668c0.756,0,1.464-0.188,2.104-0.493v11.013c0,1.16-0.944,2.104-2.104,2.104s-2.104-0.944-2.104-2.104v-11.013
		C280.905,371.48,281.613,371.668,282.369,371.668z M277.46,355.199v8.052v3.507v15.43c0,1.16-0.944,2.104-2.104,2.104
		s-2.104-0.944-2.104-2.104v-25.249v-0.701v-12.625h-2.806v12.625v0.701c0,1.16-0.944,2.104-2.104,2.104s-2.104-0.943-2.104-2.104
		V345.38c0-3.295,2.681-5.976,5.975-5.976h12.388c0.271,1.602,0.993,3.048,2.034,4.208h-2.161v2.983
		C280.476,347.417,277.46,350.963,277.46,355.199z M292.89,343.613c-3.095,0-5.611-2.517-5.611-5.611
		c0-3.095,2.517-5.611,5.611-5.611c3.094,0,5.61,2.516,5.61,5.611C298.5,341.096,295.983,343.613,292.89,343.613z"/>
	<rect x="298.5" y="353.432" fill="#2193A8" width="2.806" height="4.208"/>
	<path fill="#2193A8" d="M287.278,328.183c0-4.641-3.774-8.416-8.416-8.416s-8.416,3.775-8.416,8.416
		c0,4.642,3.774,8.417,8.416,8.417S287.278,332.825,287.278,328.183z M278.862,333.794c-3.095,0-5.61-2.517-5.61-5.611
		c0-3.094,2.516-5.61,5.61-5.61s5.611,2.517,5.611,5.61C284.474,331.277,281.957,333.794,278.862,333.794z"/>
	<path fill="#2193A8" d="M343.388,328.183c0-4.641-3.774-8.416-8.416-8.416c-4.643,0-8.416,3.775-8.416,8.416
		c0,4.642,3.773,8.417,8.416,8.417C339.613,336.599,343.388,332.825,343.388,328.183z M334.972,333.794
		c-3.095,0-5.611-2.517-5.611-5.611c0-3.094,2.517-5.61,5.611-5.61c3.094,0,5.61,2.517,5.61,5.61
		C340.582,331.277,338.065,333.794,334.972,333.794z"/>
	<path fill="#2193A8" d="M341.62,336.599h-6.648h-5.737c-0.671-3.974-4.127-7.013-8.29-7.013c-4.642,0-8.416,3.774-8.416,8.416
		s3.774,8.417,8.416,8.417c2.158,0,4.119-0.822,5.611-2.16v2.16h-5.611h-6.649v2.805h13.299c3.294,0,5.975,2.681,5.975,5.976v8.052
		v3.507c0,1.16-0.944,2.104-2.104,2.104c-1.16,0-2.104-0.944-2.104-2.104v-0.701v-12.625h-2.805v12.625v0.701v25.249
		c0,1.16-0.944,2.104-2.104,2.104s-2.104-0.944-2.104-2.104V373.07h-2.806v18.937c0,1.16-0.943,2.104-2.104,2.104
		s-2.104-0.944-2.104-2.104h-2.806c0,2.708,2.202,4.909,4.909,4.909c1.374,0,2.614-0.571,3.507-1.484
		c0.892,0.913,2.132,1.484,3.507,1.484c2.707,0,4.909-2.201,4.909-4.909v-5.401c0.64,0.306,1.349,0.491,2.104,0.491
		c1.375,0,2.615-0.57,3.507-1.483c0.893,0.913,2.132,1.483,3.507,1.483c2.707,0,4.909-2.201,4.909-4.909v-20.831
		c0.64,0.306,1.348,0.492,2.104,0.492c2.706,0,4.909-2.203,4.909-4.91V345.38C350.401,340.54,346.461,336.599,341.62,336.599z
		 M320.944,343.613c-3.095,0-5.61-2.517-5.61-5.611c0-3.095,2.516-5.611,5.61-5.611s5.611,2.516,5.611,5.611
		C326.556,341.096,324.039,343.613,320.944,343.613z M331.465,384.292c-1.16,0-2.104-0.944-2.104-2.104v-11.013
		c0.64,0.306,1.349,0.493,2.104,0.493c0.757,0,1.464-0.188,2.104-0.493v11.013C333.568,383.348,332.624,384.292,331.465,384.292z
		 M347.596,356.938c0,1.16-0.943,2.104-2.104,2.104c-1.161,0-2.104-0.943-2.104-2.104v-0.701v-12.625h-2.806v12.625v0.701v25.249
		c0,1.16-0.944,2.104-2.104,2.104c-1.16,0-2.104-0.944-2.104-2.104v-15.43v-3.507v-8.052c0-4.236-3.016-7.782-7.014-8.601v-2.985
		h-2.159c1.04-1.16,1.763-2.606,2.033-4.208h12.388c3.294,0,5.976,2.681,5.976,5.976v11.558H347.596z"/>
</g>
<g>
	<path fill="#2193A8" d="M315.334,347.821c0-4.641-3.775-8.416-8.417-8.416s-8.417,3.775-8.417,8.416
		c0,4.642,3.775,8.417,8.417,8.417S315.334,352.463,315.334,347.821z"/>
	<path fill="#2193A8" d="M313.565,356.237h-6.648h-6.649c-4.84,0-8.781,3.94-8.781,8.78v11.559c0,2.708,2.203,4.91,4.91,4.91
		c0.756,0,1.464-0.187,2.104-0.492v20.832c0,2.706,2.202,4.909,4.91,4.909c1.374,0,2.614-0.571,3.507-1.484
		c0.893,0.913,2.132,1.484,3.507,1.484c2.707,0,4.91-2.203,4.91-4.909v-20.832c0.639,0.306,1.348,0.492,2.104,0.492
		c2.707,0,4.909-2.202,4.909-4.91v-11.559C322.347,360.178,318.406,356.237,313.565,356.237z"/>
</g>
</svg>
