<?xml version="1.0" encoding="utf-8"?>
<!-- Generator: Adobe Illustrator 16.0.0, SVG Export Plug-In . SVG Version: 6.00 Build 0)  -->
<!DOCTYPE svg PUBLIC "-//W3C//DTD SVG 1.1//EN" "http://www.w3.org/Graphics/SVG/1.1/DTD/svg11.dtd">
<svg version="1.1" id="Layer_1" xmlns="http://www.w3.org/2000/svg" xmlns:xlink="http://www.w3.org/1999/xlink" x="0px" y="0px"
	 width="100px" height="100px" viewBox="256 346 100 100" enable-background="new 256 346 100 100" xml:space="preserve">
<g>
	<path fill="#2193A8" d="M307.77,393.561c-4.434,0-8.165-3.267-8.494-7.438c-0.319-4.037,2.351-8.688,7.221-9.163
		c4.571-0.438,8.477,3.38,8.702,8.344c0.109,2.406-0.624,4.562-2.063,6.068C311.786,392.784,309.881,393.561,307.77,393.561z
		 M307.226,379.174c-0.17,0-0.339,0.008-0.511,0.025c-3.401,0.332-5.433,3.756-5.196,6.746c0.237,3.009,2.983,5.367,6.25,5.367
		c1.512,0,2.805-0.517,3.738-1.495c1.026-1.073,1.525-2.599,1.443-4.411C312.792,381.911,310.277,379.174,307.226,379.174z"/>
	<path fill="#2193A8" d="M271.059,428.967c-0.17,0-4.194-0.017-5.63-1.501c-1.608-1.659-0.765-8.325,0.249-9.571
		c0.795-0.977,2.888-1.236,4-1.236c1.167,0,2.709,0.23,3.436,1.324c0.92,1.39,1.584,9.245,0.333,10.419
		C273.148,428.681,272.632,428.967,271.059,428.967z M269.677,418.909c-1.149,0-2.093,0.29-2.298,0.451
		c-0.491,0.874-0.885,5.755-0.318,6.561c0.349,0.358,2.182,0.796,3.997,0.796c0.32,0,0.56-0.016,0.73-0.033
		c0.234-1.604-0.027-6.611-0.553-7.46C271.184,419.163,270.75,418.909,269.677,418.909z"/>
	<path fill="#2193A8" d="M300.302,443.144c-0.475,0-0.915-0.301-1.069-0.776c-0.614-1.884-1.59-17.354,0.428-18.564
		c1.215-0.729,10.258-1.442,12.485-0.793c0.2,0.059,0.81,0.236,1.101,0.816c0.406,0.814,0.92,17.231-0.299,18.574
		c-0.416,0.46-1.13,0.493-1.589,0.076c-0.393-0.358-0.477-0.929-0.23-1.374c0.402-1.545,0.478-13.368,0.133-15.996
		c-1.766-0.309-8.427,0.133-10.214,0.569c-0.542,2.266-0.479,13.529,0.324,15.994c0.193,0.591-0.13,1.226-0.721,1.418
		C300.535,443.126,300.417,443.144,300.302,443.144z"/>
	<path fill="#2193A8" d="M270.563,412.95c-4.142,0-4.646-1.028-4.835-1.415c-0.63-1.285-0.639-8.085-0.147-9.411
		c0.144-0.386,0.384-0.655,0.714-0.797c0.176-0.074,0.5-0.213,2.346-0.213c4.162,0,4.742,0.543,4.96,0.747
		c1.13,1.057,0.975,8.396,0.971,8.468c-0.058,1.066-0.185,1.716-0.689,2.094C273.707,412.555,273.176,412.95,270.563,412.95z
		 M267.711,410.391c0.357,0.128,1.298,0.311,2.852,0.311c0.789,0,1.378-0.049,1.74-0.097c0.151-1.469-0.05-5.647-0.343-7.037
		c-0.572-0.1-1.791-0.203-3.32-0.203c-0.451,0-0.792,0.01-1.04,0.022C267.403,404.982,267.458,409.213,267.711,410.391z"/>
	<path fill="#2193A8" d="M282.478,412.863c-3.493,0-4.078-0.868-4.298-1.194c-0.757-1.125-1.628-8.938-0.196-9.977
		c0.214-0.155,0.658-0.478,2.913-0.478c1.763,0,4.019,0.163,4.751,0.936c1,1.055,1.65,8.636,1.235,9.526
		C286.718,412.032,286.329,412.863,282.478,412.863z M280.014,410.329c0.254,0.103,1.007,0.285,2.464,0.285
		c1.036,0,1.862-0.095,2.332-0.183c-0.004-1.525-0.459-5.561-0.822-6.681c-0.473-0.132-1.655-0.286-3.091-0.286
		c-0.655,0-1.103,0.032-1.383,0.066C279.324,405.012,279.623,409.302,280.014,410.329z"/>
	<path fill="#2193A8" d="M295.645,413.242c-0.164,0-3.998-0.018-5.144-1.52c-1.09-1.431-0.583-6.743-0.438-7.729
		c0.184-1.254,0.409-1.813,0.86-2.141c0.746-0.541,3.108-0.979,4.566-0.979c1.261,0,2.09,0.297,2.535,0.905
		c0.931,1.275,1.143,9.788-0.052,10.891C297.683,412.937,297.157,413.242,295.645,413.242z M292.412,403.617
		c-0.363,1.311-0.515,5.941-0.09,6.789c0.228,0.189,1.719,0.586,3.323,0.586c0.309,0,0.539-0.017,0.698-0.037
		c0.3-1.543,0.229-6.539-0.126-7.766c-0.12-0.029-0.346-0.065-0.729-0.065C294.348,403.124,292.977,403.426,292.412,403.617z"/>
	<path fill="#2193A8" d="M305.595,413.107c-2.109,0-3.067-0.319-3.42-1.14c-0.285-0.664-0.956-9.229,0.851-10.262
		c0.86-0.491,2.762-0.528,3.324-0.528c2.72,0,3.192,0.647,3.394,0.923c0.526,0.724,1.49,9.261,0.162,10.307
		C309.037,413.088,305.945,413.107,305.595,413.107z M304.198,410.769c0.247,0.042,0.682,0.088,1.396,0.088
		c1.078,0,2.145-0.108,2.705-0.215c0.162-1.473-0.104-5.784-0.385-7.088c-0.266-0.057-0.772-0.127-1.566-0.127
		c-0.928,0-1.638,0.094-1.998,0.175C304.012,404.857,304.005,409.255,304.198,410.769z"/>
	<path fill="#2193A8" d="M317.867,412.908c-1.855,0-2.501-0.426-2.824-0.746c-1.362-1.347-0.838-8.046-0.831-8.111
		c0.153-1.457,0.411-2.127,0.951-2.474c0.268-0.173,0.765-0.402,1.994-0.402c1.38,0,3.354,0.294,4.271,0.785
		c0.563,0.301,0.908,0.928,1.156,2.099c0.302,1.427,0.755,6.56-0.112,7.673C321.566,412.895,318.019,412.908,317.867,412.908z
		 M316.671,410.564c0.128,0.02,0.517,0.093,1.196,0.093c1.21,0,2.311-0.209,2.779-0.366c0.227-1.312,0.012-5.413-0.438-6.418
		c-0.576-0.217-1.93-0.447-3.051-0.447c-0.271,0-0.464,0.014-0.594,0.03C316.225,404.858,316.283,409.45,316.671,410.564z"/>
	<path fill="#2193A8" d="M283.264,429.043c-1.141,0-4.6-0.271-5.493-1.478c-0.95-1.285-0.797-8.81,0.525-10.006
		c0.24-0.218,0.879-0.796,3.764-0.796c1.271,0,3.506,0.1,4.203,0.763c1.112,1.056,0.899,9.056,0.216,10.325
		C286.042,428.665,285.021,429.043,283.264,429.043z M279.592,426.186c0.501,0.238,2.082,0.607,3.672,0.607
		c0.697,0,1.099-0.08,1.278-0.139c0.33-1.164,0.303-5.947,0.051-7.444c-0.468-0.091-1.377-0.195-2.533-0.195
		c-1.289,0-1.964,0.134-2.217,0.219C279.368,420.363,279.271,425.008,279.592,426.186z"/>
	<path fill="#2193A8" d="M331.844,428.932c-1.744,0-4.77-0.186-5.415-1.433c-0.604-1.165-0.212-9.218,0.986-10.322
		c0.419-0.384,1.06-0.557,2.077-0.557c1.315,0,4.189,0.38,5.193,1.291c1.289,1.172,1.352,8.9,0.632,10.041
		C334.995,428.46,334.353,428.932,331.844,428.932z M328.422,426.297c0.56,0.182,1.91,0.385,3.422,0.385
		c0.834,0,1.348-0.064,1.614-0.12c0.204-1.23,0.068-5.968-0.357-7.028c-0.485-0.263-2.24-0.663-3.608-0.663
		c-0.23,0-0.393,0.012-0.504,0.025C328.581,420.235,328.272,424.921,328.422,426.297z"/>
	<path fill="#2193A8" d="M331.033,412.952c-0.579,0-3.514-0.045-4.524-0.978c-0.375-0.346-0.766-1.004-0.818-3.262
		c-0.001-0.05-0.087-5.153,1.031-6.285c0.938-0.95,3.947-1.164,4.928-1.164c1.415,0,2.257,0.244,2.727,0.795
		c1.065,1.246,0.85,8.823-0.017,9.979C334.039,412.463,333.372,412.952,331.033,412.952z M328.107,410.353
		c0.336,0.126,1.485,0.351,2.926,0.351c0.833,0,1.328-0.078,1.563-0.138c0.257-1.042,0.381-5.675,0.053-6.971
		c-0.165-0.037-0.474-0.082-0.999-0.082c-1.408,0-2.821,0.301-3.283,0.498C327.989,405.06,327.755,409.272,328.107,410.353z"/>
	<path fill="#2193A8" d="M342.891,412.99c-2.438,0-3.974-0.387-4.569-1.152c-0.943-1.213-1.119-9.373-0.22-10.271
		c0.229-0.229,0.613-0.614,3.586-0.614c3.912,0,4.48,0.729,4.723,1.04c0.999,1.285,0.765,9.18,0.355,9.95
		C346.572,412.309,346.21,412.99,342.891,412.99z M340.097,410.411c0.315,0.131,1.239,0.33,2.794,0.33
		c0.905,0,1.56-0.071,1.926-0.138c0.117-1.315,0.105-5.888-0.192-7.146c-0.411-0.117-1.396-0.257-2.937-0.257
		c-0.833,0-1.456,0.043-1.849,0.086C339.678,404.899,339.728,409.326,340.097,410.411z"/>
	<path fill="#2193A8" d="M342.298,428.648c-2.41,0-3.092-0.537-3.418-1.005c-0.707-1.016-1.355-9.12,0.038-10.396
		c0.353-0.321,0.977-0.65,2.953-0.65c0.17,0,4.207,0.012,5.178,1.014c0.846,0.873,0.74,4.884,0.655,6.568
		c-0.141,2.801-0.474,3.301-0.862,3.629C345.857,428.639,342.443,428.648,342.298,428.648z M340.704,426.251
		c0.228,0.063,0.727,0.148,1.594,0.148c1.284,0,2.444-0.173,2.96-0.306c0.274-1.278,0.327-5.563,0.086-6.883
		c-0.589-0.157-1.993-0.363-3.473-0.363c-0.727,0-1.141,0.053-1.356,0.094C340.206,420.262,340.321,424.968,340.704,426.251z"/>
	<path fill="#2193A8" d="M322.865,419.454c-0.082,0-0.166-0.008-0.249-0.027c-3.283-0.744-27.87-1.631-32.987-0.98
		c-0.622,0.077-1.18-0.359-1.257-0.976s0.359-1.18,0.975-1.257c5.366-0.679,30.224,0.216,33.765,1.019
		c0.606,0.137,0.986,0.74,0.85,1.345C323.844,419.101,323.379,419.454,322.865,419.454z"/>
	<path fill="#2193A8" d="M302.881,443.803c-2.271,0-3.862-0.029-3.916-0.03c-5.421-0.152-5.75-0.555-6.097-0.979
		c-1.401-1.713-0.162-23.455,0.07-25.119c0.084-0.615,0.653-1.047,1.269-0.959c0.616,0.085,1.045,0.653,0.96,1.269
		c-0.459,3.311-1,20.196-0.513,23.246c3.117,0.65,19.918,0.348,22.811-0.415c0.373-2.182-0.024-12.748-0.659-22.286
		c-0.041-0.62,0.428-1.155,1.048-1.198c0.603-0.038,1.156,0.427,1.197,1.049c1.501,22.544,0.516,23.618,0.144,24.023
		C318.076,443.623,308.44,443.803,302.881,443.803z"/>
	<path fill="#2193A8" d="M288.221,398.253c-14.526,0-26.202-0.197-27.676-0.725c-0.585-0.209-0.889-0.854-0.68-1.438
		c0.209-0.583,0.849-0.886,1.427-0.684c3.272,0.928,84.404,0.508,89.568-0.464c0.614-0.12,1.199,0.286,1.313,0.897
		c0.115,0.611-0.286,1.199-0.897,1.313C348.721,397.635,313.992,398.253,288.221,398.253z"/>
	<path fill="#2193A8" d="M275.269,397.501c-0.212,0-0.427-0.061-0.617-0.187c-0.52-0.341-0.663-1.039-0.322-1.557
		c1.246-1.894,28.915-28.396,33.036-28.396c0.033,0,0.063,0.001,0.093,0.004c3.441,0.382,28.486,25.209,30.019,28
		c0.299,0.545,0.101,1.229-0.444,1.528c-0.544,0.3-1.229,0.101-1.527-0.444c-1.864-3.394-25.101-25.415-28.252-26.814
		c-3.519,1.206-28.879,24.07-31.044,27.359C275.993,397.322,275.634,397.501,275.269,397.501z"/>
	<path fill="#2193A8" d="M306.958,369.75c-0.599,0-1.097-0.472-1.124-1.075l-0.719-16.298c-0.027-0.621,0.455-1.146,1.075-1.174
		c0.603-0.021,1.146,0.454,1.173,1.074l0.719,16.298c0.027,0.621-0.454,1.146-1.074,1.174
		C306.991,369.75,306.975,369.75,306.958,369.75z"/>
	<path fill="#2193A8" d="M316.494,363.496c-3.882,0-9.259-0.674-9.333-0.688c-0.612-0.113-1.015-0.7-0.903-1.31
		c0.113-0.612,0.7-1.013,1.31-0.903c1.604,0.295,7.712,0.738,10.315,0.648c-0.199-0.29-0.419-0.604-0.6-0.861
		c-1.345-1.918-2.163-3.146-2.035-4.165c0.088-0.703,0.545-1.511,1.076-2.446c0.152-0.269,0.36-0.636,0.525-0.959
		c-2.063-0.159-7.279,0.032-10.176,0.581c-0.615,0.11-1.199-0.285-1.314-0.896c-0.116-0.611,0.286-1.2,0.896-1.315
		c1.739-0.33,11.383-1.329,12.686-0.026c0.927,0.927,0.19,2.224-0.66,3.726c-0.284,0.502-0.76,1.342-0.802,1.617
		c0.075,0.352,1.097,1.81,1.646,2.593c0.996,1.419,1.478,2.129,1.546,2.774l0.059,0.561l-0.461,0.49
		C319.803,363.349,318.312,363.496,316.494,363.496z"/>
	<path fill="#2193A8" d="M330.004,440.091c-5.64,0-10.481-0.37-11.593-1.33c-0.471-0.406-0.522-1.117-0.116-1.588
		c0.405-0.469,1.117-0.521,1.587-0.115c1.933,1.204,25.946,1.004,30.033-0.789c2.775-1.993,1.97-35.08,0.667-40.815
		c-0.887-3.901-8.371-14.388-9.852-15.202c-1.563-0.793-15.316-0.83-20.428-0.473c-0.632,0.058-1.158-0.423-1.2-1.044
		c-0.044-0.62,0.424-1.157,1.044-1.2c3.045-0.212,19.253-0.583,21.667,0.745c2.383,1.31,10.012,12.492,10.963,16.675
		c0.679,2.988,3.363,41.042-1.958,43.376C348.703,439.257,338.459,440.09,330.004,440.091z"/>
	<path fill="#2193A8" d="M272.762,440.104c-5.618,0-10.108-0.416-11.047-1.657c-2.255-2.984-3.774-39.821-3.008-42.949
		c0.832-3.395,6.254-15.455,12.181-17.396c4.27-1.399,12.365-1.27,18.275-1.176c1.889,0.03,3.538,0.056,4.735,0.028
		c0.572-0.041,1.138,0.474,1.154,1.095s-0.475,1.138-1.097,1.153c-1.228,0.033-2.896,0.006-4.829-0.026
		c-5.749-0.092-13.625-0.216-17.539,1.064c-4.708,1.542-9.906,12.572-10.695,15.792c-0.744,3.034,0.983,38.426,2.628,41.071
		c1.533,1.192,16.313,0.808,29.092-0.27c0.614-0.044,1.164,0.406,1.216,1.026c0.052,0.619-0.408,1.163-1.027,1.216
		C287.07,439.561,279.181,440.104,272.762,440.104z"/>
	<path fill="#2193A8" d="M337.679,384.609c-0.421,0-0.825-0.237-1.018-0.643c-0.266-0.562-0.027-1.232,0.534-1.499
		c0.959-0.455,1.891-0.755,2.791-1.045c0.868-0.28,1.69-0.545,2.516-0.938c0.563-0.267,1.231-0.027,1.5,0.535
		c0.265,0.562,0.025,1.232-0.535,1.499c-0.96,0.455-1.89,0.755-2.79,1.045c-0.87,0.28-1.69,0.544-2.517,0.937
		C338.005,384.575,337.841,384.609,337.679,384.609z"/>
	<path fill="#2193A8" d="M340.21,387.703c-0.419,0-0.822-0.236-1.016-0.64c-0.269-0.56-0.03-1.232,0.53-1.5
		c0.885-0.423,1.798-0.787,2.711-1.15c0.868-0.345,1.735-0.689,2.574-1.09c0.562-0.27,1.231-0.032,1.501,0.529
		c0.268,0.562,0.031,1.233-0.529,1.501c-0.886,0.422-1.8,0.787-2.715,1.151c-0.866,0.345-1.733,0.689-2.572,1.089
		C340.538,387.668,340.373,387.703,340.21,387.703z"/>
	<path fill="#2193A8" d="M342.679,390.953c-0.399,0-0.787-0.214-0.991-0.59c-0.295-0.547-0.09-1.229,0.457-1.524
		c0.768-0.414,1.56-0.756,2.325-1.088c0.757-0.329,1.473-0.638,2.155-1.008c0.547-0.295,1.23-0.092,1.525,0.455
		c0.295,0.547,0.091,1.23-0.455,1.525c-0.771,0.416-1.563,0.759-2.332,1.091c-0.754,0.328-1.468,0.637-2.15,1.006
		C343.043,390.911,342.859,390.953,342.679,390.953z"/>
	<path fill="#2193A8" d="M345.742,393.735c-0.444,0-0.864-0.264-1.043-0.7c-0.235-0.574,0.04-1.231,0.616-1.467
		c0.477-0.194,0.887-0.399,1.269-0.589c0.744-0.371,1.445-0.721,2.33-0.882c0.61-0.11,1.196,0.292,1.309,0.904
		c0.112,0.611-0.292,1.198-0.904,1.31c-0.57,0.104-1.083,0.359-1.732,0.682c-0.427,0.213-0.885,0.441-1.42,0.659
		C346.026,393.709,345.883,393.735,345.742,393.735z"/>
	<path fill="#2193A8" d="M267.847,439.064c-0.528,0-1-0.374-1.103-0.912c-0.238-1.233-0.606-2.444-1.097-3.602
		c-0.242-0.572,0.025-1.231,0.597-1.474c0.57-0.245,1.232,0.023,1.475,0.596c0.551,1.303,0.967,2.665,1.234,4.053
		c0.118,0.611-0.281,1.2-0.892,1.318C267.989,439.058,267.918,439.064,267.847,439.064z"/>
	<path fill="#2193A8" d="M273.048,439.195c-0.477,0-0.92-0.306-1.072-0.785l-1.443-4.562c-0.187-0.592,0.141-1.225,0.733-1.412
		c0.596-0.184,1.225,0.142,1.413,0.734l1.442,4.561c0.187,0.592-0.141,1.224-0.733,1.411
		C273.275,439.179,273.16,439.195,273.048,439.195z"/>
	<path fill="#2193A8" d="M277.264,439.416c-0.469,0-0.906-0.294-1.065-0.762c-0.292-0.858-0.501-1.61-0.711-2.361
		c-0.199-0.713-0.397-1.427-0.675-2.241c-0.2-0.588,0.114-1.228,0.702-1.427c0.589-0.203,1.227,0.114,1.428,0.702
		c0.292,0.858,0.502,1.61,0.711,2.362c0.199,0.713,0.397,1.426,0.674,2.239c0.2,0.588-0.114,1.228-0.702,1.428
		C277.507,439.396,277.385,439.416,277.264,439.416z"/>
	<path fill="#2193A8" d="M281.874,438.849c-0.443,0-0.863-0.264-1.041-0.698c-0.343-0.835-0.59-1.52-0.836-2.205
		c-0.236-0.655-0.472-1.311-0.799-2.109c-0.236-0.576,0.039-1.232,0.614-1.469c0.577-0.234,1.232,0.04,1.468,0.613
		c0.342,0.836,0.588,1.519,0.834,2.203c0.236,0.656,0.472,1.313,0.8,2.113c0.236,0.574-0.039,1.231-0.614,1.467
		C282.16,438.821,282.016,438.849,281.874,438.849z"/>
	<path fill="#2193A8" d="M286.984,438.572c-0.452,0-0.878-0.274-1.051-0.722c-0.352-0.916-0.478-1.709-0.59-2.408
		c-0.103-0.649-0.201-1.261-0.468-1.958c-0.223-0.581,0.066-1.231,0.646-1.454c0.579-0.221,1.23,0.066,1.454,0.646
		c0.353,0.917,0.479,1.71,0.59,2.411c0.103,0.648,0.2,1.26,0.468,1.957c0.223,0.58-0.068,1.23-0.648,1.453
		C287.254,438.549,287.118,438.572,286.984,438.572z"/>
	<path fill="#2193A8" d="M323.941,439.697c-0.516,0-0.979-0.355-1.098-0.879c-0.316-1.414-0.761-2.813-1.316-4.154
		c-0.238-0.574,0.035-1.232,0.609-1.471c0.571-0.237,1.231,0.035,1.469,0.609c0.606,1.461,1.089,2.982,1.435,4.524
		c0.135,0.606-0.245,1.207-0.853,1.343C324.104,439.688,324.022,439.697,323.941,439.697z"/>
	<path fill="#2193A8" d="M328.817,439.649c-0.53,0-1.003-0.379-1.104-0.92c-0.298-1.597-0.804-3.146-1.504-4.606
		c-0.269-0.561-0.033-1.232,0.527-1.501c0.56-0.269,1.231-0.033,1.501,0.528c0.786,1.639,1.354,3.376,1.687,5.168
		c0.115,0.61-0.288,1.198-0.898,1.312C328.955,439.643,328.887,439.649,328.817,439.649z"/>
	<path fill="#2193A8" d="M333.953,439.896c-0.466,0-0.901-0.292-1.063-0.757l-1.807-5.21c-0.203-0.587,0.107-1.229,0.695-1.432
		c0.585-0.205,1.227,0.107,1.43,0.694l1.808,5.211c0.204,0.587-0.107,1.228-0.694,1.432
		C334.199,439.876,334.075,439.896,333.953,439.896z"/>
	<path fill="#2193A8" d="M338.595,439.396c-0.479,0-0.923-0.308-1.073-0.788l-1.573-5.023c-0.185-0.593,0.145-1.224,0.738-1.41
		c0.592-0.188,1.224,0.145,1.41,0.738l1.571,5.022c0.186,0.594-0.144,1.224-0.736,1.409
		C338.819,439.379,338.706,439.396,338.595,439.396z"/>
	<path fill="#2193A8" d="M343.967,439.043c-0.448,0-0.871-0.269-1.047-0.712l-1.908-4.833c-0.228-0.578,0.056-1.231,0.634-1.46
		c0.578-0.228,1.231,0.055,1.46,0.634l1.908,4.833c0.227,0.578-0.056,1.231-0.634,1.46
		C344.244,439.018,344.104,439.043,343.967,439.043z"/>
	<path fill="#2193A8" d="M349.068,438.741c-0.318,0-0.634-0.134-0.856-0.394c-1.405-1.644-2.269-3.734-2.434-5.889
		c-0.047-0.619,0.417-1.16,1.037-1.208c0.612-0.045,1.16,0.416,1.207,1.036c0.128,1.683,0.803,3.315,1.899,4.598
		c0.403,0.472,0.349,1.183-0.124,1.586C349.586,438.651,349.327,438.741,349.068,438.741z"/>
	<path fill="#2193A8" d="M307.063,386.064c-0.076,0-0.153-0.007-0.23-0.024c-0.609-0.127-0.998-0.724-0.871-1.332
		c0.238-1.137,0.236-2.337-0.009-3.472c-0.131-0.607,0.255-1.207,0.862-1.337c0.611-0.131,1.207,0.255,1.338,0.862
		c0.311,1.441,0.315,2.965,0.011,4.408C308.052,385.701,307.585,386.064,307.063,386.064z"/>
	<path fill="#2193A8" d="M309.42,389.046c-0.315,0-0.631-0.133-0.854-0.391l-2.422-2.812c-0.405-0.471-0.353-1.182,0.119-1.586
		c0.469-0.406,1.179-0.353,1.585,0.118l2.423,2.813c0.406,0.471,0.353,1.182-0.118,1.586
		C309.94,388.957,309.68,389.046,309.42,389.046z"/>
</g>
</svg>
