<?xml version="1.0" encoding="utf-8"?>
<!-- Generator: Adobe Illustrator 16.0.0, SVG Export Plug-In . SVG Version: 6.00 Build 0)  -->
<!DOCTYPE svg PUBLIC "-//W3C//DTD SVG 1.1//EN" "http://www.w3.org/Graphics/SVG/1.1/DTD/svg11.dtd">
<svg version="1.1" id="Capa_1" xmlns="http://www.w3.org/2000/svg" xmlns:xlink="http://www.w3.org/1999/xlink" x="0px" y="0px"
	 width="100px" height="100px" viewBox="256 346 100 100" enable-background="new 256 346 100 100" xml:space="preserve">
<g>
	<g>
		<path fill="#2193A8" d="M272.96,411.144c-3.041,0-5.506,2.465-5.506,5.507c0,3.041,2.465,5.506,5.506,5.506
			c3.042,0,5.507-2.465,5.507-5.506C278.467,413.608,276.001,411.144,272.96,411.144z M272.96,419.403
			c-1.521,0-2.753-1.232-2.753-2.753c0-1.521,1.232-2.754,2.753-2.754c1.521,0,2.753,1.232,2.753,2.754
			C275.713,418.171,274.481,419.403,272.96,419.403z"/>
	</g>
</g>
<g>
	<g>
		<path fill="#2193A8" d="M272.96,423.533c-4.562,0-8.26,3.698-8.26,8.26v4.13c0,0.761,0.616,1.377,1.376,1.377
			s1.377-0.616,1.377-1.377v-4.13c0-3.041,2.465-5.507,5.506-5.507c3.042,0,5.507,2.466,5.507,5.507v4.13
			c0,0.761,0.616,1.377,1.376,1.377s1.377-0.616,1.377-1.377v-4.13C281.22,427.231,277.522,423.533,272.96,423.533z"/>
	</g>
</g>
<g>
	<g>
		<path fill="#2193A8" d="M294.987,411.144c-3.042,0-5.507,2.465-5.507,5.507c0,3.041,2.465,5.506,5.507,5.506
			c3.041,0,5.506-2.465,5.506-5.506C300.493,413.608,298.028,411.144,294.987,411.144z M294.987,419.403
			c-1.521,0-2.753-1.232-2.753-2.753c0-1.521,1.232-2.754,2.753-2.754c1.521,0,2.753,1.232,2.753,2.754
			C297.74,418.171,296.507,419.403,294.987,419.403z"/>
	</g>
</g>
<g>
	<g>
		<path fill="#2193A8" d="M294.987,423.533c-4.562,0-8.26,3.698-8.26,8.26v4.13c0,0.761,0.617,1.377,1.377,1.377
			s1.376-0.616,1.376-1.377v-4.13c0-3.041,2.465-5.507,5.507-5.507c3.041,0,5.506,2.466,5.506,5.507v4.13
			c0,0.761,0.617,1.377,1.377,1.377s1.376-0.616,1.376-1.377v-4.13C303.247,427.231,299.549,423.533,294.987,423.533z"/>
	</g>
</g>
<g>
	<g>
		<path fill="#2193A8" d="M317.014,411.144c-3.042,0-5.507,2.465-5.507,5.507c0,3.041,2.465,5.506,5.507,5.506
			c3.041,0,5.506-2.465,5.506-5.506C322.52,413.608,320.055,411.144,317.014,411.144z M317.014,419.403
			c-1.521,0-2.754-1.232-2.754-2.753c0-1.521,1.232-2.754,2.754-2.754c1.521,0,2.753,1.232,2.753,2.754
			C319.767,418.171,318.534,419.403,317.014,419.403z"/>
	</g>
</g>
<g>
	<g>
		<path fill="#2193A8" d="M317.014,423.533c-4.563,0-8.261,3.698-8.261,8.26v4.13c0,0.761,0.617,1.377,1.377,1.377
			c0.761,0,1.377-0.616,1.377-1.377v-4.13c0-3.041,2.465-5.507,5.507-5.507c3.041,0,5.506,2.466,5.506,5.507v4.13
			c0,0.761,0.617,1.377,1.377,1.377c0.761,0,1.377-0.616,1.377-1.377v-4.13C325.273,427.231,321.575,423.533,317.014,423.533z"/>
	</g>
</g>
<g>
	<g>
		<path fill="#2193A8" d="M339.04,411.144c-3.041,0-5.507,2.465-5.507,5.507c0,3.041,2.466,5.506,5.507,5.506
			s5.507-2.465,5.507-5.506C344.547,413.608,342.081,411.144,339.04,411.144z M339.04,419.403c-1.521,0-2.754-1.232-2.754-2.753
			c0-1.521,1.233-2.754,2.754-2.754s2.753,1.232,2.753,2.754C341.793,418.171,340.561,419.403,339.04,419.403z"/>
	</g>
</g>
<g>
	<g>
		<path fill="#2193A8" d="M339.04,423.533c-4.561,0.005-8.256,3.7-8.26,8.26v4.13c0,0.761,0.616,1.377,1.376,1.377
			c0.761,0,1.377-0.616,1.377-1.377v-4.13c0-3.041,2.466-5.507,5.507-5.507s5.507,2.466,5.507,5.507v4.13
			c0,0.761,0.616,1.377,1.376,1.377c0.761,0,1.377-0.616,1.377-1.377v-4.13C347.295,427.233,343.6,423.538,339.04,423.533z"/>
	</g>
</g>
<g>
	<g>
		<path fill="#2193A8" d="M272.96,384.987c-3.041,0-5.506,2.465-5.506,5.506c0,3.042,2.465,5.507,5.506,5.507
			c3.042,0,5.507-2.465,5.507-5.507C278.467,387.452,276.001,384.987,272.96,384.987z M272.96,393.247
			c-1.521,0-2.753-1.232-2.753-2.753c0-1.521,1.232-2.753,2.753-2.753c1.521,0,2.753,1.232,2.753,2.753
			C275.713,392.014,274.481,393.247,272.96,393.247z"/>
	</g>
</g>
<g>
	<g>
		<path fill="#2193A8" d="M272.96,397.377c-4.562,0-8.26,3.697-8.26,8.26v4.13c0,0.76,0.616,1.377,1.376,1.377
			s1.377-0.617,1.377-1.377v-4.13c0-3.041,2.465-5.507,5.506-5.507c3.042,0,5.507,2.466,5.507,5.507v4.13
			c0,0.76,0.616,1.377,1.376,1.377s1.377-0.617,1.377-1.377v-4.13C281.22,401.074,277.522,397.377,272.96,397.377z"/>
	</g>
</g>
<g>
	<g>
		<path fill="#2193A8" d="M294.987,384.987c-3.042,0-5.507,2.465-5.507,5.506c0,3.042,2.465,5.507,5.507,5.507
			c3.041,0,5.506-2.465,5.506-5.507C300.493,387.452,298.028,384.987,294.987,384.987z M294.987,393.247
			c-1.521,0-2.753-1.232-2.753-2.753c0-1.521,1.232-2.753,2.753-2.753c1.521,0,2.753,1.232,2.753,2.753
			C297.74,392.014,296.507,393.247,294.987,393.247z"/>
	</g>
</g>
<g>
	<g>
		<path fill="#2193A8" d="M294.987,397.377c-4.562,0-8.26,3.697-8.26,8.26v4.13c0,0.76,0.617,1.377,1.377,1.377
			s1.376-0.617,1.376-1.377v-4.13c0-3.041,2.465-5.507,5.507-5.507c3.041,0,5.506,2.466,5.506,5.507v4.13
			c0,0.76,0.617,1.377,1.377,1.377s1.376-0.617,1.376-1.377v-4.13C303.247,401.074,299.549,397.377,294.987,397.377z"/>
	</g>
</g>
<g>
	<g>
		<path fill="#2193A8" d="M317.014,384.987c-3.042,0-5.507,2.465-5.507,5.506c0,3.042,2.465,5.507,5.507,5.507
			c3.041,0,5.506-2.465,5.506-5.507C322.52,387.452,320.055,384.987,317.014,384.987z M317.014,393.247
			c-1.521,0-2.754-1.232-2.754-2.753c0-1.521,1.232-2.753,2.754-2.753c1.521,0,2.753,1.232,2.753,2.753
			C319.767,392.014,318.534,393.247,317.014,393.247z"/>
	</g>
</g>
<g>
	<g>
		<path fill="#2193A8" d="M317.014,397.377c-4.563,0-8.261,3.697-8.261,8.26v4.13c0,0.76,0.617,1.377,1.377,1.377
			c0.761,0,1.377-0.617,1.377-1.377v-4.13c0-3.041,2.465-5.507,5.507-5.507c3.041,0,5.506,2.466,5.506,5.507v4.13
			c0,0.76,0.617,1.377,1.377,1.377c0.761,0,1.377-0.617,1.377-1.377v-4.13C325.273,401.074,321.575,397.377,317.014,397.377z"/>
	</g>
</g>
<g>
	<g>
		<path fill="#2193A8" d="M339.04,384.987c-3.041,0-5.507,2.465-5.507,5.506c0,3.042,2.466,5.507,5.507,5.507
			s5.507-2.465,5.507-5.507C344.547,387.452,342.081,384.987,339.04,384.987z M339.04,393.247c-1.521,0-2.754-1.232-2.754-2.753
			c0-1.521,1.233-2.753,2.754-2.753s2.753,1.232,2.753,2.753C341.793,392.014,340.561,393.247,339.04,393.247z"/>
	</g>
</g>
<g>
	<g>
		<path fill="#2193A8" d="M339.04,397.377c-4.561,0.004-8.256,3.699-8.26,8.26v4.13c0,0.76,0.616,1.377,1.376,1.377
			c0.761,0,1.377-0.617,1.377-1.377v-4.13c0-3.041,2.466-5.507,5.507-5.507s5.507,2.466,5.507,5.507v4.13
			c0,0.76,0.616,1.377,1.376,1.377c0.761,0,1.377-0.617,1.377-1.377v-4.13C347.295,401.076,343.6,397.381,339.04,397.377z"/>
	</g>
</g>
<g>
	<g>
		<path fill="#2193A8" d="M334.91,354.7h-57.82c-0.76,0-1.376,0.616-1.376,1.376v24.78c0,0.761,0.617,1.377,1.376,1.377h57.82
			c0.76,0,1.376-0.616,1.376-1.377v-24.78C336.286,355.316,335.67,354.7,334.91,354.7z M333.533,379.48h-55.066v-22.026h55.066
			V379.48z"/>
	</g>
</g>
<g>
	<g>
		<path fill="#2193A8" d="M319.767,361.583c-5.403,0-9.637,3.029-9.637,6.883s4.233,6.883,9.637,6.883s9.637-3.029,9.637-6.883
			S325.17,361.583,319.767,361.583z M319.767,372.597c-3.73,0-6.884-1.892-6.884-4.13c0-1.956,2.408-3.646,5.507-4.042v4.042
			c0,0.365,0.146,0.715,0.403,0.973l2.955,2.955C321.095,372.523,320.432,372.591,319.767,372.597z M324.614,371.366l-3.471-3.469
			v-3.472c3.099,0.396,5.507,2.086,5.507,4.042C326.526,369.723,325.754,370.824,324.614,371.366z"/>
	</g>
</g>
<g>
	<g>
		<path fill="#2193A8" d="M285.35,361.583h-2.753c-0.76,0-1.376,0.616-1.376,1.376s0.616,1.377,1.376,1.377h2.753
			c0.76,0,1.376-0.617,1.376-1.377S286.11,361.583,285.35,361.583z"/>
	</g>
</g>
<g>
	<g>
		<path fill="#2193A8" d="M304.623,361.583H289.48c-0.76,0-1.376,0.616-1.376,1.376s0.616,1.377,1.376,1.377h15.143
			c0.761,0,1.377-0.617,1.377-1.377S305.384,361.583,304.623,361.583z"/>
	</g>
</g>
<g>
	<g>
		<path fill="#2193A8" d="M297.74,367.09h-15.144c-0.76,0-1.376,0.617-1.376,1.377s0.616,1.376,1.376,1.376h15.144
			c0.76,0,1.376-0.616,1.376-1.376S298.5,367.09,297.74,367.09z"/>
	</g>
</g>
<g>
	<g>
		<path fill="#2193A8" d="M304.623,367.09h-2.753c-0.76,0-1.377,0.617-1.377,1.377s0.617,1.376,1.377,1.376h2.753
			c0.761,0,1.377-0.616,1.377-1.376S305.384,367.09,304.623,367.09z"/>
	</g>
</g>
<g>
	<g>
		<path fill="#2193A8" d="M289.48,372.597h-6.883c-0.76,0-1.376,0.617-1.376,1.377s0.616,1.376,1.376,1.376h6.883
			c0.76,0,1.376-0.616,1.376-1.376S290.24,372.597,289.48,372.597z"/>
	</g>
</g>
<g>
	<g>
		<path fill="#2193A8" d="M304.623,372.597H293.61c-0.76,0-1.376,0.617-1.376,1.377s0.616,1.376,1.376,1.376h11.013
			c0.761,0,1.377-0.616,1.377-1.376S305.384,372.597,304.623,372.597z"/>
	</g>
</g>
</svg>
