<svg width="30" height="30" xmlns="http://www.w3.org/2000/svg">

 <g>
  <title>background</title>
  <rect fill="none" id="canvas_background" height="402" width="582" y="-1" x="-1"/>
 </g>
 <g>
  <title>Layer 1</title>
  <rect stroke="null" transform="rotate(-45.70490264892578 16.057506561279293,12.987323760986326) " id="svg_3" height="9.128758" width="15.725547" y="8.422945" x="8.194733" stroke-opacity="null" stroke-width="null" fill="#fde74c"/>
  <path fill="#25c485" id="svg_1" d="m13.44,20.56c-0.265,0 -0.52,-0.105 -0.707,-0.293l-4.453,-4.453c-0.391,-0.391 -0.391,-1.023 0,-1.414s1.023,-0.391 1.414,0l3.746,3.746l10.8,-10.8c-2.201,-2.655 -5.522,-4.346 -9.24,-4.346c-6.627,0 -12,5.373 -12,12c0,6.627 5.373,12 12,12s12,-5.373 12,-12c0,-2.18 -0.59,-4.218 -1.606,-5.98l-11.247,11.247c-0.187,0.187 -0.441,0.293 -0.707,0.293z"/>
  <path stroke="null" fill="#fde74c" id="svg_2" d="m26.242678,6.757322c-0.391,-0.391 -1.023,-0.391 -1.414,0l-2.053,2.053c0.432,0.521 0.813,1.085 1.154,1.675l2.313,-2.313c0.391,-0.392 0.391,-1.024 0,-1.415z"/>
 </g>
</svg>