<svg width="1200" height="1200" xmlns="http://www.w3.org/2000/svg">

 <g>
  <title>background</title>
  <rect fill="none" id="canvas_background" height="402" width="582" y="-1" x="-1"/>
 </g>
 <g>
  <title>Layer 1</title>
  <path id="svg_6" d="m683.08,403.677c-0.302,-3.517 -3.428,-6.171 -6.902,-5.869c-3.559,0.26 -6.217,3.383 -5.914,6.899l0.899,11.529c4.286,-3.299 8.317,-6.857 12.047,-10.759l-0.13,-1.8zm-65.204,30.486c-0.385,-3.517 -3.558,-6.087 -7.116,-5.702c-3.516,0.428 -6.047,3.601 -5.662,7.117l0.557,4.882c4.333,-0.168 8.575,-0.595 12.778,-1.281l-0.557,-5.016zm-28.422,-6.907c-0.089,-0.042 -0.13,-0.042 -0.213,-0.042c-0.26,-0.042 -0.474,-0.042 -0.734,-0.042c-23.361,-2.612 -44.41,-12.986 -60.403,-28.552c-1.071,-1.156 -2.528,-1.926 -4.239,-2.061c-3.517,-0.293 -6.648,2.361 -6.905,5.878l-0.213,2.956c3.73,3.902 7.758,7.502 12.044,10.76c15.046,11.789 33.052,19.853 52.647,22.983c4.198,0.679 8.484,1.155 12.817,1.323l0.684,-6.171c0.387,-3.433 -2.099,-6.556 -5.485,-7.032zm-17.621,-215.849l0,5.058c0,3.558 2.871,6.43 6.429,6.43c3.561,0 6.432,-2.872 6.432,-6.43l0,-7.503c-4.372,0.561 -8.658,1.373 -12.861,2.445z" fill="#363639"/>
  <path id="svg_8" d="m716.348,324.284c0,31.549 -12.601,60.235 -33.138,81.193l-0.13,-1.801c-0.302,-3.517 -3.428,-6.171 -6.902,-5.869c-3.559,0.26 -6.217,3.383 -5.914,6.899l0.899,11.529c-15.046,11.748 -33.097,19.811 -52.73,22.942l-0.557,-5.016c-0.385,-3.517 -3.558,-6.087 -7.116,-5.702c-3.516,0.428 -6.047,3.601 -5.662,7.117l0.557,4.882c-1.842,0.134 -3.771,0.176 -5.654,0.176c-1.93,0 -3.86,-0.042 -5.745,-0.176l0.684,-6.171c0.388,-3.434 -2.099,-6.557 -5.485,-7.033c3.469,0.343 6.989,0.519 10.546,0.519c57.059,0 103.486,-46.429 103.486,-103.49c0,-57.063 -46.428,-103.491 -103.486,-103.491c-57.063,0 -103.492,46.429 -103.492,103.491c0,29.154 12.133,55.513 31.596,74.336c-1.071,-1.156 -2.528,-1.926 -4.239,-2.061c-3.517,-0.293 -6.648,2.361 -6.905,5.878l-0.213,2.956c-20.493,-20.916 -33.099,-49.602 -33.099,-81.109c0,-54.399 37.602,-100.275 88.186,-112.877l0,5.058c0,3.558 2.871,6.43 6.429,6.43c3.561,0 6.432,-2.872 6.432,-6.43l0,-7.503c5.014,-0.687 10.118,-1.029 15.306,-1.029c5.186,0 10.287,0.343 15.301,1.029c4.375,0.562 8.661,1.373 12.861,2.445c50.63,12.603 88.184,58.437 88.184,112.878z" fill="#363639"/>
  <path id="svg_12" d="m600,264.35c-33.052,0 -59.977,26.886 -59.977,59.935c0,33.057 26.925,59.976 59.977,59.976c33.053,0 59.977,-26.919 59.977,-59.976c0,-33.05 -26.924,-59.935 -59.977,-59.935zm0,107.048c-25.983,0 -47.115,-21.133 -47.115,-47.114s21.132,-47.073 47.115,-47.073c25.978,0 47.115,21.092 47.115,47.073s-21.137,47.114 -47.115,47.114z" fill="#363639"/>
  <path id="svg_16" d="m615.301,151.648l0,57.313c-5.014,-0.687 -10.115,-1.029 -15.301,-1.029c-5.188,0 -10.292,0.343 -15.306,1.029l0,-57.313l30.607,0z" fill="#fde74c"/>
  <path id="svg_18" d="m628.162,145.218l0,66.189c-4.2,-1.072 -8.486,-1.884 -12.861,-2.445l0,-57.313l-30.607,0l0,64.816c0,3.558 -2.872,6.43 -6.432,6.43c-3.558,0 -6.429,-2.872 -6.429,-6.43l0,-71.247c0,-3.559 2.871,-6.43 6.429,-6.43l43.471,0c3.558,0 6.429,2.871 6.429,6.43z" fill="#363639"/>
  <path id="svg_22" d="m616.674,50l-33.354,0c-11.275,0 -20.448,9.177 -20.448,20.455l0,60.57c0,7.034 3.561,13.205 8.96,16.889c3.256,2.277 7.246,3.559 11.488,3.559l33.354,0c4.245,0 8.232,-1.281 11.488,-3.559c5.405,-3.684 8.963,-9.854 8.963,-16.889l0,-60.57c0,-11.278 -9.176,-20.455 -20.451,-20.455zm-40.94,20.455c0,-4.203 3.386,-7.594 7.586,-7.594l33.354,0c4.203,0 7.59,3.391 7.59,7.594l0,60.57c0,4.204 -3.387,7.587 -7.59,7.587l-33.354,0c-4.2,0 -7.586,-3.383 -7.586,-7.587l0,-60.57z" fill="#363639"/>
  <path id="svg_24" d="m624.264,70.455l0,60.57c0,4.204 -3.387,7.587 -7.59,7.587l-33.354,0c-4.2,0 -7.586,-3.383 -7.586,-7.587l0,-60.57c0,-4.203 3.386,-7.594 7.586,-7.594l33.354,0c4.203,0 7.59,3.391 7.59,7.594z" fill="#6fd6ad"/>
  <path id="svg_30" d="m600,220.793c-57.063,0 -103.492,46.429 -103.492,103.491c0,29.154 12.133,55.513 31.596,74.336c15.993,15.565 37.042,25.939 60.403,28.552c0.26,0 0.474,0 0.734,0.042c0.083,0 0.125,0 0.213,0.042c3.469,0.343 6.989,0.519 10.546,0.519c57.059,0 103.486,-46.429 103.486,-103.49c0,-57.063 -46.427,-103.492 -103.486,-103.492zm0,163.467c-33.052,0 -59.977,-26.919 -59.977,-59.976c0,-33.049 26.925,-59.935 59.977,-59.935c33.053,0 59.977,26.886 59.977,59.935c0,33.057 -26.924,59.976 -59.977,59.976z" fill="#6fd6ad"/>
  <path id="svg_32" d="m594.938,434.289l-0.684,6.171l-11.876,107.309l-0.77,7.159c-0.344,3.257 -3.132,5.702 -6.391,5.702c-0.213,0 -0.474,0 -0.729,-0.051c-3.516,-0.385 -6.044,-3.55 -5.659,-7.066l0.645,-5.744l11.961,-108.632l0.687,-6.263c0.344,-3.257 3.085,-5.702 6.382,-5.702c0.26,0 0.474,0 0.734,0.042c0.083,0 0.125,0 0.213,0.042c3.389,0.476 5.875,3.599 5.487,7.033z" fill="#363639"/>
  <path id="svg_36" d="m578.735,580.9l-0.646,5.744l-41.494,376.017c-0.343,3.258 -3.132,5.744 -6.391,5.744l-50.844,0c-1.8,0 -3.511,-0.771 -4.713,-2.06c-1.243,-1.323 -1.844,-3.123 -1.716,-4.882l13.592,-172.384l0.983,-12.861l14.921,-189.574l0.557,-6.94c0.299,-3.342 3.129,-5.92 6.474,-5.92l0.474,0c3.511,0.301 6.169,3.391 5.87,6.949l-0.471,5.911l-15.437,196.005l-13.587,172.896l38.155,0l40.728,-368.9l0.77,-7.158c0.343,-3.258 3.09,-5.702 6.388,-5.702c0.254,0 0.473,0 0.728,0.05c3.516,0.384 6.044,3.558 5.659,7.065z" fill="#363639"/>
  <path id="svg_40" d="m529.779,403.468l-0.989,12.686l-10.372,131.615l-0.559,6.983c-0.255,3.215 -2.83,5.702 -6.003,5.878c-0.125,0.042 -0.296,0.042 -0.426,0.042c-0.172,0 -0.344,0 -0.515,-0.042c-3.517,-0.26 -6.172,-3.35 -5.873,-6.908l0.474,-5.953l11.23,-142.375l0.213,-2.956c0.257,-3.517 3.389,-6.171 6.905,-5.878c1.711,0.135 3.168,0.904 4.239,2.061c1.161,1.246 1.8,3.005 1.676,4.847z" fill="#363639"/>
  <path id="svg_44" d="m523.864,957.813c-1.202,-1.457 -3.001,-2.269 -4.934,-2.269l-25.507,0c-3.428,0 -6.302,2.746 -6.432,6.17l-0.213,6.69l-5.956,173.665c-0.13,3.392 2.398,6.264 5.743,6.606c0.213,0.042 0.426,0.042 0.687,0.042c3.087,0 5.746,-2.228 6.302,-5.316l30.779,-174.997l0.941,-5.317c0.343,-1.883 -0.167,-3.816 -1.41,-5.274zm-27.054,92.816l2.83,-82.224l11.66,0l-14.49,82.224z" fill="#363639"/>
  <polygon id="svg_46" points="511.299,968.405 496.81,1050.629 499.64,968.405       " fill="#fde74c"/>
  <path id="svg_50" d="m493.457,789.088l-28.804,0c-3.55,0 -6.43,-2.88 -6.43,-6.43c0,-3.551 2.88,-6.431 6.43,-6.431l28.804,0c3.55,0 6.429,2.88 6.429,6.431c0,3.55 -2.88,6.43 -6.429,6.43z" fill="#363639"/>
  <path id="svg_54" d="m457.112,751.526l-9.342,0c-7.723,0 -14.022,6.255 -14.022,13.976l0,35.451c0,7.72 6.299,13.975 14.022,13.975l9.342,0c7.717,0 13.975,-6.255 13.975,-13.975l0,-35.451c0,-7.721 -6.258,-13.976 -13.975,-13.976zm1.117,49.427c0,0.603 -0.515,1.113 -1.116,1.113l-9.342,0c-0.646,0 -1.16,-0.511 -1.16,-1.113l0,-35.451c0,-0.604 0.515,-1.114 1.16,-1.114l9.342,0c0.601,0 1.116,0.511 1.116,1.114l0,35.451z" fill="#363639"/>
  <path id="svg_56" d="m458.229,765.502l0,35.451c0,0.603 -0.515,1.113 -1.116,1.113l-9.342,0c-0.646,0 -1.16,-0.511 -1.16,-1.113l0,-35.451c0,-0.604 0.515,-1.114 1.16,-1.114l9.342,0c0.6,0 1.116,0.51 1.116,1.114z" fill="#fde74c"/>
  <path id="svg_61" d="m625.377,560.63c-0.258,0 -0.516,0.042 -0.729,0.042c-0.127,0 -0.258,0 -0.385,-0.042c-3.09,-0.176 -5.66,-2.528 -6.003,-5.702l-0.77,-7.159l-11.836,-107.309l-0.557,-4.882c-0.385,-3.517 2.146,-6.689 5.662,-7.117c3.559,-0.385 6.731,2.186 7.116,5.702l0.557,5.016l11.962,108.59l0.645,5.744c0.385,3.558 -2.143,6.732 -5.662,7.117z" fill="#363639"/>
  <polygon id="svg_65" points="713.68798828125,951.2362129688263 675.5789794921875,951.2362129688263 634.6799926757812,581.0892403125763 684.5809936523438,581.0892403125763 700.1010131835938,778.3402168750763 " fill="#6fd6ad"/>
  <path id="svg_67" d="m727.063,962.703c0.172,1.8 -0.468,3.559 -1.669,4.891c-1.202,1.28 -2.919,2.06 -4.719,2.06l-50.883,0c-3.262,0 -6.004,-2.487 -6.389,-5.753l-41.627,-377.256l-0.645,-5.744c-0.386,-3.508 2.143,-6.682 5.703,-7.066c0.255,-0.05 0.471,-0.05 0.729,-0.05c3.256,0 6.003,2.444 6.346,5.702l0.77,7.158l40.899,370.147l38.108,0l-13.587,-172.896l-15.52,-197.252l-0.471,-5.911c-0.302,-3.559 2.356,-6.648 5.917,-6.899c0.172,0 0.344,-0.05 0.515,-0.05c3.257,0 6.086,2.578 6.383,5.92l0.562,6.94l15.005,190.822l1.024,12.86l13.549,172.377z" fill="#363639"/>
  <path id="svg_71" d="m694.87,553.722c0.302,3.517 -2.356,6.648 -5.873,6.908l-0.515,0c-3.345,0 -6.172,-2.528 -6.433,-5.92l-0.556,-6.941l-10.331,-131.532l-0.899,-11.529c-0.303,-3.517 2.355,-6.64 5.914,-6.899c3.475,-0.302 6.601,2.353 6.902,5.869l0.13,1.801l11.187,142.291l0.474,5.952z" fill="#363639"/>
  <path id="svg_75" d="m713.219,969.653l-0.215,-6.648c-0.128,-3.476 -2.958,-6.213 -6.433,-6.213l-25.504,0c-1.889,0 -3.688,0.812 -4.932,2.269c-1.202,1.458 -1.717,3.384 -1.415,5.275l0.941,5.317l30.785,175.029c0.556,3.091 3.256,5.317 6.34,5.317c0.217,0 0.432,-0.042 0.646,-0.042c3.386,-0.343 5.876,-3.257 5.787,-6.598l-6,-173.706zm-24.477,0l11.615,0l2.828,82.224l-14.443,-82.224z" fill="#363639"/>
  <polygon id="svg_77" points="703.186,1051.877 688.742,969.653 700.357,969.653       " fill="#fde74c"/>
  <path id="svg_81" d="m735.362,790.336l-28.811,0c-3.552,0 -6.432,-2.881 -6.432,-6.431s2.88,-6.431 6.432,-6.431l28.811,0c3.55,0 6.432,2.881 6.432,6.431s-2.882,6.431 -6.432,6.431z" fill="#363639"/>
  <path id="svg_85" d="m752.271,752.767l-9.345,0c-7.714,0 -13.975,6.305 -13.975,14.024l0,35.409c0,7.712 6.261,14.017 13.975,14.017l9.345,0c7.717,0 13.98,-6.305 13.98,-14.017l0,-35.409c0.001,-7.72 -6.263,-14.024 -13.98,-14.024zm1.12,49.433c0,0.595 -0.516,1.155 -1.119,1.155l-9.345,0c-0.599,0 -1.113,-0.561 -1.113,-1.155l0,-35.409c0,-0.604 0.515,-1.164 1.113,-1.164l9.345,0c0.604,0 1.119,0.561 1.119,1.164l0,35.409z" fill="#363639"/>
  <path id="svg_87" d="m753.391,766.791l0,35.409c0,0.595 -0.516,1.155 -1.119,1.155l-9.345,0c-0.599,0 -1.113,-0.561 -1.113,-1.155l0,-35.409c0,-0.604 0.515,-1.164 1.113,-1.164l9.345,0c0.603,0 1.119,0.561 1.119,1.164z" fill="#fde74c"/>
  <path id="svg_91" d="m682.05,554.71l-0.556,-6.941l-163.076,0l-0.559,6.983c-0.255,3.215 -2.83,5.702 -6.003,5.878l176.626,0c-3.344,0 -6.171,-2.528 -6.432,-5.92zm-172.118,19.074c3.511,0.301 6.169,3.391 5.87,6.949l-0.471,5.911l49.859,0l0.77,-7.158c0.343,-3.258 3.09,-5.702 6.388,-5.702l-62.416,0zm172.118,-19.074l-0.556,-6.941l-163.076,0l-0.559,6.983c-0.255,3.215 -2.83,5.702 -6.003,5.878l176.626,0c-3.344,0 -6.171,-2.528 -6.432,-5.92zm-172.118,19.074c3.511,0.301 6.169,3.391 5.87,6.949l-0.471,5.911l49.859,0l0.77,-7.158c0.343,-3.258 3.09,-5.702 6.388,-5.702l-62.416,0zm172.118,-19.074l-0.556,-6.941l-163.076,0l-0.559,6.983c-0.255,3.215 -2.83,5.702 -6.003,5.878l176.626,0c-3.344,0 -6.171,-2.528 -6.432,-5.92zm-166.248,26.023l-0.471,5.911l49.859,0l0.77,-7.158c0.343,-3.258 3.09,-5.702 6.388,-5.702l-62.416,0c3.51,0.301 6.169,3.391 5.87,6.949zm260.262,-32.964l-352.134,0c-10.372,0 -18.859,8.482 -18.859,18.856l0,1.164c0,10.374 8.487,18.855 18.859,18.855l352.134,0c10.419,0 18.864,-8.481 18.864,-18.855l0,-1.164c0.001,-10.374 -8.445,-18.856 -18.864,-18.856zm6.003,20.02c0,3.299 -2.7,5.995 -6.003,5.995l-352.134,0c-3.297,0 -5.998,-2.696 -5.998,-5.995l0,-1.164c0,-3.299 2.7,-5.995 5.998,-5.995l352.134,0c3.303,0 6.003,2.696 6.003,5.995l0,1.164zm-272.135,5.995c3.511,0.301 6.169,3.391 5.87,6.949l-0.471,5.911l49.859,0l0.77,-7.158c0.343,-3.258 3.09,-5.702 6.388,-5.702l-62.416,0zm172.118,-19.074l-0.556,-6.941l-163.076,0l-0.559,6.983c-0.255,3.215 -2.83,5.702 -6.003,5.878l176.626,0c-3.344,0 -6.171,-2.528 -6.432,-5.92zm-172.118,19.074c3.511,0.301 6.169,3.391 5.87,6.949l-0.471,5.911l49.859,0l0.77,-7.158c0.343,-3.258 3.09,-5.702 6.388,-5.702l-62.416,0zm172.118,-19.074l-0.556,-6.941l-163.076,0l-0.559,6.983c-0.255,3.215 -2.83,5.702 -6.003,5.878l176.626,0c-3.344,0 -6.171,-2.528 -6.432,-5.92z" fill="#363639"/>
  <path id="svg_93" d="m782.067,566.625l0,1.164c0,3.299 -2.7,5.995 -6.003,5.995l-352.134,0c-3.297,0 -5.998,-2.696 -5.998,-5.995l0,-1.164c0,-3.299 2.7,-5.995 5.998,-5.995l86.984,0c0.171,0.042 0.343,0.042 0.515,0.042c0.13,0 0.302,0 0.426,-0.042l112.408,0c0.127,0.042 0.258,0.042 0.385,0.042c0.213,0 0.471,-0.042 0.729,-0.042l150.688,0c3.302,0 6.002,2.696 6.002,5.995z" fill="#fde74c"/>
  <polygon id="svg_95" points="565.1900024414062,581.0892403125763 524.4619750976562,949.9892036914825 486.3080139160156,949.9892036914825 499.8949890136719,777.0932075977325 515.3309936523438,581.0892403125763 " fill="#6fd6ad"/>
  <path id="svg_97" d="m581.438,436.359114l-11.961,108.632l-51.058,0l10.372,-131.615c15.045,11.788 33.051,19.852 52.647,22.983z" fill="#6fd6ad"/>
  <path id="svg_99" d="m681.494,542.213228l-51.1,0l-11.962,-108.59c19.634,-3.132 37.685,-11.194 52.73,-22.942l10.332,131.532z" fill="#6fd6ad"/>
 </g>
</svg>