<?xml version="1.0" encoding="utf-8"?>
<!-- Generator: Adobe Illustrator 13.0.0, SVG Export Plug-In . SVG Version: 6.00 Build 14948)  -->
<!DOCTYPE svg PUBLIC "-//W3C//DTD SVG 1.1//EN" "http://www.w3.org/Graphics/SVG/1.1/DTD/svg11.dtd">
<svg version="1.1" id="Layer_1" xmlns="http://www.w3.org/2000/svg" xmlns:xlink="http://www.w3.org/1999/xlink" x="0px" y="0px"
	 width="80px" height="80px" viewBox="0 0 80 80" enable-background="new 0 0 80 80" xml:space="preserve">
<title></title>
<g>
	<title>background</title>
	<rect id="canvas_background" x="-1" y="-1" fill="none" width="582" height="402"/>
</g>
<g>
	<title>Layer 1</title>
	<path id="svg_1" fill="#25C485" d="M41.771,39.908c2.969-1.484,5.567-3.711,7.608-6.309c1.67-2.413,2.784-5.196,3.341-8.166h8.722
		c0,0,1.67-2.227,4.64-6.681c0,0,0-0.186-0.186-0.186H52.535c-0.557-2.783-1.671-5.196-3.526-7.423h12.434
		c1.67-2.227,3.34-4.454,4.64-6.866l0,0H19.317c-0.186,0-1.67,2.227-4.64,6.681v0.186h12.248c2.412,0,4.639,0.557,6.866,1.299
		c3.154,0.928,5.752,3.155,7.423,5.938l0,0H19.317c0,0-1.67,2.227-4.64,6.681c0,0,0,0.186,0.186,0.186l0,0h27.836
		c0,1.113-0.186,2.042-0.557,2.969c-2.413,6.681-8.907,10.021-19.114,10.021c-1.855,0-3.897,0-5.752-0.371v0.186v6.495
		c0,0.186,9.093,10.763,27.464,32.104h10.021c0.186,0,0.186,0,0.186-0.186v-1.3L31.936,47.332c-1.113-1.114-2.227-2.599-3.155-4.084
		l0,0C33.235,43.248,37.875,42.135,41.771,39.908z"/>
</g>
</svg>
