<?xml version="1.0" encoding="utf-8"?>
<!-- Generator: Adobe Illustrator 13.0.0, SVG Export Plug-In . SVG Version: 6.00 Build 14948)  -->
<!DOCTYPE svg PUBLIC "-//W3C//DTD SVG 1.1//EN" "http://www.w3.org/Graphics/SVG/1.1/DTD/svg11.dtd">
<svg version="1.1" id="Layer_1" xmlns="http://www.w3.org/2000/svg" xmlns:xlink="http://www.w3.org/1999/xlink" x="0px" y="0px"
	 width="1401.896px" height="592.491px" viewBox="-0.833 2.5 1401.896 592.491"
	 enable-background="new -0.833 2.5 1401.896 592.491" xml:space="preserve">
<g id="Layer_1_1_">
	
		<linearGradient id="SVGID_1_" gradientUnits="userSpaceOnUse" x1="215.916" y1="72.1582" x2="1515.3221" y2="77.9747" gradientTransform="matrix(1 0 0 -1 -156 353)">
		<stop  offset="0" style="stop-color:#2193B0"/>
		<stop  offset="1" style="stop-color:#6DD5ED"/>
	</linearGradient>
	<path fill="url(#SVGID_1_)" d="M-0.083,443.36c0,0,600.146,248.849,1400.146,1.547l-0.229-441.159L-0.833,4.718L-0.083,443.36z"/>
	
		<linearGradient id="SVGID_2_" gradientUnits="userSpaceOnUse" x1="216.2563" y1="52.0752" x2="1515.9128" y2="57.8928" gradientTransform="matrix(1 0 0 -1 -156 353)">
		<stop  offset="0" style="stop-color:#2193B0"/>
		<stop  offset="1" style="stop-color:#6DD5ED"/>
	</linearGradient>
	<path opacity="0.39" fill="url(#SVGID_2_)" enable-background="new    " d="M-0.083,390c0,0,723.583,193.5,1401.146,27.063
		l-0.229-303.563L0.167,114.167L-0.083,390z"/>
	
		<linearGradient id="SVGID_3_" gradientUnits="userSpaceOnUse" x1="215.8774" y1="61.1592" x2="1515.3732" y2="66.9761" gradientTransform="matrix(1 0 0 -1 -156 353)">
		<stop  offset="0" style="stop-color:#2193B0"/>
		<stop  offset="1" style="stop-color:#6DD5ED"/>
	</linearGradient>
	<path opacity="0.41" fill="url(#SVGID_3_)" enable-background="new    " d="M-0.083,463.78c0,0,646.583,273.72,1400.146-27.353
		L1399.833,2.5L-0.833,3.518L-0.083,463.78z"/>
	
		<linearGradient id="SVGID_4_" gradientUnits="userSpaceOnUse" x1="216.2095" y1="49.2539" x2="1515.7271" y2="55.0709" gradientTransform="matrix(1 0 0 -1 -156 353)">
		<stop  offset="0" style="stop-color:#2193B0"/>
		<stop  offset="1" style="stop-color:#6DD5ED"/>
	</linearGradient>
	<path opacity="0.2" fill="url(#SVGID_4_)" enable-background="new    " d="M0.25,476.25c0,0,390.021,284.758,1400.146-27.676
		l-0.23-439.044L-0.5,10.56L0.25,476.25z"/>
	
		<linearGradient id="SVGID_5_" gradientUnits="userSpaceOnUse" x1="1551.9375" y1="-51.5625" x2="1551.9375" y2="-51.5625" gradientTransform="matrix(1 0 0 -1 -156 353)">
		<stop  offset="0" style="stop-color:#2193B0"/>
		<stop  offset="1" style="stop-color:#6DD5ED"/>
	</linearGradient>
	<path fill="url(#SVGID_5_)" stroke="#000000" d="M1395.938,404.563"/>
</g>
<g id="Layer_2">
	<circle opacity="0.03" fill="#FFFFFF" enable-background="new    " cx="442.516" cy="324.33" r="65.502"/>
	<circle opacity="0.03" fill="#FFFFFF" enable-background="new    " cx="1132.48" cy="174.338" r="31.004"/>
	<circle opacity="0.04" fill="#FFFFFF" enable-background="new    " cx="1042.486" cy="352.83" r="67.001"/>
	<circle opacity="0.03" fill="#FFFFFF" enable-background="new    " cx="1244.976" cy="325.832" r="67.001"/>
	<circle opacity="0.05" fill="#FFFFFF" enable-background="new    " cx="953.989" cy="189.337" r="59.502"/>
	<circle opacity="0.03" fill="#FFFFFF" enable-background="new    " cx="791.997" cy="369.328" r="68.501"/>
	<circle opacity="0.06" fill="#FFFFFF" enable-background="new    " cx="188.116" cy="203.597" r="100"/>
	<circle opacity="0.03" fill="#FFFFFF" enable-background="new    " cx="195.615" cy="334.09" r="64.001"/>
	<circle opacity="0.07" fill="#FFFFFF" enable-background="new    " cx="353.107" cy="139.1" r="40.003"/>
	<circle opacity="0.04" fill="#FFFFFF" enable-background="new    " cx="1305.561" cy="187.098" r="86.5"/>
</g>
<text transform="matrix(1 0 0 1 479.1011 173.5967)"><tspan x="0" y="0" fill="#FFE066" font-family="'MyriadPro-Regular'" font-size="84">HIgh intensity</tspan><tspan x="0" y="100.8" fill="#FFE066" font-family="'MyriadPro-Regular'" font-size="84">  ultrasound</tspan></text>
</svg>
