<?xml version="1.0" encoding="utf-8"?>
<!-- Generator: Adobe Illustrator 13.0.0, SVG Export Plug-In . SVG Version: 6.00 Build 14948)  -->
<!DOCTYPE svg PUBLIC "-//W3C//DTD SVG 1.1//EN" "http://www.w3.org/Graphics/SVG/1.1/DTD/svg11.dtd">
<svg version="1.1" id="Layer_1" xmlns="http://www.w3.org/2000/svg" xmlns:xlink="http://www.w3.org/1999/xlink" x="0px" y="0px"
	 width="444.219px" height="444.219px" viewBox="673.891 673.891 444.219 444.219"
	 enable-background="new 673.891 673.891 444.219 444.219" xml:space="preserve">
<path fill="#FFC527" d="M871.996,1012.55l177.571-177.572c3.664-3.663,5.495-8.001,5.495-13.014c0-5.013-1.831-9.351-5.495-13.014
	l-29.498-29.499c-3.664-3.663-8.002-5.495-13.015-5.495s-9.351,1.832-13.015,5.495L858.982,914.509l-61.022-61.022
	c-3.663-3.663-8.001-5.495-13.014-5.495s-9.351,1.832-13.014,5.495l-29.499,29.499c-3.663,3.663-5.495,8.001-5.495,13.014
	s1.832,9.351,5.495,13.015l103.536,103.535c3.663,3.663,8.001,5.495,13.014,5.495
	C863.995,1018.045,868.333,1016.213,871.996,1012.55z M1118.109,757.182v277.637c0,22.943-8.146,42.562-24.438,58.854
	c-16.292,16.291-35.91,24.438-58.854,24.438H757.182c-22.943,0-42.562-8.146-58.853-24.438
	c-16.292-16.292-24.438-35.91-24.438-58.854V757.182c0-22.944,8.146-42.562,24.438-58.853c16.292-16.292,35.91-24.438,58.853-24.438
	h277.637c22.943,0,42.562,8.146,58.854,24.438C1109.963,714.62,1118.109,734.238,1118.109,757.182z"/>
</svg>
