<?xml version="1.0" encoding="utf-8"?>
<!-- Generator: Adobe Illustrator 16.0.0, SVG Export Plug-In . SVG Version: 6.00 Build 0)  -->
<!DOCTYPE svg PUBLIC "-//W3C//DTD SVG 1.1//EN" "http://www.w3.org/Graphics/SVG/1.1/DTD/svg11.dtd">
<svg version="1.1" id="Layer_1" xmlns="http://www.w3.org/2000/svg" xmlns:xlink="http://www.w3.org/1999/xlink" x="0px" y="0px"
	 width="500px" height="500px" viewBox="0 0 500 500" enable-background="new 0 0 500 500" xml:space="preserve">
<g>
	<path fill="#B5B5B6" d="M456.772,104.163c0.396-19.619-8.407-31.532-14.169-37.695l-0.181-0.192
		c-0.609-0.655-1.197-1.243-1.717-1.763c-0.53-0.525-1.106-1.107-1.773-1.723l-0.181-0.18c-6.17-5.763-18.089-14.563-37.705-14.174
		c-37.351,0.741-87.276,34.73-148.42,100.936l-131.103-4.599c0,0-36.142-2.112-57.551,7.214
		c-21.422,9.327-41.681,19.896-42.924,24.246c-0.684,2.39-0.063,4.931,2.226,7.214c1.524,1.524,3.784,2.942,6.897,4.123
		c0,0,128.828,45.594,148.079,52.4c-62.071,87.909-48.117,118.78-43.711,125.012c0.327,0.467,0.701,0.908,1.107,1.316l3.265,3.264
		c0.407,0.408,0.847,0.781,1.322,1.113c6.214,4.389,36.933,18.291,124.288-43.209c6.102,17.666,51.271,145.732,51.271,145.732
		c1.198,3.113,2.61,5.379,4.136,6.902c2.281,2.289,4.823,2.91,7.207,2.221c4.35-1.242,14.925-21.506,24.245-42.92
		c9.321-21.416,7.22-57.545,7.22-57.545l-4.485-127.697C421.443,192.292,456.025,141.842,456.772,104.163z M59.239,176.357
		c3.808-1.802,8.078-3.745,12.812-5.808c12.281-5.344,36.142-6.247,48.31-5.564c0.135,0.006,0.305,0.017,0.453,0.022l114.154,4.005
		c-17.693,20.139-32.584,38.385-44.955,54.813c-1.774-1.436-3.707-2.667-5.909-3.445L59.239,176.357z M332.819,431.324
		c-2.057,4.734-3.999,9.004-5.807,12.805l-44.018-124.865c-0.485-1.367-1.186-2.604-1.966-3.795
		c16.055-12.078,33.838-26.533,53.451-43.695l3.887,110.787c0,0.158,0.012,0.311,0.021,0.477
		C339.066,395.176,338.163,419.043,332.819,431.324z M331.769,247.161C202.215,363.219,157.826,355.734,151.95,353.979l-0.711-0.719
		c-1.762-5.869-9.242-50.258,106.822-179.812C334.887,87.679,378.44,69.133,401.454,68.676c12.205-0.237,19.221,4.739,23.469,8.722
		l0.542,0.537c0.576,0.565,1.255,1.237,1.808,1.808l0.543,0.554c3.977,4.248,8.959,11.259,8.722,23.46
		C436.074,126.771,417.534,170.33,331.769,247.161z"/>
	<path fill="#B5B5B6" d="M135.93,270.949c-7.795-7.801-45.881,10.49-62.884,18.359c-4.711,2.182-9.287,6.371-11.354,10.574
		c-5.321,10.785-13.603,31.172-5.197,39.576c1.435,1.447,3.367,2.531,5.886,3.166l51.429,11.93c0,0,1.897-31.883,21.07-71.393
		C137.941,276.848,137.976,273,135.93,270.949z M97.269,329.93l-23.444-5.439c0.825-3.412,2.542-8.547,5.886-15.365
		c0.373-0.451,1.231-1.168,1.841-1.445l2.769-1.283c8.869-4.117,16.518-7.5,22.934-10.133
		C102.432,309.125,99.302,320.654,97.269,329.93z"/>
	<path fill="#B5B5B6" d="M220.213,368.496c-39.509,19.166-71.392,21.064-71.392,21.064l11.931,51.434
		c0.632,2.514,1.717,4.441,3.152,5.881c8.417,8.412,28.809,0.125,39.577-5.197c4.214-2.061,8.405-6.639,10.586-11.354
		c7.863-17.004,26.167-55.078,18.359-62.879C230.381,365.395,226.527,365.434,220.213,368.496z M196.984,419.049l-1.289,2.779
		c-0.282,0.598-0.995,1.457-1.445,1.834c-6.824,3.34-11.955,5.057-15.366,5.881l-5.446-23.432
		c9.288-2.039,20.812-5.174,33.667-9.992C204.475,402.537,201.097,410.186,196.984,419.049z"/>
</g>
</svg>
