<?xml version="1.0" encoding="utf-8"?>
<!-- Generator: Adobe Illustrator 16.0.0, SVG Export Plug-In . SVG Version: 6.00 Build 0)  -->
<!DOCTYPE svg PUBLIC "-//W3C//DTD SVG 1.1//EN" "http://www.w3.org/Graphics/SVG/1.1/DTD/svg11.dtd">
<svg version="1.1" id="Capa_1" xmlns="http://www.w3.org/2000/svg" xmlns:xlink="http://www.w3.org/1999/xlink" x="0px" y="0px"
	 width="500px" height="500px" viewBox="56 146 500 500" enable-background="new 56 146 500 500" xml:space="preserve">
<g>
	<g>
		<path fill="#B5B5B5" d="M229.648,609.785H99.849c-4.217,0-7.635-3.418-7.635-7.635V235.658c0-4.216,3.418-7.635,7.635-7.635
			h61.082c4.217,0,7.635-3.419,7.635-7.635s-3.418-7.635-7.635-7.635H99.849c-12.651,0-22.906,10.255-22.906,22.906V602.15
			c0,12.65,10.255,22.905,22.906,22.905h129.799c4.217,0,7.635-3.419,7.635-7.635C237.284,613.204,233.865,609.785,229.648,609.785z
			"/>
	</g>
</g>
<g>
	<g>
		<path fill="#B5B5B5" d="M435.8,495.257c-4.216,0-7.635,3.418-7.635,7.635v99.259c0,4.217-3.419,7.635-7.635,7.635H306.001
			c-4.217,0-7.635,3.419-7.635,7.636c0,4.216,3.418,7.635,7.635,7.635H420.53c12.65,0,22.905-10.255,22.905-22.905v-99.259
			C443.436,498.675,440.018,495.257,435.8,495.257z"/>
	</g>
</g>
<g>
	<g>
		<path fill="#B5B5B5" d="M420.53,212.752h-61.083c-4.216,0-7.635,3.419-7.635,7.635s3.419,7.635,7.635,7.635h61.083
			c4.216,0,7.635,3.419,7.635,7.635v145.07c0,4.216,3.419,7.635,7.635,7.635c4.218,0,7.636-3.419,7.636-7.635v-145.07
			C443.436,223.007,433.18,212.752,420.53,212.752z"/>
	</g>
</g>
<g>
	<g>
		<path fill="#B5B5B5" d="M244.919,579.244H122.755V258.563h38.176c4.217,0,7.635-3.419,7.635-7.635s-3.418-7.635-7.635-7.635
			H115.12c-4.216,0-7.635,3.419-7.635,7.635v335.951c0,4.217,3.419,7.636,7.635,7.636h129.799c4.216,0,7.635-3.419,7.635-7.636
			C252.554,582.663,249.135,579.244,244.919,579.244z"/>
	</g>
</g>
<g>
	<g>
		<path fill="#B5B5B5" d="M405.26,525.798c-4.218,0-7.636,3.418-7.636,7.635v45.812h-45.812c-4.217,0-7.635,3.419-7.635,7.635
			c0,4.217,3.418,7.636,7.635,7.636h53.447c4.217,0,7.635-3.419,7.635-7.636v-53.446
			C412.895,529.216,409.477,525.798,405.26,525.798z"/>
	</g>
</g>
<g>
	<g>
		<path fill="#B5B5B5" d="M405.26,243.293h-45.813c-4.216,0-7.635,3.419-7.635,7.635s3.419,7.635,7.635,7.635h38.177v152.705
			c0,4.217,3.418,7.636,7.636,7.636c4.217,0,7.635-3.419,7.635-7.636v-160.34C412.895,246.712,409.477,243.293,405.26,243.293z"/>
	</g>
</g>
<g>
	<g>
		<path fill="#B5B5B5" d="M328.906,193.961h-15.27v-19.386c0-4.216-3.42-7.635-7.636-7.635h-91.623
			c-4.217,0-7.635,3.418-7.635,7.635v19.386h-15.271c-4.217,0-7.635,3.419-7.635,7.635v64.602c0,4.217,3.418,7.636,7.635,7.636
			h137.434c4.218,0,7.636-3.418,7.636-7.636v-64.602C336.542,197.38,333.124,193.961,328.906,193.961z M321.271,258.563H199.107
			v-49.332h15.271c4.217,0,7.635-3.418,7.635-7.635v-19.386h76.353v19.386c0,4.217,3.418,7.635,7.635,7.635h15.271V258.563z"/>
	</g>
</g>
<g>
	<g>
		<path fill="#B5B5B5" d="M283.095,289.104h-45.812c-4.216,0-7.635,3.418-7.635,7.635v30.541c0,4.216,3.419,7.635,7.635,7.635
			h45.812c4.216,0,7.635-3.419,7.635-7.635V296.74C290.73,292.523,287.312,289.104,283.095,289.104z M275.46,319.646h-30.541
			v-15.271h30.541V319.646z"/>
	</g>
</g>
<g>
	<g>
		<path fill="#B5B5B5" d="M244.919,510.526h-45.812c-4.217,0-7.635,3.419-7.635,7.636v30.541c0,4.217,3.418,7.635,7.635,7.635
			h45.812c4.216,0,7.635-3.418,7.635-7.635v-30.541C252.554,513.945,249.135,510.526,244.919,510.526z M237.284,541.068h-30.541
			v-15.271h30.541V541.068z"/>
	</g>
</g>
<g>
	<g>
		<path fill="#B5B5B5" d="M283.095,403.633h-45.812c-4.216,0-7.635,3.419-7.635,7.636v30.541c0,4.217,3.419,7.635,7.635,7.635
			h45.812c4.216,0,7.635-3.418,7.635-7.635v-30.541C290.73,407.052,287.312,403.633,283.095,403.633z M275.46,434.175h-30.541
			v-15.271h30.541V434.175z"/>
	</g>
</g>
<g>
	<g>
		<path fill="#B5B5B5" d="M359.447,403.633h-45.811c-4.217,0-7.636,3.419-7.636,7.636v30.541c0,4.217,3.419,7.635,7.636,7.635
			h45.811c4.217,0,7.636-3.418,7.636-7.635v-30.541C367.083,407.052,363.664,403.633,359.447,403.633z M351.813,434.175h-30.541
			v-15.271h30.541V434.175z"/>
	</g>
</g>
<g>
	<g>
		<path fill="#B5B5B5" d="M206.743,403.633h-45.812c-4.217,0-7.635,3.419-7.635,7.636v30.541c0,4.217,3.418,7.635,7.635,7.635
			h45.812c4.216,0,7.635-3.418,7.635-7.635v-30.541C214.378,407.052,210.959,403.633,206.743,403.633z M199.107,434.175h-30.541
			v-15.271h30.541V434.175z"/>
	</g>
</g>
<g>
	<g>
		<path fill="#B5B5B5" d="M336.542,365.457h-68.717v-7.635c0-4.216-3.419-7.635-7.635-7.635s-7.635,3.419-7.635,7.635v7.635h-68.717
			c-4.216,0-7.635,3.418-7.635,7.635v7.635c0,4.216,3.419,7.635,7.635,7.635c4.217,0,7.635-3.419,7.635-7.635h61.082
			c0,4.216,3.419,7.635,7.635,7.635s7.635-3.419,7.635-7.635h61.082c0,4.216,3.419,7.635,7.636,7.635s7.636-3.419,7.636-7.635
			v-7.635C344.178,368.875,340.759,365.457,336.542,365.457z"/>
	</g>
</g>
<g>
	<g>
		<path fill="#B5B5B5" d="M336.542,464.716c-4.217,0-7.636,3.418-7.636,7.635H222.013c-4.216,0-7.635,3.419-7.635,7.635v7.636
			c0,4.217,3.419,7.636,7.635,7.636s7.635-3.419,7.635-7.636h106.894c4.217,0,7.636-3.419,7.636-7.636v-7.635
			C344.178,468.134,340.759,464.716,336.542,464.716z"/>
	</g>
</g>
<g>
	<g>
		<path fill="#B5B5B5" d="M479.375,421.141l-22.906-22.905c-2.981-2.98-7.814-2.98-10.796,0l-145.07,145.069
			c-0.167,0.221-0.32,0.449-0.458,0.688c-0.145,0.184-0.366,0.283-0.496,0.474l-45.812,68.717
			c-2.342,3.507-1.398,8.248,2.108,10.591c2.567,1.715,5.915,1.715,8.482,0l68.717-45.812c0.19-0.131,0.29-0.352,0.474-0.497
			c0.236-0.14,0.466-0.293,0.687-0.458l145.07-145.069C482.355,428.956,482.355,424.122,479.375,421.141z M287.714,589.934
			l19.47-29.205l9.743,9.735L287.714,589.934z M328.906,560.813l-12.109-12.109L451.071,414.43l12.109,12.109L328.906,560.813z"/>
	</g>
</g>
<g>
	<g>
		<path fill="#B5B5B5" d="M494.646,405.87l-22.905-22.906c-3.033-2.93-7.867-2.846-10.797,0.187c-2.857,2.959-2.857,7.65,0,10.609
			l22.905,22.905c1.432,1.433,3.373,2.238,5.398,2.238c4.216-0.002,7.635-3.42,7.633-7.638
			C496.88,409.243,496.076,407.302,494.646,405.87z"/>
	</g>
</g>
<g>
	<g>
		<path fill="#B5B5B5" d="M532.821,367.694l-22.905-22.906c-2.981-2.98-7.814-2.98-10.797,0l-22.905,22.906
			c-2.98,2.981-2.98,7.814,0,10.796l22.905,22.906c2.982,2.98,7.815,2.98,10.797,0l22.905-22.906
			C535.803,375.509,535.803,370.676,532.821,367.694z M504.518,385.202l-12.109-12.109l12.109-12.109l12.109,12.109L504.518,385.202
			z"/>
	</g>
</g>
</svg>
