<?xml version="1.0" encoding="utf-8"?>
<!-- Generator: Adobe Illustrator 16.0.0, SVG Export Plug-In . SVG Version: 6.00 Build 0)  -->
<!DOCTYPE svg PUBLIC "-//W3C//DTD SVG 1.1//EN" "http://www.w3.org/Graphics/SVG/1.1/DTD/svg11.dtd">
<svg version="1.1" id="Layer_1" xmlns="http://www.w3.org/2000/svg" xmlns:xlink="http://www.w3.org/1999/xlink" x="0px" y="0px"
	 width="500px" height="500px" viewBox="0 0 500 500" enable-background="new 0 0 500 500" xml:space="preserve">
<path fill="#D53032" d="M244.139,113.495c-7.815,0.004-7.83-11.824-0.004-11.828C251.951,101.66,251.965,113.487,244.139,113.495z
	 M160.713,348.085l-10.464,3.666c0.956,2.731,3.15,6.563,5.38,10.302l9.519-5.68C164.227,354.832,161.431,350.142,160.713,348.085z
	 M176.268,260.112c-0.094,1.039-2.216,25.63,4.164,39.727c6.419,14.188,27.217,28.48,28.101,29.083
	c4.208,2.525,18.06,7.794,32.619,6.877c-0.642,1.32-1.292,2.638-1.808,4.038l10.399,3.832c4.174-11.341,14.018-19.214,25.752-20.712
	h17.543c21.805-12.553,26.322-19.171,25.301-54.199l-11.077,0.324c0.347,11.937-0.653,27.048-2.872,30.642
	c-2.476,4.013-9.638,9.252-14.361,12.149H274.82l-0.004-0.033c-0.394,0.044-0.361,0.033-0.812,0.033v0.115
	c-8.743,1.137-16.652,4.918-22.96,10.622c-16.789,5.954-34.278-1.955-36.573-3.056c-5.539-3.839-19.759-15.043-23.941-24.283
	c-4.294-9.494-3.781-27.885-3.222-34.171L176.268,260.112z M263.101,343.776c-0.79,6.763-0.491,4.251-1.303,11.009
	c8.739,1.058,22.224-1.01,32.579-7.599l-5.954-9.353C276.812,345.228,263.237,343.806,263.101,343.776z M293.247,250.752v-35.714
	h-11.084v35.714c0,17.316-14.091,31.406-31.406,31.406h-17.24v11.085h17.24C274.185,293.243,293.247,274.181,293.247,250.752z
	 M202.11,163.924v-11.085c-3.057,0-5.542-2.486-5.542-5.542v-9.237h-11.084v9.237C185.483,156.465,192.941,163.924,202.11,163.924z
	 M284.32,163.924c9.169,0,16.627-7.458,16.627-16.627v-9.237h-11.084v9.237c0,3.056-2.486,5.542-5.543,5.542V163.924z
	 M471.217,456.434v11.084H24.141v-11.084h19.091v-34.902h20.809l13.329-28.834h117.124c-13.426-5.65-24.626-13.444-32.254-22.934
	l8.638-6.942c30.082,37.429,119.188,39.106,151.933,1.775l8.331,7.31c-7.465,8.513-17.95,15.57-30.341,20.791h23.94l-0.217-0.422
	c25.832-13.286,40.921-31.947,41.77-51.425c-4.089-1.064-2.912-0.805-38.024-0.805l-24.854,4.232l-1.861-10.926l24.626-4.192v-0.199
	c1.332,0,0.87,0.051,2.894-0.296c7.202-6.238,12.474-19.455,11.669-29.678l-8.244-86.096c-0.566-5.917-4.803-10.951-10.54-12.524
	c-31.157-10.11-46.568-14.675-46.568-14.675v48.126h-11.084v-55.704c-1.379-1.652-2.605-3.604-3.651-5.925
	c-9.941,3.98-24.45,3.836-34.203-0.339c-2.519,4.42-5.809,7.285-9.562,9.313v62.199c0,11.204,9.118,20.322,20.321,20.322h11.085
	v11.084h-11.085c-17.316,0-31.406-14.09-31.406-31.406v-58.107c-10.309,2.84-1.721,0.155-39.204,12.326
	c-5.982,1.645-10.219,6.679-10.789,12.6l-7.101,77.343c-0.967,13.051,4.55,28.718,13.217,37.757l39.149,11.622
	c7.917,6.542,25.33,18.846,35.516,18.846v11.085c-15.093,0-35.801-15.902-40.82-19.943l-23.057-6.845h-34.805
	c-22.519,0-29.627,26.423-20.25,40.763l-9.273,6.068c-14.04-21.433-2.14-57.916,29.522-57.916h12.65
	c-8.793-11.412-13.971-27.855-12.899-42.35l7.112-77.465c1.01-10.497,8.505-19.402,18.651-22.18
	c33.253-10.807,30.165-9.89,37.114-11.767c8.804-2.371,13.527-3.911,16.403-9.111c-19.582-15.836-16.375-34.534-16.375-74.521
	c0-11.337,4.586-21.624,12.008-29.252v-7.234c0-16.046,13.051-29.097,29.097-29.097h3.695c16.045,0,29.097,13.051,29.097,29.097
	v6.278c16.11,15.573,12.932,29.688,12.932,69.729c0,14.61-6.736,27.539-17.035,35.527c3.598,9.18,5.69,7.199,54.771,23.136
	c9.897,2.706,17.395,11.611,18.398,22.086l8.252,86.187c0.805,10.251-2.682,22.035-8.548,30.937h16.98
	c19.44,0,35.256,15.815,35.256,35.257v3.384c0,7.069-2.082,13.885-6.022,19.716l-9.187-6.206c5.982-8.844,6.308-25.143-3.413-34.387
	c-2.559,17.057-13.625,33.084-31.688,45.973h71.901l13.329,28.834h20.502v34.902H471.217z M243.984,60.161
	c-17.396,0-31.586,13.426-32.265,30.165c9.522-7.722,15.855-6.148,43.812-6.148c9.338,0,15.941,1.851,20.646,4.759
	C274.795,72.852,260.899,60.161,243.984,60.161z M223.771,53.995c12.105-6.264,26.658-6.686,39.456-0.458
	C261.285,31.172,225.138,31.609,223.771,53.995z M246.293,163.924c16.555,0,30.021-14.729,30.021-32.835
	c0-38.561,1.935-35.826-47.571-35.826c-9.421,0-17.089,8.472-17.089,18.882c0,12.023,0,10.59,0,16.944
	c0,18.106,13.466,32.835,30.021,32.835H246.293z M77.146,419.594h340.143l-7.313-15.812H84.456L77.146,419.594z M54.316,456.434
	h385.494v-23.818H54.316V456.434z"/>
</svg>
