<?xml version="1.0" encoding="utf-8"?>
<!-- Generator: Adobe Illustrator 13.0.0, SVG Export Plug-In . SVG Version: 6.00 Build 14948)  -->
<!DOCTYPE svg PUBLIC "-//W3C//DTD SVG 1.1//EN" "http://www.w3.org/Graphics/SVG/1.1/DTD/svg11.dtd">
<svg version="1.1" id="icons_1_" xmlns="http://www.w3.org/2000/svg" xmlns:xlink="http://www.w3.org/1999/xlink" x="0px" y="0px"
	 width="38px" height="38px" viewBox="81 0 38 38" enable-background="new 81 0 38 38" xml:space="preserve">
<g id="row2_1_" display="none">
	<g id="_x36__3_" display="inline">
		<g id="transparent">
			<g>
				<path fill="#0A0A0A" d="M100,0.089C89.521,0.089,81,8.55,81,19s8.521,18.911,19,18.911c10.479,0,19-8.461,19-18.911
					S110.479,0.089,100,0.089z M100,36.011c-9.44,0-17.1-7.6-17.1-17.011S90.56,1.989,100,1.989c3.592,0,6.947,1.098,9.708,2.998
					c4.067,2.791,6.856,7.273,7.333,12.41c0,0.148,0.029,2.91,0,3.176C116.238,29.242,108.906,36.011,100,36.011z M99.05,9.56
					c-4.305,0-5.67,3.948-5.7,7.57h2.85c-0.06-2.613,0.208-4.721,2.85-4.721c1.9,0,2.851,0.802,2.851,2.85
					c0,1.306-1.01,1.959-1.899,2.85c-1.841,1.782-1.692,3.088-1.781,5.552h2.494c0.089-2.228,0.06-2.167,1.899-4.127
					c1.246-1.217,2.107-2.434,2.107-4.305C104.75,12.231,103.146,9.56,99.05,9.56z M100.03,25.62c-1.069,0-1.9,0.86-1.9,1.899
					s0.861,1.899,1.9,1.899c1.07,0,1.9-0.86,1.9-1.899C101.93,26.451,101.068,25.62,100.03,25.62z"/>
			</g>
		</g>
	</g>
	<g id="_x35__3_" display="inline">
		<g id="down_1_">
			<g>
				<path fill="#0A0A0A" d="M100,0.089C89.521,0.089,81,8.55,81,19s8.521,18.911,19,18.911c10.479,0,19-8.461,19-18.911
					S110.479,0.089,100,0.089z M100,36.011c-9.44,0-17.1-7.6-17.1-17.011S90.56,1.989,100,1.989c9.439,0,17.1,7.63,17.1,17.011
					C117.1,28.411,109.439,36.011,100,36.011z M106.441,17.249L101.9,20.87v-8.49c0-0.653-0.685-0.95-1.308-0.95h-1.188
					c-0.653,0-1.158,0.534-1.158,1.158v8.432l-4.691-3.771c-0.653,0-1.158,0.534-1.158,1.158v2.106l7.6,7.928l7.6-7.928v-2.106
					C107.6,17.753,107.064,17.249,106.441,17.249z"/>
			</g>
		</g>
	</g>
	<g id="_x34__3_" display="inline">
		<g id="up">
			<g>
				<path fill="#0A0A0A" d="M100,0.089C89.521,0.089,81,8.55,81,19s8.521,18.911,19,18.911c10.479,0,19-8.461,19-18.911
					S110.479,0.089,100,0.089z M100,36.011c-9.44,0-17.1-7.6-17.1-17.011S90.56,1.989,100,1.989c9.439,0,17.1,7.63,17.1,17.011
					C117.1,28.411,109.439,36.011,100,36.011z M92.4,17.486v2.108c0,0.653,0.535,1.158,1.158,1.158L98.1,17.13v8.521
					c0,0.652,0.683,0.949,1.306,0.949h1.188c0.653,0,1.158-0.533,1.158-1.156v-8.461l4.689,3.771c0.654,0,1.158-0.535,1.158-1.157
					v-2.109L100,9.56L92.4,17.486z"/>
			</g>
		</g>
	</g>
	<g id="_x33__3_" display="inline">
		<g id="right_1_">
			<g>
				<path fill="#0A0A0A" d="M100,0.089C89.55,0.089,81.089,8.55,81.089,19S89.55,37.911,100,37.911S118.911,29.45,118.911,19
					S110.45,0.089,100,0.089z M100,36.011c-9.411,0-17.011-7.6-17.011-17.011S90.589,1.989,100,1.989S117.012,9.619,117.012,19
					C117.012,28.411,109.411,36.011,100,36.011z M99.406,11.43c-0.653,0-1.158,0.534-1.158,1.158l3.622,4.513h-8.49
					c-0.653,0-0.95,0.653-0.95,1.306v1.188c0,0.652,0.534,1.157,1.158,1.157h8.432l-3.771,4.66c0,0.653,0.534,1.157,1.158,1.157
					h2.106l7.926-7.57l-7.926-7.57H99.406z"/>
			</g>
		</g>
	</g>
	<g id="_x32__4_" display="inline">
		<g id="left_1_">
			<g>
				<path fill="#0A0A0A" d="M100,0.089C89.521,0.089,81,8.55,81,19s8.521,18.911,19,18.911c10.479,0,19-8.461,19-18.911
					S110.479,0.089,100,0.089z M100,36.011c-9.44,0-17.1-7.6-17.1-17.011S90.56,1.989,100,1.989c9.439,0,17.1,7.63,17.1,17.011
					C117.1,28.411,109.439,36.011,100,36.011z M106.65,17.1H98.1l3.652-4.513c0-0.653-0.535-1.158-1.158-1.158h-2.108L90.5,19
					l7.956,7.57h2.138c0.653,0,1.158-0.534,1.158-1.158l-3.8-4.66h8.491c0.652,0,1.156-0.535,1.156-1.158v-1.188
					C107.6,17.783,107.303,17.1,106.65,17.1z"/>
			</g>
		</g>
	</g>
	<g id="_x31__4_" display="inline">
		<g id="left_3_">
			<g>
				<path fill="#0A0A0A" d="M100,0.089C89.521,0.089,81,8.55,81,19s8.521,18.911,19,18.911c10.479,0,19-8.461,19-18.911
					S110.479,0.089,100,0.089z M100,36.011c-9.44,0-17.1-7.6-17.1-17.011S90.56,1.989,100,1.989c9.439,0,17.1,7.63,17.1,17.011
					C117.1,28.411,109.439,36.011,100,36.011z M100.386,11.43L93.35,19l7.006,7.57h4.007L97.15,19l7.245-7.57H100.386z"/>
			</g>
		</g>
	</g>
</g>
<g id="row1_1_">
	<g id="_x36__2_" display="none">
		<g id="plus_transparent" display="inline">
			<g>
				<path fill="#0A0A0A" d="M100,0.089C89.521,0.089,81,8.55,81,19s8.521,18.911,19,18.911c10.479,0,19-8.461,19-18.911
					S110.479,0.089,100,0.089z M100,36.011c-9.44,0-17.1-7.6-17.1-17.011S90.56,1.989,100,1.989c9.439,0,17.1,7.63,17.1,17.011
					C117.1,28.411,109.439,36.011,100,36.011z M106.175,18.05H101.9v-4.245c0-0.772-0.653-1.425-1.425-1.425
					c-0.802,0-1.425,0.623-1.425,1.425v4.245h-4.275c-0.801,0-1.425,0.624-1.425,1.425c0,0.772,0.624,1.425,1.425,1.425h4.275v4.244
					c0,0.771,0.624,1.426,1.425,1.426c0.772,0,1.425-0.623,1.425-1.426V20.9h4.273c0.771,0,1.426-0.625,1.426-1.425
					C107.6,18.703,106.977,18.05,106.175,18.05z"/>
			</g>
		</g>
	</g>
	<g id="_x35__2_">
		<g id="error_transparent_copy">
			<g>
				<path fill="#D01818" d="M100,0.089C89.521,0.089,81,8.55,81,19s8.521,18.911,19,18.911c10.479,0,19-8.461,19-18.911
					S110.479,0.089,100,0.089z M100,36.011c-9.44,0-17.1-7.6-17.1-17.011S90.56,1.989,100,1.989c9.439,0,17.1,7.63,17.1,17.011
					C117.1,28.411,109.439,36.011,100,36.011z M106.889,13.211c-0.269-0.267-0.684-0.267-0.951,0l-8.549,8.521l-4.097-4.067
					c-0.267-0.267-0.683-0.267-0.95,0l-1.425,1.425c-0.267,0.268-0.267,0.684,0,0.95l4.542,4.542l0,0l0.979,0.979l0.237,0.238l0,0
					l0.208,0.207c0.267,0.268,0.683,0.268,0.95,0l10.479-10.42c0.269-0.267,0.269-0.683,0-0.95L106.889,13.211z"/>
			</g>
		</g>
	</g>
	<g id="_x34__2_" display="none">
		<g id="error_transparent" display="inline">
			<g>
				<path fill="#0A0A0A" d="M100,0.089C89.521,0.089,81,8.55,81,19s8.521,18.911,19,18.911c10.479,0,19-8.461,19-18.911
					S110.479,0.089,100,0.089z M100,36.011c-9.44,0-17.1-7.6-17.1-17.011S90.56,1.989,100,1.989c9.439,0,17.1,7.63,17.1,17.011
					C117.1,28.411,109.439,36.011,100,36.011z M106.502,14.28l-1.455-1.425c-0.268-0.267-0.684-0.267-0.949,0L100,16.922
					l-4.097-4.067c-0.268-0.267-0.683-0.267-0.95,0l-1.455,1.425c-0.267,0.267-0.267,0.683,0,0.95l4.097,4.067l-4.097,4.098
					c-0.267,0.268-0.267,0.683,0,0.949l1.455,1.426c0.267,0.268,0.683,0.268,0.95,0L100,21.701l4.098,4.066
					c0.268,0.269,0.682,0.269,0.949,0l1.455-1.425c0.268-0.268,0.268-0.683,0-0.95l-4.098-4.097l4.098-4.067
					C106.77,14.962,106.77,14.547,106.502,14.28z"/>
			</g>
		</g>
	</g>
	<g id="_x33__2_" display="none">
		<g id="alert_transparent" display="inline">
			<g>
				<path fill="#0A0A0A" d="M100,9.56c-1.306,0-2.375,0.979-2.375,2.167v7.362c0,1.218,1.069,2.167,2.375,2.167
					c1.307,0,2.375-0.979,2.375-2.167v-7.362C102.375,10.509,101.307,9.56,100,9.56z M100,0.089C89.521,0.089,81,8.55,81,19
					s8.521,18.911,19,18.911c10.479,0,19-8.461,19-18.911S110.479,0.089,100,0.089z M100,36.011c-9.44,0-17.1-7.6-17.1-17.011
					S90.56,1.989,100,1.989c9.439,0,17.1,7.63,17.1,17.011C117.1,28.411,109.439,36.011,100,36.011z M100,24.105
					c-1.306,0-2.375,0.979-2.375,2.168c0,1.188,1.069,2.166,2.375,2.166c1.307,0,2.375-0.979,2.375-2.166
					C102.375,25.085,101.307,24.105,100,24.105z"/>
			</g>
		</g>
	</g>
	<g id="_x32__3_" display="none">
		<g id="minus_transparent" display="inline">
			<g>
				<path fill="#0A0A0A" d="M100,0.089C89.521,0.089,81,8.55,81,19s8.521,18.911,19,18.911c10.479,0,19-8.461,19-18.911
					S110.479,0.089,100,0.089z M100,36.011c-9.44,0-17.1-7.6-17.1-17.011S90.56,1.989,100,1.989c9.439,0,17.1,7.63,17.1,17.011
					C117.1,28.411,109.439,36.011,100,36.011z M105.225,18.05H93.825c-0.802,0-1.425,0.624-1.425,1.425
					c0,0.772,0.653,1.425,1.425,1.425h11.399c0.771,0,1.426-0.625,1.426-1.425C106.65,18.703,106.025,18.05,105.225,18.05z"/>
			</g>
		</g>
	</g>
	<g id="_x31__3_" display="none">
		<g id="_x32__2_" display="inline">
			<g>
				<path fill="#0A0A0A" d="M100,0C89.521,0,81,8.521,81,19c0,10.479,8.521,19,19,19c10.479,0,19-8.521,19-19
					C119,8.521,110.479,0,100,0z M100,36.1c-9.44,0-17.1-7.658-17.1-17.1c0-9.441,7.66-17.1,17.1-17.1c9.439,0,17.1,7.66,17.1,17.1
					C117.1,28.439,109.439,36.1,100,36.1z M95.606,11.4l7.244,7.6l-7.244,7.6h4.008l7.037-7.6l-7.037-7.6H95.606z"/>
			</g>
		</g>
	</g>
</g>
</svg>
