<?xml version="1.0" encoding="utf-8"?>
<!-- Generator: Adobe Illustrator 16.0.0, SVG Export Plug-In . SVG Version: 6.00 Build 0)  -->
<!DOCTYPE svg PUBLIC "-//W3C//DTD SVG 1.1//EN" "http://www.w3.org/Graphics/SVG/1.1/DTD/svg11.dtd">
<svg version="1.1" id="Layer_1" xmlns="http://www.w3.org/2000/svg" xmlns:xlink="http://www.w3.org/1999/xlink" x="0px" y="0px"
	 width="500px" height="500px" viewBox="0 0 500 500" enable-background="new 0 0 500 500" xml:space="preserve">
<path fill="none" stroke="#D53132" stroke-width="8" stroke-miterlimit="10" d="M302.468,140.76c0,4.723-3.828,8.559-8.56,8.559
	H191.201c-4.723,0-8.559-3.836-8.559-8.559v-17.118c0-4.723,3.836-8.56,8.559-8.56h102.708c4.731,0,8.56,3.837,8.56,8.56V140.76z"/>
<line fill="none" stroke="#D53132" stroke-width="8" stroke-linecap="round" stroke-linejoin="round" stroke-miterlimit="10" x1="93.432" y1="448.885" x2="142.806" y2="407.511"/>
<line fill="none" stroke="#D53132" stroke-width="8" stroke-linecap="round" stroke-linejoin="round" stroke-miterlimit="10" x1="391.677" y1="448.885" x2="342.304" y2="407.511"/>
<path fill="none" stroke="#D53132" stroke-width="8" stroke-linecap="round" stroke-linejoin="round" stroke-miterlimit="10" d="
	M174.007,63.729h-17.042c-28.352,0-51.354,21.916-51.354,48.905v244.551c0,26.989,23.003,48.905,51.354,48.905h171.18
	c28.353,0,51.354-21.916,51.354-48.905V112.634c0-26.989-23.002-48.905-51.354-48.905h-16.532 M268.516,63.729h-50.584"/>
<circle fill="none" stroke="#D53132" stroke-width="8" stroke-linecap="round" stroke-linejoin="round" stroke-miterlimit="10" cx="289.629" cy="59.45" r="21.397"/>
<circle fill="none" stroke="#D53132" stroke-width="8" stroke-linecap="round" stroke-linejoin="round" stroke-miterlimit="10" cx="195.48" cy="59.45" r="21.397"/>
<path fill="none" stroke="#D53132" stroke-width="8" stroke-linecap="round" stroke-linejoin="round" stroke-miterlimit="10" d="
	M139.847,165.009c0-8.66,7.673-15.689,17.118-15.689h171.18c9.445,0,17.119,7.029,17.119,15.689v71.322
	c0,8.659-7.674,15.697-17.119,15.697h-171.18c-9.445,0-17.118-7.038-17.118-15.697V165.009z"/>
<path fill="none" stroke="#D53132" stroke-width="8" stroke-linecap="round" stroke-linejoin="round" stroke-miterlimit="10" d="
	M165.523,311.941c14.176,0,25.677,11.501,25.677,25.677s-11.501,25.677-25.677,25.677c-14.176,0-25.677-11.501-25.677-25.677
	S151.348,311.941,165.523,311.941z"/>
<path fill="none" stroke="#D53132" stroke-width="8" stroke-linecap="round" stroke-linejoin="round" stroke-miterlimit="10" d="
	M319.586,311.941c14.176,0,25.678,11.501,25.678,25.677s-11.502,25.677-25.678,25.677s-25.678-11.501-25.678-25.677
	S305.41,311.941,319.586,311.941z"/>
</svg>
