<?xml version="1.0" encoding="utf-8"?>
<!-- Generator: Adobe Illustrator 16.0.0, SVG Export Plug-In . SVG Version: 6.00 Build 0)  -->
<!DOCTYPE svg PUBLIC "-//W3C//DTD SVG 1.1//EN" "http://www.w3.org/Graphics/SVG/1.1/DTD/svg11.dtd">
<svg version="1.1" id="Layer_1" xmlns="http://www.w3.org/2000/svg" xmlns:xlink="http://www.w3.org/1999/xlink" x="0px" y="0px"
	 width="7000px" height="2000px" viewBox="0 0 7000 2000" enable-background="new 0 0 7000 2000" xml:space="preserve">
<g id="Layer_1_1_">
	<g>
		<g>
			<defs>
				<path id="SVGID_1_" d="M631.822,600.989c237.769-80.478,338.642-60.567,386.703-56.305
					c171.929,15.247,321.244,123.354-48.264,323.479c-148.46,80.386-338.439,188.465-338.439,188.465
					c220.793-43.086,604.72-81.92,730.585,24.521c32.95,27.884,73.888,95.76,21.512,196.122
					c-53.86,103.188-329.399,288.163-683.299,200.688c108.87,51.842,331.269,47.263,517.472-14.151
					c102.372-33.792,188.742-86.212,263.48-180.128c99.141-124.639,208.046-517.689-651.597-293.578
					c-50.118,13.061,227.379-61.125,405.632-159.158c93.604-51.475,208.095-145.366,165.771-203.051
					c-51.688-70.463-177.965-105.082-285.205-117.57c-26.491-3.094-54.239-4.561-82.589-4.561
					C886.431,505.76,722.799,545.16,631.822,600.989"/>
			</defs>
			<clipPath id="SVGID_2_">
				<use xlink:href="#SVGID_1_"  overflow="visible"/>
			</clipPath>
			
				<linearGradient id="SVGID_3_" gradientUnits="userSpaceOnUse" x1="6254.1943" y1="-118.0713" x2="6264.8447" y2="-118.0713" gradientTransform="matrix(90.1572 0 0 90.1572 -563228.875 11680.5391)">
				<stop  offset="0" style="stop-color:#FF3399"/>
				<stop  offset="0.2186" style="stop-color:#FC3399"/>
				<stop  offset="0.3629" style="stop-color:#F33399"/>
				<stop  offset="0.4859" style="stop-color:#E43398"/>
				<stop  offset="0.5968" style="stop-color:#CF3397"/>
				<stop  offset="0.6997" style="stop-color:#B43296"/>
				<stop  offset="0.7966" style="stop-color:#923295"/>
				<stop  offset="0.8889" style="stop-color:#6A3293"/>
				<stop  offset="0.9753" style="stop-color:#3C3192"/>
				<stop  offset="1" style="stop-color:#2E3191"/>
			</linearGradient>
			<rect x="631.822" y="505.76" clip-path="url(#SVGID_2_)" fill="url(#SVGID_3_)" width="1057.797" height="1059.676"/>
		</g>
	</g>
	<g>
		<g>
			<defs>
				<path id="SVGID_4_" d="M1689.619,978.552c0,234.695-97.887,442.161-247.775,568.604
					c252.41-100.197,415.137-361.555,379.236-643.397c-28.464-223.594-174.8-403.223-368.598-484.835
					C1596.398,546.109,1689.619,749.438,1689.619,978.552"/>
			</defs>
			<clipPath id="SVGID_5_">
				<use xlink:href="#SVGID_4_"  overflow="visible"/>
			</clipPath>
			
				<linearGradient id="SVGID_6_" gradientUnits="userSpaceOnUse" x1="6284.459" y1="-78.7852" x2="6295.1069" y2="-78.7852" gradientTransform="matrix(64.4416 98.7938 -98.7938 64.4416 -411513.875 -615417.5)">
				<stop  offset="0" style="stop-color:#90278E"/>
				<stop  offset="0.267" style="stop-color:#8D298F"/>
				<stop  offset="0.4439" style="stop-color:#842F92"/>
				<stop  offset="0.5947" style="stop-color:#753998"/>
				<stop  offset="0.7308" style="stop-color:#6047A0"/>
				<stop  offset="0.8571" style="stop-color:#4559AB"/>
				<stop  offset="0.9745" style="stop-color:#236FB8"/>
				<stop  offset="1" style="stop-color:#1B75BB"/>
			</linearGradient>
			<polygon clip-path="url(#SVGID_5_)" fill="url(#SVGID_6_)" points="1733.068,228.951 2106.376,1038.847 1565.755,1737.154 
				925.563,755.666 			"/>
		</g>
	</g>
	<g>
		<g>
			<defs>
				<path id="SVGID_7_" d="M1139.521,376.197c-20.823,2.662-41.274,6.328-61.296,10.963
					c276.528,16.104,513.608,239.92,551.948,540.902c38.344,301.013-135.08,577.09-398.734,662.004
					c20.535-0.545,41.264-2.104,62.095-4.745c52.032-6.629,101.69-19.665,148.31-38.166
					c149.889-126.442,247.775-333.908,247.775-568.604c0-229.115-93.22-432.442-237.136-559.629
					c-73.022-30.746-152.787-47.642-235.519-47.642C1191.403,371.281,1165.557,372.882,1139.521,376.197"/>
			</defs>
			<clipPath id="SVGID_8_">
				<use xlink:href="#SVGID_7_"  overflow="visible"/>
			</clipPath>
			
				<linearGradient id="SVGID_9_" gradientUnits="userSpaceOnUse" x1="6265.0879" y1="-116.9653" x2="6275.7319" y2="-116.9653" gradientTransform="matrix(110.544 0 0 110.544 -692054.375 13910.4844)">
				<stop  offset="0" style="stop-color:#90278E"/>
				<stop  offset="0.267" style="stop-color:#8D298F"/>
				<stop  offset="0.4439" style="stop-color:#842F92"/>
				<stop  offset="0.5947" style="stop-color:#753998"/>
				<stop  offset="0.7308" style="stop-color:#6047A0"/>
				<stop  offset="0.8571" style="stop-color:#4559AB"/>
				<stop  offset="0.9745" style="stop-color:#236FB8"/>
				<stop  offset="1" style="stop-color:#1B75BB"/>
			</linearGradient>
			<rect x="1078.226" y="371.281" clip-path="url(#SVGID_8_)" fill="url(#SVGID_9_)" width="611.394" height="1218.786"/>
		</g>
	</g>
	<g>
		<g>
			<defs>
				<path id="SVGID_10_" d="M1139.521,376.197c-20.823,2.662-41.274,6.328-61.296,10.963
					c276.528,16.104,513.608,239.92,551.948,540.902c38.344,301.013-135.08,577.09-398.734,662.004
					c20.535-0.545,41.264-2.104,62.095-4.745c52.032-6.629,101.69-19.665,148.31-38.166
					c149.889-126.442,247.775-333.908,247.775-568.604c0-229.115-93.22-432.442-237.136-559.629
					c-73.022-30.746-152.787-47.642-235.519-47.642C1191.403,371.281,1165.557,372.882,1139.521,376.197"/>
			</defs>
			<clipPath id="SVGID_11_">
				<use xlink:href="#SVGID_10_"  overflow="visible"/>
			</clipPath>
			
				<linearGradient id="SVGID_12_" gradientUnits="userSpaceOnUse" x1="525.7207" y1="874.3398" x2="2087.2227" y2="874.3398" gradientTransform="matrix(1 0 0 -1 -56 1855)">
				<stop  offset="0" style="stop-color:#FF3399"/>
				<stop  offset="0.2186" style="stop-color:#FC3399"/>
				<stop  offset="0.3629" style="stop-color:#F33399"/>
				<stop  offset="0.4859" style="stop-color:#E43398"/>
				<stop  offset="0.5968" style="stop-color:#CF3397"/>
				<stop  offset="0.6997" style="stop-color:#B43296"/>
				<stop  offset="0.7966" style="stop-color:#923295"/>
				<stop  offset="0.8889" style="stop-color:#6A3293"/>
				<stop  offset="0.9753" style="stop-color:#3C3192"/>
				<stop  offset="1" style="stop-color:#2E3191"/>
			</linearGradient>
			<polygon clip-path="url(#SVGID_11_)" fill="url(#SVGID_12_)" points="469.721,947.646 1400.479,66.02 2031.223,842.131 
				1367.351,1895.301 			"/>
		</g>
	</g>
	<g>
		<g>
			<defs>
				<path id="SVGID_13_" d="M1471.182,1329.865c-75.406,80.738-138.889,115.193-241.261,149.563
					c-186.199,62.529-414.681,69.436-523.551,16.659c4.766,5.142,9.674,10.054,14.586,15.005
					c55.766,35.635,221.352,106.969,432.538,79.567c219.772-28.5,404.43-211.207,458.771-450.944
					c16.513-72.853,16.413-128.187,15.054-138.957C1610.105,1100.284,1581.064,1212.188,1471.182,1329.865"/>
			</defs>
			<clipPath id="SVGID_14_">
				<use xlink:href="#SVGID_13_"  overflow="visible"/>
			</clipPath>
			
				<linearGradient id="SVGID_15_" gradientUnits="userSpaceOnUse" x1="6265.084" y1="-114.2607" x2="6275.7324" y2="-114.2607" gradientTransform="matrix(110.544 0 0 110.544 -692054.375 13940.2969)">
				<stop  offset="0" style="stop-color:#90278E"/>
				<stop  offset="0.267" style="stop-color:#8D298F"/>
				<stop  offset="0.4439" style="stop-color:#842F92"/>
				<stop  offset="0.5947" style="stop-color:#753998"/>
				<stop  offset="0.7308" style="stop-color:#6047A0"/>
				<stop  offset="0.8571" style="stop-color:#4559AB"/>
				<stop  offset="0.9745" style="stop-color:#236FB8"/>
				<stop  offset="1" style="stop-color:#1B75BB"/>
			</linearGradient>
			<rect x="706.37" y="1000.759" clip-path="url(#SVGID_14_)" fill="url(#SVGID_15_)" width="922.408" height="617.302"/>
		</g>
	</g>
	<g>
		<g>
			<defs>
				<path id="SVGID_16_" d="M1471.182,1329.865c-75.406,80.738-138.889,115.193-241.261,149.563
					c-186.199,62.529-414.681,69.436-523.551,16.659c4.766,5.142,9.674,10.054,14.586,15.005
					c55.766,35.635,221.352,106.969,432.538,79.567c219.772-28.5,404.43-211.207,458.771-450.944
					c16.513-72.853,16.413-128.187,15.054-138.957C1610.105,1100.284,1581.064,1212.188,1471.182,1329.865"/>
			</defs>
			<clipPath id="SVGID_17_">
				<use xlink:href="#SVGID_16_"  overflow="visible"/>
			</clipPath>
			
				<linearGradient id="SVGID_18_" gradientUnits="userSpaceOnUse" x1="618.2246" y1="609.4795" x2="1903.4678" y2="609.4795" gradientTransform="matrix(1 0 0 -1 -56 1855)">
				<stop  offset="0" style="stop-color:#90278E"/>
				<stop  offset="0.348" style="stop-color:#93268E"/>
				<stop  offset="0.5785" style="stop-color:#9C238C"/>
				<stop  offset="0.7748" style="stop-color:#AB1E8A"/>
				<stop  offset="0.9511" style="stop-color:#C01786"/>
				<stop  offset="1" style="stop-color:#C71585"/>
			</linearGradient>
			<polygon clip-path="url(#SVGID_17_)" fill="url(#SVGID_18_)" points="831.717,665.776 1847.468,995.835 1577.968,1825.265 
				562.225,1495.209 			"/>
		</g>
	</g>
	<g>
		<g>
			<defs>
				<path id="SVGID_19_" d="M588.316,611.845c6.271-5.66,13.355-11.152,20.934-16.523c7.186-12.93,14.697-25.577,22.571-37.894
					C600.612,585.473,586.94,607.115,588.316,611.845"/>
			</defs>
			<clipPath id="SVGID_20_">
				<use xlink:href="#SVGID_19_"  overflow="visible"/>
			</clipPath>
			
				<linearGradient id="SVGID_21_" gradientUnits="userSpaceOnUse" x1="6270.8057" y1="-146.1016" x2="6281.4727" y2="-146.1016" gradientTransform="matrix(90.0187 -45.9425 45.9425 90.0187 -557341.25 301921.375)">
				<stop  offset="0" style="stop-color:#90278E"/>
				<stop  offset="0.2839" style="stop-color:#8D278E"/>
				<stop  offset="0.4721" style="stop-color:#84288E"/>
				<stop  offset="0.6327" style="stop-color:#752A8F"/>
				<stop  offset="0.7776" style="stop-color:#602C8F"/>
				<stop  offset="0.9107" style="stop-color:#452F90"/>
				<stop  offset="1" style="stop-color:#2E3191"/>
			</linearGradient>
			<polygon clip-path="url(#SVGID_20_)" fill="url(#SVGID_21_)" points="564.906,568.665 622.551,539.259 653.855,600.601 
				596.211,630.015 			"/>
		</g>
	</g>
	<g>
		<g>
			<defs>
				<path id="SVGID_22_" d="M973.192,406.271C794.745,439.81,686.302,508.469,631.821,557.428
					c-7.875,12.316-15.386,24.964-22.571,37.894c100.193-71.131,309.73-115.646,495.012-102.538
					c107.724,7.604,177.787,25.039,271.026,84.293c135.891,86.382,192.056,187.44,233.655,279.442
					c-1.369-10.729-15.145-64.336-49.398-130.714c-99.654-193.176-311.249-326.535-509.459-326.543
					C1024.117,399.263,998.41,401.533,973.192,406.271"/>
			</defs>
			<clipPath id="SVGID_23_">
				<use xlink:href="#SVGID_22_"  overflow="visible"/>
			</clipPath>
			
				<linearGradient id="SVGID_24_" gradientUnits="userSpaceOnUse" x1="665.25" y1="1227.1094" x2="1664.9434" y2="1227.1094" gradientTransform="matrix(1 0 0 -1 -56 1855)">
				<stop  offset="0" style="stop-color:#90278E"/>
				<stop  offset="0.272" style="stop-color:#93278E"/>
				<stop  offset="0.4522" style="stop-color:#9C288F"/>
				<stop  offset="0.6058" style="stop-color:#AB2A91"/>
				<stop  offset="0.7444" style="stop-color:#C02C93"/>
				<stop  offset="0.8722" style="stop-color:#DB2F95"/>
				<stop  offset="0.9918" style="stop-color:#FC3399"/>
				<stop  offset="1" style="stop-color:#FF3399"/>
			</linearGradient>
			<rect x="609.25" y="399.263" clip-path="url(#SVGID_23_)" fill="url(#SVGID_24_)" width="999.693" height="457.257"/>
		</g>
	</g>
	<g>
		<path fill="#C71585" stroke="#C71585" stroke-width="4" d="M2681.85,485.124c38.018,22.106,57.031,55.041,57.031,98.809v25.531
			c0,31.392-11.165,58.248-33.488,80.572c-22.33,22.329-49.297,33.489-80.904,33.489h-291.784v-50.73h291.784
			c17.459,0,32.494-6.186,45.094-18.568c12.377-12.377,18.568-27.298,18.568-44.762v-25.531c0-17.459-6.191-32.38-18.568-44.762
			c-12.6-12.377-27.634-18.568-45.094-18.568h-291.784v-50.729h266.584c17.459,0,32.38-6.3,44.763-18.899
			c12.377-12.377,18.568-27.298,18.568-44.763c0-17.459-6.191-32.38-18.568-44.762c-12.382-12.377-27.303-18.568-44.763-18.568
			h-266.584v-50.731h266.584c31.386,0,58.243,11.165,80.572,33.489c22.323,22.33,33.489,49.187,33.489,80.572
			C2713.35,436.714,2702.848,463.022,2681.85,485.124z"/>
		<path fill="#C71585" stroke="#C71585" stroke-width="4" d="M2918.925,723.524c-35.146,0-65.102-12.378-89.855-37.137
			c-24.759-24.754-37.136-54.709-37.136-89.855V418.809c0-34.924,12.377-64.766,37.136-89.524
			c24.754-24.754,54.709-37.136,89.855-37.136h152.192c34.924,0,64.874,12.382,89.855,37.136
			c24.754,24.759,37.137,54.601,37.137,89.524v177.724c0,35.146-12.383,65.102-37.137,89.855
			c-24.981,24.759-54.932,37.137-89.855,37.137H2918.925z M2918.925,342.879c-21.003,0-39.017,7.408-54.046,22.215
			c-14.812,14.813-22.215,32.717-22.215,53.715v177.724c0,21.003,7.403,39.017,22.215,54.046
			c15.03,14.812,33.043,22.216,54.046,22.216h152.192c20.998,0,38.902-7.404,53.714-22.216
			c15.03-15.029,22.547-33.043,22.547-54.046V418.809c0-20.998-7.518-38.902-22.547-53.715
			c-14.812-14.807-32.717-22.215-53.714-22.215H2918.925z"/>
		<path fill="#C71585" stroke="#C71585" stroke-width="4" d="M3378.153,723.524c-35.146,0-65.103-12.378-89.856-37.137
			c-24.759-24.754-37.136-54.709-37.136-89.855V418.809c0-34.924,12.377-64.766,37.136-89.524
			c24.754-24.754,54.709-37.136,89.856-37.136h152.191c34.925,0,64.875,12.382,89.856,37.136
			c24.754,24.759,37.137,54.601,37.137,89.524v177.724c0,35.146-12.383,65.102-37.137,89.855
			c-24.981,24.759-54.934,37.137-89.856,37.137H3378.153z M3378.153,342.879c-21.003,0-39.018,7.408-54.046,22.215
			c-14.813,14.813-22.215,32.717-22.215,53.715v177.724c0,21.003,7.402,39.017,22.215,54.046
			c15.029,14.812,33.043,22.216,54.046,22.216h152.191c20.998,0,38.903-7.404,53.716-22.216
			c15.029-15.029,22.547-33.043,22.547-54.046V418.809c0-20.998-7.518-38.902-22.547-53.715
			c-14.813-14.807-32.718-22.215-53.716-22.215H3378.153z"/>
		<path fill="#C71585" stroke="#C71585" stroke-width="4" d="M4116.566,406.209c0,36.255-14.258,65.875-42.772,88.862
			c28.517,22.991,42.772,52.61,42.772,88.86v139.593h-50.73V583.932c0-17.459-6.189-32.38-18.566-44.762
			c-12.602-12.377-27.636-18.568-45.096-18.568h-241.053v202.924h-50.73V292.148h50.73v177.723h241.053
			c17.46,0,32.494-6.3,45.096-18.899c12.377-12.377,18.566-27.298,18.566-44.763V292.148h50.73V406.209z"/>
	</g>
	<g>
		<path fill="#C71585" stroke="#C71585" stroke-width="4" d="M4691.451,292.148c34.924,0,64.875,12.382,89.855,37.136
			c24.754,24.759,37.138,54.601,37.138,89.524v177.724c0,35.146-12.383,65.102-37.138,89.855
			c-24.98,24.759-54.933,37.137-89.855,37.137h-279.186v-50.73h279.186c20.998,0,38.902-7.404,53.715-22.216
			c15.029-15.029,22.547-33.043,22.547-54.046V418.809c0-20.998-7.518-38.902-22.547-53.715
			c-14.813-14.807-32.717-22.215-53.715-22.215h-279.186v-50.731H4691.451z"/>
		<path fill="#C71585" stroke="#C71585" stroke-width="4" d="M4998.488,723.524c-35.147,0-65.104-12.378-89.856-37.137
			c-24.76-24.754-37.138-54.709-37.138-89.855V418.809c0-34.924,12.377-64.766,37.138-89.524
			c24.754-24.754,54.709-37.136,89.856-37.136h152.19c34.924,0,64.875,12.382,89.856,37.136
			c24.754,24.759,37.137,54.601,37.137,89.524v177.724c0,35.146-12.383,65.102-37.137,89.855
			c-24.981,24.759-54.934,37.137-89.856,37.137H4998.488z M4998.488,342.879c-21.004,0-39.019,7.408-54.047,22.215
			c-14.813,14.813-22.215,32.717-22.215,53.715v177.724c0,21.003,7.402,39.017,22.215,54.046
			c15.028,14.812,33.043,22.216,54.047,22.216h152.19c20.998,0,38.903-7.404,53.715-22.216
			c15.03-15.029,22.547-33.043,22.547-54.046V418.809c0-20.998-7.517-38.902-22.547-53.715
			c-14.812-14.807-32.717-22.215-53.715-22.215H4998.488z"/>
		<path fill="#C71585" stroke="#C71585" stroke-width="4" d="M5457.717,723.524c-35.146,0-65.104-12.378-89.855-37.137
			c-24.76-24.754-37.138-54.709-37.138-89.855V292.148h50.731v304.384c0,21.003,7.402,39.017,22.215,54.046
			c15.028,14.812,33.043,22.216,54.047,22.216h152.19c20.998,0,38.903-7.404,53.715-22.216
			c15.03-15.029,22.547-33.043,22.547-54.046V292.148h50.731v304.384c0,35.146-12.383,65.102-37.138,89.855
			c-24.981,24.759-54.933,37.137-89.856,37.137H5457.717z"/>
		<path fill="#C71585" stroke="#C71585" stroke-width="4" d="M5840.684,292.148v380.646h355.446v50.73h-406.179V292.148H5840.684z"
			/>
		<path fill="#C71585" stroke="#C71585" stroke-width="4" d="M6528.365,292.148c34.924,0,64.875,12.382,89.855,37.136
			c24.754,24.759,37.138,54.601,37.138,89.524v304.716h-50.731V520.602h-304.715v202.924h-50.73V418.809
			c0-34.924,12.377-64.766,37.137-89.524c24.754-24.754,54.709-37.136,89.856-37.136H6528.365z M6604.627,469.871v-51.063
			c0-20.998-7.518-38.902-22.547-53.715c-14.813-14.807-32.717-22.215-53.715-22.215h-152.191c-21.002,0-39.018,7.408-54.047,22.215
			c-14.812,14.813-22.215,32.717-22.215,53.715v51.063H6604.627z"/>
	</g>
	<g>
		<path fill="#454545" d="M2323.217,1608.335h142.077c7.892,0,14.6,2.763,20.128,8.288c5.523,5.527,8.288,12.236,8.288,20.127
			v49.963c0,7.896-2.765,14.604-8.288,20.126c-5.528,5.528-12.236,8.289-20.128,8.289h-113.661c-1.42,0-4.498-0.315-9.235-0.948
			v64.408h-19.18V1608.335L2323.217,1608.335z M2474.529,1686.714v-49.963c0-2.523-0.911-4.695-2.725-6.512
			c-1.816-1.813-3.988-2.724-6.512-2.724h-113.661c-2.527,0-4.698,0.911-6.512,2.724c-1.816,1.816-2.723,3.988-2.723,6.512v49.963
			c0,2.528,0.907,4.658,2.723,6.393c1.813,1.74,3.985,2.605,6.512,2.605h113.661c2.524,0,4.695-0.868,6.512-2.605
			C2473.616,1691.37,2474.529,1689.24,2474.529,1686.714z"/>
		<path fill="#454545" d="M2566.638,1641.248h77.194v19.416h-77.194c-2.526,0-4.7,0.911-6.513,2.725
			c-1.816,1.816-2.723,3.988-2.723,6.511v108.688h-19.417v-108.688c0-7.892,2.802-14.64,8.407-20.245
			C2551.993,1644.054,2558.742,1641.248,2566.638,1641.248z"/>
		<path fill="#454545" d="M2716.051,1641.248h82.403c8.052,0,14.877,2.804,20.483,8.407c5.602,5.605,8.406,12.354,8.406,20.245
			v80.038c0,7.895-2.804,14.643-8.406,20.245c-5.604,5.604-12.431,8.406-20.483,8.406h-82.403c-7.896,0-14.645-2.802-20.247-8.406
			c-5.604-5.603-8.407-12.351-8.407-20.245V1669.9c0-7.892,2.802-14.64,8.407-20.245
			C2701.406,1644.054,2708.156,1641.248,2716.051,1641.248z M2798.455,1660.666h-82.403c-2.526,0-4.699,0.91-6.512,2.724
			c-1.816,1.818-2.723,3.988-2.723,6.511v80.038c0,2.527,0.906,4.698,2.723,6.512c1.813,1.817,3.985,2.723,6.512,2.723h82.403
			c2.524,0,4.695-0.905,6.512-2.723c1.813-1.813,2.723-3.984,2.723-6.512V1669.9c0-2.522-0.91-4.692-2.723-6.511
			C2803.15,1661.576,2800.978,1660.666,2798.455,1660.666z"/>
		<path fill="#454545" d="M2908.797,1615.675c-2.527,0-4.697,0.91-6.513,2.724c-1.817,1.816-2.724,3.988-2.724,6.512v16.338h59.436
			v19.416h-59.436v117.924h-19.416v-153.679c0-8.052,2.761-14.837,8.287-20.364c5.525-5.524,12.313-8.288,20.364-8.288h50.201
			v19.416h-50.199V1615.675z"/>
		<path fill="#454545" d="M3115.518,1641.248c8.05,0,14.876,2.804,20.483,8.407c5.603,5.605,8.406,12.354,8.406,20.245v49.728
			H3023.88v30.311c0,2.527,0.906,4.698,2.723,6.511c1.813,1.818,3.986,2.723,6.512,2.723h111.292v19.417h-111.292
			c-7.896,0-14.645-2.802-20.247-8.407c-5.604-5.602-8.405-12.35-8.405-20.246v-80.036c0-7.892,2.801-14.64,8.405-20.245
			c5.602-5.603,12.351-8.407,20.247-8.407L3115.518,1641.248L3115.518,1641.248z M3023.878,1700.211h100.874v-30.312
			c0-2.522-0.909-4.694-2.722-6.511c-1.818-1.813-3.99-2.725-6.513-2.725h-82.402c-2.527,0-4.7,0.911-6.513,2.725
			c-1.816,1.816-2.722,3.988-2.722,6.511v30.312H3023.878z"/>
		<path fill="#454545" d="M3335.969,1669.9v1.896h-19.655v-1.896c0-2.522-0.909-4.693-2.722-6.511
			c-1.818-1.813-3.99-2.724-6.514-2.724h-82.404c-2.525,0-4.698,0.91-6.511,2.724c-1.818,1.817-2.725,3.988-2.725,6.511v21.076
			c0,2.526,0.907,4.7,2.725,6.513c1.813,1.816,3.983,2.723,6.511,2.723h82.404c8.052,0,14.878,2.804,20.483,8.406
			c5.602,5.605,8.407,12.354,8.407,20.246v21.074c0,7.896-2.805,14.645-8.407,20.248c-5.605,5.604-12.431,8.404-20.483,8.404
			h-82.404c-7.896,0-14.643-2.8-20.245-8.404c-5.605-5.604-8.407-12.352-8.407-20.248v-1.894h19.417v1.894
			c0,2.528,0.907,4.7,2.725,6.514c1.813,1.815,3.983,2.721,6.511,2.721h82.404c2.523,0,4.696-0.905,6.514-2.721
			c1.813-1.813,2.722-3.985,2.722-6.514v-21.074c0-2.523-0.909-4.696-2.722-6.513c-1.818-1.813-3.99-2.723-6.514-2.723h-82.404
			c-7.896,0-14.643-2.801-20.245-8.406c-5.605-5.602-8.407-12.35-8.407-20.246V1669.9c0-7.892,2.802-14.64,8.407-20.245
			c5.602-5.602,12.35-8.407,20.245-8.407h82.404c8.052,0,14.878,2.804,20.483,8.407
			C3333.164,1655.261,3335.969,1662.009,3335.969,1669.9z"/>
		<path fill="#454545" d="M3526.822,1669.9v1.896h-19.654v-1.896c0-2.522-0.91-4.693-2.724-6.511
			c-1.815-1.813-3.988-2.724-6.511-2.724h-82.404c-2.528,0-4.698,0.91-6.513,2.724c-1.817,1.817-2.724,3.988-2.724,6.511v21.076
			c0,2.526,0.907,4.7,2.724,6.513c1.813,1.816,3.985,2.723,6.513,2.723h82.404c8.051,0,14.876,2.804,20.482,8.406
			c5.602,5.605,8.406,12.354,8.406,20.246v21.074c0,7.896-2.805,14.645-8.406,20.248c-5.606,5.604-12.432,8.404-20.482,8.404
			h-82.404c-7.896,0-14.646-2.8-20.248-8.404c-5.605-5.604-8.406-12.352-8.406-20.248v-1.894h19.416v1.894
			c0,2.528,0.907,4.7,2.724,6.514c1.813,1.815,3.985,2.721,6.513,2.721h82.404c2.523,0,4.695-0.905,6.511-2.721
			c1.813-1.813,2.724-3.985,2.724-6.514v-21.074c0-2.523-0.91-4.696-2.724-6.513c-1.815-1.813-3.988-2.723-6.511-2.723h-82.404
			c-7.896,0-14.646-2.801-20.248-8.406c-5.605-5.602-8.406-12.35-8.406-20.246V1669.9c0-7.892,2.801-14.64,8.406-20.245
			c5.602-5.602,12.351-8.407,20.248-8.407h82.404c8.051,0,14.876,2.804,20.482,8.407
			C3524.017,1655.261,3526.822,1662.009,3526.822,1669.9z"/>
		<path fill="#454545" d="M3578.678,1596.258h19.416v19.416h-19.416V1596.258z M3578.678,1778.589v-137.341h19.416v137.341H3578.678
			z"/>
		<path fill="#454545" d="M3684.759,1641.248h82.404c8.052,0,14.876,2.804,20.482,8.407c5.6,5.605,8.405,12.354,8.405,20.245v80.038
			c0,7.895-2.803,14.643-8.405,20.245c-5.606,5.604-12.433,8.406-20.482,8.406h-82.404c-7.896,0-14.645-2.802-20.247-8.406
			c-5.604-5.603-8.406-12.351-8.406-20.245V1669.9c0-7.892,2.803-14.64,8.406-20.245
			C3670.114,1644.054,3676.864,1641.248,3684.759,1641.248z M3767.163,1660.666h-82.404c-2.527,0-4.698,0.91-6.512,2.724
			c-1.817,1.818-2.724,3.988-2.724,6.511v80.038c0,2.527,0.906,4.698,2.724,6.512c1.813,1.817,3.984,2.723,6.512,2.723h82.404
			c2.523,0,4.695-0.905,6.512-2.723c1.813-1.813,2.724-3.984,2.724-6.512V1669.9c0-2.522-0.911-4.692-2.724-6.511
			C3771.858,1661.576,3769.687,1660.666,3767.163,1660.666z"/>
		<path fill="#454545" d="M3960.383,1641.248c7.893,0,14.641,2.804,20.245,8.407c5.603,5.605,8.407,12.354,8.407,20.245v108.688
			h-19.417V1669.9c0-2.522-0.909-4.693-2.723-6.511c-1.817-1.813-3.99-2.724-6.513-2.724h-82.404c-2.525,0-4.734,0.91-6.63,2.724
			c-1.894,1.817-2.842,3.988-2.842,6.511v108.688h-19.417v-137.341H3960.383z"/>
		<path fill="#454545" d="M4152.896,1641.248c8.051,0,14.877,2.804,20.48,8.407c5.603,5.605,8.408,12.354,8.408,20.245v108.688
			h-111.292c-7.898,0-14.647-2.801-20.246-8.405c-5.607-5.603-8.407-12.352-8.407-20.248v-49.725h120.291v-30.312
			c0-2.522-0.91-4.694-2.724-6.511c-1.818-1.813-3.988-2.725-6.511-2.725h-111.056v-19.416H4152.896L4152.896,1641.248z
			 M4162.13,1759.172v-39.544h-100.872v30.309c0,2.529,0.905,4.699,2.721,6.513c1.813,1.816,3.986,2.723,6.515,2.723H4162.13
			L4162.13,1759.172z"/>
		<path fill="#454545" d="M4234.585,1596.258h19.417v153.678c0,2.529,0.907,4.7,2.724,6.514c1.813,1.814,3.985,2.722,6.512,2.722
			h23.204v19.417h-23.204c-7.896,0-14.644-2.803-20.245-8.407c-5.605-5.602-8.408-12.35-8.408-20.246L4234.585,1596.258
			L4234.585,1596.258z"/>
		<path fill="#454545" d="M4641.626,1641.248h21.076l-51.858,137.341h-16.812l-51.148-113.424l-48.542,113.424h-17.049
			l-53.99-137.341h20.838l41.676,102.297l44.28-102.297h25.574l47.121,102.059L4641.626,1641.248z"/>
		<path fill="#454545" d="M4820.406,1641.248c8.05,0,14.876,2.804,20.48,8.407c5.602,5.605,8.407,12.354,8.407,20.245v108.688
			h-111.292c-7.896,0-14.646-2.801-20.246-8.405c-5.607-5.603-8.407-12.352-8.407-20.248v-49.725h120.292v-30.312
			c0-2.522-0.911-4.694-2.724-6.511c-1.817-1.813-3.988-2.725-6.511-2.725H4709.35v-19.416H4820.406L4820.406,1641.248z
			 M4829.641,1759.172v-39.544h-100.874v30.309c0,2.529,0.906,4.699,2.721,6.513c1.813,1.816,3.986,2.723,6.515,2.723H4829.641
			L4829.641,1759.172z"/>
		<path fill="#454545" d="M5039.435,1804.163c0,8.052-2.764,14.876-8.289,20.482c-5.528,5.603-12.313,8.407-20.363,8.407h-85.718
			v-19.655h85.718c2.523,0,4.694-0.91,6.512-2.724c1.813-1.815,2.723-3.987,2.723-6.511v-25.573h-91.638
			c-7.896,0-14.645-2.802-20.245-8.406c-5.605-5.603-8.408-12.351-8.408-20.245v-108.215h19.417v108.215
			c0,2.527,0.907,4.698,2.724,6.511c1.813,1.818,3.983,2.723,6.512,2.723h82.404c2.523,0,4.694-0.906,6.512-2.723
			c1.813-1.813,2.723-3.983,2.723-6.511v-108.215h19.418V1804.163L5039.435,1804.163z"/>
		<path fill="#454545" d="M5264.621,1660.666h-59.435v89.272c0,2.527,0.906,4.698,2.722,6.511c1.813,1.818,3.986,2.723,6.514,2.723
			h50.199v19.417h-50.199c-8.053,0-14.842-2.802-20.364-8.407c-5.528-5.602-8.289-12.35-8.289-20.246v-153.678h19.416v44.99h59.437
			V1660.666L5264.621,1660.666z"/>
		<path fill="#454545" d="M5339.446,1641.248h82.404c8.051,0,14.875,2.804,20.481,8.407c5.603,5.605,8.408,12.354,8.408,20.245
			v80.038c0,7.895-2.805,14.643-8.408,20.245c-5.606,5.604-12.433,8.406-20.481,8.406h-82.404c-7.896,0-14.646-2.802-20.247-8.406
			c-5.604-5.603-8.406-12.351-8.406-20.245V1669.9c0-7.892,2.802-14.64,8.406-20.245
			C5324.801,1644.054,5331.551,1641.248,5339.446,1641.248z M5421.851,1660.666h-82.404c-2.527,0-4.699,0.91-6.513,2.724
			c-1.815,1.818-2.723,3.988-2.723,6.511v80.038c0,2.527,0.907,4.698,2.723,6.512c1.813,1.817,3.985,2.723,6.513,2.723h82.404
			c2.523,0,4.693-0.905,6.511-2.723c1.813-1.813,2.725-3.984,2.725-6.512V1669.9c0-2.522-0.911-4.692-2.725-6.511
			C5426.544,1661.576,5424.374,1660.666,5421.851,1660.666z"/>
		<path fill="#454545" d="M5596.124,1596.258h19.417v153.678c0,2.529,0.906,4.7,2.721,6.514c1.814,1.814,3.986,2.722,6.515,2.722
			h23.204v19.417h-23.204c-7.897,0-14.646-2.803-20.245-8.407c-5.607-5.602-8.408-12.35-8.408-20.246L5596.124,1596.258
			L5596.124,1596.258z"/>
		<path fill="#454545" d="M5806.867,1641.248c8.051,0,14.873,2.804,20.48,8.407c5.604,5.605,8.407,12.354,8.407,20.245v49.728
			h-120.527v30.311c0,2.527,0.906,4.698,2.722,6.511c1.814,1.818,3.985,2.723,6.514,2.723h111.292v19.417h-111.292
			c-7.896,0-14.645-2.802-20.247-8.407c-5.604-5.602-8.405-12.35-8.405-20.246v-80.036c0-7.892,2.801-14.64,8.405-20.245
			c5.603-5.603,12.351-8.407,20.247-8.407L5806.867,1641.248L5806.867,1641.248z M5715.228,1700.211h100.874v-30.312
			c0-2.522-0.912-4.694-2.725-6.511c-1.816-1.813-3.987-2.725-6.51-2.725h-82.404c-2.528,0-4.699,0.911-6.514,2.725
			c-1.815,1.816-2.722,3.988-2.722,6.511V1700.211z"/>
		<path fill="#454545" d="M5999.375,1641.248c8.051,0,14.877,2.804,20.481,8.407c5.603,5.605,8.407,12.354,8.407,20.245v108.688
			h-111.293c-7.896,0-14.645-2.801-20.246-8.405c-5.605-5.603-8.406-12.352-8.406-20.248v-49.725h120.292v-30.312
			c0-2.522-0.911-4.694-2.725-6.511c-1.817-1.813-3.987-2.725-6.511-2.725h-111.057v-19.416H5999.375L5999.375,1641.248z
			 M6008.61,1759.172v-39.544h-100.874v30.309c0,2.529,0.906,4.699,2.721,6.513c1.813,1.816,3.986,2.723,6.514,2.723H6008.61
			L6008.61,1759.172z"/>
		<path fill="#454545" d="M6109.718,1641.248h77.194v19.416h-77.194c-2.527,0-4.698,0.911-6.513,2.725
			c-1.816,1.816-2.722,3.988-2.722,6.511v108.688h-19.416v-108.688c0-7.892,2.801-14.64,8.407-20.245
			C6095.073,1644.054,6101.82,1641.248,6109.718,1641.248z"/>
		<path fill="#454545" d="M6342.483,1641.248c7.892,0,14.642,2.804,20.245,8.407c5.602,5.605,8.408,12.354,8.408,20.245v108.688
			h-19.417V1669.9c0-2.522-0.91-4.693-2.724-6.511c-1.815-1.813-3.988-2.724-6.512-2.724h-82.403c-2.527,0-4.737,0.91-6.632,2.724
			c-1.895,1.817-2.842,3.988-2.842,6.511v108.688h-19.416v-137.341H6342.483z"/>
	</g>
	<g>
		<g>
			<path fill="#343434" d="M2328.521,920.732h296.45c16.468,0,30.463,5.767,41.997,17.293
				c11.526,11.533,17.292,25.529,17.292,41.997v104.251c0,16.475-5.767,30.471-17.292,41.996
				c-11.533,11.534-25.529,17.293-41.997,17.293h-237.159c-2.965,0-9.389-0.655-19.27-1.977v134.391h-40.021V920.732z
				 M2644.241,1084.273V980.021c0-5.265-1.899-9.797-5.683-13.587c-3.791-3.782-8.321-5.682-13.586-5.682h-237.16
				c-5.273,0-9.805,1.899-13.587,5.682c-3.791,3.791-5.683,8.322-5.683,13.587v104.252c0,5.271,1.892,9.72,5.683,13.341
				c3.782,3.628,8.313,5.435,13.587,5.435h237.16c5.265,0,9.795-1.807,13.586-5.435
				C2642.342,1093.993,2644.241,1089.546,2644.241,1084.273z"/>
			<path fill="#343434" d="M2969.34,989.41h40.516v226.784c0,16.475-5.853,30.556-17.541,42.243
				c-11.695,11.696-25.938,17.541-42.737,17.541h-171.941c-16.475,0-30.556-5.845-42.243-17.541
				c-11.696-11.688-17.541-25.77-17.541-42.243V989.41h40.516v226.784c0,5.272,1.891,9.805,5.682,13.588
				c3.783,3.79,8.314,5.682,13.587,5.682h171.94c5.266,0,9.882-1.892,13.834-5.682c3.953-3.783,5.93-8.314,5.93-13.588V989.41
				L2969.34,989.41z"/>
			<path fill="#343434" d="M3293.948,989.41c16.467,0,30.548,5.852,42.243,17.541c11.688,11.695,17.541,25.775,17.541,42.243v167
				c0,16.475-5.853,30.556-17.541,42.243c-11.695,11.696-25.776,17.541-42.243,17.541H3061.73V895.534h40.515v93.875
				L3293.948,989.41L3293.948,989.41z M3313.217,1216.193v-167c0-5.266-1.898-9.797-5.682-13.588
				c-3.791-3.782-8.322-5.682-13.587-5.682h-171.94c-5.272,0-9.882,1.898-13.834,5.682c-3.952,3.791-5.929,8.322-5.929,13.588v167
				c0,5.272,1.977,9.805,5.929,13.588c3.953,3.79,8.563,5.682,13.834,5.682h171.94c5.265,0,9.797-1.892,13.587-5.682
				C3311.318,1225.998,3313.217,1221.467,3313.217,1216.193z"/>
			<path fill="#343434" d="M3390.291,895.534h40.515v320.659c0,5.272,1.893,9.805,5.683,13.588c3.782,3.79,8.313,5.682,13.586,5.682
				h48.42v40.516h-48.42c-16.475,0-30.556-5.845-42.243-17.541c-11.696-11.688-17.54-25.77-17.54-42.243V895.534L3390.291,895.534z"
				/>
			<path fill="#343434" d="M3539.497,895.534h40.515v40.515h-40.515V895.534z M3539.497,1275.979V989.41h40.515v286.568H3539.497z"
				/>
			<path fill="#343434" d="M3701.553,1235.463h232.219v40.516h-232.219c-16.475,0-30.557-5.845-42.244-17.541
				c-11.695-11.688-17.539-25.77-17.539-42.243v-167c0-16.468,5.844-30.548,17.539-42.243
				c11.688-11.688,25.771-17.541,42.244-17.541h231.23v40.515h-231.23c-5.272,0-9.805,1.898-13.588,5.683
				c-3.79,3.791-5.682,8.321-5.682,13.587v167c0,5.272,1.893,9.805,5.682,13.588
				C3691.748,1233.571,3696.279,1235.463,3701.553,1235.463z"/>
			<path fill="#343434" d="M4217.37,989.41c16.799,0,31.042,5.852,42.737,17.541c11.688,11.695,17.541,25.775,17.541,42.243v226.784
				H4045.43c-16.475,0-30.557-5.845-42.244-17.541c-11.695-11.688-17.539-25.77-17.539-42.243v-103.757h250.994v-63.243
				c0-5.266-1.899-9.796-5.684-13.587c-3.79-3.783-8.322-5.683-13.587-5.683h-231.726V989.41H4217.37z M4236.641,1235.463v-82.512
				h-210.48v63.242c0,5.272,1.892,9.805,5.682,13.588c3.783,3.79,8.314,5.682,13.588,5.682H4236.641z"/>
			<path fill="#343434" d="M4493.555,1029.925H4369.54v186.27c0,5.272,1.892,9.805,5.683,13.588
				c3.783,3.79,8.313,5.682,13.588,5.682h104.744v40.516h-104.744c-16.799,0-30.967-5.845-42.492-17.54
				c-11.533-11.688-17.293-25.771-17.293-42.244V895.534h40.516v93.875h124.016v40.516H4493.555z"/>
			<path fill="#343434" d="M4531.1,895.534h40.516v40.515H4531.1V895.534z M4531.1,1275.979V989.41h40.516v286.568H4531.1z"/>
			<path fill="#343434" d="M4693.154,989.41h171.94c16.799,0,31.042,5.852,42.737,17.541c11.688,11.695,17.541,25.775,17.541,42.243
				v167c0,16.475-5.854,30.556-17.541,42.243c-11.695,11.696-25.938,17.541-42.737,17.541h-171.94
				c-16.475,0-30.557-5.845-42.244-17.541c-11.695-11.688-17.539-25.77-17.539-42.243v-167c0-16.468,5.844-30.548,17.539-42.243
				C4662.6,995.262,4676.682,989.41,4693.154,989.41z M4865.096,1029.925h-171.939c-5.273,0-9.805,1.898-13.588,5.683
				c-3.79,3.791-5.682,8.321-5.682,13.587v167c0,5.272,1.892,9.805,5.682,13.588c3.783,3.79,8.314,5.682,13.588,5.682h171.939
				c5.266,0,9.797-1.892,13.588-5.682c3.783-3.783,5.683-8.314,5.683-13.588v-167c0-5.266-1.899-9.796-5.683-13.587
				C4874.893,1031.823,4870.359,1029.925,4865.096,1029.925z"/>
			<path fill="#343434" d="M5208.971,989.41c16.467,0,30.549,5.852,42.244,17.541c11.688,11.695,17.539,25.775,17.539,42.243
				v226.784h-40.515v-226.784c0-5.266-1.897-9.796-5.683-13.587c-3.789-3.783-8.321-5.683-13.586-5.683h-171.941
				c-5.271,0-9.881,1.898-13.834,5.683c-3.952,3.791-5.93,8.321-5.93,13.587v226.784h-40.515V989.41H5208.971z"/>
			<path fill="#343434" d="M5609.671,1049.193v3.953h-41.009v-3.953c0-5.266-1.898-9.797-5.684-13.588
				c-3.789-3.782-8.32-5.682-13.586-5.682h-171.94c-5.272,0-9.806,1.898-13.587,5.682c-3.791,3.791-5.684,8.322-5.684,13.588v43.974
				c0,5.272,1.893,9.805,5.684,13.587c3.782,3.791,8.314,5.684,13.587,5.684h171.94c16.799,0,31.041,5.852,42.737,17.539
				c11.688,11.695,17.54,25.776,17.54,42.244v43.974c0,16.475-5.852,30.556-17.54,42.244c-11.696,11.695-25.938,17.54-42.737,17.54
				h-171.94c-16.476,0-30.556-5.845-42.244-17.54c-11.696-11.688-17.54-25.771-17.54-42.244v-3.952h40.516v3.952
				c0,5.272,1.892,9.805,5.683,13.588c3.782,3.79,8.313,5.682,13.587,5.682h171.939c5.267,0,9.797-1.892,13.588-5.682
				c3.783-3.783,5.683-8.314,5.683-13.588v-43.974c0-5.266-1.899-9.797-5.683-13.588c-3.791-3.781-8.321-5.682-13.588-5.682
				h-171.939c-16.475,0-30.557-5.844-42.244-17.54c-11.695-11.688-17.54-25.771-17.54-42.244v-43.974
				c0-16.468,5.845-30.549,17.54-42.243c11.688-11.688,25.77-17.541,42.244-17.541h171.939c16.799,0,31.043,5.852,42.738,17.541
				C5603.818,1018.646,5609.671,1032.727,5609.671,1049.193z"/>
		</g>
	</g>
	<line fill="none" stroke="#C71585" stroke-width="10" x1="2338.971" y1="1441.168" x2="5684.579" y2="1445.803"/>
</g>
<g id="Layer_2">
	<g>
		<g>
			
				<linearGradient id="SVGID_25_" gradientUnits="userSpaceOnUse" x1="371.7979" y1="805.333" x2="2171.9893" y2="805.333" gradientTransform="matrix(1 0 0 -1 -56 1855)">
				<stop  offset="0" style="stop-color:#90278E"/>
				<stop  offset="0.272" style="stop-color:#93278E"/>
				<stop  offset="0.4522" style="stop-color:#9C288F"/>
				<stop  offset="0.6058" style="stop-color:#AB2A91"/>
				<stop  offset="0.7444" style="stop-color:#C02C93"/>
				<stop  offset="0.8722" style="stop-color:#DB2F95"/>
				<stop  offset="0.9918" style="stop-color:#FC3399"/>
				<stop  offset="1" style="stop-color:#FF3399"/>
			</linearGradient>
			<path fill="url(#SVGID_25_)" d="M2115.71,1863.091L2096.5,407.434l-18.896,1433.153l-38.258,8.653
				c-17.86,2.735-35.667,5.979-53.512,8.32l-26.827,2.499c-8.926,0.801-17.853,1.859-26.799,1.859
				c-17.916,0.411-35.781,1.526-53.669,0.427c-8.955-0.332-17.881-0.481-26.788-0.988l-26.782-2.451l-13.377-1.289l-13.345-1.915
				l-26.696-3.946c-17.75-3.521-35.483-6.52-53.227-10.964c-17.711-3.892-35.438-8.827-53.16-13.479l-53.429-15.4l-26.958-7.83
				c-9.018-2.61-18.011-5.253-27.199-7.673c-18.197-5.063-36.786-9.548-55.588-13.424l-14.258-2.548l-7.123-1.288l-3.583-0.595
				l-4.312-0.506l-13.681-1.447l-6.842-0.729c-2.271-0.261-4.518-0.521-7.123-0.538l-15.116-0.427
				c-5-0.079-10.153-0.467-14.986-0.057l-14.677,0.704l-7.344,0.396l-7.325,0.91l-14.681,1.803
				c-4.904,0.578-9.753,1.788-14.643,2.666c-9.317,1.582-18.541,4.129-27.768,6.629c12.241-7.372,24.687-14.001,37.217-20.297
				c7.744-3.497,15.556-7.483,23.287-10.402l11.608-4.754l12.221-4.185l6.126-2.145l1.526-0.521l1.202-0.316l2.986-0.799
				l11.897-3.181c3.935-1.233,8.013-1.661,12.026-2.477c4.03-0.728,8.041-1.565,12.079-2.184
				c16.229-2.009,32.582-3.346,49.055-3.108l12.363,0.079l12.387,0.609c8.25,0.229,16.553,1.139,24.826,1.756
				c8.286,0.72,16.607,1.788,24.901,2.643l24.964,3.203l50.197,6.938c16.776,2.294,33.662,4.303,50.601,5.845
				c8.452,0.878,17.109,1.266,25.652,1.897c4.248,0.229,8.416,0.263,12.616,0.396l6.3,0.183l3.164,0.096
				c1.376,0.056,2.254-0.057,3.396-0.071c17.351-0.356,34.619-1.813,51.625-5.103l12.759-2.382l12.641-3.093
				c8.472-1.882,16.793-4.524,25.142-7c8.369-2.381,16.579-5.585,24.873-8.337c8.211-3.134,16.438-6.187,24.573-9.571
				c16.307-6.724,32.431-14.207,48.402-22.172c16.002-8.102,31.676-16.604,47.491-26.364l5.529-3.425l-0.028-8.377l-6.217-1484.007
				l-0.04-5.885l-4.133,1.74l-32.586,13.692c-5.454,2.144-10.81,4.805-16.354,6.545l-16.543,5.62l-16.54,5.632l-8.273,2.813
				c-2.773,0.894-5.577,1.554-8.35,2.345l-33.464,9.104c-5.576,1.645-11.216,2.725-16.82,3.935l-16.855,3.611l-16.876,3.623
				c-5.632,1.127-11.28,1.898-16.932,2.875c-11.301,1.799-22.591,3.828-33.931,5.438l-34.009,4.105
				c-5.652,0.744-11.339,1.274-17.034,1.685l-17.035,1.396l-17.062,1.385l-17.063,0.803c-11.382,0.482-22.757,1.273-34.151,1.301
				c-11.387,0.103-22.777,0.558-34.18,0.384c-11.375-0.198-22.776-0.103-34.164-0.521c-11.382-0.482-22.776-0.641-34.15-1.437
				l-17.09-1.004l-17.051-1.349c-11.366-0.957-22.75-2.084-34.088-3.536c11.327,1.629,22.694,2.938,34.058,4.094l17.062,1.609
				l17.055,1.266c11.383,0.989,22.776,1.325,34.171,1.993c11.395,0.605,22.805,0.688,34.198,1.072
				c11.392,0.352,22.806,0.083,34.188,0.146c11.422,0.158,22.824-0.447,34.207-0.744l17.108-0.538l17.09-1.12l17.082-1.127
				c5.694-0.305,11.395-0.751,17.082-1.404l34.111-3.575c11.375-1.432,22.723-3.274,34.062-4.896
				c5.667-0.902,11.362-1.59,17.006-2.623l16.959-3.361l16.947-3.342c5.65-1.143,11.318-2.14,16.916-3.694l33.685-8.61
				c2.813-0.755,5.632-1.36,8.416-2.234l8.337-2.689l16.702-5.391l16.698-5.391c5.584-1.646,10.991-4.26,16.504-6.348l28.761-11.568
				l-6.17,1469.567c-13.305,7.72-27.06,14.942-40.78,21.649c-15.7,7.555-31.524,14.634-47.479,20.905
				c-7.969,3.182-16.002,6.028-24.016,8.954c-8.071,2.548-16.076,5.529-24.192,7.665c-8.101,2.278-16.181,4.715-24.332,6.393
				l-12.205,2.792l-12.241,2.081c-16.327,2.901-32.672,3.971-48.932,4.081c-0.961,0-2.188,0.087-2.903,0.032l-3.155-0.168
				l-6.305-0.261c-4.195-0.205-8.432-0.332-12.572-0.608c-8.238-0.768-16.375-1.21-24.695-2.198
				c-16.58-1.827-33.167-4.042-49.845-6.613l-50.099-7.72l-25.197-3.654c-8.461-1.005-16.864-2.215-25.363-3.068
				c-8.479-0.8-16.939-1.827-25.494-2.256l-12.791-0.799l-12.874-0.301c-17.146-0.498-34.405,0.602-51.661,2.5
				c-4.319,0.577-8.618,1.393-12.938,2.08c-4.311,0.823-8.63,1.234-12.921,2.476l-12.881,3.243l-3.224,0.8l-0.799,0.205
				l-0.399,0.095l-0.66,0.184l-1.547,0.546l-6.134,1.985l-12.261,4.042l-12.621,4.88c-8.507,3.108-16.521,7.056-24.771,10.632
				c-16.23,7.87-32.352,16.19-48.018,25.913c-15.713,9.563-31.166,19.878-46.282,31.156l-11.292,8.622l-11.141,8.994
				c-3.781,3.108-7.468,6.201-11.153,9.438l-17.62-3.757l-9.01,3.757c-3.694-3.235-7.38-6.328-11.161-9.438l-11.148-8.994
				l-11.293-8.622c-15.115-11.278-30.568-21.594-46.281-31.156c-15.666-9.723-31.786-18.043-48.03-25.913
				c-8.226-3.576-16.243-7.522-24.758-10.632l-12.625-4.88l-12.27-4.042l-6.123-1.985l-1.538-0.546l-0.669-0.184l-0.398-0.095
				l-0.812-0.205l-3.22-0.8l-12.873-3.243c-4.292-1.241-8.622-1.651-12.913-2.476c-4.308-0.688-8.626-1.503-12.938-2.08
				c-17.269-1.898-34.523-2.998-51.681-2.5l-12.842,0.301l-12.811,0.799c-8.542,0.429-17.006,1.456-25.494,2.256
				c-8.492,0.854-16.904,2.063-25.368,3.068l-25.205,3.654l-50.105,7.72c-16.65,2.571-33.25,4.786-49.825,6.613
				c-8.321,0.988-16.457,1.432-24.703,2.198c-4.133,0.276-8.381,0.403-12.558,0.608l-6.313,0.261l-3.156,0.168
				c-0.716,0.055-1.945-0.032-2.883-0.032c-16.271-0.11-32.637-1.179-48.936-4.081l-12.249-2.081l-12.206-2.792
				c-8.144-1.678-16.225-4.113-24.339-6.393c-8.108-2.136-16.121-5.116-24.201-7.665c-8.005-2.926-16.037-5.772-24.016-8.954
				c-15.946-6.271-31.771-13.352-47.464-20.905c-13.728-6.707-27.496-13.931-40.789-21.649l-6.17-1469.567l28.753,11.568
				c5.518,2.088,10.937,4.703,16.532,6.348l16.688,5.391l16.701,5.391l8.329,2.689c2.784,0.874,5.612,1.479,8.417,2.234l33.693,8.61
				c5.597,1.554,11.256,2.551,16.924,3.694l16.939,3.342l16.951,3.361c5.65,1.032,11.347,1.721,17.006,2.623
				c11.347,1.622,22.674,3.464,34.049,4.896l34.124,3.575c5.688,0.653,11.375,1.1,17.074,1.404l17.098,1.127l17.082,1.12
				l17.104,0.538c11.396,0.297,22.797,0.902,34.199,0.744c11.396-0.063,22.816,0.206,34.207-0.146
				c11.396-0.384,22.797-0.467,34.191-1.072c11.382-0.668,22.785-1.004,34.171-1.993l17.069-1.266l17.043-1.609
				c11.366-1.155,22.722-2.464,34.061-4.094c-11.339,1.452-22.702,2.579-34.076,3.536l-17.062,1.349l-17.082,1.004
				c-11.375,0.795-22.771,0.953-34.152,1.436c-11.387,0.419-22.797,0.324-34.171,0.522c-11.396,0.174-22.797-0.281-34.172-0.384
				c-11.402-0.027-22.777-0.818-34.151-1.301l-17.07-0.803l-17.062-1.385l-17.042-1.396c-5.699-0.411-11.359-0.941-17.026-1.685
				l-34.021-4.105c-11.327-1.61-22.619-3.639-33.911-5.438c-5.64-0.977-11.319-1.748-16.931-2.875l-16.876-3.623l-16.849-3.611
				c-5.632-1.21-11.26-2.29-16.82-3.935l-33.459-9.104c-2.776-0.791-5.598-1.452-8.361-2.345l-8.282-2.813l-16.552-5.632
				l-16.54-5.62c-5.541-1.74-10.9-4.402-16.338-6.545l-32.598-13.692l-4.141-1.74l-0.008,5.885l-6.237,1484.007l-0.04,8.377
				l5.549,3.425c15.816,9.761,31.482,18.264,47.48,26.364c15.982,7.965,32.095,15.447,48.413,22.172
				c8.128,3.386,16.354,6.438,24.573,9.571c8.293,2.752,16.497,5.956,24.864,8.337c8.35,2.476,16.679,5.118,25.139,7l12.651,3.093
				l12.751,2.382c17.016,3.29,34.282,4.745,51.625,5.103c1.144,0.016,2.018,0.127,3.405,0.07l3.148-0.095l6.308-0.183l12.633-0.396
				c8.516-0.633,17.186-1.021,25.646-1.897c16.931-1.542,33.827-3.551,50.601-5.846l50.189-6.938l24.972-3.203
				c8.294-0.854,16.607-1.923,24.901-2.643c8.266-0.617,16.58-1.526,24.825-1.756l12.388-0.609l12.372-0.079
				c16.465-0.237,32.811,1.101,49.046,3.108c4.03,0.617,8.041,1.456,12.071,2.184c4.014,0.814,8.088,1.242,12.034,2.477l11.89,3.181
				l2.978,0.799l1.23,0.316l1.525,0.521l6.104,2.145l12.232,4.185l11.616,4.754c7.716,2.919,15.516,6.905,23.271,10.402
				c12.529,6.296,24.983,12.925,37.225,20.297c-9.235-2.5-18.47-5.047-27.776-6.629c-4.877-0.878-9.736-2.088-14.626-2.666
				l-14.677-1.803l-7.337-0.91l-7.354-0.396l-14.677-0.704c-4.813-0.41-9.999-0.022-14.989,0.057l-15.104,0.427
				c-2.606,0.017-4.869,0.277-7.131,0.538l-6.843,0.728l-13.672,1.448l-4.331,0.506l-3.557,0.594l-7.139,1.289l-14.258,2.547
				c-18.808,3.877-37.375,8.361-55.58,13.425c-9.2,2.42-18.189,5.063-27.211,7.673l-26.953,7.83l-53.421,15.4
				c-17.715,4.651-35.457,9.587-53.181,13.479c-17.722,4.444-35.464,7.442-53.223,10.964l-26.677,3.946l-13.349,1.915l-13.376,1.289
				l-26.764,2.451c-8.935,0.506-17.861,0.656-26.808,0.988c-17.881,1.1-35.762-0.016-53.65-0.427
				c-8.974,0-17.899-1.061-26.819-1.859l-26.835-2.499c-17.845-2.342-35.649-5.585-53.516-8.32l-38.253-8.653L335.273,407.434
				l-19.179,1455.657l-0.297,21.595l15.563,4.304l54.74,15.267c18.45,3.78,36.854,8.021,55.348,11.39l27.887,4.026
				c9.299,1.298,18.581,2.864,27.927,3.347c18.672,1.376,37.353,3.426,56.082,3.243c9.362,0.126,18.72,0.428,28.081,0.349
				l28.085-1.147l14.028-0.601l13.997-1.337c9.337-0.935,18.683-1.718,27.989-2.737c18.561-2.721,37.225-4.937,55.636-8.599
				c18.541-3.115,36.806-7.262,55.161-11.138l54.444-12.86l26.958-6.439c8.942-2.144,17.929-4.326,26.761-6.161
				c17.797-4.025,35.39-7.355,52.862-10.078l13.013-1.652l6.525-0.822l3.211-0.427l0.854-0.04l1.705-0.087l13.728-0.769l6.862-0.411
				c2.29-0.143,4.615-0.275,6.581-0.143l12.332,0.372c4.151,0.166,8.135-0.023,12.446,0.554l12.73,1.289l6.359,0.649l6.313,1.074
				l12.62,2.238c4.196,0.673,8.33,1.97,12.502,2.919c8.365,1.788,16.548,4.58,24.751,7.206
				c16.287,5.751,32.296,12.664,47.674,21.207l11.358,6.755c3.659,2.421,7.416,4.771,11.003,7.277
				c3.563,2.595,7.155,5.103,10.497,7.823c1.74,1.306,3.313,2.682,4.888,4.019c0.812,0.656,1.59,1.345,2.235,1.938l1.012,0.934
				c0.392,0.332,0.344,0.332,0.438,0.403l-0.026,0.063h73.86l-0.021-0.063c0.075-0.071,0.04-0.071,0.427-0.403l1.017-0.934
				c0.652-0.594,1.424-1.281,2.243-1.938c1.573-1.337,3.147-2.713,4.888-4.019c3.342-2.722,6.933-5.229,10.489-7.823
				c3.603-2.507,7.345-4.856,11.003-7.277l11.366-6.755c15.357-8.543,31.388-15.456,47.687-21.207
				c8.183-2.626,16.374-5.418,24.739-7.206c4.172-0.949,8.285-2.246,12.494-2.919l12.62-2.238l6.32-1.074l6.36-0.649l12.723-1.289
				c4.319-0.577,8.313-0.388,12.446-0.554l12.352-0.372c1.962-0.134,4.271,0,6.582,0.143l6.838,0.411l13.732,0.769l1.712,0.087
				l0.858,0.04h0.063l3.145,0.427l6.518,0.822l13.012,1.652c17.475,2.723,35.065,6.053,52.863,10.078
				c8.851,1.835,17.813,4.019,26.769,6.161l26.957,6.439l54.438,12.86c18.343,3.876,36.616,8.021,55.161,11.138
				c18.399,3.662,37.075,5.877,55.631,8.599c9.312,1.021,18.676,1.804,28.002,2.737l14,1.337l14.037,0.601l28.061,1.147
				c9.365,0.079,18.747-0.223,28.093-0.349c18.73,0.183,37.41-1.867,56.065-3.243c9.347-0.481,18.652-2.049,27.942-3.347
				l27.867-4.026c18.506-3.368,36.917-7.608,55.339-11.39l54.761-15.267l15.571-4.304L2115.71,1863.091z"/>
		</g>
	</g>
</g>
</svg>
