<?xml version="1.0" encoding="utf-8"?>
<!-- Generator: Adobe Illustrator 16.0.0, SVG Export Plug-In . SVG Version: 6.00 Build 0)  -->
<!DOCTYPE svg PUBLIC "-//W3C//DTD SVG 1.1//EN" "http://www.w3.org/Graphics/SVG/1.1/DTD/svg11.dtd">
<svg version="1.1" id="Layer_1" xmlns="http://www.w3.org/2000/svg" xmlns:xlink="http://www.w3.org/1999/xlink" x="0px" y="0px"
	 width="200px" height="200px" viewBox="0 0 200 200" enable-background="new 0 0 200 200" xml:space="preserve">
<g>
	<circle fill="#F16465" cx="68.499" cy="107.704" r="34.396"/>
	<path fill="#66C4EF" d="M69.601,42.601v11.61v4.298c17.454,1.896,31.86,13.912,37.248,30.059l32.315,0.185V42.601H69.601z"/>
</g>
<g>
	<g>
		<path fill="#263457" d="M31.894,72.042c-1.052,0-1.903-0.852-1.903-1.903V21.013c0-1.051,0.852-1.903,1.903-1.903h102.024
			c1.052,0,1.903,0.852,1.903,1.903c0,1.052-0.852,1.903-1.903,1.903H33.796v47.223C33.796,71.19,32.945,72.042,31.894,72.042z"/>
	</g>
	<g>
		<path fill="#263457" d="M174.217,113.619h-26.226c-1.052,0-1.903-0.852-1.903-1.903c0-1.051,0.852-1.903,1.903-1.903h24.322
			V22.916h-10.89c-1.052,0-1.903-0.852-1.903-1.903c0-1.051,0.852-1.903,1.903-1.903h12.793c1.051,0,1.902,0.852,1.902,1.903v90.703
			C176.119,112.768,175.268,113.619,174.217,113.619z"/>
	</g>
	<circle fill="#263457" cx="146.072" cy="126.681" r="1.986"/>
	<circle fill="#263457" cx="149.271" cy="20.626" r="1.986"/>
	<circle fill="#263457" cx="63.556" cy="150.668" r="1.986"/>
	<g>
		<g>
			<path fill="#263457" d="M84.257,175.57c-0.86,0-1.64-0.587-1.849-1.461l-6.63-27.729c-0.244-1.021,0.386-2.048,1.408-2.292
				c1.015-0.243,2.048,0.384,2.293,1.408l6.63,27.729c0.245,1.021-0.386,2.048-1.408,2.292
				C84.553,175.554,84.404,175.57,84.257,175.57z"/>
		</g>
		<g>
			<path fill="#263457" d="M134.594,172.796c-0.15,0-0.303-0.018-0.455-0.054c-1.021-0.252-1.646-1.282-1.396-2.303l9.121-37.175
				c0.251-1.021,1.281-1.641,2.302-1.395c1.021,0.251,1.646,1.281,1.396,2.302l-9.121,37.175
				C136.227,172.215,135.449,172.796,134.594,172.796z"/>
		</g>
		<g>
			<path fill="#263457" d="M125.039,175.499c-0.15,0-0.303-0.018-0.455-0.054c-1.021-0.251-1.646-1.282-1.396-2.303l19.044-77.621
				c0.251-1.022,1.281-1.641,2.302-1.396c1.021,0.251,1.646,1.282,1.396,2.302l-19.044,77.621
				C126.672,174.918,125.895,175.499,125.039,175.499z"/>
		</g>
		<g>
			<g>
				<path fill="#263457" d="M84.124,154.266c-0.475,0-0.95-0.177-1.318-0.531l-6.271-6.026c-0.758-0.729-0.782-1.934-0.053-2.69
					c0.727-0.759,1.933-0.781,2.69-0.054l4.948,4.755l8.133-7.874l-2.542-2.563c-0.74-0.746-0.735-1.951,0.012-2.69
					c0.746-0.74,1.951-0.737,2.691,0.011l3.897,3.931c0.359,0.362,0.557,0.851,0.552,1.359c-0.005,0.51-0.214,0.995-0.579,1.348
					l-10.835,10.489C85.078,154.087,84.601,154.266,84.124,154.266z"/>
			</g>
			<g>
				<path fill="#263457" d="M104.624,154.23c-0.475,0-0.95-0.178-1.318-0.531l-10.875-10.452c-0.373-0.358-0.583-0.852-0.584-1.368
					c-0.001-0.518,0.208-1.012,0.579-1.371l10.835-10.489c0.736-0.712,1.904-0.715,2.643-0.005l10.875,10.451
					c0.373,0.358,0.584,0.852,0.585,1.368c0.001,0.518-0.208,1.012-0.579,1.371l-10.837,10.49
					C105.578,154.052,105.101,154.23,104.624,154.23z M96.49,141.87l8.129,7.813l8.1-7.842l-8.13-7.812L96.49,141.87z"/>
			</g>
			<g>
				<path fill="#263457" d="M125.125,154.194c-0.475,0-0.95-0.178-1.318-0.532l-10.874-10.451c-0.373-0.357-0.584-0.852-0.585-1.368
					s0.208-1.012,0.579-1.37l10.835-10.49c0.736-0.712,1.903-0.716,2.643-0.005l7.374,7.087c0.758,0.729,0.783,1.934,0.054,2.69
					c-0.729,0.759-1.934,0.781-2.69,0.054l-6.051-5.814l-8.099,7.841l8.129,7.812l4.864-4.709c0.757-0.731,1.962-0.712,2.691,0.043
					c0.73,0.755,0.712,1.96-0.043,2.691l-6.185,5.986C126.08,154.015,125.603,154.194,125.125,154.194z"/>
			</g>
			<g>
				<path fill="#263457" d="M104.587,133.869c-0.476,0-0.95-0.177-1.319-0.531l-3.697-3.553c-0.758-0.728-0.782-1.933-0.053-2.69
					c0.728-0.759,1.932-0.781,2.689-0.053l2.375,2.28l8.099-7.842l-6.527-6.273c-0.759-0.728-0.782-1.933-0.054-2.689
					c0.728-0.759,1.933-0.782,2.69-0.054l7.95,7.64c0.373,0.358,0.584,0.853,0.585,1.368c0.001,0.518-0.208,1.013-0.579,1.371
					l-10.836,10.49C105.541,133.69,105.064,133.869,104.587,133.869z"/>
			</g>
			<g>
				<path fill="#263457" d="M125.087,133.833c-0.475,0-0.95-0.178-1.318-0.531l-10.875-10.451c-0.373-0.358-0.584-0.852-0.584-1.368
					c-0.001-0.518,0.208-1.012,0.578-1.371l10.836-10.489c0.736-0.713,1.904-0.715,2.643-0.005l10.875,10.451
					c0.372,0.358,0.583,0.852,0.584,1.368c0.001,0.518-0.208,1.012-0.579,1.371l-10.835,10.489
					C126.042,133.653,125.564,133.833,125.087,133.833z M116.954,121.474l8.128,7.812l8.099-7.84l-8.128-7.813L116.954,121.474z"/>
			</g>
			<g>
				<path fill="#263457" d="M84.164,175.552c-0.498,0-0.994-0.194-1.367-0.579c-0.731-0.755-0.712-1.96,0.043-2.691l9.417-9.117
					l-9.451-9.084c-0.758-0.729-0.783-1.934-0.054-2.69c0.728-0.76,1.933-0.781,2.69-0.054l10.875,10.451
					c0.373,0.358,0.584,0.852,0.584,1.368c0.001,0.518-0.208,1.012-0.579,1.371l-10.835,10.489
					C85.118,175.374,84.641,175.552,84.164,175.552z"/>
			</g>
			<g>
				<path fill="#263457" d="M104.664,175.516c-0.475,0-0.95-0.177-1.318-0.53l-10.875-10.451c-0.373-0.358-0.584-0.853-0.585-1.368
					c-0.001-0.518,0.208-1.013,0.579-1.371l10.835-10.49c0.737-0.712,1.905-0.715,2.643-0.004l10.875,10.451
					c0.372,0.357,0.583,0.852,0.584,1.368s-0.208,1.012-0.579,1.37l-10.835,10.49C105.619,175.337,105.142,175.516,104.664,175.516z
					 M96.531,163.157l8.128,7.812l8.099-7.841l-8.128-7.812L96.531,163.157z"/>
			</g>
			<g>
				<path fill="#263457" d="M125.165,175.48c-0.476,0-0.95-0.176-1.318-0.531l-10.875-10.452c-0.373-0.358-0.584-0.852-0.585-1.368
					c-0.001-0.518,0.208-1.012,0.579-1.371l10.836-10.489c0.757-0.731,1.961-0.711,2.69,0.043c0.731,0.755,0.713,1.96-0.043,2.691
					l-9.419,9.117l9.453,9.086c0.758,0.728,0.782,1.933,0.053,2.689C126.163,175.285,125.664,175.48,125.165,175.48z"/>
			</g>
		</g>
		<g>
			<path fill="#263457" d="M125.051,112.892c-0.078,0-0.156-0.005-0.234-0.014c-1.043-0.128-1.785-1.076-1.658-2.12l1.985-16.219
				c0.128-1.043,1.085-1.777,2.12-1.658c1.043,0.127,1.785,1.077,1.657,2.121l-1.984,16.219
				C126.818,112.185,125.998,112.892,125.051,112.892z"/>
		</g>
		<g>
			<path fill="#F16465" d="M154.291,96.173h-46.599c-1.06,0-1.919-0.859-1.919-1.919c0-1.06,0.859-1.919,1.919-1.919h46.599
				c1.061,0,1.919,0.859,1.919,1.919C156.21,95.314,155.352,96.173,154.291,96.173z"/>
		</g>
	</g>
	<g>
		<path fill="#263457" d="M42.448,55.73c-1.051,0-1.903-0.852-1.903-1.903V30.928c0-1.051,0.852-1.903,1.903-1.903h40.298
			c1.051,0,1.903,0.852,1.903,1.903s-0.852,1.903-1.903,1.903H44.351v20.996C44.351,54.879,43.499,55.73,42.448,55.73z"/>
	</g>
	<g>
		<g>
			<path fill="#263457" d="M54.937,151.601c-0.132,0-0.266-0.013-0.401-0.042c-11.488-2.464-21.715-9.041-28.795-18.519
				c-0.629-0.843-0.457-2.035,0.385-2.664c0.844-0.631,2.036-0.454,2.664,0.386c6.53,8.74,15.957,14.804,26.545,17.075
				c1.028,0.221,1.682,1.232,1.462,2.261C56.604,150.99,55.815,151.601,54.937,151.601z"/>
		</g>
		<g>
			<path fill="#263457" d="M64.755,144.003c-22.079,0-40.042-17.963-40.042-40.042c0-22.08,17.963-40.043,40.042-40.043
				c22.08,0,40.042,17.963,40.042,40.043C104.798,126.04,86.835,144.003,64.755,144.003z M64.755,67.724
				c-19.98,0-36.236,16.256-36.236,36.237c0,19.98,16.256,36.236,36.236,36.236c19.981,0,36.237-16.256,36.237-36.236
				C100.992,83.98,84.736,67.724,64.755,67.724z"/>
		</g>
		<g>
			<path fill="#263457" d="M101.026,113.606c-0.743,0-1.449-0.438-1.755-1.166C92.213,95.637,74.204,86.41,60.458,84.947
				c-10.693-1.142-22.883,3.37-31.06,11.483c-0.748,0.74-1.952,0.736-2.692-0.01c-0.74-0.747-0.735-1.952,0.01-2.692
				c8.956-8.886,22.352-13.822,34.144-12.566c14.824,1.578,34.264,11.578,41.921,29.804c0.406,0.97-0.049,2.084-1.019,2.492
				C101.522,113.559,101.272,113.606,101.026,113.606z"/>
		</g>
		<g>
			<path fill="#263457" d="M54.982,141.843c-0.94,0-1.757-0.696-1.883-1.654c-0.614-4.636-0.925-9.41-0.925-14.191
				c0-23.834,5.542-44.297,16.473-60.823c0.58-0.876,1.761-1.117,2.638-0.537c0.876,0.58,1.117,1.761,0.537,2.638
				c-10.512,15.891-15.842,35.647-15.842,58.722c0,4.615,0.3,9.222,0.892,13.693c0.138,1.042-0.595,1.997-1.637,2.135
				C55.149,141.837,55.065,141.843,54.982,141.843z"/>
		</g>
		<g>
			<path fill="#263457" d="M77.395,77.829c-6.284,0-11.938-0.892-16.181-1.845c-0.53-0.119-12.981-2.944-13.943-5.832
				c-0.332-0.997,0.207-2.075,1.204-2.407c0.792-0.265,1.632,0.021,2.112,0.647c2.13,1.488,19.841,8.092,37.535,4.63
				c1.036-0.207,2.031,0.472,2.233,1.502c0.202,1.032-0.471,2.031-1.502,2.232C84.922,77.527,81.052,77.829,77.395,77.829z"/>
		</g>
		<g>
			<path fill="#263457" d="M84.673,137.223c-1.051,0-1.903-0.852-1.903-1.902c0-8.179-9.055-34.365-25.532-37.111
				c-4.012-0.67-7.833,0.278-11.346,2.816c-7.22,5.218-11.226,15.631-12.055,20.97c-0.161,1.039-1.133,1.746-2.173,1.588
				c-1.038-0.161-1.749-1.135-1.588-2.173c0.96-6.182,5.372-17.533,13.587-23.469c4.366-3.155,9.146-4.329,14.201-3.485
				c19.763,3.293,28.713,32.461,28.713,40.865C86.577,136.371,85.725,137.223,84.673,137.223z"/>
		</g>
	</g>
	<g>
		<path fill="#263457" d="M163.214,102.489c-1.051,0-1.902-0.852-1.902-1.903V39.755c0-1.051,0.852-1.903,1.902-1.903
			c1.052,0,1.903,0.852,1.903,1.903v60.832C165.117,101.638,164.266,102.489,163.214,102.489z"/>
	</g>
</g>
</svg>
