<?xml version="1.0" encoding="utf-8"?>
<!-- Generator: Adobe Illustrator 13.0.0, SVG Export Plug-In . SVG Version: 6.00 Build 14948)  -->
<!DOCTYPE svg PUBLIC "-//W3C//DTD SVG 1.1//EN" "http://www.w3.org/Graphics/SVG/1.1/DTD/svg11.dtd">
<svg version="1.1" id="Capa_1" xmlns="http://www.w3.org/2000/svg" xmlns:xlink="http://www.w3.org/1999/xlink" x="0px" y="0px"
	 width="80px" height="80px" viewBox="59.5 -21.5 80 80" enable-background="new 59.5 -21.5 80 80" xml:space="preserve">
<g>
	<path fill="#FCFCFC" d="M80.781,31.642c-2.049,0-3.716,1.667-3.716,3.718c0,2.048,1.667,3.716,3.716,3.716
		c2.049,0,3.717-1.668,3.717-3.716C84.498,33.309,82.83,31.642,80.781,31.642z M80.781,36.371c-0.558,0-1.013-0.455-1.013-1.012
		c0-0.56,0.455-1.014,1.013-1.014s1.013,0.454,1.013,1.014C81.794,35.916,81.339,36.371,80.781,36.371z"/>
	<path fill="#FCFCFC" d="M119.219,31.642c-2.05,0-3.716,1.667-3.716,3.718c0,2.048,1.666,3.716,3.716,3.716s3.716-1.668,3.716-3.716
		C122.935,33.309,121.269,31.642,119.219,31.642z M119.219,36.371c-0.559,0-1.012-0.455-1.012-1.012c0-0.56,0.453-1.014,1.012-1.014
		c0.56,0,1.012,0.454,1.012,1.014C120.23,35.916,119.778,36.371,119.219,36.371z"/>
	<path fill="#FCFCFC" d="M135.284,28.836V16.151V2.335c0-4.303-3.501-7.805-7.805-7.805H76.839c-6.685,0-12.123,5.439-12.123,12.124
		v22.182C63.675,29.62,63,30.863,63,32.263v0.166c0,2.36,1.921,4.28,4.281,4.28h5.504c0.646,3.832,3.984,6.759,7.996,6.759
		c4.013,0,7.351-2.927,7.997-6.759h22.444c0.646,3.832,3.984,6.759,7.997,6.759s7.351-2.927,7.997-6.759h5.503
		c2.36,0,4.281-1.92,4.281-4.28v-0.166C137,30.863,136.325,29.62,135.284,28.836z M132.58,14.799h-3.71
		c-0.19,0-0.344-0.154-0.344-0.344V4.031c0-0.189,0.153-0.344,0.344-0.344h3.71V14.799z M65.704,32.429v-0.166
		c0-0.87,0.708-1.578,1.577-1.578h6.877c-0.688,0.972-1.167,2.1-1.374,3.32h-5.503C66.412,34.005,65.704,33.298,65.704,32.429z
		 M80.781,40.766c-2.981,0-5.407-2.427-5.407-5.406c0-2.982,2.426-5.409,5.407-5.409c2.982,0,5.407,2.427,5.407,5.409
		C86.188,38.339,83.763,40.766,80.781,40.766z M111.222,34.005H88.778c-0.646-3.83-3.984-6.759-7.997-6.759
		c-1.2,0-2.338,0.265-3.364,0.734h-9.998V6.654c0-5.193,4.226-9.419,9.419-9.419h50.641c2.344,0,4.323,1.59,4.918,3.748h-3.529
		c-1.679,0-3.047,1.368-3.047,3.048v10.424c0,1.68,1.368,3.047,3.047,3.047h3.712V27.98h-9.997c-1.025-0.47-2.164-0.734-3.364-0.734
		C115.206,27.246,111.867,30.175,111.222,34.005z M119.219,40.766c-2.981,0-5.408-2.427-5.408-5.406
		c0-2.982,2.427-5.409,5.408-5.409c2.982,0,5.406,2.427,5.406,5.409C124.625,38.339,122.201,40.766,119.219,40.766z M134.296,32.429
		c0,0.869-0.708,1.576-1.577,1.576h-5.503c-0.207-1.221-0.687-2.349-1.375-3.32h6.878c0.869,0,1.577,0.708,1.577,1.578V32.429z"/>
	<path fill="#FCFCFC" d="M121.832,14.455V4.031c0-1.68-1.365-3.048-3.047-3.048H77.158c-3.597,0-6.523,2.926-6.523,6.522v6.949
		c0,1.681,1.368,3.048,3.049,3.048h45.101C120.467,17.503,121.832,16.136,121.832,14.455z M97.586,3.687h10.63v11.112h-10.63V3.687z
		 M94.882,14.799H84.254V3.687h10.628V14.799z M73.34,14.455V7.505c0-2.105,1.712-3.818,3.818-3.818h4.392v11.112h-7.866
		C73.494,14.799,73.34,14.645,73.34,14.455z M119.128,14.455c0,0.19-0.152,0.344-0.343,0.344h-7.867V3.687h7.867
		c0.19,0,0.343,0.155,0.343,0.344V14.455z"/>
	<path fill="#FCFCFC" d="M129.613,25.877c0.746,0,1.351-0.604,1.351-1.35v-1.202c0-0.748-0.604-1.354-1.351-1.354
		c-0.749,0-1.354,0.606-1.354,1.354v1.202C128.26,25.272,128.864,25.877,129.613,25.877z"/>
</g>
</svg>
