<?xml version="1.0" encoding="utf-8"?>
<!-- Generator: Adobe Illustrator 16.0.0, SVG Export Plug-In . SVG Version: 6.00 Build 0)  -->
<!DOCTYPE svg PUBLIC "-//W3C//DTD SVG 1.1//EN" "http://www.w3.org/Graphics/SVG/1.1/DTD/svg11.dtd">
<svg version="1.1" id="Layer_1" xmlns="http://www.w3.org/2000/svg" xmlns:xlink="http://www.w3.org/1999/xlink" x="0px" y="0px"
	 width="77px" height="78px" viewBox="0 0 77 78" enable-background="new 0 0 77 78" xml:space="preserve">
<g id="Layer_x0020_1">
	<path fill="#FCFCFC" d="M12.623,30.583l8.856,0.125l4.37-1.102c0.094-0.021,0.182-0.032,0.27-0.032v-0.005h8.809l2.731-3.033
		l0.339-0.375h0.5h9.001h0.29l0.271,0.157l7.617,4.396l8.699-0.047v-0.078v-1.125H65.5h7.878H74.5v1.124v18.173v1.123h-1.122H65.5
		h-1.122v-1.123v-1.034h-5.271l-5.678,2.678l1.711,1.796c0.428,0.448,0.407,1.158-0.041,1.587c-0.109,0.104-0.229,0.177-0.357,0.229
		l-18.638,7.741c-0.422,0.176-0.894,0.073-1.208-0.228L18.95,47.717l-6.321-0.113v1.158v1.123h-1.124H3.626H2.503v-1.123V30.588
		v-1.124h1.124h7.877h1.124v1.124l0,0L12.623,30.583z M71.127,43.034v2.253h-2.253v-2.253H71.127z M8.124,43.034v2.253H5.87v-2.253
		H8.124z M64.374,32.898l-8.996,0.048h-0.303l-0.26-0.15l-7.607-4.39h-8.212l-2.673,2.97l-0.004,0.007l-0.017,0.021L36.215,31.5
		l-8.02,8.906c-0.136,0.338-0.104,0.74,0.052,1.108c0.14,0.333,0.384,0.651,0.697,0.899c0.317,0.251,0.702,0.438,1.128,0.501
		c0.728,0.116,1.608-0.104,2.54-0.854l0.067-0.047l6.974-4.823l0.788-0.545l0.661,0.702l10.699,11.336l6.582-3.104l0.233-0.112
		h0.245h5.516V32.898H64.374z M72.251,31.702h-5.625v15.921h5.625V31.702z M34.221,53.93c-0.463-0.411-0.504-1.119-0.099-1.581
		c0.411-0.463,1.12-0.504,1.582-0.099l5.556,4.922l2.058-0.854l-4.777-4.235c-0.464-0.413-0.506-1.119-0.098-1.582
		c0.408-0.464,1.117-0.506,1.58-0.098l5.595,4.956l2.246-0.932l-4.573-4.052c-0.462-0.411-0.504-1.119-0.098-1.582
		c0.411-0.463,1.119-0.505,1.582-0.098l5.389,4.775l2.218-0.919l-1.1-1.152l-0.004,0.006l-0.559-0.589l-0.004-0.005l-0.017-0.016
		l-0.019-0.021L40.114,39.584l-6.129,4.24c-1.472,1.182-2.977,1.508-4.271,1.307c-0.837-0.13-1.581-0.479-2.18-0.957
		c-0.604-0.479-1.078-1.104-1.364-1.773c-0.426-1.005-0.452-2.14,0.073-3.138l0.067-0.131l0.094-0.1l6.494-7.211h-6.65l-4.359,1.098
		v-0.005c-0.089,0.022-0.188,0.037-0.285,0.031L12.62,32.82v12.534l6.769,0.12l0.067,0.006l0.036,0.004l0.063,0.012l0.032,0.005
		l0.037,0.011l0.025,0.005l0.137,0.048l0.021,0.01c0.104,0.042,0.202,0.105,0.292,0.182l15.769,13.663l3.08-1.279l-4.74-4.198
		L34.221,53.93z M10.371,31.702H4.746v15.921h5.625V31.702z"/>
</g>
</svg>
