<svg width="32" height="32" xmlns="http://www.w3.org/2000/svg">

 <g>
  <title>background</title>
  <rect fill="none" id="canvas_background" height="402" width="582" y="-1" x="-1"/>
 </g>
 <g>
  <title>Layer 1</title>
  <path id="svg_2" fill="#f16465" d="m21.257,22.388l0,0c-0.186,0 -0.356,-0.104 -0.443,-0.268c-1.313,-2.508 -3.124,-3.077 -5.638,-1.832c-0.168,0.08 -0.366,0.065 -0.516,-0.044c-0.15,-0.109 -0.228,-0.293 -0.201,-0.478c0.412,-2.797 -0.695,-4.32 -3.483,-4.795c-0.183,-0.031 -0.334,-0.161 -0.392,-0.338c-0.058,-0.177 -0.012,-0.371 0.118,-0.504c1.976,-2.023 1.976,-3.907 0,-5.929c-0.13,-0.133 -0.176,-0.327 -0.118,-0.504c0.058,-0.177 0.208,-0.308 0.392,-0.338c2.789,-0.475 3.895,-2 3.483,-4.798c-0.027,-0.184 0.05,-0.368 0.201,-0.477s0.35,-0.126 0.516,-0.043c0.85,0.421 1.633,0.635 2.328,0.635l0,0c1.358,0 2.44,-0.807 3.31,-2.466c0.174,-0.33 0.714,-0.33 0.886,0c1.314,2.507 3.126,3.076 5.641,1.831c0.167,-0.082 0.365,-0.066 0.516,0.043c0.15,0.109 0.228,0.293 0.201,0.477c-0.412,2.799 0.695,4.323 3.483,4.798c0.184,0.031 0.334,0.161 0.392,0.338c0.058,0.177 0.012,0.371 -0.118,0.504c-1.978,2.022 -1.978,3.906 0,5.929c0.13,0.133 0.176,0.327 0.118,0.504c-0.058,0.177 -0.208,0.308 -0.392,0.338c-2.788,0.475 -3.896,1.999 -3.483,4.796c0.026,0.184 -0.051,0.367 -0.201,0.477c-0.149,0.109 -0.349,0.125 -0.516,0.044c-2.517,-1.244 -4.326,-0.676 -5.641,1.832c-0.087,0.164 -0.258,0.268 -0.443,0.268zm-3.754,-3.735c1.506,0 2.766,0.756 3.754,2.249c1.395,-2.104 3.334,-2.753 5.727,-1.858c-0.107,-2.526 1.101,-4.19 3.537,-4.87c-1.572,-1.982 -1.572,-4.039 0,-6.02c-2.437,-0.679 -3.645,-2.343 -3.537,-4.87c-2.388,0.892 -4.332,0.247 -5.727,-1.858c-0.988,1.493 -2.247,2.249 -3.753,2.249l0,0c-0.617,0 -1.277,-0.131 -1.971,-0.39c0.108,2.527 -1.101,4.191 -3.537,4.871c1.571,1.981 1.571,4.038 0,6.02c2.437,0.68 3.645,2.343 3.537,4.869c0.694,-0.261 1.354,-0.392 1.97,-0.392z"/>
  <path id="svg_3" fill="#2193a8" d="m21.259,16.302c-2.832,0 -5.137,-2.304 -5.137,-5.137s2.305,-5.138 5.137,-5.138s5.137,2.305 5.137,5.138c0,2.833 -2.305,5.137 -5.137,5.137zm0,-9.275c-2.281,0 -4.137,1.856 -4.137,4.138c0,2.281 1.855,4.137 4.137,4.137s4.137,-1.856 4.137,-4.137c0,-2.282 -1.856,-4.138 -4.137,-4.138z"/>
  <path id="svg_4" fill="#2193a8" d="m21.259,13.984c-1.554,0 -2.818,-1.265 -2.818,-2.819s1.265,-2.819 2.818,-2.819c1.555,0 2.82,1.265 2.82,2.819s-1.266,2.819 -2.82,2.819zm0,-4.638c-1.003,0 -1.818,0.816 -1.818,1.819s0.815,1.819 1.818,1.819c1.004,0 1.82,-0.816 1.82,-1.819s-0.816,-1.819 -1.82,-1.819z"/>
  <path id="svg_5" fill="#2193a8" d="m8.486,32.06c-0.186,0 -0.356,-0.104 -0.443,-0.268c-0.988,-1.886 -2.337,-2.325 -4.247,-1.379c-0.167,0.08 -0.365,0.065 -0.516,-0.044s-0.228,-0.293 -0.201,-0.478c0.311,-2.105 -0.522,-3.253 -2.621,-3.61c-0.183,-0.031 -0.334,-0.162 -0.392,-0.339s-0.012,-0.37 0.118,-0.504c1.487,-1.523 1.487,-2.942 0,-4.465c-0.13,-0.134 -0.175,-0.327 -0.118,-0.504s0.208,-0.308 0.392,-0.339c2.099,-0.357 2.932,-1.505 2.621,-3.61c-0.027,-0.184 0.05,-0.368 0.201,-0.478c0.151,-0.109 0.35,-0.125 0.516,-0.044c1.91,0.945 3.258,0.507 4.247,-1.378c0.173,-0.33 0.713,-0.33 0.886,0c0.989,1.886 2.338,2.323 4.247,1.378c0.248,-0.123 0.546,-0.021 0.67,0.227c0.123,0.248 0.021,0.547 -0.227,0.67c-2.133,1.057 -3.894,0.681 -5.133,-1.08c-1.083,1.538 -2.563,2.021 -4.344,1.411c0.03,1.881 -0.884,3.141 -2.683,3.695c1.128,1.505 1.128,3.062 0,4.568c1.799,0.555 2.713,1.814 2.683,3.695c1.783,-0.609 3.263,-0.128 4.344,1.411c1.082,-1.539 2.563,-2.021 4.344,-1.411c-0.03,-1.881 0.885,-3.141 2.685,-3.695c-1.292,-1.723 -1.106,-3.513 0.558,-5.216c0.193,-0.196 0.51,-0.201 0.707,-0.008c0.197,0.192 0.201,0.51 0.008,0.707c-1.488,1.522 -1.488,2.941 0,4.465c0.13,0.133 0.175,0.327 0.118,0.504s-0.208,0.308 -0.392,0.339c-2.1,0.357 -2.934,1.505 -2.623,3.61c0.027,0.185 -0.05,0.368 -0.201,0.478c-0.149,0.11 -0.348,0.125 -0.516,0.044c-1.911,-0.945 -3.259,-0.507 -4.247,1.379c-0.084,0.165 -0.255,0.269 -0.441,0.269z"/>
  <path id="svg_6" fill="#f16465" d="m8.487,27.319c-2.268,0 -4.112,-1.845 -4.112,-4.113c0,-2.267 1.845,-4.111 4.112,-4.111s4.112,1.845 4.112,4.111c0.001,2.269 -1.844,4.113 -4.112,4.113zm0,-7.224c-1.716,0 -3.112,1.396 -3.112,3.111c0,1.717 1.396,3.113 3.112,3.113s3.112,-1.396 3.112,-3.113c0.001,-1.716 -1.395,-3.111 -3.112,-3.111z"/>
  <path id="svg_7" fill="#f16465" d="m8.487,25.513c-1.272,0 -2.307,-1.035 -2.307,-2.307s1.035,-2.307 2.307,-2.307s2.307,1.035 2.307,2.307s-1.035,2.307 -2.307,2.307zm0,-3.614c-0.721,0 -1.307,0.586 -1.307,1.307s0.586,1.307 1.307,1.307s1.307,-0.586 1.307,-1.307s-0.586,-1.307 -1.307,-1.307z"/>
 </g>
</svg>