<?xml version="1.0" encoding="utf-8"?>
<!-- Generator: Adobe Illustrator 16.0.0, SVG Export Plug-In . SVG Version: 6.00 Build 0)  -->
<!DOCTYPE svg PUBLIC "-//W3C//DTD SVG 1.1//EN" "http://www.w3.org/Graphics/SVG/1.1/DTD/svg11.dtd">
<svg version="1.1" id="Layer_1" xmlns="http://www.w3.org/2000/svg" xmlns:xlink="http://www.w3.org/1999/xlink" x="0px" y="0px"
	 width="77px" height="78px" viewBox="-4.5 -16.5 77 78" enable-background="new -4.5 -16.5 77 78" xml:space="preserve">
<g id="_x39_">
	<path fill="none" stroke="#484751" stroke-width="2.6322" stroke-linecap="square" stroke-miterlimit="10" d="M8.222,7.847
		c1.876-0.034,3.554,2.159,8.495,0.729c0,0,2.214-3.889-2.308-6.033c-4.261-2.021-8.581-0.339-9.938,1.359
		c-1.086,1.358-0.554,3.512-0.3,4.319c0.076,0.24,0.14,0.484,0.186,0.732l0.041,0.229c0.05,0.27,0.072,0.545,0.08,0.819
		c0.147,4.662,2.75,8.956,5.939,8.956c3.284,0,5.946-4.551,5.946-9.369"/>
	<path fill="none" stroke="#484751" stroke-width="2.6322" stroke-linecap="square" stroke-miterlimit="10" d="M16.477,22.956
		c1.117,0,2.168,0.283,3.087,0.784c0.444,0.241,0.858,0.533,1.232,0.869c0.11,0.099,0.217,0.202,0.321,0.309"/>
	<path fill="none" stroke="#484751" stroke-width="2.6322" stroke-linecap="square" stroke-miterlimit="10" d="M4.838,22.956
		c-3.563,0-6.457,2.888-6.457,6.45v8.847H9.854"/>
	<g>
		
			<line fill="none" stroke="#484751" stroke-width="2.6322" stroke-linecap="square" stroke-miterlimit="10" x1="13.995" y1="18.957" x2="14.671" y2="22.498"/>
		
			<line fill="none" stroke="#484751" stroke-width="2.6322" stroke-linecap="square" stroke-miterlimit="10" x1="6.649" y1="22.464" x2="7.274" y2="18.405"/>
	</g>
	<path fill="none" stroke="#484751" stroke-width="2.6322" stroke-linecap="square" stroke-miterlimit="10" d="M5.705,22.953
		L7.762,25.9c0.644,0.923,1.698,1.473,2.824,1.473l0,0c1.136,0,2.199-0.56,2.841-1.498l2.001-2.922"/>
	<g>
		<path fill="none" stroke="#484751" stroke-width="2.6322" stroke-linecap="square" stroke-miterlimit="10" d="M58.852,7.174
			c-1.631,0.293-3.65,2.959-9.034,1.402c0,0-2.215-3.889,2.307-6.033c4.262-2.021,8.582-0.339,9.938,1.359
			c1.085,1.358,0.554,3.512,0.299,4.319c-0.076,0.24-0.141,0.484-0.185,0.732l-0.042,0.229c-0.049,0.27-0.07,0.545-0.079,0.819
			c-0.146,4.662-2.75,8.956-5.939,8.956c-3.283,0-5.946-4.551-5.946-9.369"/>
		<path fill="none" stroke="#484751" stroke-width="2.6322" stroke-linecap="square" stroke-miterlimit="10" d="M61.937,22.953
			c3.564,0,6.453,2.89,6.453,6.454v8.846"/>
		<path fill="none" stroke="#484751" stroke-width="2.6322" stroke-linecap="square" stroke-miterlimit="10" d="M45.667,24.912
			c1.176-1.207,2.812-1.956,4.628-1.956"/>
		
			<line fill="none" stroke="#484751" stroke-width="2.6322" stroke-linecap="square" stroke-miterlimit="10" x1="68.39" y1="38.253" x2="56.921" y2="38.253"/>
		<g>
			
				<line fill="none" stroke="#484751" stroke-width="2.6322" stroke-linecap="square" stroke-miterlimit="10" x1="59.454" y1="18.957" x2="60.129" y2="22.498"/>
			
				<line fill="none" stroke="#484751" stroke-width="2.6322" stroke-linecap="square" stroke-miterlimit="10" x1="52.107" y1="22.464" x2="52.732" y2="18.405"/>
		</g>
		<path fill="none" stroke="#484751" stroke-width="2.6322" stroke-linecap="square" stroke-miterlimit="10" d="M51.163,22.953
			l2.058,2.947c0.644,0.923,1.698,1.473,2.823,1.473l0,0c1.136,0,2.199-0.56,2.842-1.498l2.001-2.922"/>
	</g>
	<g>
		<path fill="none" stroke="#484751" stroke-width="2.6322" stroke-linecap="square" stroke-miterlimit="10" d="M38.002,4.205
			c-2.438-0.803-4.813,4.241-13.119,1.84c0,0-2.989-5.251,3.115-8.145c5.753-2.729,11.584-0.459,13.416,1.834
			c1.576,1.972,0.629,5.185,0.333,6.045c-0.056,0.166-0.099,0.332-0.13,0.505l-0.165,0.919c-0.025,0.138-0.038,0.278-0.039,0.418
			c-0.076,6.426-3.641,12.437-8.025,12.437c-4.433,0-8.026-6.143-8.026-12.647"/>
		<path fill="none" stroke="#484751" stroke-width="2.6322" stroke-linecap="square" stroke-miterlimit="10" d="M52.095,48.776
			H14.68V35.291c0-5.434,4.404-9.839,9.837-9.839h17.741c5.433,0,9.837,4.405,9.837,9.839v13.19"/>
		
			<polyline fill="none" stroke="#484751" stroke-width="2.6322" stroke-linecap="square" stroke-linejoin="round" stroke-miterlimit="10" points="
			35.117,29.293 35.991,25.452 30.785,25.452 31.523,29.293 		"/>
		<g>
			
				<line fill="none" stroke="#484751" stroke-width="2.6322" stroke-linecap="square" stroke-miterlimit="10" x1="38.281" y1="22.091" x2="38.805" y2="24.839"/>
			
				<line fill="none" stroke="#484751" stroke-width="2.6322" stroke-linecap="square" stroke-miterlimit="10" x1="27.975" y1="24.792" x2="28.82" y2="19.313"/>
		</g>
	</g>
</g>
</svg>
