<?xml version="1.0" encoding="utf-8"?>
<!-- Generator: Adobe Illustrator 16.0.0, SVG Export Plug-In . SVG Version: 6.00 Build 0)  -->
<!DOCTYPE svg PUBLIC "-//W3C//DTD SVG 1.1//EN" "http://www.w3.org/Graphics/SVG/1.1/DTD/svg11.dtd">
<svg version="1.1" id="Layer_1" xmlns="http://www.w3.org/2000/svg" xmlns:xlink="http://www.w3.org/1999/xlink" x="0px" y="0px"
	 width="300px" height="300px" viewBox="0 0 300 300" enable-background="new 0 0 300 300" xml:space="preserve">
<path fill-rule="evenodd" clip-rule="evenodd" fill="#F4D35E" d="M149.6,236.764l88.084-0.537
	c18.742-0.11,34.127-15.551,36.188-35.382H26.574c1.791,17.829,11.079,35.919,33.854,35.919H149.6z"/>
<g>
	<g>
		<path fill="#C9942C" d="M233.734,271.35h-22.905c-10.546,0-18.807-6.738-18.807-15.34v-13.481c0-0.091,0.002-0.175,0.005-0.259
			c-54.795,0.331-29.799,0.259-83.592,0.259l0,0v13.481c0,8.602-8.264,15.34-18.818,15.34H66.725
			c-10.555,0-18.821-6.738-18.821-15.34c0-1.514-0.155-13.896,0.27-15.227c-20.159-6.192-27.648-27.736-27.648-46.605
			c0-40.999-4.196-57.217,24.012-76.16c-0.552-0.404-4.765-4.661-5.289-5.184H27.731c-3.184,0-5.765-2.582-5.765-5.765
			c0-3.184,2.581-5.765,5.765-5.765h13.901c3.065,0,3.932,1.545,10.383,7.985c0.017,0.015,0.034,0.032,0.048,0.048
			C65.895,81.763,68.811,48.74,99.786,46.615V35.337c0-9.017,8.05-16.354,17.949-16.354h64.979c9.896,0,17.949,7.337,17.949,16.354
			v11.279c13.33,0.92,25.267,9.699,30.834,22.893l16.238,38.426c0.422,1,0.909,1.964,1.454,2.885c0.653-1.322,6.26-6.682,7.411-7.83
			c2.621-2.616,6.052-1.685,16.115-1.685c7.615,0,7.627,11.529,0,11.529h-9.661c-1.222,1.221-4.838,5.097-6.25,5.758
			c15.691,9.367,23.115,24.768,23.115,40.697v37.01c0,19.829-11.843,36.803-28.306,43.088c0.584,0.906,0.929,1.981,0.929,3.142
			v13.481C252.543,264.611,244.282,271.35,233.734,271.35z M203.539,242.198c0.018,0.296,0.012,13.514,0.012,13.812
			c0,1.521,2.905,3.813,7.278,3.813h22.905c4.377,0,7.279-2.292,7.279-3.813v-13.481c0-0.236,0.014-0.468,0.042-0.695
			C238.39,242.072,239.009,241.981,203.539,242.198z M59.433,242.517c0,1.692,0,11.816,0,13.493c0,1.521,2.907,3.813,7.292,3.813
			h22.892c4.385,0,7.29-2.292,7.29-3.813v-13.481l0,0C96.006,242.528,60.333,242.534,59.433,242.517z M102.094,58.065
			c-9.606,0-18.456,6.251-22.54,15.928c-16.693,39.54-17.903,47.246-29.97,54.471c-12.055,7.255-17.53,18.605-17.53,30.825v34.889
			c0,8.638,2.049,36.822,28.422,36.822c109.459,0,69.051,0.12,177.219-0.538c16.927-0.099,30.695-15.426,30.695-34.163v-37.01
			c0-12.014-5.336-23.535-17.531-30.82c-11.774-7.062-12.945-14.159-29.982-54.475c-4.084-9.678-12.931-15.929-22.539-15.929
			H102.094z M111.315,46.536h77.819V35.337c0-2.615-2.938-4.824-6.42-4.824h-64.979c-3.481,0-6.42,2.209-6.42,4.824V46.536z
			 M213.636,216.582H86.813c-7.616,0-7.627-11.528,0-11.528h126.822c3.183,0,5.765,2.582,5.765,5.765
			C219.4,214.002,216.818,216.582,213.636,216.582z M55.168,184.097c-7.684-1.677-12.778-9.594-12.1-18.822
			c1.008-13.581,13.31-22.414,23.612-17.144l24.358,12.472c9.694,4.95,9.615,20.443,0.549,27.041
			C85.496,192.075,82.952,190.205,55.168,184.097z M58.692,158.617c-5.483,3.08-5.16,13.324-1.059,14.218
			c0,0,26.393,5.804,26.396,5.804c0.149,0.043,0.464-0.091,0.771-0.317c2.454-1.785,2.561-6.648,0.991-7.454l-24.367-12.475
			C60.511,157.92,59.582,158.119,58.692,158.617z M209.404,160.604c24.98-12.788,29.239-16.964,38.006-12.034
			c14.2,7.987,13.084,32.207-2.142,35.53l-26.373,5.797l0,0C203.502,193.289,195.191,167.892,209.404,160.604z M217.658,184.268
			h0.027H217.658z M239.016,158.395c-26.651,13.646-25.722,12.179-25.364,15.956c0.273,2.822,2.16,4.413,2.771,4.288l26.382-5.802
			c4.155-0.906,4.404-11.155-1.045-14.22C240.856,158.109,239.933,157.929,239.016,158.395z M79.796,124.352
			c-4.017,0-6.809-4.021-5.396-7.787l9.049-24.156c4.476-11.922,16.575-19.931,30.114-19.931h73.316
			c13.541,0,25.642,8.009,30.113,19.929c9.618,25.667,10.679,26.167,8.394,29.464C222.93,125.419,232.4,124.352,79.796,124.352z
			 M88.114,112.824h124.221l-6.137-16.371c-2.791-7.443-10.554-12.446-19.318-12.446h-73.316c-8.763,0-16.525,5.003-19.32,12.448
			L88.114,112.824z"/>
	</g>
	<g>
		<path fill-rule="evenodd" clip-rule="evenodd" fill="#C9942C" d="M193.458,156.061h-17.297v-17.294h17.297V156.061
			L193.458,156.061z M176.161,173.357v-17.297h-17.295v17.297C161.029,173.357,173.997,173.357,176.161,173.357z M158.866,156.061
			h-17.297v-17.294h17.297V156.061L158.866,156.061z M124.287,156.061h-17.295v-17.294h17.295V156.061L124.287,156.061z
			 M141.581,173.357v-17.297h-17.293v17.297H141.581z"/>
	</g>
</g>
</svg>
