<?xml version="1.0" encoding="utf-8"?>
<!-- Generator: Adobe Illustrator 16.0.0, SVG Export Plug-In . SVG Version: 6.00 Build 0)  -->
<!DOCTYPE svg PUBLIC "-//W3C//DTD SVG 1.1//EN" "http://www.w3.org/Graphics/SVG/1.1/DTD/svg11.dtd">
<svg version="1.1" id="Layer_1" xmlns="http://www.w3.org/2000/svg" xmlns:xlink="http://www.w3.org/1999/xlink" x="0px" y="0px"
	 width="300px" height="300px" viewBox="0 0 300 300" enable-background="new 0 0 300 300" xml:space="preserve">
<path fill-rule="evenodd" clip-rule="evenodd" fill="#F4D35E" d="M218.454,128.513c0,34.808-28.217,63.021-63.013,63.021
	c-34.818,0-63.025-28.214-63.025-63.021c0-34.809,28.207-63.013,63.025-63.013C190.237,65.5,218.454,93.704,218.454,128.513z"/>
<g>
	<path fill="#C9942C" d="M168.261,286.159h-25.649c-8.735,0-15.839-7.108-15.839-15.842V244.67
		c-0.294-0.511-51.756-90.52-51.978-91.068c-35.719-61.561,8.754-139.754,80.64-139.76l0,0c51.205,0,93.161,41.623,93.161,93.152
		c0,31.522-8.713,39.981-64.497,137.747v25.577C184.099,279.051,176.994,286.159,168.261,286.159z M138.238,248.901v21.416
		c0,2.411,1.96,4.374,4.373,4.374h25.649c2.41,0,4.372-1.963,4.372-4.374v-21.416H138.238z M135.842,237.433h39.225l29.154-51.097
		c-29.839,18.419-67.7,18.445-97.584-0.008L135.842,237.433z M161.169,26.117v161.765c19.936-5.679,35.837-40.414,35.837-80.888
		C197.006,66.524,181.104,31.797,161.169,26.117z M149.702,26.12c-19.935,5.685-35.833,40.41-35.833,80.874
		c0,40.469,15.898,75.2,35.833,80.885V26.12z M186.999,31.649c28.67,36.765,28.617,114.002,0,150.702
		C253.713,154.298,253.686,59.683,186.999,31.649z M123.874,31.649c-66.711,28.05-66.691,122.664,0.003,150.699
		C95.205,145.59,95.253,68.347,123.874,31.649z"/>
</g>
</svg>
