<?xml version="1.0" encoding="utf-8"?>
<!-- Generator: Adobe Illustrator 16.0.0, SVG Export Plug-In . SVG Version: 6.00 Build 0)  -->
<!DOCTYPE svg PUBLIC "-//W3C//DTD SVG 1.1//EN" "http://www.w3.org/Graphics/SVG/1.1/DTD/svg11.dtd">
<svg version="1.1" id="Layer_1" xmlns="http://www.w3.org/2000/svg" xmlns:xlink="http://www.w3.org/1999/xlink" x="0px" y="0px"
	 width="500px" height="500px" viewBox="0 0 500 500" enable-background="new 0 0 500 500" xml:space="preserve">
<circle fill="#66C4EF" cx="258.224" cy="191.723" r="92.583"/>
<g>
	<g>
		<g>
			<path fill="#263457" d="M459.756,443.062c-3.046,0-5.517-2.47-5.517-5.516V214.775c0-3.047,2.471-5.517,5.517-5.517
				c3.047,0,5.518,2.47,5.518,5.517v222.771C465.273,440.592,462.803,443.062,459.756,443.062z"/>
		</g>
		<g>
			<path fill="#263457" d="M459.756,266.732H359.311c-3.047,0-5.517-2.471-5.517-5.517c0-3.048,2.47-5.518,5.517-5.518h100.445
				c3.047,0,5.518,2.47,5.518,5.518C465.273,264.262,462.803,266.732,459.756,266.732z"/>
		</g>
		<g>
			<path fill="#263457" d="M144.865,266.732H41.518c-3.047,0-5.517-2.471-5.517-5.517c0-3.048,2.47-5.518,5.517-5.518h103.347
				c3.047,0,5.518,2.47,5.518,5.518C150.382,264.262,147.912,266.732,144.865,266.732z"/>
		</g>
		<g>
			<path fill="#263457" d="M444.521,310.97h-7.971c-2.936,0-5.315-2.38-5.315-5.314s2.38-5.315,5.315-5.315h7.971
				c2.936,0,5.315,2.381,5.315,5.315S447.456,310.97,444.521,310.97z M409.977,310.97h-7.973c-2.936,0-5.314-2.38-5.314-5.314
				s2.379-5.315,5.314-5.315h7.973c2.935,0,5.314,2.381,5.314,5.315S412.911,310.97,409.977,310.97z M375.431,310.97h-7.972
				c-2.935,0-5.315-2.38-5.315-5.314s2.381-5.315,5.315-5.315h7.972c2.936,0,5.314,2.381,5.314,5.315S378.366,310.97,375.431,310.97
				z M340.886,310.97h-7.972c-2.936,0-5.314-2.38-5.314-5.314s2.379-5.315,5.314-5.315h7.972c2.935,0,5.314,2.381,5.314,5.315
				S343.82,310.97,340.886,310.97z M306.341,310.97h-7.973c-2.934,0-5.314-2.38-5.314-5.314s2.381-5.315,5.314-5.315h7.973
				c2.936,0,5.314,2.381,5.314,5.315S309.276,310.97,306.341,310.97z M271.796,310.97h-7.972c-2.936,0-5.314-2.38-5.314-5.314
				s2.379-5.315,5.314-5.315h7.972c2.935,0,5.314,2.381,5.314,5.315S274.73,310.97,271.796,310.97z M237.251,310.97h-7.973
				c-2.935,0-5.314-2.38-5.314-5.314s2.379-5.315,5.314-5.315h7.973c2.935,0,5.314,2.381,5.314,5.315S240.186,310.97,237.251,310.97
				z M202.706,310.97h-7.973c-2.935,0-5.314-2.38-5.314-5.314s2.38-5.315,5.314-5.315h7.973c2.935,0,5.314,2.381,5.314,5.315
				S205.641,310.97,202.706,310.97z M168.161,310.97h-7.972c-2.935,0-5.314-2.38-5.314-5.314s2.38-5.315,5.314-5.315h7.972
				c2.935,0,5.314,2.381,5.314,5.315S171.096,310.97,168.161,310.97z M133.616,310.97h-7.972c-2.935,0-5.314-2.38-5.314-5.314
				s2.38-5.315,5.314-5.315h7.972c2.935,0,5.314,2.381,5.314,5.315S136.551,310.97,133.616,310.97z M99.07,310.97h-7.972
				c-2.935,0-5.314-2.38-5.314-5.314s2.379-5.315,5.314-5.315h7.972c2.936,0,5.315,2.381,5.315,5.315S102.006,310.97,99.07,310.97z
				 M64.525,310.97h-7.972c-2.935,0-5.315-2.38-5.315-5.314s2.38-5.315,5.315-5.315h7.972c2.936,0,5.315,2.381,5.315,5.315
				S67.461,310.97,64.525,310.97z"/>
		</g>
		<g>
			<path fill="#263457" d="M457.897,398.864H49.246c-3.046,0-5.517-2.472-5.517-5.518s2.471-5.518,5.517-5.518h408.651
				c3.048,0,5.518,2.472,5.518,5.518S460.945,398.864,457.897,398.864z"/>
		</g>
		<g>
			<path fill="#263457" d="M457.897,219.051h-84.503c-3.048,0-5.518-2.47-5.518-5.517c0-3.047,2.47-5.518,5.518-5.518h84.503
				c3.048,0,5.518,2.471,5.518,5.518C463.415,216.581,460.945,219.051,457.897,219.051z"/>
		</g>
		<g>
			<path fill="#263457" d="M41.518,445.229c-3.047,0-5.517-2.471-5.517-5.518V215.66c0-1.474,0.589-2.886,1.637-3.924l2.149-2.125
				c1.033-1.02,2.427-1.594,3.88-1.594h89.24c3.047,0,5.517,2.471,5.517,5.518c0,3.046-2.47,5.517-5.517,5.517H47.035v220.661
				C47.035,442.759,44.564,445.229,41.518,445.229z"/>
		</g>
		<g>
			<path fill="#263457" d="M459.756,354.208H49.246c-3.046,0-5.517-2.47-5.517-5.517s2.471-5.518,5.517-5.518h410.51
				c3.047,0,5.518,2.471,5.518,5.518S462.803,354.208,459.756,354.208z"/>
		</g>
		<g>
			<path fill="#263457" d="M91.506,351.385c-3.046,0-5.517-2.471-5.517-5.517V213.887c0-3.047,2.47-5.517,5.517-5.517
				c3.047,0,5.517,2.47,5.517,5.517v131.981C97.023,348.914,94.553,351.385,91.506,351.385z"/>
		</g>
		<g>
			<path fill="#263457" d="M144.829,397.355c-3.046,0-5.517-2.47-5.517-5.517V245.111c0-3.046,2.47-5.517,5.517-5.517
				c3.047,0,5.517,2.471,5.517,5.517v146.728C150.346,394.886,147.875,397.355,144.829,397.355z"/>
		</g>
		<g>
			<path fill="#263457" d="M198.148,397.355c-3.046,0-5.517-2.47-5.517-5.517v-69.887c0-3.046,2.471-5.517,5.517-5.517
				c3.047,0,5.518,2.471,5.518,5.517v69.887C203.666,394.886,201.195,397.355,198.148,397.355z"/>
		</g>
		<g>
			<path fill="#263457" d="M251.472,397.355c-3.046,0-5.517-2.47-5.517-5.517v-60.587c0-3.046,2.471-5.516,5.517-5.516
				c3.046,0,5.517,2.47,5.517,5.516v60.587C256.988,394.886,254.518,397.355,251.472,397.355z"/>
		</g>
		<g>
			<path fill="#263457" d="M304.792,397.355c-3.048,0-5.518-2.47-5.518-5.517v-69.887c0-3.046,2.47-5.517,5.518-5.517
				c3.046,0,5.518,2.471,5.518,5.517v69.887C310.31,394.886,307.838,397.355,304.792,397.355z"/>
		</g>
		<g>
			<path fill="#263457" d="M358.114,397.355c-3.047,0-5.517-2.47-5.517-5.517V244.446c0-3.046,2.47-5.517,5.517-5.517
				s5.517,2.47,5.517,5.517v147.393C363.631,394.886,361.161,397.355,358.114,397.355z"/>
		</g>
		<g>
			<path fill="#263457" d="M411.435,397.355c-3.047,0-5.518-2.47-5.518-5.517V263.491c0-3.046,2.471-5.518,5.518-5.518
				c3.046,0,5.517,2.472,5.517,5.518v128.348C416.951,394.886,414.48,397.355,411.435,397.355z"/>
		</g>
	</g>
	<circle fill="#263457" cx="126.522" cy="176.013" r="5.501"/>
	<g>
		<g>
			<path fill="#263457" d="M130.063,158.877c-0.428,0-0.861-0.052-1.295-0.161c-2.823-0.71-4.533-3.579-3.82-6.399
				c14.537-57.578,66.171-97.793,125.561-97.793c14.548,0,28.836,2.408,42.476,7.155c2.748,0.957,4.201,3.96,3.244,6.71
				c-0.959,2.746-3.956,4.207-6.712,3.244c-12.521-4.357-25.644-6.568-39.008-6.568c-54.555,0-101.985,36.94-115.341,89.832
				C134.565,157.287,132.419,158.877,130.063,158.877z"/>
		</g>
		<g>
			<path fill="#263457" d="M250.509,289.577c-58.211,0-105.569-47.357-105.569-105.569c0-58.212,47.357-105.568,105.569-105.568
				c58.212,0,105.568,47.356,105.568,105.568C356.077,242.22,308.721,289.577,250.509,289.577z M250.509,88.981
				c-52.399,0-95.027,42.628-95.027,95.027c0,52.398,42.628,95.027,95.027,95.027c52.399,0,95.028-42.628,95.028-95.027
				C345.537,131.609,302.908,88.981,250.509,88.981z"/>
		</g>
		<g>
			<path fill="#263457" d="M246.299,188.043c-1.637,0-3.249-0.758-4.279-2.188c-17.364-24.072-26.542-52.534-26.542-82.307
				c0-4.585,0.223-9.223,0.665-13.78c0.28-2.896,2.826-4.995,5.756-4.739c2.896,0.283,5.019,2.857,4.738,5.756
				c-0.41,4.22-0.617,8.515-0.617,12.763c0,27.546,8.488,53.875,24.549,76.141c1.702,2.361,1.171,5.655-1.191,7.357
				C248.446,187.719,247.366,188.043,246.299,188.043z"/>
		</g>
		<g>
			<path fill="#263457" d="M228.744,223.787c-1.56,0-3.106-0.69-4.146-2.014c-23.805-30.287-36.388-66.116-36.388-103.617
				c0-5.776,0.306-11.621,0.914-17.366c0.304-2.894,2.901-4.979,5.795-4.689c2.896,0.307,4.995,2.902,4.689,5.795
				c-0.568,5.382-0.857,10.853-0.857,16.261c0,35.113,11.805,68.693,34.135,97.103c1.798,2.289,1.401,5.603-0.888,7.401
				C231.033,223.419,229.886,223.787,228.744,223.787z"/>
		</g>
		<g>
			<path fill="#263457" d="M204.496,246.042c-1.559,0-3.106-0.69-4.146-2.014c-23.805-30.29-36.388-66.122-36.388-103.62
				c0-5.776,0.306-11.62,0.914-17.363c0.304-2.896,2.891-4.982,5.795-4.689c2.896,0.306,4.995,2.901,4.689,5.795
				c-0.568,5.379-0.856,10.85-0.856,16.257c0,35.114,11.805,68.694,34.135,97.106c1.798,2.289,1.401,5.603-0.887,7.401
				C206.785,245.674,205.638,246.042,204.496,246.042z"/>
		</g>
		<g>
			<path fill="#263457" d="M205.854,279.121c-2.016,0-3.939-1.163-4.814-3.121c-1.188-2.658,0.003-5.776,2.66-6.964
				c4.819-2.152,9.607-4.598,14.231-7.266c29.835-17.226,52.694-43.513,66.111-76.019c1.108-2.688,4.184-3.976,6.882-2.859
				c2.69,1.108,3.971,4.191,2.859,6.882c-14.309,34.672-38.715,62.724-70.582,81.126c-4.941,2.85-10.054,5.459-15.2,7.76
				C207.301,278.974,206.572,279.121,205.854,279.121z"/>
		</g>
		<g>
			<path fill="#263457" d="M236.41,288.375c-2.016,0-3.939-1.162-4.813-3.122c-1.188-2.657,0.003-5.776,2.66-6.963
				c4.837-2.161,9.625-4.605,14.229-7.266c29.835-17.223,52.697-43.51,66.113-76.019c1.111-2.688,4.185-3.973,6.883-2.86
				c2.69,1.108,3.971,4.191,2.859,6.882c-14.31,34.675-38.718,62.729-70.584,81.126c-4.918,2.839-10.03,5.45-15.197,7.759
				C237.858,288.228,237.129,288.375,236.41,288.375z"/>
		</g>
		<g>
			<path fill="#263457" d="M348.985,184.823c-1.086,0-2.181-0.334-3.122-1.027c-4.235-3.122-13.18-9.002-17.404-11.442
				c-28.521-16.468-61.667-22.073-95.841-16.213c-2.888,0.498-5.592-1.436-6.085-4.305c-0.49-2.867,1.435-5.592,4.305-6.085
				c36.632-6.28,72.214-0.239,102.893,17.475c4.954,2.862,14.252,9.039,18.386,12.084c2.343,1.729,2.841,5.027,1.115,7.371
				C352.2,184.081,350.604,184.823,348.985,184.823z"/>
		</g>
		<g>
			<path fill="#263457" d="M342.91,153.446c-1.085,0-2.18-0.334-3.122-1.027c-4.237-3.125-13.183-9.005-17.402-11.442
				c-28.52-16.468-61.655-22.078-95.842-16.211c-2.865,0.49-5.595-1.435-6.085-4.305c-0.491-2.868,1.435-5.592,4.305-6.085
				c36.631-6.274,72.212-0.238,102.896,17.473c4.948,2.859,14.244,9.033,18.384,12.084c2.343,1.729,2.841,5.027,1.115,7.371
				C346.125,152.705,344.529,153.446,342.91,153.446z"/>
		</g>
		<g>
			<path fill="#263457" d="M181.767,261.218c-2.003,0-3.916-1.149-4.801-3.09c-1.204-2.65-0.034-5.774,2.615-6.98
				c3.856-1.755,4.531-2.144,8.279-4.306c23.853-13.771,42.41-34.288,53.663-59.327c1.196-2.655,4.323-3.83,6.967-2.65
				c2.657,1.194,3.841,4.313,2.65,6.968c-12.168,27.074-32.228,49.253-58.012,64.139c-4.012,2.315-5.006,2.873-9.182,4.772
				C183.238,261.065,182.496,261.218,181.767,261.218z"/>
		</g>
		<g>
			<path fill="#263457" d="M344.839,216.142c-1.063,0-2.132-0.319-3.061-0.983c-3.429-2.45-7.042-4.777-10.743-6.913
				c-23.854-13.771-50.896-19.579-78.217-16.808c-2.88,0.29-5.481-1.817-5.776-4.713c-0.293-2.896,1.816-5.48,4.712-5.776
				c29.519-3.008,58.763,3.28,84.552,18.168c3.997,2.307,7.899,4.818,11.603,7.468c2.369,1.692,2.916,4.985,1.223,7.352
				C348.103,215.377,346.483,216.142,344.839,216.142z"/>
		</g>
	</g>
</g>
</svg>
