<svg width="169.8" height="250" xmlns="http://www.w3.org/2000/svg">

 <g>
  <title>background</title>
  <rect fill="none" id="canvas_background" height="402" width="582" y="-1" x="-1"/>
 </g>
 <g>
  <title>Layer 1</title>
  <path fill="#717171" id="svg_1" d="m111.7,27.8l39.1,0l15,-22.5l-146.9,0l-15,22.5l25.5,0c25.8,0 49.7,2 59.2,23.6l-69.7,0l-15,22.5l87.5,0c0,0.1 0,0.1 0,0.1c0,16.2 -13.5,41 -57.9,41l-21.5,0l0,21l86.1,107.6l38.3,0l-89,-111.2c36.7,-2 71.1,-22.5 76,-58.5l27.4,0l15,-22.5l-42.8,0c-1.7,-8.7 -5.4,-17.1 -11.3,-23.6z" class="st0"/>
 </g>
</svg>