<?xml version="1.0" encoding="utf-8"?>
<!-- Generator: Adobe Illustrator 13.0.0, SVG Export Plug-In . SVG Version: 6.00 Build 14948)  -->
<!DOCTYPE svg PUBLIC "-//W3C//DTD SVG 1.1//EN" "http://www.w3.org/Graphics/SVG/1.1/DTD/svg11.dtd">
<svg version="1.1" xmlns="http://www.w3.org/2000/svg" xmlns:xlink="http://www.w3.org/1999/xlink" x="0px" y="0px" width="500px"
	 height="500px" viewBox="0 0 500 500" enable-background="new 0 0 500 500" xml:space="preserve">
<g id="Layer_1">
	<path fill="none" stroke="#B5B5B5" d="M427.5,426.5c0,6.627-5.373,12-12,12h-311c-6.627,0-12-5.373-12-12v-335
		c0-6.627,5.373-12,12-12h311c6.627,0,12,5.373,12,12V426.5z"/>
	<path fill="#388697" d="M415.822,78.5c0,0,10.343,0,12.012,13.6v20.4H95.503h-3.337V90.589c0,0,1.001-10.578,9.343-12.089h3.003
		H415.822z"/>
	<circle fill="#B5B5B5" cx="121.5" cy="96.5" r="9"/>
	<circle fill="#B5B5B5" cx="152.5" cy="96.5" r="9"/>
	<circle fill="#B5B5B5" cx="181.833" cy="96.5" r="9"/>
	<path fill="#B5B5B5" d="M411.5,96.833c0,2.761-2.238,5-5,5H212.167c-2.761,0-5-2.239-5-5l0,0c0-2.761,2.239-5,5-5H406.5
		C409.262,91.833,411.5,94.072,411.5,96.833L411.5,96.833z"/>
</g>
<g id="Layer_3" display="none">
	<rect x="117.597" y="149.095" display="inline" fill="#727272" stroke="#B5B5B5" width="113.994" height="97.495"/>
	<circle display="inline" fill="none" stroke="#B5B5B5" cx="173.25" cy="196.75" r="27.25"/>
	<polygon display="inline" fill="#B5B5B5" points="168.125,182.956 188.25,197.458 167.875,211.711 	"/>
</g>
<g id="Layer_2">
</g>
</svg>
