<?xml version="1.0" encoding="utf-8"?>
<!-- Generator: Adobe Illustrator 13.0.0, SVG Export Plug-In . SVG Version: 6.00 Build 14948)  -->
<!DOCTYPE svg PUBLIC "-//W3C//DTD SVG 1.1//EN" "http://www.w3.org/Graphics/SVG/1.1/DTD/svg11.dtd">
<svg version="1.1" id="Layer_1" xmlns="http://www.w3.org/2000/svg" xmlns:xlink="http://www.w3.org/1999/xlink" x="0px" y="0px"
	 width="1600px" height="1000px" viewBox="0 0 1600 1000" enable-background="new 0 0 1600 1000" xml:space="preserve">
<g id="Layer_1_1_">
	<linearGradient id="SVGID_1_" gradientUnits="userSpaceOnUse" x1="-2081.2563" y1="-79.7393" x2="-2081.2563" y2="952.3638">
		<stop  offset="0" style="stop-color:#ED6A5A"/>
		<stop  offset="1" style="stop-color:#BF433A"/>
	</linearGradient>
	<path fill="url(#SVGID_1_)" stroke="#005F0B" d="M-2898.76-186.654c0,0,207.021,258.025,495.049-9.001
		c288.028-267.026,402.041,3,456.046,57.006c54.005,54.006,306.03,234.024,528.053-105.01s204.021-72.007,252.025-66.007
		s66.006-126.013,66.006-126.013l-30.003-468.047c0,0-297.028-81.008-378.037-90.009s-711.071-18.002-792.08-9.001
		c-81.009,9.001-552.055,48.005-597.06,54.006c-45.005,6.001-111.012,24.002-123.013,39.004
		c-12.001,15.002-36.004,219.022-39.004,249.025c-3,30.003,39.004,408.04,45.005,423.042S-2898.76-186.654-2898.76-186.654z"/>
	<linearGradient id="SVGID_2_" gradientUnits="userSpaceOnUse" x1="844.5" y1="-79.7388" x2="844.4999" y2="952.3643">
		<stop  offset="0" style="stop-color:#5ED9C3"/>
		<stop  offset="1" style="stop-color:#2F9EB8"/>
	</linearGradient>
	<path fill="url(#SVGID_2_)" d="M-17.5,547.138c0,0,354,438.188,896-0.436c542-438.623,624-153.903,702-7.695
		s142,159.033,142,159.033l18-892.637L-51.5-348.5L-17.5,547.138z"/>
</g>
<g id="Layer_4">
	
		<linearGradient id="SVGID_3_" gradientUnits="userSpaceOnUse" x1="-17.5" y1="392.5" x2="-17.5" y2="392.5" gradientTransform="matrix(1 0 0 -1 -6 903)">
		<stop  offset="0" style="stop-color:#5ED9C3"/>
		<stop  offset="1" style="stop-color:#88FFF3"/>
	</linearGradient>
	<path fill="url(#SVGID_3_)" d="M-23.5,510.5"/>
	
		<linearGradient id="SVGID_4_" gradientUnits="userSpaceOnUse" x1="-13.5" y1="354.5" x2="-13.5" y2="354.5" gradientTransform="matrix(1 0 0 -1 -6 903)">
		<stop  offset="0" style="stop-color:#5ED9C3"/>
		<stop  offset="1" style="stop-color:#2F9EB8"/>
	</linearGradient>
	<path fill="url(#SVGID_4_)" d="M-19.5,548.5"/>
</g>
<g id="Layer_2">
	
		<linearGradient id="SVGID_5_" gradientUnits="userSpaceOnUse" x1="-33.5" y1="282.5" x2="-33.5" y2="282.5" gradientTransform="matrix(1 0 0 -1 -6 903)">
		<stop  offset="0.3791" style="stop-color:#62ECD3"/>
		<stop  offset="1" style="stop-color:#5ED9C3"/>
	</linearGradient>
	<path fill="url(#SVGID_5_)" d="M-39.5,620.5"/>
	
		<linearGradient id="SVGID_6_" gradientUnits="userSpaceOnUse" x1="-4.7632" y1="340.6777" x2="-4.7632" y2="340.6777" gradientTransform="matrix(1 0 0 -1 -6 903)">
		<stop  offset="0.1703" style="stop-color:#5ED9C3"/>
		<stop  offset="1" style="stop-color:#62ECD3"/>
	</linearGradient>
	<path fill="url(#SVGID_6_)" d="M-10.763,562.322"/>
</g>
<g id="Layer_3" display="none">
	<g id="Layer_1_2_" display="inline" opacity="0.2">
		<path fill="none" stroke="#41CAB1" stroke-width="2" d="M733.141,102.695c4.749-88.104,33.104-174.75,81.87-248.315
			c45.95-69.317,109.345-127.006,182.854-165.944c59.096-31.304,124.563-50.478,191.203-56.064"/>
		<path fill="none" stroke="#41CAB1" stroke-width="2" d="M1251.506-369.255c87.992,1.794,176.596,29.193,251.355,75.471
			c63.656,39.403,117.471,93.924,156.936,157.479c39.285,63.272,64.321,135.282,72.376,209.345
			c1.38,12.692,2.262,25.438,2.642,38.195"/>
		<path fill="none" stroke="#41CAB1" stroke-width="2" d="M734.332,173.408c2.396,47.297,12.861,94.536,29.896,138.7
			c3.434,8.904,8.937,16.291,12.233,25.34c3.341,9.155,7.072,18.163,11.177,26.997c8.121,17.483,17.696,34.276,28.468,50.258
			c44.297,65.76,109.385,122.715,179.506,159.454c33.75,17.683,68.17,33.012,105.039,42.905c18.168,4.877,36.842,9.36,55.523,11.697
			c19.723,2.466,39.621,2.035,59.424,3.215"/>
		<path fill="none" stroke="#41CAB1" stroke-width="2" d="M1264.377,632.54c127.188-4.597,243.508-62.755,333.977-153.226
			c81.855-86.162,127.091-193.864,135.589-309.965"/>
	</g>
	<g id="Layer_2_1_" display="inline" opacity="0.2">
		<circle fill="#FCFCFC" stroke="#41CAB1" stroke-width="2" cx="1731.739" cy="139.55" r="19.959"/>
		<circle fill="#FCFCFC" stroke="#41CAB1" stroke-width="2" cx="730.106" cy="139.55" r="19.959"/>
		<circle fill="#FCFCFC" stroke="#41CAB1" stroke-width="2" cx="1596.199" cy="-319.84" r="8.112"/>
		<g>
			<path fill="#FCFCFC" stroke="#41CAB1" stroke-width="2" d="M1221.396-346.828c-13.403,0-24.311-10.903-24.311-24.308
				c0-13.403,10.906-24.307,24.311-24.307c13.403,0,24.308,10.904,24.308,24.307
				C1245.703-357.731,1234.799-346.828,1221.396-346.828z M1221.396-385.784c-8.077,0-14.648,6.573-14.648,14.65
				c0,8.077,6.571,14.649,14.648,14.649s14.646-6.572,14.646-14.649C1236.043-379.211,1229.474-385.784,1221.396-385.784z"/>
		</g>
		<g>
			<path fill="#FCFCFC" stroke="#41CAB1" stroke-width="2" d="M1596.199-296.208c-12.812,0-23.23-10.421-23.23-23.231
				c0-12.807,10.42-23.23,23.23-23.23c12.812,0,23.229,10.423,23.229,23.23C1619.428-306.629,1609.011-296.208,1596.199-296.208z
				 M1596.199-333.438c-7.721,0-13.998,6.281-13.998,14.001s6.277,14.001,13.998,14.001s14.002-6.281,14.002-14.001
				S1603.92-333.438,1596.199-333.438z"/>
		</g>
		<g>
			<path fill="#FCFCFC" stroke="#41CAB1" stroke-width="2" d="M1240.781,648.343c-11.027,0-20.001-8.97-20.001-19.999
				c0-11.026,8.974-19.997,20.001-19.997c11.029,0,19.999,8.971,19.999,19.997C1260.78,639.373,1251.813,648.343,1240.781,648.343z
				 M1240.781,616.29c-6.648,0-12.053,5.409-12.053,12.054c0,6.646,5.403,12.055,12.053,12.055c6.646,0,12.054-5.407,12.054-12.055
				C1252.835,621.699,1247.427,616.29,1240.781,616.29z"/>
		</g>
		<path opacity="0.5" fill="none" stroke="#41CAB1" stroke-width="2" enable-background="new    " d="M909.588-144.289
			c48.284-56.594,111.637-100.131,181.968-124.451c66.271-22.918,138.274-29.114,207.456-17.574
			c55.617,9.282,109.289,29.949,156.799,60.318"/>
		<path opacity="0.5" fill="none" stroke="#41CAB1" stroke-width="2" enable-background="new    " d="M1498.477-195.12
			c58.03,46.249,103.369,109.963,129.766,179.236c22.476,58.988,30.622,123.063,24.523,185.841
			c-6.065,62.507-26.158,123.566-58.678,177.307c-5.572,9.208-11.505,18.199-17.783,26.943"/>
		<path opacity="0.5" fill="none" stroke="#41CAB1" stroke-width="2" enable-background="new    " d="M874.185-96.303
			C851.58-63.39,834.407-26.389,823.212,11.926c-2.255,7.72-2.352,15.487-4.771,23.237c-2.453,7.843-4.565,15.789-6.336,23.807
			c-3.51,15.873-5.693,32.025-6.661,48.243c-3.983,66.733,10.469,138.214,38.64,198.721c13.561,29.127,28.771,57.019,48.406,82.519
			c9.676,12.569,19.894,25.131,31.215,36.261c11.95,11.747,25.502,21.646,38.165,32.574"/>
		<path opacity="0.5" fill="none" stroke="#41CAB1" stroke-width="2" enable-background="new    " d="M994.26,482.641
			c87.566,62.032,195.27,82.613,302.192,68.313c98.948-15.824,184.391-64.823,249.517-138.257"/>
		
			<circle opacity="0.5" fill="#FCFCFC" stroke="#41CAB1" stroke-width="2" enable-background="new    " cx="1559.748" cy="391.604" r="16.83"/>
		
			<circle opacity="0.5" fill="#FCFCFC" stroke="#41CAB1" stroke-width="2" enable-background="new    " cx="888.688" cy="-121.151" r="16.83"/>
		<g opacity="0.5">
			<path fill="#FCFCFC" stroke="#41CAB1" stroke-width="2" d="M1466.822-195.507c-8.983-6.861-10.707-19.75-3.841-28.73
				c6.858-8.979,19.747-10.701,28.728-3.841c8.98,6.861,10.703,19.748,3.841,28.726
				C1488.688-190.37,1475.8-188.645,1466.822-195.507z M1486.764-221.607c-5.415-4.135-13.182-3.097-17.313,2.314
				c-4.138,5.415-3.099,13.181,2.313,17.316c5.411,4.133,13.179,3.097,17.313-2.318
				C1493.214-209.705,1492.173-217.473,1486.764-221.607z"/>
		</g>
		<g opacity="0.5">
			<path fill="#FCFCFC" stroke="#41CAB1" stroke-width="2" d="M970.359,481.148c-7.388-5.643-8.808-16.247-3.161-23.639
				c5.645-7.388,16.249-8.806,23.638-3.159c7.393,5.646,8.807,16.248,3.159,23.636C988.355,485.377,977.751,486.796,970.359,481.148
				z M986.771,459.675c-4.456-3.403-10.848-2.547-14.248,1.904c-3.401,4.453-2.55,10.844,1.905,14.248
				c4.45,3.398,10.841,2.547,14.245-1.909C992.077,469.468,991.223,463.075,986.771,459.675z"/>
		</g>
		<g opacity="0.5">
			<path fill="none" stroke="#41CAB1" stroke-width="2" d="M1695.16,480.22l-8.744-15.983l-15.98-8.742l15.98-8.743l8.744-15.982
				l8.742,15.982l15.982,8.743l-15.982,8.742L1695.16,480.22z M1683.327,455.494l7.651,4.182l4.182,7.651l4.181-7.651l7.65-4.182
				l-7.648-4.183l-4.181-7.649l-4.184,7.649L1683.327,455.494z"/>
		</g>
		<g>
			<path fill="none" stroke="#41CAB1" stroke-width="2" d="M749.785,454.621l-8.742-15.982l-15.982-8.745l15.982-8.739l8.742-15.981
				l8.742,15.981l15.982,8.74l-15.982,8.745L749.785,454.621z M737.95,429.895l7.65,4.186l4.179,7.651l4.187-7.651l7.65-4.186
				l-7.65-4.182l-4.181-7.65l-4.183,7.65L737.95,429.895z"/>
		</g>
		<path opacity="0.5" fill="none" stroke="#41CAB1" stroke-width="2" enable-background="new    " d="M847.052-253.062h-13.385
			v-13.385c0-4.474-3.663-8.137-8.137-8.137c-4.473,0-8.134,3.663-8.134,8.137v13.385H804.01c-4.472,0-8.134,3.663-8.134,8.135
			c0,4.471,3.662,8.135,8.134,8.135h13.389v13.384c0,4.475,3.66,8.137,8.133,8.137c4.474,0,8.137-3.662,8.137-8.137v-13.384h13.385
			c4.475,0,8.138-3.664,8.138-8.135C855.188-249.399,851.525-253.062,847.052-253.062z"/>
	</g>
	<g id="Layer_1_3_" display="inline" opacity="0.2">
		<path fill="none" stroke="#41CAB1" stroke-width="2" d="M907.704,111.025c3.083-57.208,21.494-113.468,53.159-161.235
			c29.837-45.009,71-82.468,118.729-107.751c38.372-20.326,80.882-32.776,124.152-36.404"/>
		<path fill="none" stroke="#41CAB1" stroke-width="2" d="M1244.288-195.421c57.135,1.165,114.667,18.956,163.21,49.005
			c41.334,25.585,76.275,60.986,101.9,102.254c25.509,41.084,41.766,87.841,46.995,135.932c0.896,8.241,1.469,16.517,1.716,24.8"/>
		<path fill="none" stroke="#41CAB1" stroke-width="2" d="M908.479,156.941c1.557,30.71,8.351,61.384,19.411,90.06
			c2.229,5.782,5.803,10.578,7.943,16.454c2.169,5.945,4.592,11.793,7.257,17.53c5.273,11.353,11.491,22.256,18.485,32.634
			c28.762,42.699,71.023,79.681,116.556,103.537c21.914,11.48,44.264,21.435,68.204,27.859c11.797,3.166,23.922,6.078,36.053,7.596
			c12.807,1.601,25.728,1.32,38.585,2.087"/>
		<path fill="none" stroke="#41CAB1" stroke-width="2" d="M1252.646,455.063c82.584-2.983,158.113-40.747,216.856-99.492
			c53.15-55.946,82.521-125.879,88.039-201.267"/>
	</g>
	<g id="Layer_2_2_" display="inline" opacity="0.2">
		<circle fill="#FCFCFC" stroke="#41CAB1" stroke-width="2" cx="1556.112" cy="134.956" r="12.96"/>
		<circle fill="#FCFCFC" stroke="#41CAB1" stroke-width="2" cx="905.733" cy="134.956" r="12.96"/>
		<circle fill="#FCFCFC" stroke="#41CAB1" stroke-width="2" cx="1468.104" cy="-163.334" r="5.267"/>
		<g>
			<path fill="#FCFCFC" stroke="#41CAB1" stroke-width="2" d="M1224.736-180.858c-8.703,0-15.784-7.079-15.784-15.783
				c0-8.703,7.081-15.783,15.784-15.783s15.783,7.08,15.783,15.783C1240.521-187.938,1233.439-180.858,1224.736-180.858z
				 M1224.736-206.153c-5.244,0-9.512,4.268-9.512,9.513c0,5.245,4.268,9.512,9.512,9.512c5.246,0,9.512-4.267,9.512-9.512
				C1234.248-201.885,1229.982-206.153,1224.736-206.153z"/>
		</g>
		<g>
			<path fill="#FCFCFC" stroke="#41CAB1" stroke-width="2" d="M1468.104-147.99c-8.317,0-15.084-6.767-15.084-15.084
				c0-8.315,6.767-15.083,15.084-15.083c8.319,0,15.084,6.768,15.084,15.083C1483.188-154.757,1476.423-147.99,1468.104-147.99z
				 M1468.104-172.164c-5.013,0-9.089,4.078-9.089,9.092c0,5.012,4.076,9.091,9.089,9.091c5.015,0,9.093-4.079,9.093-9.091
				C1477.195-168.086,1473.117-172.164,1468.104-172.164z"/>
		</g>
		<g>
			<path fill="#FCFCFC" stroke="#41CAB1" stroke-width="2" d="M1237.324,465.325c-7.16,0-12.987-5.824-12.987-12.986
				c0-7.16,5.827-12.983,12.987-12.983c7.162,0,12.985,5.823,12.985,12.983C1250.311,459.5,1244.486,465.325,1237.324,465.325z
				 M1237.324,444.512c-4.316,0-7.826,3.513-7.826,7.827c0,4.316,3.51,7.827,7.826,7.827c4.314,0,7.827-3.511,7.827-7.827
				C1245.151,448.024,1241.64,444.512,1237.324,444.512z"/>
		</g>
		<path opacity="0.5" fill="none" stroke="#41CAB1" stroke-width="2" enable-background="new    " d="M1022.274-49.346
			c31.352-36.748,72.486-65.018,118.154-80.809c43.03-14.881,89.784-18.904,134.705-11.411
			c36.113,6.027,70.963,19.447,101.813,39.166"/>
		<path opacity="0.5" fill="none" stroke="#41CAB1" stroke-width="2" enable-background="new    " d="M1404.65-82.351
			c37.681,30.03,67.119,71.401,84.259,116.381c14.594,38.302,19.884,79.907,15.924,120.67
			c-3.938,40.586-16.985,80.234-38.101,115.128c-3.617,5.979-7.471,11.817-11.547,17.495"/>
		<path opacity="0.5" fill="none" stroke="#41CAB1" stroke-width="2" enable-background="new    " d="M999.286-18.188
			c-14.678,21.371-25.828,45.396-33.099,70.275c-1.464,5.012-1.525,10.056-3.098,15.088c-1.593,5.093-2.964,10.252-4.114,15.458
			c-2.276,10.307-3.695,20.794-4.323,31.325c-2.587,43.331,6.797,89.745,25.089,129.033c8.806,18.913,18.683,37.023,31.432,53.581
			c6.282,8.162,12.917,16.318,20.269,23.545c7.76,7.628,16.56,14.056,24.78,21.151"/>
		<path opacity="0.5" fill="none" stroke="#41CAB1" stroke-width="2" enable-background="new    " d="M1077.253,357.731
			c56.858,40.278,126.792,53.642,196.22,44.357c64.249-10.275,119.729-42.091,162.017-89.773"/>
		
			<circle opacity="0.5" fill="#FCFCFC" stroke="#41CAB1" stroke-width="2" enable-background="new    " cx="1444.436" cy="298.619" r="10.928"/>
		
			<circle opacity="0.5" fill="#FCFCFC" stroke="#41CAB1" stroke-width="2" enable-background="new    " cx="1008.702" cy="-34.322" r="10.928"/>
		<g opacity="0.5">
			<path fill="#FCFCFC" stroke="#41CAB1" stroke-width="2" d="M1384.097-82.603c-5.833-4.455-6.952-12.824-2.493-18.655
				c4.453-5.831,12.821-6.949,18.652-2.494c5.832,4.455,6.95,12.823,2.494,18.652C1398.295-79.267,1389.926-78.147,1384.097-82.603z
				 M1397.045-99.55c-3.516-2.685-8.559-2.011-11.242,1.502c-2.687,3.516-2.012,8.559,1.502,11.244
				c3.515,2.684,8.558,2.011,11.242-1.505C1401.233-91.822,1400.558-96.865,1397.045-99.55z"/>
		</g>
		<g opacity="0.5">
			<path fill="#FCFCFC" stroke="#41CAB1" stroke-width="2" d="M1061.734,356.762c-4.797-3.663-5.72-10.549-2.054-15.349
				c3.665-4.797,10.552-5.718,15.35-2.051c4.8,3.666,5.718,10.55,2.051,15.347C1073.42,359.508,1066.534,360.43,1061.734,356.762z
				 M1072.391,342.819c-2.894-2.21-7.043-1.654-9.252,1.236c-2.208,2.892-1.654,7.042,1.238,9.251
				c2.891,2.207,7.039,1.654,9.249-1.239C1075.836,349.178,1075.281,345.027,1072.391,342.819z"/>
		</g>
		<g opacity="0.5">
			<path fill="none" stroke="#41CAB1" stroke-width="2" d="M1532.361,356.159l-5.679-10.379l-10.377-5.676l10.377-5.677
				l5.679-10.377l5.676,10.377l10.379,5.677l-10.379,5.676L1532.361,356.159z M1524.678,340.104l4.969,2.715l2.716,4.968
				l2.714-4.968l4.968-2.715l-4.966-2.715l-2.715-4.968l-2.717,4.968L1524.678,340.104z"/>
		</g>
		<g>
			<path fill="none" stroke="#41CAB1" stroke-width="2" d="M918.512,339.537l-5.677-10.377l-10.378-5.678l10.378-5.675l5.677-10.376
				l5.677,10.376l10.379,5.676l-10.379,5.678L918.512,339.537z M910.826,323.482l4.969,2.717l2.713,4.968l2.718-4.968l4.969-2.717
				l-4.969-2.715l-2.714-4.967l-2.716,4.967L910.826,323.482z"/>
		</g>
		<path opacity="0.5" fill="none" stroke="#41CAB1" stroke-width="2" enable-background="new    " d="M981.668-119.974h-8.689
			v-8.691c0-2.905-2.38-5.283-5.283-5.283s-5.281,2.378-5.281,5.283v8.691h-8.692c-2.903,0-5.28,2.378-5.28,5.282
			c0,2.903,2.377,5.282,5.28,5.282h8.692v8.69c0,2.906,2.378,5.284,5.281,5.284s5.283-2.378,5.283-5.284v-8.69h8.689
			c2.905,0,5.283-2.379,5.283-5.282C986.951-117.596,984.573-119.974,981.668-119.974z"/>
	</g>
	<g id="Layer_1_4_" display="inline" opacity="0.2">
		<path fill="none" stroke="#41CAB1" stroke-width="2" d="M1062.566,118.416c1.604-29.798,11.194-59.103,27.688-83.983
			c15.541-23.444,36.981-42.956,61.843-56.125c19.987-10.587,42.131-17.072,64.668-18.962"/>
		<path fill="none" stroke="#41CAB1" stroke-width="2" d="M1237.885-41.205c29.76,0.607,59.729,9.874,85.012,25.525
			c21.53,13.327,39.73,31.767,53.078,53.262c13.287,21.4,21.756,45.754,24.479,70.804c0.467,4.292,0.765,8.604,0.894,12.918"/>
		<path fill="none" stroke="#41CAB1" stroke-width="2" d="M1062.969,142.332c0.812,15.996,4.351,31.973,10.111,46.91
			c1.161,3.012,3.021,5.51,4.138,8.57c1.13,3.097,2.392,6.143,3.78,9.131c2.746,5.913,5.984,11.593,9.628,16.998
			c14.981,22.241,36.995,41.504,60.711,53.93c11.415,5.98,23.057,11.165,35.526,14.512c6.145,1.649,12.46,3.166,18.778,3.956
			c6.671,0.834,13.4,0.688,20.099,1.087"/>
		<path fill="none" stroke="#41CAB1" stroke-width="2" d="M1242.238,297.617c43.016-1.555,82.356-21.225,112.955-51.823
			c27.686-29.141,42.983-65.568,45.856-104.835"/>
	</g>
	<g id="Layer_2_3_" display="inline" opacity="0.2">
		<circle fill="#FCFCFC" stroke="#41CAB1" stroke-width="2" cx="1400.307" cy="130.881" r="6.751"/>
		<circle fill="#FCFCFC" stroke="#41CAB1" stroke-width="2" cx="1061.539" cy="130.881" r="6.751"/>
		<circle fill="#FCFCFC" stroke="#41CAB1" stroke-width="2" cx="1354.465" cy="-24.492" r="2.744"/>
		<g>
			<path fill="#FCFCFC" stroke="#41CAB1" stroke-width="2" d="M1227.701-33.62c-4.534,0-8.223-3.688-8.223-8.221
				c0-4.533,3.688-8.221,8.223-8.221c4.533,0,8.221,3.688,8.221,8.221C1235.922-37.307,1232.234-33.62,1227.701-33.62z
				 M1227.701-46.795c-2.732,0-4.954,2.223-4.954,4.955c0,2.732,2.222,4.955,4.954,4.955c2.731,0,4.954-2.223,4.954-4.955
				C1232.655-44.572,1230.434-46.795,1227.701-46.795z"/>
		</g>
		<g>
			<path fill="#FCFCFC" stroke="#41CAB1" stroke-width="2" d="M1354.465-16.499c-4.333,0-7.855-3.525-7.855-7.857
				c0-4.331,3.522-7.856,7.855-7.856s7.856,3.525,7.856,7.856C1362.321-20.024,1358.798-16.499,1354.465-16.499z M1354.465-29.091
				c-2.611,0-4.734,2.124-4.734,4.735s2.123,4.735,4.734,4.735s4.735-2.125,4.735-4.735
				C1359.2-26.967,1357.076-29.091,1354.465-29.091z"/>
		</g>
		<g>
			<path fill="#FCFCFC" stroke="#41CAB1" stroke-width="2" d="M1234.258,302.962c-3.729,0-6.766-3.034-6.766-6.764
				c0-3.729,3.035-6.763,6.766-6.763c3.731,0,6.765,3.034,6.765,6.763C1241.021,299.928,1237.988,302.962,1234.258,302.962z
				 M1234.258,292.121c-2.249,0-4.077,1.83-4.077,4.077c0,2.248,1.828,4.077,4.077,4.077c2.247,0,4.076-1.829,4.076-4.077
				C1238.334,293.951,1236.505,292.121,1234.258,292.121z"/>
		</g>
		<path opacity="0.5" fill="none" stroke="#41CAB1" stroke-width="2" enable-background="new    " d="M1122.243,34.882
			c16.33-19.141,37.757-33.866,61.544-42.091c22.414-7.751,46.767-9.847,70.165-5.944c18.811,3.139,36.963,10.129,53.031,20.4"/>
		<path opacity="0.5" fill="none" stroke="#41CAB1" stroke-width="2" enable-background="new    " d="M1321.414,17.69
			c19.627,15.642,34.961,37.191,43.888,60.62c7.603,19.951,10.357,41.622,8.295,62.854c-2.052,21.14-8.848,41.792-19.846,59.967
			c-1.885,3.115-3.892,6.155-6.015,9.113"/>
		<path opacity="0.5" fill="none" stroke="#41CAB1" stroke-width="2" enable-background="new    " d="M1110.27,51.112
			c-7.646,11.131-13.453,23.646-17.239,36.604c-0.763,2.611-0.795,5.238-1.613,7.859c-0.83,2.653-1.544,5.34-2.144,8.052
			c-1.188,5.369-1.926,10.832-2.252,16.317c-1.349,22.57,3.539,46.746,13.067,67.21c4.586,9.851,9.731,19.284,16.372,27.909
			c3.271,4.251,6.729,8.5,10.557,12.264c4.042,3.973,8.625,7.321,12.908,11.017"/>
		<path opacity="0.5" fill="none" stroke="#41CAB1" stroke-width="2" enable-background="new    " d="M1150.88,246.919
			c29.616,20.98,66.043,27.941,102.206,23.104c33.466-5.352,62.364-21.924,84.391-46.761"/>
		
			<circle opacity="0.5" fill="#FCFCFC" stroke="#41CAB1" stroke-width="2" enable-background="new    " cx="1342.137" cy="216.129" r="5.692"/>
		
			<circle opacity="0.5" fill="#FCFCFC" stroke="#41CAB1" stroke-width="2" enable-background="new    " cx="1115.174" cy="42.708" r="5.692"/>
		<g opacity="0.5">
			<path fill="#FCFCFC" stroke="#41CAB1" stroke-width="2" d="M1310.708,17.56c-3.038-2.321-3.622-6.68-1.299-9.717
				c2.319-3.037,6.679-3.62,9.716-1.299c3.037,2.321,3.62,6.679,1.299,9.715C1318.104,19.297,1313.744,19.88,1310.708,17.56z
				 M1317.452,8.732c-1.831-1.399-4.458-1.047-5.855,0.782c-1.398,1.832-1.048,4.458,0.782,5.857
				c1.83,1.398,4.457,1.047,5.855-0.784C1319.634,12.757,1319.282,10.13,1317.452,8.732z"/>
		</g>
		<g opacity="0.5">
			<path fill="#FCFCFC" stroke="#41CAB1" stroke-width="2" d="M1142.797,246.414c-2.499-1.908-2.979-5.495-1.068-7.995
				c1.908-2.499,5.495-2.978,7.994-1.068c2.5,1.91,2.979,5.495,1.068,7.994C1148.884,247.844,1145.297,248.324,1142.797,246.414z
				 M1148.348,239.152c-1.508-1.151-3.669-0.862-4.818,0.644c-1.15,1.506-0.862,3.667,0.645,4.818
				c1.506,1.15,3.667,0.862,4.818-0.646C1150.142,242.463,1149.854,240.302,1148.348,239.152z"/>
		</g>
		<g opacity="0.5">
			<path fill="none" stroke="#41CAB1" stroke-width="2" d="M1387.936,246.1l-2.957-5.406l-5.405-2.957l5.405-2.957l2.957-5.405
				l2.957,5.405l5.405,2.957l-5.405,2.957L1387.936,246.1z M1383.933,237.737l2.589,1.415l1.414,2.587l1.413-2.587l2.589-1.415
				l-2.588-1.414l-1.414-2.588l-1.414,2.588L1383.933,237.737z"/>
		</g>
		<g>
			<path fill="none" stroke="#41CAB1" stroke-width="2" d="M1068.195,237.442l-2.957-5.405l-5.405-2.958l5.405-2.956l2.957-5.405
				l2.957,5.405l5.404,2.957l-5.404,2.958L1068.195,237.442z M1064.192,229.08l2.588,1.415l1.413,2.588l1.416-2.588l2.587-1.415
				l-2.587-1.415l-1.414-2.587l-1.414,2.587L1064.192,229.08z"/>
		</g>
		<path opacity="0.5" fill="none" stroke="#41CAB1" stroke-width="2" enable-background="new    " d="M1101.092-1.906h-4.525v-4.527
			c0-1.513-1.239-2.752-2.752-2.752c-1.514,0-2.751,1.239-2.751,2.752v4.527h-4.527c-1.513,0-2.751,1.238-2.751,2.751
			c0,1.512,1.238,2.751,2.751,2.751h4.527v4.526c0,1.514,1.237,2.752,2.751,2.752c1.513,0,2.752-1.239,2.752-2.752V3.596h4.525
			c1.515,0,2.752-1.239,2.752-2.751C1103.844-0.668,1102.605-1.906,1101.092-1.906z"/>
	</g>
</g>
</svg>
