<?xml version="1.0" encoding="utf-8"?>
<!-- Generator: Adobe Illustrator 16.0.0, SVG Export Plug-In . SVG Version: 6.00 Build 0)  -->
<!DOCTYPE svg PUBLIC "-//W3C//DTD SVG 1.1//EN" "http://www.w3.org/Graphics/SVG/1.1/DTD/svg11.dtd">
<svg version="1.1" id="Layer_1" xmlns="http://www.w3.org/2000/svg" xmlns:xlink="http://www.w3.org/1999/xlink" x="0px" y="0px"
	 width="500px" height="500px" viewBox="0 0 500 500" enable-background="new 0 0 500 500" xml:space="preserve">
<path fill="#F37554" d="M225.182,116.601c3.566,4.835,6.372,10.415,8.264,16.772c1.813,6.094,2.791,12.857,2.791,20.311
	c0,20.582-7.489,43.189-19.459,60.066c-11.542,16.271-27.396,27.509-45.261,27.509c-17.863,0-33.719-11.238-45.262-27.509
	c-11.97-16.876-19.457-39.484-19.457-60.066c0-7.454,0.975-14.216,2.79-20.311c1.952-6.555,4.875-12.285,8.6-17.223l-0.01-0.008
	c1.755-2.328,4.429-3.554,7.137-3.556h0.001h0.063h92.344C220.838,112.586,223.582,114.182,225.182,116.601L225.182,116.601z
	 M216.334,138.473c-0.873-2.932-2.014-5.598-3.392-8.006H130.09c-1.378,2.409-2.519,5.075-3.392,8.006
	c-1.314,4.414-2.021,9.473-2.021,15.211c0,17.044,6.198,35.762,16.106,49.728c8.377,11.81,19.236,19.966,30.734,19.966
	c11.498,0,22.358-8.156,30.735-19.966c9.907-13.966,16.104-32.684,16.104-49.728C218.355,147.945,217.648,142.887,216.334,138.473z"
	/>
<path fill="#F37554" d="M119.986,87.795h103.062c4.936,0,8.939,4.002,8.939,8.939v24.791c0,4.938-4.003,8.94-8.939,8.94H119.986
	c-4.938,0-8.941-4.002-8.941-8.94V96.735C111.045,91.798,115.048,87.795,119.986,87.795L119.986,87.795z M214.107,105.676h-85.182
	v6.91h85.182V105.676z"/>
<path fill="#F37554" d="M117.681,114.978c4.764,1.272,9.658-1.558,10.931-6.322c1.272-4.764-1.557-9.658-6.32-10.93l-23.629-6.364
	l72.854-23.661l72.854,23.661l-23.628,6.364c-4.763,1.272-7.594,6.166-6.32,10.93c1.272,4.764,6.166,7.594,10.93,6.322
	l52.235-14.066c3.02-0.646,5.621-2.837,6.645-5.985c1.524-4.696-1.046-9.738-5.742-11.264l-0.006,0.016L174.797,50.003
	c-1.865-0.736-3.987-0.854-6.041-0.186l2.76,8.502l-2.758-8.486L65.083,83.505c-3.017,0.777-5.543,3.111-6.409,6.335
	c-1.285,4.768,1.539,9.674,6.307,10.958l2.326-8.633L65,100.791L117.681,114.978z"/>
<path fill="#F37554" d="M78.772,90.538c0-2.469-2.002-4.47-4.47-4.47s-4.471,2.001-4.471,4.47v43.383
	c0,2.469,2.003,4.471,4.471,4.471s4.47-2.002,4.47-4.471V90.538z"/>
<path fill="#F37554" d="M83.244,127.724c0-4.937-4.004-8.94-8.941-8.94s-8.94,4.003-8.94,8.94v6.197c0,4.938,4.003,8.941,8.94,8.941
	s8.941-4.002,8.941-8.941V127.724z"/>
<path fill="#F37554" d="M234.208,354.609c4.937,0,8.941-4.004,8.941-8.941c0-4.937-4.004-8.939-8.941-8.939H60.229
	c5.327-14.492,14.487-31.446,26.507-47.368c11.276-14.937,24.986-28.814,40.274-38.657c5.696,5.123,11.943,9.579,18.63,12.92
	c8.128,4.063,16.82,6.472,25.875,6.472c9.055,0,17.747-2.408,25.876-6.472c6.688-3.342,12.936-7.798,18.631-12.92
	c8.987,5.784,17.424,12.957,25.14,20.914c10.647,10.979,19.894,23.412,27.315,35.757c2.526,4.223,7.999,5.599,12.223,3.072
	c4.224-2.525,5.6-7.999,3.073-12.222c-8.094-13.467-18.193-27.039-29.829-39.041c-10.318-10.64-21.864-20.076-34.327-27.172
	c-3.506-2.26-8.23-1.817-11.25,1.288l0.018,0.017c-5.736,5.901-12.143,10.978-18.957,14.383c-5.67,2.834-11.694,4.516-17.913,4.516
	c-6.218,0-12.242-1.682-17.914-4.516c-6.636-3.317-12.885-8.219-18.504-13.922c-2.712-3.234-7.423-4.182-11.234-2.036l0.007,0.012
	c-19.873,11.202-37.413,28.347-51.384,46.851C56,300.443,44.334,324.443,39.636,342.859c-0.292,0.883-0.451,1.828-0.451,2.809
	c0,4.938,4.004,8.941,8.939,8.941H234.208z"/>
<path fill="#F37554" d="M427.427,208.143c-0.283-0.234-0.554-0.486-0.81-0.757c-0.84-0.758-1.73-1.491-2.667-2.198
	c-7.349-5.545-16.454-8.361-25.254-8.135c-8.459,0.216-16.581,3.287-22.38,9.499c-0.658,0.705-1.309,1.48-1.946,2.326
	l-67.455,89.394c-0.414,0.622-0.913,1.203-1.498,1.724l-5.948-6.674l5.938,6.671l-95.768,85.362
	c-0.737,0.656-1.385,1.286-1.947,1.888c-5.951,6.375-8.541,14.868-8.17,23.471c0.383,8.886,3.889,17.844,10.094,24.806
	c0.689,0.773,1.374,1.488,2.052,2.142c0.135,0.112,0.268,0.229,0.399,0.352l-0.014,0.014c1.292,1.205,2.674,2.322,4.129,3.347
	c7.297,5.134,16.207,7.771,24.756,7.541c8.112-0.218,15.828-3.073,21.271-8.905c0.816-0.874,1.591-1.827,2.317-2.859l80.716-114.709
	c0.596-0.977,1.389-1.854,2.372-2.569l5.258,7.23l-5.238-7.229l82.497-60.004c1.257-0.914,2.369-1.898,3.34-2.939
	c4.927-5.276,7.005-12.562,6.729-20.167c-0.293-8.104-3.224-16.496-8.237-23.388C430.585,211.479,429.068,209.722,427.427,208.143
	L427.427,208.143z M439.184,194.707l0.01,0.009l0.014-0.014c0.162,0.151,0.317,0.307,0.466,0.467
	c2.493,2.384,4.747,4.978,6.748,7.728c7.047,9.687,11.17,21.611,11.591,33.236c0.438,12.122-3.109,23.983-11.479,32.949
	c-1.782,1.909-3.756,3.667-5.925,5.245l-81.297,59.129l-80.187,113.96c-1.188,1.688-2.476,3.27-3.854,4.745
	c-8.918,9.554-21.196,14.22-33.914,14.563c-12.278,0.33-25.035-3.432-35.443-10.755c-1.931-1.359-3.792-2.849-5.561-4.464
	c-0.348-0.279-0.668-0.58-0.963-0.899c-1.123-1.071-2.161-2.144-3.115-3.213c-8.95-10.041-14.008-23.012-14.565-35.911
	c-0.567-13.182,3.53-26.332,12.92-36.392c1.037-1.11,2.083-2.138,3.133-3.074l95.121-84.786l67.237-89.108
	c0.97-1.284,2.017-2.526,3.133-3.723c9.265-9.925,21.956-14.822,35.021-15.157c12.726-0.326,25.859,3.722,36.431,11.697
	C436.229,192.089,437.726,193.345,439.184,194.707l-6.077,6.529l0.473-0.506L439.184,194.707z"/>
<path fill="#F37554" d="M268.136,377.929c10.627,9.921,16.514,22.957,17.442,36.017h0.004v0.001l0.012-0.001
	c0.013,0.175,0.019,0.349,0.021,0.522c0.793,13.107-3.397,26.203-12.782,36.255c-9.508,10.187-22.501,15.266-35.82,15.244
	c-13.105-0.022-26.515-4.988-37.123-14.891c-10.626-9.92-16.515-22.957-17.444-36.016h-0.002v-0.002l-0.013,0.002
	c-0.012-0.176-0.019-0.35-0.021-0.522c-0.792-13.107,3.398-26.203,12.783-36.256c9.509-10.186,22.501-15.266,35.82-15.243
	C244.117,363.061,257.528,368.026,268.136,377.929L268.136,377.929z M276.676,414.573l-8.905,0.594
	c-0.613-8.711-4.592-17.46-11.788-24.177c-7.224-6.744-16.237-10.126-24.97-10.142c-8.519-0.013-16.779,3.181-22.758,9.587
	c-5.884,6.301-8.513,14.593-8.026,22.955c0.016,0.136,0.028,0.273,0.039,0.413l-8.918,0.628l8.905-0.594
	c0.614,8.711,4.593,17.46,11.789,24.177c7.225,6.745,16.239,10.127,24.97,10.142c8.519,0.014,16.779-3.181,22.759-9.587
	c5.883-6.301,8.513-14.593,8.025-22.954c-0.015-0.137-0.028-0.274-0.039-0.413L276.676,414.573z"/>
<path fill="#F37554" d="M297.286,285.841c-4.918-0.424-9.249,3.22-9.673,8.138c-0.424,4.919,3.218,9.25,8.137,9.674
	c12.439,1.076,25.282,14.054,37.471,26.372c3.815,3.856,7.575,7.654,11.748,11.479c11.343,10.397,29.103,10.441,39.617,10.467
	c2.27,0.006,1.846-1.117,2.888-0.554c4.341,2.334,9.75,0.707,12.084-3.632c2.333-4.339,0.707-9.75-3.632-12.083
	c-2.815-1.521-6.417-1.53-11.34-1.542c-7.938-0.019-21.348-0.053-27.604-5.787c-3.359-3.078-7.21-6.969-11.12-10.921
	C331.42,302.857,316.204,287.48,297.286,285.841z"/>
<path fill="#F37554" d="M432.272,263.489c-4.917,0-8.904,3.987-8.904,8.905c0,4.919,3.987,8.905,8.904,8.905h4.771
	c-39.269,18.471-61.239,30.045-78.519,47.229c-20.177,20.068-32.434,46.304-56.899,98.669c-2.24,4.798-4.588,9.819-7.054,15.08
	c-0.539,1.151-1.323,2.261-2.313,3.321c-5.332,5.712-15.653,8.909-26.969,9.766c-11.963,0.907-24.539-0.877-33.594-5.122
	c-2.74-1.284-5.103-2.792-6.942-4.507c-3.605-3.357-9.251-3.154-12.606,0.453c-3.356,3.607-3.151,9.251,0.455,12.606
	c3.176,2.965,7.104,5.495,11.552,7.581c11.827,5.545,27.706,7.918,42.463,6.8c15.405-1.169,30.077-6.186,38.702-15.424
	c2.184-2.34,4.004-4.979,5.387-7.932c2.466-5.26,4.813-10.282,7.054-15.08c23.561-50.43,35.365-75.695,53.338-93.57
	c18.026-17.93,43.805-29.924,95.463-53.959c2.136-0.993-3.993,1.857,13.713-6.405c3.445-1.241,5.908-4.538,5.908-8.411
	c0-4.938-4.003-8.94-8.939-8.94v0.035L432.272,263.489z"/>
<path fill="#F37554" d="M369.116,336.928c-3.625-3.317-9.255-3.067-12.571,0.559c-3.317,3.626-3.067,9.254,0.559,12.572
	c4.869,4.463,4.281,10.635,3.911,14.522c-0.595,6.239-1.013,10.649,5.242,14.028c4.341,2.334,9.75,0.707,12.084-3.632
	c1.536-2.855,1.356-6.175-0.183-8.776l0.273,0.025c-0.105-0.048-0.234-0.115-0.379-0.2c-0.796-1.276-1.925-2.368-3.344-3.132
	l-0.271,0.503c1.027,0.874,2.68,2.088,3.614,2.629l0.105,0.175l0.273,0.025c0.197,0.089,0.315,0.107,0.323,0.031
	C379.449,358.973,380.551,347.41,369.116,336.928z"/>
</svg>
