<?xml version="1.0" encoding="utf-8"?>
<!-- Generator: Adobe Illustrator 16.0.0, SVG Export Plug-In . SVG Version: 6.00 Build 0)  -->
<!DOCTYPE svg PUBLIC "-//W3C//DTD SVG 1.1//EN" "http://www.w3.org/Graphics/SVG/1.1/DTD/svg11.dtd">
<svg version="1.1" id="Layer_1" xmlns="http://www.w3.org/2000/svg" xmlns:xlink="http://www.w3.org/1999/xlink" x="0px" y="0px"
	 width="500px" height="500px" viewBox="0 0 500 500" enable-background="new 0 0 500 500" xml:space="preserve">
<g id="questionnaire_form">
	<path fill="#F37554" d="M346.997,161.777l-83.142,151.174l-55.812-97.678h15.128l33.096,57.92l7.972,13.94l7.614-14.14
		l59.89-111.227h15.254 M362.078,152.86h-35.665L264,268.771l-35.665-62.413H192.67L264,331.185L362.078,152.86L362.078,152.86z"/>
	<polygon fill="#F37554" points="344.246,203.78 344.246,340.091 183.754,340.091 183.754,188.516 297.088,188.516 301.885,179.6 
		174.838,179.6 174.838,349.007 353.161,349.007 353.161,187.576 	"/>
	<path fill="#F37554" d="M219.419,63.698h-35.665c-7.75,0-15.525,3.735-19.713,8.916h-60.532v294.234l98.078,98.077h222.905V72.614
		h-60.532c-4.188-5.181-11.964-8.916-19.713-8.916h-35.665v-8.917v-8.916H298.48c-7.627-8.855-11.771-8.934-12.208-17.649
		c0-0.07,0.018-0.131,0.018-0.184c0-12.294-9.995-22.29-22.29-22.29c-11.019,0-20.131,8.063-21.916,18.581
		c-0.196,1.21-0.375,2.43-0.375,3.709c0,0.053,0.017,0.114,0.017,0.184c-0.435,8.725-4.584,8.794-12.207,17.649h-10.1v8.916V63.698z
		 M192.67,443.402l-67.638-67.638h67.638V443.402z M367.424,81.53h48.151v374.48H201.586v-89.162h-89.162V81.53h47.807
		c-1.863,7.698-3.226,17.833-3.226,17.833h213.988L367.424,81.53z M250.643,28.199v-0.314c0-0.513,0.092-1.001,0.152-1.515
		c0.062-0.418,0.079-0.836,0.18-1.246h-0.01c1.337-5.981,6.67-10.475,13.043-10.475c7.254,0,13.123,5.782,13.34,12.983l-0.018,0.069
		l0.027,0.566c-0.158,7.271-6.078,13.14-13.357,13.14C256.69,41.408,250.734,35.496,250.643,28.199L250.643,28.199z M228.335,72.614
		V54.782h3.227h2.042l2.677-3.108c2.068-2.403,3.879-4.093,5.455-5.573c1.563-1.445,3.13-2.917,4.519-4.728
		c4.076,5.39,10.48,8.951,17.746,8.951c7.262,0,13.67-3.543,17.728-8.933c1.394,1.785,2.978,3.256,4.537,4.71
		c1.584,1.48,3.387,3.17,5.459,5.573l2.673,3.108h2.047h3.221v17.833h44.582c6.564,0,12.382,4.032,13.688,6.905l2.177,10.927
		H167.463c0.714-3.91,1.589-7.932,2.455-10.562c0.962-2.882,6.979-7.271,13.836-7.271H228.335z"/>
	<path fill="#F37554" d="M433.407,45.866h-115.91v8.916h115.91c4.92,0,8.917,4.006,8.917,8.917v401.228
		c0,4.911-3.997,8.917-8.917,8.917H94.593c-4.919,0-8.917-4.006-8.917-8.917V63.698c0-4.911,3.997-8.917,8.917-8.917h115.91v-8.916
		H94.593c-9.809,0-17.833,8.019-17.833,17.832v401.228c0,9.813,8.024,17.833,17.833,17.833h338.814
		c9.804,0,17.833-8.02,17.833-17.833V63.698C451.24,53.885,443.211,45.866,433.407,45.866z"/>
</g>
</svg>
