<?xml version="1.0" encoding="utf-8"?>
<!-- Generator: Adobe Illustrator 16.0.0, SVG Export Plug-In . SVG Version: 6.00 Build 0)  -->
<!DOCTYPE svg PUBLIC "-//W3C//DTD SVG 1.1//EN" "http://www.w3.org/Graphics/SVG/1.1/DTD/svg11.dtd">
<svg version="1.1" id="Layer_1" xmlns="http://www.w3.org/2000/svg" xmlns:xlink="http://www.w3.org/1999/xlink" x="0px" y="0px"
	 width="500px" height="500px" viewBox="0 0 500 500" enable-background="new 0 0 500 500" xml:space="preserve">
<path fill="#F37655" d="M341.198,319.357l-31.765-14.406v-27.652c32.737-26.253,26.754-48.356,26.754-99.81
	c1.725-0.1,3.484-0.235,5.272-0.409l-1.105-11.275c-53.504,5.262-76.109-28.125-77.038-29.534l-5.66-8.742l-10.043,22.406
	c-17.233-10.708-18.313-37.287-18.325-37.571l-0.284-9.845l-8.366,5.203c-1.32,0.818-32.328,20.611-32.328,65.036
	c0,52.417-6.46,77.381,26.684,103.938v28.254c-31.713,14.391-89.021,32.668-112.526,110.388L91.55,453.423
	c110.936,42.4,239.527,38.965,341.36-0.174C422.915,418.432,410.441,350.768,341.198,319.357z M199.637,226.821
	c0-54.482-4.458-79.484,19.689-103.42c2.481,12.396,9.458,32.015,29.036,39.492l5,1.91l6.645-14.818
	c9.501,9.979,30.267,26.374,64.854,27.631c0,70.069,5.368,68.502-35.639,101.365c-15.921,12.769-37.332,12.761-53.26,0
	l-15.614-12.51C207.571,256.228,199.637,241.037,199.637,226.821z M226.32,323.703v-37.932c24.118,19.32,50.269,17.855,71.788,0.608
	v37.323h11.326v-6.311l21.798,9.884l-68.697,47.177l-69.7-47.003l22.16-10.058v6.311H226.32z M368.663,461.047v-22.805h-11.327
	v25.181c-65.858,12.981-134.95,11.688-195.348-0.89v-21.956h-11.327v19.36c-15.707-3.713-30.923-8.13-45.351-13.417
	c7.349-25.626,18.395-82.937,75.67-113.407l81.613,55.041l80.481-55.27c56.719,29.892,68.063,85.566,76.076,113.478
	C403.151,452.25,386.217,457.105,368.663,461.047z M349.97,345.196l6.415,9.336l-93.573,64.262l-96.86-65.328l6.334-9.387
	l90.467,61.014L349.97,345.196z M162.773,309.575l-5.737-9.763c4.9-2.88,10.018-5.531,15.209-7.891l4.683,10.315
	C172.094,304.432,167.331,306.902,162.773,309.575z M78.022,438.571l-10.891-3.123c7.92-27.624,19.597-85.39,75.935-126.479
	l6.673,9.152C98.006,355.852,86.897,407.6,78.022,438.571z M337.08,132.972l-11.238-1.408c4.727-37.831-27.76-70.688-67.386-69.741
	l-0.31-11.319C303.76,49.073,342.754,87.617,337.08,132.972z M160.687,135.387c-3.628-28.088,4.93-55.579,24.095-77.41
	c67.315-76.669,193.962-20.526,181.824,76.389l-11.584,92.527l-11.239-1.409l11.585-92.527c3.09-24.692-4.49-48.798-21.355-67.875
	c-60.328-68.244-173.192-17.109-162.094,68.853l10.681,82.719l-11.231,1.453L160.687,135.387z M325.001,140.304l11.046,2.505
	l-2.806,12.379l-11.047-2.507L325.001,140.304z"/>
</svg>
