<?xml version="1.0" encoding="utf-8"?>
<!-- Generator: Adobe Illustrator 13.0.0, SVG Export Plug-In . SVG Version: 6.00 Build 14948)  -->
<!DOCTYPE svg PUBLIC "-//W3C//DTD SVG 1.1//EN" "http://www.w3.org/Graphics/SVG/1.1/DTD/svg11.dtd">
<svg version="1.1" id="Layer_1" xmlns="http://www.w3.org/2000/svg" xmlns:xlink="http://www.w3.org/1999/xlink" x="0px" y="0px"
	 width="300px" height="300px" viewBox="0 0 300 300" enable-background="new 0 0 300 300" xml:space="preserve">
<g enable-background="new    ">
	<path fill="#2193A8" d="M20.603,228.849h37.268V110.632c0-3.549,0.121-7.139,0.363-10.77l-30.976,26.499
		c-0.807,0.646-1.614,1.11-2.42,1.392c-0.807,0.284-1.573,0.424-2.299,0.424c-1.21,0-2.299-0.261-3.267-0.786
		c-0.968-0.524-1.694-1.15-2.178-1.876l-6.776-9.317l51.546-44.648h17.545v157.3h34.122v16.456H20.603V228.849z"/>
	<path fill="#2193A8" d="M244.571,81.35c0,3.067-0.969,5.587-2.904,7.563c-1.937,1.978-5.203,2.964-9.801,2.964h-54.45
		l-7.986,45.497c9.033-1.937,17.383-2.904,25.047-2.904c9.034,0,17.001,1.331,23.897,3.993c6.897,2.662,12.685,6.333,17.364,11.011
		c4.677,4.68,8.207,10.206,10.587,16.577c2.379,6.373,3.569,13.31,3.569,20.812c0,9.196-1.614,17.506-4.84,24.927
		c-3.228,7.422-7.644,13.774-13.249,19.057c-5.607,5.285-12.202,9.338-19.784,12.161c-7.583,2.822-15.771,4.234-24.563,4.234
		c-5.082,0-9.964-0.504-14.641-1.512c-4.68-1.008-9.036-2.359-13.068-4.054c-4.035-1.694-7.786-3.63-11.253-5.809
		c-3.47-2.178-6.534-4.477-9.196-6.896l6.534-9.196c1.452-2.097,3.388-3.146,5.808-3.146c1.532,0,3.328,0.626,5.385,1.875
		c2.057,1.252,4.537,2.644,7.441,4.175c2.904,1.533,6.312,2.925,10.225,4.175c3.912,1.251,8.57,1.875,13.976,1.875
		c6.05,0,11.495-0.968,16.335-2.904c4.84-1.936,8.973-4.698,12.402-8.288c3.428-3.588,6.069-7.884,7.926-12.887
		c1.854-5,2.783-10.606,2.783-16.818c0-5.403-0.787-10.285-2.359-14.642c-1.573-4.355-3.954-8.065-7.14-11.132
		c-3.188-3.064-7.159-5.445-11.918-7.139c-4.761-1.694-10.327-2.541-16.698-2.541c-4.356,0-8.875,0.362-13.552,1.089
		c-4.68,0.726-9.52,1.896-14.521,3.509l-13.552-3.993l14.036-81.07h82.159V81.35z"/>
</g>
<g enable-background="new    ">
	<path fill="#F39237" d="M268.332,17.188v13.663h13.023v4.32h-13.023v13.76h-4.672v-13.76H250.7v-4.32h12.96V17.188H268.332z"/>
</g>
</svg>
