<?xml version="1.0" encoding="utf-8"?>
<!-- Generator: Adobe Illustrator 13.0.0, SVG Export Plug-In . SVG Version: 6.00 Build 14948)  -->
<!DOCTYPE svg PUBLIC "-//W3C//DTD SVG 1.1//EN" "http://www.w3.org/Graphics/SVG/1.1/DTD/svg11.dtd">
<svg version="1.1" id="Layer_1" xmlns="http://www.w3.org/2000/svg" xmlns:xlink="http://www.w3.org/1999/xlink" x="0px" y="0px"
	 width="1200px" height="1200px" viewBox="0 0 1200 1200" enable-background="new 0 0 1200 1200" xml:space="preserve">
<g>
	<path fill="#25C485" d="M963.95,405.969c0-92.567-160.572-167.607-358.626-167.607c-198.066,0-358.642,75.04-358.642,167.607
		c0,13.711,3.605,27.023,10.261,39.79c53.578,149.956,162.755,417.138,348.381,515.88c185.62-98.741,294.772-365.924,348.377-515.88
		C960.342,432.986,963.95,419.679,963.95,405.969z"/>
	<path fill="#F3EFE9" stroke="#363032" stroke-width="0.681" stroke-miterlimit="10" d="M914.625,419.178
		c0-80.746-138.482-146.192-309.301-146.192c-170.824,0-309.313,65.446-309.313,146.192c0,11.945,3.113,23.571,8.848,34.703
		c46.208,130.787,140.372,382.318,300.465,468.43c160.091-86.112,254.224-337.643,300.456-468.43
		C911.506,442.736,914.625,431.123,914.625,419.178z"/>
	<g>
		<path fill="#25C485" d="M242.11,477.628l45.734,2.495c100.436,5.523,205.458,8.304,312.163,8.304
			c106.688,0,211.711-2.781,312.16-8.304l45.7-2.495l7.5,45.17l21.664,130.468l9.34,56.073l-56.747,3.329
			c-109.088,6.442-223.344,9.692-339.617,9.692c-116.314,0-230.552-3.25-339.637-9.692l-56.747-3.329l9.307-56.073l21.67-130.468
			L242.11,477.628L242.11,477.628z"/>
		<path fill="#25C485" d="M1108.986,484.05l-71.804,90.666l-12.059,15.234l11.412,8.278L1150,680.615l-139.851,9.991
			c-21.109,1.499-42.725,2.904-64.212,4.169l-46.276,2.71l-7.237-45.77l-14.883-94.345l-8.832-55.865l56.486-3.159
			c10.307-0.566,22.885-1.922,35.061-3.236c11.203-1.173,22.797-2.416,33.349-3.14L1108.986,484.05L1108.986,484.05z"/>
		<path fill="#25C485" d="M90.995,484.05l115.387,7.92c10.532,0.724,22.122,1.968,33.309,3.14
			c12.18,1.315,24.764,2.671,35.123,3.236l56.458,3.159l-8.81,55.865l-14.877,94.345l-7.272,45.77l-46.261-2.711
			c-21.516-1.263-43.102-2.67-64.195-4.169L50,680.615l113.468-82.388l11.376-8.278l-12.05-15.234L90.995,484.05L90.995,484.05z"/>
	</g>
	<g>
		<g>
			<path fill="#F2EEE9" d="M245.607,481.959l41.998,2.313c100.546,5.522,205.641,8.317,312.401,8.317
				c106.733,0,211.835-2.795,312.359-8.317l42.014-2.313l6.907,41.522l21.667,130.448l8.548,51.54l-52.136,3.048
				c-108.987,6.436-223.168,9.692-339.359,9.692c-116.229,0-230.415-3.257-339.398-9.692l-52.116-3.048l8.562-51.54l21.657-130.448
				L245.607,481.959L245.607,481.959z"/>
			<path fill="#F2EEE9" d="M1099.909,488.844l-65.951,83.292l-14.795,18.636l14.912,10.818l104.239,75.665l-128.488,9.203
				c-21.077,1.511-42.636,2.918-64.13,4.169l-42.506,2.494l-6.65-42.057l-14.912-94.353l-8.077-51.305l51.872-2.912
				c10.425-0.599,23.058-1.935,35.282-3.211c11.167-1.218,22.728-2.437,33.192-3.179L1099.909,488.844L1099.909,488.844z"/>
			<path fill="#F2EEE9" d="M100.078,488.844l106.008,7.263c10.473,0.742,22.021,1.961,33.188,3.146
				c12.235,1.309,24.881,2.645,35.296,3.243l51.882,2.912l-8.103,51.305l-14.915,94.353l-6.634,42.057l-42.502-2.494
				c-21.475-1.251-43.04-2.658-64.153-4.169l-128.475-9.203l104.256-75.665l14.905-10.818l-14.772-18.636L100.078,488.844
				L100.078,488.844z"/>
		</g>
	</g>
	<g>
		<path fill="#25C485" d="M267.248,508.957l18.944,1.048c101.005,5.536,206.566,8.337,313.815,8.337
			c107.218,0,212.799-2.801,313.779-8.337l18.963-1.048l3.101,18.765l21.666,130.469l3.869,23.22l-23.539,1.394
			c-108.453,6.383-222.143,9.653-337.839,9.653c-115.742,0-229.405-3.27-337.862-9.653L238.6,681.41l3.856-23.22l21.683-130.501
			L267.248,508.957L267.248,508.957z"/>
		<path fill="#25C485" d="M1043.511,518.538l-29.786,37.608l-31.445,39.724l36.656,26.567l47.06,34.177l-57.992,4.155
			c-21.021,1.479-42.521,2.885-63.811,4.115l-19.195,1.147l-2.983-18.98l-14.901-94.358l-3.661-23.174l23.426-1.29
			c11.057-0.625,24.034-2.032,36.585-3.342c10.913-1.166,22.201-2.384,32.215-3.055L1043.511,518.538L1043.511,518.538z"/>
		<path fill="#25C485" d="M156.489,518.538l47.844,3.296c9.978,0.67,21.256,1.875,32.188,3.055
			c12.564,1.31,25.523,2.717,36.595,3.342l23.435,1.289l-3.667,23.175l-14.893,94.358l-2.999,18.98l-19.182-1.147
			c-21.406-1.23-42.858-2.638-63.824-4.116l-57.978-4.154l47.046-34.176l36.644-26.568l-31.44-39.725L156.489,518.538
			L156.489,518.538z"/>
	</g>
	<g>
		<polygon fill="#25C485" points="524.439,374.835 556.739,439.447 644.837,439.447 679.755,370.041 636.025,398.329 
			600.785,336.66 571.419,401.272 		"/>
		<polygon fill="#25C485" points="535.101,438.255 517.633,410.788 503.893,438.255 		"/>
		<polygon fill="#25C485" points="664.901,438.255 682.381,410.788 696.11,438.255 		"/>
	</g>
	<g>
		<path fill="#FDE74C" d="M344.291,636.943l7.513-76.604l-7.715-0.391l1.198-12.012l22.497,1.159
			c8.337,0.425,14.697,3.05,19.058,7.868c4.364,4.827,6.188,11.229,5.465,19.241c-0.541,5.94-2.342,10.747-5.409,14.408
			c-3.067,3.673-7.061,5.646-11.976,5.927l-0.022,0.273c5.483,1.36,9.594,4.396,12.328,9.105c2.753,4.715,3.827,10.356,3.237,16.935
			c-0.804,8.942-4.027,15.847-9.669,20.699c-5.644,4.872-13.252,7.061-22.793,6.56l-22.757-1.199l1.23-12.389L344.291,636.943z
			 M362.101,602.918l-3.32,34.775c5.348,0.278,9.343-0.887,11.98-3.473c2.628-2.599,4.217-6.871,4.777-12.838
			c0.492-5.275,0.097-9.249-1.173-11.944c-1.277-2.684-2.847-4.397-4.748-5.152C367.716,603.53,365.208,603.074,362.101,602.918z
			 M366.101,561.076l-2.831,29.648c2.922,0.117,5.286-0.053,7.097-0.502c1.804-0.442,3.374-1.681,4.719-3.72
			c1.342-2.026,2.218-5.269,2.628-9.698c0.508-5.451,0.029-9.358-1.43-11.742C374.819,562.679,371.422,561.35,366.101,561.076z"/>
		<path fill="#FDE74C" d="M394.785,651.904l0.85-12.421l7.563,0.247l5.184-76.739l-7.464-0.229l0.824-12.037l46.583,1.479
			l-1.762,29.18l-12.284-0.397l1.071-17.137l-12.64-0.403l-1.976,30.437l10.346,0.332l-0.772,12.213l-10.373-0.333l-2.211,34.099
			l12.818,0.417l1.195-19.071l12.371,0.396l-1.901,31.492L394.785,651.904z"/>
		<path fill="#FDE74C" d="M453.164,653.682l1.615-35.229l12.371,0.241l-0.41,9.405c-0.237,5.479,0.166,9.341,1.209,11.581
			c1.052,2.247,2.993,3.4,5.829,3.459c2.197,0.039,4.006-0.828,5.422-2.619c1.426-1.784,2.204-4.2,2.317-7.236
			c0.107-2.573-0.243-5.394-1.055-8.454c-0.82-3.062-1.823-5.589-3.041-7.601c-1.215-2.007-4.329-6.384-9.324-13.145
			c-5.146-6.917-8.535-12.447-10.147-16.609c-1.612-4.155-2.289-8.981-2.035-14.479c0.299-6.559,2.035-11.881,5.2-15.964
			c3.172-4.084,7.08-6.077,11.733-5.986c3.902,0.072,7.246,1.681,10.03,4.808l0.117-2.964l12.232,0.235l-1.17,29.857l-12.297-0.229
			l0.313-7.587c0.176-4.175-0.244-7.185-1.244-9.041c-1.003-1.856-2.671-2.807-5.002-2.847c-3.947-0.078-6.028,2.326-6.243,7.236
			c-0.124,2.833,0.341,5.759,1.387,8.773c1.059,3.016,2.971,6.337,5.748,9.966l6.031,7.894
			c9.138,12.017,13.509,23.455,13.095,34.299c-0.271,7.111-2.24,12.987-5.915,17.599c-3.686,4.637-8.135,6.898-13.349,6.794
			c-4.253-0.079-7.861-1.798-10.829-5.14l-0.139,3.218L453.164,653.682z"/>
		<path fill="#FDE74C" d="M558.972,553.768l-0.622,36.632l-10.757-0.092l0.488-26.118l-8.621-0.065l-1.604,78.361l8.135,0.077
			l-0.241,12.435l-30.88-0.28l0.303-12.434l8.136,0.085l1.797-78.375l-8.616-0.078l-0.648,26.112l-10.753-0.105l0.964-36.624
			L558.972,553.768z"/>
		<path fill="#FDE74C" d="M618.081,642.636l-0.685-76.856l-8.284,0.059l-0.091-12.049l25.075-0.157
			c8.747-0.052,15.629,2.632,20.673,8.077c5.052,5.452,7.666,13.033,7.825,22.764c0.166,9.634-2.058,17.208-6.672,22.699
			c-4.631,5.516-12.493,8.304-23.595,8.382l0.309,26.991l8.539-0.059l0.157,12.439l-31.564,0.195l-0.091-12.433L618.081,642.636z
			 M631.743,565.694l0.449,37.601c3.243-0.033,5.924-0.391,8.018-1.107c2.097-0.703,3.843-2.429,5.256-5.157
			c1.407-2.736,2.065-6.943,1.983-12.604c-0.098-7.289-1.465-12.238-4.084-14.863C640.744,566.958,636.878,565.661,631.743,565.694z
			"/>
		<path fill="#FDE74C" d="M688.971,608.005l0.978,33.999l7.649-0.104l0.372,12.434l-30.935,0.417l-0.311-12.434l8.683-0.123
			l-2.003-76.831l-8.568,0.117l-0.297-12.043l25.344-0.332c8.562-0.117,15.404,2.26,20.549,7.132
			c5.143,4.878,7.855,11.418,8.143,19.625c0.365,10.643-3.419,18.621-11.359,23.923l12.372,37.829l6.14-0.085l0.439,12.427
			l-17.426,0.235l-14.078-46.668C693.179,607.816,691.287,607.979,688.971,608.005z M687.741,565.173l0.886,30.606
			c5.464-0.072,9.356-1.375,11.665-3.876c2.316-2.509,3.384-6.461,3.217-11.841c-0.175-5.68-1.508-9.601-3.976-11.758
			C697.061,566.15,693.131,565.102,687.741,565.173z"/>
		<path fill="#FDE74C" d="M730.543,653.859l-0.518-12.429l7.857-0.149l-3.253-76.806l-7.747,0.15l-0.492-12.05l29.767-0.54
			l0.557,12.043l-7.741,0.137l3.452,76.8l7.852-0.156l0.577,12.433L730.543,653.859z"/>
		<path fill="#FDE74C" d="M800.017,615.892l12.923,3.212c0.554,10.707-0.893,19.207-4.345,25.486
			c-3.452,6.312-8.516,9.542-15.179,9.698c-8.204,0.188-14.521-3.966-18.947-12.447c-4.406-8.454-7.054-21.37-7.963-38.669
			c-1.855-35.394,4.107-53.071,17.843-53.39c4.829-0.111,8.627,1.96,11.383,6.22l0.276-0.013l-0.283-4.813l12.22-0.287l1.954,32.449
			l-12.291,0.28c-0.392-6.8-1.479-11.965-3.267-15.515c-1.774-3.55-4.12-5.288-7.038-5.224c-2.152,0.052-3.664,0.95-4.522,2.69
			c-0.876,1.752-1.35,5.184-1.428,10.304c-0.077,5.146,0.205,13.509,0.851,25.128c0.88,16.068,2.025,26.743,3.43,31.967
			c1.401,5.237,3.843,7.81,7.298,7.731c2.951-0.065,5-2.026,6.152-5.862C800.222,630.996,800.528,624.679,800.017,615.892z"/>
		<path fill="#FDE74C" d="M823.641,651.852l-0.834-12.407l7.565-0.222l-5.24-76.727l-7.458,0.202l-0.804-12.023l46.563-1.29
			l2.195,29.154l-12.277,0.339l-1.254-17.13l-12.642,0.352l2.16,30.417l10.346-0.286l0.889,12.213l-10.365,0.287l2.409,34.09
			l12.818-0.365l-1.397-19.045l12.369-0.353l2.367,31.459L823.641,651.852z"/>
	</g>
	<path fill="#25C485" d="M508.983,747.546c0,0,47.237,78.289,94.358,120.099c42.336-40.591,78.446-95.582,95.592-121.244
		C670.096,751.206,551.043,751.16,508.983,747.546z"/>
</g>
</svg>
