<?xml version="1.0" encoding="utf-8"?>
<!-- Generator: Adobe Illustrator 13.0.0, SVG Export Plug-In . SVG Version: 6.00 Build 14948)  -->
<!DOCTYPE svg PUBLIC "-//W3C//DTD SVG 1.1//EN" "http://www.w3.org/Graphics/SVG/1.1/DTD/svg11.dtd">
<svg version="1.1" id="Layer_1" xmlns="http://www.w3.org/2000/svg" xmlns:xlink="http://www.w3.org/1999/xlink" x="0px" y="0px"
	 width="642.342px" height="358.5px" viewBox="0 0 642.342 358.5" enable-background="new 0 0 642.342 358.5" xml:space="preserve">
<g>
	<g>
		<g opacity="0.3">
			<g>
				<defs>
					<rect id="SVGID_1_" x="52" y="268.5" width="548" height="90"/>
				</defs>
				<clipPath id="SVGID_2_">
					<use xlink:href="#SVGID_1_"  overflow="visible"/>
				</clipPath>
				<g clip-path="url(#SVGID_2_)">
					<defs>
						<rect id="SVGID_3_" x="52" y="268.5" width="548" height="90"/>
					</defs>
					<clipPath id="SVGID_4_">
						<use xlink:href="#SVGID_3_"  overflow="visible"/>
					</clipPath>
				</g>
			</g>
		</g>
		<g opacity="0.4">
			<g>
				<defs>
					<rect id="SVGID_5_" y="270.5" width="333" height="83"/>
				</defs>
				<clipPath id="SVGID_6_">
					<use xlink:href="#SVGID_5_"  overflow="visible"/>
				</clipPath>
				<g clip-path="url(#SVGID_6_)">
					<defs>
						<rect id="SVGID_7_" y="270.5" width="333" height="83"/>
					</defs>
					<clipPath id="SVGID_8_">
						<use xlink:href="#SVGID_7_"  overflow="visible"/>
					</clipPath>
				</g>
			</g>
		</g>
		<path fill="#E51E28" d="M506.254,90.254C480.831,72.48,403.175,6.841,403.175,6.841s-4.75-9.249-33.155-6.238
			C366.171,1.01,74.281,53.525,74.281,53.525S43.53,54.236,50.28,97.263c6.751,43.02,30.64,192.261,30.64,192.261
			s-1.136,25.76,40.988,18.844c42.127-6.918,300.782-50.12,300.782-50.12s13.217-1.225,24.938-24.07
			c11.721-22.849,66.05-104.484,66.05-104.484S531.673,108.03,506.254,90.254 M463.749,133.171
			c-9.024-1.699-14.964-10.391-13.269-19.418c1.697-9.025,10.391-14.969,19.419-13.271c9.025,1.699,14.965,10.395,13.269,19.418
			C481.467,128.929,472.777,134.872,463.749,133.171"/>
		<path d="M249.077,227.16c0,0,0.891,4.49-3.995-7.374s2.094-13.959,2.094-13.959s103.992-37.688,113.065-40.48
			s11.497,4.237,11.497,4.237l5.758,13.607l112.655-19.99c11.364-17.422,23.527-33.508,23.527-33.508s17.994-21.663-7.425-39.439
			C480.832,72.48,403.175,6.841,403.175,6.841s-4.75-9.249-33.154-6.238C366.171,1.01,74.28,53.525,74.28,53.525
			s-30.751,0.711-24,43.738C54.196,122.22,67.85,208.5,75.292,255.077L249.077,227.16z M450.48,113.753
			c1.697-9.025,10.391-14.969,19.419-13.271c9.025,1.699,14.965,10.395,13.27,19.418c-1.702,9.029-10.392,14.972-19.419,13.271
			C454.725,131.472,448.785,122.78,450.48,113.753"/>
		<path fill="#636467" d="M470.546,95.261c-11.995-2.258-23.552,5.637-25.804,17.633c-2.256,11.993,5.636,23.541,17.637,25.8
			c11.991,2.256,23.54-5.634,25.8-17.628C490.441,109.069,482.54,97.517,470.546,95.261 M463.627,132.053
			c-8.33-1.566-13.805-9.585-12.243-17.909c1.569-8.328,9.587-13.81,17.913-12.242c8.325,1.564,13.805,9.584,12.239,17.913
			C479.968,128.14,471.95,133.62,463.627,132.053"/>
		<path fill="#7E8082" d="M510.396,136.837c-0.516-0.098-0.983-0.425-1.193-0.931c-0.347-0.82-0.017-1.74,0.797-2.086
			c0-0.004,0.112-0.05,0.116-0.054c4.665-1.951,19.709-9.496,17.451-24.462c-2.437-16.147-19.688-16.533-20.427-16.542
			c-0.889-0.001-1.598-0.739-1.593-1.626c0.014-0.889,0.732-1.598,1.624-1.593c0.203,0.004,20.727,0.392,23.582,19.284
			c2.066,13.717-8.663,23.413-19.392,27.911C511.052,136.867,510.716,136.895,510.396,136.837"/>
		<path fill="#FFFFFF" d="M297.9,233.278c0.553,1.588,0.786,3.072,0.695,4.451c-0.091,1.379-0.442,2.634-1.053,3.76
			c-0.614,1.128-1.478,2.115-2.599,2.962c-1.122,0.848-2.436,1.533-3.942,2.057c-1.304,0.456-2.634,0.704-3.991,0.743
			c-1.355,0.04-2.624-0.157-3.803-0.594c-1.179-0.432-2.232-1.093-3.159-1.98c-0.925-0.888-1.638-2.045-2.134-3.471l-0.981-2.81
			c-0.099-0.284-0.087-0.645,0.037-1.075c0.125-0.432,0.347-0.703,0.675-0.819l5.009-1.745c0.652-0.227,1.139-0.009,1.463,0.655
			c0.322,0.664,0.653,1.415,0.991,2.258c0.34,0.841,0.783,1.556,1.331,2.14c0.546,0.588,1.369,0.688,2.468,0.305
			c0.651-0.228,1.158-0.678,1.517-1.351c0.359-0.675,0.426-1.337,0.198-1.987c-0.341-0.979-1.002-1.923-1.984-2.839
			c-0.98-0.914-2.077-1.765-3.288-2.555c-1.213-0.785-2.429-1.526-3.652-2.221c-1.224-0.691-2.276-1.318-3.156-1.88
			c-0.993-0.613-1.896-1.211-2.717-1.793c-0.82-0.581-1.585-1.205-2.296-1.872c-0.712-0.664-1.34-1.417-1.883-2.257
			c-0.544-0.837-1.015-1.828-1.412-2.967c-0.426-1.223-0.656-2.5-0.688-3.837c-0.032-1.337,0.15-2.622,0.541-3.854
			c0.393-1.233,1.015-2.329,1.868-3.29c0.854-0.959,1.952-1.676,3.297-2.144l3.176-1.107c1.222-0.427,2.413-0.578,3.574-0.458
			c1.162,0.12,2.217,0.46,3.167,1.021c0.947,0.558,1.788,1.297,2.516,2.207c0.728,0.909,1.299,1.955,1.711,3.138l0.895,2.563
			c0.156,0.45,0.153,0.872-0.004,1.27c-0.159,0.397-0.46,0.676-0.908,0.832l-4.4,1.535c-0.734,0.255-1.288,0.073-1.665-0.552
			c-0.377-0.621-0.738-1.33-1.083-2.123c-0.345-0.792-0.757-1.484-1.236-2.07c-0.478-0.586-1.207-0.71-2.184-0.369
			c-0.734,0.255-1.259,0.714-1.578,1.372c-0.317,0.659-0.35,1.355-0.094,2.088c0.299,0.856,0.931,1.721,1.899,2.595
			c0.966,0.872,2.045,1.707,3.237,2.502c1.19,0.795,2.39,1.521,3.599,2.171c1.21,0.653,2.213,1.205,3.01,1.656
			c1.142,0.653,2.161,1.28,3.056,1.884c0.895,0.601,1.709,1.266,2.44,1.991c0.734,0.728,1.39,1.561,1.969,2.5
			C296.928,230.854,297.446,231.974,297.9,233.278"/>
		<path fill="#FFFFFF" d="M324.007,233.084c0.155,0.312,0.154,0.609,0.003,0.89c-0.153,0.281-0.393,0.479-0.72,0.594l-5.497,1.916
			c-0.653,0.227-1.166,0.03-1.543-0.592c-0.379-0.622-0.729-1.333-1.053-2.136c-0.326-0.801-0.687-1.507-1.083-2.124
			c-0.398-0.613-0.942-0.799-1.634-0.559l-2.445,0.853c-0.732,0.254-1.064,0.746-0.992,1.476c0.07,0.729,0.238,1.504,0.502,2.327
			c0.263,0.822,0.442,1.595,0.534,2.314c0.091,0.723-0.19,1.195-0.84,1.422l-5.254,1.833c-0.368,0.126-0.675,0.098-0.922-0.09
			c-0.25-0.187-0.408-0.451-0.482-0.791l-0.085-0.244c-0.961-3.411-1.753-6.858-2.373-10.343c-0.622-3.482-1.323-6.938-2.106-10.365
			c-0.598-2.625-1.144-5.243-1.643-7.856c-0.5-2.611-0.919-5.252-1.255-7.923c-0.043-0.121-0.096-0.434-0.155-0.938
			c-0.063-0.503-0.101-1.038-0.116-1.604c-0.014-0.566-0.011-1.079,0.01-1.545c0.02-0.462,0.093-0.719,0.215-0.761l8.554-2.982
			c0.122-0.042,0.338,0.122,0.65,0.492c0.312,0.373,0.632,0.797,0.959,1.278c0.327,0.479,0.627,0.944,0.899,1.397
			s0.45,0.733,0.535,0.843c1.38,2.26,2.697,4.564,3.95,6.912c1.255,2.351,2.483,4.73,3.691,7.143
			c1.612,3.186,3.278,6.326,4.999,9.427c1.72,3.1,3.272,6.306,4.654,9.615L324.007,233.084z M310.092,222.653l-7.809-17.285
			l4.473,18.724l0.042,0.123c0.117,0.463,0.412,0.689,0.891,0.682c0.476-0.005,0.877-0.064,1.204-0.18
			c0.448-0.155,0.823-0.39,1.126-0.701c0.302-0.311,0.34-0.725,0.116-1.239L310.092,222.653z"/>
		<path fill="#FFFFFF" d="M342.49,227.428c-0.132,0.343-0.381,0.577-0.748,0.705l-13.687,4.771
			c-0.407,0.144-0.766,0.097-1.075-0.137c-0.312-0.235-0.529-0.537-0.657-0.902l-13.1-37.574c-0.142-0.406-0.129-0.823,0.043-1.248
			c0.172-0.428,0.461-0.71,0.869-0.852l4.766-1.662c0.406-0.143,0.782-0.112,1.126,0.086c0.344,0.201,0.578,0.484,0.707,0.851
			l10.779,30.915c0.397,1.139,1.126,1.525,2.185,1.156l5.743-2.002c0.407-0.142,0.758-0.116,1.054,0.077
			c0.297,0.193,0.508,0.475,0.636,0.841l1.364,3.91C342.622,226.731,342.621,227.086,342.49,227.428"/>
		<path fill="#FFFFFF" d="M362.141,220.609c-0.118,0.315-0.341,0.53-0.666,0.644l-14.418,5.026
			c-0.366,0.129-0.727,0.048-1.078-0.241c-0.352-0.288-0.584-0.595-0.697-0.921l-13.059-37.452c-0.156-0.448-0.157-0.87,0.002-1.268
			s0.462-0.675,0.911-0.832l13.562-4.728c0.367-0.128,0.722-0.126,1.066,0.006c0.342,0.131,0.577,0.38,0.705,0.747l1.512,4.337
			c0.113,0.328,0.111,0.646-0.005,0.963c-0.122,0.316-0.343,0.529-0.667,0.643l-5.989,2.087c-0.448,0.157-0.785,0.47-1.012,0.935
			c-0.225,0.469-0.258,0.925-0.102,1.373l2.087,5.987c0.398,1.142,1.168,1.514,2.307,1.115l5.134-1.79
			c0.814-0.283,1.377,0.023,1.688,0.918l1.362,3.91c0.157,0.449,0.171,0.844,0.04,1.188c-0.133,0.344-0.424,0.592-0.869,0.748
			l-5.5,1.918c-0.408,0.143-0.643,0.452-0.703,0.93c-0.063,0.479-0.035,0.881,0.075,1.206l2.688,7.7
			c0.396,1.139,1.125,1.524,2.186,1.154l6.353-2.216c0.366-0.128,0.713-0.088,1.035,0.119c0.323,0.208,0.542,0.473,0.656,0.8
			l1.405,4.034C362.265,219.974,362.26,220.295,362.141,220.609"/>
		<path fill="#FFFFFF" d="M130.142,296.177l-0.461,0.074c-3.762,0.608-7.317,0.97-10.567,1.072
			c-0.553,0.018-0.986,0.479-0.968,1.032c0.017,0.541,0.461,0.967,0.999,0.967c0.011,0,0.021,0,0.032,0
			c3.336-0.105,6.977-0.475,10.824-1.097l0.452-0.072c0.545-0.086,0.918-0.598,0.832-1.144S130.685,296.097,130.142,296.177"/>
		<path fill="#FFFFFF" d="M111.267,297.028c-4.014-0.476-7.498-1.479-10.355-2.983c-0.491-0.258-1.094-0.069-1.351,0.419
			c-0.257,0.489-0.069,1.094,0.419,1.351c3.076,1.618,6.794,2.695,11.052,3.2c0.04,0.005,0.079,0.007,0.119,0.007
			c0.499,0,0.931-0.374,0.991-0.882C112.207,297.59,111.815,297.094,111.267,297.028"/>
		<path fill="#FFFFFF" d="M87.025,252.349l-1.871-11.093c-0.092-0.545-0.607-0.909-1.152-0.82c-0.545,0.092-0.912,0.608-0.82,1.152
			l1.871,11.093c0.082,0.488,0.506,0.834,0.985,0.834c0.055,0,0.111-0.005,0.168-0.014C86.75,253.409,87.117,252.893,87.025,252.349
			"/>
		<path fill="#FFFFFF" d="M149.221,293.068l-11.125,1.815c-0.545,0.089-0.915,0.604-0.826,1.148c0.08,0.49,0.504,0.839,0.986,0.839
			c0.053,0,0.108-0.004,0.162-0.013l11.125-1.815c0.545-0.09,0.915-0.604,0.826-1.148
			C150.28,293.351,149.769,292.979,149.221,293.068"/>
		<path fill="#FFFFFF" d="M90.236,271.375l-1.874-11.101c-0.091-0.545-0.608-0.903-1.152-0.82c-0.544,0.092-0.912,0.608-0.819,1.152
			l1.873,11.101c0.082,0.488,0.506,0.834,0.985,0.834c0.055,0,0.111-0.005,0.168-0.014
			C89.961,272.436,90.328,271.919,90.236,271.375"/>
		<path fill="#FFFFFF" d="M91.637,279.909l0.001-0.11c0.003-0.068-0.001-0.136-0.013-0.201l-0.044-0.262
			c-0.091-0.545-0.607-0.909-1.152-0.82c-0.544,0.092-0.911,0.608-0.82,1.152l0.029,0.171l-0.001,0.07
			c0,0.951,0.187,5.933,3.87,10.613c0.197,0.251,0.49,0.382,0.786,0.382c0.217,0,0.435-0.07,0.618-0.214
			c0.434-0.342,0.509-0.97,0.167-1.404C91.803,285.123,91.637,280.745,91.637,279.909"/>
		<path fill="#FFFFFF" d="M100.166,57.145c-0.096-0.544-0.612-0.907-1.159-0.811L87.89,58.303c-0.544,0.096-0.907,0.615-0.811,1.159
			c0.086,0.485,0.508,0.826,0.984,0.826c0.058,0,0.116-0.005,0.175-0.016l11.117-1.968C99.898,58.207,100.262,57.689,100.166,57.145
			"/>
		<path fill="#FFFFFF" d="M168.268,289.952l-11.111,1.818c-0.545,0.09-0.914,0.604-0.825,1.148c0.08,0.49,0.504,0.839,0.985,0.839
			c0.054,0,0.109-0.004,0.163-0.013l11.111-1.818c0.545-0.09,0.915-0.604,0.825-1.148
			C169.328,290.233,168.816,289.864,168.268,289.952"/>
		<path fill="#FFFFFF" d="M214.142,36.984c-0.097-0.544-0.614-0.905-1.159-0.811l-11.075,1.957
			c-0.544,0.096-0.907,0.615-0.811,1.159c0.086,0.485,0.508,0.826,0.984,0.826c0.058,0,0.116-0.005,0.175-0.015l11.075-1.957
			C213.875,38.046,214.238,37.527,214.142,36.984"/>
		<path fill="#FFFFFF" d="M225.344,280.592l-11.097,1.821c-0.545,0.089-0.914,0.604-0.824,1.148c0.08,0.49,0.504,0.838,0.985,0.838
			c0.054,0,0.108-0.004,0.164-0.013l11.096-1.822c0.545-0.089,0.914-0.604,0.825-1.148S225.888,280.493,225.344,280.592"/>
		<path fill="#FFFFFF" d="M233.143,33.627c-0.096-0.544-0.614-0.908-1.159-0.811l-11.094,1.959
			c-0.544,0.097-0.907,0.615-0.811,1.159c0.086,0.485,0.508,0.826,0.984,0.826c0.058,0,0.116-0.005,0.175-0.015l11.094-1.959
			C232.876,34.689,233.239,34.171,233.143,33.627"/>
		<path fill="#FFFFFF" d="M206.325,283.712l-11.1,1.821c-0.545,0.089-0.914,0.604-0.824,1.148c0.08,0.49,0.504,0.838,0.986,0.838
			c0.053,0,0.107-0.004,0.162-0.014l11.1-1.821c0.545-0.089,0.914-0.604,0.825-1.148S206.871,283.617,206.325,283.712"/>
		<path fill="#FFFFFF" d="M187.3,286.833l-11.103,1.819c-0.545,0.09-0.915,0.604-0.825,1.149c0.08,0.49,0.504,0.838,0.986,0.838
			c0.053,0,0.108-0.004,0.162-0.013l11.103-1.819c0.545-0.09,0.915-0.604,0.825-1.149C188.36,287.113,187.848,286.745,187.3,286.833
			"/>
		<path fill="#FFFFFF" d="M195.161,40.338c-0.096-0.544-0.61-0.907-1.159-0.811l-11.075,1.959c-0.544,0.096-0.907,0.615-0.811,1.159
			c0.086,0.485,0.508,0.826,0.984,0.826c0.058,0,0.116-0.005,0.175-0.015l11.075-1.959
			C194.894,41.401,195.257,40.882,195.161,40.338"/>
		<path fill="#FFFFFF" d="M176.177,43.694c-0.097-0.544-0.613-0.907-1.159-0.811l-11.077,1.959c-0.544,0.097-0.907,0.616-0.811,1.16
			c0.086,0.484,0.508,0.825,0.984,0.825c0.058,0,0.116-0.005,0.175-0.015l11.077-1.959C175.91,44.757,176.273,44.238,176.177,43.694
			"/>
		<path fill="#FFFFFF" d="M74.213,176.314l-1.865-11.088c-0.093-0.544-0.609-0.904-1.153-0.82c-0.544,0.092-0.911,0.607-0.82,1.152
			l1.865,11.088c0.083,0.488,0.506,0.834,0.986,0.834c0.054,0,0.111-0.005,0.167-0.014
			C73.937,177.375,74.304,176.859,74.213,176.314"/>
		<path fill="#FFFFFF" d="M126.127,53.549c0.058,0,0.116-0.005,0.175-0.015l11.086-1.962c0.544-0.096,0.907-0.615,0.811-1.159
			c-0.097-0.544-0.613-0.905-1.159-0.811l-11.086,1.962c-0.544,0.096-0.907,0.615-0.811,1.159
			C125.229,53.208,125.651,53.549,126.127,53.549"/>
		<path fill="#FFFFFF" d="M69.9,66.123c0.209,0,0.421-0.066,0.602-0.202c3.532-2.666,7.262-3.848,9.771-4.371
			c0.54-0.113,0.887-0.642,0.774-1.183c-0.112-0.54-0.643-0.887-1.183-0.775c-2.708,0.564-6.739,1.844-10.568,4.733
			c-0.44,0.333-0.528,0.96-0.195,1.401C69.297,65.985,69.597,66.123,69.9,66.123"/>
		<path fill="#FFFFFF" d="M145.125,50.187c0.058,0,0.116-0.005,0.175-0.015l11.081-1.96c0.543-0.096,0.907-0.615,0.81-1.159
			c-0.096-0.544-0.615-0.902-1.159-0.811l-11.08,1.96c-0.544,0.096-0.907,0.615-0.811,1.159
			C144.227,49.846,144.648,50.187,145.125,50.187"/>
		<path fill="#FFFFFF" d="M413.043,30.611c0.186,0.15,0.408,0.223,0.629,0.223c0.292,0,0.58-0.126,0.778-0.37
			c0.348-0.43,0.281-1.059-0.147-1.407c-3.316-2.686-6.268-5.085-8.732-7.092c-0.429-0.349-1.06-0.284-1.407,0.144
			c-0.349,0.428-0.284,1.058,0.144,1.406C406.773,25.524,409.727,27.923,413.043,30.611"/>
		<path fill="#FFFFFF" d="M488.897,90.144c0.178,0.128,0.383,0.19,0.586,0.19c0.311,0,0.615-0.143,0.811-0.413
			c0.324-0.447,0.225-1.072-0.223-1.396c-2.619-1.899-5.652-4.149-9.018-6.688c-0.441-0.334-1.068-0.246-1.4,0.196
			c-0.333,0.441-0.245,1.068,0.195,1.401C483.224,85.98,486.268,88.238,488.897,90.144"/>
		<path fill="#FFFFFF" d="M458.224,66.731c0.183,0.144,0.4,0.213,0.616,0.213c0.297,0,0.59-0.131,0.787-0.382
			c0.342-0.435,0.266-1.063-0.169-1.404c-2.916-2.291-5.869-4.621-8.823-6.96c-0.433-0.343-1.063-0.269-1.405,0.163
			c-0.343,0.433-0.27,1.062,0.163,1.405C452.349,62.106,455.304,64.439,458.224,66.731"/>
		<path fill="#FFFFFF" d="M60.17,82.271c0.065,0.013,0.131,0.019,0.195,0.019c0.468,0,0.886-0.33,0.98-0.806
			c0.756-3.809,2.082-7.171,3.943-9.995c0.304-0.461,0.176-1.082-0.285-1.385c-0.461-0.306-1.081-0.177-1.385,0.284
			c-2.004,3.041-3.428,6.643-4.235,10.708C59.276,81.637,59.628,82.164,60.17,82.271"/>
		<path fill="#FFFFFF" d="M80.614,214.323l-1.868-11.088c-0.092-0.544-0.607-0.908-1.153-0.82c-0.544,0.092-0.912,0.607-0.82,1.152
			l1.868,11.088c0.083,0.488,0.506,0.834,0.986,0.834c0.055,0,0.111-0.005,0.167-0.014
			C80.339,215.384,80.705,214.868,80.614,214.323"/>
		<path fill="#FFFFFF" d="M61.468,100.256c-0.59-3.688-0.889-7.188-0.889-10.405l0.004-0.595c0.007-0.552-0.436-1.005-0.988-1.012
			h-0.013c-0.546,0-0.992,0.44-0.999,0.988l-0.004,0.619c0,3.322,0.308,6.929,0.914,10.72c0.079,0.493,0.504,0.843,0.987,0.843
			c0.052,0,0.105-0.004,0.158-0.013C61.184,101.314,61.555,100.801,61.468,100.256"/>
		<path fill="#FFFFFF" d="M244.36,277.469l-11.095,1.822c-0.545,0.089-0.914,0.604-0.824,1.148c0.08,0.49,0.504,0.838,0.985,0.838
			c0.054,0,0.109-0.004,0.163-0.014l11.095-1.821c0.545-0.089,0.914-0.604,0.825-1.148
			C245.42,277.749,244.91,277.385,244.36,277.469"/>
		<path fill="#FFFFFF" d="M83.818,233.335l-1.87-11.091c-0.092-0.545-0.615-0.905-1.152-0.82c-0.545,0.092-0.912,0.608-0.82,1.152
			l1.87,11.091c0.082,0.488,0.505,0.834,0.985,0.834c0.055,0,0.111-0.005,0.167-0.014C83.543,234.396,83.909,233.88,83.818,233.335"
			/>
		<path fill="#FFFFFF" d="M77.412,195.317l-1.867-11.088c-0.092-0.544-0.606-0.908-1.152-0.82c-0.544,0.092-0.912,0.607-0.82,1.152
			l1.866,11.088c0.083,0.488,0.506,0.834,0.986,0.834c0.054,0,0.111-0.005,0.167-0.014
			C77.136,196.379,77.502,195.862,77.412,195.317"/>
		<path fill="#FFFFFF" d="M64.637,119.278l-1.853-11.095c-0.091-0.545-0.607-0.913-1.15-0.822c-0.545,0.091-0.914,0.606-0.823,1.15
			l1.853,11.097c0.082,0.489,0.506,0.835,0.985,0.835c0.055,0,0.111-0.004,0.167-0.014
			C64.361,120.338,64.728,119.822,64.637,119.278"/>
		<path fill="#FFFFFF" d="M67.823,138.296l-1.86-11.092c-0.091-0.544-0.604-0.91-1.151-0.821c-0.545,0.091-0.913,0.607-0.822,1.151
			l1.86,11.093c0.082,0.489,0.506,0.835,0.985,0.835c0.055,0,0.111-0.005,0.167-0.014C67.547,139.357,67.914,138.841,67.823,138.296
			"/>
		<path fill="#FFFFFF" d="M71.016,157.308l-1.863-11.09c-0.092-0.544-0.6-0.91-1.152-0.821c-0.545,0.092-0.912,0.608-0.821,1.152
			l1.863,11.091c0.083,0.488,0.506,0.834,0.986,0.834c0.054,0,0.111-0.005,0.167-0.014C70.74,158.369,71.106,157.853,71.016,157.308
			"/>
		<path fill="#FFFFFF" d="M107.111,56.915c0.058,0,0.116-0.005,0.175-0.015l11.098-1.964c0.544-0.097,0.907-0.616,0.81-1.16
			c-0.096-0.544-0.613-0.902-1.159-0.81l-11.097,1.964c-0.544,0.096-0.907,0.615-0.811,1.159
			C106.213,56.574,106.635,56.915,107.111,56.915"/>
		<path fill="#FFFFFF" d="M442.74,223.364c-0.482-0.274-1.091-0.101-1.361,0.381c-0.728,1.293-1.369,2.469-1.913,3.515
			c-1.143,2.192-2.357,4.272-3.612,6.182c-0.303,0.461-0.176,1.081,0.287,1.385c0.169,0.111,0.359,0.164,0.548,0.164
			c0.325,0,0.645-0.158,0.837-0.451c1.291-1.965,2.541-4.104,3.714-6.355c0.536-1.028,1.166-2.186,1.882-3.458
			C443.393,224.244,443.221,223.635,442.74,223.364"/>
		<path fill="#FFFFFF" d="M252.116,30.277c-0.096-0.543-0.614-0.905-1.159-0.811l-11.075,1.955
			c-0.544,0.096-0.907,0.615-0.811,1.159c0.085,0.485,0.507,0.826,0.983,0.826c0.058,0,0.117-0.005,0.175-0.015l11.076-1.955
			C251.849,31.339,252.212,30.821,252.116,30.277"/>
		<path fill="#FFFFFF" d="M452.714,206.861c-0.468-0.291-1.085-0.148-1.378,0.319c-2.205,3.532-4.188,6.763-5.891,9.601
			c-0.284,0.474-0.131,1.088,0.343,1.372c0.161,0.097,0.339,0.143,0.514,0.143c0.34,0,0.671-0.173,0.858-0.485
			c1.698-2.828,3.673-6.048,5.873-9.571C453.325,207.771,453.183,207.154,452.714,206.861"/>
		<path fill="#FFFFFF" d="M435.562,46.188c-0.432-0.346-1.062-0.275-1.405,0.155c-0.346,0.431-0.276,1.06,0.155,1.406
			c2.876,2.304,5.816,4.653,8.784,7.016c0.185,0.146,0.403,0.217,0.622,0.217c0.294,0,0.586-0.128,0.782-0.377
			c0.345-0.432,0.273-1.061-0.158-1.405C441.375,50.838,438.436,48.491,435.562,46.188"/>
		<path fill="#FFFFFF" d="M415.66,249.312l-11.161,1.836c-0.545,0.089-0.914,0.604-0.824,1.148c0.08,0.49,0.505,0.838,0.985,0.838
			c0.054,0,0.108-0.004,0.163-0.014l11.161-1.836c0.545-0.09,0.914-0.604,0.824-1.148
			C416.72,249.591,416.204,249.216,415.66,249.312"/>
		<path fill="#FFFFFF" d="M428.67,42.941c0.293,0,0.583-0.128,0.78-0.374c0.346-0.43,0.277-1.059-0.152-1.405
			c-3.047-2.45-5.981-4.815-8.75-7.053c-0.431-0.347-1.06-0.279-1.407,0.15c-0.347,0.43-0.279,1.059,0.149,1.406
			c2.771,2.239,5.707,4.605,8.754,7.055C428.229,42.87,428.45,42.941,428.67,42.941"/>
		<path fill="#FFFFFF" d="M431.094,239.691c-2.643,2.964-5.434,5.323-8.295,7.014c-0.477,0.281-0.633,0.895-0.353,1.37
			c0.187,0.315,0.521,0.491,0.862,0.491c0.173,0,0.348-0.045,0.508-0.139c3.039-1.796,5.99-4.287,8.77-7.406
			c0.368-0.412,0.332-1.044-0.081-1.411C432.095,239.243,431.462,239.277,431.094,239.691"/>
		<path fill="#FFFFFF" d="M463.063,190.603c-0.464-0.298-1.083-0.165-1.383,0.299c-2.08,3.229-4.112,6.406-6.061,9.477
			c-0.296,0.466-0.157,1.084,0.31,1.38c0.166,0.105,0.351,0.155,0.534,0.155c0.331,0,0.655-0.165,0.846-0.464
			c1.944-3.067,3.975-6.238,6.053-9.464C463.66,191.521,463.526,190.901,463.063,190.603"/>
		<path fill="#FFFFFF" d="M505.62,126.271c-0.479-0.275-1.09-0.111-1.365,0.368c-1.114,1.936-2.083,3.091-2.092,3.103
			c-0.022,0.027-0.045,0.055-0.063,0.084c0,0-1.528,2.256-4.112,6.098c-0.308,0.458-0.187,1.079,0.272,1.388
			c0.171,0.115,0.365,0.17,0.557,0.17c0.322,0,0.638-0.155,0.831-0.442c2.381-3.54,3.863-5.732,4.08-6.052
			c0.2-0.244,1.16-1.441,2.26-3.351C506.264,127.158,506.1,126.546,505.62,126.271"/>
		<path fill="#FFFFFF" d="M473.576,174.452c-0.461-0.304-1.082-0.174-1.384,0.288c-2.047,3.122-4.106,6.276-6.146,9.416
			c-0.301,0.463-0.169,1.083,0.294,1.384c0.168,0.109,0.357,0.161,0.544,0.161c0.327,0,0.648-0.16,0.839-0.455
			c2.039-3.138,4.097-6.29,6.142-9.41C474.167,175.374,474.038,174.755,473.576,174.452"/>
		<path fill="#FFFFFF" d="M508.851,108.355c-0.159-0.528-0.716-0.831-1.246-0.669c-0.529,0.159-0.829,0.716-0.67,1.245
			c0.541,1.795,0.814,3.664,0.814,5.557c0,1.637-0.204,3.322-0.607,5.007c-0.128,0.537,0.203,1.077,0.74,1.205
			c0.078,0.019,0.157,0.028,0.233,0.028c0.452,0,0.862-0.309,0.972-0.768c0.439-1.837,0.662-3.678,0.662-5.472
			C509.749,112.4,509.446,110.336,508.851,108.355"/>
		<path fill="#FFFFFF" d="M503.435,102.166c0.197,0.261,0.496,0.398,0.8,0.398c0.209,0,0.421-0.065,0.601-0.202
			c0.441-0.332,0.529-0.959,0.197-1.4c-2.101-2.786-4.929-5.419-8.406-7.827c-0.456-0.315-1.077-0.201-1.392,0.253
			c-0.314,0.454-0.201,1.077,0.253,1.392C498.789,97.065,501.463,99.551,503.435,102.166"/>
		<path fill="#FFFFFF" d="M493.505,142.599c-1.87,2.793-3.978,5.945-6.249,9.356c-0.307,0.459-0.182,1.08,0.277,1.386
			c0.171,0.114,0.363,0.168,0.554,0.168c0.323,0,0.641-0.156,0.833-0.446c2.271-3.408,4.377-6.559,6.247-9.351
			c0.307-0.459,0.185-1.08-0.274-1.387S493.813,142.141,493.505,142.599"/>
		<path fill="#FFFFFF" d="M465.782,70.103c-0.436-0.34-1.064-0.261-1.403,0.175c-0.339,0.435-0.261,1.064,0.174,1.403
			c3.055,2.379,6.035,4.685,8.898,6.881c0.182,0.14,0.396,0.207,0.607,0.207c0.301,0,0.598-0.135,0.794-0.391
			c0.337-0.439,0.254-1.066-0.185-1.402C471.809,74.782,468.832,72.478,465.782,70.103"/>
		<path fill="#FFFFFF" d="M484.194,158.366c-0.462-0.309-1.081-0.18-1.386,0.28c-2,3.016-4.08,6.16-6.202,9.378
			c-0.304,0.462-0.177,1.082,0.284,1.386c0.17,0.111,0.361,0.165,0.55,0.165c0.325,0,0.644-0.158,0.836-0.449
			c2.12-3.218,4.2-6.361,6.198-9.374C484.78,159.292,484.654,158.671,484.194,158.366"/>
		<path fill="#FFFFFF" d="M397.86,15.674c-0.056-0.045-0.11-0.09-0.165-0.134c-0.477-0.713-2.453-3.166-7.977-4.873
			c-0.525-0.165-1.087,0.132-1.25,0.66c-0.163,0.528,0.132,1.088,0.661,1.251c5.495,1.698,6.914,4.089,6.921,4.1
			c0.068,0.127,0.159,0.234,0.267,0.317l1.749,1.431c0.186,0.152,0.409,0.226,0.632,0.226c0.29,0,0.577-0.125,0.775-0.367
			c0.35-0.427,0.286-1.058-0.142-1.407L397.86,15.674z"/>
		<path fill="#FFFFFF" d="M290.089,23.58c-0.096-0.544-0.615-0.91-1.158-0.812l-11.079,1.953c-0.544,0.096-0.908,0.614-0.812,1.158
			c0.086,0.486,0.507,0.827,0.984,0.827c0.058,0,0.116-0.005,0.174-0.015l11.079-1.953C289.821,24.642,290.185,24.124,290.089,23.58
			"/>
		<path fill="#FFFFFF" d="M301.407,268.1l-11.095,1.822c-0.545,0.089-0.914,0.604-0.825,1.148c0.081,0.49,0.505,0.838,0.985,0.838
			c0.055,0,0.109-0.004,0.164-0.014l11.095-1.822c0.545-0.089,0.914-0.604,0.824-1.148
			C302.466,268.379,301.954,268.005,301.407,268.1"/>
		<path fill="#FFFFFF" d="M309.082,20.235c-0.096-0.543-0.61-0.908-1.158-0.812l-11.084,1.952c-0.544,0.095-0.907,0.614-0.811,1.158
			c0.085,0.485,0.507,0.827,0.984,0.827c0.057,0,0.115-0.005,0.174-0.016l11.083-1.951
			C308.814,21.297,309.178,20.779,309.082,20.235"/>
		<path fill="#FFFFFF" d="M282.39,271.223l-11.094,1.822c-0.545,0.089-0.914,0.604-0.825,1.148c0.081,0.49,0.504,0.838,0.986,0.838
			c0.054,0,0.108-0.004,0.163-0.014l11.094-1.822c0.545-0.089,0.914-0.604,0.825-1.148S282.941,271.128,282.39,271.223"/>
		<path fill="#FFFFFF" d="M263.358,274.349l-11.076,1.819c-0.545,0.089-0.914,0.604-0.824,1.148c0.08,0.49,0.504,0.838,0.985,0.838
			c0.054,0,0.109-0.004,0.164-0.014l11.075-1.819c0.545-0.089,0.914-0.604,0.825-1.148S263.909,274.252,263.358,274.349"/>
		<path fill="#FFFFFF" d="M320.421,264.972l-11.095,1.824c-0.545,0.089-0.914,0.604-0.824,1.148c0.08,0.49,0.504,0.839,0.985,0.839
			c0.054,0,0.109-0.005,0.163-0.015l11.096-1.824c0.545-0.089,0.914-0.604,0.824-1.148
			C321.481,265.25,320.965,264.876,320.421,264.972"/>
		<path fill="#FFFFFF" d="M271.101,26.927c-0.096-0.543-0.617-0.906-1.159-0.811l-11.076,1.955
			c-0.544,0.096-0.907,0.614-0.811,1.158c0.086,0.486,0.507,0.826,0.983,0.826c0.058,0,0.117-0.004,0.175-0.015l11.077-1.954
			C270.834,27.989,271.197,27.471,271.101,26.927"/>
		<path fill="#FFFFFF" d="M396.551,252.455l-11.117,1.828c-0.545,0.089-0.914,0.604-0.824,1.148c0.08,0.49,0.504,0.838,0.985,0.838
			c0.054,0,0.108-0.004,0.163-0.014l11.117-1.828c0.545-0.089,0.914-0.604,0.824-1.148
			C397.61,252.734,397.095,252.358,396.551,252.455"/>
		<path fill="#FFFFFF" d="M328.089,16.895c-0.097-0.544-0.609-0.911-1.158-0.812l-11.091,1.948
			c-0.543,0.096-0.907,0.614-0.812,1.158c0.086,0.486,0.508,0.827,0.984,0.827c0.057,0,0.116-0.005,0.174-0.015l11.091-1.948
			C327.82,17.957,328.185,17.438,328.089,16.895"/>
		<path fill="#FFFFFF" d="M366.257,10.344c-0.058-0.549-0.541-0.937-1.1-0.889c-0.275,0.029-1.741,0.259-11.256,1.911
			c-0.544,0.095-0.908,0.612-0.813,1.156c0.084,0.487,0.506,0.829,0.984,0.829c0.057,0,0.113-0.005,0.172-0.014
			c9.179-1.594,10.908-1.87,11.124-1.893C365.917,11.386,366.315,10.893,366.257,10.344"/>
		<path fill="#FFFFFF" d="M381.661,9.15c-3.374-0.32-7.203-0.359-11.356-0.119c-0.552,0.033-0.973,0.506-0.94,1.057
			c0.031,0.551,0.508,0.973,1.056,0.94c4.054-0.237,7.78-0.197,11.054,0.113c0.031,0.003,0.063,0.005,0.095,0.005
			c0.51,0,0.945-0.389,0.994-0.906C382.615,9.69,382.211,9.202,381.661,9.15"/>
		<path fill="#FFFFFF" d="M377.501,255.586l-11.106,1.827c-0.545,0.089-0.914,0.604-0.824,1.148c0.08,0.49,0.504,0.837,0.985,0.837
			c0.054,0,0.108-0.003,0.163-0.013l11.106-1.827c0.545-0.089,0.914-0.604,0.824-1.148
			C378.561,255.865,378.048,255.492,377.501,255.586"/>
		<path fill="#FFFFFF" d="M358.467,258.718l-11.101,1.825c-0.546,0.089-0.914,0.604-0.824,1.148c0.08,0.49,0.505,0.839,0.985,0.839
			c0.054,0,0.108-0.005,0.163-0.015l11.101-1.825c0.545-0.089,0.914-0.604,0.824-1.148
			C359.526,258.997,359.011,258.62,358.467,258.718"/>
		<path fill="#FFFFFF" d="M339.441,261.846l-11.097,1.824c-0.545,0.089-0.914,0.604-0.825,1.148c0.081,0.49,0.506,0.838,0.986,0.838
			c0.054,0,0.108-0.004,0.163-0.014l11.097-1.824c0.545-0.089,0.914-0.604,0.825-1.148
			C340.502,262.124,339.982,261.75,339.441,261.846"/>
		<path fill="#FFFFFF" d="M347.115,13.563c-0.095-0.544-0.609-0.908-1.156-0.813l-11.107,1.943
			c-0.544,0.096-0.907,0.614-0.812,1.158c0.085,0.485,0.507,0.827,0.983,0.827c0.058,0,0.115-0.005,0.174-0.015l11.105-1.943
			C346.847,14.625,347.211,14.107,347.115,13.563"/>
		<path fill="#7E8082" d="M623.048,141.051c-31.802-35.091-69.927-42.516-96.481-42.516c-0.158,0-0.318,0-0.476,0
			c-28.748,0.097-50.274,8.659-50.488,8.745c-0.769,0.31-1.14,1.184-0.829,1.952c0.309,0.768,1.183,1.139,1.952,0.83
			c0.21-0.085,21.289-8.454,49.485-8.527c0.12,0,0.238,0,0.359,0c25.917,0,63.183,7.244,94.255,41.531
			c18.144,20.02,23.327,41.653,13.866,57.869c-7.018,12.022-20.956,18.38-33.915,15.46c-16.969-3.827-28.006-21.431-30.281-48.298
			c-1.938-22.868-10.063-38.56-24.152-46.639c-27.551-15.799-67.595,2.962-69.286,3.768c-0.748,0.356-1.065,1.252-0.708,1.999
			c0.356,0.749,1.255,1.064,1.999,0.709c0.4-0.191,40.305-18.898,66.503-3.873c13.184,7.56,20.806,22.461,22.654,44.29
			c3.4,40.132,23.939,49.015,32.61,50.971c2.32,0.523,4.668,0.776,7.007,0.776c11.993-0.001,23.743-6.654,30.159-17.651
			C647.437,185.043,642.115,162.092,623.048,141.051"/>
	</g>
</g>
<text transform="matrix(0.9847 -0.1741 0.1741 0.9847 129.0352 138.6001)" fill="#FDFEFF" font-family="'Ubuntu-Bold'" font-size="70">BUY</text>
<text transform="matrix(0.9847 -0.1741 0.1741 0.9847 141.0347 185.0977)" fill="#FDFEFF" font-family="'Ubuntu-Light'" font-size="70">now</text>
</svg>
