<?xml version="1.0" encoding="utf-8"?>
<!-- Generator: Adobe Illustrator 13.0.0, SVG Export Plug-In . SVG Version: 6.00 Build 14948)  -->
<!DOCTYPE svg PUBLIC "-//W3C//DTD SVG 1.1//EN" "http://www.w3.org/Graphics/SVG/1.1/DTD/svg11.dtd">
<svg version="1.1" id="Layer_1" xmlns="http://www.w3.org/2000/svg" xmlns:xlink="http://www.w3.org/1999/xlink" x="0px" y="0px"
	 width="300px" height="300px" viewBox="0 0 300 300" enable-background="new 0 0 300 300" xml:space="preserve">
<text transform="matrix(1 0 0 1 -6.5229 230.8037)" fill="#25C485" font-family="'MyriadPro-Regular'" font-size="196.5947">1</text>
<text transform="matrix(1 0 0 1 266.5 123.5)" fill="#25C485" font-family="'MyriadPro-Regular'" font-size="58">+</text>
<g id="Page-1">
	<g id="icon-11-laughing-face">
		<path id="laughing-face" fill="none" stroke="#25C485" d="M130.653,230.5c28.09,0,50.863-22.773,50.863-50.863
			c0-28.089-22.773-50.862-50.863-50.862s-50.863,22.773-50.863,50.862C79.791,207.727,102.563,230.5,130.653,230.5L130.653,230.5z
			 M130.653,226.432c25.844,0,46.794-20.951,46.794-46.795s-20.95-46.793-46.794-46.793c-25.843,0-46.794,20.95-46.794,46.793
			S104.811,226.432,130.653,226.432L130.653,226.432z M112.343,169.465c2.248,0,4.068-1.82,4.068-4.07
			c0-2.248-1.82-4.068-4.068-4.068c-2.25,0-4.07,1.82-4.07,4.068C108.273,167.645,110.094,169.465,112.343,169.465L112.343,169.465z
			 M148.965,169.465c2.248,0,4.067-1.82,4.067-4.07c0-2.248-1.819-4.068-4.067-4.068c-2.251,0-4.069,1.82-4.069,4.068
			C144.896,167.645,146.714,169.465,148.965,169.465L148.965,169.465z M100.136,189.81c0,0,4.069,24.413,30.518,24.413
			c26.449,0,30.518-24.413,30.518-24.413H100.136L100.136,189.81z M105.607,193.88c0,0,5.238,16.33,25.146,16.33
			c19.907,0,24.896-16.33,24.896-16.33H105.607L105.607,193.88z"/>
	</g>
</g>
<g id="Page-1_1_">
	<g id="icon-11-laughing-face_1_">
		<path id="laughing-face_1_" fill="none" stroke="#25C485" d="M244.347,226.226c28.09,0,50.863-22.773,50.863-50.862
			c0-28.09-22.773-50.863-50.863-50.863s-50.863,22.773-50.863,50.863C193.483,203.452,216.257,226.226,244.347,226.226
			L244.347,226.226z M244.347,222.157c25.844,0,46.794-20.95,46.794-46.794c0-25.844-20.95-46.794-46.794-46.794
			c-25.842,0-46.794,20.95-46.794,46.794C197.553,201.207,218.505,222.157,244.347,222.157L244.347,222.157z M226.036,165.19
			c2.249,0,4.069-1.82,4.069-4.07c0-2.248-1.82-4.068-4.069-4.068s-4.069,1.82-4.069,4.068
			C221.967,163.37,223.787,165.19,226.036,165.19L226.036,165.19z M262.658,165.19c2.248,0,4.068-1.82,4.068-4.07
			c0-2.248-1.82-4.068-4.068-4.068c-2.251,0-4.068,1.82-4.068,4.068C258.59,163.37,260.407,165.19,262.658,165.19L262.658,165.19z
			 M213.83,185.535c0,0,4.068,24.414,30.517,24.414c26.449,0,30.518-24.414,30.518-24.414H213.83L213.83,185.535z M219.301,189.605
			c0,0,5.237,16.33,25.146,16.33c19.907,0,24.896-16.33,24.896-16.33H219.301L219.301,189.605z"/>
	</g>
</g>
</svg>
