<?xml version="1.0" encoding="utf-8"?>
<!-- Generator: Adobe Illustrator 13.0.0, SVG Export Plug-In . SVG Version: 6.00 Build 14948)  -->
<!DOCTYPE svg PUBLIC "-//W3C//DTD SVG 1.1//EN" "http://www.w3.org/Graphics/SVG/1.1/DTD/svg11.dtd">
<svg version="1.1" id="Layer_1" xmlns="http://www.w3.org/2000/svg" xmlns:xlink="http://www.w3.org/1999/xlink" x="0px" y="0px"
	 width="1200px" height="1200px" viewBox="0 0 1200 1200" enable-background="new 0 0 1200 1200" xml:space="preserve">
<g>
	<g id="Capa_2">
		<g>
			<g>
				<rect x="388.29" y="50" fill="#25C485" width="357.437" height="855.485"/>
				<rect x="745.725" y="440.341" fill="#89CEB0" width="251.528" height="465.146"/>
				<g>
					<g>
						<g>
							<rect x="427.674" y="588.181" fill="#FFFFFF" width="70.121" height="75.745"/>
							<rect x="433.191" y="593.487" fill="#7D9EA5" width="59.08" height="65.128"/>
							<rect x="478.24" y="593.487" fill="#627E82" width="14.032" height="65.128"/>
							<rect x="429.122" y="624.406" fill="#FFFFFF" width="67.224" height="3.293"/>
						</g>
						<rect x="433.191" y="593.487" fill="#627E82" width="58.36" height="8.524"/>
						<rect x="433.191" y="627.714" fill="#627E82" width="47.483" height="5.237"/>
					</g>
					<g>
						<g>
							<rect x="529.971" y="588.181" fill="#FFFFFF" width="70.122" height="75.745"/>
							<rect x="535.487" y="593.487" fill="#7D9EA5" width="59.083" height="65.128"/>
							<rect x="580.534" y="593.487" fill="#627E82" width="14.036" height="65.128"/>
							<rect x="531.422" y="624.406" fill="#FFFFFF" width="67.225" height="3.293"/>
						</g>
						<rect x="535.487" y="593.487" fill="#627E82" width="58.363" height="8.524"/>
						<rect x="535.487" y="627.714" fill="#627E82" width="47.481" height="5.237"/>
					</g>
					<g>
						<g>
							<rect x="633.891" y="588.181" fill="#FFFFFF" width="70.125" height="75.745"/>
							<rect x="639.42" y="593.487" fill="#7D9EA5" width="59.075" height="65.128"/>
							<rect x="684.466" y="593.487" fill="#627E82" width="14.029" height="65.128"/>
							<rect x="635.344" y="624.406" fill="#FFFFFF" width="67.224" height="3.293"/>
						</g>
						<rect x="639.42" y="593.487" fill="#627E82" width="58.356" height="8.524"/>
						<rect x="639.42" y="627.714" fill="#627E82" width="47.479" height="5.237"/>
					</g>
				</g>
				<g>
					<g>
						<g>
							<rect x="785.281" y="492.565" fill="#FFFFFF" width="70.128" height="75.749"/>
							<rect x="790.807" y="497.878" fill="#7D9EA5" width="59.08" height="65.125"/>
							<rect x="835.854" y="497.878" fill="#627E82" width="14.032" height="65.125"/>
							<rect x="786.729" y="528.791" fill="#FFFFFF" width="67.229" height="3.294"/>
						</g>
						<rect x="790.807" y="497.878" fill="#627E82" width="58.362" height="8.519"/>
						<rect x="790.807" y="532.102" fill="#627E82" width="47.479" height="5.242"/>
					</g>
					<g>
						<g>
							<rect x="887.582" y="492.565" fill="#FFFFFF" width="70.127" height="75.749"/>
							<rect x="893.104" y="497.878" fill="#7D9EA5" width="59.082" height="65.125"/>
							<rect x="938.149" y="497.878" fill="#627E82" width="14.036" height="65.125"/>
							<rect x="889.028" y="528.791" fill="#FFFFFF" width="67.23" height="3.294"/>
						</g>
						<rect x="893.104" y="497.878" fill="#627E82" width="58.358" height="8.519"/>
						<rect x="893.104" y="532.102" fill="#627E82" width="47.481" height="5.242"/>
					</g>
				</g>
				<g>
					<g>
						<g>
							<rect x="785.281" y="600.882" fill="#FFFFFF" width="70.128" height="75.75"/>
							<rect x="790.807" y="606.189" fill="#7D9EA5" width="59.08" height="65.129"/>
							<rect x="835.854" y="606.189" fill="#627E82" width="14.032" height="65.129"/>
							<rect x="786.729" y="637.107" fill="#FFFFFF" width="67.229" height="3.295"/>
						</g>
						<rect x="790.807" y="606.189" fill="#627E82" width="58.362" height="8.522"/>
						<rect x="790.807" y="640.414" fill="#627E82" width="47.479" height="5.241"/>
					</g>
					<g>
						<g>
							<rect x="887.582" y="600.882" fill="#FFFFFF" width="70.127" height="75.75"/>
							<rect x="893.104" y="606.189" fill="#7D9EA5" width="59.082" height="65.129"/>
							<rect x="938.149" y="606.189" fill="#627E82" width="14.036" height="65.129"/>
							<rect x="889.028" y="637.107" fill="#FFFFFF" width="67.23" height="3.295"/>
						</g>
						<rect x="893.104" y="606.189" fill="#627E82" width="58.358" height="8.522"/>
						<rect x="893.104" y="640.414" fill="#627E82" width="47.481" height="5.241"/>
					</g>
				</g>
				<g>
					<g>
						<g>
							<rect x="785.281" y="709.191" fill="#FFFFFF" width="70.128" height="75.749"/>
							<rect x="790.807" y="714.507" fill="#7D9EA5" width="59.08" height="65.128"/>
							<rect x="835.854" y="714.507" fill="#627E82" width="14.032" height="65.128"/>
							<rect x="786.729" y="745.422" fill="#FFFFFF" width="67.229" height="3.292"/>
						</g>
						<rect x="790.807" y="714.507" fill="#627E82" width="58.362" height="8.521"/>
						<rect x="790.807" y="748.733" fill="#627E82" width="47.479" height="5.239"/>
					</g>
					<g>
						<g>
							<rect x="887.582" y="709.191" fill="#FFFFFF" width="70.127" height="75.749"/>
							<rect x="893.104" y="714.507" fill="#7D9EA5" width="59.082" height="65.128"/>
							<rect x="938.149" y="714.507" fill="#627E82" width="14.036" height="65.128"/>
							<rect x="889.028" y="745.422" fill="#FFFFFF" width="67.23" height="3.292"/>
						</g>
						<rect x="893.104" y="714.507" fill="#627E82" width="58.358" height="8.521"/>
						<rect x="893.104" y="748.733" fill="#627E82" width="47.481" height="5.239"/>
					</g>
				</g>
				<g>
					<g>
						<g>
							<rect x="427.674" y="460.201" fill="#FFFFFF" width="70.121" height="75.749"/>
							<rect x="433.191" y="465.518" fill="#7D9EA5" width="59.08" height="65.121"/>
							<rect x="478.24" y="465.518" fill="#627E82" width="14.032" height="65.121"/>
							<rect x="429.122" y="496.434" fill="#FFFFFF" width="67.224" height="3.291"/>
						</g>
						<rect x="433.191" y="465.518" fill="#627E82" width="58.36" height="8.516"/>
						<rect x="433.191" y="499.737" fill="#627E82" width="47.483" height="5.236"/>
					</g>
					<g>
						<g>
							<rect x="529.971" y="460.201" fill="#FFFFFF" width="70.122" height="75.749"/>
							<rect x="535.487" y="465.518" fill="#7D9EA5" width="59.083" height="65.121"/>
							<rect x="580.534" y="465.518" fill="#627E82" width="14.036" height="65.121"/>
							<rect x="531.422" y="496.434" fill="#FFFFFF" width="67.225" height="3.291"/>
						</g>
						<rect x="535.487" y="465.518" fill="#627E82" width="58.363" height="8.516"/>
						<rect x="535.487" y="499.737" fill="#627E82" width="47.481" height="5.236"/>
					</g>
					<g>
						<g>
							<rect x="633.891" y="460.201" fill="#FFFFFF" width="70.125" height="75.749"/>
							<rect x="639.42" y="465.518" fill="#7D9EA5" width="59.075" height="65.121"/>
							<rect x="684.466" y="465.518" fill="#627E82" width="14.029" height="65.121"/>
							<rect x="635.344" y="496.434" fill="#FFFFFF" width="67.224" height="3.291"/>
						</g>
						<rect x="639.42" y="465.518" fill="#627E82" width="58.356" height="8.516"/>
						<rect x="639.42" y="499.737" fill="#627E82" width="47.479" height="5.236"/>
					</g>
				</g>
				<g>
					<g>
						<g>
							<rect x="427.674" y="341.432" fill="#FFFFFF" width="70.121" height="75.753"/>
							<rect x="433.191" y="346.746" fill="#7D9EA5" width="59.08" height="65.127"/>
							<rect x="478.24" y="346.746" fill="#627E82" width="14.032" height="65.127"/>
							<rect x="429.122" y="377.661" fill="#FFFFFF" width="67.224" height="3.293"/>
						</g>
						<rect x="433.191" y="346.746" fill="#627E82" width="58.36" height="8.522"/>
						<rect x="433.191" y="380.974" fill="#627E82" width="47.483" height="5.239"/>
					</g>
					<g>
						<g>
							<rect x="529.971" y="341.432" fill="#FFFFFF" width="70.122" height="75.753"/>
							<rect x="535.487" y="346.746" fill="#7D9EA5" width="59.083" height="65.127"/>
							<rect x="580.534" y="346.746" fill="#627E82" width="14.036" height="65.127"/>
							<rect x="531.422" y="377.661" fill="#FFFFFF" width="67.225" height="3.293"/>
						</g>
						<rect x="535.487" y="346.746" fill="#627E82" width="58.363" height="8.522"/>
						<rect x="535.487" y="380.974" fill="#627E82" width="47.481" height="5.239"/>
					</g>
					<g>
						<g>
							<rect x="633.891" y="341.432" fill="#FFFFFF" width="70.125" height="75.753"/>
							<rect x="639.42" y="346.746" fill="#7D9EA5" width="59.075" height="65.127"/>
							<rect x="684.466" y="346.746" fill="#627E82" width="14.029" height="65.127"/>
							<rect x="635.344" y="377.661" fill="#FFFFFF" width="67.224" height="3.293"/>
						</g>
						<rect x="639.42" y="346.746" fill="#627E82" width="58.356" height="8.522"/>
						<rect x="639.42" y="380.974" fill="#627E82" width="47.479" height="5.239"/>
					</g>
				</g>
				<g>
					<g>
						<g>
							<rect x="427.674" y="213.46" fill="#FFFFFF" width="70.121" height="75.747"/>
							<rect x="433.191" y="218.77" fill="#7D9EA5" width="59.08" height="65.131"/>
							<rect x="478.24" y="218.77" fill="#627E82" width="14.032" height="65.131"/>
							<rect x="429.122" y="249.682" fill="#FFFFFF" width="67.224" height="3.298"/>
						</g>
						<rect x="433.191" y="218.77" fill="#627E82" width="58.36" height="8.521"/>
						<rect x="433.191" y="252.994" fill="#627E82" width="47.483" height="5.241"/>
					</g>
					<g>
						<g>
							<rect x="529.971" y="213.46" fill="#FFFFFF" width="70.122" height="75.747"/>
							<rect x="535.487" y="218.77" fill="#7D9EA5" width="59.083" height="65.131"/>
							<rect x="580.534" y="218.77" fill="#627E82" width="14.036" height="65.131"/>
							<rect x="531.422" y="249.682" fill="#FFFFFF" width="67.225" height="3.298"/>
						</g>
						<rect x="535.487" y="218.77" fill="#627E82" width="58.363" height="8.521"/>
						<rect x="535.487" y="252.994" fill="#627E82" width="47.481" height="5.241"/>
					</g>
					<g>
						<g>
							<rect x="633.891" y="213.46" fill="#FFFFFF" width="70.125" height="75.747"/>
							<rect x="639.42" y="218.77" fill="#7D9EA5" width="59.075" height="65.131"/>
							<rect x="684.466" y="218.77" fill="#627E82" width="14.029" height="65.131"/>
							<rect x="635.344" y="249.682" fill="#FFFFFF" width="67.224" height="3.298"/>
						</g>
						<rect x="639.42" y="218.77" fill="#627E82" width="58.356" height="8.521"/>
						<rect x="639.42" y="252.994" fill="#627E82" width="47.479" height="5.241"/>
					</g>
				</g>
				<g>
					<g>
						<g>
							<rect x="427.674" y="101.694" fill="#FFFFFF" width="70.121" height="75.749"/>
							<rect x="433.191" y="107.002" fill="#7D9EA5" width="59.08" height="65.133"/>
							<rect x="478.24" y="107.002" fill="#627E82" width="14.032" height="65.133"/>
							<rect x="429.122" y="137.919" fill="#FFFFFF" width="67.224" height="3.298"/>
						</g>
						<rect x="433.191" y="107.002" fill="#627E82" width="58.36" height="8.521"/>
						<rect x="433.191" y="141.232" fill="#627E82" width="47.483" height="5.235"/>
					</g>
					<g>
						<g>
							<rect x="529.971" y="101.694" fill="#FFFFFF" width="70.122" height="75.749"/>
							<rect x="535.487" y="107.002" fill="#7D9EA5" width="59.083" height="65.133"/>
							<rect x="580.534" y="107.002" fill="#627E82" width="14.036" height="65.133"/>
							<rect x="531.422" y="137.919" fill="#FFFFFF" width="67.225" height="3.298"/>
						</g>
						<rect x="535.487" y="107.002" fill="#627E82" width="58.363" height="8.521"/>
						<rect x="535.487" y="141.232" fill="#627E82" width="47.481" height="5.235"/>
					</g>
					<g>
						<g>
							<rect x="633.891" y="101.694" fill="#FFFFFF" width="70.125" height="75.749"/>
							<rect x="639.42" y="107.002" fill="#7D9EA5" width="59.075" height="65.133"/>
							<rect x="684.466" y="107.002" fill="#627E82" width="14.029" height="65.133"/>
							<rect x="635.344" y="137.919" fill="#FFFFFF" width="67.224" height="3.298"/>
						</g>
						<rect x="639.42" y="107.002" fill="#627E82" width="58.356" height="8.521"/>
						<rect x="639.42" y="141.232" fill="#627E82" width="47.479" height="5.235"/>
					</g>
				</g>
				<g>
					<g>
						<rect x="503.985" y="715.014" fill="#FFFFFF" width="114.421" height="190.474"/>
						<rect x="515.639" y="731.959" fill="#7D9EA5" width="91.106" height="173.528"/>
					</g>
					<rect x="591.695" y="731.959" fill="#627E82" width="15.053" height="173.528"/>
					<rect x="550.745" y="771.901" fill="#627E82" width="7.526" height="89.867"/>
					<rect x="515.639" y="731.959" fill="#627E82" width="91.106" height="12.592"/>
					<rect x="515.639" y="771.9" fill="#627E82" width="91.106" height="8.607"/>
					<rect x="515.639" y="869.342" fill="#627E82" width="91.375" height="6.389"/>
					<rect x="513.336" y="764.33" fill="#FFFFFF" width="97.442" height="7.57"/>
					<rect x="513.336" y="861.77" fill="#FFFFFF" width="97.442" height="7.573"/>
					<rect x="558.271" y="764.331" fill="#FFFFFF" width="7.572" height="97.438"/>
				</g>
			</g>
			<g>
				<path fill="#A2CFF0" d="M904.393,118.876c-4.586-13.771,21.422-18.36,19.889,4.589c5.354-18.36,26.776-11.473,23.723,6.885
					c3.057-8.415,23.709-8.415,31.356-6.885c8.412,1.531,29.069,13.004,13.006,20.656c11.476-16.065,47.431-6.888,40.543,16.063
					c-6.885,21.417-39.011,21.417-48.96,3.824c-5.354,26.772-42.066,28.303-55.077,6.12c-0.759,15.299-35.185,15.299-40.541,2.296
					c-1.526,16.83-25.241,12.239-33.659,4.59c-7.647-6.887-13.006-28.305,3.825-26.008c-12.237,0.766-12.237-12.241-5.35-18.361
					c7.643-6.122,19.116-4.59,26.006,0.766c-2.296-9.18,18.356-16.063,22.185-15.298L904.393,118.876z"/>
			</g>
			<g>
				<path fill="#A2CFF0" d="M229.753,68.076c-3.771-7.278,17.611-9.705,16.354,2.429c4.403-9.707,22.015-6.067,19.498,3.64
					c2.517-4.449,19.499-4.449,25.79-3.64c6.917,0.807,23.899,6.873,10.691,10.918c9.436-8.492,38.999-3.64,33.335,8.494
					c-5.659,11.322-32.078,11.322-40.254,2.021c-4.405,14.154-34.592,14.963-45.287,3.235c-0.627,8.088-28.933,8.088-33.336,1.214
					c-1.258,8.897-20.754,6.469-27.677,2.426c-6.286-3.641-10.687-14.962,3.151-13.751c-10.067,0.405-10.067-6.47-4.404-9.707
					c6.288-3.233,15.722-2.426,21.382,0.408c-1.886-4.854,15.098-8.496,18.24-8.091L229.753,68.076z"/>
			</g>
			<g>
				<path fill="#D2E7F7" d="M126.012,226.612c-5.595-11.515,26.113-15.354,24.249,3.836c6.528-15.351,32.641-9.594,28.912,5.755
					c3.729-7.034,28.911-7.034,38.235-5.755c10.259,1.28,35.438,10.877,15.854,17.271c13.988-13.431,57.824-5.757,49.433,13.432
					c-8.393,17.905-47.566,17.905-59.692,3.195c-6.523,22.388-51.29,23.664-67.146,5.12c-0.929,12.791-42.897,12.791-49.429,1.919
					c-1.863,14.072-30.775,10.23-41.034,3.834c-9.325-5.753-15.857-23.665,4.665-21.745c-14.92,0.639-14.92-10.235-6.528-15.351
					c9.326-5.114,23.313-3.835,31.708,0.64c-2.795-7.675,22.382-13.43,27.045-12.792L126.012,226.612z"/>
			</g>
		</g>
	</g>
	<g id="Capa_1">
	</g>
</g>
</svg>
