<?xml version="1.0" encoding="utf-8"?>
<!-- Generator: Adobe Illustrator 13.0.0, SVG Export Plug-In . SVG Version: 6.00 Build 14948)  -->
<!DOCTYPE svg PUBLIC "-//W3C//DTD SVG 1.1//EN" "http://www.w3.org/Graphics/SVG/1.1/DTD/svg11.dtd">
<svg version="1.1" id="Layer_1" xmlns="http://www.w3.org/2000/svg" xmlns:xlink="http://www.w3.org/1999/xlink" x="0px" y="0px"
	 width="300px" height="300px" viewBox="0 0 300 300" enable-background="new 0 0 300 300" xml:space="preserve">
<path id="svg_3_9_" fill="none" stroke="#2193A8" d="M233.156,250.043H29.594c-6.358,0-11.512-5.155-11.512-11.513v-69.073
	c0-6.357,5.154-11.512,11.512-11.512h59.115c3.177,0,5.756-2.58,5.756-5.757c0-3.178-2.579-5.756-5.756-5.756H60.763l77.994-78.025
	c7.22,4.258,16.18,4.258,23.404,0l39.28,39.284c2.249,2.246,5.895,2.246,8.146,0c2.243-2.246,2.243-5.899,0-8.142l-39.314-39.287
	c6.453-10.956,2.805-25.07-8.153-31.523c-3.533-2.08-7.55-3.176-11.647-3.185c-3.179,0-5.756,2.577-5.756,5.756
	c0,3.176,2.577,5.756,5.756,5.756c6.357,0.04,11.476,5.225,11.442,11.585c-0.046,6.357-5.229,11.479-11.586,11.439
	c-6.357-0.045-11.479-5.23-11.439-11.588c0.011-1.996,0.54-3.955,1.538-5.681c1.593-2.777,0.632-6.313-2.142-7.9
	c-2.777-1.588-6.312-0.632-7.902,2.145c-4.026,7.167-3.935,15.947,0.259,23.024l-86.163,86.341H29.599
	c-12.715,0-23.024,10.31-23.024,23.024l0,0v69.073c0,12.715,10.31,23.024,23.024,23.024h203.563c3.176,0,5.756-2.58,5.756-5.756
	C238.913,252.62,236.33,250.043,233.156,250.043z"/>
<path id="svg_4_7_" fill="#F39237" d="M271.344,145.578h-14.879l-36.667-36.664c-2.249-2.251-5.896-2.251-8.146,0
	c-2.245,2.246-2.245,5.894,0,8.145l0,0l28.522,28.519h-55.172c-3.179,0.006-5.754,2.583-5.748,5.768
	c0.003,3.17,2.574,5.745,5.748,5.745h86.341c6.357,0,11.513,5.154,11.513,11.512v69.073c0,6.363-5.155,11.513-11.513,11.513h-21.557
	c-3.179,0-5.757,2.577-5.757,5.756s2.578,5.756,5.757,5.756h21.557c12.716,0,23.024-10.304,23.024-23.024v-69.073
	C294.368,155.888,284.06,145.578,271.344,145.578z"/>
<path id="svg_5_4_" fill="#F39237" d="M167.734,145.578h-59.804c-3.178,0-5.756,2.578-5.756,5.756c0,3.18,2.579,5.757,5.756,5.757
	h59.804c3.179,0,5.756-2.577,5.756-5.757C173.49,148.156,170.913,145.578,167.734,145.578z"/>
<g enable-background="new    ">
	<path fill="#2193A8" d="M77.018,226.377v-49.443h21.921c4.407,0,7.757,0.443,10.051,1.332c2.293,0.891,4.127,2.459,5.498,4.705
		c1.369,2.248,2.057,4.738,2.057,7.456c0,3.511-1.137,6.462-3.408,8.867c-2.271,2.409-5.781,3.936-10.521,4.593
		c1.731,0.829,3.046,1.647,3.946,2.457c1.91,1.754,3.722,3.945,5.43,6.576l8.601,13.457h-8.229l-6.542-10.283
		c-1.909-2.966-3.485-5.236-4.723-6.811c-1.237-1.577-2.34-2.682-3.321-3.306c-0.978-0.626-1.975-1.067-2.982-1.314
		c-0.745-0.158-1.96-0.236-3.647-0.236H83.56v21.959h-6.542V226.377z M83.56,198.755h14.064c2.991,0,5.333-0.31,7.017-0.928
		c1.685-0.618,2.965-1.607,3.846-2.968c0.877-1.357,1.315-2.833,1.315-4.436c0-2.338-0.85-4.255-2.55-5.767
		c-1.698-1.504-4.378-2.26-8.044-2.26H83.557v16.357H83.56z"/>
	<path fill="#2193A8" d="M150.542,214.843l6.278,0.778c-0.989,3.662-2.821,6.512-5.497,8.536c-2.676,2.021-6.093,3.035-10.253,3.035
		c-5.236,0-9.396-1.616-12.461-4.843c-3.068-3.224-4.608-7.749-4.608-13.575c0-6.028,1.551-10.705,4.654-14.03
		s7.129-4.989,12.072-4.989c4.789,0,8.698,1.628,11.737,4.888c3.038,3.264,4.553,7.851,4.553,13.758c0,0.36-0.012,0.902-0.036,1.622
		h-26.711c0.225,3.932,1.341,6.948,3.337,9.039c2.001,2.097,4.5,3.142,7.493,3.142c2.22,0,4.126-0.584,5.694-1.753
		C148.366,219.28,149.62,217.406,150.542,214.843z M130.609,205.028h20c-0.27-3.014-1.034-5.273-2.293-6.773
		c-1.935-2.342-4.441-3.511-7.521-3.511c-2.788,0-5.131,0.931-7.028,2.802C131.866,199.412,130.812,201.902,130.609,205.028z"/>
	<path fill="#2193A8" d="M164.438,226.377v-35.815h5.464v5.096c2.631-3.935,6.431-5.902,11.399-5.902
		c2.159,0,4.144,0.389,5.953,1.161c1.81,0.775,3.165,1.79,4.064,3.055c0.896,1.263,1.523,2.755,1.883,4.492
		c0.225,1.124,0.337,3.086,0.337,5.901v22.021h-6.065v-21.785c0-2.473-0.235-4.322-0.708-5.551c-0.472-1.229-1.31-2.206-2.513-2.937
		c-1.203-0.731-2.613-1.097-4.238-1.097c-2.58,0-4.817,0.818-6.689,2.456c-1.877,1.642-2.818,4.756-2.818,9.343v19.562H164.438
		L164.438,226.377z"/>
	<path fill="#2193A8" d="M216.107,220.947l0.877,5.362c-1.709,0.36-3.238,0.54-4.587,0.54c-2.203,0-3.906-0.349-5.127-1.043
		c-1.214-0.694-2.068-1.616-2.563-2.749c-0.495-1.135-0.742-3.527-0.742-7.164v-20.607h-4.452v-4.725h4.452v-8.867l6.037-3.648
		v12.516h6.104v4.725h-6.104v20.942c0,1.733,0.106,2.841,0.32,3.336c0.214,0.497,0.563,0.894,1.046,1.181
		c0.483,0.295,1.175,0.438,2.074,0.438C214.117,221.184,215.006,221.104,216.107,220.947z"/>
</g>
</svg>
