<?xml version="1.0" encoding="utf-8"?>
<!-- Generator: Adobe Illustrator 13.0.0, SVG Export Plug-In . SVG Version: 6.00 Build 14948)  -->
<!DOCTYPE svg PUBLIC "-//W3C//DTD SVG 1.1//EN" "http://www.w3.org/Graphics/SVG/1.1/DTD/svg11.dtd">
<svg version="1.1" id="Layer_1" xmlns="http://www.w3.org/2000/svg" xmlns:xlink="http://www.w3.org/1999/xlink" x="0px" y="0px"
	 width="300px" height="300px" viewBox="0 0 300 300" enable-background="new 0 0 300 300" xml:space="preserve">
<g id="Layer_x0020_1">
	<g id="_274418144">
		<path id="_274418816" fill="#2193A8" d="M293.426,158.385v29.584c0,7.95-3.608,15.104-9.417,20.225
			c-5.493,4.843-13.006,7.848-21.209,7.848H29.569v-18.22H262.8c3.631,0,6.876-1.261,9.181-3.294
			c1.99-1.753,3.225-4.081,3.225-6.559v-29.584H293.426L293.426,158.385z"/>
		<polygon id="_274418768" fill="#F39237" points="64.72,183.941 37.557,207.516 66.132,226.871 55.955,241.887 17.596,215.907 
			7.812,209.279 16.742,201.529 52.833,170.205 		"/>
		<path id="_274419056" fill="#2193A8" d="M13.574,164.615v-29.583c0-7.95,3.606-15.104,9.417-20.226
			c5.494-4.842,13.005-7.847,21.208-7.847h233.231v18.22H44.2c-3.629,0-6.875,1.261-9.18,3.292c-1.99,1.753-3.225,4.081-3.225,6.561
			v29.583H13.574L13.574,164.615z"/>
		<polygon id="_274418888" fill="#F39237" points="242.28,139.059 269.443,115.484 240.867,96.129 251.045,81.113 289.404,107.094 
			299.188,113.721 290.259,121.471 254.166,152.795 		"/>
	</g>
</g>
</svg>
