<?xml version="1.0" encoding="utf-8"?>
<!-- Generator: Adobe Illustrator 13.0.0, SVG Export Plug-In . SVG Version: 6.00 Build 14948)  -->
<!DOCTYPE svg PUBLIC "-//W3C//DTD SVG 1.1//EN" "http://www.w3.org/Graphics/SVG/1.1/DTD/svg11.dtd">
<svg version="1.1" id="Layer_1" xmlns="http://www.w3.org/2000/svg" xmlns:xlink="http://www.w3.org/1999/xlink" x="0px" y="0px"
	 width="269.894px" height="275px" viewBox="15.053 12.5 269.894 275" enable-background="new 15.053 12.5 269.894 275"
	 xml:space="preserve">
<g>
	<g>
		<path fill="#25C485" d="M238.896,151.812c0,24.583-9.964,46.838-26.073,62.947c-16.11,16.11-38.366,26.073-62.948,26.073
			c-24.583,0-46.838-9.963-62.947-26.073c-16.11-16.109-26.074-38.364-26.074-62.947c0-24.583,9.964-46.838,26.074-62.948
			c16.109-16.11,38.365-26.073,62.947-26.073c24.582,0,46.838,9.963,62.948,26.073C228.933,104.974,238.896,127.229,238.896,151.812
			z"/>
		<path fill="#71D3A9" d="M74.965,199.925c7.919,12.304,18.787,22.531,31.604,29.683s27.586,11.225,43.306,11.225
			c21,0,40.301-7.271,55.521-19.435c15.222-12.161,26.363-29.216,31.049-48.779c-26.811,4.072-53.587,8.084-80.456,12.485
			C129.12,189.504,102.155,194.294,74.965,199.925z"/>
	</g>
	<path fill="#FDE74C" d="M161.406,107.163c0,0,0.841-3.005,3.536-6.314c2.697-3.309,7.249-6.921,14.674-8.133
		c7.424-1.212,16.025-1.975,24.294-4.354s16.202-6.378,22.292-14.06c0,0,1.428,5.226-0.017,11.931
		c-1.446,6.704-5.763,14.889-17.251,20.809c0,0,2.791,0,7.083-1.185c4.292-1.185,10.083-3.555,16.083-8.295
		c0,0,0.934,5.418-1.12,12.378c-2.057,6.96-7.101,15.46-19.058,21.625l6.042,1.335l6.042,1.335c0,0-2.521,2.75-6.419,5.705
		c-3.897,2.955-9.174,6.112-14.683,6.928"/>
	<g>
		<path fill="#FFFFFF" d="M202.962,146.863c2.145,13.555-1.407,26.695-8.886,36.983c-7.478,10.288-18.88,17.725-32.436,19.869
			c-13.555,2.145-26.696-1.408-36.984-8.887c-10.288-7.477-17.724-18.879-19.869-32.435c-2.145-13.555,1.409-26.696,8.887-36.984
			c7.477-10.289,18.88-17.725,32.435-19.869c13.555-2.144,26.695,1.408,36.984,8.886
			C193.382,121.905,200.818,133.308,202.962,146.863z"/>
		<path fill="#FFFFFF" d="M157.641,96.357l-14.131,2.236l-14.13,2.235c-1.319,0.209-2.597-0.137-3.597-0.864
			c-1-0.727-1.724-1.836-1.932-3.154l0,0l0,0c-0.209-1.319,0.137-2.597,0.864-3.598c0.727-1,1.836-1.723,3.154-1.932L142,89.046
			l14.13-2.236c1.319-0.208,2.597,0.138,3.598,0.864c1,0.728,1.724,1.837,1.932,3.155l0,0l0,0c0.209,1.318-0.137,2.596-0.863,3.597
			C160.068,95.426,158.959,96.149,157.641,96.357z"/>
	</g>
	<g>
		<path fill="#290003" d="M148.345,206.58c-12.427,0-24.123-4.525-33.211-12.215s-15.572-18.543-17.574-31.197
			c-1.073-6.787-0.793-13.579,0.765-20.065c1.558-6.485,4.395-12.664,8.435-18.222c4.04-5.558,9.04-10.163,14.728-13.647
			c5.688-3.484,12.063-5.847,18.849-6.921c6.788-1.074,13.58-0.793,20.065,0.765c6.485,1.559,12.662,4.395,18.222,8.434
			c5.559,4.04,10.162,9.041,13.646,14.729c3.485,5.688,5.848,12.062,6.921,18.849c2.217,14.01-1.472,27.616-9.218,38.273
			c-7.746,10.656-19.549,18.366-33.559,20.582c-1.355,0.215-2.707,0.373-4.053,0.479C151.016,206.528,149.676,206.58,148.345,206.58
			z M148.477,107.17c-1.26,0-2.524,0.049-3.791,0.149c-1.266,0.1-2.534,0.25-3.803,0.45c-6.325,1.001-12.266,3.203-17.567,6.451
			c-5.301,3.247-9.961,7.539-13.727,12.719c-3.765,5.18-6.408,10.938-7.86,16.982c-1.453,6.044-1.713,12.375-0.713,18.7
			c2.066,13.057,9.25,24.055,19.183,31.274c9.933,7.219,22.612,10.657,35.668,8.592c13.057-2.065,24.057-9.25,31.275-19.182
			c7.219-9.933,10.657-22.612,8.592-35.669c-1.001-6.325-3.203-12.266-6.45-17.566c-3.247-5.301-7.539-9.962-12.72-13.727
			c-4.141-3.01-8.65-5.303-13.383-6.843C158.451,107.958,153.5,107.17,148.477,107.17z"/>
		<path fill="#71D3A9" d="M148.634,155.128l-3.387-20.592l-3.388-20.593c0,0-4.95,1.034-11.09,4.033
			c-6.141,3-13.47,7.966-18.229,15.832c-3.385,5.34-4.852,9.523-5.473,12.371c-0.621,2.848-0.396,4.36-0.396,4.36l20.981,2.295
			L148.634,155.128z"/>
		<path fill="#8CEAC2" d="M148.327,155.124l-20.414-2.276l-20.414-2.277l-0.155,5.537l-0.155,5.537
			c0.051,0.325,0.107,0.648,0.167,0.971c0.061,0.321,0.124,0.643,0.189,0.962c7.071-1.379,14.055-2.441,20.994-3.491
			s13.834-2.088,20.729-3.422c-0.156-0.314-0.313-0.579-0.471-0.825C148.642,155.593,148.484,155.363,148.327,155.124z"/>
		<path fill="#25C485" d="M189.561,148.613c-1.799-11.374-8.038-20.94-16.67-27.214c-8.632-6.274-19.658-9.255-31.031-7.456
			l3.258,20.593l3.258,20.592l-0.024-0.002l-0.024-0.002c0.157,0.24,0.314,0.469,0.471,0.715c0.157,0.246,0.314,0.511,0.471,0.825
			c-6.895,1.334-13.79,2.372-20.729,3.422c-6.94,1.05-13.923,2.112-20.994,3.491c2.235,10.842,8.547,19.901,17.063,25.811
			c8.516,5.912,19.235,8.675,30.282,6.928c11.373-1.8,20.939-8.039,27.214-16.672C188.379,171.012,191.36,159.986,189.561,148.613z"
			/>
		<path fill="#290003" d="M148.35,198.081c-10.375,0-20.138-3.778-27.725-10.197c-7.587-6.42-12.999-15.48-14.67-26.044
			c-1.85-11.695,1.23-23.053,7.696-31.95c6.466-8.896,16.318-15.332,28.013-17.182c5.665-0.895,11.336-0.661,16.749,0.639
			c5.415,1.301,10.571,3.668,15.213,7.041c4.64,3.372,8.483,7.547,11.392,12.295c2.909,4.748,4.883,10.07,5.779,15.735
			c0.895,5.665,0.661,11.336-0.64,16.75c-1.3,5.413-3.669,10.57-7.04,15.211c-3.373,4.639-7.548,8.483-12.296,11.393
			c-4.748,2.908-10.07,4.881-15.735,5.778c-1.131,0.178-2.259,0.311-3.383,0.399C150.579,198.036,149.461,198.081,148.35,198.081z
			 M148.399,114.677c-1.047,0-2.1,0.041-3.158,0.124c-1.058,0.083-2.121,0.208-3.187,0.377
			c-11.015,1.743-20.293,7.803-26.383,16.182c-6.09,8.378-8.99,19.075-7.248,30.089c1.574,9.947,6.67,18.48,13.816,24.525
			c7.146,6.046,16.341,9.605,26.11,9.606c1.047,0,2.1-0.042,3.159-0.125c1.058-0.083,2.119-0.208,3.187-0.377
			c5.335-0.844,10.347-2.701,14.819-5.44c4.471-2.739,8.403-6.36,11.578-10.73c3.177-4.369,5.406-9.228,6.632-14.326
			c1.225-5.099,1.444-10.438,0.601-15.774l0,0l0,0c-1.573-9.949-6.672-18.481-13.816-24.527
			C167.363,118.235,158.168,114.677,148.399,114.677z"/>
		<path fill="#290003" d="M124.62,103.139c-1.591,0-3.087-0.58-4.25-1.563c-1.163-0.985-1.992-2.373-2.249-3.993
			c-0.283-1.792,0.188-3.534,1.18-4.897c0.991-1.364,2.501-2.35,4.293-2.634l14.131-2.235l14.13-2.235
			c0.868-0.139,1.736-0.103,2.567,0.097c0.83,0.2,1.62,0.563,2.332,1.08c0.711,0.517,1.3,1.157,1.747,1.885
			c0.445,0.728,0.748,1.543,0.886,2.412c0.137,0.869,0.101,1.737-0.1,2.567c-0.198,0.83-0.562,1.62-1.077,2.332
			c-0.518,0.711-1.158,1.301-1.886,1.747c-0.729,0.446-1.543,0.749-2.411,0.886l0,0l0,0l-14.131,2.235l-14.131,2.235
			c-0.173,0.027-0.347,0.048-0.519,0.062C124.961,103.132,124.79,103.139,124.62,103.139z M152.893,89
			c-0.08,0-0.162,0.003-0.244,0.01c-0.08,0.007-0.163,0.016-0.245,0.029l-14.13,2.235l-14.131,2.235
			c-0.84,0.133-1.547,0.595-2.011,1.233c-0.465,0.639-0.686,1.455-0.553,2.294c0.065,0.407,0.206,0.789,0.416,1.13
			c0.208,0.34,0.484,0.641,0.817,0.882s0.703,0.412,1.092,0.505c0.389,0.093,0.796,0.11,1.203,0.046l14.131-2.235l14.132-2.235
			c0.406-0.065,0.789-0.206,1.129-0.416c0.342-0.209,0.641-0.484,0.883-0.818c0.242-0.333,0.412-0.703,0.505-1.092
			c0.095-0.389,0.111-0.796,0.047-1.203c-0.064-0.406-0.206-0.789-0.415-1.129c-0.209-0.341-0.485-0.641-0.818-0.883
			c-0.266-0.193-0.557-0.341-0.86-0.44C153.534,89.05,153.215,89,152.893,89z"/>
		<g>
			<g>
				<path fill="#FFFFFF" d="M112.236,143.01c-0.05-0.455,0.09-0.888,0.356-1.219c0.265-0.331,0.658-0.561,1.112-0.611l0,0l0,0
					c0.455-0.05,0.888,0.09,1.219,0.356c0.332,0.266,0.562,0.658,0.611,1.113l0,0l0,0c0.05,0.455-0.089,0.887-0.355,1.219
					c-0.265,0.331-0.657,0.561-1.113,0.61l0,0l0,0c-0.454,0.05-0.887-0.089-1.218-0.355
					C112.516,143.857,112.286,143.465,112.236,143.01z"/>
				<path fill="#FFFFFF" d="M119.916,140.955c-0.274-0.371-0.371-0.817-0.306-1.238c0.063-0.421,0.288-0.815,0.652-1.083l0,0l0,0
					c0.371-0.274,0.814-0.373,1.233-0.31c0.419,0.062,0.813,0.286,1.087,0.656l0,0l0,0c0.274,0.371,0.37,0.818,0.306,1.238
					c-0.064,0.421-0.288,0.816-0.652,1.083l0,0l0,0c0,0,0,0-0.002,0s-0.005,0-0.012,0.001l0,0l0,0
					c-0.117,0.086-0.246,0.157-0.381,0.21c-0.134,0.053-0.274,0.089-0.413,0.104l0,0l0,0c-0.283,0.031-0.571-0.011-0.834-0.122
					C120.332,141.383,120.096,141.203,119.916,140.955z"/>
				<path fill="#FFFFFF" d="M125.519,135.322c-0.42-0.181-0.724-0.518-0.877-0.915c-0.154-0.397-0.157-0.854,0.024-1.274l0,0l0,0
					c0.188-0.414,0.525-0.718,0.921-0.872c0.396-0.154,0.849-0.157,1.269,0.031l0,0l0,0c0.421,0.182,0.725,0.519,0.878,0.914
					c0.154,0.395,0.157,0.849-0.026,1.262l0,0l0,0c-0.128,0.288-0.323,0.52-0.556,0.687c-0.234,0.167-0.506,0.271-0.791,0.302l0,0
					l0,0c-0.139,0.015-0.279,0.014-0.42-0.007C125.801,135.429,125.66,135.387,125.519,135.322z"/>
				<path fill="#FFFFFF" d="M125.733,126.181c-0.001-0.006-0.001-0.01-0.001-0.013c0-0.003,0-0.007-0.001-0.014l0,0l0,0
					c0-0.006-0.001-0.01-0.002-0.013c0-0.003,0-0.007-0.001-0.014l0,0l0,0c-0.05-0.455,0.086-0.887,0.35-1.22
					s0.655-0.565,1.117-0.623l0,0l0,0c0.449-0.049,0.881,0.09,1.214,0.356c0.333,0.266,0.565,0.658,0.615,1.113l0,0l0,0
					c0,0.006,0.001,0.013,0.002,0.018c0.001,0.004,0.001,0.008,0.001,0.008l0,0l0,0c0,0.007,0.001,0.014,0.002,0.02
					c0,0.007,0.001,0.013,0.002,0.02l0,0l0,0c0.05,0.455-0.089,0.888-0.355,1.218c-0.266,0.332-0.658,0.562-1.113,0.611l0,0l0,0
					c-0.455,0.05-0.887-0.09-1.218-0.356C126.013,127.028,125.783,126.636,125.733,126.181z"/>
			</g>
			<g>
				<path fill="#DB5C18" d="M105.418,143.156L105.418,143.156L105.418,143.156L105.418,143.156L105.418,143.156
					c-0.42-0.181-0.725-0.518-0.878-0.913c-0.154-0.396-0.156-0.849,0.026-1.263l0,0l0,0c0.188-0.421,0.524-0.729,0.919-0.883
					c0.395-0.156,0.849-0.158,1.27,0.029l0,0l0,0c0.42,0.181,0.724,0.518,0.877,0.915c0.154,0.397,0.157,0.854-0.024,1.274l0,0l0,0
					c-0.123,0.28-0.318,0.509-0.554,0.675s-0.511,0.27-0.795,0.301l0,0l0,0c-0.139,0.015-0.279,0.014-0.419-0.008
					C105.7,143.262,105.559,143.221,105.418,143.156z"/>
				<path fill="#DB5C18" d="M98.585,137.696c-0.274-0.37-0.369-0.813-0.305-1.233c0.065-0.419,0.289-0.814,0.651-1.088l0,0l0,0
					c0.371-0.274,0.815-0.369,1.234-0.305c0.418,0.064,0.813,0.288,1.086,0.652l0,0l0,0c0.275,0.37,0.37,0.813,0.307,1.233
					c-0.064,0.418-0.289,0.813-0.651,1.087l0,0l0,0c-0.124,0.094-0.257,0.165-0.393,0.217c-0.137,0.052-0.277,0.083-0.415,0.099l0,0
					l0,0c-0.284,0.031-0.571-0.011-0.834-0.122C99.003,138.124,98.766,137.943,98.585,137.696z"/>
				<path fill="#DB5C18" d="M95.397,129.542L95.397,129.542L95.397,129.542L95.397,129.542L95.397,129.542
					c-0.05-0.456,0.089-0.888,0.355-1.219s0.658-0.561,1.113-0.611l0,0l0,0c0.455-0.057,0.887,0.08,1.218,0.344
					c0.331,0.264,0.56,0.656,0.61,1.111l0,0l0,0c0.049,0.455-0.09,0.888-0.354,1.22c-0.264,0.333-0.652,0.565-1.1,0.621l0,0l0,0
					c-0.461,0.051-0.897-0.088-1.23-0.354C95.677,130.388,95.447,129.997,95.397,129.542z"/>
				<polygon fill="#DB5C18" points="125.728,126.128 125.728,126.128 125.728,126.128 125.728,126.128 125.728,126.128 
					125.728,126.128 125.728,126.128 				"/>
				<path fill="#DB5C18" d="M97.559,123.07c-0.42-0.18-0.725-0.518-0.877-0.915c-0.154-0.397-0.157-0.854,0.024-1.274l0,0l0,0
					c0.187-0.421,0.524-0.725,0.919-0.878c0.396-0.154,0.85-0.157,1.27,0.024l0,0l0,0c0.421,0.188,0.725,0.525,0.878,0.921
					c0.153,0.395,0.156,0.849-0.024,1.269l0,0l0,0c-0.124,0.281-0.315,0.512-0.549,0.682c-0.233,0.169-0.508,0.276-0.798,0.308l0,0
					l0,0c-0.139,0.015-0.279,0.01-0.42-0.013C97.841,123.17,97.699,123.128,97.559,123.07z"/>
				<path fill="#DB5C18" d="M123.155,119.575c-0.273-0.364-0.372-0.807-0.31-1.228c0.063-0.42,0.287-0.819,0.657-1.093l0,0l0,0
					c0.37-0.274,0.813-0.369,1.232-0.305c0.419,0.064,0.814,0.288,1.088,0.652l0,0l0,0c0.274,0.371,0.373,0.813,0.31,1.232
					c-0.063,0.419-0.287,0.814-0.657,1.088l0,0l0,0c-0.123,0.094-0.252,0.165-0.387,0.215c-0.135,0.052-0.275,0.083-0.419,0.1l0,0
					l0,0c-0.284,0.031-0.572-0.01-0.835-0.122C123.572,120.003,123.335,119.822,123.155,119.575z"/>
				<path fill="#DB5C18" d="M101.819,116.369c-0.275-0.37-0.371-0.817-0.307-1.237c0.064-0.42,0.288-0.816,0.653-1.083l0,0l0,0
					c0.371-0.275,0.817-0.374,1.237-0.311s0.815,0.287,1.083,0.658l0,0l0,0c0.275,0.371,0.374,0.813,0.311,1.233
					c-0.063,0.419-0.286,0.813-0.656,1.088l0,0l0,0c-0.125,0.086-0.253,0.158-0.388,0.211c-0.134,0.053-0.274,0.088-0.42,0.104l0,0
					l0,0c-0.284,0.032-0.572-0.014-0.834-0.127C102.235,116.792,101.999,116.61,101.819,116.369z"/>
				<path fill="#DB5C18" d="M117.641,115.185L117.641,115.185L117.641,115.185c-0.419-0.18-0.723-0.515-0.876-0.908
					c-0.153-0.394-0.156-0.847,0.024-1.268l0,0l0,0c0.188-0.42,0.525-0.728,0.92-0.883c0.395-0.155,0.848-0.159,1.269,0.029l0,0l0,0
					c0.421,0.182,0.725,0.515,0.878,0.909c0.153,0.394,0.156,0.847-0.025,1.268l0,0l0,0c-0.122,0.287-0.313,0.518-0.545,0.685
					c-0.232,0.167-0.504,0.27-0.789,0.301l0,0l0,0c-0.139,0.016-0.282,0.014-0.426-0.007
					C117.927,115.292,117.782,115.25,117.641,115.185z"/>
				<path fill="#DB5C18" d="M108.864,112.688c-0.057-0.461,0.079-0.896,0.343-1.229c0.264-0.333,0.656-0.563,1.111-0.612l0,0l0,0
					c0.456-0.05,0.888,0.09,1.221,0.355s0.565,0.657,0.622,1.111l0,0l0,0c0.05,0.455-0.089,0.888-0.355,1.219
					c-0.266,0.332-0.658,0.562-1.113,0.611l0,0l0,0c-0.455,0.049-0.887-0.087-1.218-0.349
					C109.144,113.532,108.914,113.144,108.864,112.688z"/>
			</g>
		</g>
		<path fill="#290003" d="M140.607,107.792c-0.422,0-0.82-0.154-1.129-0.415s-0.529-0.631-0.597-1.062l-0.55-3.475l-0.55-3.474
			c-0.075-0.478,0.05-0.94,0.313-1.303c0.264-0.362,0.665-0.624,1.142-0.699c0.48-0.074,0.943,0.051,1.305,0.313
			c0.361,0.263,0.622,0.664,0.697,1.141l0.55,3.475l0.55,3.475c0.075,0.477-0.05,0.939-0.313,1.302s-0.664,0.625-1.142,0.7
			c-0.046,0.007-0.093,0.012-0.139,0.016C140.699,107.79,140.652,107.792,140.607,107.792z"/>
		<path fill="#290003" d="M177.703,116.131c-0.141,0-0.283-0.017-0.422-0.052c-0.14-0.034-0.277-0.088-0.41-0.159
			c-0.426-0.23-0.716-0.611-0.843-1.041c-0.129-0.429-0.092-0.907,0.138-1.332l1.455-2.684l1.455-2.685l-1.152-0.647l-1.15-0.647
			l-1.529,2.739l-1.529,2.739c-0.235,0.421-0.62,0.708-1.052,0.831c-0.43,0.122-0.907,0.08-1.329-0.156
			c-0.422-0.235-0.708-0.62-0.83-1.051c-0.123-0.431-0.081-0.908,0.155-1.33l1.958-3.504l1.957-3.505
			c0.113-0.203,0.265-0.379,0.443-0.521c0.18-0.142,0.387-0.248,0.609-0.311c0.224-0.063,0.455-0.08,0.682-0.053
			c0.227,0.027,0.448,0.098,0.651,0.213l2.667,1.5l2.665,1.5c0.417,0.234,0.7,0.615,0.823,1.04c0.124,0.426,0.085,0.899-0.143,1.319
			l-1.865,3.441l-1.864,3.441c-0.158,0.292-0.389,0.521-0.656,0.677C178.319,116.048,178.014,116.131,177.703,116.131z"/>
		<path fill="#290003" d="M185.601,111.592c-0.146,0-0.292-0.018-0.436-0.056c-0.144-0.037-0.285-0.093-0.422-0.169l-6.833-3.844
			l-6.832-3.844c-0.422-0.236-0.708-0.622-0.827-1.053c-0.122-0.432-0.077-0.909,0.16-1.33c0.235-0.42,0.621-0.706,1.053-0.827
			c0.43-0.122,0.908-0.077,1.33,0.159l6.833,3.844l6.832,3.844c0.422,0.236,0.708,0.622,0.827,1.053
			c0.122,0.432,0.077,0.909-0.16,1.33c-0.159,0.286-0.389,0.508-0.653,0.66C186.207,111.512,185.906,111.592,185.601,111.592z"/>
		<path fill="#290003" d="M148.375,156.878c-0.032,0-0.064,0-0.097-0.002c-0.032-0.001-0.064-0.005-0.097-0.008l-16.416-1.831
			l-16.416-1.831c-0.479-0.053-0.893-0.296-1.172-0.646c-0.28-0.35-0.425-0.808-0.373-1.287c0.054-0.48,0.295-0.894,0.644-1.173
			c0.349-0.28,0.805-0.427,1.289-0.372l15.275,1.705l15.276,1.703l-2.477-15.655l-2.478-15.655c-0.075-0.478,0.049-0.94,0.313-1.303
			c0.263-0.362,0.664-0.625,1.142-0.7c0.481-0.074,0.944,0.051,1.305,0.313c0.362,0.264,0.622,0.664,0.698,1.141l2.656,16.789
			l2.657,16.788c0.042,0.271,0.021,0.543-0.059,0.796c-0.079,0.254-0.216,0.49-0.405,0.688c-0.166,0.174-0.363,0.309-0.579,0.4
			C148.847,156.83,148.613,156.878,148.375,156.878z"/>
		<g>
			<path fill="#FFFFFF" d="M151.077,155.128c0,0.747-0.304,1.422-0.792,1.911c-0.489,0.489-1.164,0.791-1.91,0.791
				c-0.746,0-1.421-0.302-1.91-0.791s-0.792-1.164-0.792-1.911c0-0.745,0.303-1.422,0.792-1.909c0.489-0.489,1.165-0.791,1.91-0.791
				c0.746,0,1.421,0.302,1.91,0.791C150.773,153.706,151.077,154.383,151.077,155.128z"/>
			<path fill="#290003" d="M148.375,159.58c-1.228,0-2.34-0.499-3.146-1.307c-0.806-0.804-1.305-1.917-1.305-3.146
				c0-1.227,0.499-2.34,1.305-3.146c0.807-0.806,1.919-1.305,3.146-1.305c1.227,0,2.34,0.499,3.146,1.305
				c0.806,0.806,1.306,1.919,1.306,3.146c0,1.229-0.5,2.342-1.306,3.146C150.715,159.081,149.602,159.58,148.375,159.58z
				 M148.375,154.178c-0.263,0-0.5,0.106-0.672,0.278c-0.172,0.172-0.279,0.411-0.279,0.672c0,0.263,0.107,0.501,0.279,0.673
				c0.172,0.173,0.41,0.278,0.672,0.278s0.5-0.105,0.673-0.278c0.172-0.172,0.279-0.41,0.279-0.673c0-0.261-0.107-0.5-0.279-0.672
				S148.637,154.178,148.375,154.178z"/>
		</g>
	</g>
	<path fill="#290003" d="M206.265,146.239c-0.425,0-0.826-0.157-1.136-0.421c-0.309-0.265-0.528-0.639-0.592-1.073
		c-0.07-0.478,0.059-0.939,0.325-1.299c0.267-0.359,0.671-0.618,1.148-0.688c3.706-0.549,7.34-2.18,10.531-4.107
		c3.192-1.927,5.944-4.15,7.889-5.881h-6.706h-6.706c-0.403,0-0.783-0.138-1.082-0.375c-0.3-0.236-0.523-0.571-0.619-0.963
		c-0.095-0.392-0.05-0.792,0.108-1.139c0.158-0.348,0.431-0.644,0.789-0.829c8.929-4.603,14.729-10.883,18.495-16.994
		c3.766-6.111,5.497-12.052,6.287-15.975c-5.921,4.919-12.098,7.726-16.87,9.311c-4.771,1.585-8.138,1.948-8.435,1.978
		c-0.42,0.042-0.824-0.068-1.151-0.289c-0.329-0.221-0.582-0.553-0.702-0.957c-0.119-0.403-0.086-0.819,0.069-1.184
		s0.435-0.676,0.808-0.868c4.803-2.475,8.55-5.535,11.222-9.156c2.673-3.622,4.271-7.804,4.777-12.521
		c0.206-1.931,0.203-3.754,0.089-5.386c-0.115-1.633-0.342-3.073-0.581-4.239c-4.599,5.011-10.805,8.135-17.602,10.28
		c-6.796,2.145-14.183,3.313-21.143,4.413c-0.633,0.101-1.264,0.2-1.892,0.3s-1.251,0.2-1.87,0.301
		c-7.28,1.188-11.776,4.696-14.454,7.921c-2.68,3.225-3.542,6.168-3.558,6.227c-0.131,0.466-0.436,0.834-0.826,1.054
		s-0.864,0.291-1.331,0.16c-0.464-0.13-0.834-0.436-1.053-0.827c-0.221-0.39-0.291-0.864-0.161-1.33
		c0.08-0.284,1.1-3.766,4.19-7.519c3.093-3.752,8.257-7.776,16.63-9.142c0.621-0.102,1.248-0.202,1.878-0.302
		c0.631-0.101,1.264-0.201,1.9-0.301c7.216-1.141,14.912-2.357,21.789-4.681c6.877-2.325,12.932-5.758,16.866-11.331
		c0.188-0.265,0.44-0.466,0.727-0.591c0.286-0.125,0.605-0.174,0.926-0.135c0.322,0.041,0.619,0.17,0.864,0.364
		c0.245,0.195,0.438,0.454,0.552,0.758c0.049,0.13,0.645,1.75,1.124,4.325c0.479,2.575,0.838,6.105,0.415,10.055
		c-0.294,2.745-1.002,5.89-2.47,9.11s-3.697,6.518-7.034,9.568c2.583-0.963,5.507-2.292,8.504-4.11
		c2.998-1.82,6.07-4.131,8.954-7.062c0.253-0.257,0.571-0.423,0.91-0.49c0.338-0.066,0.696-0.033,1.027,0.109
		c0.332,0.142,0.602,0.379,0.788,0.67c0.184,0.292,0.283,0.637,0.27,0.997c-0.016,0.509-0.276,6.332-3.12,13.777
		s-8.271,16.515-18.621,23.519h5.682h5.683c0.347,0,0.678,0.102,0.956,0.284c0.279,0.182,0.506,0.443,0.646,0.76
		c0.14,0.318,0.18,0.662,0.125,0.991c-0.055,0.328-0.202,0.641-0.437,0.896c-0.229,0.249-3.057,3.302-7.354,6.518
		c-4.298,3.217-10.068,6.597-16.18,7.501c-0.043,0.006-0.086,0.012-0.129,0.015C206.352,146.238,206.307,146.239,206.265,146.239z"
		/>
	<path fill="#DB5C18" d="M189.859,77.859c0,0,4.854,0.178,10.507-1.208c5.653-1.385,12.109-4.333,15.314-10.586
		c0,0-5.35,0.604-11.253,2.381C198.524,70.222,192.069,73.17,189.859,77.859z"/>
	<path fill="#290003" d="M193.225,78.726c-1.124,0-2.045-0.055-2.691-0.11c-0.646-0.055-1.018-0.112-1.046-0.116
		c-0.261-0.042-0.502-0.141-0.714-0.287c-0.212-0.146-0.39-0.338-0.521-0.565s-0.207-0.479-0.229-0.734
		c-0.021-0.256,0.016-0.517,0.108-0.762c2.918-7.682,10.239-11.912,16.955-14.23c6.717-2.317,12.829-2.722,13.327-2.75
		c0.299-0.017,0.594,0.043,0.857,0.168c0.263,0.126,0.494,0.315,0.669,0.561s0.281,0.526,0.314,0.816
		c0.034,0.29-0.005,0.587-0.119,0.865c-3.115,7.604-8.165,11.89-13.275,14.275C201.752,78.241,196.58,78.726,193.225,78.726z
		 M192.416,75.253c2.53,0.101,6.75-0.068,11.123-1.708s8.9-4.749,12.05-10.53c-2.896,0.43-7.465,1.348-11.923,3.229
		C199.21,68.125,194.864,70.969,192.416,75.253z"/>
	<g>
		<path fill="#290003" d="M173.672,96.395c-0.227,0-0.45-0.062-0.645-0.178c-0.193-0.116-0.358-0.287-0.469-0.503
			c-0.157-0.308-0.176-0.649-0.076-0.954c0.098-0.304,0.313-0.571,0.62-0.728c2.048-1.046,4.331-1.926,6.781-2.619
			c2.449-0.693,5.066-1.2,7.781-1.5c0.342-0.04,0.668,0.065,0.917,0.266c0.251,0.2,0.426,0.495,0.463,0.838
			c0.038,0.343-0.066,0.669-0.267,0.918c-0.199,0.25-0.494,0.423-0.837,0.461c-2.567,0.284-5.035,0.76-7.339,1.41
			c-2.306,0.649-4.447,1.472-6.363,2.451c-0.091,0.046-0.185,0.081-0.279,0.104C173.864,96.384,173.768,96.395,173.672,96.395z"/>
		<path fill="#290003" d="M191.729,91.566c-0.301,0-0.585-0.109-0.805-0.294c-0.221-0.186-0.378-0.447-0.428-0.754
			c-0.056-0.341,0.031-0.671,0.218-0.932c0.187-0.26,0.473-0.448,0.813-0.504l0.903-0.148l0.904-0.148
			c0.339-0.055,0.67,0.033,0.931,0.219c0.26,0.187,0.449,0.472,0.506,0.813c0.056,0.341-0.033,0.671-0.219,0.932
			c-0.187,0.259-0.474,0.448-0.813,0.504l-0.903,0.148l-0.904,0.148c-0.034,0.005-0.068,0.01-0.103,0.012
			C191.795,91.564,191.761,91.566,191.729,91.566z"/>
		<path fill="#290003" d="M208.176,112.653c-1.517,0-2.822-0.261-3.858-0.767c-1.034-0.505-1.8-1.256-2.234-2.233
			c-0.547-1.231-0.478-2.63,0.131-4.02c0.609-1.39,1.758-2.771,3.367-3.965c0.277-0.206,0.612-0.279,0.929-0.233
			c0.317,0.047,0.614,0.214,0.819,0.491c0.207,0.278,0.28,0.612,0.234,0.928c-0.048,0.316-0.215,0.615-0.491,0.821
			c-1.088,0.807-1.909,1.72-2.387,2.596c-0.477,0.875-0.608,1.712-0.319,2.367c0.239,0.538,0.864,1.047,1.94,1.319
			c1.077,0.271,2.608,0.306,4.662-0.106c0.343-0.068,0.677,0.008,0.942,0.185c0.265,0.178,0.462,0.457,0.53,0.794
			c0.067,0.338-0.009,0.672-0.186,0.939c-0.177,0.266-0.455,0.465-0.795,0.533c-0.588,0.118-1.157,0.206-1.706,0.264
			S208.68,112.653,208.176,112.653z"/>
		<path fill="#290003" d="M209.825,100.16c-0.157,0-0.313-0.029-0.461-0.087c-0.147-0.059-0.286-0.146-0.407-0.264
			c-0.249-0.24-0.376-0.558-0.382-0.877c-0.005-0.32,0.111-0.642,0.351-0.89c0.384-0.396,0.756-0.763,1.123-1.102
			c0.365-0.34,0.726-0.654,1.085-0.946c0.268-0.218,0.598-0.308,0.917-0.274c0.317,0.032,0.622,0.186,0.842,0.454
			c0.218,0.268,0.308,0.598,0.274,0.917s-0.187,0.624-0.454,0.843c-0.321,0.261-0.644,0.542-0.974,0.849
			c-0.33,0.307-0.667,0.638-1.016,0.999c-0.122,0.127-0.266,0.223-0.419,0.286C210.15,100.128,209.988,100.16,209.825,100.16z"/>
		<path fill="#290003" d="M201.364,141.217c-0.277,0-0.542-0.093-0.756-0.255c-0.215-0.164-0.378-0.396-0.452-0.676
			c-0.209-0.791-0.447-1.584-0.714-2.376c-0.269-0.792-0.563-1.582-0.888-2.365c-0.133-0.319-0.121-0.661,0.002-0.957
			c0.122-0.295,0.358-0.543,0.676-0.675c0.32-0.133,0.663-0.123,0.958,0s0.544,0.359,0.675,0.677
			c0.344,0.834,0.661,1.677,0.945,2.521c0.285,0.845,0.54,1.692,0.763,2.536c0.088,0.333,0.032,0.671-0.129,0.948
			c-0.16,0.276-0.427,0.492-0.761,0.58c-0.053,0.014-0.106,0.025-0.16,0.032C201.471,141.214,201.416,141.217,201.364,141.217z"/>
		<path fill="#290003" d="M197.597,131.934c-0.221,0-0.438-0.058-0.627-0.167c-0.19-0.11-0.354-0.271-0.469-0.478
			c-0.605-1.096-1.269-2.183-1.983-3.253c-0.714-1.071-1.479-2.124-2.294-3.155c-0.213-0.271-0.297-0.603-0.26-0.921
			c0.038-0.317,0.196-0.621,0.467-0.834c0.271-0.214,0.604-0.297,0.921-0.26c0.318,0.037,0.621,0.196,0.836,0.467
			c0.854,1.083,1.66,2.192,2.412,3.319c0.753,1.127,1.45,2.272,2.09,3.427c0.166,0.302,0.194,0.643,0.107,0.951
			c-0.089,0.308-0.294,0.582-0.596,0.749c-0.097,0.053-0.196,0.092-0.298,0.118C197.803,131.922,197.699,131.934,197.597,131.934z"
			/>
		<path fill="#290003" d="M189.859,121.532c-0.162,0-0.326-0.031-0.479-0.095c-0.152-0.063-0.295-0.157-0.417-0.283
			c-0.321-0.33-0.616-0.624-0.896-0.891c-0.279-0.268-0.542-0.51-0.8-0.735c-0.259-0.228-0.402-0.539-0.424-0.859
			c-0.021-0.319,0.08-0.646,0.308-0.906c0.228-0.259,0.538-0.401,0.858-0.423c0.318-0.021,0.646,0.08,0.905,0.307
			c0.282,0.248,0.571,0.512,0.873,0.801c0.303,0.291,0.62,0.607,0.964,0.961c0.242,0.247,0.36,0.568,0.355,0.889
			c-0.003,0.32-0.131,0.638-0.377,0.879c-0.121,0.118-0.261,0.207-0.409,0.266C190.174,121.502,190.017,121.532,189.859,121.532z"/>
		<g>
			<path fill="#290003" d="M213.621,150.161c-0.251,0-0.495-0.075-0.699-0.213c-0.204-0.137-0.371-0.336-0.467-0.584
				c-0.126-0.322-0.108-0.663,0.021-0.957c0.129-0.292,0.369-0.536,0.691-0.662c0.138-0.053,0.297-0.123,0.47-0.198
				c0.172-0.076,0.355-0.16,0.539-0.245c0.209-0.095,0.418-0.189,0.614-0.276c0.195-0.086,0.379-0.164,0.535-0.225
				c0.321-0.125,0.663-0.107,0.956,0.021c0.292,0.129,0.536,0.37,0.661,0.691s0.107,0.664-0.021,0.956
				c-0.129,0.293-0.37,0.536-0.691,0.662c-0.14,0.054-0.301,0.123-0.474,0.2s-0.357,0.161-0.543,0.246
				c-0.206,0.094-0.414,0.188-0.608,0.274c-0.193,0.085-0.377,0.163-0.531,0.223c-0.074,0.029-0.15,0.05-0.226,0.064
				C213.771,150.154,213.695,150.161,213.621,150.161z"/>
			<path fill="#290003" d="M219.673,146.734c-0.225,0-0.446-0.061-0.639-0.174c-0.192-0.114-0.356-0.282-0.468-0.495
				c-0.161-0.306-0.183-0.647-0.088-0.953c0.096-0.305,0.307-0.575,0.613-0.735c1.108-0.583,2.209-1.222,3.296-1.913
				c1.086-0.691,2.154-1.435,3.202-2.224c0.276-0.208,0.61-0.284,0.927-0.24c0.316,0.044,0.616,0.209,0.824,0.484
				c0.208,0.275,0.283,0.609,0.24,0.926c-0.044,0.317-0.21,0.617-0.485,0.825c-1.101,0.831-2.227,1.612-3.369,2.339
				c-1.145,0.728-2.304,1.401-3.473,2.015c-0.093,0.049-0.189,0.085-0.286,0.108C219.87,146.723,219.771,146.734,219.673,146.734z"
				/>
		</g>
	</g>
	<path fill="#FDE74C" d="M148.296,221.855c-18.534,0-35.341-7.54-47.513-19.713c-12.173-12.174-19.713-28.979-19.713-47.514
		c0-0.414,0.168-0.789,0.44-1.061c0.271-0.271,0.646-0.439,1.061-0.439c0.414,0,0.789,0.168,1.06,0.439
		c0.271,0.271,0.439,0.646,0.439,1.061c0,17.706,7.203,33.764,18.833,45.394c11.63,11.63,27.687,18.832,45.394,18.832
		s33.764-7.202,45.394-18.832s18.832-27.688,18.832-45.394c0-0.414,0.168-0.789,0.44-1.061c0.271-0.271,0.646-0.439,1.06-0.439
		s0.79,0.168,1.061,0.439c0.271,0.271,0.439,0.646,0.439,1.061c0,18.534-7.539,35.34-19.712,47.514
		C183.637,214.314,166.83,221.855,148.296,221.855z"/>
	<path fill="#A61212" d="M77.52,162.134c-0.124,0-0.248-0.017-0.37-0.047c-0.122-0.032-0.243-0.079-0.359-0.145
		c-0.361-0.2-0.607-0.529-0.712-0.899c-0.105-0.369-0.069-0.777,0.132-1.14l2.524-4.531l2.524-4.531
		c0.128-0.229,0.31-0.416,0.525-0.548c0.216-0.133,0.465-0.211,0.727-0.221c0.268-0.006,0.522,0.052,0.747,0.166
		c0.224,0.114,0.417,0.284,0.561,0.502l2.851,4.287l2.85,4.287c0.23,0.345,0.297,0.75,0.222,1.126
		c-0.076,0.377-0.295,0.724-0.64,0.954c-0.346,0.229-0.751,0.298-1.127,0.222c-0.376-0.076-0.724-0.295-0.953-0.641l-2.169-3.264
		l-2.169-3.263l-1.926,3.457l-1.926,3.457c-0.137,0.246-0.333,0.438-0.561,0.569C78.043,162.064,77.784,162.134,77.52,162.134z"/>
	<path fill="#290003" d="M144.594,227.57c-0.022,0-0.045-0.001-0.067-0.001c-0.023-0.002-0.045-0.003-0.069-0.005
		c-0.984-0.09-1.977-0.196-2.97-0.322c-0.994-0.127-1.988-0.271-2.976-0.434c-0.409-0.067-0.752-0.293-0.976-0.606
		c-0.224-0.311-0.329-0.708-0.261-1.116c0.067-0.41,0.292-0.751,0.604-0.975s0.709-0.329,1.119-0.264
		c0.952,0.157,1.91,0.296,2.867,0.418c0.957,0.121,1.913,0.226,2.862,0.311c0.413,0.038,0.771,0.237,1.017,0.532
		c0.247,0.295,0.38,0.684,0.343,1.097c-0.035,0.389-0.216,0.73-0.484,0.975C145.333,227.424,144.978,227.57,144.594,227.57z"/>
	<path fill="#290003" d="M151.755,227.88c-0.229,0-0.458,0-0.688-0.002c-0.228-0.003-0.456-0.006-0.686-0.011
		c-0.414-0.009-0.785-0.185-1.051-0.462c-0.266-0.276-0.426-0.655-0.417-1.068c0.009-0.409,0.18-0.776,0.451-1.042
		c0.271-0.265,0.642-0.428,1.049-0.428c0.005,0,0.011,0,0.016,0s0.01,0,0.016,0c5.488,0.116,10.97-0.479,16.295-1.75
		c5.327-1.271,10.497-3.215,15.362-5.796c0.365-0.195,0.775-0.223,1.143-0.109c0.366,0.112,0.691,0.365,0.886,0.731
		c0.193,0.365,0.222,0.775,0.108,1.143c-0.112,0.367-0.365,0.691-0.73,0.886c-4.887,2.593-10.068,4.569-15.405,5.899
		C162.765,227.2,157.27,227.88,151.755,227.88z"/>
	<path fill="#290003" d="M188.194,216.943c-0.244,0-0.484-0.059-0.701-0.172c-0.216-0.112-0.407-0.282-0.551-0.498
		c-0.23-0.346-0.297-0.751-0.221-1.127c0.075-0.376,0.296-0.724,0.641-0.952c0.446-0.297,0.89-0.599,1.329-0.907
		c0.439-0.308,0.874-0.62,1.299-0.937c0.334-0.246,0.734-0.335,1.115-0.278c0.379,0.057,0.737,0.259,0.983,0.592
		s0.335,0.734,0.279,1.113c-0.057,0.38-0.259,0.737-0.591,0.984c-0.448,0.331-0.903,0.659-1.363,0.982
		c-0.461,0.322-0.926,0.64-1.394,0.95c-0.127,0.085-0.264,0.147-0.401,0.188C188.478,216.923,188.336,216.943,188.194,216.943z"/>
	<path fill="#290003" d="M196.117,210.815c-0.205,0-0.409-0.042-0.599-0.125c-0.19-0.081-0.367-0.205-0.515-0.369
		c-0.277-0.307-0.404-0.697-0.386-1.081c0.02-0.383,0.185-0.759,0.491-1.037c1.245-1.127,2.439-2.304,3.571-3.521
		c1.134-1.22,2.209-2.479,3.216-3.774c0.254-0.326,0.617-0.52,0.998-0.567c0.382-0.047,0.779,0.052,1.106,0.305
		c0.327,0.255,0.52,0.617,0.567,0.998c0.048,0.382-0.051,0.78-0.305,1.106c-1.061,1.363-2.19,2.689-3.384,3.974
		c-1.192,1.282-2.448,2.521-3.757,3.705c-0.145,0.13-0.306,0.227-0.477,0.291C196.477,210.784,196.297,210.815,196.117,210.815z"/>
</g>
</svg>
