<?xml version="1.0" encoding="utf-8"?>
<!-- Generator: Adobe Illustrator 16.0.0, SVG Export Plug-In . SVG Version: 6.00 Build 0)  -->
<!DOCTYPE svg PUBLIC "-//W3C//DTD SVG 1.1//EN" "http://www.w3.org/Graphics/SVG/1.1/DTD/svg11.dtd">
<svg version="1.1" id="Layer_1" xmlns="http://www.w3.org/2000/svg" xmlns:xlink="http://www.w3.org/1999/xlink" x="0px" y="0px"
	 width="500px" height="500px" viewBox="0 0 500 500" enable-background="new 0 0 500 500" xml:space="preserve">
<g id="Shape_1">
	<g>
		<path fill="none" stroke="#D53132" stroke-width="5" stroke-miterlimit="10" d="M83.261,303.838c-2.177,0-3.942,1.765-3.942,3.942
			c0,2.177,1.765,3.941,3.942,3.941s3.942-1.765,3.942-3.941C87.204,305.603,85.439,303.838,83.261,303.838z M77.646,295.901
			c0.386-0.184,0.782-0.35,1.188-0.495v-13.533c-3.958,0.672-7.613,2.229-10.758,4.459L77.646,295.901z M83.261,315.023
			c-0.923,0-1.67,0.748-1.67,1.672c0,0.922,0.748,1.67,1.67,1.67s1.67-0.748,1.67-1.67
			C84.932,315.771,84.184,315.023,83.261,315.023z M87.689,320.152v13.533c3.958-0.672,7.613-2.229,10.758-4.459l-9.569-9.569
			C88.491,319.84,88.096,320.007,87.689,320.152z M95.634,312.207c-0.146,0.406-0.31,0.804-0.493,1.189l9.569,9.569
			c2.231-3.146,3.787-6.802,4.458-10.759H95.634L95.634,312.207z M83.261,264.748c-23.765,0-43.031,19.266-43.031,43.031
			c0,23.765,19.266,43.031,43.031,43.031c23.766,0,43.031-19.267,43.031-43.031C126.292,284.014,107.027,264.748,83.261,264.748z
			 M83.261,338.516c-16.975,0-30.736-13.761-30.736-30.736s13.761-30.736,30.736-30.736c16.975,0,30.736,13.761,30.736,30.736
			S100.237,338.516,83.261,338.516z M90.506,307.779c0,0.922,0.748,1.67,1.67,1.67s1.67-0.748,1.67-1.67
			c0-0.924-0.748-1.671-1.67-1.671S90.506,306.855,90.506,307.779z M83.261,300.534c0.923,0,1.67-0.748,1.67-1.671
			s-0.748-1.672-1.67-1.672s-1.67,0.748-1.67,1.672C81.591,299.786,82.338,300.534,83.261,300.534z M98.448,286.332
			c-3.145-2.23-6.8-3.787-10.758-4.459v13.533c0.406,0.145,0.803,0.312,1.189,0.494L98.448,286.332z M71.383,302.162l-9.569-9.569
			c-2.231,3.145-3.787,6.801-4.459,10.759H70.89C71.035,302.946,71.199,302.548,71.383,302.162z M70.889,312.207H57.355
			c0.671,3.957,2.229,7.613,4.459,10.758l9.569-9.569C71.2,313.01,71.034,312.613,70.889,312.207z M68.076,329.227
			c3.145,2.231,6.801,3.787,10.758,4.459v-13.533c-0.406-0.145-0.803-0.312-1.189-0.495L68.076,329.227z M76.017,307.779
			c0-0.924-0.748-1.671-1.671-1.671s-1.67,0.747-1.67,1.671c0,0.922,0.748,1.67,1.67,1.67S76.017,308.701,76.017,307.779z
			 M95.634,303.352h13.534c-0.672-3.958-2.228-7.614-4.458-10.759l-9.569,9.57C95.323,302.549,95.489,302.945,95.634,303.352z
			 M404.268,301.623c-2.177,0-3.942,1.767-3.942,3.942c0,2.177,1.766,3.942,3.942,3.942s3.942-1.766,3.942-3.942
			C408.21,303.39,406.445,301.623,404.268,301.623z M408.696,317.938v13.532c3.957-0.671,7.612-2.229,10.757-4.458l-9.57-9.57
			C409.498,317.626,409.102,317.793,408.696,317.938z M404.268,312.81c-0.923,0-1.671,0.748-1.671,1.671s0.748,1.671,1.671,1.671
			s1.671-0.747,1.671-1.671C405.938,313.558,405.19,312.81,404.268,312.81z M484.044,287.508
			c2.078-13.002-0.078-14.123-8.686-33.294c-2.337-5.205-8.516-8.373-13.511-11.098c-26.11-14.243-91.304-23.073-95.541-23.162
			c-13.272-13.218-35.001-38.077-64.162-57.962c-5.439-3.709-24.623-4.284-24.623-4.284s-157.413-6.032-194.942,2.895
			c-3.237,0.77-5.488,0.501-8.203,1.93c-0.443,0.233-8.243,8.292-8.686,9.168c-0.432,0.856-2.987,3.645-3.86,4.826
			c-5.792,7.828-12.891,15.556-17.854,24.126c-2.179,3.764-3.189,7.346-5.308,11.099c-2.04,3.612-9.459,6.391-10.615,13.028
			c-0.555,3.184-4.176,1.994-4.343,6.755c1.654,0.511,1.854,1.115,3.86,1.448c-2.901,10.55-4.682,29.384-4.835,31.368
			c0.003-0.001,0.007-0.003,0.01-0.004c-0.024,0.24-0.028,0.228-0.01,0.004c-9.079,2.85-8.236,19.161-9.084,16.206
			c1.092,4.341,4.099,9.996,5.234,14.671c0.973,4.007-2.256,5.715-2.413,9.65c0.705,0.412,1.384,4.734,1.93,5.308
			c2.295,6.317,20.254,12.035,20.254,12.035l1.78,0.002c-1.529-4.535-2.359-9.393-2.359-14.444
			c0-24.954,20.229-45.183,45.183-45.183s45.183,20.229,45.183,45.183c0,5.091-0.843,9.985-2.395,14.551l236.371,0.294
			c-2.148-5.264-3.335-11.021-3.335-17.059c0-24.954,20.229-45.183,45.183-45.183s45.183,20.229,45.183,45.183
			c0,6.076-1.202,11.871-3.377,17.163l3.71,0.004c0,0,27.737,2.579,31.365-6.272c1.489-1.662,2.041-10.067,1.93-14.958
			c0.054-5.031,1.07-4.061,2.413-7.238C486.797,291.177,483.563,288.919,484.044,287.508z M168.47,212.234
			c-0.885,0.62-0.827,0.95-1.931,1.448c-3.515,2.663-37.821-0.966-84.442-0.966c0.793,1.131-5.457,0.155-0.482-10.616
			c6.762-14.641,17.076-24.899,16.508-25.105c13.7-2.061,50.409-1.462,70.348-0.952C168.066,187.625,168.231,193.897,168.47,212.234
			z M307.921,223.333c-0.719-1.024-2.98-2.328-3.378-3.378c-0.459-1.213,0.755-3.612,0-5.308c-2.076-4.667-8.961-7.81-15.923-7.721
			c-1.659,1.921-4.165,2.777-5.308,5.308c-0.317,0.701-1.536,7.337-1.447,7.721c0.237,1.037,0.829,1.231,0.979,1.765
			c1.24,0.05,0.639,0.191-0.015,0.648c0.067-0.276,0.063-0.478,0.015-0.648c-3.479-0.139-21.472,0.443-93.625-3.212
			c-1.999-37.98-3.792-39.224,0.482-45.357c42.222,0,86.855-0.483,86.855-0.483s31.757,38.765,41.497,51.148
			C316.333,224.639,310.729,223.456,307.921,223.333z M338.32,219.472c-15.673-12.571-36.356-39.684-46.323-47.771
			c-3.379,0,7.908-0.192,13.993-1.448c18.163,16.024,36.968,30.519,53.467,49.372C351.644,219.982,344.954,224.793,338.32,219.472z
			 M404.268,262.535c-23.765,0-43.03,19.265-43.03,43.03s19.266,43.031,43.03,43.031c23.766,0,43.031-19.266,43.031-43.031
			S428.033,262.535,404.268,262.535z M404.268,336.302c-16.976,0-30.736-13.761-30.736-30.736s13.761-30.736,30.736-30.736
			s30.736,13.761,30.736,30.736S421.243,336.302,404.268,336.302z M416.147,311.183l9.568,9.569
			c2.231-3.145,3.787-6.801,4.459-10.759h-13.534C416.494,310.398,416.33,310.796,416.147,311.183z M416.641,301.138h13.534
			c-0.673-3.958-2.229-7.614-4.459-10.758l-9.569,9.569C416.329,300.335,416.495,300.731,416.641,301.138z M398.652,293.688
			c0.387-0.183,0.782-0.35,1.188-0.495v-13.533c-3.957,0.672-7.612,2.229-10.757,4.459L398.652,293.688z M397.023,305.564
			c0-0.922-0.748-1.67-1.671-1.67c-0.924,0-1.671,0.748-1.671,1.67c0,0.924,0.747,1.672,1.671,1.672
			C396.275,307.236,397.023,306.488,397.023,305.564z M404.268,298.321c0.923,0,1.671-0.748,1.671-1.672
			c0-0.923-0.748-1.671-1.671-1.671s-1.671,0.748-1.671,1.671S403.345,298.321,404.268,298.321z M419.453,284.117
			c-3.144-2.23-6.8-3.787-10.757-4.459v13.534c0.406,0.145,0.803,0.311,1.188,0.494L419.453,284.117z M411.513,305.564
			c0,0.924,0.748,1.672,1.671,1.672s1.671-0.748,1.671-1.672c0-0.922-0.748-1.67-1.671-1.67S411.513,304.643,411.513,305.564z
			 M392.389,299.947l-9.568-9.568c-2.231,3.145-3.787,6.801-4.459,10.758h13.534C392.042,300.731,392.205,300.334,392.389,299.947z
			 M389.082,327.013c3.145,2.23,6.8,3.788,10.758,4.459v-13.532c-0.406-0.146-0.803-0.312-1.189-0.495L389.082,327.013z
			 M391.895,309.993h-13.533c0.672,3.958,2.229,7.614,4.459,10.758l9.569-9.569C392.207,310.795,392.04,310.398,391.895,309.993z"/>
	</g>
</g>
</svg>
