<svg width="512" height="512" xmlns="http://www.w3.org/2000/svg">

 <g>
  <title>background</title>
  <rect fill="none" id="canvas_background" height="402" width="582" y="-1" x="-1"/>
 </g>
 <g>
  <title>Layer 1</title>
  <path stroke-miterlimit="10" stroke-linejoin="round" stroke-linecap="round" stroke-width="12" stroke="#fcfcfc" fill="none" id="svg_2" d="m117.2,89.913412c0,-11.7 0,-23.3 0,-35c0,-23 13.4,-40.2 34.6,-44.5c3.6,-0.7 7.3,-0.8 10.9,-0.8c62.3,0 124.7,-0.1 187,0c26.8,0 45,18 45,44.8c0,87.2 0,174.3 0,261.5" class="st0"/>
  <path stroke-miterlimit="10" stroke-linejoin="round" stroke-linecap="round" stroke-width="12" stroke="#fcfcfc" fill="#fcfcfc" id="svg_3" d="m394.8,337c0,0.3 0,0 0,0.3" class="st0"/>
  <path stroke-miterlimit="10" stroke-linejoin="round" stroke-linecap="round" stroke-width="12" stroke="#fcfcfc" fill="none" id="svg_4" d="m394.8,356.3c0,33.4 0,66.8 0,100.1c0,26.7 -18.2,44.7 -45,44.8c-62.5,0 -125,0 -187.5,0c-27.1,0 -45,-18.1 -45,-45.2c0,-66.7 0,-133.3 0,-200c0,-40 0,-99 0,-139" class="st0"/>
  <path stroke-miterlimit="10" stroke-width="10" stroke="#fcfcfc" fill="none" id="svg_5" d="m256.1,426.8c11.9,0.1 21.1,9.4 21.1,21.4c-0.1,11.9 -9.5,21.1 -21.4,21.1c-11.9,-0.1 -21.1,-9.4 -21.1,-21.4c0.1,-12 9.5,-21.2 21.4,-21.1z" class="st1"/>
  <path fill="#fcfcfc" id="svg_6" d="m286.7,58.1l-61.5,0c-2.8,0 -5.1,-2.3 -5.1,-5.1l0,0c0,-2.8 2.3,-5.1 5.1,-5.1l61.5,0c2.8,0 5.1,2.3 5.1,5.1l0,0c0,2.8 -2.3,5.1 -5.1,5.1z"/>
 </g>
</svg>