<?xml version="1.0" encoding="utf-8"?>
<!-- Generator: Adobe Illustrator 16.0.0, SVG Export Plug-In . SVG Version: 6.00 Build 0)  -->
<!DOCTYPE svg PUBLIC "-//W3C//DTD SVG 1.1//EN" "http://www.w3.org/Graphics/SVG/1.1/DTD/svg11.dtd">
<svg version="1.1" id="Layer_1" xmlns="http://www.w3.org/2000/svg" xmlns:xlink="http://www.w3.org/1999/xlink" x="0px" y="0px"
	 width="500px" height="500px" viewBox="0 0 500 500" enable-background="new 0 0 500 500" xml:space="preserve">
<g id="layer1" transform="translate(0,-540.36218)">
	<path id="path3796" fill="none" stroke="#D53132" stroke-width="5" stroke-miterlimit="10" d="M206.022,690.785
		c-4.797,0.251-9.592,0.453-14.394,0.605c-12.84,0.406-25.722,0.2-38.555,0.816c-11.714,0.563-23.419,1.351-35.077,2.631
		c-5.636,0.618-11.223,1.708-16.843,2.449c-5.67,0.747-11.319,1.644-17.024,2.026c-4.453,0.298-8.632,0.54-13.094,0.635
		c-1.648,0.035-2.963,0.035-3.75,0.998c-1.037,1.27,0.324,4.106-0.666,5.201l6.653,3.296c0,0-8.081,4.883-11.854,7.711
		c-3.816,2.86-7.439,6.016-10.855,9.344c-3.137,3.056-6.062,6.313-8.83,9.707c-2.277,2.792-6.38,8.739-6.38,8.739
		s-3.171-0.012-4.869,0.393c-2.35,0.562-6.583,2.131-6.955,2.268c-1.921,2.749-3.871,5.469-5.171,8.558
		c0.143-0.2,0.309-0.4,0.484-0.575c1.317-1.313,3.171-2.031,4.959-2.54c1.957-0.557,4.042-0.528,6.078-0.514
		c2.105,0.014,4.235,0.145,6.29,0.604c2.838,0.635,5.603,1.707,8.225,2.963c2.217,1.063,4.868,1.836,6.29,3.84
		c0.74,1.044,1.005,2.489,0.787,3.75c-0.251,1.451-1.439,2.575-2.329,3.75c-3.48,4.597-7.588,8.69-11.642,12.791
		c-2.471,2.5-4.695,5.391-7.711,7.197c-1.532,0.917-3.31,1.502-5.08,1.724c-1.716,0.215-3.573,0.267-5.171-0.393
		c-0.82-0.338-1.665-0.913-2.026-1.724c-0.481-1.081,0-2.388,0.091-3.568c0.146-1.868,0.643-3.692,0.726-5.564
		c0.079-1.791,0.088-3.615-0.212-5.383c-0.154-0.907-0.386-1.818-0.816-2.631c-0.404-0.765-1.347-1.199-1.603-2.026
		c-0.051-0.166-0.097-0.345-0.121-0.514c-0.206,2.521-0.062,5.06-0.182,7.59c-0.187,3.922-0.229,7.929-0.635,11.763
		c-0.107,1.008-1.379,1.155-2.026,1.936c-0.703,0.847-1.711,1.878-2.026,2.933c-0.896,3.004-0.967,7.023-1.209,10.554
		c-0.613,8.904-0.4,17.839-0.605,26.762c-0.13,5.66-1.268,5.109-0.604,7.529c0.526,1.918,2.165,3.35,3.447,4.869
		c2.035,2.411,4.243,4.683,6.683,6.683c2.262,1.854,4.654,3.661,7.318,4.868c1.274,0.577,2.608,1.002,3.992,1.24
		c-0.157-1.544-0.242-3.103-0.242-4.688c0-25.359,20.574-45.902,45.933-45.902s45.903,20.543,45.903,45.902
		c0,3.603-0.425,7.1-1.209,10.463c1.324,0.027,2.619,0.071,3.961,0.091c76.394,1.136,128.419,2.825,229.182,4.052
		c1.552,0.026,1.271,0.006,2.722,0.03c-1.297-4.246-1.996-8.756-1.996-13.426c0-25.359,20.544-45.903,45.903-45.903
		s45.934,20.544,45.934,45.903c0,5.301-0.917,10.411-2.57,15.149c2.023,0.038,1.669,0.02,3.9,0.061
		c3.119,0.301,5.408,0.011,8.104-0.212c3.878-0.319,7.785-0.746,11.581-1.603c3.525-0.794,7.135-1.601,10.342-3.266
		c2.269-1.178,4.26-2.86,6.078-4.657c0.856-0.846,1.364-2.015,2.238-2.842c0.599-0.567,1.441-0.838,2.025-1.422
		c1.167-1.167,2.194-2.534,2.843-4.052c0.271-0.634,0.594-1.366,0.393-2.026c-0.221-0.73-0.289-0.875-0.604-1.572
		c-0.419-0.926-0.438-2.583-0.393-3.598c0.211-4.853,0.914-9.047,1.391-13.88c0.465-4.714,0.606-9.477,0.635-14.213
		c0.026-4.396,0.446-8.875-0.423-13.185c-0.559-2.769-1.82-5.337-3.024-7.892c-1.291-2.738-2.591-5.554-4.476-7.923
		c-1.995-2.509-4.464-4.656-7.105-6.471c-2.865-1.969-6.111-3.334-9.314-4.687c-9.63-4.07-19.565-7.421-29.604-10.342
		c-13.935-4.055-28.16-7.095-42.396-9.918c-2.889-0.573-5.768-1.257-8.709-1.421c-1.351-0.076-2.743-0.018-4.082,0.182
		c-2.205,0.327-5.048,1.151-7.258,0.847c-0.058-0.008-0.147-0.05-0.211-0.061c3.476,2.414,7.893,5.715,7.893,5.715
		s-3.679,2.185-5.897,3.236c-2.218,1.051-4.622,1.241-6.592-0.091c-2.569-1.738-2.379-2.014-4.354-3.75
		c-2.927-2.572-6.043-4.945-9.132-7.318c-5.329-4.094-10.677-8.13-16.208-11.944c-4.832-3.332-9.781-6.513-14.817-9.525
		c-4.908-2.936-9.903-5.719-14.999-8.316c-5.981-3.048-12.065-5.948-18.265-8.527c-6.516-2.712-13.149-5.15-19.867-7.318
		c-7.414-2.393-14.885-4.634-22.498-6.29c-5.951-1.294-12.461-2.522-18.506-3.266c-3.956-0.487-7.054-1.029-10.433-2.208
		c-1.039-0.362-1.916-0.852-2.721-2.026C214.519,689.867,210.285,690.561,206.022,690.785z M190.601,754.468
		c0,0-27.229-0.755-40.853-0.998c-12.539-0.223-37.617-0.423-37.617-0.423s0.001-14.793,0.09-22.195
		c0.083-6.93,0.127-13.696,0.393-20.805c0.043-1.155,1.623-1.869,2.752-2.117c4.712-1.035,9.913-1.92,14.908-2.631
		c6.866-0.976,13.776-1.624,20.684-2.238c6.75-0.6,13.52-1.136,20.291-1.421c4.695-0.198,14.091-0.212,14.091-0.212L190.601,754.468
		z M218.179,702.155c5.961,0.473,11.928,0.928,17.841,1.814c7.565,1.134,15.085,2.707,22.528,4.476
		c7.373,1.752,14.717,3.644,21.894,6.078c4.624,1.568,13.607,5.473,13.607,5.473l7.983,32.144c0,0-2.097,3.163-2.631,4.959
		c-0.533,1.789-0.484,5.594-0.484,5.594s-9.602-0.738-14.817-1.331c-13.834-1.573-27.693-3-41.578-4.052
		c-7.494-0.568-22.498-1.209-22.498-1.209s-5.175-18.457-7.318-27.79c-2.036-8.864-5.262-26.762-5.262-26.762
		S214.601,701.87,218.179,702.155z M93.352,752.14c0,0-12.008-1.869-17.932-3.235c-6.193-1.429-12.601-2.47-18.355-5.171
		c-2.764-1.297-3.729-1.161-1.845-4.173c2.13-3.405,5.296-6.06,8.316-8.709c4.437-3.892,9.209-7.481,14.303-10.463
		c4.073-2.384,8.451-4.242,12.882-5.866c3.165-1.16,9.737-2.752,9.737-2.752L93.352,752.14z M312.888,729.128
		c4.392,2.483,8.77,5.058,12.791,8.104c2.099,1.59,5.866,5.262,5.866,5.262s3.071,6.548,4.264,9.949
		c1.764,5.03,4.264,15.422,4.264,15.422s-5.147-0.335-7.711-0.605c-2.576-0.271-6.592-0.635-6.592-0.635s1.027-5.026,0-7.681
		c-0.707-1.829-2.445-4.048-3.961-5.292c-1.406-1.154-3.347-2.395-4.959-3.236c-1.849-0.964-4.39-1.794-5.776-1.935
		c-1.616-0.165-4.959,0.605-4.959,0.605c-2.168-8.787-5.26-18.272-7.408-27.064C298.706,722.021,308.282,726.523,312.888,729.128z
		 M433.36,770.888c2.44,0.102,4.896,0.302,7.318,0.605c2.855,0.356,5.694,0.764,8.497,1.421c3.164,0.742,6.257,1.825,9.344,2.843
		c3.066,1.011,6.161,2,9.132,3.266c2.364,1.007,4.395,2.856,6.895,3.447c0.987,0.233,2.079-0.368,3.024,0
		c2.051,0.798,3.358,2.844,4.868,4.445c1.616,1.712,4.882,3.154,4.476,5.473c-0.136,0.777-1.39,0.746-2.026,1.21
		c-1.162,0.847-2.351,1.734-3.266,2.843c-0.597,0.724-0.629,1.942-1.421,2.449c-1.202,0.769-2.838,0.374-4.264,0.393
		c-3.998,0.056-7.989-0.238-11.944-0.816c-2.127-0.31-4.291-0.636-6.29-1.421c-2.256-0.886-4.285-2.269-6.29-3.629
		c-4.623-3.133-8.811-6.867-13.185-10.341c-3.124-2.482-6.508-4.662-9.313-7.5c-0.847-0.856-2.142-1.643-2.237-2.842
		c-0.055-0.694,0.397-1.492,0.998-1.845c0.612-0.36,1.308-0.442,2.025-0.423C430.897,770.495,432.179,770.839,433.36,770.888z
		 M35.262,849.389c0,22.177,17.982,40.158,40.158,40.158s40.158-17.981,40.158-40.158s-17.982-40.157-40.158-40.157
		S35.262,827.212,35.262,849.389z M359.759,850.599c0,22.177,17.95,40.157,40.127,40.157s40.157-17.98,40.157-40.157
		s-17.98-40.158-40.157-40.158S359.759,828.422,359.759,850.599z M104.601,849.389c0,16.129-13.052,29.211-29.181,29.211
		s-29.211-13.082-29.211-29.211s13.082-29.211,29.211-29.211S104.601,833.26,104.601,849.389z M429.097,850.599
		c0,16.129-13.082,29.211-29.211,29.211s-29.181-13.082-29.181-29.211s13.052-29.211,29.181-29.211S429.097,834.47,429.097,850.599z
		"/>
</g>
</svg>
