<?xml version="1.0" encoding="utf-8"?>
<!-- Generator: Adobe Illustrator 16.0.0, SVG Export Plug-In . SVG Version: 6.00 Build 0)  -->
<!DOCTYPE svg PUBLIC "-//W3C//DTD SVG 1.1//EN" "http://www.w3.org/Graphics/SVG/1.1/DTD/svg11.dtd">
<svg version="1.1" xmlns="http://www.w3.org/2000/svg" xmlns:xlink="http://www.w3.org/1999/xlink" x="0px" y="0px" width="500px"
	 height="500px" viewBox="0 0 500 500" enable-background="new 0 0 500 500" xml:space="preserve">
<g id="Layer_1" display="none">
	<path id="border_15_" display="inline" fill-rule="evenodd" clip-rule="evenodd" fill="#67CADA" d="M460.059,152.231v264.551
		c0,19.056-15.456,40.258-34.513,40.258H74.731c-19.056,0-34.509-21.202-34.509-40.258V152.231h23.007v265.325
		c0,12.267,4.254,16.479,16.604,16.479h340.612c12.351,0,16.607-4.212,16.607-16.479V151.456L460.059,152.231z"/>
	<g id="top_1_" display="inline">
		<g>
			<path fill="#67CADA" d="M429.713,42.96H70.562c-13.58,0-30.339,22.499-30.339,35.978v90.546h419.836V78.938
				C460.059,65.459,443.294,42.96,429.713,42.96z M143.745,140.724c-15.88,0-28.755-12.867-28.755-28.75
				s12.875-28.756,28.755-28.756c15.88,0,28.753,12.873,28.753,28.756S159.625,140.724,143.745,140.724z M356.538,140.724
				c-15.883,0-28.761-12.867-28.761-28.75s12.878-28.756,28.761-28.756c15.872,0,28.75,12.873,28.75,28.756
				S372.41,140.724,356.538,140.724z"/>
		</g>
	</g>
	
		<text transform="matrix(1 0 0 1 97.7266 324.7578)" display="inline" fill="#A6D067" font-family="'Helvetica-Bold'" font-size="161.0308">JUL</text>
	<g id="dates" display="inline">
		<g>
			<path fill="#A6D067" d="M356.516,365.05h13.805v-11.53h-13.805V365.05z M374.926,365.05h13.806v-11.53h-13.806V365.05z
				 M393.331,365.05h13.811v-11.53h-13.811V365.05z M411.741,353.52v11.53h13.805v-11.53H411.741z M355.258,382.314h14.058V370.79
				h-14.058V382.314z M374.005,382.314h14.052V370.79h-14.052V382.314z M392.747,382.314h14.058V370.79h-14.058V382.314z
				 M411.494,382.314h14.052V370.79h-14.052V382.314z M317.769,382.314h14.058V370.79h-14.058V382.314z M336.517,382.314h14.052
				V370.79h-14.052V382.314z M299.027,382.314h14.052V370.79h-14.052V382.314z M355.258,399.483h14.058v-11.53h-14.058V399.483z
				 M374.005,399.483h14.052v-11.53h-14.052V399.483z M392.747,399.483h14.058v-11.53h-14.058V399.483z M411.494,399.483h14.052
				v-11.53h-14.052V399.483z M317.769,399.483h14.058v-11.53h-14.058V399.483z M336.517,399.483h14.052v-11.53h-14.052V399.483z
				 M299.027,399.483h14.052v-11.53h-14.052V399.483z M299.027,416.838h13.625v-11.53h-13.625V416.838z M317.201,416.838h13.637
				v-11.53h-13.637V416.838z M335.376,416.838h13.637v-11.53h-13.637V416.838z M353.551,416.838h13.636v-11.53h-13.636V416.838z
				 M371.73,416.838h13.631v-11.53H371.73V416.838z"/>
		</g>
	</g>
</g>
<g id="Layer_2">
	<path fill="none" stroke="#2BACE2" stroke-width="10" stroke-linecap="round" stroke-linejoin="round" stroke-miterlimit="10" d="
		M223.74,459.859L58.165,398.857V30.512L223.74,91.514c16.889,6.222,35.442,6.222,52.331,0l165.576-61.002v368.346l-165.576,61.002
		C259.183,466.082,240.629,466.082,223.74,459.859z"/>
	
		<line fill="none" stroke="#2BACE2" stroke-width="10" stroke-linecap="round" stroke-linejoin="round" stroke-miterlimit="10" x1="249.906" y1="343.565" x2="249.906" y2="96.108"/>
	
		<line fill="none" stroke="#2BACE2" stroke-width="10" stroke-linecap="round" stroke-linejoin="round" stroke-miterlimit="10" x1="249.906" y1="403.903" x2="249.906" y2="388.979"/>
	<path fill="none" stroke="#2BACE2" stroke-width="10" stroke-linecap="round" stroke-linejoin="round" stroke-miterlimit="10" d="
		M442.298,79.777l34.671-3.853v368.346l-218.704,24.301c-5.556,0.616-11.161,0.616-16.717,0L22.844,444.271V75.924l34.671,3.853"/>
</g>
</svg>
