<?xml version="1.0" encoding="utf-8"?>
<!-- Generator: Adobe Illustrator 16.0.0, SVG Export Plug-In . SVG Version: 6.00 Build 0)  -->
<!DOCTYPE svg PUBLIC "-//W3C//DTD SVG 1.1//EN" "http://www.w3.org/Graphics/SVG/1.1/DTD/svg11.dtd">
<svg version="1.1" id="Layer_1" xmlns="http://www.w3.org/2000/svg" xmlns:xlink="http://www.w3.org/1999/xlink" x="0px" y="0px"
	 width="500px" height="500px" viewBox="0 0 500 500" enable-background="new 0 0 500 500" xml:space="preserve">
<g id="Layer_1_1_">
	<path id="border_15_" fill="#67CADA" d="M460.059,152.231v264.551c0,19.056-15.456,40.258-34.513,40.258H74.731
		c-19.056,0-34.509-21.202-34.509-40.258V152.231h23.007v265.325c0,12.268,4.254,16.479,16.604,16.479h340.612
		c12.351,0,16.606-4.212,16.606-16.479v-266.1L460.059,152.231z"/>
	<g id="top_1_">
		<g>
			<path fill="#67CADA" d="M429.713,42.96H70.562c-13.58,0-30.339,22.499-30.339,35.978v90.546h419.835V78.938
				C460.059,65.459,443.294,42.96,429.713,42.96z M143.745,140.724c-15.88,0-28.755-12.867-28.755-28.75
				c0-15.883,12.875-28.756,28.755-28.756s28.753,12.873,28.753,28.756C172.498,127.857,159.625,140.724,143.745,140.724z
				 M356.538,140.724c-15.883,0-28.761-12.867-28.761-28.75c0-15.883,12.878-28.756,28.761-28.756
				c15.872,0,28.75,12.873,28.75,28.756C385.288,127.857,372.41,140.724,356.538,140.724z"/>
		</g>
	</g>
	<g enable-background="new    ">
		<path fill="#A6D067" d="M110.15,324.758v-115.27h39.707c8.964,0,15.805,0.551,20.522,1.651c6.605,1.521,12.239,4.273,16.905,8.256
			c6.08,5.139,10.627,11.704,13.642,19.696c3.014,7.995,4.521,17.129,4.521,27.402c0,8.755-1.022,16.512-3.066,23.274
			c-2.044,6.762-4.666,12.357-7.863,16.787c-3.198,4.43-6.697,7.915-10.497,10.457c-3.801,2.543-8.387,4.47-13.76,5.779
			c-5.374,1.311-11.546,1.966-18.517,1.966H110.15z M125.404,311.155h24.61c7.6,0,13.563-0.708,17.888-2.123
			s7.771-3.407,10.34-5.976c3.617-3.617,6.434-8.479,8.452-14.586c2.018-6.105,3.027-13.511,3.027-22.212
			c0-12.057-1.979-21.321-5.937-27.796c-3.958-6.473-8.767-10.812-14.428-13.013c-4.089-1.572-10.667-2.358-19.736-2.358h-24.217
			V311.155z"/>
		<path fill="#A6D067" d="M281.796,297.867l14.624,1.809c-2.307,8.544-6.578,15.175-12.816,19.893s-14.205,7.076-23.902,7.076
			c-12.214,0-21.898-3.761-29.053-11.283c-7.155-7.521-10.733-18.07-10.733-31.647c0-14.048,3.617-24.951,10.851-32.709
			c7.233-7.758,16.616-11.638,28.149-11.638c11.165,0,20.286,3.802,27.362,11.401c7.076,7.602,10.615,18.295,10.615,32.08
			c0,0.84-0.027,2.098-0.079,3.774H234.54c0.523,9.174,3.118,16.197,7.784,21.072c4.665,4.875,10.483,7.313,17.455,7.313
			c5.189,0,9.619-1.362,13.289-4.089C276.736,308.194,279.646,303.843,281.796,297.867z M235.326,274.986h46.627
			c-0.629-7.024-2.412-12.292-5.347-15.805c-4.509-5.451-10.354-8.177-17.534-8.177c-6.5,0-11.965,2.176-16.394,6.525
			C238.248,261.882,235.798,267.7,235.326,274.986z"/>
		<path fill="#A6D067" d="M368.68,294.172l13.918,1.808c-1.521,9.593-5.414,17.102-11.678,22.527s-13.955,8.138-23.076,8.138
			c-11.428,0-20.614-3.734-27.56-11.204c-6.946-7.47-10.419-18.176-10.419-32.12c0-9.015,1.494-16.904,4.482-23.667
			c2.988-6.762,7.535-11.833,13.643-15.214c6.105-3.382,12.75-5.072,19.932-5.072c9.068,0,16.484,2.294,22.252,6.88
			c5.766,4.588,9.461,11.101,11.086,19.539l-13.76,2.123c-1.311-5.608-3.631-9.828-6.959-12.659
			c-3.328-2.83-7.352-4.245-12.068-4.245c-7.129,0-12.922,2.555-17.377,7.666c-4.456,5.11-6.684,13.197-6.684,24.257
			c0,11.218,2.148,19.369,6.447,24.453c4.298,5.085,9.908,7.627,16.826,7.627c5.557,0,10.195-1.703,13.918-5.11
			C365.324,306.49,367.684,301.248,368.68,294.172z"/>
	</g>
	<g id="dates">
		<g>
			<path fill="#A6D067" d="M356.516,365.05h13.806v-11.53h-13.806V365.05z M374.926,365.05h13.807v-11.53h-13.807V365.05z
				 M393.331,365.05h13.811v-11.53h-13.811V365.05z M411.741,353.52v11.53h13.805v-11.53H411.741z M355.258,382.314h14.059V370.79
				h-14.059V382.314z M374.005,382.314h14.052V370.79h-14.052V382.314z M392.747,382.314h14.058V370.79h-14.058V382.314z
				 M411.494,382.314h14.052V370.79h-14.052V382.314z M317.769,382.314h14.059V370.79h-14.059V382.314z M336.517,382.314h14.053
				V370.79h-14.053V382.314z M299.027,382.314h14.052V370.79h-14.052V382.314z M355.258,399.483h14.059v-11.53h-14.059V399.483z
				 M374.005,399.483h14.052v-11.53h-14.052V399.483z M392.747,399.483h14.058v-11.53h-14.058V399.483z M411.494,399.483h14.052
				v-11.53h-14.052V399.483z M317.769,399.483h14.059v-11.53h-14.059V399.483z M336.517,399.483h14.053v-11.53h-14.053V399.483z
				 M299.027,399.483h14.052v-11.53h-14.052V399.483z M299.027,416.838h13.625v-11.53h-13.625V416.838z M317.201,416.838h13.637
				v-11.53h-13.637V416.838z M335.376,416.838h13.637v-11.53h-13.637V416.838z M353.551,416.838h13.636v-11.53h-13.636V416.838z
				 M371.73,416.838h13.631v-11.53H371.73V416.838z"/>
		</g>
	</g>
</g>
<g id="Layer_2">
</g>
</svg>
