<?xml version="1.0" encoding="utf-8"?>
<!-- Generator: Adobe Illustrator 16.0.0, SVG Export Plug-In . SVG Version: 6.00 Build 0)  -->
<!DOCTYPE svg PUBLIC "-//W3C//DTD SVG 1.1//EN" "http://www.w3.org/Graphics/SVG/1.1/DTD/svg11.dtd">
<svg version="1.1" id="Layer_1" xmlns="http://www.w3.org/2000/svg" xmlns:xlink="http://www.w3.org/1999/xlink" x="0px" y="0px"
	 width="500px" height="500px" viewBox="0 0 500 500" enable-background="new 0 0 500 500" xml:space="preserve">
<g id="Layer_1_1_">
	<path id="border_15_" fill="#67CADA" d="M460.059,152.231v264.551c0,19.056-15.456,40.258-34.513,40.258H74.731
		c-19.056,0-34.509-21.202-34.509-40.258V152.231h23.007v265.325c0,12.268,4.254,16.479,16.604,16.479h340.612
		c12.351,0,16.606-4.212,16.606-16.479v-266.1L460.059,152.231z"/>
	<g id="top_1_">
		<g>
			<path fill="#67CADA" d="M429.713,42.96H70.562c-13.58,0-30.339,22.499-30.339,35.978v90.546h419.835V78.938
				C460.059,65.459,443.294,42.96,429.713,42.96z M143.745,140.724c-15.88,0-28.755-12.867-28.755-28.75
				c0-15.883,12.875-28.756,28.755-28.756s28.753,12.873,28.753,28.756C172.498,127.857,159.625,140.724,143.745,140.724z
				 M356.538,140.724c-15.883,0-28.761-12.867-28.761-28.75c0-15.883,12.878-28.756,28.761-28.756
				c15.872,0,28.75,12.873,28.75,28.756C385.288,127.857,372.41,140.724,356.538,140.724z"/>
		</g>
	</g>
	<g enable-background="new    ">
		<path fill="#A6D067" d="M104.96,287.724l14.389-1.258c0.681,5.767,2.267,10.497,4.757,14.192
			c2.489,3.695,6.355,6.684,11.598,8.964c5.241,2.28,11.138,3.42,17.691,3.42c5.818,0,10.955-0.864,15.411-2.595
			c4.455-1.729,7.771-4.101,9.946-7.115c2.175-3.014,3.263-6.303,3.263-9.868c0-3.617-1.049-6.774-3.145-9.475
			c-2.097-2.699-5.557-4.966-10.379-6.802c-3.094-1.205-9.935-3.078-20.522-5.622c-10.589-2.542-18.006-4.939-22.252-7.194
			c-5.504-2.882-9.606-6.46-12.305-10.732c-2.701-4.271-4.049-9.055-4.049-14.35c0-5.818,1.651-11.257,4.954-16.315
			c3.302-5.059,8.125-8.897,14.467-11.52c6.342-2.62,13.393-3.931,21.151-3.931c8.543,0,16.08,1.376,22.606,4.128
			c6.526,2.752,11.545,6.801,15.057,12.147c3.511,5.347,5.398,11.401,5.661,18.163l-14.625,1.101
			c-0.787-7.285-3.448-12.789-7.981-16.512c-4.535-3.721-11.231-5.582-20.089-5.582c-9.227,0-15.949,1.69-20.168,5.071
			c-4.22,3.381-6.33,7.457-6.33,12.227c0,4.142,1.494,7.549,4.482,10.222c2.935,2.674,10.602,5.413,22.999,8.217
			c12.396,2.805,20.901,5.256,25.515,7.352c6.709,3.094,11.663,7.012,14.861,11.755c3.197,4.745,4.796,10.21,4.796,16.395
			c0,6.133-1.757,11.912-5.268,17.337c-3.513,5.426-8.558,9.646-15.136,12.659c-6.579,3.014-13.983,4.521-22.212,4.521
			c-10.432,0-19.173-1.521-26.223-4.561c-7.051-3.039-12.581-7.613-16.59-13.721C107.28,302.337,105.169,295.43,104.96,287.724z"/>
		<path fill="#A6D067" d="M272.91,297.867l14.625,1.809c-2.307,8.544-6.578,15.175-12.816,19.893s-14.205,7.076-23.902,7.076
			c-12.215,0-21.898-3.761-29.054-11.283c-7.155-7.521-10.733-18.07-10.733-31.647c0-14.048,3.617-24.951,10.851-32.709
			c7.233-7.758,16.616-11.638,28.149-11.638c11.166,0,20.287,3.802,27.363,11.401c7.076,7.602,10.614,18.295,10.614,32.08
			c0,0.84-0.026,2.098-0.079,3.774h-62.273c0.523,9.174,3.118,16.197,7.784,21.072c4.665,4.875,10.483,7.313,17.456,7.313
			c5.189,0,9.619-1.362,13.288-4.089C267.852,308.194,270.76,303.843,272.91,297.867z M226.441,274.986h46.627
			c-0.63-7.024-2.412-12.292-5.348-15.805c-4.509-5.451-10.354-8.177-17.534-8.177c-6.5,0-11.965,2.176-16.394,6.525
			C229.363,261.882,226.913,267.7,226.441,274.986z"/>
		<path fill="#A6D067" d="M305.305,356.76V241.255H318.2v10.851c3.04-4.246,6.474-7.431,10.3-9.554s8.465-3.185,13.918-3.185
			c7.128,0,13.418,1.836,18.871,5.504c5.451,3.67,9.565,8.846,12.344,15.529s4.168,14.01,4.168,21.977
			c0,8.545-1.533,16.237-4.6,23.077c-3.066,6.841-7.522,12.083-13.367,15.727c-5.846,3.643-11.99,5.464-18.438,5.464
			c-4.718,0-8.951-0.996-12.698-2.987c-3.748-1.992-6.828-4.508-9.238-7.549v40.651H305.305z M318.121,283.478
			c0,10.747,2.176,18.688,6.527,23.825c4.35,5.138,9.617,7.705,15.804,7.705c6.29,0,11.677-2.66,16.158-7.98
			s6.723-13.563,6.723-24.729c0-10.641-2.189-18.608-6.565-23.903c-4.378-5.294-9.606-7.941-15.687-7.941
			c-6.028,0-11.362,2.818-16.001,8.452C320.441,264.542,318.121,272.732,318.121,283.478z"/>
	</g>
	<g id="dates">
		<g>
			<path fill="#A6D067" d="M356.516,365.05h13.806v-11.53h-13.806V365.05z M374.926,365.05h13.807v-11.53h-13.807V365.05z
				 M393.331,365.05h13.811v-11.53h-13.811V365.05z M411.741,353.52v11.53h13.805v-11.53H411.741z M355.258,382.314h14.059V370.79
				h-14.059V382.314z M374.005,382.314h14.052V370.79h-14.052V382.314z M392.747,382.314h14.058V370.79h-14.058V382.314z
				 M411.494,382.314h14.052V370.79h-14.052V382.314z M317.769,382.314h14.059V370.79h-14.059V382.314z M336.517,382.314h14.053
				V370.79h-14.053V382.314z M299.027,382.314h14.052V370.79h-14.052V382.314z M355.258,399.483h14.059v-11.53h-14.059V399.483z
				 M374.005,399.483h14.052v-11.53h-14.052V399.483z M392.747,399.483h14.058v-11.53h-14.058V399.483z M411.494,399.483h14.052
				v-11.53h-14.052V399.483z M317.769,399.483h14.059v-11.53h-14.059V399.483z M336.517,399.483h14.053v-11.53h-14.053V399.483z
				 M299.027,399.483h14.052v-11.53h-14.052V399.483z M299.027,416.838h13.625v-11.53h-13.625V416.838z M317.201,416.838h13.637
				v-11.53h-13.637V416.838z M335.376,416.838h13.637v-11.53h-13.637V416.838z M353.551,416.838h13.636v-11.53h-13.636V416.838z
				 M371.73,416.838h13.631v-11.53H371.73V416.838z"/>
		</g>
	</g>
</g>
<g id="Layer_2">
</g>
</svg>
