<?xml version="1.0" encoding="utf-8"?>
<!-- Generator: Adobe Illustrator 16.0.0, SVG Export Plug-In . SVG Version: 6.00 Build 0)  -->
<!DOCTYPE svg PUBLIC "-//W3C//DTD SVG 1.1//EN" "http://www.w3.org/Graphics/SVG/1.1/DTD/svg11.dtd">
<svg version="1.1" id="Layer_1" xmlns="http://www.w3.org/2000/svg" xmlns:xlink="http://www.w3.org/1999/xlink" x="0px" y="0px"
	 width="200px" height="200px" viewBox="0 0 200 200" enable-background="new 0 0 200 200" xml:space="preserve">
<g>
	<g>
		<path fill="#FB8CAD" d="M82.3,125.346c0,5.057,4.074,9.154,9.1,9.154s9.1-4.098,9.1-9.154c0-5.055-4.074-9.154-9.1-9.154
			C86.376,116.198,82.306,120.293,82.3,125.346z M91.4,118.809c3.59,0,6.5,2.926,6.5,6.537s-2.91,6.539-6.5,6.539
			c-3.59,0-6.5-2.928-6.5-6.539C84.904,121.736,87.812,118.813,91.4,118.809z M91.4,129.27c2.154,0,3.9-1.756,3.9-3.924
			c0-2.166-1.746-3.923-3.9-3.923c-2.154,0-3.9,1.757-3.9,3.923C87.5,127.514,89.246,129.27,91.4,129.27z M91.4,124.039
			c0.718,0,1.3,0.584,1.3,1.307s-0.582,1.31-1.3,1.31c-0.718,0-1.3-0.587-1.3-1.31S90.682,124.039,91.4,124.039z M110.9,125.346
			c0,5.057,4.074,9.154,9.1,9.154s9.1-4.098,9.1-9.154c0-5.055-4.074-9.154-9.1-9.154
			C114.977,116.198,110.906,120.293,110.9,125.346z M120,118.809c3.59,0,6.5,2.926,6.5,6.537s-2.91,6.539-6.5,6.539
			s-6.5-2.928-6.5-6.539C113.504,121.736,116.412,118.813,120,118.809z M120,129.27c2.154,0,3.9-1.756,3.9-3.924
			c0-2.166-1.746-3.923-3.9-3.923s-3.9,1.757-3.9,3.923C116.1,127.514,117.846,129.27,120,129.27z M120,124.039
			c0.718,0,1.3,0.584,1.3,1.307s-0.582,1.31-1.3,1.31s-1.3-0.587-1.3-1.31S119.282,124.039,120,124.039z M111.621,66.5H108.3v23.539
			h-26v5.23h-1.92L68.139,77.523c-0.243-0.351-0.642-0.562-1.067-0.562H62.8c-0.718,0-1.3,0.585-1.3,1.307s0.582,1.308,1.3,1.308
			h3.592l10.824,15.692H71.9v8.462c0.007,6.879,5.548,12.453,12.386,12.459H91.4H120h7.113c6.838-0.006,12.379-5.58,12.387-12.459
			v-9.188C139.482,79.063,127.012,66.517,111.621,66.5z M84.9,92.654h23.4v2.615H84.9V92.654z M136.9,103.732
			c-0.006,5.435-4.385,9.838-9.787,9.845H84.286c-5.402-0.007-9.78-4.41-9.786-9.845v-5.849h62.4V103.732z M136.9,95.269h-26V69.115
			h0.721c13.955,0.016,25.264,11.391,25.279,25.428V95.269z M110.9,100.5H108.3v2.615h2.601V100.5L110.9,100.5z M105.7,100.5H77.1
			v2.615h28.6V100.5z"/>
	</g>
</g>
</svg>
