<?xml version="1.0" encoding="utf-8"?>
<!-- Generator: Adobe Illustrator 16.0.0, SVG Export Plug-In . SVG Version: 6.00 Build 0)  -->
<!DOCTYPE svg PUBLIC "-//W3C//DTD SVG 1.1//EN" "http://www.w3.org/Graphics/SVG/1.1/DTD/svg11.dtd">
<svg version="1.1" id="Layer_1" xmlns="http://www.w3.org/2000/svg" xmlns:xlink="http://www.w3.org/1999/xlink" x="0px" y="0px"
	 width="500px" height="500px" viewBox="0 0 500 500" enable-background="new 0 0 500 500" xml:space="preserve">
<path fill="none" stroke="#010101" stroke-miterlimit="10" d="M258.691,305.127c0,0,1.42,55.422,10.642,110.842"/>
<path fill="#F89521" d="M369.731,121.756c-1.694-89.62-80.346-105.382-105.114-104.714
	c-24.718-1.686-103.952,10.828-109.329,100.303c-5.379,89.476,103.403,187.782,103.403,187.782S371.425,211.377,369.731,121.756z"/>
<ellipse transform="matrix(0.8011 0.5986 -0.5986 0.8011 92.8006 -118.3213)" fill="#FCBA72" cx="224.416" cy="80.459" rx="34.177" ry="39.478"/>
<path fill="#FCBA72" d="M305.233,234.639c-4.706,6.296-12.94,8.103-18.391,4.028c-5.452-4.072-6.059-12.48-1.351-18.779
	c4.704-6.295,12.937-8.1,18.391-4.024C309.333,219.934,309.938,228.341,305.233,234.639z"/>
<path fill="none" stroke="#010101" stroke-miterlimit="10" d="M258.691,305.127c0,0,1.42,55.422,10.642,110.842"/>
<path fill="#9AD6D4" d="M369.731,121.756c-1.694-89.62-80.346-105.382-105.114-104.714
	c-24.718-1.686-103.952,10.828-109.329,100.303c-5.379,89.476,103.403,187.782,103.403,187.782S371.425,211.377,369.731,121.756z"/>
<ellipse transform="matrix(0.8011 0.5986 -0.5986 0.8011 92.8006 -118.3213)" fill="#C1E5E5" cx="224.416" cy="80.459" rx="34.177" ry="39.478"/>
<path fill="#FCBA72" d="M305.233,234.639c-4.706,6.296-12.94,8.103-18.391,4.028c-5.452-4.072-6.059-12.48-1.351-18.779
	c4.704-6.295,12.937-8.1,18.391-4.024C309.333,219.934,309.938,228.341,305.233,234.639z"/>
<path fill="none" stroke="#010101" stroke-miterlimit="10" d="M305.095,310.466c0,0-21.439,51.125-35.762,105.451"/>
<path fill="#F386AC" d="M481.583,188.783c35.222-82.427-30.044-129.066-52.908-138.618c-21.85-11.677-99.246-32.767-140.853,46.627
	c-41.609,79.395,17.272,213.673,17.272,213.673S446.362,271.211,481.583,188.783z"/>
<path fill="#F4A8C4" d="M382.575,121.396c-19.066,10.577-41.946,5.769-51.1-10.738c-9.158-16.505-1.121-38.462,17.945-49.036
	c19.069-10.577,41.946-5.769,51.103,10.739C409.68,88.865,401.643,110.82,382.575,121.396z"/>
<path fill="#F4A8C4" d="M376.454,265.273c-6.873,3.812-15.123,2.081-18.423-3.871c-3.302-5.949-0.404-13.867,6.471-17.681
	c6.875-3.811,15.123-2.079,18.425,3.874C386.228,253.543,383.33,261.46,376.454,265.273z"/>
<path fill="none" stroke="#010101" stroke-miterlimit="10" d="M204.664,321.677c42.224,69.919,45.215,67.824,64.099,91.052"/>
<path fill="#FFCC72" d="M210.416,105.656c-45.818-77.043-121.967-51.817-143.16-38.98c-22.313,10.767-84.974,60.851-45.37,141.262
	c39.602,80.416,182.777,112.01,182.777,112.01S256.234,182.697,210.416,105.656z"/>
<path fill="#F4D8AB" d="M97.617,145.906c-2.697,21.636-20.067,37.284-38.798,34.947c-18.731-2.333-31.73-21.769-29.03-43.404
	c2.698-21.637,20.067-37.283,38.799-34.948C87.318,104.834,100.314,124.269,97.617,145.906z"/>
<ellipse transform="matrix(0.9923 0.1237 -0.1237 0.9923 30.4929 -22.7002)" fill="#F4D8AB" cx="198" cy="234.14" rx="12.322" ry="14.234"/>
</svg>
