<?xml version="1.0" encoding="utf-8"?>
<!-- Generator: Adobe Illustrator 16.0.0, SVG Export Plug-In . SVG Version: 6.00 Build 0)  -->
<!DOCTYPE svg PUBLIC "-//W3C//DTD SVG 1.1//EN" "http://www.w3.org/Graphics/SVG/1.1/DTD/svg11.dtd">
<svg version="1.1" id="Layer_1" xmlns="http://www.w3.org/2000/svg" xmlns:xlink="http://www.w3.org/1999/xlink" x="0px" y="0px"
	 width="200px" height="200px" viewBox="0 0 200 200" enable-background="new 0 0 200 200" xml:space="preserve">
<g>
	<g>
		<path fill="#FB8CAD" d="M134.332,126.678h-3.938v-13.709c0-3.068-2.487-5.564-5.545-5.564h-1.709V93.109
			c0-2.746-2.228-4.981-4.964-4.981h-13.834V76.636c0-0.646-0.522-1.171-1.167-1.171h-2.01v-1.75
			c1.544-0.497,2.665-1.951,2.665-3.664c0-1.796-2.276-4.414-2.974-5.174c-0.223-0.24-0.532-0.377-0.858-0.377
			s-0.637,0.137-0.858,0.377c-0.697,0.76-2.974,3.378-2.974,5.174c0,1.712,1.121,3.166,2.664,3.664v1.75h-2.009
			c-0.645,0-1.167,0.524-1.167,1.172v11.491H81.821c-2.736,0-4.962,2.235-4.962,4.981v10.31c0,0.647,0.522,1.172,1.167,1.172
			s1.167-0.524,1.167-1.172v-10.31c0-1.455,1.18-2.638,2.628-2.638h36.356c1.449,0,2.628,1.184,2.628,2.638v14.293H75.149
			c-3.058,0-5.544,2.498-5.544,5.565v9.615c0,0.647,0.522,1.172,1.167,1.172s1.167-0.524,1.167-1.172v-9.615
			c0-1.776,1.44-3.223,3.21-3.223h49.701c1.771,0,3.209,1.446,3.209,3.223v13.71H65.667c-0.645,0-1.167,0.524-1.167,1.172
			c0,4.219,3.419,7.649,7.621,7.649h55.758c4.202,0,7.621-3.433,7.621-7.649C135.5,127.203,134.979,126.678,134.332,126.678z
			 M98.502,70.051c0-0.403,0.647-1.485,1.498-2.571c0.852,1.086,1.497,2.167,1.497,2.571c0,0.829-0.672,1.502-1.497,1.502
			C99.174,71.553,98.502,70.879,98.502,70.051z M102.009,88.128H97.99V77.809h4.019V88.128z M127.879,133.156H72.121
			c-2.514,0-4.624-1.771-5.156-4.135h66.07C132.502,131.386,130.393,133.156,127.879,133.156z M82.893,96.089
			c0.589,0,1.104,0.535,1.883,1.413c0.88,0.994,1.976,2.232,3.697,2.237h0.01c1.704,0,2.818-1.225,3.714-2.208
			c0.848-0.932,1.412-1.498,2.108-1.504c0.678-0.002,1.215,0.515,2.037,1.363c0.915,0.944,2.053,2.118,3.81,2.118h0.004
			c1.741-0.001,2.901-1.158,3.835-2.086c0.805-0.801,1.34-1.292,1.921-1.292c0.01,0,0.02,0,0.029,0
			c0.568,0.017,1.002,0.511,1.664,1.316c0.775,0.944,1.742,2.119,3.397,2.168c1.654,0.053,2.8-1.088,3.724-2.001
			c0.871-0.863,1.447-1.391,2.111-1.375c0.65,0.009,1.178-0.504,1.188-1.151c0.012-0.647-0.502-1.181-1.146-1.193
			c-1.693-0.027-2.857,1.123-3.793,2.049c-0.848,0.838-1.409,1.345-2.016,1.328c-0.568-0.017-1.004-0.512-1.664-1.317
			c-0.775-0.943-1.741-2.119-3.397-2.167c-1.636-0.049-2.713,1.024-3.663,1.97c-0.879,0.875-1.465,1.406-2.193,1.407h-0.001
			c-0.719,0-1.286-0.532-2.136-1.409c-0.896-0.924-2.008-2.072-3.699-2.072c-0.01,0-0.021,0-0.031,0
			c-1.765,0.015-2.9,1.264-3.813,2.267c-0.817,0.898-1.36,1.445-1.99,1.445H88.48c-0.631-0.002-1.16-0.549-1.958-1.45
			c-0.868-0.98-1.947-2.199-3.627-2.199h-0.019c-0.646,0.003-1.165,0.531-1.161,1.178c0.003,0.645,0.525,1.165,1.167,1.165H82.893z
			 M75.506,115.594c0.696-0.011,1.273,0.596,2.148,1.582c0.948,1.071,2.129,2.404,3.963,2.41h0.011c1.816,0,2.967-1.266,3.981-2.381
			c0.948-1.041,1.582-1.674,2.389-1.682h0.013c0.763,0,1.378,0.578,2.296,1.524c0.986,1.019,2.214,2.283,4.089,2.283H94.4
			c1.859-0.002,3.112-1.248,4.119-2.25c0.917-0.913,1.519-1.463,2.215-1.445c0.668,0.021,1.158,0.575,1.902,1.48
			c0.834,1.016,1.873,2.28,3.637,2.332c1.761,0.055,2.944-1.123,3.992-2.158c0.84-0.832,1.563-1.556,2.391-1.536
			c0.748,0.014,1.261,0.547,2.037,1.417c0.847,0.951,1.9,2.134,3.66,2.16h0.019c1.858-0.002,3.112-1.248,4.119-2.25
			c0.917-0.913,1.521-1.462,2.215-1.445c0.646,0.021,1.183-0.489,1.201-1.137c0.02-0.646-0.488-1.188-1.134-1.206
			c-1.742-0.054-2.901,1.104-3.926,2.124c-0.845,0.84-1.574,1.565-2.469,1.569c-0.695-0.014-1.193-0.533-1.947-1.379
			c-0.859-0.965-1.93-2.166-3.734-2.196c-0.022-0.001-0.045-0.001-0.067-0.001c-1.771,0-3.007,1.224-4.004,2.21
			c-0.815,0.81-1.521,1.506-2.284,1.485c-0.67-0.02-1.16-0.575-1.902-1.48c-0.836-1.016-1.875-2.279-3.637-2.332
			c-1.742-0.054-2.903,1.104-3.927,2.123c-0.847,0.843-1.578,1.57-2.478,1.57c-0.001,0-0.001,0-0.002,0
			c-0.829,0-1.466-0.594-2.416-1.573c-0.965-0.996-2.164-2.231-3.968-2.231h-0.034c-1.883,0.016-3.107,1.36-4.092,2.442
			c-0.915,1.006-1.524,1.617-2.259,1.617h-0.004c-0.736-0.002-1.331-0.615-2.225-1.623c-0.938-1.062-2.103-2.374-3.906-2.369
			c-0.645,0.003-1.164,0.531-1.16,1.178c0.003,0.646,0.525,1.165,1.167,1.165C75.501,115.594,75.504,115.594,75.506,115.594z"/>
	</g>
</g>
</svg>
