<?xml version="1.0" encoding="utf-8"?>
<!-- Generator: Adobe Illustrator 16.0.0, SVG Export Plug-In . SVG Version: 6.00 Build 0)  -->
<!DOCTYPE svg PUBLIC "-//W3C//DTD SVG 1.1//EN" "http://www.w3.org/Graphics/SVG/1.1/DTD/svg11.dtd">
<svg version="1.1" id="Layer_1" xmlns="http://www.w3.org/2000/svg" xmlns:xlink="http://www.w3.org/1999/xlink" x="0px" y="0px"
	 width="361.333px" height="146px" viewBox="-64.833 25.833 361.333 146" enable-background="new -64.833 25.833 361.333 146"
	 xml:space="preserve">
<g>
	<g>
		<path fill="#C33534" d="M135.85,79.847c-0.209-0.642-0.73-1.133-1.386-1.301l-8.241-2.114l-4.557-7.185
			c-0.361-0.571-0.99-0.916-1.666-0.916s-1.305,0.345-1.666,0.916l-4.557,7.185l-8.241,2.114c-0.654,0.168-1.177,0.659-1.386,1.301
			c-0.209,0.643-0.074,1.347,0.355,1.867l5.426,6.555l-0.537,8.491c-0.043,0.674,0.264,1.323,0.81,1.72
			c0.547,0.398,1.259,0.487,1.887,0.239L120,95.585l7.91,3.134c0.234,0.093,0.48,0.138,0.727,0.138c0.41,0,0.817-0.128,1.159-0.377
			c0.547-0.396,0.853-1.045,0.81-1.72l-0.537-8.491l5.426-6.555C135.924,81.194,136.059,80.49,135.85,79.847z M126.531,86.355
			c-0.32,0.386-0.48,0.881-0.449,1.382l0.391,6.167l-5.746-2.277c-0.232-0.092-0.479-0.138-0.727-0.138s-0.493,0.046-0.727,0.138
			l-5.746,2.277l0.391-6.167c0.032-0.501-0.129-0.995-0.447-1.382l-3.941-4.761l5.986-1.535c0.485-0.125,0.905-0.43,1.176-0.854
			l3.31-5.219l3.31,5.219c0.27,0.424,0.689,0.729,1.176,0.854l5.986,1.535L126.531,86.355z M120,104.475
			c-1.09,0-1.973,0.883-1.973,1.974v42.079c0,1.091,0.883,1.974,1.973,1.974s1.973-0.883,1.973-1.974v-42.079
			C121.973,105.357,121.09,104.475,120,104.475z M150.712,99.993c0.82-0.717,0.904-1.963,0.188-2.784
			c-0.717-0.821-1.963-0.904-2.783-0.187c-3.411,2.98-6.193,7.056-8.271,12.115c-2.799,6.818-4.219,15.271-4.219,25.124
			c0,1.089,0.883,1.972,1.973,1.972s1.974-0.883,1.974-1.972C139.572,112.916,146.552,103.628,150.712,99.993z M170.232,85.93
			c-0.336-0.584-0.95-0.957-1.625-0.985l-4.08-0.169l-2.856-2.918c-0.474-0.483-1.159-0.691-1.819-0.55s-1.203,0.609-1.438,1.243
			l-1.423,3.827l-3.657,1.815c-0.604,0.3-1.015,0.889-1.085,1.561c-0.071,0.672,0.207,1.333,0.736,1.753l3.201,2.535l0.596,4.041
			c0.099,0.668,0.531,1.239,1.148,1.515c0.256,0.114,0.529,0.17,0.803,0.17c0.383,0,0.764-0.111,1.092-0.33l3.4-2.262l4.025,0.683
			c0.117,0.02,0.234,0.029,0.35,0.028c1.082-0.009,1.957-0.889,1.957-1.973c0-0.23-0.039-0.451-0.111-0.656l-1.063-3.808
			l1.894-3.618C170.586,87.232,170.57,86.515,170.232,85.93z M164.37,91.758l0.473,1.69l-1.729-0.293
			c-0.495-0.084-1.004,0.024-1.422,0.302l-1.461,0.972l-0.256-1.736c-0.074-0.498-0.334-0.947-0.728-1.259l-1.376-1.09l1.572-0.779
			c0.449-0.223,0.797-0.609,0.972-1.08l0.61-1.646l1.229,1.254c0.351,0.359,0.825,0.571,1.327,0.591l1.754,0.073l-0.813,1.555
			C164.289,90.758,164.234,91.274,164.37,91.758z M91.884,97.022c-0.821-0.718-2.067-0.634-2.782,0.187
			c-0.718,0.821-0.634,2.067,0.187,2.783c4.161,3.636,11.142,12.922,11.142,34.268c0,1.09,0.883,1.973,1.973,1.973
			c1.089,0,1.973-0.883,1.973-1.973c0-9.853-1.42-18.305-4.221-25.123C98.077,104.078,95.295,100.002,91.884,97.022z M87.753,89.753
			c-0.069-0.672-0.479-1.261-1.085-1.561l-3.658-1.815l-1.423-3.827c-0.235-0.634-0.778-1.103-1.439-1.243
			c-0.661-0.141-1.347,0.067-1.82,0.55l-2.856,2.918l-4.08,0.169c-0.675,0.028-1.289,0.4-1.626,0.985
			c-0.338,0.585-0.353,1.302-0.04,1.901l1.893,3.618l-1.1,3.933c-0.182,0.65-0.018,1.349,0.434,1.851
			c0.452,0.501,1.13,0.738,1.795,0.625l4.026-0.683l3.4,2.262c0.329,0.218,0.709,0.33,1.092,0.33c0.272,0,0.545-0.057,0.803-0.17
			c0.617-0.275,1.051-0.846,1.148-1.515l0.596-4.041l3.201-2.535C87.546,91.086,87.824,90.425,87.753,89.753z M80.753,91.434
			c-0.394,0.312-0.653,0.762-0.727,1.259l-0.256,1.736l-1.461-0.972c-0.326-0.216-0.706-0.33-1.092-0.33
			c-0.11,0-0.22,0.009-0.33,0.028l-1.73,0.293l0.473-1.69c0.135-0.483,0.081-1-0.152-1.446l-0.813-1.554l1.754-0.074
			c0.501-0.021,0.976-0.232,1.328-0.59l1.228-1.254l0.611,1.645c0.175,0.47,0.522,0.856,0.973,1.08l1.571,0.78L80.753,91.434z
			 M96.792,62.526c2.983,1.678,6.021,6.514,6.635,10.56c0.148,0.978,0.989,1.677,1.948,1.677c0.1,0,0.198-0.007,0.299-0.022
			c1.077-0.163,1.817-1.169,1.653-2.247c-0.798-5.253-4.576-11.142-8.603-13.407c-0.949-0.534-2.151-0.197-2.687,0.753
			C95.506,60.789,95.843,61.991,96.792,62.526z M87.973,61.335c3.264,0,5.918-2.654,5.918-5.917c0-3.263-2.656-5.918-5.918-5.918
			c-3.263,0-5.918,2.655-5.918,5.918C82.055,58.681,84.709,61.335,87.973,61.335z M87.973,53.445c1.088,0,1.973,0.886,1.973,1.973
			c0,1.088-0.885,1.973-1.973,1.973S86,56.506,86,55.418C86,54.331,86.885,53.445,87.973,53.445z M134.325,74.74
			c0.101,0.015,0.2,0.022,0.299,0.022c0.959,0,1.8-0.699,1.948-1.677c0.613-4.046,3.652-8.882,6.636-10.56
			c0.949-0.535,1.286-1.737,0.752-2.687c-0.534-0.95-1.735-1.287-2.687-0.752c-4.025,2.264-7.806,8.154-8.603,13.406
			C132.508,73.571,133.248,74.577,134.325,74.74z M152.027,61.335c3.263,0,5.918-2.654,5.918-5.917c0-3.263-2.655-5.918-5.918-5.918
			c-3.264,0-5.918,2.655-5.918,5.918C146.109,58.681,148.766,61.335,152.027,61.335z M152.027,53.445
			c1.088,0,1.973,0.886,1.973,1.973c0,1.088-0.885,1.973-1.973,1.973s-1.973-0.885-1.973-1.973
			C150.055,54.331,150.939,53.445,152.027,53.445z M86.105,117.715c-1.088,0-1.974,0.887-1.974,1.973s0.886,1.974,1.974,1.974
			c1.086,0,1.973-0.888,1.973-1.974S87.191,117.715,86.105,117.715z M92.417,78.558c0,1.086,0.886,1.972,1.974,1.972
			c1.086,0,1.973-0.886,1.973-1.972s-0.887-1.973-1.973-1.973C93.303,76.585,92.417,77.471,92.417,78.558z M119.836,61.593
			c1.087,0,1.973-0.886,1.973-1.973s-0.886-1.973-1.973-1.973c-1.086,0-1.973,0.886-1.973,1.973S118.75,61.593,119.836,61.593z
			 M147.452,77.966c0,1.086,0.886,1.973,1.973,1.973s1.974-0.886,1.974-1.973s-0.887-1.973-1.974-1.973
			S147.452,76.879,147.452,77.966z M151.792,117.715c-1.087,0-1.974,0.887-1.974,1.973s0.887,1.974,1.974,1.974
			c1.086,0,1.974-0.888,1.974-1.974S152.878,117.715,151.792,117.715z M102.4,138.002c-1.086,0-1.973,0.887-1.973,1.973
			s0.887,1.974,1.973,1.974s1.974-0.888,1.974-1.974S103.486,138.002,102.4,138.002z M137.6,138.002
			c-1.086,0-1.973,0.887-1.973,1.973s0.887,1.974,1.973,1.974s1.974-0.888,1.974-1.974S138.686,138.002,137.6,138.002z
			 M109.055,106.249c-1.086,0-1.973,0.886-1.973,1.972s0.887,1.973,1.973,1.973c1.088,0,1.973-0.887,1.973-1.973
			S110.143,106.249,109.055,106.249z M131.098,105.361c-1.086,0-1.973,0.885-1.973,1.973c0,1.086,0.887,1.973,1.973,1.973
			c1.088,0,1.973-0.887,1.973-1.973C133.07,106.246,132.186,105.361,131.098,105.361z"/>
	</g>
</g>
<rect x="-7.501" y="130.668" fill="#C33534" width="102" height="1.332"/>
<rect x="145.499" y="129.668" fill="#C33534" width="102" height="1.332"/>
</svg>
