<?xml version="1.0" encoding="utf-8"?>
<!-- Generator: Adobe Illustrator 16.0.0, SVG Export Plug-In . SVG Version: 6.00 Build 0)  -->
<!DOCTYPE svg PUBLIC "-//W3C//DTD SVG 1.1//EN" "http://www.w3.org/Graphics/SVG/1.1/DTD/svg11.dtd">
<svg version="1.1" id="Layer_1" xmlns="http://www.w3.org/2000/svg" xmlns:xlink="http://www.w3.org/1999/xlink" x="0px" y="0px"
	 width="200px" height="200px" viewBox="0 0 200 200" enable-background="new 0 0 200 200" xml:space="preserve">
<g>
	<g>
		<path fill="#121212" d="M141.86,86.732L93.703,63.626c-0.561-0.271-1.236-0.036-1.501,0.522L81.721,86.182h5.711l7.693-16.188
			l41.75,20.03l-13.055,27.447l-7.351-3.524v14.509l4.52,2.167c0.564,0.274,1.231,0.029,1.5-0.533l19.902-41.856
			C142.662,87.676,142.425,87,141.86,86.732z M111.996,88.843H58.625c-0.618,0-1.129,0.504-1.129,1.124v46.392
			c0,0.62,0.511,1.129,1.129,1.129h53.369c0.623,0,1.129-0.509,1.129-1.129V89.967C113.125,89.347,112.619,88.843,111.996,88.843z
			 M108.915,124.396h-3.385c-1.968-5.075-4.394-12.179-8.073-11.229c-4.314,1.106-6.469,11.229-6.469,11.229
			s-2.208-11.423-8.295-17.54c-6.088-6.115-11.987,17.54-11.987,17.54h-8.058V93.973h46.267V124.396z M70.115,104.294
			c2.085,0,3.773-1.7,3.773-3.793c0-2.095-1.688-3.792-3.773-3.792c-2.086,0-3.776,1.697-3.776,3.792
			C66.339,102.594,68.029,104.294,70.115,104.294z M95.441,103.178c0.846,0,1.639-0.09,2.345-0.229
			c0.824,0.349,1.83,0.563,2.909,0.563c2.786,0,5.039-1.365,5.039-3.052c0-1.681-2.253-3.048-5.039-3.048
			c-1.044,0-2.011,0.191-2.815,0.525c-0.331-0.325-0.774-0.525-1.268-0.525h-0.73c-0.934,0-1.67,0.712-1.775,1.617
			c-2.254,0.237-3.929,1.058-3.929,2.034C90.178,102.231,92.531,103.178,95.441,103.178z"/>
	</g>
</g>
</svg>
