<?xml version="1.0" encoding="utf-8"?>
<!-- Generator: Adobe Illustrator 16.0.0, SVG Export Plug-In . SVG Version: 6.00 Build 0)  -->
<!DOCTYPE svg PUBLIC "-//W3C//DTD SVG 1.1//EN" "http://www.w3.org/Graphics/SVG/1.1/DTD/svg11.dtd">
<svg version="1.1" id="Layer_1" xmlns="http://www.w3.org/2000/svg" xmlns:xlink="http://www.w3.org/1999/xlink" x="0px" y="0px"
	 width="261.5px" height="200px" viewBox="-61.5 0 261.5 200" enable-background="new -61.5 0 261.5 200" xml:space="preserve">
<g>
	<g>
		<path fill="#9CD7D5" d="M121.859,76.732L73.703,53.626c-0.561-0.271-1.236-0.036-1.501,0.522L61.721,76.182h5.711l7.693-16.188
			l41.75,20.03l-13.055,27.447l-7.352-3.523v14.509l4.52,2.167c0.564,0.273,1.232,0.029,1.5-0.533l19.902-41.856
			C122.662,77.676,122.425,77,121.859,76.732z M91.996,78.843H38.625c-0.618,0-1.129,0.504-1.129,1.124v46.393
			c0,0.619,0.511,1.129,1.129,1.129h53.369c0.623,0,1.129-0.51,1.129-1.129V79.967C93.125,79.347,92.619,78.843,91.996,78.843z
			 M88.915,114.396h-3.386c-1.967-5.076-4.393-12.18-8.072-11.229c-4.314,1.106-6.469,11.229-6.469,11.229
			s-2.208-11.424-8.295-17.541c-6.088-6.114-11.987,17.541-11.987,17.541h-8.058V83.973h46.267V114.396z M50.115,94.294
			c2.085,0,3.773-1.7,3.773-3.793c0-2.095-1.688-3.792-3.773-3.792c-2.086,0-3.776,1.697-3.776,3.792
			C46.339,92.594,48.029,94.294,50.115,94.294z M75.441,93.178c0.846,0,1.639-0.09,2.345-0.229c0.824,0.349,1.83,0.563,2.909,0.563
			c2.785,0,5.039-1.365,5.039-3.052c0-1.681-2.254-3.048-5.039-3.048c-1.044,0-2.011,0.191-2.815,0.525
			c-0.331-0.325-0.774-0.525-1.268-0.525h-0.73c-0.934,0-1.67,0.712-1.775,1.617c-2.254,0.237-3.929,1.058-3.929,2.034
			C70.178,92.23,72.531,93.178,75.441,93.178z"/>
	</g>
</g>
<rect x="111" y="111.75" fill="#CC3137" width="83" height="3"/>
<rect x="-51" y="112.75" fill="#CC3137" width="83" height="3"/>
</svg>
