<?xml version="1.0" encoding="utf-8"?>
<!-- Generator: Adobe Illustrator 16.0.0, SVG Export Plug-In . SVG Version: 6.00 Build 0)  -->
<!DOCTYPE svg PUBLIC "-//W3C//DTD SVG 1.1//EN" "http://www.w3.org/Graphics/SVG/1.1/DTD/svg11.dtd">
<svg version="1.1" id="Layer_1" xmlns="http://www.w3.org/2000/svg" xmlns:xlink="http://www.w3.org/1999/xlink" x="0px" y="0px"
	 width="200px" height="200px" viewBox="0 0 200 200" enable-background="new 0 0 200 200" xml:space="preserve">
<g>
	<g>
		<path fill="#FB8CAD" d="M125.643,75.356c0,0.738,0.596,1.336,1.33,1.336c2.398,0,4.348,1.957,4.348,4.362
			c0,0.738,0.597,1.336,1.332,1.336c0.734,0,1.33-0.598,1.33-1.336c0-2.405,1.951-4.362,4.349-4.362c0.733,0,1.33-0.598,1.33-1.336
			c0.001-0.737-0.597-1.335-1.33-1.335c-2.397,0-4.349-1.958-4.349-4.363c0-0.738-0.596-1.336-1.33-1.336
			c-0.735,0-1.332,0.598-1.332,1.336c0,2.405-1.948,4.363-4.348,4.363C126.238,74.021,125.643,74.619,125.643,75.356z
			 M132.65,73.777c0.438,0.605,0.971,1.141,1.574,1.58c-0.604,0.438-1.136,0.973-1.574,1.578c-0.438-0.605-0.969-1.139-1.572-1.578
			C131.682,74.918,132.214,74.383,132.65,73.777z M132.65,119.609c-2.396,0-4.348-1.957-4.348-4.361c0-0.738-0.596-1.336-1.33-1.336
			s-1.33,0.598-1.33,1.336c0,2.404-1.951,4.361-4.349,4.361c-0.735,0-1.331,0.6-1.331,1.336c0,0.738,0.596,1.336,1.331,1.336
			c2.396,0,4.349,1.957,4.349,4.363c0,0.737,0.596,1.336,1.33,1.336s1.33-0.599,1.33-1.336c0-2.406,1.95-4.363,4.348-4.363
			c0.736,0,1.332-0.598,1.332-1.336C133.982,120.209,133.387,119.609,132.65,119.609z M126.973,122.525
			c-0.438-0.606-0.97-1.141-1.572-1.58c0.604-0.438,1.136-0.973,1.572-1.578c0.438,0.605,0.971,1.14,1.574,1.578
			C127.941,121.386,127.41,121.919,126.973,122.525z M80.037,109.549c0-0.736-0.596-1.336-1.331-1.336
			c-2.397,0-4.348-1.957-4.348-4.361c0-0.738-0.596-1.336-1.331-1.336c-0.735,0-1.331,0.599-1.331,1.336
			c0,2.404-1.95,4.361-4.347,4.361c-0.735,0-1.331,0.6-1.331,1.336c0,0.737,0.596,1.335,1.331,1.335
			c2.397,0,4.347,1.958,4.347,4.364c0,0.736,0.596,1.335,1.331,1.335c0.735,0,1.331-0.599,1.331-1.335
			c0-2.406,1.951-4.364,4.348-4.364C79.441,110.884,80.037,110.286,80.037,109.549z M73.027,111.128
			c-0.438-0.606-0.97-1.14-1.573-1.579c0.604-0.439,1.135-0.973,1.573-1.578c0.438,0.605,0.969,1.139,1.573,1.578
			C73.997,109.988,73.465,110.521,73.027,111.128z M63.09,66.719c3.18,0,5.768,2.598,5.768,5.789c0,0.737,0.596,1.335,1.331,1.335
			s1.331-0.598,1.331-1.335c0-3.191,2.587-5.789,5.767-5.789c0.735,0,1.331-0.598,1.331-1.335c0-0.737-0.596-1.335-1.331-1.335
			c-3.18,0-5.767-2.597-5.767-5.789c0-0.736-0.596-1.335-1.331-1.335s-1.331,0.599-1.331,1.335c0,3.192-2.587,5.789-5.768,5.789
			c-0.735,0-1.331,0.598-1.331,1.335C61.759,66.121,62.355,66.719,63.09,66.719z M70.188,62.818
			c0.658,1.027,1.532,1.905,2.557,2.565c-1.024,0.66-1.898,1.537-2.557,2.565c-0.658-1.028-1.532-1.905-2.557-2.565
			C68.656,64.724,69.53,63.846,70.188,62.818z M68.68,95.871c0-0.16-0.01-0.318-0.028-0.475c0.019-0.088,0.028-0.18,0.028-0.272
			V83.442l10.115-3.384v6.352c-0.852-0.448-1.855-0.707-2.928-0.707c-3.083,0-5.59,2.133-5.59,4.755c0,2.621,2.508,4.755,5.59,4.755
			s5.589-2.134,5.589-4.755c0-0.067-0.002-0.135-0.006-0.201c0.003-0.04,0.006-0.079,0.006-0.12V78.206
			c0-0.43-0.206-0.833-0.553-1.083c-0.347-0.252-0.793-0.32-1.199-0.185l-12.777,4.274c-0.543,0.182-0.91,0.691-0.91,1.268v9.344
			c-0.852-0.448-1.855-0.707-2.928-0.707c-3.082,0-5.59,2.133-5.59,4.754c0,2.622,2.507,4.756,5.59,4.756S68.68,98.494,68.68,95.871
			z M75.867,92.542c-1.587,0-2.928-0.954-2.928-2.084c0-1.129,1.341-2.084,2.928-2.084c1.587,0,2.928,0.955,2.928,2.084
			C78.794,91.588,77.454,92.542,75.867,92.542z M63.09,97.956c-1.587,0-2.928-0.954-2.928-2.085c0-1.129,1.341-2.083,2.928-2.083
			s2.928,0.954,2.928,2.083C66.018,97.002,64.677,97.956,63.09,97.956z M142.5,85.614c0-0.43-0.206-0.833-0.553-1.083
			c-0.348-0.252-0.793-0.319-1.199-0.184l-12.775,4.273c-0.545,0.182-0.91,0.692-0.91,1.268v9.344
			c-0.854-0.448-1.854-0.707-2.93-0.707c-3.082,0-5.59,2.133-5.59,4.754s2.508,4.756,5.59,4.756c3.083,0,5.59-2.135,5.59-4.756
			c0-0.045-0.002-0.09-0.004-0.133c0.002-0.027,0.004-0.055,0.004-0.08V90.851l10.115-3.384v6.352
			c-0.852-0.447-1.855-0.707-2.928-0.707c-3.082,0-5.59,2.133-5.59,4.755s2.508,4.755,5.59,4.755s5.59-2.133,5.59-4.755
			c0-0.106-0.006-0.212-0.014-0.316c0.008-0.06,0.014-0.12,0.014-0.183V85.614z M124.134,105.364c-1.587,0-2.929-0.954-2.929-2.084
			s1.342-2.085,2.929-2.085s2.929,0.955,2.929,2.085S125.721,105.364,124.134,105.364z M136.91,99.95
			c-1.587,0-2.928-0.954-2.928-2.084c0-1.13,1.341-2.084,2.928-2.084c1.588,0,2.928,0.954,2.928,2.084
			C139.838,98.996,138.498,99.95,136.91,99.95z M116.833,141.537l-7.005-20.87c-0.021-0.237-0.068-0.739-0.133-1.438l4.439,0.203
			c0.903,0.039,1.6-0.855,1.333-1.728l-1.501-4.938c-0.216-0.705-0.96-1.102-1.662-0.884c-0.703,0.218-1.099,0.966-0.882,1.669
			l0.944,3.126l-27.378-1.249l3.41-7.529l20.488-2.569l0.898,2.798c0.217,0.704,0.961,1.102,1.664,0.884s1.097-0.965,0.881-1.67
			l-2.461-7.892l1.367-12.356l10.199-11.659c0.526-0.541,0.896-1.212,1.071-1.947l4.175-12.766c0.012-0.042,0.023-0.084,0.032-0.127
			c0.5-2.252-0.921-4.492-3.166-4.993c-2.219-0.494-4.427,0.895-4.958,3.104L114.684,70.4l-8.188,9.322H95.145L91.5,72.406
			l3.793-11.397c0.352-1.061,0.272-2.195-0.226-3.195c-0.498-0.999-1.354-1.745-2.411-2.099c-1.056-0.353-2.187-0.272-3.184,0.228
			s-1.739,1.359-2.09,2.417l-4.115,12.3c-0.308,0.927-0.282,1.938,0.073,2.849c0.009,0.022,0.019,0.046,0.029,0.068l6.75,14.821
			l-1.356,12.243l-7.01,15.479c-0.183,0.404-0.154,0.872,0.076,1.25c0.222,0.363,0.603,0.596,1.024,0.632l-1.097,2.386
			c-0.032,0.069-0.058,0.141-0.077,0.215l-5.509,20.68c-0.002,0.007-0.003,0.015-0.005,0.021c-0.558,2.238,0.804,4.515,3.035,5.075
			c0.332,0.083,0.673,0.125,1.013,0.125c1.757,0,3.481-1.162,4.013-2.71l7.077-20.929l1.985-4.383l6.161,0.28
			c0.231,3.478,0.256,3.679,0.269,3.775c0.016,0.128,0.05,0.254,0.102,0.372l8.831,20.137c0.207,1.178,0.928,2.229,1.945,2.85
			c1.094,0.668,2.463,0.789,3.659,0.328c0.707-0.271,1.328-0.738,1.793-1.338c0.685-0.883,0.984-1.979,0.847-3.089
			C116.881,141.709,116.861,141.621,116.833,141.537z M107.01,82.391h0.09c0.391,0.001,0.756-0.17,1.008-0.462
			c0.187-0.213,5.795-6.598,8.754-9.966c0.117-0.134,0.207-0.29,0.265-0.459l4.013-12.012c0.016-0.045,0.026-0.09,0.036-0.135
			c0.089-0.395,0.323-0.731,0.663-0.949c0.34-0.217,0.743-0.288,1.137-0.2c0.395,0.087,0.729,0.324,0.945,0.665
			c0.206,0.324,0.28,0.709,0.211,1.086l-4.167,12.75c-0.014,0.041-0.024,0.084-0.034,0.126c-0.063,0.282-0.203,0.539-0.406,0.743
			c-0.021,0.02-0.039,0.041-0.06,0.063l-10.354,11.838l-2.1,0.162V82.391z M96.78,82.392h7.568v3.454l-8.594,0.664L96.78,82.392z
			 M108.438,88.21l-1.074,9.7l-15.196-3.813l0.517-4.671L108.438,88.21z M85.808,72.506c-0.118-0.321-0.124-0.676-0.016-0.998
			l4.114-12.301c0.127-0.384,0.396-0.695,0.756-0.876c0.36-0.181,0.769-0.21,1.152-0.082c0.382,0.128,0.691,0.397,0.872,0.759
			c0.18,0.361,0.209,0.772,0.082,1.155l-3.967,11.921c-0.112,0.336-0.086,0.703,0.072,1.02l4.259,8.549
			c0.183,0.367,0.522,0.622,0.913,0.706l-1.014,4.071c-0.024,0.098-0.036,0.196-0.039,0.293l-0.685,0.053L85.808,72.506z
			 M91.274,101.555c0.058-0.129,0.096-0.266,0.111-0.406l0.484-4.372l15.597,3.913l0.627,2.047l-18.4,2.308L91.274,101.555z
			 M88.852,121.818c-0.019,0.039-0.035,0.08-0.049,0.123l-7.096,20.985c-0.129,0.378-0.761,0.902-1.494,0.902
			c-0.123,0-0.247-0.015-0.368-0.045c-0.804-0.202-1.296-1.021-1.1-1.827l5.476-20.557l1.502-3.268l4.699,0.215L88.852,121.818z
			 M113.945,143.246c-0.248,0.318-0.604,0.521-1.006,0.572c-0.063,0.008-0.125,0.012-0.188,0.012c-0.758,0-1.398-0.57-1.494-1.326
			c-0.016-0.129-0.051-0.254-0.102-0.372l-8.813-20.1c-0.024-0.312-0.083-1.111-0.218-3.149l4.887,0.225
			c0.11,1.218,0.182,1.966,0.182,1.966c0.011,0.103,0.031,0.202,0.063,0.301l7.005,20.869
			C114.279,142.604,114.17,142.957,113.945,143.246z M92.991,71.082c0,4.665,3.781,8.46,8.429,8.46c4.646,0,8.43-3.795,8.43-8.46
			c0-1.231-0.268-2.402-0.74-3.459c1.304-0.727,2.158-2.126,2.158-3.664c0-2.308-1.869-4.185-4.17-4.185
			c-1.896,0-3.498,1.276-4.002,3.018c-0.543-0.109-1.103-0.168-1.676-0.168C96.772,62.624,92.991,66.418,92.991,71.082z
			 M107.098,62.445c0.832,0,1.51,0.68,1.51,1.514c0,0.629-0.395,1.195-0.973,1.416c-0.587-0.643-1.271-1.192-2.027-1.629
			C105.711,63.012,106.339,62.445,107.098,62.445z M101.42,65.295c2.723,0,5.008,1.902,5.609,4.452h-11.22
			C96.412,67.197,98.698,65.295,101.42,65.295z M107.029,72.418c-0.603,2.549-2.889,4.452-5.609,4.452
			c-2.722,0-5.008-1.903-5.611-4.452H107.029z"/>
	</g>
</g>
</svg>
