<?xml version="1.0" encoding="utf-8"?>
<!-- Generator: Adobe Illustrator 16.0.0, SVG Export Plug-In . SVG Version: 6.00 Build 0)  -->
<!DOCTYPE svg PUBLIC "-//W3C//DTD SVG 1.1//EN" "http://www.w3.org/Graphics/SVG/1.1/DTD/svg11.dtd">
<svg version="1.1" id="Layer_1" xmlns="http://www.w3.org/2000/svg" xmlns:xlink="http://www.w3.org/1999/xlink" x="0px" y="0px"
	 width="438px" height="200px" viewBox="-125.5 0 438 200" enable-background="new -125.5 0 438 200" xml:space="preserve">
<g>
	<g>
		<path fill="#FFCC72" d="M190.301,75.322c-2.156-7.1-5.738-10.163-8.15-10.628c-1.621-0.313-3.153,0.26-4.205,1.572
			c-1.84,2.296-5.733,5.396-11.098,8.858c0.014-0.051,0.025-0.102,0.039-0.153c0.031-0.119,0.063-0.238,0.094-0.358
			c0.025-0.1,0.051-0.199,0.074-0.299c0.03-0.119,0.061-0.237,0.088-0.356c0.025-0.104,0.049-0.207,0.073-0.311
			c0.027-0.116,0.056-0.233,0.081-0.351c0.025-0.111,0.049-0.222,0.073-0.333c0.034-0.16,0.069-0.321,0.103-0.482
			c0.033-0.163,0.066-0.325,0.098-0.487c0.021-0.106,0.041-0.213,0.061-0.319c0.021-0.118,0.043-0.236,0.064-0.354
			c0.019-0.109,0.035-0.219,0.055-0.328c0.02-0.115,0.038-0.23,0.057-0.346c0.018-0.109,0.032-0.219,0.049-0.329
			c0.018-0.116,0.033-0.231,0.049-0.348c0.016-0.108,0.029-0.217,0.043-0.326c0.015-0.117,0.029-0.233,0.041-0.35
			c0.014-0.107,0.025-0.214,0.035-0.321c0.014-0.119,0.023-0.239,0.035-0.358c0.01-0.104,0.02-0.208,0.027-0.313
			c0.01-0.122,0.018-0.244,0.025-0.366c0.007-0.1,0.015-0.2,0.021-0.3c0.007-0.136,0.013-0.271,0.019-0.406
			c0.002-0.084,0.008-0.17,0.011-0.253c0.006-0.215,0.01-0.428,0.01-0.641c0-0.073-0.002-0.145-0.002-0.217
			c-0.001-0.145-0.003-0.289-0.007-0.433c-0.002-0.088-0.008-0.176-0.012-0.264c-0.004-0.126-0.01-0.252-0.018-0.378
			c-0.006-0.092-0.013-0.185-0.02-0.277c-0.01-0.12-0.02-0.239-0.03-0.357c-0.009-0.093-0.019-0.186-0.028-0.278
			c-0.014-0.117-0.027-0.233-0.043-0.35c-0.012-0.091-0.023-0.182-0.037-0.272c-0.019-0.117-0.037-0.233-0.058-0.349
			c-0.015-0.087-0.03-0.175-0.047-0.261c-0.022-0.12-0.048-0.238-0.073-0.356c-0.018-0.08-0.033-0.161-0.053-0.241
			c-0.031-0.131-0.066-0.261-0.102-0.39c-0.018-0.064-0.031-0.129-0.051-0.193c-0.055-0.191-0.111-0.379-0.176-0.564
			c-0.012-0.033-0.023-0.065-0.036-0.099c-0.054-0.154-0.108-0.305-0.168-0.455c-0.024-0.064-0.054-0.126-0.08-0.19
			c-0.049-0.116-0.099-0.233-0.151-0.348c-0.032-0.07-0.066-0.139-0.102-0.208c-0.052-0.105-0.104-0.21-0.158-0.313
			c-0.037-0.07-0.078-0.14-0.117-0.209c-0.057-0.1-0.115-0.199-0.174-0.296c-0.043-0.068-0.086-0.136-0.129-0.203
			c-0.063-0.096-0.129-0.191-0.195-0.285c-0.045-0.064-0.09-0.128-0.137-0.191c-0.072-0.096-0.146-0.19-0.224-0.284
			c-0.046-0.057-0.091-0.115-0.14-0.171c-0.088-0.102-0.179-0.2-0.271-0.299c-0.042-0.044-0.081-0.09-0.123-0.133
			c-0.138-0.141-0.279-0.278-0.429-0.411c-1.863-1.663-4.265-1.9-7.365-1.168c-0.144,0.034-0.285,0.068-0.431,0.105
			c-0.344,0.09-0.697,0.19-1.061,0.302c-0.042,0.013-0.082,0.023-0.124,0.037c-0.423,0.133-0.858,0.28-1.304,0.44
			c-0.039,0.013-0.076,0.026-0.115,0.04c-0.658,0.238-1.347,0.508-2.06,0.801c-2.71,1.116-5.812,2.606-9.368,4.317
			c-0.232,0.112-0.471,0.227-0.709,0.341c-0.152,0.074-0.307,0.147-0.461,0.222c-0.262,0.125-0.527,0.253-0.797,0.381
			c-0.443,0.214-0.896,0.429-1.354,0.648c-1.854,0.883-3.826,1.813-5.892,2.752c-1.341,0.611-1.935,2.194-1.325,3.539
			c0.607,1.343,2.188,1.938,3.53,1.328c2.01-0.916,3.924-1.815,5.728-2.674c0.002-0.002,0.006-0.002,0.008-0.003
			c0.058-0.027,0.111-0.054,0.17-0.082c0.496-0.236,0.982-0.469,1.461-0.698c0.244-0.117,0.481-0.231,0.723-0.346
			c0.195-0.094,0.389-0.187,0.58-0.279c0.214-0.103,0.434-0.208,0.645-0.309c4.924-2.368,8.813-4.238,11.795-5.222
			c3.276-1.081,4.057-0.588,4.178-0.48c0.072,0.063,0.141,0.13,0.207,0.201c0.133,0.141,0.254,0.296,0.369,0.466
			c0.113,0.169,0.219,0.354,0.313,0.55c1.284,2.658,0.861,7.766-1.24,14.2c-0.008,0.026-0.014,0.051-0.021,0.076
			c-0.021,0.074-0.045,0.148-0.063,0.223c-0.011,0.04-0.018,0.08-0.025,0.12c-0.015,0.062-0.027,0.123-0.037,0.185
			c-0.008,0.045-0.014,0.09-0.021,0.136c-0.008,0.056-0.016,0.111-0.021,0.166c-0.006,0.05-0.008,0.099-0.012,0.148
			c-0.004,0.051-0.007,0.102-0.008,0.153c-0.001,0.052-0.001,0.104-0.001,0.156c0.001,0.047,0.002,0.094,0.005,0.14
			c0.002,0.056,0.006,0.11,0.01,0.165c0.004,0.042,0.008,0.085,0.014,0.127c0.007,0.058,0.014,0.115,0.021,0.172
			c0.008,0.039,0.014,0.076,0.021,0.114c0.011,0.061,0.021,0.12,0.037,0.18c0.001,0.007,0.003,0.015,0.004,0.022
			c-2.95,3.604-6.202,6.784-9.689,9.494c-5.385-1.464-11.925-2.205-19.547-2.205c-8.886,0-16.824,1.679-23.13,4.771
			c0.022-0.046,0.047-0.095,0.07-0.142c0.067-0.136,0.14-0.268,0.21-0.401c0.081-0.154,0.16-0.31,0.24-0.461
			c0.067-0.125,0.139-0.247,0.207-0.371c0.088-0.157,0.174-0.315,0.262-0.47c0.07-0.121,0.143-0.239,0.213-0.36
			c0.091-0.153,0.18-0.307,0.271-0.458c0.071-0.117,0.146-0.23,0.219-0.345c0.094-0.15,0.187-0.301,0.281-0.449
			c0.073-0.112,0.147-0.221,0.223-0.332c0.099-0.147,0.195-0.295,0.295-0.44c0.074-0.106,0.148-0.209,0.225-0.314
			c0.104-0.146,0.204-0.292,0.309-0.435c0.078-0.104,0.156-0.206,0.234-0.309c0.104-0.139,0.209-0.28,0.314-0.417
			c0.082-0.106,0.168-0.208,0.251-0.313c0.104-0.13,0.208-0.263,0.313-0.391c0.088-0.106,0.178-0.209,0.268-0.313
			c0.104-0.122,0.208-0.247,0.313-0.367c0.1-0.113,0.202-0.222,0.305-0.333c0.098-0.107,0.193-0.217,0.293-0.323
			c0.113-0.121,0.229-0.238,0.343-0.355c0.091-0.093,0.179-0.188,0.271-0.279c0.121-0.121,0.242-0.237,0.364-0.355
			c0.088-0.085,0.175-0.172,0.265-0.257c0.121-0.114,0.244-0.223,0.365-0.333c0.094-0.085,0.186-0.172,0.279-0.255
			c0.143-0.125,0.287-0.247,0.432-0.368c0.076-0.064,0.151-0.132,0.229-0.196c0.166-0.137,0.334-0.27,0.502-0.402
			c0.059-0.046,0.115-0.094,0.175-0.14c0.171-0.132,0.345-0.26,0.519-0.388c0.059-0.043,0.115-0.088,0.174-0.13
			c0.207-0.149,0.416-0.294,0.625-0.437c0.029-0.019,0.056-0.039,0.084-0.058c0.232-0.158,0.47-0.313,0.709-0.462
			c0.005-0.003,0.01-0.006,0.015-0.01c0.688-0.434,1.399-0.834,2.131-1.206c0.046-0.022,0.091-0.048,0.138-0.07
			c0.481-0.242,0.975-0.469,1.475-0.683c0.039-0.017,0.076-0.034,0.115-0.051c0.022-0.01,0.048-0.019,0.072-0.029
			c0.245-0.104,0.493-0.205,0.744-0.302c0.001,0,0.001-0.001,0.001-0.001c0.571-0.221,1.138-0.444,1.698-0.667
			c1.368-0.544,2.037-2.098,1.494-3.469s-2.094-2.043-3.461-1.498c-0.547,0.217-1.098,0.434-1.653,0.649
			c-0.319,0.124-0.636,0.252-0.948,0.385c-0.098,0.041-0.193,0.085-0.289,0.127c-0.216,0.093-0.432,0.187-0.644,0.285
			c-0.12,0.055-0.237,0.114-0.354,0.17c-0.188,0.089-0.375,0.176-0.56,0.269c-0.129,0.064-0.255,0.133-0.383,0.199
			c-0.173,0.089-0.345,0.177-0.517,0.27c-0.129,0.07-0.258,0.144-0.386,0.215c-0.165,0.092-0.331,0.184-0.495,0.279
			c-0.13,0.077-0.259,0.156-0.388,0.234c-0.159,0.096-0.317,0.19-0.476,0.289c-0.131,0.082-0.26,0.167-0.389,0.25
			c-0.152,0.099-0.308,0.197-0.459,0.299c-0.129,0.087-0.256,0.177-0.385,0.266c-0.148,0.103-0.297,0.204-0.443,0.31
			c-0.129,0.092-0.254,0.187-0.381,0.281c-0.145,0.107-0.289,0.212-0.431,0.321c-0.127,0.097-0.251,0.197-0.375,0.295
			c-0.142,0.11-0.28,0.22-0.419,0.333c-0.124,0.102-0.247,0.207-0.37,0.311c-0.136,0.114-0.271,0.228-0.404,0.344
			c-0.122,0.106-0.243,0.217-0.364,0.326c-0.133,0.117-0.264,0.235-0.394,0.355c-0.121,0.112-0.239,0.227-0.358,0.34
			c-0.127,0.122-0.254,0.243-0.381,0.367c-0.117,0.116-0.234,0.235-0.353,0.355c-0.123,0.125-0.246,0.249-0.368,0.377
			c-0.116,0.122-0.23,0.246-0.345,0.37c-0.119,0.128-0.239,0.257-0.357,0.388c-0.112,0.127-0.226,0.256-0.338,0.384
			c-0.114,0.133-0.231,0.265-0.346,0.399c-0.11,0.131-0.22,0.265-0.329,0.397c-0.112,0.136-0.225,0.272-0.336,0.411
			c-0.108,0.136-0.215,0.274-0.322,0.412c-0.107,0.139-0.216,0.279-0.322,0.421c-0.105,0.141-0.211,0.284-0.314,0.426
			c-0.104,0.144-0.209,0.287-0.313,0.432c-0.104,0.146-0.205,0.293-0.308,0.44c-0.101,0.147-0.202,0.294-0.302,0.443
			c-0.1,0.15-0.198,0.301-0.297,0.453c-0.099,0.151-0.194,0.302-0.291,0.455c-0.098,0.154-0.193,0.31-0.289,0.466
			c-0.094,0.154-0.188,0.31-0.28,0.466c-0.095,0.158-0.187,0.318-0.279,0.479c-0.09,0.157-0.181,0.316-0.271,0.476
			c-0.092,0.164-0.182,0.328-0.271,0.494c-0.087,0.161-0.174,0.323-0.26,0.486c-0.088,0.167-0.174,0.336-0.261,0.505
			c-0.084,0.166-0.168,0.332-0.25,0.5c-0.084,0.171-0.168,0.344-0.25,0.517c-0.08,0.17-0.16,0.34-0.239,0.512
			c-0.081,0.175-0.161,0.352-0.24,0.529c-0.077,0.173-0.153,0.347-0.229,0.522c-0.076,0.179-0.153,0.36-0.229,0.541
			c-0.073,0.178-0.146,0.355-0.22,0.535c-0.073,0.183-0.146,0.368-0.221,0.552c-0.069,0.181-0.139,0.363-0.209,0.545
			c-0.069,0.188-0.141,0.375-0.209,0.565c-0.066,0.185-0.133,0.37-0.198,0.556c-0.067,0.192-0.134,0.383-0.199,0.577
			c-0.063,0.188-0.127,0.378-0.188,0.569c-0.063,0.195-0.127,0.389-0.188,0.585c-0.023,0.078-0.051,0.155-0.075,0.234
			c-0.014,0.013-0.026,0.026-0.042,0.039c-0.003,0.004-0.007,0.007-0.011,0.011c-0.002-0.002-0.005-0.004-0.008-0.007
			c-0.015-0.015-0.029-0.028-0.045-0.042c-0.025-0.081-0.052-0.161-0.077-0.242c-0.061-0.19-0.121-0.379-0.183-0.567
			c-0.064-0.197-0.129-0.393-0.195-0.588c-0.063-0.187-0.128-0.373-0.192-0.558c-0.068-0.192-0.136-0.384-0.206-0.574
			c-0.066-0.184-0.135-0.366-0.203-0.548c-0.071-0.188-0.143-0.375-0.216-0.562c-0.069-0.179-0.141-0.358-0.213-0.536
			c-0.074-0.185-0.15-0.369-0.227-0.552c-0.073-0.175-0.148-0.35-0.223-0.524c-0.078-0.181-0.157-0.36-0.237-0.539
			c-0.077-0.172-0.154-0.344-0.233-0.513c-0.081-0.177-0.163-0.352-0.247-0.527c-0.08-0.168-0.161-0.336-0.243-0.502
			c-0.084-0.173-0.17-0.344-0.257-0.514c-0.083-0.165-0.167-0.328-0.253-0.491c-0.088-0.168-0.178-0.335-0.268-0.502
			c-0.086-0.16-0.174-0.32-0.262-0.479c-0.092-0.165-0.186-0.328-0.278-0.491c-0.09-0.156-0.18-0.312-0.271-0.465
			c-0.095-0.161-0.192-0.32-0.289-0.48c-0.093-0.151-0.186-0.303-0.28-0.453c-0.099-0.157-0.199-0.313-0.3-0.468
			c-0.096-0.148-0.191-0.295-0.288-0.441c-0.103-0.153-0.206-0.304-0.311-0.455c-0.099-0.144-0.197-0.287-0.298-0.428
			c-0.105-0.149-0.213-0.297-0.32-0.444c-0.102-0.139-0.204-0.278-0.307-0.416c-0.109-0.145-0.221-0.288-0.331-0.432
			c-0.104-0.135-0.209-0.27-0.314-0.402c-0.113-0.141-0.229-0.28-0.343-0.42c-0.107-0.129-0.214-0.26-0.322-0.388
			c-0.117-0.137-0.235-0.272-0.354-0.408c-0.109-0.126-0.22-0.253-0.331-0.376c-0.12-0.134-0.242-0.265-0.363-0.396
			c-0.112-0.121-0.225-0.243-0.339-0.363c-0.124-0.13-0.25-0.256-0.375-0.384c-0.115-0.116-0.229-0.234-0.346-0.348
			c-0.128-0.125-0.258-0.249-0.387-0.373c-0.117-0.111-0.233-0.224-0.353-0.334c-0.131-0.122-0.265-0.241-0.398-0.36
			c-0.119-0.107-0.238-0.216-0.359-0.321c-0.136-0.118-0.273-0.233-0.411-0.349c-0.121-0.102-0.241-0.206-0.363-0.306
			c-0.141-0.115-0.283-0.227-0.426-0.339c-0.123-0.097-0.244-0.195-0.368-0.29c-0.144-0.111-0.29-0.218-0.436-0.326
			c-0.125-0.092-0.25-0.187-0.376-0.277c-0.148-0.106-0.299-0.208-0.448-0.313c-0.127-0.088-0.252-0.177-0.38-0.263
			c-0.153-0.103-0.31-0.202-0.465-0.302c-0.127-0.083-0.253-0.167-0.382-0.247c-0.159-0.1-0.32-0.195-0.48-0.292
			c-0.128-0.077-0.255-0.156-0.383-0.231c-0.165-0.095-0.332-0.188-0.499-0.28c-0.128-0.071-0.254-0.145-0.383-0.214
			c-0.172-0.093-0.347-0.182-0.521-0.272c-0.126-0.065-0.25-0.132-0.377-0.196c-0.185-0.092-0.371-0.18-0.558-0.268
			c-0.119-0.058-0.237-0.116-0.357-0.172c-0.211-0.097-0.425-0.189-0.638-0.282c-0.098-0.043-0.195-0.088-0.294-0.13
			c-0.313-0.133-0.63-0.261-0.948-0.385c-8.286-3.209-15.401-6.631-21.119-9.381c-11.057-5.317-17.73-8.527-21.827-4.873
			c-0.148,0.132-0.29,0.269-0.427,0.41c-0.045,0.046-0.086,0.094-0.131,0.141c-0.089,0.096-0.179,0.192-0.264,0.292
			c-0.049,0.058-0.096,0.116-0.143,0.175c-0.075,0.092-0.149,0.185-0.22,0.28c-0.047,0.063-0.093,0.127-0.138,0.192
			c-0.066,0.094-0.132,0.189-0.194,0.285c-0.044,0.066-0.086,0.134-0.128,0.202c-0.06,0.098-0.119,0.198-0.176,0.298
			c-0.039,0.068-0.078,0.137-0.114,0.207c-0.056,0.105-0.11,0.211-0.163,0.319c-0.033,0.066-0.066,0.133-0.098,0.201
			c-0.055,0.118-0.106,0.238-0.156,0.359c-0.025,0.06-0.052,0.118-0.076,0.178c-0.064,0.163-0.125,0.327-0.183,0.494
			c-0.007,0.02-0.015,0.039-0.021,0.059c-0.064,0.188-0.123,0.38-0.178,0.574c-0.014,0.05-0.027,0.102-0.04,0.153
			c-0.039,0.143-0.077,0.286-0.111,0.432c-0.016,0.07-0.031,0.14-0.046,0.211c-0.029,0.128-0.056,0.258-0.081,0.389
			c-0.015,0.077-0.028,0.154-0.042,0.23c-0.022,0.126-0.043,0.254-0.062,0.382c-0.012,0.08-0.022,0.16-0.034,0.24
			c-0.017,0.129-0.033,0.259-0.047,0.389c-0.009,0.08-0.018,0.159-0.025,0.239c-0.013,0.135-0.024,0.272-0.034,0.409
			c-0.005,0.076-0.011,0.151-0.016,0.227c-0.009,0.149-0.016,0.3-0.021,0.451c-0.002,0.064-0.006,0.128-0.008,0.192
			c-0.005,0.194-0.008,0.388-0.008,0.583c0,0.022-0.001,0.044-0.001,0.065c0,0.224,0.004,0.45,0.011,0.676
			c0.001,0.025,0.002,0.05,0.003,0.076c0.006,0.196,0.015,0.393,0.026,0.59c0.004,0.062,0.008,0.125,0.012,0.187
			c0.01,0.162,0.021,0.323,0.035,0.486c0.006,0.072,0.013,0.146,0.019,0.218c0.014,0.153,0.028,0.306,0.044,0.459
			c0.008,0.076,0.017,0.153,0.025,0.229c0.017,0.153,0.036,0.306,0.055,0.458c0.01,0.074,0.019,0.149,0.029,0.224
			c0.021,0.158,0.044,0.317,0.067,0.476c0.01,0.068,0.02,0.136,0.03,0.204c0.027,0.175,0.056,0.35,0.085,0.524
			c0.008,0.051,0.017,0.102,0.025,0.152c0.038,0.22,0.078,0.439,0.12,0.658c0.001,0.006,0.002,0.013,0.003,0.019
			c0.089,0.466,0.187,0.932,0.292,1.394c0.007,0.028,0.014,0.057,0.02,0.085c0.045,0.197,0.091,0.394,0.139,0.589
			c0.011,0.046,0.023,0.093,0.034,0.14c0.043,0.178,0.088,0.356,0.134,0.533c0.014,0.052,0.027,0.105,0.041,0.157
			c0.024,0.09,0.047,0.182,0.071,0.272c-5.364-3.461-9.257-6.563-11.097-8.857c-1.052-1.313-2.583-1.887-4.207-1.573
			c-2.411,0.466-5.993,3.529-8.15,10.628c-2.643,8.697-0.86,17.234,4.769,22.836c0.818,0.815,1.308,1.979,1.345,3.192
			c0.008,0.265,0.018,0.541,0.031,0.83c0.063,1.435,1.243,2.555,2.661,2.555c0.04,0,0.08-0.002,0.12-0.004
			c1.471-0.063,2.611-1.313,2.546-2.787c-0.012-0.264-0.021-0.516-0.028-0.756c-0.079-2.604-1.114-5.025-2.916-6.821
			c-5.252-5.227-4.682-12.128-3.875-15.777c1.007-4.55,3.001-7.405,4.08-8.343c3.38,3.845,9.715,8.114,14.564,11.087
			c0.608,0.372,1.275,0.573,1.945,0.61c2.505,3.082,5.214,5.891,8.099,8.393c-0.309,0.141-0.616,0.282-0.913,0.431
			c-7.889,3.936-11.89,10.217-11.89,18.67c0,7.674,1.715,14.612,5.019,20.506c-6.128-2.629-10.348-8.426-12.576-17.313
			c-0.358-1.432-1.807-2.301-3.235-1.94c-1.428,0.359-2.295,1.813-1.936,3.242c3.394,13.541,11.226,21.403,22.659,22.773
			c0.417,0.449,0.846,0.893,1.287,1.322c6.927,6.753,16.514,10.473,26.995,10.473c5.883,0,11.606-1.382,17.012-4.105
			c1.315-0.664,1.846-2.27,1.184-3.588c-0.661-1.318-2.264-1.852-3.579-1.188c-4.655,2.347-9.572,3.535-14.616,3.535
			c-9.084,0-17.351-3.182-23.277-8.959c-6.283-6.125-9.604-14.687-9.604-24.758c0-6.346,2.922-10.887,8.933-13.886
			c1.379-0.688,2.916-1.292,4.604-1.811c0.019-0.006,0.038-0.011,0.057-0.017c5.084-1.553,11.543-2.339,19.287-2.339
			c11.467,0,21.025,2.969,26.832,8.235c0.013,0.012,0.023,0.026,0.036,0.038c0.099,0.089,0.194,0.178,0.304,0.281
			c0.104,0.096,0.212,0.201,0.32,0.307c0.091,0.089,0.18,0.179,0.269,0.27c0.06,0.062,0.119,0.12,0.181,0.185
			c0.155,0.163,0.307,0.329,0.456,0.497c0.033,0.037,0.066,0.072,0.1,0.111c0.166,0.188,0.327,0.379,0.483,0.572
			c0.037,0.047,0.079,0.088,0.12,0.131c0.026,0.029,0.052,0.062,0.08,0.09c0.036,0.034,0.075,0.065,0.112,0.099
			c0.037,0.032,0.072,0.067,0.111,0.098c0.034,0.028,0.072,0.052,0.108,0.076c0.044,0.03,0.087,0.063,0.133,0.094
			c0.037,0.022,0.076,0.041,0.114,0.063c0.048,0.025,0.095,0.055,0.145,0.078c0.043,0.021,0.088,0.037,0.132,0.056
			c0.047,0.019,0.093,0.04,0.14,0.058c0.053,0.019,0.105,0.03,0.159,0.045c0.042,0.012,0.083,0.026,0.125,0.036
			c0.058,0.013,0.117,0.021,0.176,0.03c0.039,0.006,0.077,0.016,0.116,0.02c0.1,0.013,0.199,0.018,0.3,0.018
			c0.101,0,0.2-0.005,0.299-0.018c0.039-0.004,0.077-0.014,0.116-0.02c0.061-0.01,0.117-0.018,0.176-0.03
			c0.043-0.01,0.083-0.024,0.125-0.036c0.053-0.015,0.107-0.026,0.159-0.045c0.048-0.018,0.093-0.039,0.14-0.058
			c0.045-0.019,0.09-0.034,0.133-0.056c0.049-0.023,0.097-0.053,0.145-0.078c0.038-0.021,0.077-0.04,0.113-0.063
			c0.047-0.028,0.09-0.063,0.134-0.094c0.036-0.024,0.073-0.048,0.108-0.076c0.039-0.028,0.074-0.063,0.11-0.098
			c0.037-0.034,0.076-0.063,0.112-0.099c0.027-0.028,0.054-0.061,0.081-0.09c0.04-0.043,0.081-0.084,0.118-0.131
			c0.156-0.193,0.316-0.382,0.48-0.568c0.036-0.043,0.074-0.084,0.111-0.125c0.142-0.16,0.285-0.316,0.434-0.473
			c0.081-0.084,0.157-0.162,0.233-0.24c0.073-0.074,0.146-0.148,0.222-0.222c0.115-0.113,0.229-0.224,0.344-0.329
			c0.094-0.089,0.189-0.179,0.289-0.268c0.012-0.012,0.022-0.026,0.035-0.038c5.807-5.266,15.366-8.235,26.831-8.235
			c10.351,0,18.407,1.402,23.948,4.167c6.012,2.999,8.934,7.54,8.934,13.886c0,10.071-3.32,18.633-9.604,24.758
			c-5.926,5.776-14.192,8.959-23.277,8.959c-11.361,0-22.656-6.488-28.773-16.531c-0.484-0.795-1.348-1.28-2.275-1.28
			c-0.928,0-1.792,0.485-2.275,1.28c-1.609,2.641-3.612,5.086-5.953,7.268c-1.078,1.006-1.14,2.695-0.138,3.777
			c1.002,1.08,2.688,1.143,3.769,0.137c1.688-1.572,3.226-3.268,4.597-5.066c3.085,4.054,6.979,7.541,11.428,10.216
			c6.037,3.629,12.823,5.547,19.623,5.547c10.48,0,20.068-3.72,26.995-10.474c0.44-0.43,0.87-0.871,1.286-1.321
			c9.105-1.095,16.078-6.453,20.178-15.529c3.336-7.383,4.051-15.59,4.18-19.823c0.037-1.215,0.525-2.378,1.342-3.191
			C191.161,92.556,192.943,84.019,190.301,75.322z M69.451,86.04c-7.623,0-14.163,0.741-19.547,2.205
			c-3.489-2.71-6.741-5.891-9.69-9.494c0.002-0.01,0.004-0.021,0.006-0.031c0.012-0.049,0.021-0.098,0.03-0.147
			c0.01-0.049,0.019-0.098,0.027-0.147c0.007-0.047,0.013-0.094,0.019-0.141c0.006-0.055,0.012-0.108,0.017-0.163
			c0.003-0.044,0.006-0.087,0.008-0.132c0.003-0.059,0.004-0.119,0.005-0.178c0-0.04,0-0.081-0.001-0.121
			c-0.001-0.065-0.005-0.13-0.009-0.195c-0.003-0.036-0.005-0.071-0.008-0.107c-0.007-0.072-0.017-0.144-0.027-0.216
			c-0.004-0.03-0.008-0.059-0.013-0.089c-0.014-0.081-0.031-0.162-0.05-0.243c-0.005-0.021-0.008-0.043-0.014-0.064
			c-0.026-0.103-0.054-0.206-0.088-0.308c-0.623-1.907-1.098-3.696-1.425-5.34c-0.368-1.85-0.548-3.515-0.541-4.955
			c0.013-2.399,0.55-4.17,1.614-5.121c0.027-0.024,0.089-0.066,0.197-0.106c0.281-0.103,0.899-0.188,2.178,0.084
			c0.497,0.106,1.088,0.264,1.804,0.501c2.049,0.675,4.528,1.771,7.477,3.159c1.341,0.631,2.778,1.322,4.317,2.062
			c5.802,2.791,13.022,6.263,21.504,9.548c0.274,0.106,0.547,0.217,0.817,0.331c0.461,0.195,0.912,0.405,1.358,0.623
			c0.076,0.037,0.153,0.072,0.229,0.11c0.204,0.102,0.406,0.209,0.607,0.316c0.054,0.029,0.109,0.056,0.163,0.085
			c0.183,0.099,0.363,0.202,0.543,0.306c0.07,0.04,0.143,0.078,0.212,0.119c0.177,0.104,0.352,0.211,0.525,0.319
			c0.071,0.043,0.144,0.085,0.214,0.129c0.141,0.089,0.279,0.182,0.419,0.273c0.102,0.067,0.204,0.131,0.305,0.199
			c0.161,0.108,0.318,0.221,0.477,0.333c0.077,0.054,0.154,0.106,0.23,0.161c0.151,0.109,0.3,0.223,0.448,0.335
			c0.081,0.062,0.164,0.121,0.244,0.183c0.15,0.116,0.297,0.236,0.444,0.356c0.077,0.062,0.155,0.122,0.231,0.185
			c0.126,0.104,0.248,0.212,0.372,0.318c0.097,0.083,0.194,0.164,0.289,0.248c0.104,0.091,0.205,0.187,0.308,0.28
			c0.112,0.102,0.227,0.203,0.338,0.308c0.101,0.094,0.199,0.193,0.298,0.29c0.11,0.107,0.222,0.211,0.33,0.32
			c0.099,0.099,0.194,0.201,0.292,0.301c0.107,0.11,0.215,0.219,0.321,0.333c0.09,0.096,0.178,0.196,0.267,0.293
			c0.11,0.122,0.222,0.24,0.33,0.363c0.082,0.093,0.162,0.189,0.242,0.284c0.113,0.132,0.228,0.262,0.339,0.396
			c0.082,0.099,0.161,0.201,0.242,0.302c0.107,0.133,0.217,0.265,0.322,0.401c0.081,0.104,0.16,0.212,0.241,0.318
			c0.103,0.136,0.206,0.269,0.308,0.407c0.077,0.105,0.151,0.213,0.228,0.319c0.102,0.143,0.205,0.284,0.306,0.43
			c0.071,0.103,0.14,0.208,0.209,0.313c0.104,0.152,0.207,0.303,0.308,0.458c0.066,0.103,0.131,0.208,0.196,0.312
			c0.102,0.16,0.204,0.319,0.304,0.483c0.063,0.101,0.122,0.206,0.184,0.308c0.101,0.168,0.202,0.336,0.301,0.508
			c0.063,0.109,0.124,0.223,0.187,0.333c0.094,0.168,0.188,0.334,0.281,0.505c0.062,0.115,0.121,0.232,0.183,0.348
			c0.09,0.17,0.181,0.34,0.27,0.514c0.025,0.052,0.051,0.105,0.077,0.159C86.275,87.719,78.336,86.04,69.451,86.04z M181.771,94.368
			c-1.799,1.795-2.834,4.217-2.914,6.819c-0.226,7.412-2.135,23.547-14.104,28.737c3.297-5.889,5.01-12.821,5.01-20.489
			c0-8.453-4-14.734-11.89-18.669c-0.297-0.147-0.604-0.289-0.913-0.43c2.885-2.502,5.594-5.312,8.1-8.393
			c0.67-0.038,1.338-0.238,1.946-0.611c4.849-2.973,11.183-7.241,14.562-11.086c1.08,0.938,3.074,3.793,4.08,8.343
			C186.456,82.237,187.025,89.139,181.771,94.368z M66.955,104.658c-10.396-1.064-16.459-0.107-19.148,0.559
			c-2.128,0.526-3.696,2.264-3.995,4.424c-0.45,3.256-0.987,14.248,10.989,19.049c2.455,0.984,5.258,1.478,8.385,1.478
			c2.996,0,6.289-0.451,9.859-1.354c5.69-1.439,10.862-3.709,14.198-5.359h0.001c1.462-0.723,2.466-2.059,2.754-3.662
			s-0.188-3.203-1.305-4.391C85.384,111.879,78.158,105.805,66.955,104.658z M56.781,123.729c-7.838-3.143-8.188-9.683-7.692-13.323
			c2.356-0.582,7.736-1.41,17.324-0.429c9.222,0.941,15.259,5.828,18.16,8.836C67.851,127.002,59.08,124.648,56.781,123.729z
			 M111.002,119.789c0.289,1.604,1.293,2.939,2.755,3.662c3.337,1.65,8.509,3.92,14.198,5.359c3.572,0.903,6.863,1.354,9.859,1.354
			c3.127,0,5.931-0.492,8.386-1.478c11.976-4.801,11.438-15.793,10.989-19.047c-0.299-2.162-1.867-3.898-3.996-4.426
			c-2.688-0.666-8.752-1.623-19.147-0.559c-11.203,1.146-18.429,7.221-21.739,10.74
			C111.189,116.586,110.715,118.188,111.002,119.789z M134.588,109.977c9.579-0.981,14.958-0.156,17.324,0.43
			c0.496,3.642,0.146,10.181-7.691,13.322c-2.3,0.922-11.07,3.273-27.794-4.916C119.329,115.805,125.366,110.919,134.588,109.977z
			 M132.314,97.722c0-1.476-1.193-2.672-2.666-2.672s-2.666,1.196-2.666,2.672s1.193,2.673,2.666,2.673
			S132.314,99.198,132.314,97.722z M116.674,103.424c0-1.477-1.193-2.673-2.666-2.673c-1.472,0-2.666,1.197-2.666,2.673
			c0,1.477,1.194,2.672,2.666,2.672C115.48,106.096,116.674,104.898,116.674,103.424z M74.018,97.722
			c0-1.476-1.193-2.672-2.666-2.672c-1.472,0-2.666,1.196-2.666,2.672s1.194,2.673,2.666,2.673S74.018,99.198,74.018,97.722z
			 M89.658,103.424c0-1.477-1.193-2.673-2.666-2.673c-1.472,0-2.666,1.197-2.666,2.673c0,1.477,1.194,2.672,2.666,2.672
			C88.465,106.096,89.658,104.898,89.658,103.424z"/>
	</g>
</g>
<rect x="-113.5" y="110.5" fill="#FFCC72" width="122.995" height="3"/>
<rect x="187.505" y="112.5" fill="#FFCC72" width="122.995" height="3"/>
</svg>
