<?xml version="1.0" encoding="utf-8"?>
<!-- Generator: Adobe Illustrator 13.0.0, SVG Export Plug-In . SVG Version: 6.00 Build 14948)  -->
<!DOCTYPE svg PUBLIC "-//W3C//DTD SVG 1.1//EN" "http://www.w3.org/Graphics/SVG/1.1/DTD/svg11.dtd">
<svg version="1.1" xmlns="http://www.w3.org/2000/svg" xmlns:xlink="http://www.w3.org/1999/xlink" x="0px" y="0px" width="7000px"
	 height="2000px" viewBox="0 0 7000 2000" enable-background="new 0 0 7000 2000" xml:space="preserve">
<g id="Layer_1">
	<g>
		<defs>
			<path id="SVGID_1_" d="M631.822,600.989c237.769-80.477,338.642-60.567,386.703-56.304
				c171.929,15.247,321.244,123.354-48.263,323.478c-148.46,80.386-338.44,188.465-338.44,188.465
				c220.793-43.086,604.72-81.92,730.585,24.521c32.95,27.883,73.888,95.759,21.512,196.122
				c-53.86,103.187-329.399,288.163-683.299,200.687c108.87,51.842,331.269,47.263,517.472-14.151
				c102.372-33.792,188.742-86.212,263.48-180.128c99.141-124.639,208.046-517.69-651.596-293.578
				c-50.118,13.06,227.379-61.125,405.632-159.158c93.604-51.475,208.094-145.367,165.771-203.051
				c-51.688-70.463-177.965-105.082-285.205-117.571c-26.491-3.093-54.239-4.56-82.589-4.56
				C886.431,505.76,722.799,545.16,631.822,600.989"/>
		</defs>
		<clipPath id="SVGID_2_">
			<use xlink:href="#SVGID_1_"  overflow="visible"/>
		</clipPath>
		
			<linearGradient id="SVGID_3_" gradientUnits="userSpaceOnUse" x1="3039.127" y1="1361.8662" x2="3049.7776" y2="1361.8662" gradientTransform="matrix(90.1572 0 0 -90.1572 -273367.3438 123817.6016)">
			<stop  offset="0" style="stop-color:#FF3399"/>
			<stop  offset="0.2186" style="stop-color:#FC3399"/>
			<stop  offset="0.3629" style="stop-color:#F33399"/>
			<stop  offset="0.4859" style="stop-color:#E43398"/>
			<stop  offset="0.5968" style="stop-color:#CF3397"/>
			<stop  offset="0.6997" style="stop-color:#B43296"/>
			<stop  offset="0.7966" style="stop-color:#923295"/>
			<stop  offset="0.8889" style="stop-color:#6A3293"/>
			<stop  offset="0.9753" style="stop-color:#3C3192"/>
			<stop  offset="1" style="stop-color:#2E3191"/>
		</linearGradient>
		<rect x="631.822" y="505.76" clip-path="url(#SVGID_2_)" fill="url(#SVGID_3_)" width="1057.797" height="1059.675"/>
	</g>
	<g>
		<defs>
			<path id="SVGID_4_" d="M1689.619,978.552c0,234.695-97.887,442.161-247.775,568.604
				c252.41-100.197,415.136-361.554,379.236-643.397c-28.464-223.594-174.8-403.223-368.597-484.835
				C1596.398,546.109,1689.619,749.437,1689.619,978.552"/>
		</defs>
		<clipPath id="SVGID_5_">
			<use xlink:href="#SVGID_4_"  overflow="visible"/>
		</clipPath>
		
			<linearGradient id="SVGID_6_" gradientUnits="userSpaceOnUse" x1="3053.0479" y1="1349.1699" x2="3063.6946" y2="1349.1699" gradientTransform="matrix(64.4416 98.7938 98.7938 -64.4416 -328782.625 -214308.5156)">
			<stop  offset="0" style="stop-color:#90278E"/>
			<stop  offset="0.267" style="stop-color:#8D298F"/>
			<stop  offset="0.4439" style="stop-color:#842F92"/>
			<stop  offset="0.5947" style="stop-color:#753998"/>
			<stop  offset="0.7308" style="stop-color:#6047A0"/>
			<stop  offset="0.8571" style="stop-color:#4559AB"/>
			<stop  offset="0.9745" style="stop-color:#236FB8"/>
			<stop  offset="1" style="stop-color:#1B75BB"/>
		</linearGradient>
		<polygon clip-path="url(#SVGID_5_)" fill="url(#SVGID_6_)" points="1733.068,228.951 2106.376,1038.847 1565.755,1737.154 
			925.562,755.666 		"/>
	</g>
	<g>
		<defs>
			<path id="SVGID_7_" d="M1139.521,376.197c-20.823,2.662-41.274,6.328-61.295,10.963
				c276.528,16.105,513.608,239.92,551.948,540.902c38.344,301.013-135.08,577.09-398.734,662.004
				c20.535-0.545,41.263-2.104,62.094-4.745c52.032-6.629,101.691-19.665,148.31-38.166
				c149.888-126.442,247.775-333.908,247.775-568.604c0-229.115-93.22-432.443-237.136-559.629
				c-73.022-30.746-152.787-47.642-235.518-47.642C1191.403,371.281,1165.557,372.882,1139.521,376.197"/>
		</defs>
		<clipPath id="SVGID_8_">
			<use xlink:href="#SVGID_7_"  overflow="visible"/>
		</clipPath>
		
			<linearGradient id="SVGID_9_" gradientUnits="userSpaceOnUse" x1="3043.4839" y1="1361.9961" x2="3054.1296" y2="1361.9961" gradientTransform="matrix(110.544 0 0 -110.544 -335925.5625 151541.2344)">
			<stop  offset="0" style="stop-color:#90278E"/>
			<stop  offset="0.267" style="stop-color:#8D298F"/>
			<stop  offset="0.4439" style="stop-color:#842F92"/>
			<stop  offset="0.5947" style="stop-color:#753998"/>
			<stop  offset="0.7308" style="stop-color:#6047A0"/>
			<stop  offset="0.8571" style="stop-color:#4559AB"/>
			<stop  offset="0.9745" style="stop-color:#236FB8"/>
			<stop  offset="1" style="stop-color:#1B75BB"/>
		</linearGradient>
		<rect x="1078.226" y="371.281" clip-path="url(#SVGID_8_)" fill="url(#SVGID_9_)" width="611.393" height="1218.786"/>
	</g>
	<g>
		<defs>
			<path id="SVGID_10_" d="M1139.521,376.197c-20.823,2.662-41.274,6.328-61.295,10.963
				c276.528,16.105,513.608,239.92,551.948,540.902c38.344,301.013-135.08,577.09-398.734,662.004
				c20.535-0.545,41.263-2.104,62.094-4.745c52.032-6.629,101.691-19.665,148.31-38.166
				c149.888-126.442,247.775-333.908,247.775-568.604c0-229.115-93.22-432.443-237.136-559.629
				c-73.022-30.746-152.787-47.642-235.518-47.642C1191.403,371.281,1165.557,372.882,1139.521,376.197"/>
		</defs>
		<clipPath id="SVGID_11_">
			<use xlink:href="#SVGID_10_"  overflow="visible"/>
		</clipPath>
		<linearGradient id="SVGID_12_" gradientUnits="userSpaceOnUse" x1="469.7207" y1="980.6602" x2="2031.2227" y2="980.6602">
			<stop  offset="0" style="stop-color:#FF3399"/>
			<stop  offset="0.2186" style="stop-color:#FC3399"/>
			<stop  offset="0.3629" style="stop-color:#F33399"/>
			<stop  offset="0.4859" style="stop-color:#E43398"/>
			<stop  offset="0.5968" style="stop-color:#CF3397"/>
			<stop  offset="0.6997" style="stop-color:#B43296"/>
			<stop  offset="0.7966" style="stop-color:#923295"/>
			<stop  offset="0.8889" style="stop-color:#6A3293"/>
			<stop  offset="0.9753" style="stop-color:#3C3192"/>
			<stop  offset="1" style="stop-color:#2E3191"/>
		</linearGradient>
		<polygon clip-path="url(#SVGID_11_)" fill="url(#SVGID_12_)" points="469.721,947.647 1400.478,66.02 2031.223,842.131 
			1367.351,1895.301 		"/>
	</g>
	<g>
		<defs>
			<path id="SVGID_13_" d="M1471.182,1329.865c-75.407,80.738-138.889,115.194-241.261,149.563
				c-186.199,62.529-414.681,69.435-523.551,16.659c4.766,5.141,9.674,10.054,14.586,15.005
				c55.766,35.635,221.352,106.968,432.538,79.567c219.773-28.5,404.43-211.207,458.772-450.944
				c16.512-72.853,16.413-128.187,15.053-138.957C1610.106,1100.284,1581.064,1212.188,1471.182,1329.865"/>
		</defs>
		<clipPath id="SVGID_14_">
			<use xlink:href="#SVGID_13_"  overflow="visible"/>
		</clipPath>
		
			<linearGradient id="SVGID_15_" gradientUnits="userSpaceOnUse" x1="3043.4829" y1="1359.292" x2="3054.1301" y2="1359.292" gradientTransform="matrix(110.544 0 0 -110.544 -335925.5625 151571.0469)">
			<stop  offset="0" style="stop-color:#90278E"/>
			<stop  offset="0.267" style="stop-color:#8D298F"/>
			<stop  offset="0.4439" style="stop-color:#842F92"/>
			<stop  offset="0.5947" style="stop-color:#753998"/>
			<stop  offset="0.7308" style="stop-color:#6047A0"/>
			<stop  offset="0.8571" style="stop-color:#4559AB"/>
			<stop  offset="0.9745" style="stop-color:#236FB8"/>
			<stop  offset="1" style="stop-color:#1B75BB"/>
		</linearGradient>
		<rect x="706.37" y="1000.759" clip-path="url(#SVGID_14_)" fill="url(#SVGID_15_)" width="922.408" height="617.301"/>
	</g>
	<g>
		<defs>
			<path id="SVGID_16_" d="M1471.182,1329.865c-75.407,80.738-138.889,115.194-241.261,149.563
				c-186.199,62.529-414.681,69.435-523.551,16.659c4.766,5.141,9.674,10.054,14.586,15.005
				c55.766,35.635,221.352,106.968,432.538,79.567c219.773-28.5,404.43-211.207,458.772-450.944
				c16.512-72.853,16.413-128.187,15.053-138.957C1610.106,1100.284,1581.064,1212.188,1471.182,1329.865"/>
		</defs>
		<clipPath id="SVGID_17_">
			<use xlink:href="#SVGID_16_"  overflow="visible"/>
		</clipPath>
		<linearGradient id="SVGID_18_" gradientUnits="userSpaceOnUse" x1="562.2251" y1="1245.5205" x2="1847.4678" y2="1245.5205">
			<stop  offset="0" style="stop-color:#90278E"/>
			<stop  offset="0.348" style="stop-color:#93268E"/>
			<stop  offset="0.5785" style="stop-color:#9C238C"/>
			<stop  offset="0.7748" style="stop-color:#AB1E8A"/>
			<stop  offset="0.9511" style="stop-color:#C01786"/>
			<stop  offset="1" style="stop-color:#C71585"/>
		</linearGradient>
		<polygon clip-path="url(#SVGID_17_)" fill="url(#SVGID_18_)" points="831.717,665.776 1847.468,995.835 1577.968,1825.265 
			562.225,1495.209 		"/>
	</g>
	<g>
		<defs>
			<path id="SVGID_19_" d="M588.316,611.845c6.272-5.66,13.356-11.153,20.934-16.524c7.186-12.929,14.697-25.577,22.571-37.893
				C600.612,585.473,586.94,607.115,588.316,611.845"/>
		</defs>
		<clipPath id="SVGID_20_">
			<use xlink:href="#SVGID_19_"  overflow="visible"/>
		</clipPath>
		
			<linearGradient id="SVGID_21_" gradientUnits="userSpaceOnUse" x1="3045.7397" y1="1376.9053" x2="3056.4065" y2="1376.9053" gradientTransform="matrix(90.0187 -45.9425 -45.9425 -90.0187 -210478.9063 264549.1563)">
			<stop  offset="0" style="stop-color:#90278E"/>
			<stop  offset="0.2839" style="stop-color:#8D278E"/>
			<stop  offset="0.4721" style="stop-color:#84288E"/>
			<stop  offset="0.6327" style="stop-color:#752A8F"/>
			<stop  offset="0.7776" style="stop-color:#602C8F"/>
			<stop  offset="0.9107" style="stop-color:#452F90"/>
			<stop  offset="1" style="stop-color:#2E3191"/>
		</linearGradient>
		<polygon clip-path="url(#SVGID_20_)" fill="url(#SVGID_21_)" points="564.906,568.665 622.551,539.259 653.855,600.601 
			596.211,630.015 		"/>
	</g>
	<g>
		<defs>
			<path id="SVGID_22_" d="M973.192,406.271c-178.447,33.539-286.89,102.198-341.371,151.157
				c-7.875,12.316-15.385,24.964-22.571,37.893c100.193-71.131,309.73-115.645,495.012-102.538
				c107.723,7.605,177.787,25.039,271.026,84.293c135.891,86.382,192.056,187.441,233.655,279.443
				c-1.369-10.73-15.144-64.336-49.398-130.714c-99.655-193.176-311.249-326.535-509.459-326.543
				C1024.117,399.263,998.41,401.533,973.192,406.271"/>
		</defs>
		<clipPath id="SVGID_23_">
			<use xlink:href="#SVGID_22_"  overflow="visible"/>
		</clipPath>
		<linearGradient id="SVGID_24_" gradientUnits="userSpaceOnUse" x1="609.2505" y1="627.8911" x2="1608.9438" y2="627.8911">
			<stop  offset="0" style="stop-color:#90278E"/>
			<stop  offset="0.272" style="stop-color:#93278E"/>
			<stop  offset="0.4522" style="stop-color:#9C288F"/>
			<stop  offset="0.6058" style="stop-color:#AB2A91"/>
			<stop  offset="0.7444" style="stop-color:#C02C93"/>
			<stop  offset="0.8722" style="stop-color:#DB2F95"/>
			<stop  offset="0.9918" style="stop-color:#FC3399"/>
			<stop  offset="1" style="stop-color:#FF3399"/>
		</linearGradient>
		<rect x="609.25" y="399.263" clip-path="url(#SVGID_23_)" fill="url(#SVGID_24_)" width="999.693" height="457.257"/>
	</g>
	<g>
		<defs>
			<path id="SVGID_25_" d="M973.192,406.271c-178.447,33.539-286.89,102.198-341.371,151.157
				c-7.875,12.316-15.385,24.964-22.571,37.893c100.193-71.131,309.73-115.645,495.012-102.538
				c107.723,7.605,177.787,25.039,271.026,84.293c135.891,86.382,192.056,187.441,233.655,279.443
				c-1.369-10.73-15.144-64.336-49.398-130.714c-99.655-193.176-311.249-326.535-509.459-326.543
				C1024.117,399.263,998.41,401.533,973.192,406.271"/>
		</defs>
		<clipPath id="SVGID_26_">
			<use xlink:href="#SVGID_25_"  overflow="visible"/>
		</clipPath>
	</g>
	<g>
		<path fill="#C71585" stroke="#C71585" stroke-width="4" d="M2681.85,485.124c38.017,22.106,57.031,55.041,57.031,98.809v25.531
			c0,31.391-11.165,58.248-33.489,80.572c-22.33,22.329-49.296,33.489-80.904,33.489h-291.784v-50.73h291.784
			c17.459,0,32.494-6.186,45.094-18.568c12.377-12.377,18.568-27.298,18.568-44.762v-25.531c0-17.459-6.191-32.38-18.568-44.762
			c-12.6-12.377-27.634-18.568-45.094-18.568h-291.784v-50.73h266.584c17.459,0,32.38-6.3,44.763-18.899
			c12.377-12.377,18.568-27.298,18.568-44.763c0-17.459-6.191-32.38-18.568-44.762c-12.382-12.377-27.303-18.568-44.763-18.568
			h-266.584v-50.731h266.584c31.386,0,58.243,11.165,80.572,33.489c22.324,22.33,33.489,49.187,33.489,80.572
			C2713.35,436.714,2702.848,463.022,2681.85,485.124z"/>
		<path fill="#C71585" stroke="#C71585" stroke-width="4" d="M2918.925,723.524c-35.146,0-65.102-12.377-89.856-37.136
			c-24.759-24.754-37.136-54.709-37.136-89.856V418.809c0-34.924,12.377-64.766,37.136-89.525
			c24.754-24.754,54.709-37.136,89.856-37.136h152.192c34.924,0,64.874,12.382,89.856,37.136
			c24.754,24.759,37.136,54.601,37.136,89.525v177.723c0,35.146-12.382,65.102-37.136,89.856
			c-24.982,24.759-54.932,37.136-89.856,37.136H2918.925z M2918.925,342.879c-21.003,0-39.017,7.408-54.046,22.215
			c-14.812,14.812-22.215,32.717-22.215,53.715v177.723c0,21.003,7.403,39.017,22.215,54.046
			c15.03,14.812,33.043,22.216,54.046,22.216h152.192c20.998,0,38.903-7.404,53.714-22.216
			c15.03-15.029,22.547-33.043,22.547-54.046V418.809c0-20.998-7.518-38.903-22.547-53.715
			c-14.812-14.807-32.717-22.215-53.714-22.215H2918.925z"/>
		<path fill="#C71585" stroke="#C71585" stroke-width="4" d="M3378.153,723.524c-35.146,0-65.102-12.377-89.856-37.136
			c-24.759-24.754-37.136-54.709-37.136-89.856V418.809c0-34.924,12.377-64.766,37.136-89.525
			c24.754-24.754,54.709-37.136,89.856-37.136h152.192c34.924,0,64.875,12.382,89.856,37.136
			c24.754,24.759,37.137,54.601,37.137,89.525v177.723c0,35.146-12.383,65.102-37.137,89.856
			c-24.981,24.759-54.933,37.136-89.856,37.136H3378.153z M3378.153,342.879c-21.003,0-39.017,7.408-54.046,22.215
			c-14.812,14.812-22.215,32.717-22.215,53.715v177.723c0,21.003,7.403,39.017,22.215,54.046
			c15.03,14.812,33.043,22.216,54.046,22.216h152.192c20.998,0,38.903-7.404,53.715-22.216
			c15.03-15.029,22.547-33.043,22.547-54.046V418.809c0-20.998-7.517-38.903-22.547-53.715
			c-14.812-14.807-32.717-22.215-53.715-22.215H3378.153z"/>
		<path fill="#C71585" stroke="#C71585" stroke-width="4" d="M4116.567,406.209c0,36.255-14.258,65.875-42.773,88.862
			c28.516,22.992,42.773,52.611,42.773,88.861v139.592h-50.731V583.932c0-17.459-6.19-32.38-18.567-44.762
			c-12.601-12.377-27.635-18.568-45.095-18.568h-241.053v202.923h-50.731V292.148h50.731v177.723h241.053
			c17.46,0,32.494-6.3,45.095-18.899c12.377-12.377,18.567-27.298,18.567-44.763V292.148h50.731V406.209z"/>
	</g>
	<g>
		<path fill="#C71585" stroke="#C71585" stroke-width="4" d="M4691.451,292.148c34.924,0,64.875,12.382,89.856,37.136
			c24.754,24.759,37.137,54.601,37.137,89.525v177.723c0,35.146-12.383,65.102-37.137,89.856
			c-24.981,24.759-54.933,37.136-89.856,37.136h-279.185v-50.73h279.185c20.998,0,38.903-7.404,53.715-22.216
			c15.03-15.029,22.547-33.043,22.547-54.046V418.809c0-20.998-7.517-38.903-22.547-53.715
			c-14.812-14.807-32.717-22.215-53.715-22.215h-279.185v-50.731H4691.451z"/>
		<path fill="#C71585" stroke="#C71585" stroke-width="4" d="M4998.488,723.524c-35.147,0-65.103-12.377-89.856-37.136
			c-24.76-24.754-37.137-54.709-37.137-89.856V418.809c0-34.924,12.377-64.766,37.137-89.525
			c24.754-24.754,54.709-37.136,89.856-37.136h152.191c34.924,0,64.875,12.382,89.856,37.136
			c24.754,24.759,37.137,54.601,37.137,89.525v177.723c0,35.146-12.383,65.102-37.137,89.856
			c-24.981,24.759-54.933,37.136-89.856,37.136H4998.488z M4998.488,342.879c-21.003,0-39.018,7.408-54.047,22.215
			c-14.812,14.812-22.215,32.717-22.215,53.715v177.723c0,21.003,7.403,39.017,22.215,54.046
			c15.029,14.812,33.044,22.216,54.047,22.216h152.191c20.998,0,38.903-7.404,53.715-22.216
			c15.03-15.029,22.547-33.043,22.547-54.046V418.809c0-20.998-7.517-38.903-22.547-53.715
			c-14.812-14.807-32.717-22.215-53.715-22.215H4998.488z"/>
		<path fill="#C71585" stroke="#C71585" stroke-width="4" d="M5457.717,723.524c-35.147,0-65.103-12.377-89.856-37.136
			c-24.76-24.754-37.137-54.709-37.137-89.856V292.148h50.731v304.384c0,21.003,7.403,39.017,22.215,54.046
			c15.029,14.812,33.044,22.216,54.047,22.216h152.191c20.998,0,38.903-7.404,53.715-22.216
			c15.03-15.029,22.547-33.043,22.547-54.046V292.148h50.731v304.384c0,35.146-12.383,65.102-37.137,89.856
			c-24.981,24.759-54.933,37.136-89.856,37.136H5457.717z"/>
		<path fill="#C71585" stroke="#C71585" stroke-width="4" d="M5840.684,292.148v380.646h355.446v50.73h-406.178V292.148H5840.684z"
			/>
		<path fill="#C71585" stroke="#C71585" stroke-width="4" d="M6528.365,292.148c34.924,0,64.875,12.382,89.856,37.136
			c24.754,24.759,37.137,54.601,37.137,89.525v304.715h-50.731V520.602h-304.715v202.923h-50.731V418.809
			c0-34.924,12.377-64.766,37.137-89.525c24.754-24.754,54.709-37.136,89.856-37.136H6528.365z M6604.627,469.871v-51.062
			c0-20.998-7.517-38.903-22.547-53.715c-14.812-14.807-32.717-22.215-53.715-22.215h-152.191c-21.003,0-39.018,7.408-54.047,22.215
			c-14.812,14.812-22.215,32.717-22.215,53.715v51.062H6604.627z"/>
	</g>
	<g>
		<path fill="#454545" d="M2336.953,1626.917h117.245c6.513,0,12.048,2.28,16.61,6.839c4.558,4.562,6.839,10.098,6.839,16.61v41.23
			c0,6.516-2.281,12.052-6.839,16.609c-4.562,4.562-10.097,6.84-16.61,6.84h-93.796c-1.172,0-3.712-0.26-7.621-0.782v53.151h-15.828
			V1626.917z M2461.819,1691.597v-41.23c0-2.083-0.751-3.875-2.248-5.374c-1.499-1.496-3.291-2.247-5.374-2.247h-93.796
			c-2.085,0-3.877,0.751-5.374,2.247c-1.499,1.499-2.247,3.291-2.247,5.374v41.23c0,2.086,0.748,3.844,2.247,5.276
			c1.496,1.435,3.289,2.149,5.374,2.149h93.796c2.083,0,3.875-0.715,5.374-2.149
			C2461.067,1695.44,2461.819,1693.683,2461.819,1691.597z"/>
		<path fill="#454545" d="M2537.83,1654.078h63.703v16.023h-63.703c-2.085,0-3.878,0.752-5.374,2.248
			c-1.499,1.499-2.247,3.291-2.247,5.373v89.692h-16.023v-89.692c0-6.513,2.312-12.081,6.937-16.707
			C2525.745,1656.393,2531.314,1654.078,2537.83,1654.078z"/>
		<path fill="#454545" d="M2661.13,1654.078h68.001c6.644,0,12.277,2.314,16.903,6.938c4.623,4.626,6.937,10.194,6.937,16.707
			v66.048c0,6.516-2.314,12.085-6.937,16.708c-4.625,4.625-10.259,6.937-16.903,6.937h-68.001c-6.516,0-12.085-2.312-16.708-6.937
			c-4.625-4.623-6.937-10.192-6.937-16.708v-66.048c0-6.513,2.312-12.081,6.937-16.707
			C2649.045,1656.393,2654.615,1654.078,2661.13,1654.078z M2729.132,1670.102h-68.001c-2.085,0-3.878,0.752-5.374,2.248
			c-1.499,1.499-2.247,3.291-2.247,5.373v66.048c0,2.086,0.748,3.878,2.247,5.374c1.496,1.499,3.289,2.247,5.374,2.247h68.001
			c2.083,0,3.875-0.748,5.374-2.247c1.496-1.496,2.247-3.288,2.247-5.374v-66.048c0-2.082-0.751-3.874-2.247-5.373
			C2733.007,1670.854,2731.214,1670.102,2729.132,1670.102z"/>
		<path fill="#454545" d="M2820.189,1632.975c-2.085,0-3.877,0.751-5.374,2.247c-1.5,1.499-2.248,3.291-2.248,5.374v13.482h49.047
			v16.023h-49.047v97.313h-16.023v-126.819c0-6.645,2.278-12.244,6.839-16.806c4.559-4.559,10.161-6.839,16.805-6.839h41.426v16.023
			H2820.189z"/>
		<path fill="#454545" d="M2990.78,1654.078c6.644,0,12.277,2.314,16.903,6.938c4.623,4.626,6.937,10.194,6.937,16.707v41.036
			h-99.462v25.012c0,2.086,0.748,3.878,2.247,5.374c1.496,1.499,3.289,2.247,5.374,2.247h91.841v16.023h-91.841
			c-6.516,0-12.085-2.312-16.708-6.937c-4.625-4.623-6.937-10.192-6.937-16.708v-66.048c0-6.513,2.312-12.081,6.937-16.707
			c4.623-4.623,10.192-6.938,16.708-6.938H2990.78z M2915.157,1702.735h83.244v-25.013c0-2.082-0.751-3.874-2.247-5.373
			c-1.499-1.496-3.292-2.248-5.374-2.248h-68.001c-2.085,0-3.878,0.752-5.374,2.248c-1.499,1.499-2.247,3.291-2.247,5.373V1702.735z
			"/>
		<path fill="#454545" d="M3172.702,1677.723v1.563h-16.219v-1.563c0-2.082-0.751-3.874-2.247-5.373
			c-1.499-1.496-3.292-2.248-5.374-2.248h-68.002c-2.085,0-3.877,0.752-5.374,2.248c-1.5,1.499-2.248,3.291-2.248,5.373v17.392
			c0,2.085,0.748,3.878,2.248,5.374c1.496,1.499,3.288,2.247,5.374,2.247h68.002c6.644,0,12.277,2.314,16.903,6.937
			c4.623,4.626,6.937,10.195,6.937,16.708v17.391c0,6.516-2.314,12.085-6.937,16.708c-4.626,4.625-10.259,6.937-16.903,6.937
			h-68.002c-6.516,0-12.085-2.312-16.708-6.937c-4.625-4.623-6.937-10.192-6.937-16.708v-1.563h16.023v1.563
			c0,2.086,0.748,3.878,2.248,5.374c1.496,1.499,3.288,2.247,5.374,2.247h68.002c2.082,0,3.875-0.748,5.374-2.247
			c1.496-1.496,2.247-3.288,2.247-5.374v-17.391c0-2.083-0.751-3.875-2.247-5.374c-1.499-1.496-3.292-2.247-5.374-2.247h-68.002
			c-6.516,0-12.085-2.312-16.708-6.938c-4.625-4.622-6.937-10.191-6.937-16.707v-17.392c0-6.513,2.312-12.081,6.937-16.707
			c4.623-4.623,10.192-6.938,16.708-6.938h68.002c6.644,0,12.277,2.314,16.903,6.938
			C3170.388,1665.642,3172.702,1671.21,3172.702,1677.723z"/>
		<path fill="#454545" d="M3330.199,1677.723v1.563h-16.219v-1.563c0-2.082-0.751-3.874-2.247-5.373
			c-1.499-1.496-3.292-2.248-5.374-2.248h-68.002c-2.085,0-3.877,0.752-5.374,2.248c-1.5,1.499-2.248,3.291-2.248,5.373v17.392
			c0,2.085,0.748,3.878,2.248,5.374c1.496,1.499,3.288,2.247,5.374,2.247h68.002c6.644,0,12.277,2.314,16.903,6.937
			c4.623,4.626,6.937,10.195,6.937,16.708v17.391c0,6.516-2.314,12.085-6.937,16.708c-4.626,4.625-10.259,6.937-16.903,6.937
			h-68.002c-6.516,0-12.085-2.312-16.708-6.937c-4.625-4.623-6.937-10.192-6.937-16.708v-1.563h16.023v1.563
			c0,2.086,0.748,3.878,2.248,5.374c1.496,1.499,3.288,2.247,5.374,2.247h68.002c2.082,0,3.875-0.748,5.374-2.247
			c1.496-1.496,2.247-3.288,2.247-5.374v-17.391c0-2.083-0.751-3.875-2.247-5.374c-1.499-1.496-3.292-2.247-5.374-2.247h-68.002
			c-6.516,0-12.085-2.312-16.708-6.938c-4.625-4.622-6.937-10.191-6.937-16.707v-17.392c0-6.513,2.312-12.081,6.937-16.707
			c4.623-4.623,10.192-6.938,16.708-6.938h68.002c6.644,0,12.277,2.314,16.903,6.938
			C3327.884,1665.642,3330.199,1671.21,3330.199,1677.723z"/>
		<path fill="#454545" d="M3372.991,1616.951h16.023v16.023h-16.023V1616.951z M3372.991,1767.415v-113.337h16.023v113.337H3372.991
			z"/>
		<path fill="#454545" d="M3460.532,1654.078h68.002c6.645,0,12.277,2.314,16.903,6.938c4.622,4.626,6.937,10.194,6.937,16.707
			v66.048c0,6.516-2.314,12.085-6.937,16.708c-4.626,4.625-10.259,6.937-16.903,6.937h-68.002c-6.516,0-12.085-2.312-16.708-6.937
			c-4.625-4.623-6.937-10.192-6.937-16.708v-66.048c0-6.513,2.312-12.081,6.937-16.707
			C3448.447,1656.393,3454.017,1654.078,3460.532,1654.078z M3528.534,1670.102h-68.002c-2.085,0-3.878,0.752-5.374,2.248
			c-1.499,1.499-2.247,3.291-2.247,5.373v66.048c0,2.086,0.748,3.878,2.247,5.374c1.496,1.499,3.289,2.247,5.374,2.247h68.002
			c2.083,0,3.875-0.748,5.374-2.247c1.496-1.496,2.247-3.288,2.247-5.374v-66.048c0-2.082-0.751-3.874-2.247-5.373
			C3532.409,1670.854,3530.617,1670.102,3528.534,1670.102z"/>
		<path fill="#454545" d="M3687.984,1654.078c6.513,0,12.082,2.314,16.707,6.938c4.623,4.626,6.938,10.194,6.938,16.707v89.692
			h-16.023v-89.692c0-2.082-0.751-3.874-2.247-5.373c-1.499-1.496-3.292-2.248-5.374-2.248h-68.002
			c-2.085,0-3.908,0.752-5.472,2.248c-1.563,1.499-2.345,3.291-2.345,5.373v89.692h-16.023v-113.337H3687.984z"/>
		<path fill="#454545" d="M3846.851,1654.078c6.644,0,12.277,2.314,16.902,6.938c4.623,4.626,6.938,10.194,6.938,16.707v89.692
			h-91.842c-6.516,0-12.085-2.312-16.707-6.937c-4.626-4.623-6.938-10.192-6.938-16.708v-41.035h99.268v-25.013
			c0-2.082-0.751-3.874-2.247-5.373c-1.5-1.496-3.292-2.248-5.374-2.248h-91.646v-16.023H3846.851z M3854.472,1751.392v-32.633
			h-83.244v25.012c0,2.086,0.748,3.878,2.247,5.374c1.496,1.499,3.288,2.247,5.374,2.247H3854.472z"/>
		<path fill="#454545" d="M3914.264,1616.951h16.023v126.819c0,2.086,0.748,3.878,2.247,5.374c1.496,1.499,3.288,2.247,5.374,2.247
			h19.149v16.023h-19.149c-6.516,0-12.085-2.312-16.707-6.937c-4.626-4.623-6.938-10.192-6.938-16.708V1616.951z"/>
		<path fill="#454545" d="M4250.164,1654.078h17.392l-42.794,113.337h-13.874l-42.208-93.601l-40.059,93.601h-14.069
			l-44.554-113.337h17.196l34.392,84.417l36.541-84.417h21.104l38.886,84.221L4250.164,1654.078z"/>
		<path fill="#454545" d="M4397.697,1654.078c6.644,0,12.277,2.314,16.902,6.938c4.623,4.626,6.938,10.194,6.938,16.707v89.692
			h-91.842c-6.516,0-12.085-2.312-16.707-6.937c-4.626-4.623-6.938-10.192-6.938-16.708v-41.035h99.268v-25.013
			c0-2.082-0.751-3.874-2.247-5.373c-1.5-1.496-3.292-2.248-5.374-2.248h-91.646v-16.023H4397.697z M4405.318,1751.392v-32.633
			h-83.244v25.012c0,2.086,0.748,3.878,2.247,5.374c1.496,1.499,3.288,2.247,5.374,2.247H4405.318z"/>
		<path fill="#454545" d="M4578.446,1788.52c0,6.644-2.281,12.276-6.84,16.902c-4.562,4.623-10.161,6.937-16.805,6.937h-70.737
			v-16.219h70.737c2.082,0,3.874-0.751,5.374-2.247c1.496-1.499,2.247-3.291,2.247-5.373v-21.104H4486.8
			c-6.516,0-12.085-2.312-16.707-6.937c-4.626-4.623-6.938-10.192-6.938-16.708v-89.301h16.023v89.301
			c0,2.086,0.748,3.878,2.247,5.374c1.496,1.499,3.288,2.247,5.374,2.247h68.002c2.082,0,3.874-0.748,5.374-2.247
			c1.496-1.496,2.247-3.288,2.247-5.374v-89.301h16.023V1788.52z"/>
		<path fill="#454545" d="M4764.276,1670.102h-49.048v73.669c0,2.086,0.748,3.878,2.247,5.374c1.496,1.499,3.289,2.247,5.374,2.247
			h41.427v16.023h-41.427c-6.644,0-12.247-2.312-16.805-6.937c-4.562-4.623-6.84-10.192-6.84-16.708v-126.819h16.023v37.127h49.048
			V1670.102z"/>
		<path fill="#454545" d="M4826.023,1654.078h68.002c6.644,0,12.276,2.314,16.902,6.938c4.623,4.626,6.938,10.194,6.938,16.707
			v66.048c0,6.516-2.314,12.085-6.938,16.708c-4.626,4.625-10.259,6.937-16.902,6.937h-68.002c-6.516,0-12.085-2.312-16.708-6.937
			c-4.625-4.623-6.937-10.192-6.937-16.708v-66.048c0-6.513,2.312-12.081,6.937-16.707
			C4813.938,1656.393,4819.508,1654.078,4826.023,1654.078z M4894.025,1670.102h-68.002c-2.086,0-3.878,0.752-5.374,2.248
			c-1.499,1.499-2.247,3.291-2.247,5.373v66.048c0,2.086,0.748,3.878,2.247,5.374c1.496,1.499,3.288,2.247,5.374,2.247h68.002
			c2.082,0,3.874-0.748,5.373-2.247c1.496-1.496,2.248-3.288,2.248-5.374v-66.048c0-2.082-0.752-3.874-2.248-5.373
			C4897.899,1670.854,4896.107,1670.102,4894.025,1670.102z"/>
		<path fill="#454545" d="M5037.84,1616.951h16.023v126.819c0,2.086,0.748,3.878,2.247,5.374c1.496,1.499,3.288,2.247,5.374,2.247
			h19.149v16.023h-19.149c-6.516,0-12.085-2.312-16.707-6.937c-4.626-4.623-6.938-10.192-6.938-16.708V1616.951z"/>
		<path fill="#454545" d="M5211.75,1654.078c6.644,0,12.276,2.314,16.902,6.938c4.623,4.626,6.938,10.194,6.938,16.707v41.036
			h-99.463v25.012c0,2.086,0.748,3.878,2.247,5.374c1.496,1.499,3.288,2.247,5.374,2.247h91.842v16.023h-91.842
			c-6.516,0-12.085-2.312-16.708-6.937c-4.625-4.623-6.937-10.192-6.937-16.708v-66.048c0-6.513,2.312-12.081,6.937-16.707
			c4.623-4.623,10.192-6.938,16.708-6.938H5211.75z M5136.127,1702.735h83.244v-25.013c0-2.082-0.752-3.874-2.248-5.373
			c-1.499-1.496-3.291-2.248-5.373-2.248h-68.002c-2.086,0-3.878,0.752-5.374,2.248c-1.499,1.499-2.247,3.291-2.247,5.373V1702.735z
			"/>
		<path fill="#454545" d="M5370.613,1654.078c6.644,0,12.277,2.314,16.902,6.938c4.623,4.626,6.938,10.194,6.938,16.707v89.692
			h-91.842c-6.516,0-12.085-2.312-16.707-6.937c-4.626-4.623-6.938-10.192-6.938-16.708v-41.035h99.268v-25.013
			c0-2.082-0.751-3.874-2.247-5.373c-1.5-1.496-3.292-2.248-5.374-2.248h-91.646v-16.023H5370.613z M5378.234,1751.392v-32.633
			h-83.244v25.012c0,2.086,0.748,3.878,2.247,5.374c1.496,1.499,3.288,2.247,5.374,2.247H5378.234z"/>
		<path fill="#454545" d="M5461.671,1654.078h63.703v16.023h-63.703c-2.086,0-3.878,0.752-5.374,2.248
			c-1.499,1.499-2.247,3.291-2.247,5.373v89.692h-16.023v-89.692c0-6.513,2.312-12.081,6.938-16.707
			C5449.586,1656.393,5455.155,1654.078,5461.671,1654.078z"/>
		<path fill="#454545" d="M5653.755,1654.078c6.513,0,12.082,2.314,16.707,6.938c4.623,4.626,6.938,10.194,6.938,16.707v89.692
			h-16.023v-89.692c0-2.082-0.751-3.874-2.247-5.373c-1.499-1.496-3.292-2.248-5.374-2.248h-68.002
			c-2.085,0-3.908,0.752-5.472,2.248c-1.563,1.499-2.345,3.291-2.345,5.373v89.692h-16.023v-113.337H5653.755z"/>
	</g>
	<g>
		<g>
			<path fill="#343434" d="M2328.522,920.732h296.45c16.467,0,30.463,5.767,41.997,17.293c11.526,11.534,17.292,25.53,17.292,41.997
				v104.251c0,16.475-5.767,30.471-17.292,41.997c-11.534,11.534-25.53,17.293-41.997,17.293h-237.16
				c-2.964,0-9.388-0.656-19.269-1.977v134.391h-40.021V920.732z M2644.241,1084.273V980.022c0-5.265-1.899-9.797-5.682-13.587
				c-3.791-3.783-8.322-5.682-13.587-5.682h-237.16c-5.273,0-9.805,1.899-13.587,5.682c-3.791,3.791-5.682,8.322-5.682,13.587
				v104.251c0,5.272,1.891,9.72,5.682,13.341c3.783,3.628,8.314,5.435,13.587,5.435h237.16c5.265,0,9.796-1.807,13.587-5.435
				C2642.342,1093.993,2644.241,1089.546,2644.241,1084.273z"/>
			<path fill="#343434" d="M2969.34,989.41h40.515v226.784c0,16.475-5.852,30.556-17.54,42.244
				c-11.696,11.696-25.939,17.54-42.738,17.54h-171.941c-16.475,0-30.556-5.844-42.244-17.54
				c-11.696-11.688-17.54-25.77-17.54-42.244V989.41h40.515v226.784c0,5.273,1.891,9.805,5.682,13.588
				c3.783,3.79,8.315,5.682,13.587,5.682h171.941c5.265,0,9.881-1.892,13.834-5.682c3.953-3.783,5.929-8.314,5.929-13.588V989.41z"
				/>
			<path fill="#343434" d="M3293.948,989.41c16.467,0,30.548,5.852,42.244,17.541c11.688,11.695,17.54,25.776,17.54,42.243v167
				c0,16.475-5.852,30.556-17.54,42.244c-11.696,11.696-25.777,17.54-42.244,17.54h-232.218V895.534h40.515v93.875H3293.948z
				 M3313.217,1216.193v-167c0-5.265-1.899-9.796-5.682-13.587c-3.791-3.783-8.322-5.682-13.587-5.682h-171.94
				c-5.273,0-9.882,1.898-13.834,5.682c-3.953,3.791-5.929,8.322-5.929,13.587v167c0,5.273,1.976,9.805,5.929,13.588
				c3.953,3.79,8.562,5.682,13.834,5.682h171.94c5.265,0,9.797-1.892,13.587-5.682
				C3311.318,1225.998,3313.217,1221.467,3313.217,1216.193z"/>
			<path fill="#343434" d="M3390.291,895.534h40.515v320.659c0,5.273,1.892,9.805,5.682,13.588c3.783,3.79,8.314,5.682,13.587,5.682
				h48.42v40.515h-48.42c-16.475,0-30.556-5.844-42.244-17.54c-11.696-11.688-17.54-25.77-17.54-42.244V895.534z"/>
			<path fill="#343434" d="M3539.497,895.534h40.515v40.515h-40.515V895.534z M3539.497,1275.978V989.41h40.515v286.568H3539.497z"
				/>
			<path fill="#343434" d="M3701.553,1235.463h232.219v40.515h-232.219c-16.475,0-30.557-5.844-42.244-17.54
				c-11.696-11.688-17.54-25.77-17.54-42.244v-167c0-16.467,5.844-30.548,17.54-42.243c11.688-11.688,25.77-17.541,42.244-17.541
				h231.23v40.515h-231.23c-5.273,0-9.805,1.898-13.588,5.682c-3.79,3.791-5.682,8.322-5.682,13.587v167
				c0,5.273,1.892,9.805,5.682,13.588C3691.748,1233.571,3696.279,1235.463,3701.553,1235.463z"/>
			<path fill="#343434" d="M4217.37,989.41c16.799,0,31.042,5.852,42.738,17.541c11.688,11.695,17.54,25.776,17.54,42.243v226.784
				H4045.43c-16.475,0-30.557-5.844-42.244-17.54c-11.696-11.688-17.54-25.77-17.54-42.244v-103.757h250.994v-63.243
				c0-5.265-1.899-9.796-5.683-13.587c-3.79-3.783-8.322-5.682-13.587-5.682h-231.725V989.41H4217.37z M4236.64,1235.463v-82.512
				H4026.16v63.242c0,5.273,1.892,9.805,5.682,13.588c3.783,3.79,8.314,5.682,13.588,5.682H4236.64z"/>
			<path fill="#343434" d="M4493.555,1029.925H4369.54v186.269c0,5.273,1.892,9.805,5.682,13.588
				c3.783,3.79,8.314,5.682,13.588,5.682h104.745v40.515H4388.81c-16.799,0-30.966-5.844-42.491-17.54
				c-11.534-11.688-17.293-25.77-17.293-42.244V895.534h40.515v93.875h124.015V1029.925z"/>
			<path fill="#343434" d="M4531.1,895.534h40.515v40.515H4531.1V895.534z M4531.1,1275.978V989.41h40.515v286.568H4531.1z"/>
			<path fill="#343434" d="M4693.155,989.41h171.94c16.799,0,31.042,5.852,42.738,17.541c11.688,11.695,17.54,25.776,17.54,42.243
				v167c0,16.475-5.853,30.556-17.54,42.244c-11.696,11.696-25.939,17.54-42.738,17.54h-171.94c-16.475,0-30.557-5.844-42.244-17.54
				c-11.696-11.688-17.54-25.77-17.54-42.244v-167c0-16.467,5.844-30.548,17.54-42.243
				C4662.599,995.262,4676.681,989.41,4693.155,989.41z M4865.096,1029.925h-171.94c-5.273,0-9.805,1.898-13.588,5.682
				c-3.79,3.791-5.682,8.322-5.682,13.587v167c0,5.273,1.892,9.805,5.682,13.588c3.783,3.79,8.314,5.682,13.588,5.682h171.94
				c5.265,0,9.797-1.892,13.587-5.682c3.783-3.783,5.683-8.314,5.683-13.588v-167c0-5.265-1.899-9.796-5.683-13.587
				C4874.893,1031.823,4870.36,1029.925,4865.096,1029.925z"/>
			<path fill="#343434" d="M5208.971,989.41c16.467,0,30.548,5.852,42.244,17.541c11.688,11.695,17.539,25.776,17.539,42.243
				v226.784h-40.515v-226.784c0-5.265-1.898-9.796-5.682-13.587c-3.79-3.783-8.322-5.682-13.587-5.682h-171.941
				c-5.272,0-9.881,1.898-13.834,5.682c-3.952,3.791-5.929,8.322-5.929,13.587v226.784h-40.515V989.41H5208.971z"/>
			<path fill="#343434" d="M5609.671,1049.193v3.953h-41.009v-3.953c0-5.265-1.899-9.796-5.683-13.587
				c-3.79-3.783-8.321-5.682-13.587-5.682h-171.94c-5.272,0-9.805,1.898-13.587,5.682c-3.791,3.791-5.683,8.322-5.683,13.587v43.974
				c0,5.272,1.892,9.805,5.683,13.587c3.782,3.791,8.314,5.683,13.587,5.683h171.94c16.799,0,31.042,5.852,42.738,17.54
				c11.688,11.695,17.54,25.776,17.54,42.244v43.973c0,16.475-5.852,30.556-17.54,42.244c-11.696,11.696-25.939,17.54-42.738,17.54
				h-171.94c-16.475,0-30.556-5.844-42.244-17.54c-11.696-11.688-17.54-25.77-17.54-42.244v-3.952h40.515v3.952
				c0,5.273,1.892,9.805,5.683,13.588c3.782,3.79,8.314,5.682,13.587,5.682h171.94c5.266,0,9.797-1.892,13.587-5.682
				c3.783-3.783,5.683-8.314,5.683-13.588v-43.973c0-5.266-1.899-9.797-5.683-13.588c-3.79-3.782-8.321-5.682-13.587-5.682h-171.94
				c-16.475,0-30.556-5.844-42.244-17.54c-11.696-11.688-17.54-25.77-17.54-42.244v-43.974c0-16.467,5.844-30.548,17.54-42.243
				c11.688-11.688,25.77-17.541,42.244-17.541h171.94c16.799,0,31.042,5.852,42.738,17.541
				C5603.819,1018.646,5609.671,1032.727,5609.671,1049.193z"/>
		</g>
	</g>
	<line fill="#C71585" stroke="#C71585" stroke-width="10" x1="2338.971" y1="1441.168" x2="5684.579" y2="1445.803"/>
</g>
<g id="Layer_2">
	<g>
		<g>
			<linearGradient id="SVGID_27_" gradientUnits="userSpaceOnUse" x1="315.7988" y1="1049.667" x2="2115.9907" y2="1049.667">
				<stop  offset="0" style="stop-color:#90278E"/>
				<stop  offset="0.272" style="stop-color:#93278E"/>
				<stop  offset="0.4522" style="stop-color:#9C288F"/>
				<stop  offset="0.6058" style="stop-color:#AB2A91"/>
				<stop  offset="0.7444" style="stop-color:#C02C93"/>
				<stop  offset="0.8722" style="stop-color:#DB2F95"/>
				<stop  offset="0.9918" style="stop-color:#FC3399"/>
				<stop  offset="1" style="stop-color:#FF3399"/>
			</linearGradient>
			<path fill="url(#SVGID_27_)" d="M2115.71,1863.091L2096.5,407.434l-18.897,1433.153l-38.257,8.653
				c-17.861,2.736-35.667,5.979-53.512,8.321l-26.827,2.499c-8.926,0.8-17.853,1.859-26.799,1.859
				c-17.916,0.411-35.781,1.526-53.669,0.427c-8.955-0.332-17.881-0.482-26.788-0.988l-26.783-2.452l-13.376-1.289l-13.345-1.915
				l-26.696-3.946c-17.75-3.521-35.484-6.519-53.227-10.964c-17.711-3.892-35.438-8.827-53.16-13.479l-53.429-15.401l-26.958-7.83
				c-9.018-2.61-18.011-5.253-27.199-7.673c-18.197-5.063-36.786-9.548-55.588-13.424l-14.258-2.547l-7.123-1.289l-3.583-0.594
				l-4.311-0.506l-13.681-1.448l-6.842-0.728c-2.27-0.261-4.517-0.521-7.123-0.538l-15.116-0.427
				c-5-0.079-10.153-0.467-14.986-0.056l-14.677,0.704l-7.344,0.396l-7.325,0.91l-14.681,1.803
				c-4.904,0.578-9.753,1.788-14.642,2.666c-9.318,1.582-18.541,4.129-27.768,6.629c12.241-7.372,24.687-14.001,37.217-20.297
				c7.744-3.497,15.555-7.483,23.287-10.402l11.608-4.754l12.221-4.185l6.126-2.144l1.526-0.521l1.203-0.316l2.986-0.799
				l11.897-3.181c3.935-1.233,8.013-1.661,12.027-2.476c4.03-0.728,8.041-1.566,12.079-2.184
				c16.228-2.009,32.582-3.346,49.055-3.108l12.363,0.079l12.387,0.609c8.25,0.229,16.552,1.139,24.826,1.756
				c8.286,0.72,16.607,1.788,24.901,2.643l24.964,3.203l50.197,6.938c16.777,2.294,33.662,4.303,50.601,5.845
				c8.452,0.878,17.109,1.266,25.652,1.898c4.248,0.229,8.416,0.262,12.616,0.396l6.3,0.183l3.164,0.095
				c1.376,0.056,2.254-0.056,3.397-0.071c17.351-0.356,34.619-1.812,51.625-5.102l12.759-2.382l12.64-3.093
				c8.472-1.882,16.793-4.524,25.142-7c8.369-2.381,16.579-5.585,24.873-8.337c8.211-3.133,16.437-6.186,24.573-9.571
				c16.307-6.724,32.431-14.207,48.402-22.172c16.002-8.101,31.676-16.604,47.492-26.364l5.529-3.425l-0.028-8.377l-6.217-1484.007
				l-0.04-5.885l-4.133,1.74l-32.586,13.692c-5.454,2.144-10.809,4.805-16.354,6.545l-16.543,5.62l-16.54,5.632l-8.274,2.813
				c-2.773,0.894-5.577,1.554-8.349,2.345l-33.464,9.104c-5.576,1.645-11.216,2.725-16.82,3.935l-16.856,3.611l-16.876,3.623
				c-5.632,1.127-11.28,1.898-16.932,2.875c-11.3,1.799-22.591,3.828-33.93,5.438l-34.009,4.105
				c-5.652,0.744-11.339,1.274-17.034,1.685l-17.035,1.396l-17.062,1.385l-17.062,0.803c-11.382,0.482-22.757,1.273-34.152,1.301
				c-11.386,0.103-22.777,0.558-34.179,0.384c-11.375-0.198-22.777-0.103-34.164-0.522c-11.382-0.482-22.777-0.641-34.151-1.436
				l-17.09-1.004l-17.05-1.349c-11.367-0.957-22.75-2.084-34.088-3.536c11.327,1.629,22.694,2.938,34.057,4.094l17.062,1.609
				l17.054,1.266c11.383,0.989,22.777,1.325,34.171,1.993c11.395,0.605,22.805,0.688,34.199,1.072
				c11.391,0.352,22.805,0.083,34.188,0.146c11.422,0.158,22.824-0.447,34.207-0.744l17.109-0.538l17.089-1.12l17.082-1.127
				c5.695-0.305,11.395-0.751,17.082-1.404l34.112-3.575c11.375-1.432,22.722-3.274,34.061-4.896
				c5.667-0.902,11.363-1.59,17.006-2.623l16.959-3.361l16.947-3.342c5.651-1.143,11.319-2.14,16.916-3.694l33.685-8.61
				c2.812-0.755,5.632-1.36,8.416-2.234l8.337-2.689l16.702-5.391l16.698-5.391c5.584-1.646,10.991-4.26,16.504-6.348l28.761-11.568
				l-6.17,1469.567c-13.305,7.72-27.06,14.942-40.78,21.649c-15.701,7.555-31.525,14.634-47.48,20.906
				c-7.969,3.181-16.002,6.028-24.015,8.954c-8.072,2.548-16.077,5.529-24.193,7.665c-8.1,2.278-16.18,4.715-24.332,6.392
				l-12.205,2.792l-12.241,2.081c-16.327,2.902-32.672,3.971-48.932,4.081c-0.961,0-2.187,0.087-2.903,0.032l-3.156-0.167
				l-6.304-0.261c-4.196-0.205-8.432-0.332-12.573-0.609c-8.238-0.767-16.374-1.21-24.695-2.198
				c-16.58-1.827-33.167-4.042-49.845-6.613l-50.098-7.72l-25.198-3.654c-8.46-1.005-16.864-2.215-25.363-3.069
				c-8.479-0.799-16.939-1.827-25.494-2.255l-12.791-0.799l-12.874-0.301c-17.145-0.498-34.405,0.602-51.661,2.5
				c-4.319,0.577-8.618,1.393-12.937,2.08c-4.311,0.823-8.63,1.234-12.921,2.476l-12.881,3.243l-3.224,0.8l-0.799,0.205
				l-0.399,0.095l-0.66,0.183l-1.547,0.546l-6.134,1.985l-12.261,4.042l-12.621,4.88c-8.507,3.109-16.52,7.056-24.771,10.632
				c-16.231,7.87-32.352,16.191-48.018,25.913c-15.713,9.563-31.166,19.878-46.282,31.157l-11.292,8.622l-11.141,8.994
				c-3.781,3.108-7.467,6.201-11.153,9.437l-17.62-3.757l-9.01,3.757c-3.694-3.235-7.38-6.328-11.161-9.437l-11.149-8.994
				l-11.292-8.622c-15.116-11.279-30.569-21.594-46.282-31.157c-15.666-9.722-31.786-18.043-48.03-25.913
				c-8.226-3.576-16.243-7.522-24.758-10.632l-12.625-4.88l-12.269-4.042l-6.123-1.985l-1.538-0.546l-0.669-0.183l-0.399-0.095
				l-0.811-0.205l-3.22-0.8l-12.873-3.243c-4.292-1.241-8.622-1.652-12.913-2.476c-4.308-0.688-8.626-1.503-12.938-2.08
				c-17.268-1.898-34.523-2.998-51.68-2.5l-12.842,0.301l-12.811,0.799c-8.542,0.428-17.006,1.456-25.494,2.255
				c-8.492,0.854-16.904,2.064-25.368,3.069l-25.205,3.654l-50.106,7.72c-16.65,2.571-33.25,4.786-49.825,6.613
				c-8.321,0.988-16.457,1.432-24.703,2.198c-4.133,0.277-8.381,0.404-12.558,0.609l-6.312,0.261l-3.156,0.167
				c-0.716,0.055-1.946-0.032-2.883-0.032c-16.271-0.11-32.637-1.179-48.936-4.081l-12.249-2.081l-12.206-2.792
				c-8.143-1.677-16.224-4.113-24.339-6.392c-8.108-2.136-16.121-5.117-24.201-7.665c-8.005-2.926-16.037-5.773-24.015-8.954
				c-15.947-6.272-31.771-13.352-47.464-20.906c-13.728-6.707-27.496-13.93-40.789-21.649l-6.17-1469.567l28.753,11.568
				c5.517,2.088,10.936,4.703,16.532,6.348l16.687,5.391l16.702,5.391l8.329,2.689c2.784,0.874,5.612,1.479,8.417,2.234l33.693,8.61
				c5.597,1.554,11.256,2.551,16.924,3.694l16.939,3.342l16.951,3.361c5.651,1.032,11.347,1.721,17.006,2.623
				c11.347,1.622,22.674,3.464,34.049,4.896l34.124,3.575c5.688,0.653,11.375,1.1,17.074,1.404l17.098,1.127l17.082,1.12
				l17.105,0.538c11.395,0.297,22.797,0.902,34.199,0.744c11.395-0.063,22.816,0.206,34.207-0.146
				c11.395-0.384,22.797-0.467,34.191-1.072c11.382-0.668,22.785-1.004,34.171-1.993l17.07-1.266l17.042-1.609
				c11.367-1.155,22.722-2.464,34.061-4.094c-11.339,1.452-22.702,2.579-34.076,3.536l-17.062,1.349l-17.082,1.004
				c-11.375,0.795-22.77,0.953-34.152,1.436c-11.387,0.419-22.797,0.324-34.171,0.522c-11.395,0.174-22.797-0.281-34.172-0.384
				c-11.402-0.027-22.777-0.818-34.151-1.301l-17.07-0.803l-17.062-1.385l-17.042-1.396c-5.699-0.411-11.359-0.941-17.026-1.685
				l-34.021-4.105c-11.327-1.61-22.619-3.639-33.911-5.438c-5.64-0.977-11.319-1.748-16.931-2.875l-16.876-3.623l-16.848-3.611
				c-5.632-1.21-11.26-2.29-16.821-3.935l-33.459-9.104c-2.776-0.791-5.597-1.452-8.361-2.345l-8.282-2.813l-16.552-5.632
				l-16.54-5.62c-5.541-1.74-10.9-4.402-16.338-6.545l-32.597-13.692l-4.141-1.74l-0.008,5.885l-6.237,1484.007l-0.04,8.377
				l5.549,3.425c15.816,9.761,31.482,18.264,47.48,26.364c15.982,7.965,32.095,15.448,48.413,22.172
				c8.128,3.386,16.354,6.438,24.573,9.571c8.293,2.752,16.497,5.956,24.865,8.337c8.349,2.476,16.678,5.118,25.138,7l12.652,3.093
				l12.751,2.382c17.015,3.29,34.282,4.745,51.625,5.102c1.143,0.016,2.017,0.127,3.405,0.071l3.148-0.095l6.308-0.183l12.633-0.396
				c8.515-0.633,17.185-1.021,25.645-1.898c16.931-1.542,33.827-3.551,50.601-5.845l50.189-6.938l24.972-3.203
				c8.294-0.854,16.607-1.923,24.901-2.643c8.266-0.617,16.58-1.526,24.826-1.756l12.387-0.609l12.372-0.079
				c16.465-0.237,32.811,1.1,49.046,3.108c4.03,0.617,8.041,1.456,12.071,2.184c4.014,0.814,8.088,1.242,12.035,2.476l11.889,3.181
				l2.978,0.799l1.23,0.316l1.526,0.521l6.103,2.144l12.233,4.185l11.616,4.754c7.716,2.919,15.516,6.905,23.271,10.402
				c12.53,6.296,24.984,12.925,37.225,20.297c-9.235-2.5-18.47-5.047-27.776-6.629c-4.877-0.878-9.737-2.088-14.626-2.666
				l-14.677-1.803l-7.337-0.91l-7.353-0.396l-14.677-0.704c-4.813-0.411-9.999-0.023-14.99,0.056l-15.104,0.427
				c-2.606,0.017-4.869,0.277-7.131,0.538l-6.843,0.728l-13.672,1.448l-4.331,0.506l-3.556,0.594l-7.139,1.289l-14.258,2.547
				c-18.807,3.876-37.375,8.361-55.58,13.424c-9.2,2.42-18.189,5.063-27.211,7.673l-26.953,7.83l-53.421,15.401
				c-17.715,4.651-35.457,9.587-53.18,13.479c-17.722,4.445-35.464,7.443-53.223,10.964l-26.677,3.946l-13.348,1.915l-13.376,1.289
				l-26.764,2.452c-8.935,0.506-17.861,0.656-26.808,0.988c-17.881,1.1-35.761-0.016-53.65-0.427c-8.974,0-17.9-1.06-26.819-1.859
				l-26.835-2.499c-17.845-2.342-35.65-5.585-53.516-8.321l-38.253-8.653L335.273,407.434l-19.178,1455.657l-0.297,21.595
				l15.563,4.303l54.741,15.267c18.45,3.78,36.853,8.021,55.347,11.39l27.887,4.026c9.299,1.298,18.581,2.864,27.927,3.347
				c18.672,1.376,37.352,3.425,56.082,3.243c9.362,0.126,18.72,0.427,28.081,0.348l28.085-1.147l14.028-0.601l13.997-1.337
				c9.337-0.934,18.683-1.717,27.989-2.737c18.561-2.721,37.225-4.936,55.636-8.598c18.541-3.116,36.806-7.262,55.161-11.138
				l54.445-12.861l26.958-6.439c8.942-2.144,17.928-4.326,26.76-6.161c17.797-4.026,35.39-7.356,52.863-10.078l13.012-1.653
				l6.526-0.822l3.211-0.427l0.854-0.04l1.705-0.087l13.728-0.768l6.862-0.411c2.29-0.143,4.615-0.276,6.581-0.143l12.332,0.372
				c4.152,0.166,8.135-0.023,12.446,0.554l12.731,1.289l6.359,0.649l6.313,1.075l12.62,2.238c4.196,0.673,8.33,1.97,12.502,2.919
				c8.365,1.788,16.548,4.58,24.751,7.206c16.287,5.751,32.296,12.664,47.674,21.207l11.358,6.755
				c3.659,2.421,7.416,4.771,11.003,7.277c3.563,2.595,7.155,5.103,10.497,7.823c1.74,1.306,3.314,2.682,4.888,4.019
				c0.811,0.656,1.59,1.345,2.235,1.938l1.012,0.934c0.392,0.332,0.344,0.332,0.439,0.403l-0.027,0.063h73.86l-0.02-0.063
				c0.075-0.071,0.04-0.071,0.427-0.403l1.016-0.934c0.653-0.593,1.424-1.281,2.243-1.938c1.574-1.337,3.148-2.713,4.888-4.019
				c3.342-2.721,6.933-5.229,10.489-7.823c3.603-2.507,7.345-4.856,11.003-7.277l11.367-6.755
				c15.357-8.543,31.387-15.456,47.686-21.207c8.183-2.626,16.374-5.418,24.739-7.206c4.172-0.949,8.286-2.246,12.494-2.919
				l12.621-2.238l6.32-1.075l6.36-0.649l12.723-1.289c4.319-0.577,8.313-0.388,12.446-0.554l12.352-0.372
				c1.962-0.134,4.271,0,6.582,0.143l6.838,0.411l13.732,0.768l1.712,0.087l0.858,0.04h0.063l3.144,0.427l6.518,0.822l13.012,1.653
				c17.474,2.722,35.065,6.052,52.863,10.078c8.851,1.835,17.813,4.018,26.768,6.161l26.958,6.439l54.437,12.861
				c18.343,3.876,36.616,8.021,55.161,11.138c18.399,3.662,37.075,5.877,55.631,8.598c9.311,1.021,18.676,1.804,28.002,2.737
				l14,1.337l14.037,0.601l28.061,1.147c9.365,0.079,18.747-0.222,28.092-0.348c18.731,0.182,37.411-1.867,56.066-3.243
				c9.346-0.482,18.652-2.049,27.942-3.347l27.867-4.026c18.506-3.369,36.917-7.609,55.339-11.39l54.761-15.267l15.571-4.303
				L2115.71,1863.091z"/>
		</g>
	</g>
</g>
</svg>
