<?xml version="1.0" encoding="utf-8"?>
<!-- Generator: Adobe Illustrator 16.0.0, SVG Export Plug-In . SVG Version: 6.00 Build 0)  -->
<!DOCTYPE svg PUBLIC "-//W3C//DTD SVG 1.1//EN" "http://www.w3.org/Graphics/SVG/1.1/DTD/svg11.dtd">
<svg version="1.1" id="形状_2_1_" xmlns="http://www.w3.org/2000/svg" xmlns:xlink="http://www.w3.org/1999/xlink" x="0px"
	 y="0px" width="20px" height="20px" viewBox="0 0 20 20" enable-background="new 0 0 20 20" xml:space="preserve">
<g id="形状_2">
	<g>
		<path fill="#FCFCFC" d="M16.087,6.227c-0.447,0.197-0.93,0.332-1.434,0.393c0.515-0.309,0.91-0.799,1.098-1.383
			c-0.482,0.287-1.018,0.494-1.587,0.606c-0.455-0.485-1.104-0.789-1.822-0.789c-1.38,0-2.498,1.118-2.498,2.497
			c0,0.196,0.022,0.387,0.065,0.569C7.833,8.016,5.992,7.022,4.761,5.511C4.546,5.88,4.423,6.309,4.423,6.768
			c0,0.865,0.441,1.631,1.111,2.078c-0.41-0.013-0.795-0.125-1.131-0.313c0,0.011,0,0.021,0,0.031c0,1.209,0.859,2.22,2.002,2.449
			c-0.209,0.057-0.43,0.088-0.657,0.088c-0.161,0-0.317-0.018-0.47-0.045c0.318,0.992,1.24,1.713,2.332,1.734
			c-0.854,0.67-1.932,1.068-3.102,1.068c-0.201,0-0.4-0.012-0.596-0.035c1.105,0.709,2.418,1.121,3.828,1.121
			c4.594,0,7.105-3.805,7.105-7.105c0-0.107-0.002-0.216-0.007-0.322C15.329,7.167,15.752,6.727,16.087,6.227z"/>
	</g>
</g>
</svg>
