<?xml version="1.0" encoding="utf-8"?>
<!-- Generator: Adobe Illustrator 13.0.0, SVG Export Plug-In . SVG Version: 6.00 Build 14948)  -->
<!DOCTYPE svg PUBLIC "-//W3C//DTD SVG 1.1//EN" "http://www.w3.org/Graphics/SVG/1.1/DTD/svg11.dtd">
<svg version="1.1" id="Layer_1" xmlns="http://www.w3.org/2000/svg" xmlns:xlink="http://www.w3.org/1999/xlink" x="0px" y="0px"
	 width="736.715px" height="297.345px" viewBox="0 0 736.715 297.345" enable-background="new 0 0 736.715 297.345"
	 xml:space="preserve">
<g>
	<path fill="#FFFFFF" stroke="#AFAFAF" d="M509.235,60.237c0.084-0.212,0.169-0.425,0.248-0.638
		c9.938-25.004,12.835-58.979,12.835-58.979s-33.423,6.754-57.132,19.48c-0.199,0.104-0.399,0.212-0.6,0.32L509.235,60.237z"/>
	<path fill="#FFFFFF" stroke="#AFAFAF" d="M468.504,60.97c-7.922-7.065-20.109-6.368-27.178,1.556
		c-7.061,7.925-6.364,20.111,1.558,27.176c7.923,7.068,20.116,6.371,27.181-1.559C477.126,80.225,476.427,68.034,468.504,60.97"/>
	<path fill="#AFAFAF" stroke="#FFFFFF" d="M506.567,66.702c-0.587-0.527-1.182-1.059-1.773-1.583l-4.731-4.221
		c-2.265-2.021-4.529-4.043-6.802-6.066c-2.661-2.371-5.321-4.741-7.982-7.116c-2.756-2.459-5.52-4.919-8.276-7.382
		c-2.562-2.282-5.123-4.564-7.684-6.852c-2.07-1.846-4.141-3.688-6.204-5.533c-1.283-1.141-2.562-2.283-3.84-3.42
		c-0.16-0.146-0.324-0.293-0.484-0.432c-0.072-0.066-0.176-0.205-0.27-0.239c-0.204-0.081-0.503,0.207-0.699,0.322
		c-0.658,0.376-1.321,0.763-1.979,1.146c-2.854,1.677-5.665,3.415-8.436,5.222c-3.139,2.05-6.223,4.186-9.239,6.412
		c-3.349,2.467-6.609,5.043-9.787,7.725c-3.473,2.942-6.839,6.003-10.085,9.188c-3.523,3.459-6.908,7.059-10.146,10.785
		c-3.485,4.018-6.8,8.184-9.938,12.477c-3.39,4.654-6.574,9.457-9.549,14.393c-3.21,5.332-6.175,10.811-8.894,16.413
		c-2.946,6.06-5.604,12.26-7.998,18.568c-1.271,3.347-2.465,6.726-3.59,10.134c-0.283,0.868-0.565,1.737-0.843,2.608
		c-0.074,0.238-0.149,0.474-0.224,0.711c-0.037,0.121-0.221,0.461-0.18,0.571c0.007,0.013,0.036,0.021,0.043,0.038
		c0.04,0.084,0.204,0.182,0.273,0.242c0.17,0.149,0.335,0.296,0.501,0.445c2.465,2.198,4.929,4.396,7.392,6.595
		c0.595,0.527,1.185,1.055,1.775,1.582c5.399-6.751,10.811-13.493,16.423-20.066c1.774-2.077,3.559-4.147,5.458-6.117
		c1.686-1.741,3.34-3.545,5.497-4.721c3.384-1.844,7.428-1.836,10.64,0.38c3.214,2.218,5.022,5.944,4.416,9.845
		c-0.271,1.731-0.973,3.381-1.916,4.855c-0.606,0.959-1.364,1.772-2.048,2.673c-1.444,1.891-3.068,3.662-4.674,5.415
		c-5.563,6.087-11.356,11.96-17.159,17.816c-0.83,0.841-1.665,1.684-2.501,2.524c2.343,2.09,4.69,4.182,7.036,6.275
		c0.641,0.565,1.276,1.14,1.917,1.709c0.218,0.192,0.438,0.389,0.654,0.583c0.097,0.081,0.229,0.259,0.344,0.308
		c0.021,0.004,0.028,0.032,0.048,0.043c0.123,0.033,0.563-0.25,0.685-0.306c0.271-0.122,0.544-0.243,0.819-0.365
		c0.943-0.425,1.881-0.855,2.819-1.293c1.89-0.875,3.766-1.778,5.633-2.702c7.032-3.492,13.888-7.323,20.521-11.523
		c6.051-3.83,11.907-7.96,17.528-12.392c5.138-4.053,10.078-8.363,14.78-12.912c4.305-4.17,8.411-8.541,12.297-13.1
		c3.544-4.162,6.902-8.48,10.065-12.94c2.854-4.027,5.543-8.164,8.068-12.403c2.254-3.787,4.379-7.646,6.366-11.571
		c1.737-3.428,3.378-6.904,4.922-10.422C505.899,68.248,506.234,67.477,506.567,66.702 M438.966,94.094
		c-3.883-3.467-6.627-8.11-7.77-13.189c-1.113-4.92-0.725-10.139,1.132-14.832c1.938-4.9,5.446-9.133,9.89-11.955
		c4.284-2.721,9.376-4.078,14.447-3.889c5.144,0.197,10.168,1.99,14.26,5.113c4.157,3.169,7.263,7.612,8.789,12.615
		c1.473,4.814,1.466,10.044-0.023,14.857c-1.565,5.039-4.745,9.522-8.976,12.675c-4.072,3.035-9.049,4.771-14.126,4.952
		c-5.123,0.185-10.256-1.217-14.564-4.009C440.949,95.732,439.924,94.951,438.966,94.094"/>
	<path fill="#FFFFFF" stroke="#AFAFAF" d="M377.806,96.674c-1.063,1.846-2.062,3.73-3.041,5.617
		c-2.34,4.513-4.525,9.107-6.512,13.783c-1.204,2.843-2.338,5.71-3.372,8.616c-0.259,0.73-0.511,1.458-0.752,2.189
		c-0.123,0.356-0.241,0.713-0.356,1.067c-0.112,0.344-0.17,0.824-0.356,1.132c-0.136,0.218,0.021,0.076-0.136,0.132
		c-0.207,0.072-0.517,0.041-0.732,0.064c-0.479,0.053-0.954,0.117-1.43,0.194c-1.58,0.258-3.15,0.623-4.698,1.058
		c-2.333,0.656-4.612,1.479-6.845,2.421c-2.941,1.246-5.787,2.713-8.531,4.346c-3.412,2.029-6.664,4.313-9.756,6.797
		c-3.753,3.012-7.271,6.313-10.571,9.816c-3.972,4.219-7.624,8.732-10.997,13.441c-0.911,1.273-1.802,2.561-2.674,3.858
		c-0.053-0.629-0.048-1.259-0.034-1.885c0.041-1.763,0.228-3.523,0.503-5.263c0.436-2.756,1.105-5.475,1.945-8.13
		c1.146-3.634,2.612-7.16,4.325-10.561c2.165-4.317,4.723-8.433,7.557-12.344c3.536-4.88,7.506-9.446,11.76-13.718
		c2.268-2.275,4.613-4.492,7.02-6.629c2.25-1.995,4.641-3.835,7.116-5.545c3.714-2.561,7.656-4.814,11.807-6.591
		c4.722-2.019,9.739-3.432,14.87-3.795C375.211,96.656,376.508,96.631,377.806,96.674"/>
	<path fill="#FFFFFF" stroke="#AFAFAF" d="M443.382,155.151c-1.708,1.27-3.467,2.474-5.233,3.664
		c-4.214,2.839-8.528,5.53-12.946,8.038c-2.688,1.521-5.406,2.978-8.177,4.337c-0.693,0.341-1.388,0.674-2.087,0.998
		c-0.338,0.16-0.679,0.316-1.019,0.475c-0.333,0.147-0.801,0.262-1.086,0.484c-0.201,0.158-0.081-0.011-0.115,0.147
		c-0.048,0.215,0.017,0.519,0.023,0.738c0,0.479-0.013,0.958-0.032,1.435c-0.073,1.61-0.256,3.209-0.517,4.795
		c-0.384,2.389-0.939,4.749-1.626,7.073c-0.901,3.064-2.028,6.06-3.337,8.971c-1.63,3.621-3.529,7.115-5.643,10.471
		c-2.565,4.072-5.444,7.945-8.543,11.625c-3.742,4.425-7.808,8.569-12.1,12.456c-1.163,1.05-2.339,2.081-3.528,3.099
		c0.626-0.02,1.257-0.098,1.876-0.181c1.746-0.246,3.473-0.632,5.17-1.104c2.688-0.747,5.312-1.719,7.856-2.858
		c3.477-1.554,6.814-3.413,9.999-5.498c4.038-2.652,7.837-5.662,11.398-8.919c4.446-4.074,8.528-8.539,12.285-13.252
		c2.006-2.514,3.934-5.097,5.782-7.73c1.727-2.465,3.284-5.047,4.697-7.706c2.119-3.98,3.907-8.155,5.203-12.483
		c1.467-4.914,2.299-10.062,2.074-15.203C443.702,157.727,443.577,156.434,443.382,155.151"/>
</g>
<path fill="#FFFFFF" stroke="#AFAFAF" d="M367.869,152.869"/>
<polygon fill="#FFFFFF" stroke="#AFAFAF" points="373.749,154.253 276.566,236.563 284.348,244.345 "/>
<polygon fill="#FFFFFF" stroke="#AFAFAF" points="377.558,157.298 291.167,250.869 299.842,257.64 "/>
<polygon fill="#FFFFFF" stroke="#AFAFAF" points="381.56,160.277 307.643,263.982 317.1,269.61 "/>
<path fill="#606060" d="M298.416,283.611"/>
<path fill="#AFAFAF" d="M202.434,197.888c0,0,100.729-46.333,79.807,63.237C282.241,261.125,280.092,197.888,202.434,197.888z"/>
<path fill="#AFAFAF" d="M636.927,251.323c0,0,29.496-106.88,99.788-20.262C736.715,231.062,686.98,191.944,636.927,251.323z"/>
<path fill="#AFAFAF" d="M0,81.586c0,0,92.923-60.486,88.152,50.961C88.152,132.547,76.834,70.294,0,81.586z"/>
<path fill="#AFAFAF" d="M423.143,285.891c0,0,37.518-68.209,71.451,2.38C494.594,288.271,465.496,235.193,423.143,285.891z"/>
<path fill="#AFAFAF" d="M260.893,264.714c0,0,65.78-51.109,69.192,32.631C330.084,297.345,316.969,244.577,260.893,264.714z"/>
<path fill="#AFAFAF" d="M144.243,127.284c0,0,59-36.168,48.257,31.499C192.5,158.783,189.057,114.252,144.243,127.284z"/>
<path fill="#AFAFAF" d="M511.425,263.192c0,0,6.522-68.895,54.17-19.659C565.595,243.533,527.925,219.536,511.425,263.192z"/>
<path fill="#AFAFAF" d="M391.978,271.089c0,0,24.348-40.74,43.481,3.008C435.459,274.097,417.583,248.799,391.978,271.089z"/>
<path fill="#AFAFAF" d="M190.419,137.972c0,0,73.432-20.275,47.118,51.708C237.537,189.68,244.848,140.497,190.419,137.972z"/>
<path fill="#AFAFAF" d="M78.872,84.936c0,0,39.8-25.859,37.715,21.845C116.586,106.78,111.675,76.197,78.872,84.936z"/>
<path fill="#AFAFAF" d="M325.386,280.726c0,0,43.524-71.026,76.254,6.13C401.64,286.855,369.278,255.447,325.386,280.726z"/>
<path fill="#AFAFAF" d="M549.695,257.114c0,0,43.524-71.026,76.253,6.128C625.948,263.242,593.586,231.836,549.695,257.114z"/>
<path fill="#AFAFAF" d="M105.719,105.006c0,0,51.754-13.708,32.734,36.685C138.453,141.69,137.344,112.729,105.719,105.006z"/>
<path fill="#AFAFAF" d="M469.145,262.159c0,0,7.788-52.968,46.614-15.631C515.759,246.528,488.702,236.136,469.145,262.159z"/>
<path fill="#AFAFAF" d="M611.358,239.63c0,0,6.006-40.841,35.941-12.052C647.299,227.578,626.437,219.565,611.358,239.63z"/>
</svg>
