<?xml version="1.0" encoding="utf-8"?>
<!-- Generator: Adobe Illustrator 13.0.0, SVG Export Plug-In . SVG Version: 6.00 Build 14948)  -->
<!DOCTYPE svg PUBLIC "-//W3C//DTD SVG 1.1//EN" "http://www.w3.org/Graphics/SVG/1.1/DTD/svg11.dtd">
<svg version="1.1" id="Layer_1" xmlns="http://www.w3.org/2000/svg" xmlns:xlink="http://www.w3.org/1999/xlink" x="0px" y="0px"
	 width="280.802px" height="313.751px" viewBox="0 0 280.802 313.751" enable-background="new 0 0 280.802 313.751"
	 xml:space="preserve">
<g>
	<path fill="none" stroke="#717171" stroke-width="2" d="M264.182,80.134c0.106-0.282,0.211-0.562,0.313-0.839
		c12.374-33.211,15.224-78.027,15.224-78.027s-43.815,9.84-74.676,27.268c-0.257,0.146-0.518,0.293-0.78,0.441L264.182,80.134z"/>
	<path fill="#388697" stroke="#717171" stroke-width="2" d="M210.575,82.253c-10.631-9.077-26.665-7.812-35.742,2.819
		c-9.077,10.633-7.813,26.666,2.819,35.743c10.632,9.077,26.666,7.812,35.743-2.819C222.471,107.365,221.208,91.331,210.575,82.253"
		/>
	<path fill="#388697" stroke="#717171" stroke-width="2" d="M137.597,178.051c0,0,6.605-6.697,1.01-11.491v-0.001
		c-0.002-0.001-0.004-0.003-0.007-0.004c-0.001-0.002-0.003-0.004-0.004-0.005l0,0c-5.613-4.775-11.192,2.798-11.192,2.798
		c-10.274,9.141-79.093,102.948-79.093,102.948l45.147-52.869l-45.136,52.878C48.323,272.305,130.181,189.63,137.597,178.051"/>
	<path fill="#ED6A5A" stroke="#717171" stroke-width="2" d="M260.856,88.722c-0.793-0.678-1.587-1.355-2.381-2.033l-6.35-5.421
		c-3.042-2.597-6.085-5.195-9.127-7.792c-3.57-3.049-7.142-6.098-10.713-9.147c-3.703-3.162-7.406-6.323-11.109-9.485
		c-3.438-2.935-6.875-5.87-10.313-8.805c-2.775-2.37-5.552-4.74-8.327-7.11c-1.717-1.465-3.435-2.932-5.151-4.397
		c-0.215-0.185-0.432-0.369-0.647-0.553c-0.098-0.083-0.24-0.264-0.36-0.308c-0.269-0.098-0.656,0.289-0.911,0.443
		c-0.86,0.52-1.718,1.043-2.574,1.57c-3.706,2.287-7.363,4.655-10.959,7.112c-4.078,2.787-8.078,5.688-11.989,8.705
		c-4.334,3.344-8.56,6.83-12.664,10.455c-4.489,3.965-8.833,8.095-13.019,12.381c-4.543,4.652-8.899,9.486-13.055,14.486
		c-4.478,5.386-8.723,10.963-12.729,16.709c-4.338,6.223-8.396,12.641-12.169,19.221c-4.078,7.112-7.824,14.412-11.247,21.86
		c-3.708,8.069-7.036,16.31-10.005,24.677c-1.579,4.45-3.057,8.936-4.437,13.451c-0.352,1.15-0.698,2.304-1.037,3.458
		c-0.093,0.314-0.184,0.629-0.276,0.943c-0.046,0.16-0.279,0.614-0.219,0.757c0.009,0.02,0.045,0.027,0.055,0.046
		c0.056,0.112,0.274,0.234,0.368,0.314c0.223,0.19,0.446,0.381,0.669,0.571c3.309,2.825,6.618,5.65,9.927,8.476
		c0.793,0.677,1.587,1.355,2.381,2.033c6.911-9.044,13.85-18.076,21.056-26.889c2.276-2.784,4.568-5.565,7.011-8.206
		c2.169-2.345,4.297-4.766,7.103-6.374c4.405-2.527,9.73-2.632,14.025,0.197c4.291,2.828,6.78,7.689,6.09,12.837
		c-0.309,2.291-1.184,4.478-2.378,6.447c-0.773,1.278-1.749,2.378-2.626,3.576c-1.851,2.535-3.936,4.907-6.001,7.267
		c-7.152,8.169-14.617,16.066-22.085,23.943c-1.074,1.133-2.149,2.265-3.226,3.395c3.148,2.688,6.296,5.375,9.444,8.063
		c0.857,0.732,1.715,1.464,2.572,2.195c0.293,0.251,0.587,0.502,0.88,0.752c0.125,0.105,0.305,0.334,0.46,0.393
		c0.023,0.009,0.041,0.049,0.065,0.056c0.156,0.041,0.733-0.344,0.892-0.419c0.354-0.167,0.709-0.336,1.064-0.504
		c1.231-0.586,2.458-1.181,3.683-1.782c2.461-1.209,4.908-2.449,7.336-3.722c9.158-4.795,18.084-10.039,26.699-15.754
		C172.404,201.6,180,195.996,187.274,190c6.652-5.484,13.033-11.297,19.098-17.425c5.55-5.608,10.833-11.48,15.82-17.596
		c4.549-5.58,8.85-11.363,12.886-17.325c3.644-5.38,7.071-10.909,10.277-16.563c2.859-5.043,5.542-10.187,8.052-15.414
		c2.19-4.563,4.247-9.188,6.187-13.864C260.02,90.785,260.44,89.754,260.856,88.722 M172.62,126.71
		c-5.216-4.453-8.954-10.492-10.608-17.146c-1.604-6.447-1.236-13.335,1.073-19.566c2.41-6.505,6.906-12.179,12.683-16.021
		c5.566-3.703,12.231-5.635,18.913-5.526c6.777,0.11,13.444,2.329,18.922,6.325c5.563,4.057,9.776,9.817,11.93,16.359
		c2.075,6.3,2.217,13.188,0.39,19.564c-1.915,6.682-5.978,12.675-11.458,16.949c-5.276,4.114-11.78,6.537-18.458,6.919
		c-6.744,0.387-13.544-1.313-19.291-4.868C175.275,128.809,173.906,127.808,172.62,126.71"/>
	<path fill="none" stroke="#717171" stroke-width="2" d="M92.158,131.843c-1.349,2.458-2.61,4.966-3.847,7.482
		c-2.953,6.005-5.696,12.118-8.18,18.332c-1.508,3.772-2.919,7.585-4.197,11.442c-0.319,0.964-0.63,1.932-0.932,2.901
		c-0.146,0.471-0.291,0.943-0.433,1.415c-0.137,0.457-0.204,1.093-0.443,1.502c-0.169,0.29,0.03,0.102-0.17,0.176
		c-0.271,0.101-0.678,0.067-0.966,0.105c-0.626,0.081-1.25,0.182-1.871,0.297c-2.083,0.382-4.138,0.908-6.163,1.526
		c-3.05,0.93-6.033,2.076-8.941,3.384c-3.837,1.725-7.545,3.733-11.113,5.962c-4.432,2.767-8.65,5.871-12.652,9.228
		c-4.857,4.072-9.398,8.518-13.642,13.224c-5.11,5.667-9.792,11.714-14.1,18.012c-1.163,1.7-2.299,3.42-3.41,5.155
		c-0.089-0.822-0.1-1.655-0.099-2.481c0.002-2.322,0.2-4.645,0.513-6.944c0.496-3.641,1.299-7.237,2.329-10.762
		c1.407-4.815,3.241-9.5,5.395-14.029c2.733-5.743,5.982-11.235,9.603-16.464c4.52-6.529,9.616-12.651,15.095-18.395
		c2.923-3.065,5.952-6.048,9.06-8.928c2.907-2.691,5.999-5.188,9.21-7.505c4.821-3.477,9.95-6.553,15.365-9.013
		c6.155-2.795,12.723-4.796,19.472-5.422C88.74,131.887,90.45,131.817,92.158,131.843"/>
	<path fill="none" stroke="#717171" stroke-width="2" d="M180.165,206.981c-2.216,1.718-4.496,3.356-6.787,4.973
		c-5.468,3.857-11.075,7.524-16.823,10.952c-3.489,2.082-7.032,4.073-10.642,5.94c-0.903,0.466-1.809,0.925-2.719,1.374
		c-0.442,0.22-0.886,0.437-1.331,0.649c-0.43,0.208-1.047,0.373-1.413,0.673c-0.26,0.214-0.105-0.013-0.147,0.195
		c-0.057,0.285,0.039,0.681,0.048,0.972c0.018,0.631,0.016,1.263,0,1.894c-0.051,2.117-0.248,4.23-0.541,6.326
		c-0.44,3.158-1.105,6.284-1.94,9.361c-1.102,4.06-2.505,8.037-4.146,11.909c-2.038,4.812-4.443,9.464-7.13,13.942
		c-3.261,5.437-6.939,10.618-10.922,15.548c-4.795,5.936-10.034,11.507-15.578,16.748c-1.497,1.416-3.017,2.808-4.558,4.176
		c0.826-0.04,1.651-0.16,2.466-0.291c2.293-0.367,4.556-0.925,6.778-1.596c3.517-1.06,6.944-2.417,10.264-3.987
		c4.535-2.144,8.875-4.689,13.009-7.527c5.245-3.6,10.159-7.671,14.755-12.064c5.74-5.488,10.986-11.48,15.801-17.793
		c2.568-3.367,5.039-6.826,7.396-10.348c2.203-3.291,4.184-6.736,5.969-10.271c2.679-5.307,4.912-10.854,6.492-16.588
		c1.795-6.517,2.742-13.316,2.302-20.081C180.657,210.363,180.458,208.664,180.165,206.981"/>
	<path fill="none" stroke="#717171" stroke-width="2" d="M112.592,254.531c2.653-3.433,5.114-7.02,7.32-10.757
		c1.062-1.796,2.083-3.626,2.968-5.519c0.021-0.045,0.127-0.199,0.115-0.252c-0.014-0.067-0.23-0.197-0.28-0.24
		c-0.236-0.201-0.474-0.403-0.709-0.605c-1.421-1.214-2.843-2.427-4.264-3.641l-0.907-0.775c-0.537,1.263-1.236,2.468-1.943,3.639
		c-1.996,3.312-4.35,6.406-6.885,9.32c-4.011,4.609-8.524,8.774-13.332,12.54c-6.673,5.226-13.93,9.685-21.494,13.499
		c-9.966,5.025-20.473,8.94-31.197,12.009c-1.493,0.427-2.991,0.838-4.494,1.233l0,0c0.154-1.545,0.326-3.089,0.513-4.631
		c1.349-11.072,3.568-22.063,6.969-32.693c2.582-8.068,5.848-15.936,9.963-23.345c2.964-5.34,6.37-10.449,10.293-15.133
		c2.48-2.962,5.169-5.771,8.125-8.262c1.047-0.882,2.127-1.761,3.29-2.489c-0.302-0.258-0.605-0.516-0.908-0.774
		c-1.421-1.214-2.842-2.427-4.264-3.641c-0.237-0.202-0.474-0.403-0.71-0.605c-0.05-0.043-0.212-0.236-0.281-0.24
		c-0.053-0.003-0.189,0.126-0.231,0.154c-1.729,1.17-3.376,2.467-4.984,3.796c-3.345,2.766-6.502,5.758-9.476,8.916
		c-4.083,4.339-7.819,9.004-11.146,13.946c-4.012,5.957-7.423,12.321-10.115,18.98c-2.869,7.102-5.595,14.512-7.594,21.896
		c-1.563,5.771-2.509,11.551-3.74,17.402c-0.879,4.179-1.413,8.463-1.97,12.697c-0.372,2.833-0.657,5.688-0.712,8.547
		c-0.033,1.677-0.005,3.381,0.278,5.038c0,0,0-0.001,0.001-0.001c1.682,0.02,3.368-0.219,5.02-0.515
		c2.815-0.503,5.589-1.231,8.329-2.044c4.095-1.215,8.242-2.413,12.232-3.936c5.585-2.133,11.146-3.975,16.601-6.423
		c6.978-3.131,13.87-6.985,20.433-10.933c6.156-3.703,11.906-8.07,17.161-12.966C104.924,263.666,108.948,259.243,112.592,254.531"
		/>
</g>
</svg>
