<?xml version="1.0" encoding="utf-8"?>
<!-- Generator: Adobe Illustrator 16.0.0, SVG Export Plug-In . SVG Version: 6.00 Build 0)  -->
<!DOCTYPE svg PUBLIC "-//W3C//DTD SVG 1.1//EN" "http://www.w3.org/Graphics/SVG/1.1/DTD/svg11.dtd">
<svg version="1.1" id="Layer_1" xmlns="http://www.w3.org/2000/svg" xmlns:xlink="http://www.w3.org/1999/xlink" x="0px" y="0px"
	 width="300px" height="300px" viewBox="0 0 300 300" enable-background="new 0 0 300 300" xml:space="preserve">
<g>
	<path fill="none" stroke="#FF3F68" stroke-width="12" stroke-miterlimit="10" d="M119.07,180.248
		c-0.09-0.101-0.09-0.185-0.212-0.277c-3.682-3.205-3.896-9.246-3.896-9.246V37.558c0-20.523-12.429-24.278-19.011-24.84H65.236
		c-3.468,0.09-17.803,1.636-17.803,20.656v137.033c0,0,0.053,6.251-3.406,9.175c-0.124,0.097-0.086,0.163-0.172,0.261
		c-13.922,11.037-22.927,28.016-22.927,47.172c0,33.285,26.982,60.269,60.268,60.269c33.285,0,60.27-26.983,60.27-60.269
		C141.465,208.097,132.696,191.295,119.07,180.248z M81.195,258.268c-16.177,0-29.298-13.127-29.298-29.3
		c0-9.469,4.554-17.779,11.543-23.099c-0.013-0.004-0.013-0.014-0.021-0.018c8.802-7.068,10.425-16.391,10.658-21.031v-27.701
		c0-7.222,5.756-7.115,5.756-7.115h3.119c1.143,0.025,5.357,0.541,5.357,6.7v29.157c0.05,2.165,0.864,11.294,10.366,19.802
		c0.013,0.013,0.017,0.021,0.029,0.034c7.132,5.311,11.785,13.701,11.785,23.275C110.495,245.141,97.374,258.268,81.195,258.268z"/>
	<path fill="none" stroke="#FF3F68" stroke-width="12" stroke-miterlimit="10" d="M254.679,180.248
		c-0.093-0.101-0.093-0.185-0.214-0.277c-3.68-3.205-3.897-9.246-3.897-9.246V37.558c0-20.523-12.427-24.278-19.009-24.84h-30.723
		c-3.469,0.09-17.796,1.636-17.796,20.656v137.033c0,0,0.05,6.251-3.407,9.175c-0.117,0.097-0.092,0.163-0.172,0.261
		c-13.924,11.037-22.927,28.016-22.927,47.172c0,33.285,26.979,60.269,60.27,60.269c33.285,0,60.269-26.983,60.269-60.269
		C277.072,208.097,268.305,191.295,254.679,180.248z M216.804,258.268c-16.186,0-29.3-13.127-29.3-29.3
		c0-9.469,4.556-17.779,11.537-23.099c0-0.004,0-0.014-0.009-0.018c8.802-7.068,10.425-16.391,10.656-21.031v-22.822h-0.101v-71.85
		c0-6.465,4.111-7.088,5.482-7.122h3.269c1.603,0.059,5.58,0.738,5.58,6.177v67.491v5.295v23.859
		c0.054,2.168,0.864,11.297,10.37,19.805c0.009,0.014,0.018,0.021,0.025,0.034c7.132,5.312,11.789,13.702,11.789,23.275
		C246.104,245.141,232.98,258.268,216.804,258.268z"/>
</g>
</svg>
