<?xml version="1.0" encoding="utf-8"?>
<!-- Generator: Adobe Illustrator 16.0.0, SVG Export Plug-In . SVG Version: 6.00 Build 0)  -->
<!DOCTYPE svg PUBLIC "-//W3C//DTD SVG 1.1//EN" "http://www.w3.org/Graphics/SVG/1.1/DTD/svg11.dtd">
<svg version="1.1" id="Layer_1" xmlns="http://www.w3.org/2000/svg" xmlns:xlink="http://www.w3.org/1999/xlink" x="0px" y="0px"
	 width="300px" height="300px" viewBox="0 0 300 300" enable-background="new 0 0 300 300" xml:space="preserve">
<g>
	<polygon fill="none" stroke="#FF3F68" stroke-width="12" stroke-miterlimit="10" points="260.799,195.696 260.799,163.328 
		293.167,163.328 293.167,136.672 260.799,136.672 260.799,104.304 234.143,104.304 234.143,136.672 201.774,136.672 
		201.774,163.328 234.143,163.328 234.143,195.696 	"/>
	<path fill="none" stroke="#FF3F68" stroke-width="12" stroke-miterlimit="10" d="M252.547,271.857c0,0,0-16.756-1.396-25.514
		c-1.143-6.918-10.726-16.058-51.472-31.036c-40.111-14.724-37.637-7.553-37.637-34.653c0-17.581,8.949-7.361,14.661-40.746
		c2.222-13.138,3.999-4.379,8.823-25.45c2.538-11.043-1.714-11.869-1.207-17.136c0.508-5.268,1.016-9.964,1.967-20.754
		c1.144-13.328-11.232-48.425-55.597-48.425c-44.363,0-56.739,35.097-55.534,48.489c0.952,10.726,1.46,15.486,1.968,20.754
		c0.508,5.268-3.744,6.093-1.206,17.136c4.823,21.007,6.601,12.249,8.822,25.45c5.712,33.384,14.661,23.166,14.661,40.747
		c0,27.163,2.475,19.992-37.637,34.652c-40.746,14.915-50.393,24.118-51.472,31.036c-1.459,8.694-1.459,25.45-1.459,25.45H130.69
		H252.547z"/>
</g>
</svg>
