<?xml version="1.0" encoding="utf-8"?>
<!-- Generator: Adobe Illustrator 16.0.0, SVG Export Plug-In . SVG Version: 6.00 Build 0)  -->
<!DOCTYPE svg PUBLIC "-//W3C//DTD SVG 1.1//EN" "http://www.w3.org/Graphics/SVG/1.1/DTD/svg11.dtd">
<svg version="1.1" id="Layer_1" xmlns="http://www.w3.org/2000/svg" xmlns:xlink="http://www.w3.org/1999/xlink" x="0px" y="0px"
	 width="300px" height="300px" viewBox="0 0 300 300" enable-background="new 0 0 300 300" xml:space="preserve">
<g>
	<g>
		<path fill="#F4D35E" d="M237.331,98.929c0,39.11-31.519,70.831-70.374,70.831c-38.858,0-70.343-31.72-70.343-70.831
			c0-39.103,31.484-70.813,70.343-70.813C205.813,28.116,237.331,59.831,237.331,98.929z"/>
		<path fill="#C9942C" d="M166.957,178.92c-43.834,0-79.504-35.888-79.504-79.991c0-44.1,35.667-79.973,79.504-79.973
			c43.852,0,79.534,35.875,79.534,79.973C246.491,143.036,210.809,178.92,166.957,178.92z M166.957,37.273
			c-33.737,0-61.184,27.66-61.184,61.656c0,34.004,27.446,61.67,61.184,61.67c33.754,0,61.216-27.667,61.216-61.67
			C228.173,64.934,200.711,37.273,166.957,37.273z"/>
	</g>
	<path fill="#C9942C" d="M254.203,256.195c-5.056,0-9.156-4.1-9.156-9.16v-55.793c0-17.242-9.177-28.947-28.872-36.832
		c-4.695-1.881-6.98-7.216-5.099-11.908c1.879-4.696,7.202-6.988,11.909-5.102c33.38,13.357,40.385,36.656,40.385,53.841v55.793
		C263.366,252.096,259.266,256.195,254.203,256.195z"/>
	<path fill="#C9942C" d="M80.837,256.189c-5.06,0-9.161-4.102-9.161-9.158v-55.789c0-17.141,6.799-40.386,39.18-53.797
		c4.658-1.943,10.031,0.285,11.965,4.955c1.933,4.677-0.286,10.03-4.96,11.968c-18.75,7.768-27.868,19.824-27.868,36.869v55.789
		C89.997,252.088,85.896,256.189,80.837,256.189z"/>
	<g>
		<polygon fill="#F4D35E" points="192.236,252.123 167.521,271.881 142.804,252.123 158.485,175.715 167.479,175.715 
			176.324,175.715 		"/>
		<path fill="#C9942C" d="M167.521,281.043c-2.022,0-4.046-0.668-5.715-2.008l-24.72-19.756c-2.689-2.15-3.946-5.625-3.254-9
			l15.682-76.408c0.872-4.262,4.621-7.32,8.971-7.32h17.842c4.339,0,8.083,3.045,8.968,7.295l15.909,76.408
			c0.7,3.381-0.552,6.867-3.249,9.02l-24.71,19.762C171.571,280.375,169.545,281.043,167.521,281.043z M152.904,248.473
			l14.62,11.689l14.598-11.678l-13.241-63.605h-2.927L152.904,248.473z"/>
	</g>
</g>
<path fill="#C9942C" d="M68.333,91.667c0,2.209-1.791,4-4,4h-48c-2.209,0-4-1.791-4-4l0,0c0-2.209,1.791-4,4-4h48
	C66.542,87.667,68.333,89.458,68.333,91.667L68.333,91.667z"/>
<path fill="#C9942C" d="M73.676,126c0,2.209-1.791,4-4,4h-48c-2.209,0-4-1.791-4-4l0,0c0-2.209,1.791-4,4-4h48
	C71.885,122,73.676,123.791,73.676,126L73.676,126z"/>
<path fill="#C9942C" d="M51,158.92c0,2.209-1.791,4-4,4H9c-2.209,0-4-1.791-4-4l0,0c0-2.209,1.791-4,4-4h38
	C49.209,154.92,51,156.711,51,158.92L51,158.92z"/>
</svg>
