<?xml version="1.0" encoding="utf-8"?>
<!-- Generator: Adobe Illustrator 13.0.0, SVG Export Plug-In . SVG Version: 6.00 Build 14948)  -->
<!DOCTYPE svg PUBLIC "-//W3C//DTD SVG 1.1//EN" "http://www.w3.org/Graphics/SVG/1.1/DTD/svg11.dtd">
<svg version="1.1" id="Social_Media" xmlns="http://www.w3.org/2000/svg" xmlns:xlink="http://www.w3.org/1999/xlink" x="0px"
	 y="0px" width="393.477px" height="563.188px" viewBox="0 0 393.477 563.188" enable-background="new 0 0 393.477 563.188"
	 xml:space="preserve">
<g>
	<g>
		<g>
			<path fill="#39B54A" d="M187.167,225.335c-1.144,0-2.151-0.831-2.335-1.997c-0.205-1.292,0.676-2.505,1.968-2.709
				c22.776-3.604,39.31-23.16,39.31-46.497v-9.768c0-1.308,1.06-2.367,2.367-2.367h3.814c1.809,0,3.279-1.471,3.279-3.279v-16.787
				c0-1.808-1.471-3.278-3.279-3.278h-3.814c-1.309,0-2.367-1.061-2.367-2.368v-14.346c0-6.113-3.352-12.947-8.537-17.411
				c-0.991-0.853-1.104-2.348-0.249-3.339c0.854-0.99,2.348-1.103,3.338-0.25c6.28,5.406,10.185,13.453,10.185,21v11.979h1.446
				c4.419,0,8.015,3.595,8.015,8.014v16.787c0,4.419-3.596,8.014-8.015,8.014h-1.446v7.4c0,25.682-18.214,47.203-43.305,51.174
				C187.414,225.326,187.29,225.335,187.167,225.335z"/>
		</g>
		<g>
			<path fill="#39B54A" d="M170.895,225.335c-0.133,0-0.267-0.011-0.402-0.033c-25.075-4.284-43.275-25.805-43.275-51.17v-7.4
				h-1.447c-4.419,0-8.015-3.595-8.015-8.014v-16.787c0-4.419,3.596-8.014,8.015-8.014h3.815c1.307,0,2.368,1.06,2.368,2.367
				c0,1.307-1.061,2.368-2.368,2.368h-3.815c-1.808,0-3.279,1.471-3.279,3.278v16.787c0,1.809,1.471,3.279,3.279,3.279h3.815
				c1.307,0,2.368,1.06,2.368,2.367v9.768c0,22.679,16.912,42.67,39.338,46.502c1.289,0.221,2.155,1.443,1.935,2.732
				C173.028,224.521,172.026,225.335,170.895,225.335z"/>
		</g>
		<g>
			<g>
				<path fill="#39B54A" d="M169.467,152.896h-30.522c-1.308,0-2.368-1.061-2.368-2.368c0-9.72,7.909-17.628,17.629-17.628
					c9.72,0,17.629,7.908,17.629,17.628C171.834,151.835,170.774,152.896,169.467,152.896z M141.53,148.16h25.352
					c-1.115-5.983-6.375-10.525-12.676-10.525C147.905,137.635,142.645,142.177,141.53,148.16z"/>
			</g>
			<g>
				<path fill="#39B54A" d="M219.116,152.896h-30.521c-1.308,0-2.368-1.061-2.368-2.368c0-9.72,7.908-17.628,17.628-17.628
					s17.629,7.908,17.629,17.628C221.482,151.835,220.424,152.896,219.116,152.896z M191.18,148.16h25.351
					c-1.114-5.983-6.374-10.525-12.676-10.525C197.555,137.635,192.294,142.177,191.18,148.16z"/>
			</g>
		</g>
		<g>
			<path fill="#39B54A" d="M135.891,127.054c-1.063,0-2.03-0.722-2.297-1.801c-0.313-1.27,0.463-2.553,1.731-2.866l15.668-3.865
				c1.271-0.309,2.552,0.463,2.866,1.73c0.313,1.271-0.462,2.554-1.731,2.867l-15.667,3.865
				C136.27,127.031,136.079,127.054,135.891,127.054z"/>
		</g>
		<g>
			<path fill="#39B54A" d="M220.744,128.072c-0.242,0-0.486-0.038-0.729-0.116l-20.146-6.511c-1.244-0.402-1.927-1.737-1.524-2.981
				c0.401-1.245,1.744-1.928,2.979-1.524l20.146,6.511c1.245,0.402,1.928,1.737,1.525,2.98
				C222.673,127.434,221.743,128.072,220.744,128.072z"/>
		</g>
		<g>
			<path fill="#39B54A" d="M179.64,186.063c-0.312,0-0.627-0.061-0.931-0.191l-11.395-4.883c-0.756-0.323-1.289-1.017-1.409-1.829
				c-0.121-0.813,0.189-1.631,0.819-2.16c0.027-0.023,3.25-2.79,5.954-7.763c2.841-5.225,2.967-12.36,2.968-12.432
				c0.017-1.297,1.074-2.337,2.367-2.337c0.01,0,0.021,0,0.032,0c1.307,0.018,2.353,1.092,2.335,2.399
				c-0.004,0.34-0.148,8.389-3.542,14.632c-1.513,2.781-3.164,4.964-4.49,6.495l8.226,3.525c1.202,0.515,1.758,1.906,1.243,3.108
				C181.432,185.525,180.558,186.063,179.64,186.063z"/>
		</g>
		<g>
			<path fill="#39B54A" d="M182.867,201.957c-7.926,0-13.877-2.462-14.327-2.653c-1.203-0.512-1.764-1.901-1.252-3.105
				c0.512-1.201,1.9-1.762,3.103-1.253c0.743,0.314,17.982,7.353,31.894-4.984c0.98-0.865,2.477-0.776,3.343,0.2
				c0.867,0.979,0.776,2.476-0.201,3.343C197.941,200.14,189.676,201.957,182.867,201.957z"/>
		</g>
		<g>
			<path fill="#39B54A" d="M120.125,146.384c-0.861,0-1.692-0.471-2.11-1.29c-0.596-1.165-14.595-28.894-16.026-59.978
				c-0.563-12.219,2.255-21.358,8.614-27.942c10.435-10.803,30.349-15.25,66.623-14.823c52.274,0.602,72.475-14.899,72.672-15.056
				c0.569-0.451,1.315-0.613,2.021-0.445c0.706,0.169,1.296,0.653,1.6,1.313c0.408,0.888,9.937,21.994,3.789,43.457
				c-6.695,23.367-19.186,33.149-43.115,33.763c-8.387,0.217-17.688-1.104-26.686-2.38c-16.564-2.35-33.693-4.779-44.481,2.58
				c-12.429,8.478-11.094,30.322-11.08,30.542c0.089,1.305-0.897,2.434-2.201,2.522c-1.291,0.07-2.434-0.896-2.522-2.202
				c-0.068-1.007-1.509-24.786,13.135-34.773c12.304-8.394,30.356-5.833,47.814-3.357c8.803,1.249,17.912,2.538,25.897,2.335
				c22.029-0.564,32.514-8.786,38.686-30.333c4.465-15.583-0.268-31.474-2.503-37.575c-7.065,4.274-29.052,14.851-73.079,14.345
				c-34.371-0.394-53.85,3.735-63.164,13.378c-5.48,5.673-7.796,13.438-7.29,24.435c1.384,30.069,15.372,57.766,15.512,58.041
				c0.595,1.164,0.134,2.591-1.031,3.186C120.855,146.301,120.487,146.384,120.125,146.384z"/>
		</g>
		<g>
			<path fill="#39B54A" d="M233.805,138.863c-0.191,0-0.384-0.022-0.576-0.071c-1.27-0.317-2.039-1.603-1.723-2.871
				c0.036-0.147,3.717-14.857,6.738-26.19c2.461-9.228-0.188-11.664-0.213-11.688c0.07,0.061,0.115,0.083,0.115,0.083l2.619-3.944
				c0.926,0.614,5.375,4.312,2.053,16.77c-3.012,11.297-6.685,25.972-6.721,26.119C235.83,138.146,234.863,138.863,233.805,138.863z
				"/>
		</g>
		<g>
			<path fill="#39B54A" d="M118.292,77.291c-0.135,0-0.272-0.011-0.41-0.035c-1.279-0.226-2.14-1.429-1.926-2.71
				c0.108-0.647,2.928-15.888,27.583-17.842c8.266-0.656,19.34-0.804,31.064-0.962c19.955-0.268,42.572-0.573,49.199-3.702
				c1.183-0.561,2.593-0.053,3.15,1.129c0.56,1.182,0.053,2.594-1.13,3.151c-7.557,3.569-28.734,3.854-51.156,4.156
				c-11.645,0.157-22.643,0.305-30.754,0.948c-20.773,1.647-23.197,13.421-23.29,13.922
				C120.411,76.485,119.413,77.291,118.292,77.291z"/>
		</g>
		<g>
			<path fill="#39B54A" d="M179.03,243.647c-10.921,0-31.184-13.398-42.29-21.387c-3.633-2.611-5.969-6.79-6.409-11.465
				c-0.006-0.062-0.009-0.124-0.01-0.187l-0.282-18.842c-0.02-1.307,1.024-2.383,2.332-2.402c0.012,0,0.024,0,0.036,0
				c1.291,0,2.347,1.036,2.367,2.332l0.28,18.744c0.333,3.275,1.952,6.179,4.451,7.977c17.846,12.833,32.623,20.494,39.526,20.494
				c6.904,0,21.681-7.661,39.525-20.494c2.498-1.798,4.117-4.701,4.45-7.977l0.28-18.744c0.021-1.308,1.113-2.333,2.402-2.332
				c1.308,0.02,2.352,1.096,2.332,2.402l-0.281,18.842c-0.002,0.063-0.006,0.125-0.01,0.187c-0.441,4.675-2.777,8.854-6.41,11.465
				C210.215,230.249,189.951,243.647,179.03,243.647z"/>
		</g>
		<g>
			<path fill="#39B54A" d="M187.17,225.335c-1.308,0-2.368-1.06-2.368-2.367v-11.09c0-0.883-0.718-1.601-1.6-1.601h-8.343
				c-0.882,0-1.6,0.718-1.6,1.601v11.09c0,1.308-1.06,2.367-2.367,2.367c-1.308,0-2.368-1.06-2.368-2.367v-11.09
				c0-3.494,2.842-6.336,6.335-6.336h8.343c3.493,0,6.335,2.842,6.335,6.336v11.09C189.537,224.275,188.477,225.335,187.17,225.335z
				"/>
		</g>
		<g>
			<path fill="#39B54A" d="M167.126,308.202c-0.583,0-1.153-0.216-1.593-0.616c-1.047-0.952-25.734-23.436-34.171-32.491
				c-5.199-5.582-7.756-11.247-7.392-16.384c0.292-4.132,2.399-7.808,6.263-10.93c6.729-5.438,13.949-4.609,18.342-2.824
				l5.604-13.548c0.5-1.208,1.883-1.784,3.093-1.282c1.208,0.5,1.783,1.884,1.283,3.093l-6.573,15.888
				c-0.007,0.019-0.015,0.037-0.023,0.057l-0.607,1.467l29.861,26.524c0.782,0.693,1.016,1.818,0.574,2.768l-12.514,26.91
				c-0.318,0.684-0.941,1.174-1.68,1.322C167.438,308.188,167.282,308.202,167.126,308.202z M141.63,248.322
				c-2.5,0-5.446,0.739-8.421,3.143c-2.84,2.295-4.316,4.773-4.516,7.58c-0.339,4.791,3.148,9.617,6.134,12.822
				c6.792,7.291,24.978,24.053,31.514,30.042l10.41-22.385l-29.803-26.473c-0.754-0.669-1.001-1.743-0.616-2.675l0.426-1.028
				C145.535,248.85,143.741,248.322,141.63,248.322z"/>
		</g>
		<g>
			<path fill="#39B54A" d="M192.157,308.207c-0.155,0-0.312-0.016-0.468-0.046c-0.738-0.149-1.361-0.64-1.679-1.323l-12.514-26.91
				c-0.44-0.948-0.207-2.073,0.574-2.768l29.862-26.524l-0.601-1.45c-0.015-0.029-0.024-0.06-0.038-0.09l-6.564-15.871
				c-0.502-1.208,0.073-2.593,1.281-3.093c1.209-0.502,2.594,0.074,3.092,1.282l5.606,13.548c4.394-1.785,11.612-2.611,18.342,2.825
				c3.863,3.121,5.97,6.798,6.263,10.929c0.363,5.137-2.192,10.802-7.393,16.384c-8.436,9.057-33.125,31.539-34.172,32.491
				C193.311,307.991,192.741,308.207,192.157,308.207z M182.533,279.529l10.409,22.385c6.539-5.988,24.724-22.75,31.515-30.042
				c2.984-3.204,6.473-8.031,6.135-12.822c-0.199-2.806-1.676-5.286-4.516-7.58c-5.467-4.417-10.879-3.189-13.547-2.111l0.422,1.024
				c0.387,0.931,0.14,2.006-0.615,2.675L182.533,279.529z"/>
		</g>
		<path fill="#39B54A" d="M179.644,276.562c-1.307,0-2.367,1.061-2.367,2.368v284.257h4.735V278.93
			C182.011,277.622,180.951,276.562,179.644,276.562z"/>
		<g>
			<path fill="#39B54A" d="M162.752,358.208c-5.681,0-10.303-4.623-10.303-10.304c0-5.682,4.622-10.305,10.303-10.305
				s10.303,4.623,10.303,10.305C173.055,353.585,168.433,358.208,162.752,358.208z M162.752,342.336
				c-3.07,0-5.568,2.498-5.568,5.568s2.498,5.568,5.568,5.568s5.568-2.498,5.568-5.568S165.822,342.336,162.752,342.336z"/>
		</g>
		<g>
			<path fill="#39B54A" d="M162.752,417.322c-5.681,0-10.303-4.622-10.303-10.304c0-5.681,4.622-10.304,10.303-10.304
				s10.303,4.623,10.303,10.304C173.055,412.7,168.433,417.322,162.752,417.322z M162.752,401.451c-3.07,0-5.568,2.498-5.568,5.567
				s2.498,5.567,5.568,5.567s5.568-2.498,5.568-5.567S165.822,401.451,162.752,401.451z"/>
		</g>
		<g>
			<path fill="#39B54A" d="M162.752,476.438c-5.681,0-10.303-4.622-10.303-10.304s4.622-10.303,10.303-10.303
				s10.303,4.621,10.303,10.303C173.055,471.814,168.433,476.438,162.752,476.438z M162.752,460.566
				c-3.07,0-5.568,2.497-5.568,5.566s2.498,5.568,5.568,5.568s5.568-2.499,5.568-5.568
				C168.32,463.063,165.822,460.566,162.752,460.566z"/>
		</g>
		<g>
			<path fill="#39B54A" d="M162.752,535.552c-5.681,0-10.303-4.622-10.303-10.303c0-5.682,4.622-10.304,10.303-10.304
				s10.303,4.622,10.303,10.304C173.055,530.93,168.433,535.552,162.752,535.552z M162.752,519.681c-3.07,0-5.568,2.498-5.568,5.568
				c0,3.069,2.498,5.568,5.568,5.568s5.568-2.499,5.568-5.568C168.32,522.179,165.822,519.681,162.752,519.681z"/>
		</g>
		<g>
			<path fill="#39B54A" d="M71.271,346.881c-4.856,0-13.187-0.336-17.566-2.438c-1.179-0.565-1.676-1.98-1.11-3.159
				c0.566-1.179,1.98-1.675,3.159-1.11c4.257,2.045,15.208,2.067,19.071,1.905c3.143-0.002,5.618-2.478,5.618-5.521
				c0-4.662-0.537-7.521-7.978-7.908c-0.054-0.004-0.107-0.008-0.16-0.016c-0.689-0.082-16.944-2.072-23.543-5.371
				c-1.17-0.586-1.644-2.008-1.059-3.178c0.584-1.169,2.008-1.645,3.176-1.059c5.659,2.83,20.714,4.748,21.917,4.896
				c10.909,0.6,12.382,6.721,12.382,12.635c0,5.652-4.6,10.252-10.253,10.252C74.521,346.83,73.158,346.881,71.271,346.881z"/>
		</g>
		<g>
			<path fill="#39B54A" d="M75.128,372.045c-1.308,0-2.367-1.061-2.367-2.368c0-1.307,1.06-2.366,2.367-2.366
				c5.22,0,11.597-4.242,11.597-9.193c0-6.232-5.071-11.305-11.304-11.305c-1.307,0-2.368-1.06-2.368-2.367
				c0-1.307,1.061-2.367,2.368-2.367c8.844,0,16.039,7.195,16.039,16.039C91.459,365.96,82.681,372.045,75.128,372.045z"/>
		</g>
		<g>
			<path fill="#39B54A" d="M57.771,392.072c-1.749,0-3.277-0.079-4.33-0.282c-1.284-0.248-2.124-1.49-1.876-2.774
				c0.248-1.281,1.487-2.117,2.773-1.875c3.279,0.631,14.28-0.356,18.243-0.791c0.086-0.011,0.172-0.016,0.258-0.016
				c4.571,0,8.29-3.719,8.29-8.289c0-3.309-2.692-6-6.001-6c-1.677,0.064-17.303,0.609-21.878-0.674
				c-1.259-0.354-1.993-1.66-1.64-2.919s1.657-1.993,2.919-1.64c2.906,0.814,14.123,0.738,20.51,0.498c0.001,0,0.002,0,0.003,0
				c6.008,0,10.822,4.814,10.822,10.733c0,7.136-5.77,12.95-12.89,13.022C71.43,391.236,63.443,392.072,57.771,392.072z"/>
		</g>
		<g>
			<path fill="#39B54A" d="M45.845,409.723c-4.246,0-7.942-1.116-10.555-3.259c-2.859-2.344-4.37-5.808-4.37-10.017
				c0-1.239,0.502-2.868,1.411-4.303c-3.152-1.686-6.439-4.802-6.896-9.869c-0.354-3.934,1.375-6.895,3.493-8.907
				c-3.938-2.086-7.886-6.291-7.928-13.802c-0.046-8.366,5.138-13.359,9.754-15.812c-1.442-1.851-2.521-4.36-2.957-7.127
				c-0.949-6.017,1.348-11.392,6.3-14.746c8.653-5.862,10.786-18.192,11.638-26.96c0.112-1.158,0.193-2.568,0.288-4.204
				c0.503-8.746,1.192-20.723,7.81-25.427c2.771-1.969,6.191-2.394,10.167-1.262c4.121,1.174,7.215,3.643,9.198,7.34
				c6.241,11.634-0.45,32.623-3.667,42.709l-0.563,1.773c-1.923,6.133,0.877,7.646,1.204,7.799c1.214,0.484,1.776,1.851,1.292,3.064
				c-0.484,1.214-1.891,1.796-3.105,1.309c-2.512-1.002-6.561-5.133-3.908-13.59l0.569-1.795c2.782-8.727,9.298-29.164,4.005-39.032
				c-1.373-2.561-3.44-4.203-6.322-5.023c-2.56-0.731-4.565-0.543-6.127,0.566c-4.764,3.387-5.429,14.938-5.826,21.84
				c-0.093,1.613-0.181,3.139-0.302,4.39c-0.944,9.717-3.391,23.44-13.695,30.423c-4.613,3.124-4.66,7.661-4.277,10.088
				c0.557,3.53,2.488,5.954,3.609,6.28c1.029,0.298,1.729,1.252,1.708,2.323c-0.023,1.07-0.762,1.992-1.803,2.25
				c-0.413,0.104-10.309,2.727-10.253,12.795c0.053,9.664,8.529,10.745,8.89,10.785c1.093,0.126,1.955,0.986,2.083,2.078
				c0.126,1.095-0.516,2.131-1.55,2.502c-0.212,0.078-5.444,2.08-5.006,6.945c0.521,5.787,7.042,7.107,7.108,7.12
				c1.075,0.207,1.868,1.124,1.918,2.218c0.05,1.094-0.657,2.078-1.708,2.383c-0.854,0.246-1.807,2.173-1.814,2.875
				c0,2.783,0.887,4.922,2.637,6.355c2.568,2.106,6.952,2.732,12.021,1.72l21.635-4.326c2.667-0.532,4.602-2.895,4.602-5.613v-0.386
				c0-1.726-1.402-3.127-3.126-3.127c-1.308,0-2.367-1.061-2.367-2.367s1.06-2.368,2.367-2.368c4.335,0,7.861,3.526,7.861,7.862
				v0.386c0,4.97-3.536,9.283-8.408,10.257l-21.635,4.327C49.377,409.539,47.565,409.723,45.845,409.723z"/>
		</g>
		<g>
			<path fill="#39B54A" d="M87.261,408.061c-0.624,0-1.248-0.246-1.713-0.733c-0.903-0.946-0.867-2.445,0.08-3.349
				c0.087-0.084,9.318-9.177,12.732-28.408c4.728-32.342-14.949-41.2-15.789-41.562c-1.197-0.515-1.758-1.903-1.248-3.104
				c0.51-1.198,1.89-1.76,3.091-1.258c0.979,0.41,23.911,10.486,18.62,46.68c-3.717,20.943-13.715,30.676-14.139,31.08
				C88.436,407.844,87.848,408.061,87.261,408.061z"/>
		</g>
		<g>
			<path fill="#39B54A" d="M62.959,417.044c-6.282,0-14.084-1.618-20.374-8.026c-0.916-0.932-0.902-2.431,0.03-3.348
				c0.934-0.915,2.433-0.901,3.349,0.032c10.337,10.529,26.535,5.229,26.699,5.176c1.239-0.421,2.582,0.246,3,1.481
				c0.419,1.236-0.24,2.58-1.476,3.001C73.804,415.491,69.111,417.044,62.959,417.044z"/>
		</g>
		<g>
			<path fill="#39B54A" d="M73.234,428.609c-11.264,0-19.987-3.132-20.166-3.196c-1.227-0.454-1.853-1.816-1.399-3.042
				c0.454-1.227,1.812-1.853,3.04-1.4l0,0c1.37,0.506,33.769,12.052,51.998-13.204c20.438-28.314,9.542-56.688-10.324-72.241
				c-1.03-0.808-1.21-2.295-0.405-3.324s2.293-1.211,3.324-0.404c20.949,16.404,33.404,48.043,11.245,78.741
				C100.058,425.067,85.21,428.609,73.234,428.609z"/>
		</g>
		<g>
			<path fill="#39B54A" d="M73.351,288.21c-0.586,0-1.172-0.216-1.63-0.649c-0.948-0.9-0.987-2.398-0.086-3.349
				c17.033-17.932,52.977-29.793,54.499-30.289c1.245-0.4,2.58,0.274,2.984,1.518c0.406,1.242-0.274,2.579-1.516,2.984
				c-0.362,0.117-36.331,11.99-52.534,29.05C74.602,287.963,73.977,288.21,73.351,288.21z"/>
		</g>
		<g>
			<path fill="#39B54A" d="M77.899,301.844c-0.519,0-1.041-0.17-1.477-0.52c-1.021-0.816-1.187-2.307-0.37-3.327
				c14.044-17.556,35.999-27.154,36.927-27.555c1.202-0.518,2.592,0.036,3.111,1.235c0.518,1.201-0.035,2.594-1.235,3.112
				c-0.217,0.094-21.815,9.552-35.105,26.164C79.281,301.539,78.593,301.844,77.899,301.844z"/>
		</g>
		<path fill="#39B54A" d="M89.252,424.198c-0.171-1.296-1.358-2.215-2.656-2.038c-1.296,0.172-2.209,1.359-2.038,2.657
			l18.222,138.368h4.745c0-0.103,0.004-0.203-0.009-0.309L89.252,424.198z"/>
		<g>
			<path fill="#39B54A" d="M89.089,527.616c-1.144,0-2.149-0.83-2.335-1.995l-12.616-79.164c-0.206-1.292,0.675-2.506,1.966-2.712
				c1.289-0.203,2.504,0.676,2.711,1.966l12.616,79.165c0.205,1.291-0.675,2.505-1.966,2.711
				C89.338,527.607,89.213,527.616,89.089,527.616z"/>
		</g>
		<g>
			<path fill="#39B54A" d="M294.404,545.817c-0.536,0-1.063-0.184-1.484-0.523l-35.404-28.487c-0.959-0.771-1.168-2.146-0.48-3.165
				l62.929-93.599c-9.555-6.04-49.091-32.266-73.058-66.926c-0.744-1.076-0.477-2.551,0.6-3.293c1.077-0.745,2.553-0.475,3.294,0.6
				c26.693,38.605,73.243,66.59,73.71,66.867c0.561,0.333,0.957,0.881,1.1,1.516c0.143,0.636,0.019,1.302-0.347,1.841
				l-63.086,93.833l31.704,25.51l85.534-126.988c2.924-4.341,2.797-10.081-0.315-14.284c-15.43-20.835-53.396-71.687-72.645-93.819
				c-23.734-27.296-73.762-45.234-74.264-45.412c-1.231-0.438-1.879-1.79-1.441-3.022c0.438-1.232,1.789-1.877,3.021-1.441
				c2.102,0.744,51.711,18.541,76.257,46.768c19.356,22.261,57.412,73.229,72.876,94.11c4.305,5.812,4.479,13.747,0.437,19.747
				l-86.973,129.126c-0.37,0.549-0.953,0.919-1.608,1.019C294.641,545.808,294.521,545.817,294.404,545.817z"/>
		</g>
		<g>
			<path fill="#39B54A" d="M309.473,523.442c-0.505,0-1.016-0.161-1.444-0.493l-35.927-27.754c-1.035-0.8-1.227-2.286-0.428-3.321
				c0.801-1.034,2.287-1.225,3.321-0.427l35.927,27.754c1.034,0.799,1.226,2.286,0.426,3.321
				C310.881,523.126,310.181,523.442,309.473,523.442z"/>
		</g>
		<g>
			<path fill="#39B54A" d="M360.64,395.037c-0.746,0-1.479-0.352-1.939-1.008c-0.39-0.555-39.127-55.66-62.918-79.449
				c-22.39-22.391-38.073-26.189-38.229-26.227c-1.273-0.293-2.07-1.563-1.777-2.838c0.293-1.273,1.563-2.065,2.838-1.777
				c0.689,0.158,17.177,4.149,40.519,27.492c24.08,24.082,63.054,79.521,63.444,80.08c0.751,1.069,0.492,2.545-0.579,3.297
				C361.583,394.898,361.108,395.037,360.64,395.037z"/>
		</g>
		<path fill="#39B54A" d="M267.998,372.361c-1.282-0.104-2.441,0.875-2.542,2.181l-14.517,188.464
			c-0.004,0.063,0.004,0.12,0.004,0.182h4.73l14.502-188.282C270.277,373.602,269.302,372.463,267.998,372.361z"/>
		<path fill="#39B54A" d="M309.012,560.891c-16.502-4.125-15.727-19.396-15.686-20.051c0.088-1.301-0.895-2.429-2.197-2.52
			c-1.277-0.091-2.436,0.891-2.525,2.195c-0.014,0.176-0.895,15.586,13.045,22.67h9.15
			C310.799,562.126,310.088,561.159,309.012,560.891z"/>
		<path fill="#39B54A" d="M276.377,560.996c-0.197-0.081-19.893-8.307-18.98-20.133c0.914-11.879,11.787-15.484,12.265-15.637
			c1.244-0.391,1.938-1.715,1.551-2.962c-0.389-1.249-1.717-1.939-2.964-1.558c-0.587,0.184-14.406,4.65-15.573,19.791
			c-0.858,11.146,10.716,19.071,17.392,22.688h7.781C277.846,562.255,277.293,561.372,276.377,560.996z"/>
		<g>
			<path fill="#39B54A" d="M367.631,404.482c-1.271,0-2.378-0.905-2.633-2.151c-0.296-1.453,0.645-2.875,2.098-3.171
				c0.181-0.036,0.36-0.055,0.538-0.055c1.271,0,2.378,0.904,2.632,2.151c0.296,1.452-0.645,2.874-2.097,3.17
				C367.988,404.464,367.808,404.482,367.631,404.482z"/>
		</g>
		<g>
			<path fill="#39B54A" d="M241.656,51.069c-1.272,0-2.379-0.904-2.635-2.151c-0.144-0.704-0.004-1.422,0.394-2.02
				c0.396-0.599,1.001-1.008,1.706-1.151c0.181-0.037,0.359-0.055,0.538-0.055c1.271,0,2.376,0.905,2.631,2.151
				c0.296,1.453-0.646,2.875-2.097,3.171C242.014,51.052,241.833,51.069,241.656,51.069z"/>
		</g>
	</g>
</g>
</svg>
