<?xml version="1.0" encoding="utf-8"?>
<!-- Generator: Adobe Illustrator 13.0.0, SVG Export Plug-In . SVG Version: 6.00 Build 14948)  -->
<!DOCTYPE svg PUBLIC "-//W3C//DTD SVG 1.1//EN" "http://www.w3.org/Graphics/SVG/1.1/DTD/svg11.dtd">
<svg version="1.1" id="Layer_1" xmlns="http://www.w3.org/2000/svg" xmlns:xlink="http://www.w3.org/1999/xlink" x="0px" y="0px"
	 width="96px" height="96px" viewBox="0 0 96 96" enable-background="new 0 0 96 96" xml:space="preserve">
<g>
	<title>Layer 1</title>
	<path id="svg_2" fill="none" stroke="#2193A8" stroke-width="5" stroke-miterlimit="10" d="M59.16,40.019
		c0,6.162-4.996,11.16-11.16,11.16c-3.322,0-6.307-1.452-8.351-3.757c-1.748-1.97-2.81-4.563-2.81-7.403
		c0-6.164,4.997-11.161,11.16-11.161C54.164,28.857,59.16,33.854,59.16,40.019z"/>
	
		<path id="svg_3" fill="none" stroke="#2193A8" stroke-width="5" stroke-linecap="round" stroke-linejoin="round" stroke-miterlimit="10" d="
		M67.07,63.461c-0.077-0.156-0.156-0.313-0.236-0.466C63.281,56.221,56.182,51.598,48,51.598c-11.735,0-21.25,9.516-21.25,21.25
		h42.5c0-2.035-0.286-4.007-0.82-5.869"/>
</g>
</svg>
