<?xml version="1.0" encoding="utf-8"?>
<!-- Generator: Adobe Illustrator 16.0.0, SVG Export Plug-In . SVG Version: 6.00 Build 0)  -->
<!DOCTYPE svg PUBLIC "-//W3C//DTD SVG 1.1//EN" "http://www.w3.org/Graphics/SVG/1.1/DTD/svg11.dtd">
<svg version="1.1" id="Layer_1" xmlns="http://www.w3.org/2000/svg" xmlns:xlink="http://www.w3.org/1999/xlink" x="0px" y="0px"
	 width="500px" height="500px" viewBox="0 0 500 500" enable-background="new 0 0 500 500" xml:space="preserve">
<path fill="#B5B5B6" d="M192.211,333.59c-12.266,0-22.248,9.983-22.248,22.25c0,12.27,9.982,22.253,22.248,22.253
	c12.272,0,22.258-9.983,22.258-22.253C214.469,343.573,204.483,333.59,192.211,333.59z M181.918,355.84
	c0-13.604,20.595-13.604,20.595,0S181.918,369.453,181.918,355.84z M480.588,413.34l-89.739-168.764l-38.814,81.28l-1.224,0.865
	l0.482,0.678l-4.735,9.922l10.786,5.153l4.138-8.66l28.956-20.547l15.683,14.66l12.08-6.453l48.849,91.865h-88.988l-83.149-164.694
	c4.598-3.95,9.024-7.738,11.772-10.088l-7.769-9.09c-1.009,0.863-4.899,4.189-9.555,8.184l-44.983-89.098L99.87,413.34H34.306
	l43.563-72.601l17.937,13.45l23.681-20.127l6.803,11.529l10.298-6.071l-35.656-60.465L20.366,413.34H5.25v11.953h489.5V413.34
	H480.588z M408.034,313.348l-16.563-15.477l-19.396,13.765l19.351-40.521l21.164,39.802L408.034,313.348z M113.323,323.607
	l-17.984,15.286l-11.282-8.465l16.789-27.983L113.323,323.607z M243.959,174.263l36.062,71.414
	c-2.578,2.213-4.989,4.299-6.921,5.977l-18.699-16.906l-56.491,45.931l7.542,9.277l48.542-39.463l19.124,17.295
	c4.7-4.394,3.674-3.541,12.453-11.114l79.103,156.666H113.486L243.959,174.263z M113.069,447.874h215.99v11.954h-215.99V447.874z
	 M352.971,447.874h19.926v11.954h-19.926V447.874z M250.148,137.498h-11.956v-77.22h76.803l-17.579,27.737l17.385,27.558h-54.504
	v-11.956h32.826l-9.85-15.618l9.989-15.766h-43.115V137.498z"/>
</svg>
