<?xml version="1.0" encoding="utf-8"?>
<!-- Generator: Adobe Illustrator 16.0.0, SVG Export Plug-In . SVG Version: 6.00 Build 0)  -->
<!DOCTYPE svg PUBLIC "-//W3C//DTD SVG 1.1//EN" "http://www.w3.org/Graphics/SVG/1.1/DTD/svg11.dtd">
<svg version="1.1" id="Layer_1" xmlns="http://www.w3.org/2000/svg" xmlns:xlink="http://www.w3.org/1999/xlink" x="0px" y="0px"
	 width="500px" height="500px" viewBox="0 0 500 500" enable-background="new 0 0 500 500" xml:space="preserve">
<g>
	<path fill="#D53032" d="M483.834,299.272c0-23.574-9.182-45.737-25.852-62.406c-4.616-4.619-9.658-8.66-15.034-12.092
		c3.705-18.355,3.43-37.422-0.882-55.697c-5.214-22.07-16.216-42.48-31.816-59.025c-0.863-0.916-1.766-1.847-2.69-2.77
		c-4.809-4.813-12.604-4.813-17.416-0.006c-4.813,4.808-4.814,12.606-0.006,17.417c0.752,0.754,1.488,1.511,2.189,2.255
		c22.063,23.396,32.038,55.908,27.447,87.414c-7.771-2.203-15.896-3.346-24.196-3.346c-19.673,0-38.363,6.393-53.698,18.196
		c-15.334-11.802-34.022-18.196-53.694-18.196c-23.573,0-45.738,9.18-62.406,25.849c-2.531,2.529-4.931,5.238-7.132,8.047
		c-4.196,5.354-3.256,13.094,2.097,17.291c5.355,4.196,13.095,3.256,17.291-2.098c1.593-2.031,3.328-3.99,5.161-5.823
		c12.018-12.016,27.994-18.633,44.99-18.633c16.992,0,32.971,6.618,44.988,18.633c2.309,2.31,5.441,3.609,8.706,3.609
		c3.267,0,6.398-1.3,8.709-3.609c12.018-12.016,27.993-18.633,44.989-18.633c9.662,0,18.996,2.142,27.461,6.198
		c0.124,0.066,0.256,0.125,0.385,0.187c6.272,3.058,12.061,7.17,17.142,12.249c12.017,12.018,18.636,27.993,18.636,44.99
		c0,16.992-6.619,32.972-18.636,44.988l-98.686,98.684l-51.987-51.99c-0.005-0.002-0.007-0.006-0.01-0.009
		c-0.004-0.004-0.006-0.005-0.009-0.009l-46.678-46.676c-1.612-1.613-3.152-3.324-4.576-5.089
		c-4.274-5.291-12.028-6.114-17.32-1.844c-5.291,4.275-6.117,12.029-1.843,17.32c1.969,2.439,4.095,4.804,6.322,7.03l37.978,37.978
		l-30.902,30.902L75.569,273.274c-40.962-40.963-40.961-107.614,0-148.578c40.964-40.962,107.614-40.962,148.577,0
		c4.81,4.81,12.609,4.809,17.417,0c18.742-18.744,43.642-29.643,70.109-30.689c6.798-0.269,12.088-5.996,11.819-12.793
		c-0.267-6.797-6.007-12.085-12.792-11.82c-28.731,1.135-55.961,11.672-77.846,29.927c-50.899-42.453-126.943-39.8-174.703,7.958
		c-24.494,24.495-37.986,57.065-37.986,91.706c0,34.643,13.491,67.211,37.986,91.708l165.995,165.992
		c2.404,2.406,5.558,3.607,8.708,3.607c3.151,0,6.305-1.204,8.709-3.607l39.611-39.611l51.999,51.997
		c2.405,2.405,5.558,3.61,8.706,3.61c3.154,0,6.306-1.205,8.709-3.61l107.394-107.392
		C474.652,345.01,483.834,322.846,483.834,299.272z"/>
	<path fill="#D53032" d="M214.267,277.906c-6.753-0.81-12.887,4.002-13.7,10.754c-0.9,7.465-0.846,15.027,0.159,22.476
		c0.836,6.184,6.12,10.671,12.189,10.671c0.55,0,1.105-0.036,1.665-0.112c6.741-0.911,11.467-7.113,10.557-13.853
		c-0.726-5.382-0.766-10.844-0.116-16.232C225.834,284.854,221.02,278.721,214.267,277.906z"/>
	<path fill="#D53032" d="M347.473,98.771c5.48,1.724,10.852,3.915,15.961,6.512c1.787,0.908,3.69,1.338,5.568,1.338
		c4.489,0,8.816-2.463,10.992-6.74c3.079-6.065,0.66-13.478-5.403-16.56c-6.317-3.209-12.956-5.917-19.729-8.046
		c-6.486-2.044-13.402,1.563-15.444,8.053C337.378,89.815,340.985,96.73,347.473,98.771z"/>
</g>
</svg>
