<?xml version="1.0" encoding="utf-8"?>
<!-- Generator: Adobe Illustrator 16.0.0, SVG Export Plug-In . SVG Version: 6.00 Build 0)  -->
<!DOCTYPE svg PUBLIC "-//W3C//DTD SVG 1.1//EN" "http://www.w3.org/Graphics/SVG/1.1/DTD/svg11.dtd">
<svg version="1.1" id="Layer_1" xmlns="http://www.w3.org/2000/svg" xmlns:xlink="http://www.w3.org/1999/xlink" x="0px" y="0px"
	 width="300px" height="300px" viewBox="0 0 300 300" enable-background="new 0 0 300 300" xml:space="preserve">
<g>
	
		<rect x="159.337" y="66.528" fill="none" stroke="#FCFCFC" stroke-width="6" stroke-linecap="round" stroke-linejoin="round" stroke-miterlimit="10" width="25.009" height="25.009"/>
	
		<rect x="111.7" y="66.528" fill="none" stroke="#FCFCFC" stroke-width="6" stroke-linecap="round" stroke-linejoin="round" stroke-miterlimit="10" width="25.009" height="25.009"/>
	
		<rect x="159.337" y="110.592" fill="none" stroke="#FCFCFC" stroke-width="6" stroke-linecap="round" stroke-linejoin="round" stroke-miterlimit="10" width="25.009" height="25.01"/>
	
		<rect x="111.7" y="110.592" fill="none" stroke="#FCFCFC" stroke-width="6" stroke-linecap="round" stroke-linejoin="round" stroke-miterlimit="10" width="25.009" height="25.01"/>
	
		<rect x="159.337" y="153.466" fill="none" stroke="#FCFCFC" stroke-width="6" stroke-linecap="round" stroke-linejoin="round" stroke-miterlimit="10" width="25.009" height="25.009"/>
	
		<rect x="111.7" y="153.466" fill="none" stroke="#FCFCFC" stroke-width="6" stroke-linecap="round" stroke-linejoin="round" stroke-miterlimit="10" width="25.009" height="25.009"/>
	
		<polyline fill="none" stroke="#FCFCFC" stroke-width="6" stroke-linecap="round" stroke-linejoin="round" stroke-miterlimit="10" points="
		167.673,243.975 167.673,204.675 128.373,204.675 128.373,243.975 	"/>
	<g>
		
			<rect x="245.083" y="95.11" fill="none" stroke="#FCFCFC" stroke-width="6" stroke-linecap="round" stroke-linejoin="round" stroke-miterlimit="10" width="22.627" height="22.627"/>
		
			<rect x="245.083" y="135.602" fill="none" stroke="#FCFCFC" stroke-width="6" stroke-linecap="round" stroke-linejoin="round" stroke-miterlimit="10" width="22.627" height="22.626"/>
		
			<rect x="245.083" y="174.9" fill="none" stroke="#FCFCFC" stroke-width="6" stroke-linecap="round" stroke-linejoin="round" stroke-miterlimit="10" width="22.627" height="21.438"/>
		<path fill="none" stroke="#FCFCFC" stroke-width="6" stroke-linecap="round" stroke-linejoin="round" stroke-miterlimit="10" d="
			M216.501,258.268h62.89c1.771,0,2.611-2.033,2.611-3.805v-9.893V66.757c0-1.771-0.841-2.612-2.611-2.612h-62.89"/>
		
			<polyline fill="none" stroke="#FCFCFC" stroke-width="6" stroke-linecap="round" stroke-linejoin="round" stroke-miterlimit="10" points="
			216.501,196.338 226.027,196.338 226.027,174.9 216.501,174.9 		"/>
		
			<rect x="245.083" y="210.63" fill="none" stroke="#FCFCFC" stroke-width="6" stroke-linecap="round" stroke-linejoin="round" stroke-miterlimit="10" width="22.627" height="21.437"/>
		
			<polyline fill="none" stroke="#FCFCFC" stroke-width="6" stroke-linecap="round" stroke-linejoin="round" stroke-miterlimit="10" points="
			216.501,232.066 226.027,232.066 226.027,210.63 216.501,210.63 		"/>
		
			<polyline fill="none" stroke="#FCFCFC" stroke-width="6" stroke-linecap="round" stroke-linejoin="round" stroke-miterlimit="10" points="
			216.501,158.229 226.027,158.229 226.027,135.602 216.501,135.602 		"/>
		
			<polyline fill="none" stroke="#FCFCFC" stroke-width="6" stroke-linecap="round" stroke-linejoin="round" stroke-miterlimit="10" points="
			216.501,117.737 226.027,117.737 226.027,95.11 216.501,95.11 		"/>
	</g>
	<g>
		
			<rect x="34.29" y="112.974" fill="none" stroke="#FCFCFC" stroke-width="6" stroke-linecap="round" stroke-linejoin="round" stroke-miterlimit="10" width="19.055" height="19.055"/>
		
			<rect x="34.29" y="147.51" fill="none" stroke="#FCFCFC" stroke-width="6" stroke-linecap="round" stroke-linejoin="round" stroke-miterlimit="10" width="19.055" height="19.055"/>
		
			<rect x="34.29" y="182.048" fill="none" stroke="#FCFCFC" stroke-width="6" stroke-linecap="round" stroke-linejoin="round" stroke-miterlimit="10" width="19.055" height="17.863"/>
		<path fill="none" stroke="#FCFCFC" stroke-width="6" stroke-linecap="round" stroke-linejoin="round" stroke-miterlimit="10" d="
			M78.354,258.268H26.003c-1.527,0-4.813-3.123-4.813-4.647V91.802c0-1.528,3.285-1.456,4.813-1.456h53.542"/>
		
			<polyline fill="none" stroke="#FCFCFC" stroke-width="6" stroke-linecap="round" stroke-linejoin="round" stroke-miterlimit="10" points="
			79.544,199.911 70.017,199.911 70.017,182.048 79.544,182.048 		"/>
		
			<rect x="34.29" y="211.82" fill="none" stroke="#FCFCFC" stroke-width="6" stroke-linecap="round" stroke-linejoin="round" stroke-miterlimit="10" width="19.055" height="19.055"/>
		
			<polyline fill="none" stroke="#FCFCFC" stroke-width="6" stroke-linecap="round" stroke-linejoin="round" stroke-miterlimit="10" points="
			78.354,230.875 70.017,230.875 70.017,211.82 78.354,211.82 		"/>
		
			<polyline fill="none" stroke="#FCFCFC" stroke-width="6" stroke-linecap="round" stroke-linejoin="round" stroke-miterlimit="10" points="
			79.544,166.564 70.017,166.564 70.017,147.51 78.354,147.51 		"/>
		
			<polyline fill="none" stroke="#FCFCFC" stroke-width="6" stroke-linecap="round" stroke-linejoin="round" stroke-miterlimit="10" points="
			78.354,132.029 70.017,132.029 70.017,112.974 79.544,112.974 		"/>
	</g>
	<path fill="none" stroke="#FCFCFC" stroke-width="6" stroke-linecap="round" stroke-linejoin="round" stroke-miterlimit="10" d="
		M202.209,46.282c0-1.974-1.6-3.573-3.572-3.573H97.409c-1.974,0-3.573,1.599-3.573,3.573v208.411c0,1.974,1.599,3.572,3.573,3.572
		h101.228c1.975,0,3.572,0.782,3.572-1.189V46.282z"/>
</g>
<line fill="none" stroke="#FCFCFC" stroke-width="6" stroke-linecap="round" stroke-linejoin="round" stroke-miterlimit="10" x1="84.309" y1="42.709" x2="211.736" y2="42.709"/>
<line fill="none" stroke="#FCFCFC" stroke-width="6" stroke-linecap="round" stroke-linejoin="round" stroke-miterlimit="10" x1="12.853" y1="90.346" x2="79.544" y2="90.346"/>
<line fill="none" stroke="#FCFCFC" stroke-width="6" stroke-linecap="round" stroke-linejoin="round" stroke-miterlimit="10" x1="222.455" y1="64.146" x2="289.146" y2="64.146"/>
</svg>
