<?xml version="1.0" encoding="utf-8"?>
<!-- Generator: Adobe Illustrator 16.0.0, SVG Export Plug-In . SVG Version: 6.00 Build 0)  -->
<!DOCTYPE svg PUBLIC "-//W3C//DTD SVG 1.1//EN" "http://www.w3.org/Graphics/SVG/1.1/DTD/svg11.dtd">
<svg version="1.1" id="Capa_1" xmlns="http://www.w3.org/2000/svg" xmlns:xlink="http://www.w3.org/1999/xlink" x="0px" y="0px"
	 width="500px" height="500px" viewBox="56 146 500 500" enable-background="new 56 146 500 500" xml:space="preserve">
<g>
	<path fill="#2193A8" d="M521.915,188.082h-55.978v-23.99c0-4.422-3.575-7.997-7.997-7.997h-55.978
		c-4.423,0-7.997,3.575-7.997,7.997v23.99H218.034v-23.99c0-4.422-3.574-7.997-7.997-7.997H154.06c-4.422,0-7.997,3.575-7.997,7.997
		v23.99H90.085c-4.422,0-7.997,3.575-7.997,7.997v87.965v343.865c0,4.422,3.575,7.997,7.997,7.997h431.83
		c4.423,0,7.997-3.575,7.997-7.997V284.044v-87.965C529.912,191.656,526.338,188.082,521.915,188.082z M409.959,172.088h39.984
		v23.991v23.991h-39.984v-23.991V172.088z M162.057,172.088h39.984v23.991v23.991h-39.984v-23.991V172.088z M98.082,204.076h47.981
		v23.99c0,4.422,3.575,7.997,7.997,7.997h55.978c4.422,0,7.997-3.575,7.997-7.997v-23.99h175.932v23.99
		c0,4.422,3.574,7.997,7.997,7.997h55.978c4.422,0,7.997-3.575,7.997-7.997v-23.99h47.98v71.971H98.082V204.076z M98.082,619.912
		V292.041h415.836v327.872H98.082z"/>
	<path fill="#2193A8" d="M369.975,340.022h-55.978h-15.994h-55.978h-15.994H154.06v71.972v15.993v55.979v15.993v71.973h71.972
		h15.994h55.978h15.994h55.978h15.994h71.972v-71.973v-15.993v-55.979v-15.993v-71.972h-71.972H369.975z M313.997,356.016h55.978
		v55.979h-55.978V356.016z M369.975,483.966h-55.978v-55.979h55.978V483.966z M242.025,427.987h55.978v55.979h-55.978V427.987z
		 M242.025,356.016h55.978v55.979h-55.978V356.016z M170.053,356.016h55.978v55.979h-55.978V356.016z M170.053,427.987h55.978
		v55.979h-55.978V427.987z M226.031,555.938h-55.978v-55.979h55.978V555.938z M298.003,555.938h-55.978v-55.979h55.978V555.938z
		 M369.975,555.938h-55.978v-55.979h55.978V555.938z M441.947,555.938h-55.979v-55.979h55.979V555.938z M441.947,483.966h-55.979
		v-55.979h55.979V483.966z M441.947,356.016v55.979h-55.979v-55.979H441.947z"/>
</g>
</svg>
