<?xml version="1.0" encoding="utf-8"?>
<!-- Generator: Adobe Illustrator 16.0.0, SVG Export Plug-In . SVG Version: 6.00 Build 0)  -->
<!DOCTYPE svg PUBLIC "-//W3C//DTD SVG 1.1//EN" "http://www.w3.org/Graphics/SVG/1.1/DTD/svg11.dtd">
<svg version="1.1" id="Layer_1" xmlns="http://www.w3.org/2000/svg" xmlns:xlink="http://www.w3.org/1999/xlink" x="0px" y="0px"
	 width="500px" height="500px" viewBox="0 0 500 500" enable-background="new 0 0 500 500" xml:space="preserve">
<g>
	<g>
		<path fill-rule="evenodd" clip-rule="evenodd" fill="none" d="M79.658,381.59l150.84,23.519l-84.025,13.098l-69.823-12.543
			c-6.682-1.202-11.727-6.319-11.063-11.614l0.602-4.814C66.85,383.938,72.906,380.539,79.658,381.59L79.658,381.59z
			 M314.532,418.206l23.936,3.734c6.753,1.051,11.725,6.353,11.066,11.61l-1.354,10.832c-0.658,5.258-6.791,8.844-13.473,7.644
			l-104.204-18.72L314.532,418.206z"/>
		<path fill-rule="evenodd" clip-rule="evenodd" fill="none" d="M381.463,381.571l-258.813,40.351
			c-6.751,1.051-11.721,6.354-11.065,11.611l1.354,10.83c0.656,5.258,6.786,8.848,13.472,7.645l258.059-46.367
			c6.684-1.2,11.728-6.315,11.063-11.611l-0.602-4.813C394.27,383.92,388.213,380.519,381.463,381.571z"/>
		<path fill-rule="evenodd" clip-rule="evenodd" fill="none" d="M232.269,399.851c-109.818,0-198.843-65.918-198.843-147.233
			c0-46.402,38.22-93.502,64.362-135.385l30.973,49.473l84.408-134.835l70.005,111.828l50.161-80.122
			c22.573,36.79,60.172,86.464,81.425,133.527C460.331,298.034,382.149,399.851,232.269,399.851z"/>
		<path fill-rule="evenodd" clip-rule="evenodd" fill="none" d="M232.269,399.851h-0.565c46.376-0.021,81.659-15.689,101.812-39.113
			c53.818-38.823,72.791-101.393,44.688-163.634c-16.114-35.681-41.623-72.864-62.855-104.795l17.987-28.731
			c22.573,36.79,60.172,86.464,81.425,133.527C460.331,298.034,382.149,399.851,232.269,399.851z"/>
		<path fill-rule="evenodd" clip-rule="evenodd" fill="none" d="M231.617,399.851c-67.983,0-123.095-40.539-123.095-90.549
			c0-28.538,23.661-57.503,39.846-83.261l19.172,30.427l52.253-82.924l43.336,68.774l31.052-49.276
			c13.976,22.625,37.252,53.178,50.406,82.121C372.798,337.234,324.399,399.851,231.617,399.851z"/>
	</g>
</g>
<g>
	<path fill="#D53032" d="M456.619,181.302c-2.793-6.183-5.897-12.572-9.228-18.985c-1.88-3.62-6.341-5.034-9.963-3.155
		c-3.62,1.88-5.03,6.341-3.155,9.962c3.212,6.177,6.196,12.323,8.88,18.261c25.686,56.886,18.494,115.989-19.729,162.151
		c-2.604,3.146-2.166,7.803,0.976,10.403c3.148,2.609,7.809,2.159,10.403-0.977C476.148,309.031,484.303,242.615,456.619,181.302z"
		/>
	<path fill="#D53032" d="M428.361,194.062c-21.561-47.752-59.36-97.682-81.858-134.35c-2.986-4.861-9.818-4.44-12.563-0.056
		l-43.896,70.118c-68.9-110.063-64.273-105.292-70.005-105.292c-2.545,0-4.912,1.31-6.262,3.468l-78.146,124.83l-24.711-39.469
		c-1.35-2.157-3.717-3.466-6.262-3.466c-2.465-0.104-4.919,1.314-6.267,3.476c-25.897,41.487-65.483,90.439-65.483,139.293
		c0,52.541,35.161,99.018,88.737,126.974c-0.002,0-33.978-5.3-33.978-5.3c-10.873-1.685-20.744,4.475-21.941,14.027l-0.603,4.817
		c-1.146,9.177,6.362,17.873,17.09,19.8l35.55,6.389c-4.669,3.824-7.354,9.4-6.64,15.128c1.331,10.645,0.893,16.395,7.758,21.443
		c9.08,6.678,8.022,4.768,118.495-15.081c109.748,19.719,103.573,18.835,106.793,18.835c9.414,0,17.175-6.07,18.215-14.348
		c1.321-10.588,3.885-18.482-5.328-25.991l35.591-6.394c10.729-1.934,18.235-10.629,17.09-19.802l-0.605-4.813
		c-1.171-9.37-10.859-15.759-21.938-14.03l-23.091,3.602C431.069,340.2,461.921,268.385,428.361,194.062z M122.78,309.302
		c0-22.72,17.282-46.764,32.367-69.546l13.011,20.648c2.898,4.597,9.604,4.597,12.502,0l46.002-73l37.086,58.851
		c1.353,2.147,3.713,3.451,6.251,3.451s4.897-1.304,6.251-3.451l24.848-39.428c33.487,51.018,69.886,94.233,39.982,140.675
		C292.394,423.104,122.78,398.323,122.78,309.302z M80.388,390.15c0.142-1.049,3.742-1.457,5.003-1.26h-0.002l104.012,16.215
		l-35.983,5.61C71.368,395.969,79.222,399.47,80.388,390.15z M344.197,429.238c3.3,0.514,4.953,2.774,4.874,3.396l-1.354,10.832
		c-0.481,3.223-10.075,0.346-68.562-10.16l42.338-7.607L344.197,429.238z M389.465,388.872c2.967-0.469,4.941,0.778,5.008,1.26
		l0.598,4.813c0.079,0.614-1.587,2.803-5.038,3.423c-264.436,47.51-262.41,48.303-262.893,45.079l-1.354-10.831
		c-0.46-3.715-3.057-2.159,263.683-43.744H389.465z M337.284,374.442c29.733-26.935,37.825-65.103,20.898-102.339
		c-9.388-20.654-23.597-41.821-36.138-60.492c-5.402-8.054-10.51-15.657-14.709-22.452c-1.339-2.169-3.703-3.495-6.253-3.507
		c-0.01,0-0.019,0-0.032,0c-2.537,0-4.898,1.303-6.252,3.451L270,228.456l-37.085-58.851c-1.354-2.147-3.714-3.451-6.251-3.451
		s-4.897,1.304-6.251,3.451l-46.002,73c-13.581-21.547-13.894-23.953-19.172-23.953h-0.005c-5.184,0.006-5.655,2.836-15.736,17.953
		c-14.761,22.133-31.492,47.223-31.492,72.697c0,23.305,10.917,44.721,29.09,61.553c-53.671-24.802-89.411-68.518-89.411-118.24
		c0-40.464,31.417-82.288,56.915-121.554l24.77,39.562c2.89,4.622,9.631,4.622,12.524,0l78.146-124.828l63.747,101.826
		c1.347,2.156,3.714,3.468,6.258,3.468c2.547,0,4.912-1.312,6.266-3.468l43.908-70.14c22.751,35.474,55.592,80.397,74.679,122.665
		C448.058,273.589,411.672,343.428,337.284,374.442z"/>
	<path fill="#D53032" d="M424.924,152.24c1.372,2.37,3.854,3.695,6.406,3.695c1.257,0,2.525-0.322,3.688-0.992
		c3.532-2.04,4.747-6.558,2.708-10.092l-4.56-7.897c-2.043-3.534-6.567-4.738-10.094-2.704c-3.532,2.042-4.748,6.56-2.707,10.094
		L424.924,152.24z"/>
</g>
</svg>
