<svg width="64" height="64" xmlns="http://www.w3.org/2000/svg">

 <g>
  <title>background</title>
  <rect fill="none" id="canvas_background" height="402" width="582" y="-1" x="-1"/>
 </g>
 <g>
  <title>Layer 1</title>
  <path fill="#25c485" id="Fill-3" d="m55.5,18.8l-1.9,-1.9l-17.6,17.6c-2.2,2.2 -5.9,2.2 -8.1,0l-17.6,-17.5l-1.9,1.9l13.1,13.1l-13.1,13.1l1.9,1.9l13.1,-13.1l2.6,2.6c1.6,1.6 3.7,2.5 5.9,2.5s4.3,-0.9 5.9,-2.5l2.6,-2.6l13.1,13.1l1.9,-1.9l-13.1,-13.1l13.2,-13.2" class="st0"/>
  <path fill="#25c485" id="Fill-4" d="m51.8,50.4l-39.5,0c-2.3,0 -4.2,-1.9 -4.2,-4.2l0,-28.2c0,-2.3 1.9,-4.2 4.2,-4.2l39.5,0c2.3,0 4.2,1.9 4.2,4.2l0,28.2c0,2.3 -1.9,4.2 -4.2,4.2l0,0zm-39.6,-33.9c-0.8,0 -1.4,0.6 -1.4,1.4l0,28.2c0,0.8 0.6,1.4 1.4,1.4l39.5,0c0.8,0 1.4,-0.6 1.4,-1.4l0,-28.2c0,-0.8 -0.6,-1.4 -1.4,-1.4l-39.5,0l0,0z" class="st0"/>
 </g>
</svg>