<?xml version="1.0" encoding="utf-8"?>
<!-- Generator: Adobe Illustrator 13.0.0, SVG Export Plug-In . SVG Version: 6.00 Build 14948)  -->
<!DOCTYPE svg PUBLIC "-//W3C//DTD SVG 1.1//EN" "http://www.w3.org/Graphics/SVG/1.1/DTD/svg11.dtd">
<svg version="1.1" id="Layer_1" xmlns="http://www.w3.org/2000/svg" xmlns:xlink="http://www.w3.org/1999/xlink" x="0px" y="0px"
	 width="100px" height="100px" viewBox="0 0 100 100" enable-background="new 0 0 100 100" xml:space="preserve">
<g>
	<title>Layer 1</title>
	<path id="path9260" fill="none" stroke="#2193A8" stroke-width="4" d="M23.129,12.288c-2.308,0-4.167,1.858-4.167,4.167
		c0,0,0,44.444,0,66.667c0,2.084,2.083,4.166,4.167,4.166c6.944,0,20.833,0,20.833,0v-12.5c0-2.308,2.202-4.166,4.167-4.166h4.166
		c1.965,0,4.168,1.858,4.168,4.166c0,4.168,0,8.334,0,12.5c0,0,13.889,0,20.832,0c2.084,0,4.168-2.082,4.168-4.166
		c0-22.223,0-66.667,0-66.667c0-2.309-1.859-4.167-4.168-4.167H23.129z M31.462,24.788h12.5v8.333h-12.5V24.788z M56.463,24.788
		h12.5v8.333h-12.5V24.788z M31.462,49.788h12.5v8.333h-12.5V49.788z M56.463,49.788h12.5v8.333h-12.5V49.788z"/>
</g>
</svg>
