<?xml version="1.0" encoding="utf-8"?>
<!-- Generator: Adobe Illustrator 16.0.0, SVG Export Plug-In . SVG Version: 6.00 Build 0)  -->
<!DOCTYPE svg PUBLIC "-//W3C//DTD SVG 1.1//EN" "http://www.w3.org/Graphics/SVG/1.1/DTD/svg11.dtd">
<svg version="1.1" id="Layer_1" xmlns="http://www.w3.org/2000/svg" xmlns:xlink="http://www.w3.org/1999/xlink" x="0px" y="0px"
	 width="1436px" height="452px" viewBox="0 0 1436 452" enable-background="new 0 0 1436 452" xml:space="preserve">
<g>
	<path fill="#2273B9" d="M604.258,181.527c1.425,2.605,3.066,5.824,4.928,9.652c1.86,3.83,3.799,7.977,5.818,12.436
		c2.019,4.463,4.018,9.021,5.998,13.68c1.979,4.66,3.838,9.043,5.582,13.146c1.741-4.104,3.601-8.486,5.581-13.146
		c1.979-4.658,3.977-9.217,5.996-13.68c2.019-4.459,3.958-8.605,5.82-12.436c1.859-3.828,3.503-7.047,4.928-9.652h16.818
		c0.788,5.447,1.519,11.547,2.191,18.299c0.67,6.75,1.262,13.779,1.776,21.082c0.513,7.303,0.986,14.627,1.421,21.969
		c0.433,7.344,0.809,14.254,1.125,20.727h-18.002c-0.237-7.975-0.553-16.658-0.947-26.055c-0.396-9.396-0.988-18.871-1.776-28.426
		c-1.427,3.316-3.011,6.988-4.752,11.014c-1.743,4.027-3.466,8.055-5.169,12.082c-1.702,4.025-3.346,7.875-4.93,11.547
		s-2.931,6.811-4.04,9.416h-12.91c-1.11-2.605-2.456-5.744-4.04-9.416s-3.229-7.521-4.932-11.547
		c-1.703-4.027-3.426-8.055-5.167-12.082c-1.743-4.025-3.327-7.697-4.752-11.014c-0.79,9.555-1.382,19.029-1.776,28.426
		c-0.396,9.396-0.71,18.08-0.948,26.055h-18.002c0.314-6.473,0.69-13.383,1.125-20.727c0.433-7.342,0.907-14.666,1.421-21.969
		c0.512-7.303,1.104-14.332,1.776-21.082c0.67-6.752,1.401-12.852,2.191-18.299H604.258z"/>
	<path fill="#2273B9" d="M743.766,263.604c-0.915-2.852-1.895-5.781-2.946-8.785c-1.051-3.006-2.099-6-3.141-8.98h-32.056
		c-1.036,2.994-2.076,5.994-3.116,9.004c-1.042,3.008-2.012,5.932-2.909,8.762h-19.187c3.088-8.842,6.018-17.014,8.79-24.516
		c2.772-7.5,5.483-14.568,8.137-21.201c2.653-6.633,5.267-12.928,7.841-18.891c2.574-5.961,5.248-11.783,8.02-17.469h17.514
		c2.696,5.686,5.354,11.508,7.972,17.469c2.617,5.963,5.256,12.258,7.913,18.891c2.658,6.633,5.374,13.701,8.15,21.201
		c2.776,7.502,5.711,15.674,8.805,24.516H743.766z M721.568,200.121c-0.413,1.193-1.016,2.814-1.81,4.865
		c-0.794,2.053-1.697,4.424-2.711,7.113c-1.014,2.688-2.148,5.648-3.401,8.883c-1.253,3.232-2.526,6.623-3.82,10.17h23.471
		c-1.257-3.559-2.473-6.961-3.649-10.203c-1.177-3.242-2.297-6.207-3.355-8.898c-1.061-2.689-1.99-5.059-2.789-7.107
		S722.059,201.287,721.568,200.121z"/>
	<path fill="#2273B9" d="M795.887,181.527c1.425,2.605,3.066,5.824,4.928,9.652c1.86,3.83,3.799,7.977,5.818,12.436
		c2.019,4.463,4.018,9.021,5.998,13.68c1.979,4.66,3.838,9.043,5.582,13.146c1.741-4.104,3.601-8.486,5.581-13.146
		c1.979-4.658,3.977-9.217,5.996-13.68c2.019-4.459,3.958-8.605,5.82-12.436c1.859-3.828,3.503-7.047,4.928-9.652h16.818
		c0.788,5.447,1.519,11.547,2.191,18.299c0.67,6.75,1.262,13.779,1.776,21.082c0.513,7.303,0.986,14.627,1.421,21.969
		c0.433,7.344,0.809,14.254,1.125,20.727h-18.002c-0.237-7.975-0.553-16.658-0.947-26.055c-0.396-9.396-0.988-18.871-1.776-28.426
		c-1.427,3.316-3.011,6.988-4.752,11.014c-1.743,4.027-3.466,8.055-5.169,12.082c-1.702,4.025-3.346,7.875-4.93,11.547
		s-2.931,6.811-4.04,9.416h-12.91c-1.11-2.605-2.456-5.744-4.04-9.416s-3.229-7.521-4.932-11.547
		c-1.703-4.027-3.426-8.055-5.167-12.082c-1.743-4.025-3.327-7.697-4.752-11.014c-0.79,9.555-1.382,19.029-1.776,28.426
		c-0.396,9.396-0.71,18.08-0.948,26.055h-18.002c0.314-6.473,0.69-13.383,1.125-20.727c0.433-7.342,0.907-14.666,1.421-21.969
		c0.512-7.303,1.104-14.332,1.776-21.082c0.67-6.752,1.401-12.852,2.191-18.299H795.887z"/>
	<path fill="#2273B9" d="M917.758,265.262c-13.346,0-23.511-3.711-30.499-11.133c-6.988-7.42-10.481-17.961-10.481-31.623
		c0-6.789,1.066-12.85,3.198-18.18s5.052-9.83,8.764-13.502c3.71-3.672,8.132-6.455,13.265-8.35
		c5.132-1.895,10.698-2.842,16.7-2.842c3.473,0,6.633,0.256,9.475,0.77s5.33,1.105,7.461,1.775c2.133,0.672,3.908,1.363,5.33,2.074
		c1.422,0.709,2.447,1.264,3.08,1.658l-5.33,14.922c-2.527-1.342-5.469-2.486-8.824-3.434c-3.357-0.947-7.166-1.422-11.43-1.422
		c-2.842,0-5.625,0.475-8.35,1.422c-2.724,0.947-5.133,2.469-7.225,4.559c-2.092,2.094-3.771,4.797-5.033,8.113
		c-1.264,3.316-1.895,7.344-1.895,12.08c0,3.791,0.415,7.326,1.244,10.602c0.829,3.277,2.171,6.1,4.026,8.467
		c1.855,2.369,4.283,4.246,7.285,5.627c2.999,1.383,6.632,2.072,10.896,2.072c2.682,0,5.092-0.158,7.225-0.475
		c2.131-0.314,4.025-0.689,5.684-1.125c1.658-0.432,3.119-0.926,4.383-1.48c1.262-0.551,2.408-1.064,3.434-1.539l5.094,14.805
		c-2.605,1.58-6.277,3.002-11.016,4.264C929.482,264.629,923.994,265.262,917.758,265.262z"/>
	<path fill="#2273B9" d="M1006.584,181.527h18.477v82.076h-18.477v-34.82h-31.029v34.82h-18.477v-82.076h18.477v31.385h31.029
		V181.527z"/>
	<path fill="#2273B9" d="M1099.074,263.604c-0.914-2.852-1.896-5.781-2.947-8.785c-1.051-3.006-2.098-6-3.141-8.98h-32.055
		c-1.037,2.994-2.076,5.994-3.117,9.004c-1.041,3.008-2.012,5.932-2.908,8.762h-19.188c3.09-8.842,6.018-17.014,8.791-24.516
		c2.771-7.5,5.482-14.568,8.137-21.201s5.266-12.928,7.84-18.891c2.574-5.961,5.25-11.783,8.021-17.469h17.514
		c2.695,5.686,5.354,11.508,7.973,17.469c2.617,5.963,5.256,12.258,7.912,18.891c2.658,6.633,5.375,13.701,8.15,21.201
		c2.775,7.502,5.711,15.674,8.805,24.516H1099.074z M1076.875,200.121c-0.412,1.193-1.016,2.814-1.809,4.865
		c-0.795,2.053-1.697,4.424-2.711,7.113c-1.016,2.688-2.148,5.648-3.402,8.883c-1.252,3.232-2.525,6.623-3.818,10.17h23.471
		c-1.258-3.559-2.473-6.961-3.65-10.203c-1.176-3.242-2.297-6.207-3.355-8.898c-1.061-2.689-1.988-5.059-2.787-7.107
		C1078.012,202.895,1077.367,201.287,1076.875,200.121z"/>
	<path fill="#2273B9" d="M1184.475,263.604c-5.289-9.395-11.014-18.672-17.172-27.832c-6.16-9.158-12.715-17.805-19.662-25.938
		v53.77h-18.238v-82.076h15.041c2.605,2.605,5.486,5.803,8.646,9.594c3.156,3.789,6.375,7.836,9.652,12.139
		c3.275,4.305,6.533,8.766,9.771,13.385c3.236,4.619,6.277,9.061,9.119,13.324v-48.441h18.357v82.076H1184.475z"/>
	<path fill="#2273B9" d="M1290.83,222.506c0,7.107-1.105,13.307-3.316,18.596c-2.211,5.291-5.35,9.672-9.416,13.146
		s-9.021,6.08-14.863,7.816c-5.844,1.736-12.396,2.605-19.66,2.605c-3.316,0-7.186-0.139-11.607-0.414
		c-4.422-0.277-8.764-0.848-13.027-1.719v-79.943c4.264-0.789,8.705-1.322,13.324-1.6c4.619-0.275,8.586-0.414,11.902-0.414
		c7.027,0,13.402,0.789,19.129,2.369c5.723,1.58,10.639,4.066,14.744,7.461c4.105,3.396,7.264,7.738,9.475,13.027
		C1289.725,208.729,1290.83,215.086,1290.83,222.506z M1237.416,248.563c0.867,0.08,1.875,0.139,3.02,0.178
		c1.145,0.041,2.506,0.059,4.086,0.059c9.238,0,16.088-2.328,20.549-6.986s6.691-11.094,6.691-19.307
		c0-8.605-2.131-15.119-6.395-19.541s-11.016-6.633-20.254-6.633c-1.264,0-2.566,0.02-3.908,0.059
		c-1.344,0.041-2.605,0.139-3.789,0.297V248.563z"/>
</g>
<g>
	<path fill="#2273B9" d="M543.562,294.404h11.807v52.447h-11.807v-22.25h-19.829v22.25h-11.806v-52.447h11.806v20.055h19.829
		V294.404z"/>
	<path fill="#2273B9" d="M603.955,326.871c0,3.129-0.454,5.992-1.362,8.59c-0.908,2.6-2.221,4.818-3.936,6.66
		c-1.716,1.842-3.772,3.268-6.168,4.275c-2.397,1.01-5.083,1.514-8.06,1.514c-2.927,0-5.589-0.504-7.984-1.514
		c-2.397-1.008-4.454-2.434-6.168-4.275c-1.716-1.842-3.054-4.061-4.011-6.66c-0.959-2.598-1.438-5.461-1.438-8.59
		c0-3.127,0.492-5.979,1.476-8.553c0.984-2.572,2.346-4.768,4.087-6.584s3.809-3.229,6.206-4.238
		c2.396-1.008,5.007-1.514,7.833-1.514c2.876,0,5.512,0.506,7.909,1.514c2.396,1.01,4.452,2.422,6.168,4.238
		c1.715,1.816,3.052,4.012,4.011,6.584C603.475,320.893,603.955,323.744,603.955,326.871z M592.451,326.871
		c0-3.48-0.694-6.217-2.081-8.211c-1.388-1.992-3.368-2.99-5.941-2.99s-4.567,0.998-5.979,2.99c-1.413,1.994-2.119,4.73-2.119,8.211
		s0.706,6.244,2.119,8.287c1.412,2.043,3.406,3.064,5.979,3.064s4.553-1.021,5.941-3.064
		C591.757,333.115,592.451,330.352,592.451,326.871z"/>
	<path fill="#2273B9" d="M646.639,345.488c-1.918,0.557-4.39,1.072-7.417,1.553c-3.027,0.479-6.206,0.719-9.536,0.719
		c-3.381,0-6.194-0.455-8.438-1.363c-2.246-0.908-4.024-2.182-5.335-3.822c-1.313-1.639-2.246-3.594-2.8-5.865
		c-0.556-2.27-0.833-4.768-0.833-7.492v-22.174h11.276v20.813c0,3.633,0.479,6.256,1.438,7.871c0.958,1.615,2.75,2.422,5.374,2.422
		c0.807,0,1.665-0.039,2.573-0.115c0.908-0.074,1.714-0.162,2.422-0.264v-30.727h11.276V345.488z"/>
	<path fill="#2273B9" d="M668.662,338.754c2.068,0,3.531-0.201,4.39-0.605c0.857-0.404,1.287-1.186,1.287-2.348
		c0-0.908-0.556-1.701-1.665-2.383c-1.11-0.682-2.8-1.449-5.071-2.309c-1.767-0.654-3.368-1.336-4.806-2.043
		s-2.662-1.553-3.67-2.535c-1.01-0.984-1.792-2.158-2.346-3.52c-0.556-1.363-0.833-3.002-0.833-4.92
		c0-3.732,1.387-6.686,4.163-8.855c2.774-2.168,6.584-3.254,11.428-3.254c2.422,0,4.742,0.215,6.963,0.645
		c2.219,0.428,3.985,0.896,5.297,1.398l-1.967,8.779c-1.313-0.453-2.738-0.857-4.276-1.211c-1.54-0.352-3.267-0.529-5.184-0.529
		c-3.532,0-5.298,0.984-5.298,2.951c0,0.455,0.076,0.859,0.227,1.211c0.151,0.354,0.454,0.695,0.908,1.021
		c0.454,0.33,1.071,0.684,1.854,1.064c0.781,0.383,1.778,0.803,2.989,1.26c2.472,0.916,4.515,1.818,6.13,2.709
		c1.614,0.891,2.888,1.852,3.822,2.883c0.933,1.031,1.589,2.178,1.968,3.436s0.567,2.719,0.567,4.379
		c0,3.928-1.476,6.898-4.427,8.912c-2.952,2.012-7.127,3.02-12.525,3.02c-3.532,0-6.471-0.303-8.817-0.908s-3.973-1.109-4.881-1.514
		l1.892-9.156c1.917,0.756,3.884,1.35,5.903,1.777C664.7,338.539,666.694,338.754,668.662,338.754z"/>
	<path fill="#2273B9" d="M692.046,327.25c0-3.531,0.542-6.623,1.627-9.271c1.084-2.648,2.509-4.855,4.276-6.623
		c1.765-1.766,3.796-3.102,6.092-4.01c2.295-0.908,4.654-1.363,7.076-1.363c5.65,0,10.115,1.729,13.396,5.186
		c3.279,3.455,4.919,8.539,4.919,15.25c0,0.656-0.026,1.375-0.076,2.156c-0.051,0.783-0.102,1.475-0.151,2.08h-25.581
		c0.252,2.322,1.336,4.164,3.254,5.525c1.917,1.363,4.49,2.043,7.72,2.043c2.068,0,4.099-0.189,6.092-0.566
		c1.993-0.379,3.62-0.846,4.881-1.4l1.514,9.158c-0.605,0.303-1.413,0.605-2.422,0.908c-1.01,0.303-2.132,0.566-3.368,0.793
		c-1.237,0.229-2.562,0.416-3.973,0.568c-1.413,0.15-2.827,0.227-4.238,0.227c-3.583,0-6.698-0.529-9.347-1.588
		c-2.649-1.061-4.844-2.51-6.584-4.354c-1.741-1.84-3.027-4.021-3.86-6.545S692.046,330.176,692.046,327.25z M718.535,322.936
		c-0.051-0.957-0.215-1.893-0.492-2.801c-0.278-0.908-0.707-1.715-1.287-2.422c-0.581-0.705-1.313-1.285-2.195-1.74
		c-0.883-0.453-1.98-0.682-3.292-0.682c-1.262,0-2.346,0.217-3.254,0.645c-0.908,0.43-1.665,0.996-2.271,1.703
		s-1.072,1.525-1.4,2.459c-0.329,0.934-0.568,1.881-0.719,2.838H718.535z"/>
	<path fill="#2273B9" d="M790.281,345.488c-1.918,0.557-4.39,1.072-7.417,1.553c-3.027,0.479-6.206,0.719-9.536,0.719
		c-3.381,0-6.194-0.455-8.438-1.363c-2.246-0.908-4.024-2.182-5.335-3.822c-1.313-1.639-2.246-3.594-2.8-5.865
		c-0.556-2.27-0.833-4.768-0.833-7.492v-22.174h11.276v20.813c0,3.633,0.479,6.256,1.438,7.871c0.958,1.615,2.75,2.422,5.374,2.422
		c0.807,0,1.665-0.039,2.573-0.115c0.908-0.074,1.714-0.162,2.422-0.264v-30.727h11.276V345.488z"/>
	<path fill="#2273B9" d="M837.883,326.947c0,3.078-0.377,5.877-1.135,8.4c-0.756,2.523-1.867,4.691-3.33,6.508
		s-3.28,3.23-5.449,4.238c-2.17,1.01-4.667,1.514-7.492,1.514c-1.564,0-3.027-0.15-4.39-0.453s-2.675-0.73-3.936-1.287v14.984
		h-11.276v-52.447c1.009-0.303,2.168-0.592,3.481-0.869c1.311-0.277,2.687-0.518,4.125-0.721c1.438-0.199,2.901-0.365,4.39-0.49
		c1.487-0.127,2.914-0.189,4.276-0.189c3.279,0,6.206,0.492,8.779,1.475c2.573,0.984,4.742,2.373,6.509,4.164
		c1.764,1.791,3.113,3.973,4.049,6.545C837.416,320.893,837.883,323.768,837.883,326.947z M826.38,327.25
		c0-3.482-0.783-6.27-2.346-8.363c-1.564-2.094-3.886-3.141-6.963-3.141c-1.01,0-1.943,0.037-2.8,0.113
		c-0.858,0.076-1.564,0.164-2.119,0.266v20.357c0.706,0.455,1.627,0.832,2.763,1.135c1.135,0.303,2.282,0.455,3.443,0.455
		C823.705,338.072,826.38,334.465,826.38,327.25z"/>
	<path fill="#2273B9" d="M862.479,347.607c-3.28-0.051-5.94-0.404-7.984-1.059c-2.043-0.656-3.658-1.576-4.843-2.764
		c-1.187-1.184-1.994-2.621-2.422-4.313c-0.43-1.689-0.644-3.596-0.644-5.715v-43.82l11.276-1.816v43.367
		c0,1.01,0.076,1.918,0.228,2.725s0.44,1.488,0.87,2.043c0.428,0.555,1.046,1.01,1.854,1.361c0.806,0.354,1.892,0.582,3.254,0.682
		L862.479,347.607z"/>
	<path fill="#2273B9" d="M882.837,295.539c0,2.068-0.669,3.697-2.006,4.881c-1.337,1.186-2.913,1.779-4.729,1.779
		s-3.395-0.594-4.73-1.779c-1.337-1.184-2.006-2.813-2.006-4.881s0.669-3.695,2.006-4.881c1.336-1.186,2.914-1.779,4.73-1.779
		s3.393,0.594,4.729,1.779S882.837,293.471,882.837,295.539z M881.777,346.852h-11.276v-39.809h11.276V346.852z"/>
	<path fill="#2273B9" d="M909.627,288.121c2.119,0,4.062,0.217,5.828,0.645c1.766,0.43,3.128,0.846,4.087,1.248l-2.195,9.006
		c-1.01-0.453-2.107-0.795-3.292-1.021c-1.186-0.227-2.283-0.34-3.292-0.34c-1.362,0-2.511,0.189-3.443,0.566
		c-0.935,0.379-1.665,0.896-2.195,1.553c-0.529,0.656-0.908,1.438-1.135,2.346c-0.228,0.908-0.341,1.893-0.341,2.951v1.969h13.926
		v9.385h-13.926v30.424h-11.276v-41.928c0-5.146,1.449-9.234,4.352-12.262C899.624,289.635,903.925,288.121,909.627,288.121z"/>
	<path fill="#2273B9" d="M923.931,297.129l11.277-1.816v11.73h13.547v9.385h-13.547v14c0,2.373,0.416,4.264,1.248,5.676
		c0.833,1.414,2.51,2.119,5.033,2.119c1.211,0,2.46-0.113,3.746-0.34c1.287-0.227,2.46-0.541,3.52-0.945l1.589,8.779
		c-1.362,0.555-2.876,1.033-4.541,1.438c-1.665,0.402-3.708,0.605-6.13,0.605c-3.078,0-5.627-0.416-7.644-1.25
		c-2.019-0.832-3.633-1.992-4.844-3.48s-2.057-3.293-2.535-5.412c-0.48-2.119-0.72-4.465-0.72-7.037V297.129z"/>
	<path fill="#2273B9" d="M970.247,295.539c0,2.068-0.669,3.697-2.006,4.881c-1.337,1.186-2.913,1.779-4.729,1.779
		s-3.395-0.594-4.73-1.779c-1.337-1.184-2.006-2.813-2.006-4.881s0.669-3.695,2.006-4.881c1.336-1.186,2.914-1.779,4.73-1.779
		s3.393,0.594,4.729,1.779S970.247,293.471,970.247,295.539z M969.188,346.852h-11.276v-39.809h11.276V346.852z"/>
	<path fill="#2273B9" d="M979.782,308.404c1.917-0.555,4.39-1.07,7.417-1.551c3.027-0.479,6.206-0.719,9.535-0.719
		c3.38,0,6.193,0.441,8.438,1.324s4.023,2.131,5.336,3.746c1.312,1.615,2.244,3.531,2.801,5.752
		c0.554,2.221,0.832,4.691,0.832,7.416v22.479h-11.276v-21.115c0-3.633-0.48-6.207-1.438-7.721c-0.959-1.514-2.75-2.27-5.373-2.27
		c-0.808,0-1.665,0.037-2.573,0.113s-1.716,0.164-2.422,0.266v30.727h-11.276V308.404z"/>
	<path fill="#2273B9" d="M1058.718,341.855c0,6.51-1.653,11.34-4.957,14.494c-3.306,3.152-8.414,4.73-15.325,4.73
		c-2.422,0-4.844-0.217-7.266-0.645c-2.422-0.43-4.668-0.996-6.736-1.703l1.968-9.459c1.766,0.705,3.62,1.26,5.563,1.664
		s4.15,0.605,6.623,0.605c3.228,0,5.512-0.707,6.849-2.119c1.336-1.412,2.006-3.229,2.006-5.449v-1.438
		c-1.211,0.557-2.46,0.973-3.746,1.248c-1.287,0.279-2.688,0.418-4.201,0.418c-5.499,0-9.713-1.629-12.639-4.883
		c-2.927-3.254-4.39-7.807-4.39-13.66c0-2.926,0.454-5.588,1.362-7.984s2.233-4.453,3.974-6.168s3.872-3.039,6.396-3.973
		c2.521-0.934,5.373-1.4,8.552-1.4c1.362,0,2.763,0.063,4.2,0.189c1.438,0.125,2.863,0.291,4.276,0.49
		c1.412,0.203,2.762,0.443,4.049,0.721c1.286,0.277,2.434,0.566,3.443,0.869V341.855z M1033.97,325.66
		c0,6.309,2.547,9.461,7.644,9.461c1.16,0,2.245-0.152,3.255-0.455c1.009-0.303,1.866-0.654,2.573-1.059v-18.014
		c-0.556-0.1-1.211-0.188-1.968-0.264s-1.641-0.113-2.649-0.113c-2.978,0-5.197,0.982-6.659,2.951
		C1034.7,320.135,1033.97,322.633,1033.97,325.66z"/>
	<path fill="#2273B9" d="M1103.974,293.799c7.82,0,13.824,1.375,18.013,4.123c4.188,2.752,6.281,7.254,6.281,13.51
		c0,6.309-2.119,10.861-6.356,13.66c-4.238,2.801-10.293,4.201-18.164,4.201h-3.708v17.559h-11.807V295.16
		c2.573-0.504,5.298-0.857,8.174-1.059S1101.804,293.799,1103.974,293.799z M1104.73,303.863c-0.858,0-1.702,0.027-2.535,0.076
		c-0.832,0.051-1.551,0.102-2.156,0.152v15.135h3.708c4.087,0,7.164-0.555,9.233-1.664c2.068-1.109,3.103-3.18,3.103-6.207
		c0-1.463-0.265-2.672-0.795-3.633c-0.529-0.957-1.286-1.727-2.271-2.307c-0.983-0.58-2.183-0.984-3.595-1.211
		C1108.01,303.977,1106.445,303.863,1104.73,303.863z"/>
	<path fill="#2273B9" d="M1148.606,346.852c-2.582-5.045-5.204-10.949-7.862-17.711c-2.658-6.76-5.179-14.125-7.558-22.098h11.958
		c0.506,1.967,1.102,4.1,1.786,6.395c0.684,2.297,1.394,4.617,2.129,6.963c0.734,2.346,1.469,4.629,2.204,6.85
		s1.458,4.238,2.168,6.055c0.657-1.816,1.367-3.834,2.126-6.055s1.507-4.504,2.241-6.85s1.443-4.666,2.127-6.963
		c0.684-2.295,1.279-4.428,1.786-6.395h11.661c-2.379,7.973-4.896,15.338-7.553,22.098c-2.655,6.762-5.274,12.666-7.855,17.711
		H1148.606z"/>
	<path fill="#2273B9" d="M1178.973,297.129l11.277-1.816v11.73h13.547v9.385h-13.547v14c0,2.373,0.416,4.264,1.248,5.676
		c0.833,1.414,2.51,2.119,5.033,2.119c1.211,0,2.46-0.113,3.746-0.34c1.287-0.227,2.46-0.541,3.52-0.945l1.589,8.779
		c-1.362,0.555-2.876,1.033-4.541,1.438c-1.665,0.402-3.708,0.605-6.13,0.605c-3.078,0-5.627-0.416-7.644-1.25
		c-2.019-0.832-3.633-1.992-4.844-3.48s-2.057-3.293-2.535-5.412c-0.48-2.119-0.72-4.465-0.72-7.037V297.129z"/>
	<path fill="#2273B9" d="M1266.912,336.709v10.143h-35.04v-52.447h11.807v42.305H1266.912z"/>
	<path fill="#2273B9" d="M1273.345,297.129l11.277-1.816v11.73h13.547v9.385h-13.547v14c0,2.373,0.416,4.264,1.248,5.676
		c0.833,1.414,2.51,2.119,5.033,2.119c1.211,0,2.46-0.113,3.746-0.34c1.287-0.227,2.46-0.541,3.52-0.945l1.589,8.779
		c-1.362,0.555-2.876,1.033-4.541,1.438c-1.665,0.402-3.708,0.605-6.13,0.605c-3.078,0-5.627-0.416-7.644-1.25
		c-2.019-0.832-3.633-1.992-4.844-3.48s-2.057-3.293-2.535-5.412c-0.48-2.119-0.72-4.465-0.72-7.037V297.129z"/>
	<path fill="#2273B9" d="M1340.929,345.564c-1.01,0.303-2.17,0.594-3.481,0.871c-1.313,0.277-2.687,0.516-4.125,0.719
		c-1.438,0.201-2.901,0.365-4.389,0.492c-1.489,0.125-2.914,0.188-4.276,0.188c-3.28,0-6.206-0.479-8.779-1.438
		c-2.573-0.957-4.743-2.332-6.509-4.125c-1.767-1.789-3.115-3.959-4.049-6.508c-0.934-2.547-1.4-5.412-1.4-8.59
		c0-3.229,0.403-6.143,1.211-8.742c0.807-2.598,1.968-4.805,3.481-6.621s3.368-3.203,5.563-4.162
		c2.195-0.959,4.704-1.438,7.53-1.438c1.563,0,2.964,0.15,4.201,0.453c1.235,0.303,2.484,0.732,3.746,1.287v-18.014l11.276-1.816
		V345.564z M1315.424,326.645c0,3.48,0.782,6.281,2.347,8.4c1.563,2.119,3.884,3.178,6.962,3.178c1.009,0,1.942-0.037,2.801-0.113
		c0.857-0.076,1.563-0.162,2.119-0.264v-20.51c-0.707-0.455-1.627-0.834-2.763-1.137c-1.135-0.303-2.283-0.453-3.443-0.453
		C1318.098,315.746,1315.424,319.379,1315.424,326.645z"/>
</g>
<linearGradient id="SVGID_1_" gradientUnits="userSpaceOnUse" x1="392.5015" y1="41.2822" x2="128.485" y2="451.405">
	<stop  offset="0" style="stop-color:#47C1F1"/>
	<stop  offset="1" style="stop-color:#2273B9"/>
</linearGradient>
<path fill="url(#SVGID_1_)" d="M460.021,197.993L269.581,40.438c-3.929-3.252-9.614-3.25-13.543,0L65.599,197.993
	c-3.451,2.855-4.74,7.569-3.223,11.783c1.517,4.215,5.516,7.025,9.995,7.025h60.208v172.535c0,5.867,4.756,10.623,10.623,10.623
	h54.452c5.867,0,10.623-4.756,10.623-10.623s-4.756-10.623-10.623-10.623h-43.829V216.802h183.637
	c18.931,0,34.332,15.4,34.332,34.332v127.58H259.756c-11.226,0-20.357-9.131-20.357-20.357v-67.563
	c0-12.908,10.502-23.411,23.411-23.411c12.91,0,23.412,10.503,23.412,23.411v56.587c0,5.865,4.755,10.623,10.623,10.623
	c5.867,0,10.623-4.758,10.623-10.623v-56.587c0-24.625-20.032-44.657-44.658-44.657c-24.625,0-44.658,20.032-44.658,44.657v67.563
	c0,22.941,18.664,41.604,41.604,41.604h122.662c5.867,0,10.623-4.756,10.623-10.623l-0.001-138.203
	c0-30.646-24.932-55.579-55.578-55.579H101.877L262.81,62.411l160.934,133.144h-14.342c-5.867,0-10.622,4.757-10.622,10.623
	c0,5.868,4.755,10.624,10.622,10.624h43.847c4.48,0,8.479-2.811,9.995-7.025C464.762,205.563,463.472,200.849,460.021,197.993z"/>
</svg>
