<?xml version="1.0" encoding="utf-8"?>
<!-- Generator: Adobe Illustrator 13.0.0, SVG Export Plug-In . SVG Version: 6.00 Build 14948)  -->
<!DOCTYPE svg PUBLIC "-//W3C//DTD SVG 1.1//EN" "http://www.w3.org/Graphics/SVG/1.1/DTD/svg11.dtd">
<svg version="1.1" id="Layer_1" xmlns="http://www.w3.org/2000/svg" xmlns:xlink="http://www.w3.org/1999/xlink" x="0px" y="0px"
	 width="300px" height="300px" viewBox="0 0 300 300" enable-background="new 0 0 300 300" xml:space="preserve">
<g>
	<title>Layer 1</title>
	<path id="svg_3_8_" fill="#F39237" d="M284.092,57.157l-37.038,37.034c-3.425,3.432-8.157,5.548-13.381,5.548
		c-5.228,0-9.972-2.116-13.396-5.548l-8.93-8.92c-3.425-3.429-5.539-8.164-5.539-13.393c0-5.229,2.114-9.964,5.539-13.386
		l37.038-37.041c-22.644-8.872-49.384-4.168-67.68,14.128c-24.649,24.645-24.649,64.61,0,89.253
		c24.652,24.652,64.608,24.652,89.253,0C288.263,106.541,292.961,79.806,284.092,57.157z"/>
	<path id="svg_4_6_" fill="none" stroke="#2193A8" stroke-width="2" d="M85.391,171.359l-38.432,35.63
		c-6.794,6.305-11.112,15.252-11.301,25.25c-0.191,9.999,3.787,19.103,10.344,25.657l1.651,1.646
		c6.549,6.555,15.656,10.535,25.651,10.344c10.003-0.182,18.948-4.504,25.25-11.301l35.635-38.428L85.391,171.359z M83.713,244.146
		c-6.155,6.165-16.146,6.165-22.313,0c-6.158-6.16-6.158-16.15,0-22.311c6.167-6.165,16.158-6.165,22.313,0
		C89.873,227.995,89.873,237.985,83.713,244.146z"/>
	<path id="svg_6_4_" fill="none" stroke="#2193A8" stroke-width="2" d="M145.49,110.653c-2.439,0-4.649,0.985-6.248,2.579
		l-41.058,41.061c-1.599,1.6-2.582,3.813-2.582,6.245c0,2.442,0.985,4.651,2.582,6.248l91.93,91.934
		c14.802,14.788,38.769,14.786,53.56,0c14.789-14.789,14.789-38.761,0-53.558l-91.933-91.935
		C150.141,111.635,147.929,110.653,145.49,110.653z M208.415,235.068c2.457,2.457,2.457,6.474,0,8.931
		c-2.454,2.454-6.476,2.454-8.925,0l-80.328-80.33c-2.454-2.457-2.454-6.469,0-8.929c2.457-2.456,6.469-2.453,8.928,0
		L208.415,235.068z M228.947,214.543c2.453,2.455,2.453,6.472,0,8.926c-2.456,2.457-6.473,2.457-8.932,0l-80.323-80.333
		c-2.462-2.454-2.462-6.466,0-8.925c2.447-2.454,6.469-2.454,8.92,0.002L228.947,214.543z"/>
	<path id="svg_7_2_" fill="#F39237" d="M43.226,82.05l10.04-0.348l52.511,52.506l13.386-13.388L66.659,68.314l0.345-10.044
		c0.024-0.85-0.157-1.725-0.583-2.535c-0.429-0.813-1.056-1.455-1.783-1.913L30.955,32.613L17.562,45.996L38.78,79.688
		c0.451,0.725,1.1,1.342,1.906,1.773C41.497,81.898,42.369,82.079,43.226,82.05z"/>
</g>
</svg>
