<?xml version="1.0" encoding="utf-8"?>
<!-- Generator: Adobe Illustrator 16.0.0, SVG Export Plug-In . SVG Version: 6.00 Build 0)  -->
<!DOCTYPE svg PUBLIC "-//W3C//DTD SVG 1.1//EN" "http://www.w3.org/Graphics/SVG/1.1/DTD/svg11.dtd">
<svg version="1.1" id="Layer_1" xmlns="http://www.w3.org/2000/svg" xmlns:xlink="http://www.w3.org/1999/xlink" x="0px" y="0px"
	 width="300px" height="300px" viewBox="0 0 300 300" enable-background="new 0 0 300 300" xml:space="preserve">
<g>
	<path fill="#FF3F68" d="M15.3,242.236v-15.359l19.625-19.056c47.215-44.939,68.547-68.831,68.831-96.704
		c0-18.772-9.102-36.122-36.69-36.122c-16.781,0-30.718,8.533-39.251,15.644l-7.964-17.635
		c12.799-10.808,31.002-18.771,52.334-18.771c39.819,0,56.601,27.305,56.601,53.756c0,34.131-24.745,61.72-63.711,99.264
		l-14.79,13.652v0.569h83.052v20.763H15.3z"/>
	<path fill="#FF3F68" d="M175.715,224.602c5.404,0.569,11.661,0,20.194-0.853c14.505-1.991,28.157-7.964,38.682-17.919
		c12.229-11.093,21.047-27.305,24.46-49.205h-0.854c-10.238,12.515-25.029,19.909-43.517,19.909
		c-33.277,0-54.609-25.029-54.609-56.6c0-34.984,25.313-65.702,63.143-65.702c37.828,0,61.151,30.718,61.151,77.932
		c0,40.673-13.652,69.115-31.855,86.75c-14.222,13.937-33.847,22.469-53.757,24.744c-9.102,1.422-17.065,1.707-23.038,1.422V224.602
		z M184.816,118.228c0,23.038,13.937,39.251,35.553,39.251c16.781,0,29.865-8.249,36.406-19.341c1.422-2.275,2.275-5.12,2.275-9.102
		c0-31.571-11.661-55.747-37.828-55.747C199.891,73.289,184.816,92.061,184.816,118.228z"/>
</g>
</svg>
