<?xml version="1.0" encoding="utf-8"?>
<!-- Generator: Adobe Illustrator 16.0.0, SVG Export Plug-In . SVG Version: 6.00 Build 0)  -->
<!DOCTYPE svg PUBLIC "-//W3C//DTD SVG 1.1//EN" "http://www.w3.org/Graphics/SVG/1.1/DTD/svg11.dtd">
<svg version="1.1" id="Layer_1" xmlns="http://www.w3.org/2000/svg" xmlns:xlink="http://www.w3.org/1999/xlink" x="0px" y="0px"
	 width="500px" height="500px" viewBox="0 0 500 500" enable-background="new 0 0 500 500" xml:space="preserve">
<g id="Layer_1_1_">
	<g opacity="0.1">
		<path fill="#FCFCFC" d="M216.259,289.247h-87.471c-4.831,0-8.747,3.917-8.747,8.747v148.7h-17.494V245.512
			c0-4.831-3.917-8.747-8.747-8.747c-4.83,0-8.747,3.917-8.747,8.747v209.93c0,4.835,3.917,8.747,8.747,8.747h122.459
			c4.831,0,8.747-3.912,8.747-8.747V297.994C225.006,293.164,221.09,289.247,216.259,289.247z M137.535,306.741h69.977v139.953
			h-69.977V306.741z"/>
		<path fill="#FCFCFC" d="M190.018,367.971c-4.831,0-8.747,3.912-8.747,8.747s3.917,8.747,8.747,8.747s8.747-3.912,8.747-8.747
			S194.848,367.971,190.018,367.971z"/>
		<path fill="#FCFCFC" d="M286.234,201.776c0-24.114-19.621-43.735-43.734-43.735c-24.114,0-43.735,19.621-43.735,43.735
			c0,24.114,19.621,43.735,43.735,43.735C266.613,245.511,286.234,225.891,286.234,201.776z M242.5,175.535
			c11.387,0,21.005,7.333,24.635,17.494h-49.266C221.495,182.868,231.113,175.535,242.5,175.535z M217.869,210.523h49.266
			c-3.63,10.161-13.248,17.494-24.635,17.494C231.113,228.017,221.495,220.685,217.869,210.523z"/>
		<path fill="#FCFCFC" d="M251.247,411.706h52.481h52.482c4.835,0,8.747-3.912,8.747-8.747V297.994c0-4.83-3.912-8.747-8.747-8.747
			H251.247c-4.831,0-8.747,3.917-8.747,8.747v104.965C242.5,407.794,246.416,411.706,251.247,411.706z M347.465,306.741v87.471
			h-34.988v-61.229c0-4.834-3.911-8.746-8.746-8.746c-4.836,0-8.748,3.912-8.748,8.746v61.229h-34.987v-87.471H347.465z"/>
		<path fill="#FCFCFC" d="M415.032,201.588l-24.157-15.705c0.104-0.538,0.325-1.033,0.325-1.602v-69.977
			c4.835,0,8.747-3.917,8.747-8.747c0-4.83-3.912-8.747-8.747-8.747h-8.747h-34.988h-8.747c-4.835,0-8.747,3.917-8.747,8.747
			c0,4.83,3.912,8.747,8.747,8.747v26.241c0,4.831,3.912,8.747,8.747,8.747s8.747-3.917,8.747-8.747v-26.241h17.494v60.418
			l-110.363-71.736c-12.446-8.081-29.235-8.085-41.689,0.004l-151.69,98.597c-12.458,8.102-19.898,21.808-19.898,36.671v7.252
			c0,4.831,3.917,8.747,8.747,8.747s8.747-3.917,8.747-8.747v-7.252c0-8.918,4.463-17.145,11.938-22.005l151.686-98.592
			c6.766-4.391,15.88-4.386,22.628-0.004l151.689,98.597c7.056,4.587,11.429,12.173,11.898,20.51h-26.2
			c-4.835,0-8.747,3.917-8.747,8.747v201.184H251.247c-4.826,0-8.743,3.911-8.743,8.747c0,4.835,3.917,8.746,8.743,8.746H391.2
			c4.835,0,8.747-3.911,8.747-8.746V254.259h26.241c4.835,0,8.746-3.917,8.746-8.747v-7.252
			C434.936,223.396,427.495,209.69,415.032,201.588z"/>
	</g>
	<g>
		<path fill="#FCFCFC" d="M276.129,291.436h-87.471c-4.831,0-8.747,3.918-8.747,8.748v148.699h-17.494V247.7
			c0-4.831-3.917-8.747-8.747-8.747s-8.747,3.917-8.747,8.747v209.93c0,4.835,3.917,8.747,8.747,8.747h122.459
			c4.83,0,8.747-3.912,8.747-8.747V300.184C284.876,295.354,280.959,291.436,276.129,291.436z M197.405,308.93h69.977v139.953
			h-69.977V308.93z"/>
		<path fill="#FCFCFC" d="M249.888,370.159c-4.831,0-8.747,3.911-8.747,8.747c0,4.835,3.916,8.746,8.747,8.746
			c4.831,0,8.747-3.911,8.747-8.746C258.635,374.07,254.719,370.159,249.888,370.159z"/>
		<path fill="#FCFCFC" d="M346.105,203.965c0-24.114-19.621-43.735-43.735-43.735s-43.735,19.621-43.735,43.735
			c0,24.114,19.621,43.735,43.735,43.735S346.105,228.079,346.105,203.965z M302.37,177.724c11.387,0,21.005,7.333,24.635,17.494
			h-49.266C281.365,185.057,290.982,177.724,302.37,177.724z M277.739,212.712h49.266c-3.63,10.161-13.248,17.494-24.635,17.494
			C290.982,230.206,281.365,222.873,277.739,212.712z"/>
		<path fill="#FCFCFC" d="M311.117,413.895H363.6h52.482c4.835,0,8.747-3.911,8.747-8.746V300.184c0-4.83-3.912-8.748-8.747-8.748
			H311.117c-4.831,0-8.747,3.918-8.747,8.748v104.965C302.37,409.982,306.286,413.895,311.117,413.895z M407.335,308.93V396.4
			h-34.988v-61.229c0-4.835-3.912-8.747-8.747-8.747s-8.747,3.912-8.747,8.747V396.4h-34.987V308.93H407.335z"/>
		<path fill="#FCFCFC" d="M474.902,203.777l-24.157-15.705c0.104-0.538,0.325-1.033,0.325-1.602v-69.977
			c4.835,0,8.747-3.917,8.747-8.747S455.905,99,451.07,99h-8.747h-34.988h-8.747c-4.835,0-8.747,3.917-8.747,8.747
			s3.912,8.747,8.747,8.747v26.241c0,4.831,3.912,8.747,8.747,8.747s8.747-3.917,8.747-8.747v-26.241h17.494v60.418l-110.363-71.736
			c-12.446-8.081-29.234-8.085-41.689,0.004l-151.689,98.597c-12.458,8.102-19.898,21.808-19.898,36.671v7.252
			c0,4.831,3.917,8.747,8.747,8.747s8.747-3.916,8.747-8.747v-7.252c0-8.918,4.463-17.145,11.938-22.005l151.687-98.592
			c6.766-4.391,15.879-4.386,22.627-0.004l151.69,98.597c7.056,4.587,11.429,12.173,11.897,20.51H451.07
			c-4.835,0-8.747,3.917-8.747,8.747v201.183H311.117c-4.826,0-8.743,3.912-8.743,8.747s3.917,8.747,8.743,8.747H451.07
			c4.835,0,8.747-3.912,8.747-8.747V256.447h26.24c4.835,0,8.747-3.916,8.747-8.747v-7.252
			C494.806,225.585,487.365,211.879,474.902,203.777z"/>
	</g>
	
		<line fill="#38A1DA" stroke="#FCFCFC" stroke-width="12" stroke-miterlimit="10" x1="20.609" y1="471.739" x2="480.608" y2="471.739"/>
	<polygon fill="#FCFCFC" points="72.524,143.125 48.07,163.756 45.269,160.438 63.149,145.354 18.635,145.623 18.609,141.28 
		63.122,141.011 45.062,126.144 47.822,122.792 	"/>
	<polygon fill="#FCFCFC" points="75.448,283.096 50.994,303.727 48.192,300.408 66.073,285.323 21.559,285.593 21.532,281.25 
		66.046,280.979 47.986,266.111 50.746,262.762 	"/>
	<polygon fill="#FCFCFC" points="78.581,433.063 54.126,453.693 51.325,450.376 69.206,435.29 24.691,435.56 24.665,431.217 
		69.179,430.947 51.118,416.079 53.878,412.729 	"/>
</g>
<g id="Layer_2" display="none">
	<g display="inline">
		<path fill="#38A1DA" d="M143.938,142.938c-4.527,0-8.197,3.674-8.197,8.197v81.971c0,4.531,3.67,8.197,8.197,8.197h49.183
			c4.526,0,8.196-3.667,8.196-8.197v-81.971c0-4.523-3.67-8.197-8.196-8.197H143.938z M152.135,159.332h32.789v24.592h-32.789
			V159.332z M152.135,224.909v-24.592h32.789v24.592H152.135z"/>
		<path fill="#38A1DA" d="M283.289,233.105v-81.971c0-4.523-3.666-8.197-8.197-8.197h-49.183c-4.527,0-8.197,3.674-8.197,8.197
			v81.971c0,4.531,3.67,8.197,8.197,8.197h49.183C279.623,241.303,283.289,237.636,283.289,233.105z M234.105,159.332h32.79v24.592
			h-32.79V159.332L234.105,159.332z M234.105,224.909v-24.592h32.79v24.592H234.105z"/>
		<path fill="#38A1DA" d="M357.063,241.303c4.53,0,8.196-3.667,8.196-8.197v-81.971c0-4.523-3.666-8.197-8.196-8.197H307.88
			c-4.53,0-8.196,3.674-8.196,8.197v81.971c0,4.531,3.666,8.197,8.196,8.197H357.063z M316.077,224.909v-24.592h32.789v24.592
			H316.077z M316.077,159.332h32.789v24.592h-32.789V159.332z"/>
		<path fill="#38A1DA" d="M406.245,69.164H94.755c-4.527,0-8.197,3.674-8.197,8.197v32.788c0,4.531,3.67,8.197,8.197,8.197h8.197
			V421.64c0,4.531,3.67,8.197,8.197,8.197h278.702c4.531,0,8.197-3.666,8.197-8.197V142.938c0-4.522-3.666-8.197-8.197-8.197
			c-4.529,0-8.196,3.675-8.196,8.197v270.505H225.909v-114.76c4.527,0,8.197-3.668,8.197-8.197c0-4.522-3.67-8.196-8.197-8.196
			h-8.197h-73.774h-8.197c-4.527,0-8.197,3.674-8.197,8.196c0,4.529,3.67,8.197,8.197,8.197v114.76h-16.394V110.149
			c0-4.523-3.67-8.197-8.197-8.197h-8.197V85.558h295.096v16.394H143.934c-4.527,0-8.197,3.674-8.197,8.197
			c0,4.531,3.67,8.197,8.197,8.197h262.312c4.531,0,8.197-3.666,8.197-8.197V77.361C414.442,72.838,410.776,69.164,406.245,69.164z
			 M152.135,298.684h57.379v49.183h-8.197c-4.526,0-8.196,3.675-8.196,8.196c0,4.531,3.67,8.196,8.196,8.196h8.197v49.185h-57.379
			V298.684z"/>
		<path fill="#38A1DA" d="M250.5,380.652h8.197h98.363h8.197c4.531,0,8.197-3.666,8.197-8.196c0-4.521-3.666-8.197-8.197-8.197
			v-73.772c0-4.522-3.666-8.196-8.197-8.196h-98.363c-4.526,0-8.197,3.674-8.197,8.196v73.772c-4.526,0-8.197,3.677-8.197,8.197
			C242.303,376.986,245.974,380.652,250.5,380.652z M348.866,298.684v65.575h-32.789v-65.575H348.866z M266.895,298.684h32.789
			v65.575h-32.789V298.684z"/>
	</g>
</g>
</svg>
