<?xml version="1.0" encoding="utf-8"?>
<!-- Generator: Adobe Illustrator 16.0.0, SVG Export Plug-In . SVG Version: 6.00 Build 0)  -->
<!DOCTYPE svg PUBLIC "-//W3C//DTD SVG 1.1//EN" "http://www.w3.org/Graphics/SVG/1.1/DTD/svg11.dtd">
<svg version="1.1" id="Layer_1" xmlns="http://www.w3.org/2000/svg" xmlns:xlink="http://www.w3.org/1999/xlink" x="0px" y="0px"
	 width="500px" height="500px" viewBox="0 0 500 500" enable-background="new 0 0 500 500" xml:space="preserve">
<g id="Layer_1_1_">
	<g opacity="0.1">
		<path fill="#FCFCFC" d="M224.259,289.247h-87.471c-4.831,0-8.747,3.917-8.747,8.747v148.7h-17.494V245.512
			c0-4.831-3.917-8.747-8.747-8.747c-4.83,0-8.747,3.917-8.747,8.747v209.93c0,4.835,3.917,8.747,8.747,8.747h122.459
			c4.831,0,8.747-3.912,8.747-8.747V297.994C233.006,293.164,229.089,289.247,224.259,289.247z M145.535,306.741h69.977v139.953
			h-69.977V306.741z"/>
		<path fill="#FCFCFC" d="M198.018,367.971c-4.831,0-8.747,3.912-8.747,8.747s3.917,8.747,8.747,8.747s8.747-3.912,8.747-8.747
			S202.848,367.971,198.018,367.971z"/>
		<path fill="#FCFCFC" d="M294.234,201.776c0-24.114-19.621-43.735-43.734-43.735c-24.114,0-43.735,19.621-43.735,43.735
			c0,24.114,19.621,43.735,43.735,43.735C274.613,245.511,294.234,225.891,294.234,201.776z M250.5,175.535
			c11.387,0,21.005,7.333,24.635,17.494h-49.266C229.495,182.868,239.113,175.535,250.5,175.535z M225.869,210.523h49.266
			c-3.63,10.161-13.248,17.494-24.635,17.494C239.113,228.017,229.495,220.685,225.869,210.523z"/>
		<path fill="#FCFCFC" d="M259.247,411.706h52.481h52.482c4.835,0,8.747-3.912,8.747-8.747V297.994c0-4.83-3.912-8.747-8.747-8.747
			H259.247c-4.831,0-8.747,3.917-8.747,8.747v104.965C250.5,407.794,254.416,411.706,259.247,411.706z M355.465,306.741v87.471
			h-34.988v-61.229c0-4.834-3.911-8.746-8.746-8.746c-4.836,0-8.748,3.912-8.748,8.746v61.229h-34.987v-87.471H355.465z"/>
		<path fill="#FCFCFC" d="M423.032,201.588l-24.157-15.705c0.104-0.538,0.325-1.033,0.325-1.602v-69.977
			c4.835,0,8.747-3.917,8.747-8.747c0-4.83-3.912-8.747-8.747-8.747h-8.747h-34.988h-8.747c-4.835,0-8.747,3.917-8.747,8.747
			c0,4.83,3.912,8.747,8.747,8.747v26.241c0,4.831,3.912,8.747,8.747,8.747s8.747-3.917,8.747-8.747v-26.241h17.494v60.418
			l-110.363-71.736c-12.446-8.081-29.235-8.085-41.689,0.004l-151.69,98.597c-12.458,8.102-19.898,21.808-19.898,36.671v7.252
			c0,4.831,3.917,8.747,8.747,8.747s8.747-3.917,8.747-8.747v-7.252c0-8.918,4.463-17.145,11.938-22.005l151.686-98.592
			c6.766-4.391,15.88-4.386,22.628-0.004l151.689,98.597c7.056,4.587,11.429,12.173,11.898,20.51h-26.2
			c-4.835,0-8.747,3.917-8.747,8.747v201.184H259.247c-4.826,0-8.743,3.911-8.743,8.747c0,4.835,3.917,8.746,8.743,8.746H399.2
			c4.835,0,8.747-3.911,8.747-8.746V254.259h26.241c4.835,0,8.746-3.917,8.746-8.747v-7.252
			C442.936,223.396,435.495,209.69,423.032,201.588z"/>
	</g>
	<g>
		<path fill="#FCFCFC" d="M220.129,221.436h-87.471c-4.831,0-8.747,3.917-8.747,8.747v148.7h-17.494V177.7
			c0-4.831-3.917-8.747-8.747-8.747s-8.747,3.917-8.747,8.747v209.93c0,4.835,3.917,8.747,8.747,8.747h122.459
			c4.831,0,8.747-3.912,8.747-8.747V230.183C228.876,225.353,224.959,221.436,220.129,221.436z M141.405,238.93h69.977v139.953
			h-69.977V238.93z"/>
		<path fill="#FCFCFC" d="M193.888,300.159c-4.831,0-8.747,3.911-8.747,8.747c0,4.835,3.917,8.746,8.747,8.746
			c4.83,0,8.747-3.911,8.747-8.746C202.635,304.07,198.718,300.159,193.888,300.159z"/>
		<path fill="#FCFCFC" d="M290.105,133.965c0-24.114-19.621-43.735-43.735-43.735s-43.735,19.621-43.735,43.735
			c0,24.114,19.621,43.735,43.735,43.735S290.105,158.079,290.105,133.965z M246.37,107.724c11.387,0,21.005,7.333,24.635,17.494
			h-49.266C225.365,115.057,234.983,107.724,246.37,107.724z M221.739,142.712h49.266c-3.63,10.161-13.248,17.494-24.635,17.494
			C234.983,160.206,225.365,152.873,221.739,142.712z"/>
		<path fill="#FCFCFC" d="M255.117,343.895H307.6h52.482c4.835,0,8.747-3.912,8.747-8.746V230.183c0-4.83-3.912-8.747-8.747-8.747
			H255.117c-4.831,0-8.747,3.917-8.747,8.747v104.965C246.37,339.982,250.286,343.895,255.117,343.895z M351.335,238.93v87.47
			h-34.988v-61.229c0-4.835-3.912-8.747-8.747-8.747c-4.834,0-8.746,3.912-8.746,8.747V326.4h-34.988v-87.47H351.335z"/>
		<path fill="#FCFCFC" d="M418.902,133.777l-24.157-15.705c0.104-0.538,0.325-1.033,0.325-1.603V46.494
			c4.835,0,8.747-3.917,8.747-8.747S399.905,29,395.07,29h-8.747h-34.988h-8.747c-4.835,0-8.747,3.917-8.747,8.747
			s3.912,8.747,8.747,8.747v26.241c0,4.831,3.912,8.747,8.747,8.747s8.747-3.917,8.747-8.747V46.494h17.494v60.418L267.213,35.176
			c-12.445-8.081-29.235-8.085-41.689,0.004l-151.69,98.597c-12.458,8.102-19.898,21.808-19.898,36.671v7.252
			c0,4.831,3.917,8.747,8.747,8.747s8.747-3.917,8.747-8.747v-7.252c0-8.918,4.463-17.145,11.938-22.005l151.686-98.592
			c6.766-4.391,15.879-4.386,22.627-0.004l151.69,98.597c7.056,4.587,11.429,12.173,11.897,20.51H395.07
			c-4.835,0-8.747,3.917-8.747,8.747v201.183H255.117c-4.826,0-8.743,3.912-8.743,8.747s3.917,8.747,8.743,8.747H395.07
			c4.835,0,8.747-3.912,8.747-8.747V186.447h26.24c4.835,0,8.747-3.917,8.747-8.747v-7.252
			C438.806,155.585,431.365,141.879,418.902,133.777z"/>
	</g>
	
		<line fill="#38A1DA" stroke="#FCFCFC" stroke-width="12" stroke-miterlimit="10" x1="20.609" y1="471.739" x2="480.608" y2="471.739"/>
	<polygon fill="#FCFCFC" points="101.134,406.277 121.25,431.157 117.875,433.889 103.167,415.696 102.506,460.207 98.164,460.143 
		98.824,415.633 83.583,433.379 80.29,430.55 	"/>
	<polygon fill="#FCFCFC" points="241.134,406.277 261.25,431.157 257.875,433.889 243.167,415.696 242.506,460.207 238.164,460.143 
		238.824,415.633 223.583,433.379 220.29,430.55 	"/>
	<polygon fill="#FCFCFC" points="391.135,406.277 411.25,431.157 407.875,433.889 393.166,415.696 392.506,460.207 388.164,460.143 
		388.824,415.633 373.582,433.379 370.289,430.55 	"/>
</g>
<g id="Layer_2" display="none">
	<g display="inline">
		<path fill="#38A1DA" d="M143.938,142.938c-4.527,0-8.197,3.674-8.197,8.197v81.971c0,4.531,3.67,8.197,8.197,8.197h49.183
			c4.526,0,8.196-3.667,8.196-8.197v-81.971c0-4.523-3.67-8.197-8.196-8.197H143.938z M152.135,159.332h32.789v24.592h-32.789
			V159.332z M152.135,224.909v-24.592h32.789v24.592H152.135z"/>
		<path fill="#38A1DA" d="M283.289,233.105v-81.971c0-4.523-3.666-8.197-8.197-8.197h-49.183c-4.527,0-8.197,3.674-8.197,8.197
			v81.971c0,4.531,3.67,8.197,8.197,8.197h49.183C279.623,241.303,283.289,237.636,283.289,233.105z M234.105,159.332h32.79v24.592
			h-32.79V159.332L234.105,159.332z M234.105,224.909v-24.592h32.79v24.592H234.105z"/>
		<path fill="#38A1DA" d="M357.063,241.303c4.53,0,8.196-3.667,8.196-8.197v-81.971c0-4.523-3.666-8.197-8.196-8.197H307.88
			c-4.53,0-8.196,3.674-8.196,8.197v81.971c0,4.531,3.666,8.197,8.196,8.197H357.063z M316.077,224.909v-24.592h32.789v24.592
			H316.077z M316.077,159.332h32.789v24.592h-32.789V159.332z"/>
		<path fill="#38A1DA" d="M406.245,69.164H94.755c-4.527,0-8.197,3.674-8.197,8.197v32.788c0,4.531,3.67,8.197,8.197,8.197h8.197
			V421.64c0,4.531,3.67,8.197,8.197,8.197h278.702c4.531,0,8.197-3.666,8.197-8.197V142.938c0-4.522-3.666-8.197-8.197-8.197
			c-4.529,0-8.196,3.675-8.196,8.197v270.505H225.909v-114.76c4.527,0,8.197-3.668,8.197-8.197c0-4.522-3.67-8.196-8.197-8.196
			h-8.197h-73.774h-8.197c-4.527,0-8.197,3.674-8.197,8.196c0,4.529,3.67,8.197,8.197,8.197v114.76h-16.394V110.149
			c0-4.523-3.67-8.197-8.197-8.197h-8.197V85.558h295.096v16.394H143.934c-4.527,0-8.197,3.674-8.197,8.197
			c0,4.531,3.67,8.197,8.197,8.197h262.312c4.531,0,8.197-3.666,8.197-8.197V77.361C414.442,72.838,410.776,69.164,406.245,69.164z
			 M152.135,298.684h57.379v49.183h-8.197c-4.526,0-8.196,3.675-8.196,8.196c0,4.531,3.67,8.196,8.196,8.196h8.197v49.185h-57.379
			V298.684z"/>
		<path fill="#38A1DA" d="M250.5,380.652h8.197h98.363h8.197c4.531,0,8.197-3.666,8.197-8.196c0-4.521-3.666-8.197-8.197-8.197
			v-73.772c0-4.522-3.666-8.196-8.197-8.196h-98.363c-4.526,0-8.197,3.674-8.197,8.196v73.772c-4.526,0-8.197,3.677-8.197,8.197
			C242.303,376.986,245.974,380.652,250.5,380.652z M348.866,298.684v65.575h-32.789v-65.575H348.866z M266.895,298.684h32.789
			v65.575h-32.789V298.684z"/>
	</g>
</g>
</svg>
