<?xml version="1.0" encoding="utf-8"?>
<!-- Generator: Adobe Illustrator 16.0.0, SVG Export Plug-In . SVG Version: 6.00 Build 0)  -->
<!DOCTYPE svg PUBLIC "-//W3C//DTD SVG 1.1//EN" "http://www.w3.org/Graphics/SVG/1.1/DTD/svg11.dtd">
<svg version="1.1" xmlns="http://www.w3.org/2000/svg" xmlns:xlink="http://www.w3.org/1999/xlink" x="0px" y="0px" width="500px"
	 height="500px" viewBox="0 0 500 500" enable-background="new 0 0 500 500" xml:space="preserve">
<g id="Layer_1">
	
		<line fill="none" stroke="#38A1DA" stroke-width="12" stroke-miterlimit="10" x1="20.609" y1="461.739" x2="480.608" y2="461.739"/>
	<polygon fill="#B5B5B6" points="101.134,396.277 121.25,421.157 117.875,423.889 103.167,405.696 102.506,450.207 98.164,450.143 
		98.824,405.633 83.583,423.379 80.29,420.55 	"/>
	<polygon fill="#B5B5B6" points="241.134,396.277 261.25,421.157 257.875,423.889 243.167,405.696 242.506,450.207 238.164,450.143 
		238.824,405.633 223.583,423.379 220.29,420.55 	"/>
	<polygon fill="#B5B5B6" points="391.135,396.277 411.25,421.157 407.875,423.889 393.166,405.696 392.506,450.207 388.164,450.143 
		388.824,405.633 373.582,423.379 370.289,420.55 	"/>
	<g>
		<path fill="#38A1DA" d="M145.586,111.587c-4.372,0-7.916,3.548-7.916,7.916v79.165c0,4.375,3.544,7.915,7.916,7.915h47.499
			c4.372,0,7.917-3.541,7.917-7.915v-79.165c0-4.368-3.545-7.916-7.917-7.916H145.586z M153.503,127.419h31.666v23.749h-31.666
			V127.419z M153.503,190.751v-23.75h31.666v23.75H153.503z"/>
		<path fill="#38A1DA" d="M280.166,198.668v-79.165c0-4.368-3.546-7.916-7.917-7.916h-47.498c-4.373,0-7.917,3.548-7.917,7.916
			v79.165c0,4.375,3.544,7.915,7.917,7.915h47.498C276.62,206.583,280.166,203.042,280.166,198.668z M232.667,127.419h31.665v23.749
			h-31.665V127.419z M232.667,190.751v-23.75h31.665v23.75H232.667z"/>
		<path fill="#38A1DA" d="M351.414,206.583c4.371,0,7.916-3.541,7.916-7.915v-79.165c0-4.368-3.545-7.916-7.916-7.916h-47.499
			c-4.372,0-7.917,3.548-7.917,7.916v79.165c0,4.375,3.545,7.915,7.917,7.915H351.414z M311.831,190.751v-23.75h31.666v23.75
			H311.831z M311.831,127.419h31.666v23.749h-31.666V127.419z"/>
		<path fill="#38A1DA" d="M398.912,40.339H98.088c-4.372,0-7.917,3.548-7.917,7.917v31.666c0,4.376,3.545,7.916,7.917,7.916h7.917
			v292.908c0,4.376,3.544,7.916,7.917,7.916h269.158c4.372,0,7.916-3.54,7.916-7.916V111.587c0-4.369-3.544-7.917-7.916-7.917
			c-4.371,0-7.916,3.548-7.916,7.917v261.241H224.751v-110.83c4.372,0,7.916-3.54,7.916-7.916c0-4.367-3.544-7.916-7.916-7.916
			h-7.917h-71.248h-7.916c-4.373,0-7.917,3.549-7.917,7.916c0,4.376,3.544,7.916,7.917,7.916v110.83h-15.833V79.921
			c0-4.368-3.544-7.917-7.916-7.917h-7.917V56.172h284.991v15.833H145.583c-4.373,0-7.917,3.548-7.917,7.917
			c0,4.376,3.544,7.916,7.917,7.916h253.329c4.371,0,7.916-3.54,7.916-7.916V48.255C406.828,43.887,403.283,40.339,398.912,40.339z
			 M153.503,261.998h55.415v47.499h-7.916c-4.373,0-7.917,3.549-7.917,7.917c0,4.375,3.544,7.916,7.917,7.916h7.916v47.498h-55.415
			V261.998z"/>
		<path fill="#38A1DA" d="M248.5,341.163h7.916h94.998h7.916c4.372,0,7.916-3.542,7.916-7.917c0-4.368-3.544-7.916-7.916-7.916
			v-71.248c0-4.367-3.545-7.916-7.916-7.916h-94.998c-4.371,0-7.916,3.549-7.916,7.916v71.248c-4.372,0-7.917,3.548-7.917,7.916
			C240.583,337.621,244.128,341.163,248.5,341.163z M343.497,261.998v63.332h-31.666v-63.332H343.497z M264.332,261.998h31.666
			v63.332h-31.666V261.998z"/>
	</g>
	<g opacity="0.2">
		<path fill="#38A1DA" d="M145.586,181.587c-4.372,0-7.916,3.548-7.916,7.916v79.165c0,4.375,3.544,7.915,7.916,7.915h47.499
			c4.372,0,7.917-3.54,7.917-7.915v-79.165c0-4.368-3.545-7.916-7.917-7.916H145.586z M153.503,197.419h31.666v23.749h-31.666
			V197.419z M153.503,260.751v-23.75h31.666v23.75H153.503z"/>
		<path fill="#38A1DA" d="M280.166,268.668v-79.165c0-4.368-3.546-7.916-7.917-7.916h-47.498c-4.373,0-7.917,3.548-7.917,7.916
			v79.165c0,4.375,3.544,7.915,7.917,7.915h47.498C276.62,276.583,280.166,273.043,280.166,268.668z M232.667,197.419h31.665v23.749
			h-31.665V197.419z M232.667,260.751v-23.75h31.665v23.75H232.667z"/>
		<path fill="#38A1DA" d="M351.414,276.583c4.371,0,7.916-3.54,7.916-7.915v-79.165c0-4.368-3.545-7.916-7.916-7.916h-47.499
			c-4.372,0-7.917,3.548-7.917,7.916v79.165c0,4.375,3.545,7.915,7.917,7.915H351.414z M311.831,260.751v-23.75h31.666v23.75
			H311.831z M311.831,197.419h31.666v23.749h-31.666V197.419z"/>
		<path fill="#38A1DA" d="M398.912,110.339H98.088c-4.372,0-7.917,3.548-7.917,7.917v31.666c0,4.376,3.545,7.916,7.917,7.916h7.917
			v292.908c0,4.376,3.544,7.916,7.917,7.916h269.158c4.372,0,7.916-3.54,7.916-7.916V181.587c0-4.369-3.544-7.917-7.916-7.917
			c-4.371,0-7.916,3.548-7.916,7.917v261.241H224.751v-110.83c4.372,0,7.916-3.54,7.916-7.916c0-4.367-3.544-7.916-7.916-7.916
			h-7.917h-71.248h-7.916c-4.373,0-7.917,3.549-7.917,7.916c0,4.376,3.544,7.916,7.917,7.916v110.83h-15.833V149.921
			c0-4.368-3.544-7.917-7.916-7.917h-7.917v-15.833h284.991v15.833H145.583c-4.373,0-7.917,3.548-7.917,7.917
			c0,4.376,3.544,7.916,7.917,7.916h253.329c4.371,0,7.916-3.54,7.916-7.916v-31.666
			C406.828,113.887,403.283,110.339,398.912,110.339z M153.503,331.998h55.415v47.499h-7.916c-4.373,0-7.917,3.549-7.917,7.917
			c0,4.375,3.544,7.916,7.917,7.916h7.916v47.498h-55.415V331.998z"/>
		<path fill="#38A1DA" d="M248.5,411.163h7.916h94.998h7.916c4.372,0,7.916-3.542,7.916-7.917c0-4.368-3.544-7.916-7.916-7.916
			v-71.248c0-4.367-3.545-7.916-7.916-7.916h-94.998c-4.371,0-7.916,3.549-7.916,7.916v71.248c-4.372,0-7.917,3.548-7.917,7.916
			C240.583,407.621,244.128,411.163,248.5,411.163z M343.497,331.998v63.332h-31.666v-63.332H343.497z M264.332,331.998h31.666
			v63.332h-31.666V331.998z"/>
	</g>
</g>
<g id="Layer_2" display="none">
	<g display="inline">
		<path fill="#38A1DA" d="M143.938,142.938c-4.527,0-8.197,3.674-8.197,8.197v81.971c0,4.531,3.67,8.197,8.197,8.197h49.183
			c4.526,0,8.196-3.667,8.196-8.197v-81.971c0-4.523-3.67-8.197-8.196-8.197H143.938z M152.135,159.332h32.789v24.592h-32.789
			V159.332z M152.135,224.909v-24.592h32.789v24.592H152.135z"/>
		<path fill="#38A1DA" d="M283.289,233.105v-81.971c0-4.523-3.666-8.197-8.197-8.197h-49.183c-4.527,0-8.197,3.674-8.197,8.197
			v81.971c0,4.531,3.67,8.197,8.197,8.197h49.183C279.623,241.303,283.289,237.636,283.289,233.105z M234.105,159.332h32.789v24.592
			h-32.789V159.332z M234.105,224.909v-24.592h32.789v24.592H234.105z"/>
		<path fill="#38A1DA" d="M357.062,241.303c4.531,0,8.197-3.667,8.197-8.197v-81.971c0-4.523-3.666-8.197-8.197-8.197H307.88
			c-4.531,0-8.197,3.674-8.197,8.197v81.971c0,4.531,3.666,8.197,8.197,8.197H357.062z M316.077,224.909v-24.592h32.789v24.592
			H316.077z M316.077,159.332h32.789v24.592h-32.789V159.332z"/>
		<path fill="#38A1DA" d="M406.245,69.164H94.755c-4.527,0-8.197,3.674-8.197,8.197v32.788c0,4.531,3.67,8.197,8.197,8.197h8.197
			V421.64c0,4.531,3.67,8.197,8.197,8.197h278.702c4.531,0,8.197-3.666,8.197-8.197V142.938c0-4.522-3.666-8.197-8.197-8.197
			c-4.53,0-8.197,3.675-8.197,8.197v270.505H225.909v-114.76c4.527,0,8.197-3.667,8.197-8.197c0-4.522-3.67-8.196-8.197-8.196
			h-8.197h-73.774h-8.197c-4.527,0-8.197,3.674-8.197,8.196c0,4.53,3.67,8.197,8.197,8.197v114.76h-16.394V110.149
			c0-4.523-3.67-8.197-8.197-8.197h-8.197V85.558h295.096v16.394H143.934c-4.527,0-8.197,3.674-8.197,8.197
			c0,4.531,3.67,8.197,8.197,8.197h262.312c4.531,0,8.197-3.666,8.197-8.197V77.361C414.442,72.838,410.776,69.164,406.245,69.164z
			 M152.135,298.683h57.379v49.183h-8.197c-4.526,0-8.196,3.675-8.196,8.196c0,4.531,3.67,8.197,8.196,8.197h8.197v49.184h-57.379
			V298.683z"/>
		<path fill="#38A1DA" d="M250.5,380.653h8.197h98.364h8.197c4.531,0,8.197-3.666,8.197-8.197c0-4.521-3.666-8.197-8.197-8.197
			v-73.773c0-4.522-3.666-8.196-8.197-8.196h-98.364c-4.526,0-8.197,3.674-8.197,8.196v73.773c-4.526,0-8.197,3.676-8.197,8.197
			C242.303,376.987,245.974,380.653,250.5,380.653z M348.866,298.683v65.576h-32.789v-65.576H348.866z M266.895,298.683h32.788
			v65.576h-32.788V298.683z"/>
	</g>
</g>
</svg>
