<?xml version="1.0" encoding="utf-8"?>
<!-- Generator: Adobe Illustrator 13.0.0, SVG Export Plug-In . SVG Version: 6.00 Build 14948)  -->
<!DOCTYPE svg PUBLIC "-//W3C//DTD SVG 1.1//EN" "http://www.w3.org/Graphics/SVG/1.1/DTD/svg11.dtd">
<svg version="1.1" id="Layer_1" xmlns="http://www.w3.org/2000/svg" xmlns:xlink="http://www.w3.org/1999/xlink" x="0px" y="0px"
	 width="56.693px" height="56.693px" viewBox="0 0 56.693 56.693" enable-background="new 0 0 56.693 56.693" xml:space="preserve">
<g>
	<path fill="#8B8B8B" d="M19.667,25.787c-0.007,1.793,0,3.587,0.008,5.38c3.007,0.098,6.021,0.053,9.027,0.098
		c-1.326,6.67-10.399,8.832-15.199,4.477c-4.936-3.82-4.703-12.2,0.429-15.749c3.587-2.864,8.688-2.155,12.275,0.324
		c1.409-1.304,2.728-2.698,4.001-4.145c-2.984-2.381-6.646-4.077-10.542-3.896c-8.13-0.271-15.606,6.85-15.741,14.98
		c-0.52,6.646,3.851,13.165,10.022,15.515c6.149,2.366,14.031,0.754,17.958-4.77c2.592-3.489,3.149-7.98,2.848-12.2
		C29.72,25.764,24.693,25.771,19.667,25.787z"/>
	<path fill="#8B8B8B" d="M49.07,25.764c-0.015-1.5-0.022-3.007-0.03-4.506c-1.5,0-2.991,0-4.483,0
		c-0.015,1.5-0.03,2.999-0.038,4.506c-1.507,0.007-3.006,0.015-4.506,0.03c0,1.5,0,2.991,0,4.484c1.5,0.015,3.007,0.029,4.506,0.045
		c0.016,1.5,0.016,2.999,0.031,4.498c1.499,0,2.991,0,4.49,0c0.008-1.499,0.016-2.998,0.03-4.506
		c1.507-0.016,3.007-0.022,4.507-0.037c0-1.493,0-2.992,0-4.484C52.077,25.779,50.569,25.779,49.07,25.764z"/>
</g>
</svg>
