<?xml version="1.0" encoding="utf-8"?>
<!-- Generator: Adobe Illustrator 13.0.0, SVG Export Plug-In . SVG Version: 6.00 Build 14948)  -->
<!DOCTYPE svg PUBLIC "-//W3C//DTD SVG 1.1//EN" "http://www.w3.org/Graphics/SVG/1.1/DTD/svg11.dtd">
<svg version="1.1" id="Layer_1" xmlns="http://www.w3.org/2000/svg" xmlns:xlink="http://www.w3.org/1999/xlink" x="0px" y="0px"
	 width="509.039px" height="97.727px" viewBox="0 0 509.039 97.727" enable-background="new 0 0 509.039 97.727"
	 xml:space="preserve">
<g>
	<rect y="4.02" fill-rule="evenodd" clip-rule="evenodd" fill="#ED1C24" width="75.686" height="93.707"/>
	<g>
		<path d="M79.108,27h10.326v6.893c1.404-2.348,3.426-4.29,6.064-5.825c2.639-1.535,5.753-2.302,9.346-2.302h3.341v10.354h-2.589
			c-5.538,0-9.492,2.017-11.859,6.05c-2.368,4.034-3.632,8.348-3.792,12.943v31.063H79.108V27z"/>
	</g>
	<g>
		<path d="M131.988,57.943l29.468-16.285c-1.646-1.686-3.381-3.03-5.207-4.033c-1.827-1.003-4.686-1.505-8.579-1.505
			c-3.833,0-7.189,0.953-10.069,2.859c-2.88,1.907-5.087,4.495-6.622,7.766c-1.535,3.271-2.303,6.883-2.303,10.836
			c0.161,3.291,1.013,6.437,2.559,9.437c1.545,3,3.763,5.423,6.652,7.269c2.89,1.847,6.311,2.769,10.264,2.769
			c6-0.12,10.479-1.72,13.44-4.801c2.959-3.08,5.051-7.69,6.276-13.831l10.866,1.505c-0.061,2.87-0.758,5.88-2.092,9.03
			s-3.331,6.155-5.99,9.015c-2.659,2.859-5.95,5.172-9.873,6.938c-3.923,1.766-8.383,2.679-13.379,2.739
			c-5.218,0-10.149-1.345-14.794-4.034c-4.646-2.689-8.353-6.321-11.122-10.896c-2.769-4.575-4.154-9.501-4.154-14.779
			c0-5.358,0.908-10.088,2.724-14.192c1.816-4.104,4.229-7.485,7.239-10.144c3.01-2.659,6.295-4.63,9.857-5.915
			s7.069-1.926,10.521-1.926c6.762,0,12.446,1.53,17.052,4.59c4.605,3.06,8.573,7.781,11.905,14.162l-39.943,22.184L131.988,57.943z
			"/>
	</g>
	<g>
		<path d="M183.912,76.063h29.709c0.241,0,0.531,0.081,0.873,0.241c1.926-0.181,3.552-0.612,4.876-1.294
			c1.325-0.682,2.037-2.017,2.137-4.003c0-1.445-0.557-2.694-1.67-3.748c-1.114-1.054-2.529-1.937-4.244-2.649
			c-1.716-0.712-4.541-1.65-8.474-2.814c-3.933-1.164-6.04-1.786-6.321-1.866c-5.739-1.946-9.958-4.154-12.657-6.622
			c-2.699-2.468-4.109-5.899-4.229-10.294c0-5.879,1.997-9.998,5.99-12.356c3.993-2.358,8.739-3.537,14.238-3.537h25.495v10.354
			h-27.602c-2.167,0-3.837,0.472-5.012,1.415c-1.174,0.943-1.761,2.238-1.761,3.883c0.121,1.285,0.748,2.408,1.881,3.372
			c1.133,0.963,2.588,1.781,4.365,2.453c1.776,0.672,3.637,1.244,5.583,1.715c1.946,0.472,3.963,0.958,6.05,1.46
			c6.842,1.947,11.799,4.44,14.869,7.48c3.07,3.04,4.605,6.878,4.605,11.514c-0.722,10.274-7.134,15.411-19.234,15.411h-3.703
			h-25.766V76.063z"/>
	</g>
	<g>
		<path d="M237.318,76.063h29.709c0.241,0,0.531,0.081,0.873,0.241c1.926-0.181,3.552-0.612,4.876-1.294s2.036-2.017,2.137-4.003
			c0-1.445-0.557-2.694-1.67-3.748c-1.114-1.054-2.528-1.937-4.244-2.649c-1.716-0.712-4.541-1.65-8.474-2.814
			c-3.933-1.164-6.04-1.786-6.321-1.866c-5.739-1.946-9.958-4.154-12.657-6.622c-2.699-2.468-4.109-5.899-4.229-10.294
			c0-5.879,1.997-9.998,5.99-12.356c3.993-2.358,8.739-3.537,14.238-3.537h25.495v10.354h-27.603c-2.167,0-3.837,0.472-5.012,1.415
			c-1.174,0.943-1.761,2.238-1.761,3.883c0.121,1.285,0.748,2.408,1.881,3.372c1.133,0.963,2.588,1.781,4.365,2.453
			c1.776,0.672,3.637,1.244,5.583,1.715c1.946,0.472,3.963,0.958,6.05,1.46c6.843,1.947,11.799,4.44,14.869,7.48
			s4.605,6.878,4.605,11.514c-0.723,10.274-7.134,15.411-19.234,15.411h-3.702h-25.766V76.063z"/>
	</g>
	<g>
		<path d="M382.206,86.177V52.013c-0.16-2.99-1.033-5.693-2.618-8.112c-1.586-2.418-3.818-4.319-6.697-5.704
			c-2.88-1.385-6.267-2.077-10.159-2.077c-2.729,0-5.568,0.632-8.519,1.896s-5.474,3.397-7.57,6.396
			c-2.097,3-3.186,6.898-3.266,11.694c0,4.294,0.907,8.027,2.724,11.197c1.816,3.171,4.215,5.589,7.194,7.254
			c2.979,1.666,6.125,2.498,9.437,2.498c5.699,0,10.756-2.759,15.171-8.277v13.094c-2.349,1.485-4.049,2.519-5.103,3.1
			c-1.054,0.583-2.468,1.114-4.244,1.595c-1.775,0.482-4.049,0.763-6.817,0.843c-4.872,0-9.553-1.284-14.042-3.853
			c-4.491-2.568-8.14-6.235-10.945-11.002c-2.808-4.766-4.21-10.249-4.21-16.45c0-5.578,1.188-10.67,3.564-15.276
			s5.912-8.267,10.605-10.986s10.329-4.079,16.908-4.079c4.713,0,8.95,0.728,12.711,2.182c3.761,1.455,6.895,3.442,9.401,5.96
			c2.507,2.519,4.397,5.408,5.672,8.669c1.273,3.261,1.91,6.697,1.91,10.309v33.291H382.206z"/>
	</g>
	<g>
		<path d="M395.913,86.177V50.057c0-4.374,1.12-8.417,3.358-12.13c2.238-3.712,5.325-6.672,9.261-8.879
			c3.936-2.207,8.242-3.381,12.921-3.522c3.35,0,6.989,0.858,10.92,2.574c3.932,1.716,7.306,4.495,10.123,8.338
			s4.227,8.714,4.227,14.614v35.127h-10.836V51.291c0-4.113-1.352-7.68-4.053-10.701c-2.702-3.02-6.162-4.59-10.381-4.711
			c-4.037,0-7.452,1.42-10.244,4.259c-2.793,2.84-4.188,6.226-4.188,10.159v35.879H395.913z"/>
	</g>
	<g>
		<path d="M498.203,0h10.836v57.823c0,3.752-1.049,7.961-3.146,12.627c-2.098,4.666-5.459,8.699-10.084,12.101
			s-10.41,5.102-17.353,5.102c-5.218-0.121-9.732-1.154-13.545-3.101c-3.813-1.946-6.889-4.44-9.226-7.48
			c-2.339-3.04-4.069-6.205-5.192-9.497c-1.124-3.291-1.787-6.501-1.987-9.632c0-5.278,0.849-9.928,2.545-13.952
			c1.696-4.023,3.89-7.339,6.58-9.948c2.69-2.608,5.606-4.585,8.748-5.93c3.142-1.344,6.188-2.047,9.14-2.107
			c8.155,0,14.281,1.354,18.379,4.063v11.588c-5.222-3.531-11.026-5.297-17.413-5.297c-4.9,0.522-9.003,2.543-12.307,6.065
			c-3.304,3.522-4.956,8.163-4.956,13.921c0,1.144,0.04,2.007,0.121,2.589c0.381,4.495,1.666,8.117,3.855,10.866
			c2.188,2.75,4.729,4.686,7.621,5.809c2.892,1.125,5.643,1.686,8.254,1.686c4.036-0.08,7.491-1.149,10.362-3.206
			c2.872-2.057,5.051-4.886,6.537-8.488c1.486-3.602,2.229-7.68,2.229-12.236V0z"/>
	</g>
	<g>
		<path d="M315.22,14.806l5.376,2.492l-21.91,47.259l-5.376-2.492L315.22,14.806z"/>
	</g>
	<polygon fill-rule="evenodd" clip-rule="evenodd" fill="#ED1C24" points="328.175,84.73 290.651,67.36 293.253,61.549 
		330.778,78.919 	"/>
	<g>
		<path fill="#ED1C24" d="M319.053,25.878l5.376,2.492l-21.91,47.259l-5.376-2.492L319.053,25.878z"/>
	</g>
	<polygon fill-rule="evenodd" clip-rule="evenodd" points="333.242,96.232 294.384,78.515 297.073,72.717 335.931,90.433 	"/>
	<path fill-rule="evenodd" clip-rule="evenodd" fill="#FFFFFF" d="M24.007,83.943c-0.681,0.022-1.371,0.034-2.069,0.034
		c-0.596,0-1.295-0.021-2.055-0.062c-0.76-0.041-1.89-0.103-3.37-0.185L16.452,7.783H5.17v86.181h14.795
		c1.389,0,2.736-0.021,4.042-0.065V83.943z"/>
	<path fill-rule="evenodd" clip-rule="evenodd" d="M20.458,18.263c0.329,0,0.802-0.021,1.439-0.062
		c0.658-0.041,1.109-0.062,1.397-0.062c10.706,0,19.295,3.021,25.789,9.062c6.473,6.041,9.72,13.994,9.72,23.856
		c0,10.069-3.309,18.083-9.946,24.022c-5.409,4.854-12.396,7.717-20.951,8.601v10.015c3.353-0.243,6.393-0.652,9.136-1.231
		c4.747-1.007,8.815-2.528,12.226-4.583c6.945-4.172,12.227-9.411,15.822-15.7c3.617-6.308,5.425-13.377,5.425-21.247
		s-1.89-15.021-5.692-21.494c-3.781-6.452-9.165-11.754-16.151-15.884c-3.205-1.89-7.109-3.309-11.733-4.294
		c-4.603-0.987-9.781-1.48-15.514-1.48h-0.966V18.263z"/>
</g>
</svg>
