<?xml version="1.0" encoding="utf-8"?>
<!-- Generator: Adobe Illustrator 16.0.0, SVG Export Plug-In . SVG Version: 6.00 Build 0)  -->
<!DOCTYPE svg PUBLIC "-//W3C//DTD SVG 1.1//EN" "http://www.w3.org/Graphics/SVG/1.1/DTD/svg11.dtd">
<svg version="1.1" id="Layer_1" xmlns="http://www.w3.org/2000/svg" xmlns:xlink="http://www.w3.org/1999/xlink" x="0px" y="0px"
	 width="300px" height="300px" viewBox="0 0 300 300" enable-background="new 0 0 300 300" xml:space="preserve">
<circle id="XMLID_3_" fill="none" stroke="#C9942C" stroke-width="9" stroke-miterlimit="10" cx="150" cy="113.606" r="85.014"/>
<circle id="XMLID_1_" fill="#FFFFFF" stroke="#C9942C" stroke-width="9" stroke-miterlimit="10" cx="150" cy="113.605" r="66.129"/>
<path id="XMLID_4_" fill="none" stroke="#010101" stroke-miterlimit="10" d="M150,198.62"/>
<path id="XMLID_2_" fill="none" stroke="#C9942C" stroke-width="8" stroke-miterlimit="10" d="M150,274.213
	c-2.173,0-5.313-3.139-5.313-3.139c-91.776-105.542-79.7-157.468-79.7-157.468"/>
<path id="XMLID_7_" fill="none" stroke="#010101" stroke-miterlimit="10" d="M150,198.62"/>
<path id="XMLID_5_" fill="none" stroke="#C9942C" stroke-width="9" stroke-miterlimit="10" d="M150,274.213
	c2.173,0,5.313-3.139,5.313-3.139c91.776-105.542,79.7-157.468,79.7-157.468"/>
<path fill-rule="evenodd" clip-rule="evenodd" fill="#F4D35E" d="M114.819,90.379l35.072,18.274l11.565-11.727l-41.105-9.881
	c-1.116-0.266-2.29,0.063-3.102,0.875l-2.188,2.189C114.974,90.196,114.894,90.286,114.819,90.379L114.819,90.379z M179.398,111.897
	l-14.787,14.237l16.371,31.417c1.03,1.975,3.68,2.382,5.257,0.809l2.19-2.19c0.813-0.812,1.141-1.986,0.87-3.104L179.398,111.897z"
	/>
<g>
	<path fill="#C9942C" d="M129.868,162.509c-2.614-0.353-3.037-2.045-6.482-8.068c-4.361,0.801-8.352-3.203-7.567-7.544l-6.023-3.467
		c-2.353-1.336-2.804-4.578-0.87-6.512c1.602-1.601,2.99-3.499,5.669-2.829l8.973,2.247c4.62-5.581,12.125-14.779,23.557-27.111
		l-10.958-5.708l-4.349,5.192c-0.634,0.756-1.761,0.856-2.517,0.223c-0.756-0.633-0.856-1.76-0.222-2.517l3.842-4.589l-9.755-5.082
		l-3.521,4.16c-1.525,1.8-4.253-0.507-2.727-2.311l2.999-3.542c-8.232-4.289-10.21-4.696-10.707-7.919
		c-0.464-3.017,1.452-4.39,3.617-6.558c1.266-1.26,3.051-1.763,4.784-1.35l47.535,11.427l2.968-2.969
		c4.773-4.773,10.837-8.084,17.539-9.576c1.794-0.4,3.664,0.16,5.004,1.5c1.337,1.344,1.899,3.213,1.504,5.002
		c-1.496,6.705-4.809,12.77-9.578,17.542l-2.971,2.969l11.426,47.53c0.412,1.712-0.105,3.546-1.352,4.785
		c-2.165,2.165-3.544,4.088-6.56,3.617c-3.202-0.495-3.534-2.302-7.92-10.741l-3.587,3.032c-1.804,1.522-4.11-1.204-2.307-2.729
		l4.204-3.555l-5.072-9.762l-4.645,3.888c-0.757,0.633-1.884,0.534-2.518-0.223c-0.633-0.758-0.532-1.884,0.224-2.517l5.251-4.395
		l-5.683-10.936c-7.033,6.51-14.209,12.782-21.877,19.129c-1.818,1.505-4.1-1.244-2.279-2.752
		c8.072-6.684,15.596-13.28,22.982-20.166c0.195-0.413,0.539-0.73,0.961-0.898c6.771-6.344,11.376-10.988,15.445-15.057
		c0,0,3.311-3.31,3.747-3.748c4.291-4.291,7.271-9.751,8.618-15.789c0.131-0.591-0.073-1.229-0.545-1.704
		c-0.467-0.467-1.103-0.669-1.696-0.536c-6.038,1.344-11.499,4.323-15.79,8.614c-0.008,0.008-3.666,3.669-3.666,3.669
		c-7.973,8.081-20.463,20.349-37.199,40.563l-3.821,4.616c-0.139,0.332-0.372,0.605-0.658,0.796l-5.454,6.589
		c-0.832,1.003-0.676,2.597,0.354,3.628c0.784,0.784,1.896,1.06,2.827,0.779c0.201-0.169,0.451-0.301,0.726-0.367
		c0.209-0.16,6.419-5.335,6.628-5.462c0.822-1.336,2.87-1.038,3.255,0.503c2.582,10.309,3.595,11.93,1.455,14.072l-1.744,1.743
		C132.439,162.242,131.181,162.684,129.868,162.509z M126.561,152.793l3.371,5.895c0.186,0.325,0.629,0.38,0.885,0.121l1.744-1.742
		c0.14-0.139,0.195-0.338,0.146-0.532l-1.831-7.313L126.561,152.793z M163.787,120.583c20.207,38.884,18.799,36.768,19.887,36.937
		c0.98,0.148,1.258-0.385,3.489-2.616c0.894-0.89,1.197,1.89-10.514-46.824C172.593,112.137,168.776,115.896,163.787,120.583z
		 M113.194,137.703l-1.741,1.742c-0.261,0.261-0.201,0.702,0.118,0.884l5.887,3.389l3.585-4.331l-7.315-1.831
		C113.528,137.506,113.331,137.566,113.194,137.703z M115.352,83.103c-2.228,2.231-2.76,2.507-2.609,3.486
		c0.169,1.093-1.931-0.312,36.801,19.866c8.628-8.744,6.394-6.589,12.641-12.842l-45.405-10.915
		C116.253,82.573,115.723,82.733,115.352,83.103z M179.076,92.17c-0.182-0.56-0.425-0.619-1.319-1.131
		c-2.045-1.177-0.265-4.278,1.783-3.096c3.911,2.241,3.451,4.832,1.789,5.374C180.392,93.621,179.383,93.109,179.076,92.17z"/>
</g>
</svg>
