<?xml version="1.0" encoding="utf-8"?>
<!-- Generator: Adobe Illustrator 16.0.0, SVG Export Plug-In . SVG Version: 6.00 Build 0)  -->
<!DOCTYPE svg PUBLIC "-//W3C//DTD SVG 1.1//EN" "http://www.w3.org/Graphics/SVG/1.1/DTD/svg11.dtd">
<svg version="1.1" id="Layer_1" xmlns="http://www.w3.org/2000/svg" xmlns:xlink="http://www.w3.org/1999/xlink" x="0px" y="0px"
	 width="300px" height="300px" viewBox="0 0 300 300" enable-background="new 0 0 300 300" xml:space="preserve">
<path fill-rule="evenodd" clip-rule="evenodd" fill="#F4D35E" d="M211.554,248.127H87.943c-11.529,0-20.861-9.34-20.861-20.861
	v-49.893c1.953,1.117,3.053,1.74,3.053,1.74l32.266,7.014h93.971l32.264-7.014l3.781-2.222v50.374
	C232.417,238.787,223.075,248.127,211.554,248.127z"/>
<g>
	<path fill="#C9942C" d="M206.985,273.955H182.92c-6.896,0-12.51-5.61-12.51-12.503v-5.585c0-0.937,0.25-1.816,0.684-2.573h-42.701
		c1.019,1.768,0.686,3.36,0.686,8.158c0,6.893-5.613,12.503-12.51,12.503H92.504c-6.9,0-12.513-5.61-12.513-12.503
		c0-4.541-0.558-6.92,1.307-9.017c-11.143-2.946-19.382-13.113-19.382-25.167V80.209c-1.347,0-12.715,0-15.556,0
		c-3.477,0-2.53,5.914-2.53,43.913c0,6.827-10.333,6.835-10.333,0V84.535c0-8.083,5.77-14.659,12.864-14.659
		c2.841,0,14.208,0,15.556,0V51.982c0-14.351,11.678-26.027,26.027-26.027h123.611c14.353,0,26.027,11.677,26.027,26.027v15.997
		c0.76-0.437,1.638-0.686,2.576-0.686h12.97c7.094,0,12.866,6.576,12.866,14.657v39.589c0,2.853-2.313,5.167-5.167,5.167
		s-5.166-2.313-5.166-5.167V81.95c0-2.64-1.502-4.324-2.533-4.324h-12.97c-0.938,0-1.816-0.25-2.576-0.686v150.329
		c0,12.057-8.241,22.226-19.387,25.167c0.81,0.913,1.304,2.114,1.304,3.432v5.585C219.498,268.345,213.883,273.955,206.985,273.955z
		 M180.057,253.294c1.02,1.768,0.687,3.36,0.687,8.158c0,2.927,1.408,2.17,26.242,2.17c2.815,0,2.18-3.108,2.18-7.755
		c0-0.937,0.247-1.816,0.687-2.573H180.057z M89.638,253.294c1.019,1.768,0.686,3.36,0.686,8.158c0,2.927,1.41,2.17,26.245,2.17
		c2.815,0,2.177-3.108,2.177-7.755c0-0.937,0.25-1.816,0.686-2.573H89.638z M72.249,169.36v57.908
		c0,8.653,7.041,15.691,15.694,15.691h123.611c8.656,0,15.694-7.038,15.694-15.691v-58.066c-0.88,0.191-29.971,6.592-30.874,6.592
		c-0.872,0-94.22,0.065-95.073-0.116l-14.316-3.113c-1.196,0.172-2.442-0.088-3.497-0.762L72.249,169.36z M195.816,165.461
		l2.72-0.591l-12.616-12.327h-77.005l-11.9,11.626C105.196,165.95,91.53,165.461,195.816,165.461z M188.024,142.209
		c2.838,0,2.106,0.003,22.606,20.032l16.617-3.612V51.982c0-8.654-7.038-15.694-15.694-15.694H87.943
		c-8.653,0-15.694,7.04-15.694,15.694v106.803l12.669,2.755l18.28-17.859c0.966-0.943,2.26-1.472,3.61-1.472
		C136.128,142.209,158.197,142.209,188.024,142.209z M201.412,224.874h-18.086c-6.826,0-6.836-10.333,0-10.333h18.086
		c2.854,0,5.167,2.313,5.167,5.167C206.579,222.561,204.266,224.874,201.412,224.874z M113.579,224.874H98.077
		c-6.827,0-6.836-10.333,0-10.333h15.502c2.854,0,5.167,2.313,5.167,5.167C118.746,222.561,116.433,224.874,113.579,224.874z
		 M167.824,59.541h-38.745c-6.827,0-6.836-10.333,0-10.333h38.745c2.854,0,5.167,2.313,5.167,5.167
		C172.991,57.227,170.678,59.541,167.824,59.541z"/>
</g>
</svg>
