<?xml version="1.0" encoding="utf-8"?>
<!-- Generator: Adobe Illustrator 16.0.0, SVG Export Plug-In . SVG Version: 6.00 Build 0)  -->
<!DOCTYPE svg PUBLIC "-//W3C//DTD SVG 1.1//EN" "http://www.w3.org/Graphics/SVG/1.1/DTD/svg11.dtd">
<svg version="1.1" xmlns="http://www.w3.org/2000/svg" xmlns:xlink="http://www.w3.org/1999/xlink" x="0px" y="0px" width="500px"
	 height="500px" viewBox="0 0 500 500" enable-background="new 0 0 500 500" xml:space="preserve">
<g id="Layer_1">
	
		<line fill="none" stroke="#38A1DA" stroke-width="12" stroke-miterlimit="10" x1="20.609" y1="461.739" x2="480.608" y2="461.739"/>
	<polygon fill="#B5B5B6" points="101.134,396.277 121.25,421.157 117.875,423.889 103.167,405.696 102.506,450.207 98.164,450.143 
		98.824,405.633 83.583,423.379 80.29,420.55 	"/>
	<polygon fill="#B5B5B6" points="241.134,396.277 261.25,421.157 257.875,423.889 243.167,405.696 242.506,450.207 238.164,450.143 
		238.824,405.633 223.583,423.379 220.29,420.55 	"/>
	<polygon fill="#B5B5B6" points="391.135,396.277 411.25,421.157 407.875,423.889 393.166,405.696 392.506,450.207 388.164,450.143 
		388.824,405.633 373.582,423.379 370.289,420.55 	"/>
	<path opacity="0.2" fill="#38A1DA" d="M246.059,193.109c-5.786,0.003-5.796-8.753-0.003-8.755
		C251.841,184.349,251.853,193.104,246.059,193.109z M184.303,366.763l-7.746,2.714c0.708,2.021,2.332,4.857,3.982,7.626
		l7.046-4.204C186.904,371.758,184.834,368.286,184.303,366.763z M195.817,301.642c-0.07,0.769-1.64,18.972,3.083,29.407
		c4.751,10.503,20.147,21.082,20.801,21.528c3.114,1.87,13.368,5.77,24.146,5.092c-0.476,0.978-0.956,1.952-1.338,2.988l7.698,2.836
		c3.089-8.395,10.376-14.223,19.063-15.331h12.986c16.141-9.293,19.485-14.191,18.729-40.121l-8.199,0.24
		c0.255,8.836-0.484,20.021-2.126,22.683c-1.833,2.97-7.134,6.849-10.631,8.993H268.77l-0.003-0.024
		c-0.29,0.032-0.268,0.024-0.602,0.024v0.086c-6.471,0.841-12.325,3.64-16.994,7.863c-12.428,4.406-25.375-1.448-27.073-2.263
		c-4.1-2.842-14.626-11.136-17.722-17.976c-3.178-7.027-2.799-20.642-2.385-25.295L195.817,301.642z M260.094,363.573
		c-0.584,5.006-0.362,3.146-0.963,8.149c6.468,0.783,16.449-0.747,24.115-5.625l-4.407-6.923
		C270.243,364.647,260.196,363.595,260.094,363.573z M282.41,294.713v-26.438h-8.205v26.438c0,12.818-10.43,23.248-23.248,23.248
		h-12.763v8.205h12.763C268.299,326.166,282.41,312.056,282.41,294.713z M214.947,230.438v-8.206c-2.262,0-4.103-1.84-4.103-4.103
		v-6.837h-8.205v6.837C202.639,224.917,208.16,230.438,214.947,230.438z M275.803,230.438c6.787,0,12.308-5.521,12.308-12.308
		v-6.837h-8.205v6.837c0,2.263-1.841,4.103-4.103,4.103V230.438z M414.151,446.967v8.205H83.206v-8.205h14.132V421.13h15.403
		l9.867-21.343h86.7c-9.938-4.184-18.23-9.952-23.876-16.977l6.395-5.139c22.268,27.705,88.228,28.947,112.468,1.313l6.165,5.411
		c-5.525,6.301-13.286,11.526-22.46,15.391h17.723l-0.16-0.313c19.122-9.833,30.292-23.647,30.918-38.066
		c-3.025-0.787-2.155-0.596-28.145-0.596l-18.398,3.133l-1.379-8.087l18.23-3.104v-0.147c0.985,0,0.643,0.038,2.142-0.219
		c5.332-4.618,9.233-14.402,8.638-21.97l-6.104-63.731c-0.419-4.381-3.555-8.106-7.802-9.271
		c-23.064-7.484-34.472-10.862-34.472-10.862v35.625h-8.205v-41.234c-1.02-1.223-1.928-2.668-2.704-4.385
		c-7.357,2.946-18.097,2.839-25.317-0.251c-1.865,3.271-4.3,5.392-7.078,6.894v46.042c0,8.293,6.75,15.043,15.043,15.043h8.205
		v8.205h-8.205c-12.818,0-23.248-10.431-23.248-23.248v-43.014c-7.631,2.102-1.274,0.115-29.02,9.124
		c-4.429,1.218-7.564,4.944-7.987,9.327l-5.256,57.253c-0.716,9.66,3.368,21.258,9.784,27.948l28.98,8.604
		c5.86,4.843,18.75,13.95,26.291,13.95v8.206c-11.173,0-26.502-11.771-30.217-14.763l-17.067-5.067h-25.764
		c-16.67,0-21.932,19.56-14.99,30.175l-6.864,4.492c-10.393-15.866-1.584-42.872,21.854-42.872h9.364
		c-6.509-8.448-10.342-20.62-9.549-31.349l5.265-57.344c0.748-7.77,6.296-14.362,13.807-16.419c24.615-8,22.329-7.321,27.473-8.71
		c6.518-1.754,10.014-2.895,12.142-6.744c-14.495-11.724-12.121-25.564-12.121-55.164c0-8.392,3.395-16.007,8.889-21.654v-5.355
		c0-11.877,9.661-21.539,21.539-21.539h2.735c11.878,0,21.539,9.661,21.539,21.539v4.648c11.927,11.528,9.573,21.977,9.573,51.616
		c0,10.815-4.987,20.385-12.61,26.299c2.664,6.795,4.213,5.329,40.543,17.126c7.326,2.003,12.878,8.595,13.62,16.349l6.107,63.799
		c0.597,7.588-1.984,16.313-6.327,22.901h12.57c14.391,0,26.098,11.707,26.098,26.098v2.506c0,5.233-1.542,10.278-4.457,14.595
		l-6.802-4.595c4.429-6.546,4.669-18.61-2.526-25.454c-1.894,12.626-10.086,24.49-23.455,34.031h53.224l9.866,21.343h15.178v25.837
		H414.151z M245.943,153.629c-12.877,0-23.382,9.939-23.884,22.33c7.049-5.716,11.737-4.551,32.432-4.551
		c6.913,0,11.8,1.37,15.282,3.523C268.751,163.023,258.465,153.629,245.943,153.629z M230.98,149.065
		c8.961-4.637,19.733-4.95,29.208-0.34C258.75,132.17,231.993,132.494,230.98,149.065z M247.653,230.438
		c12.254,0,22.223-10.903,22.223-24.306c0-28.545,1.432-26.52-35.215-26.52c-6.974,0-12.649,6.271-12.649,13.977
		c0,8.9,0,7.84,0,12.543c0,13.403,9.968,24.306,22.223,24.306H247.653z M122.443,419.696h251.789l-5.414-11.704H127.854
		L122.443,419.696z M105.543,446.967h285.361v-17.632H105.543V446.967z"/>
	<path fill="#38A1DA" d="M246.059,123.109c-5.786,0.003-5.796-8.753-0.003-8.755C251.841,114.349,251.853,123.104,246.059,123.109z
		 M184.303,296.763l-7.746,2.714c0.708,2.021,2.332,4.857,3.982,7.626l7.046-4.204C186.904,301.758,184.834,298.286,184.303,296.763
		z M195.817,231.642c-0.07,0.769-1.64,18.972,3.083,29.407c4.751,10.503,20.147,21.082,20.801,21.528
		c3.114,1.87,13.368,5.77,24.146,5.092c-0.476,0.978-0.956,1.952-1.338,2.988l7.698,2.836c3.089-8.395,10.376-14.223,19.063-15.331
		h12.986c16.141-9.293,19.485-14.191,18.729-40.121l-8.199,0.24c0.255,8.836-0.484,20.021-2.126,22.683
		c-1.833,2.97-7.134,6.849-10.631,8.993H268.77l-0.003-0.024c-0.29,0.032-0.268,0.024-0.602,0.024v0.086
		c-6.471,0.841-12.325,3.64-16.994,7.863c-12.428,4.406-25.375-1.448-27.073-2.263c-4.1-2.842-14.626-11.136-17.722-17.976
		c-3.178-7.027-2.799-20.642-2.385-25.295L195.817,231.642z M260.094,293.573c-0.584,5.006-0.362,3.146-0.963,8.149
		c6.468,0.783,16.449-0.747,24.115-5.625l-4.407-6.923C270.243,294.647,260.196,293.595,260.094,293.573z M282.41,224.713v-26.438
		h-8.205v26.438c0,12.818-10.43,23.248-23.248,23.248h-12.763v8.205h12.763C268.299,256.166,282.41,242.056,282.41,224.713z
		 M214.947,160.438v-8.206c-2.262,0-4.103-1.84-4.103-4.103v-6.837h-8.205v6.837C202.639,154.917,208.16,160.438,214.947,160.438z
		 M275.803,160.438c6.787,0,12.308-5.521,12.308-12.308v-6.837h-8.205v6.837c0,2.263-1.841,4.103-4.103,4.103V160.438z
		 M414.151,376.967v8.205H83.206v-8.205h14.132V351.13h15.403l9.867-21.343h86.7c-9.938-4.184-18.23-9.952-23.876-16.977
		l6.395-5.139c22.268,27.705,88.228,28.947,112.468,1.313l6.165,5.411c-5.525,6.301-13.286,11.526-22.46,15.391h17.723l-0.16-0.313
		c19.122-9.833,30.292-23.647,30.918-38.066c-3.025-0.787-2.155-0.596-28.145-0.596l-18.398,3.133l-1.379-8.087l18.23-3.104v-0.147
		c0.985,0,0.643,0.038,2.142-0.219c5.332-4.618,9.233-14.402,8.638-21.97l-6.104-63.731c-0.419-4.381-3.555-8.106-7.802-9.271
		c-23.064-7.484-34.472-10.862-34.472-10.862v35.625h-8.205v-41.234c-1.02-1.223-1.928-2.668-2.704-4.385
		c-7.357,2.946-18.097,2.839-25.317-0.251c-1.865,3.271-4.3,5.392-7.078,6.894v46.042c0,8.293,6.75,15.043,15.043,15.043h8.205
		v8.205h-8.205c-12.818,0-23.248-10.431-23.248-23.248v-43.014c-7.631,2.102-1.274,0.115-29.02,9.124
		c-4.429,1.218-7.564,4.944-7.987,9.327l-5.256,57.253c-0.716,9.66,3.368,21.258,9.784,27.948l28.98,8.604
		c5.86,4.843,18.75,13.95,26.291,13.95v8.206c-11.173,0-26.502-11.771-30.217-14.763l-17.067-5.067h-25.764
		c-16.67,0-21.932,19.56-14.99,30.175l-6.864,4.492c-10.393-15.866-1.584-42.872,21.854-42.872h9.364
		c-6.509-8.448-10.342-20.62-9.549-31.349l5.265-57.344c0.748-7.77,6.296-14.362,13.807-16.419c24.615-8,22.329-7.321,27.473-8.71
		c6.518-1.754,10.014-2.895,12.142-6.744c-14.495-11.724-12.121-25.564-12.121-55.164c0-8.392,3.395-16.007,8.889-21.654v-5.355
		c0-11.877,9.661-21.539,21.539-21.539h2.735c11.878,0,21.539,9.661,21.539,21.539v4.648c11.927,11.528,9.573,21.977,9.573,51.616
		c0,10.815-4.987,20.385-12.61,26.299c2.664,6.795,4.213,5.329,40.543,17.126c7.326,2.003,12.878,8.595,13.62,16.349l6.107,63.799
		c0.597,7.588-1.984,16.313-6.327,22.901h12.57c14.391,0,26.098,11.707,26.098,26.098v2.506c0,5.233-1.542,10.278-4.457,14.595
		l-6.802-4.595c4.429-6.546,4.669-18.61-2.526-25.454c-1.894,12.626-10.086,24.49-23.455,34.031h53.224l9.866,21.343h15.178v25.837
		H414.151z M245.943,83.629c-12.877,0-23.382,9.939-23.884,22.33c7.049-5.716,11.737-4.551,32.432-4.551
		c6.913,0,11.8,1.37,15.282,3.523C268.751,93.023,258.465,83.629,245.943,83.629z M230.98,79.065
		c8.961-4.637,19.733-4.95,29.208-0.34C258.75,62.17,231.993,62.494,230.98,79.065z M247.653,160.438
		c12.254,0,22.223-10.903,22.223-24.306c0-28.545,1.432-26.52-35.215-26.52c-6.974,0-12.649,6.271-12.649,13.977
		c0,8.9,0,7.84,0,12.543c0,13.403,9.968,24.306,22.223,24.306H247.653z M122.443,349.696h251.789l-5.414-11.704H127.854
		L122.443,349.696z M105.543,376.967h285.361v-17.632H105.543V376.967z"/>
</g>
<g id="Layer_2" display="none">
	<g display="inline">
		<path fill="#38A1DA" d="M143.938,142.938c-4.527,0-8.197,3.674-8.197,8.197v81.971c0,4.531,3.67,8.197,8.197,8.197h49.183
			c4.526,0,8.196-3.667,8.196-8.197v-81.971c0-4.523-3.67-8.197-8.196-8.197H143.938z M152.135,159.332h32.789v24.592h-32.789
			V159.332z M152.135,224.909v-24.592h32.789v24.592H152.135z"/>
		<path fill="#38A1DA" d="M283.289,233.105v-81.971c0-4.523-3.666-8.197-8.197-8.197h-49.183c-4.527,0-8.197,3.674-8.197,8.197
			v81.971c0,4.531,3.67,8.197,8.197,8.197h49.183C279.623,241.303,283.289,237.636,283.289,233.105z M234.105,159.332h32.789v24.592
			h-32.789V159.332z M234.105,224.909v-24.592h32.789v24.592H234.105z"/>
		<path fill="#38A1DA" d="M357.062,241.303c4.531,0,8.197-3.667,8.197-8.197v-81.971c0-4.523-3.666-8.197-8.197-8.197H307.88
			c-4.531,0-8.197,3.674-8.197,8.197v81.971c0,4.531,3.666,8.197,8.197,8.197H357.062z M316.077,224.909v-24.592h32.789v24.592
			H316.077z M316.077,159.332h32.789v24.592h-32.789V159.332z"/>
		<path fill="#38A1DA" d="M406.245,69.164H94.755c-4.527,0-8.197,3.674-8.197,8.197v32.788c0,4.531,3.67,8.197,8.197,8.197h8.197
			V421.64c0,4.531,3.67,8.197,8.197,8.197h278.702c4.531,0,8.197-3.666,8.197-8.197V142.938c0-4.522-3.666-8.197-8.197-8.197
			c-4.53,0-8.197,3.675-8.197,8.197v270.505H225.909v-114.76c4.527,0,8.197-3.667,8.197-8.197c0-4.522-3.67-8.196-8.197-8.196
			h-8.197h-73.774h-8.197c-4.527,0-8.197,3.674-8.197,8.196c0,4.53,3.67,8.197,8.197,8.197v114.76h-16.394V110.149
			c0-4.523-3.67-8.197-8.197-8.197h-8.197V85.558h295.096v16.394H143.934c-4.527,0-8.197,3.674-8.197,8.197
			c0,4.531,3.67,8.197,8.197,8.197h262.312c4.531,0,8.197-3.666,8.197-8.197V77.361C414.442,72.838,410.776,69.164,406.245,69.164z
			 M152.135,298.683h57.379v49.183h-8.197c-4.526,0-8.196,3.675-8.196,8.196c0,4.531,3.67,8.197,8.196,8.197h8.197v49.184h-57.379
			V298.683z"/>
		<path fill="#38A1DA" d="M250.5,380.653h8.197h98.364h8.197c4.531,0,8.197-3.666,8.197-8.197c0-4.521-3.666-8.197-8.197-8.197
			v-73.773c0-4.522-3.666-8.196-8.197-8.196h-98.364c-4.526,0-8.197,3.674-8.197,8.196v73.773c-4.526,0-8.197,3.676-8.197,8.197
			C242.303,376.987,245.974,380.653,250.5,380.653z M348.866,298.683v65.576h-32.789v-65.576H348.866z M266.895,298.683h32.788
			v65.576h-32.788V298.683z"/>
	</g>
</g>
</svg>
