<?xml version="1.0" encoding="utf-8"?>
<!-- Generator: Adobe Illustrator 13.0.0, SVG Export Plug-In . SVG Version: 6.00 Build 14948)  -->
<!DOCTYPE svg PUBLIC "-//W3C//DTD SVG 1.1//EN" "http://www.w3.org/Graphics/SVG/1.1/DTD/svg11.dtd">
<svg version="1.1" id="形状_2_1_" xmlns="http://www.w3.org/2000/svg" xmlns:xlink="http://www.w3.org/1999/xlink" x="0px"
	 y="0px" width="20px" height="20px" viewBox="246 246 20 20" enable-background="new 246 246 20 20" xml:space="preserve">
<g id="形状_2">
	<g>
		<path fill="#8B8B8B" d="M262.086,252.017c-0.448,0.198-0.93,0.333-1.434,0.393c0.515-0.309,0.911-0.799,1.098-1.382
			c-0.482,0.286-1.018,0.494-1.587,0.606c-0.455-0.485-1.104-0.789-1.822-0.789c-1.38,0-2.498,1.118-2.498,2.497
			c0,0.196,0.022,0.387,0.065,0.569c-2.076-0.104-3.917-1.098-5.148-2.609c-0.215,0.369-0.338,0.798-0.338,1.256
			c0,0.866,0.441,1.631,1.111,2.079c-0.41-0.013-0.795-0.125-1.131-0.313c0,0.011,0,0.021,0,0.031c0,1.21,0.86,2.22,2.003,2.449
			c-0.209,0.058-0.43,0.088-0.658,0.088c-0.161,0-0.317-0.017-0.47-0.045c0.318,0.992,1.24,1.714,2.333,1.734
			c-0.855,0.67-1.932,1.069-3.102,1.069c-0.202,0-0.4-0.012-0.596-0.035c1.105,0.709,2.418,1.122,3.828,1.122
			c4.594,0,7.106-3.806,7.106-7.106c0-0.108-0.002-0.216-0.007-0.323C261.328,252.957,261.751,252.517,262.086,252.017z"/>
	</g>
</g>
</svg>
