<?xml version="1.0" encoding="utf-8"?>
<!-- Generator: Adobe Illustrator 13.0.0, SVG Export Plug-In . SVG Version: 6.00 Build 14948)  -->
<!DOCTYPE svg PUBLIC "-//W3C//DTD SVG 1.1//EN" "http://www.w3.org/Graphics/SVG/1.1/DTD/svg11.dtd">
<svg version="1.1" id="Layer_1" xmlns="http://www.w3.org/2000/svg" xmlns:xlink="http://www.w3.org/1999/xlink" x="0px" y="0px"
	 width="300px" height="300px" viewBox="0 0 300 300" enable-background="new 0 0 300 300" xml:space="preserve">
<g display="none">
	<path display="inline" fill="none" stroke="#B4B4B4" stroke-miterlimit="10" d="M157.707,40.434l20.533-15.211
		c-3.126-1.937-9.26-4.623-20.533-4.623h-0.068c-11.28,0-17.402,2.686-20.534,4.623l20.534,15.211H157.707z"/>
	<path display="inline" fill="none" stroke="#B4B4B4" stroke-miterlimit="10" d="M255.593,79.342
		c-4.228-17.318-13.5-25.584-21.76-29.013c-6.342-2.629-16.47-5.819-33.442-12.739c-3.517-1.522-6.341-2.875-8.731-4.108
		L170.59,59.595l-8.02-11.92v53.729h-4.832h-0.057h-4.832V47.675l-8.039,11.92l-21.055-26.113c-2.391,1.227-5.234,2.579-8.75,4.108
		C98.02,44.51,87.904,47.693,81.582,50.33c-8.259,3.429-17.558,11.682-21.76,29.013c-4.234,17.333-8.266,40.501-8.266,40.501
		s2.22,4.637,14.903,6.85c12.714,2.214,22.156,0,22.156,0l4.228-6.253c0,0,2.818,14.91,4.429,23.98
		c1.617,9.072,1.818,15.709,2.246,30.825c0.403,15.111-1.214,37.28-2.246,45.533c-0.994,8.261-3.228,26.988-3.624,34.656
		c-0.409,7.656-2.02,16.923-2.02,16.923s3.63,5.844,65.896,5.844l0.146,0.051v0.012l0.024-0.006l0.025,0.006v-0.012l0.138-0.051
		c62.262,0,65.897-5.844,65.897-5.844s-1.611-9.267-2.02-16.923c-0.402-7.655-2.616-26.396-3.624-34.656
		c-1.012-8.253-2.623-30.435-2.245-45.533c0.408-15.109,0.616-21.753,2.245-30.825c1.61-9.065,4.43-23.98,4.43-23.98l4.227,6.253
		c0,0,9.475,2.214,22.144,0c12.715-2.22,14.903-6.85,14.903-6.85S259.819,96.675,255.593,79.342z"/>
</g>
<g display="none">
	<rect x="148.143" y="117.655" display="inline" fill="#EDC543" width="59.736" height="22.195"/>
	<path display="inline" fill="none" stroke="#EDC543" d="M118.151,170.8c0,0-2.341,60.741-5.845,77.093
		c-3.504,16.351-7.009,29.203-7.009,29.203"/>
	<g display="inline">
		<path fill="none" stroke="#034078" stroke-miterlimit="10" d="M155.678,31.254l22.339-16.549
			c-3.395-2.108-10.074-5.03-22.339-5.03h-0.041c-12.286,0-18.951,2.922-22.353,5.03l22.353,16.549H155.678z"/>
		<path fill="none" stroke="#034078" stroke-miterlimit="10" d="M262.173,73.585c-4.564-18.842-14.688-27.835-23.674-31.565
			c-6.872-2.862-17.918-6.332-36.356-13.86c-3.825-1.657-6.926-3.128-9.526-4.469l-22.9,28.41l-8.748-12.969v58.456h-5.256h-0.068
			h-5.256V39.132l-8.72,12.969l-22.928-28.41c-2.601,1.334-5.694,2.806-9.521,4.469c-18.479,7.528-29.457,10.992-36.362,13.86
			C63.87,45.75,53.782,54.729,49.183,73.585c-4.606,18.855-8.993,44.063-8.993,44.063s2.416,5.044,16.221,7.453
			c13.812,2.409,24.091,0,24.091,0l4.599-6.803c0,0,3.066,16.221,4.818,26.09c1.773,9.869,1.979,17.089,2.45,33.537
			c0.438,16.439-1.321,40.558-2.45,49.538c-1.068,8.986-3.504,29.361-3.942,37.704c-0.438,8.329-2.19,18.41-2.19,18.41
			s3.942,6.358,71.686,6.358l0.178,0.055v0.014l0.014-0.007l0.027,0.007v-0.014l0.144-0.055c67.737,0,71.692-6.358,71.692-6.358
			s-1.752-10.081-2.196-18.41c-0.438-8.33-2.826-28.718-3.942-37.704c-1.116-8.98-2.854-33.113-2.43-49.538
			c0.445-16.44,0.671-23.668,2.43-33.537c1.752-9.863,4.817-26.09,4.817-26.09l4.6,6.803c0,0,10.328,2.409,24.119,0
			c13.784-2.416,16.207-7.453,16.207-7.453S266.772,92.44,262.173,73.585z"/>
	</g>
	<path display="inline" fill="#EDC543" d="M251.886,75.604c0,0,5.845,9.342,9.35,37.965c0,0-14.024,7.008-25.118,1.752
		c0,0-9.35-12.265-12.266-22.778"/>
	<path display="inline" fill="#EDC543" d="M245.466,69.178"/>
	<path display="inline" fill="#EDC543" d="M60.325,73.852c0,0-5.845,9.342-9.349,37.964c0,0,14.023,7.009,25.118,1.753
		c0,0,9.349-12.265,12.265-22.778"/>
</g>
<g>
	<path fill="#EEC643" d="M99.888,242.989H204.75c1.852,0,3.39-1.404,3.39-3.122V65.278c0-1.724-1.513-3.128-3.39-3.128H99.888
		c-1.87,0-3.402,1.404-3.402,3.128v174.583C96.504,241.585,98.018,242.989,99.888,242.989z"/>
	<path fill="#EEC643" d="M99.888,242.989H204.75c1.852,0,3.39-1.404,3.39-3.122V65.278c0-1.724-1.513-3.128-3.39-3.128H99.888
		c-1.87,0-3.402,1.404-3.402,3.128v174.583C96.504,241.585,98.018,242.989,99.888,242.989z"/>
	<path fill="none" stroke="#034078" stroke-width="4" d="M95.022,273.598h115.454c9.213,0,16.696-7.489,16.696-16.689V48.244
		c0-9.22-7.496-16.702-16.696-16.702H95.022c-9.2,0-16.715,7.495-16.715,16.702v208.664
		C78.333,266.108,85.81,273.598,95.022,273.598z"/>
	<path fill="#EEC643" d="M99.888,242.989H204.75c1.852,0,3.39-1.404,3.39-3.122V65.278c0-1.724-1.513-3.128-3.39-3.128H99.888
		c-1.87,0-3.402,1.404-3.402,3.128v174.583C96.504,241.585,98.018,242.989,99.888,242.989z"/>
	<path fill="none" stroke="#034078" stroke-width="4" d="M95.022,273.598h115.454c9.213,0,16.696-7.489,16.696-16.689V48.244
		c0-9.22-7.496-16.702-16.696-16.702H95.022c-9.2,0-16.715,7.495-16.715,16.702v208.664
		C78.333,266.108,85.81,273.598,95.022,273.598z"/>
	<path fill="none" stroke="#034078" stroke-width="4" d="M95.022,273.598h115.454c9.213,0,16.696-7.489,16.696-16.689V48.244
		c0-9.22-7.496-16.702-16.696-16.702H95.022c-9.2,0-16.715,7.495-16.715,16.702v208.664
		C78.333,266.108,85.81,273.598,95.022,273.598z"/>
	<path fill="none" stroke="#034078" stroke-width="4" d="M95.354,74.038c0-7.687,6.258-13.944,13.938-13.944H196.2
		c7.688,0,13.944,6.258,13.944,13.944v157.063c0,7.687-6.257,13.938-13.944,13.938h-38.697c0.99,1.117,1.622,2.579,1.622,4.207
		c0,3.519-2.848,6.359-6.372,6.359s-6.391-2.848-6.391-6.359c0-1.628,0.645-3.084,1.615-4.207h-38.704
		c-7.681,0-13.938-6.251-13.938-13.938L95.354,74.038L95.354,74.038z"/>
</g>
</svg>
