<?xml version="1.0" encoding="utf-8"?>
<!-- Generator: Adobe Illustrator 16.0.0, SVG Export Plug-In . SVG Version: 6.00 Build 0)  -->
<!DOCTYPE svg PUBLIC "-//W3C//DTD SVG 1.1//EN" "http://www.w3.org/Graphics/SVG/1.1/DTD/svg11.dtd">
<svg version="1.1" id="Layer_1" xmlns="http://www.w3.org/2000/svg" xmlns:xlink="http://www.w3.org/1999/xlink" x="0px" y="0px"
	 width="300px" height="300px" viewBox="0 0 300 300" enable-background="new 0 0 300 300" xml:space="preserve">
<g>
	<path fill="#FF3F68" d="M200.107,61.257c-6.084-0.338-13.858,0-22.309,1.352c-46.644,7.774-71.317,41.912-76.387,78.078h1.014
		c10.478-13.858,28.729-25.35,53.065-25.35c38.87,0,66.247,28.054,66.247,70.979c0,40.222-27.377,77.401-73.007,77.401
		c-46.981,0-77.74-36.503-77.74-93.625c0-43.264,15.548-77.401,37.18-99.033c18.252-17.914,42.588-29.068,70.303-32.448
		c8.788-1.352,16.225-1.69,21.633-1.69V61.257z M149.069,240.734c25.35,0,42.588-21.294,42.588-52.729
		c0-31.434-17.914-50.361-45.292-50.361c-17.914,0-34.476,11.154-42.588,27.04c-2.027,3.38-3.38,7.774-3.38,13.183
		c0.676,36.165,17.238,62.867,48.334,62.867H149.069z"/>
</g>
</svg>
