<svg width="32" height="32" xmlns="http://www.w3.org/2000/svg">

 <g>
  <title>background</title>
  <rect fill="none" id="canvas_background" height="402" width="582" y="-1" x="-1"/>
 </g>
 <g>
  <title>Layer 1</title>
  <path transform="rotate(180 15.999999999999998,16) " fill="#ed6a5a" id="svg_1" d="m30,16c0,-7.72 -6.28,-14 -14,-14s-14,6.28 -14,14c0,6.11 3.91,11.47 9.73,13.34c0.53,0.17 1.09,-0.13 1.26,-0.65c0.16,-0.53 -0.13,-1.09 -0.65,-1.26c-4.99,-1.59 -8.34,-6.19 -8.34,-11.43c0,-6.62 5.38,-12 12,-12s12,5.38 12,12c0,6.28 -4.85,11.45 -11,11.96l0,-17.38c1.11,0.93 2.78,2.89 4.17,4.97c0.3,0.47 0.92,0.59 1.38,0.28c0.46,-0.3 0.59,-0.93 0.28,-1.38c-1.29,-1.94 -4.54,-6.45 -6.83,-6.45s-5.54,4.51 -6.83,6.45c-0.31,0.45 -0.18,1.08 0.28,1.38c0.45,0.31 1.08,0.19 1.38,-0.28c1.39,-2.08 3.06,-4.04 4.17,-4.97l0,18.42c0,0.55 0.45,1 1,1c0.34,0 0.67,-0.01 1,-0.04c7.26,-0.51 13,-6.58 13,-13.96z"/>
 </g>
</svg>