<svg width="128" height="128" xmlns="http://www.w3.org/2000/svg">

 <g>
  <title>background</title>
  <rect fill="none" id="canvas_background" height="402" width="582" y="-1" x="-1"/>
 </g>
 <g>
  <title>Layer 1</title>
  <path id="svg_1" fill="#ed6a5a" d="m73,25c0.8,0.1 1.1,0.4 1.3,0.7c0.5,0.7 1.4,2.6 1.5,7.5c0,9.2 -4.9,18.8 -5,18.9l-3.6,6.9l7.7,-1.1c0.1,0 6,-0.8 12.7,-0.8c3.5,0 6.5,0.2 9,0.7c3.9,0.7 5.2,6 3.9,16.3c0,0.4 -0.1,0.7 -0.1,0.9c-0.6,4.8 -0.9,7.8 -1.1,9c-0.1,0.3 -0.1,0.5 -0.2,0.9c0,0.3 -0.1,0.7 -0.2,1.4c-0.2,1.4 -0.5,3.9 -1,8.2c-0.9,7.9 -3.4,9.3 -18.1,9.7c-2.2,0.1 -4.4,0.1 -6.4,0.1c-6.5,0 -12.4,-0.3 -17.1,-0.9c-1.7,-0.2 -6.7,-2.2 -10.3,-4.2l-0.8,-0.2l-1,0l-12.2,0l0,-29l12.2,0l1.9,0l1.2,-1.7l11.5,-14.8c1,-1.1 7.6,-8.4 10.7,-14.7c1.2,-2.4 1.7,-5.4 2.2,-8.2c0.3,-1.7 0.8,-4.4 1.3,-5.6m-0.6,-4c-4.9,0 -4,10.7 -6.5,16c-2.9,6.3 -10,14 -10,14l-11.7,15l-16.2,0l0,37l16.2,0c0,0 8.1,4.2 11.7,4.6c4.1,0.5 9.9,0.8 17.6,0.8c2,0 4.2,-0.1 6.5,-0.1c14.4,-0.4 20.6,-1.8 21.9,-13.3c1,-8.6 1.2,-9.9 1.2,-9.9c0,0 0,0.2 0,0.2c0,0 0.2,-1.2 1.2,-9.9c0.4,-3.6 3.2,-19.8 -7,-21.6c-3,-0.5 -6.5,-0.7 -9.7,-0.7c-7,0 -13.2,0.9 -13.2,0.9s5.5,-10.4 5.4,-20.7c0,-10.5 -3.7,-12.3 -7.4,-12.3c0,0 0,0 0,0l0,0z"/>
  <path id="svg_2" fill="#ed6a5a" d="m46,94.7c-0.6,0 -1,-0.4 -1,-1l0,-19c0,-0.6 0.4,-1 1,-1s1,0.4 1,1l0,19c0,0.5 -0.4,1 -1,1z"/>
 </g>
</svg>