<?xml version="1.0" encoding="utf-8"?>
<!-- Generator: Adobe Illustrator 13.0.0, SVG Export Plug-In . SVG Version: 6.00 Build 14948)  -->
<!DOCTYPE svg PUBLIC "-//W3C//DTD SVG 1.1//EN" "http://www.w3.org/Graphics/SVG/1.1/DTD/svg11.dtd">
<svg version="1.1" id="Layer_1" xmlns="http://www.w3.org/2000/svg" xmlns:xlink="http://www.w3.org/1999/xlink" x="0px" y="0px"
	 width="169.8px" height="250px" viewBox="0 0 169.8 250" enable-background="new 0 0 169.8 250" xml:space="preserve">
<g>
	<title>background</title>
	<rect id="canvas_background" x="-1" y="-1" fill="none" width="582" height="402"/>
</g>
<g>
	<title>Layer 1</title>
	<path id="svg_1" fill="#FA684B" d="M111.701,27.8h39.1l15-22.5H18.9l-15,22.5h25.5c25.8,0,49.7,2,59.2,23.6H18.9l-15,22.5h87.5
		c0,0.1,0,0.1,0,0.1c0,16.2-13.5,41-57.9,41H12v21l86.1,107.6h38.3L47.4,132.4c36.7-2,71.1-22.5,76-58.5h27.4l15-22.5H123
		C121.3,42.7,117.6,34.3,111.701,27.8L111.701,27.8z"/>
</g>
</svg>
