<?xml version="1.0" encoding="utf-8"?>
<!-- Generator: Adobe Illustrator 16.0.0, SVG Export Plug-In . SVG Version: 6.00 Build 0)  -->
<!DOCTYPE svg PUBLIC "-//W3C//DTD SVG 1.1//EN" "http://www.w3.org/Graphics/SVG/1.1/DTD/svg11.dtd">
<svg version="1.1" id="Layer_1" xmlns="http://www.w3.org/2000/svg" xmlns:xlink="http://www.w3.org/1999/xlink" x="0px" y="0px"
	 width="300px" height="300px" viewBox="0 0 300 300" enable-background="new 0 0 300 300" xml:space="preserve">
<g id="budgets">
	<g>
		<path fill="#FF3F68" d="M153.152,217.126c-33.425,0-60.614-27.191-60.614-60.616c0-11.955,3.477-23.521,10.054-33.445
			c1.187-1.801,3.613-2.296,5.419-1.099c1.8,1.194,2.292,3.618,1.099,5.419c-5.724,8.64-8.751,18.711-8.751,29.125
			c0,29.11,23.684,52.792,52.794,52.792s52.792-23.682,52.792-52.792c0-29.11-23.682-52.793-52.792-52.793
			c-8.919,0-17.731,2.264-25.486,6.548c-1.892,1.04-4.269,0.355-5.314-1.534c-1.045-1.89-0.356-4.269,1.534-5.313
			c8.907-4.921,19.032-7.521,29.267-7.521c33.425,0,60.615,27.189,60.615,60.614C213.768,189.935,186.577,217.126,153.152,217.126z"
			/>
	</g>
	<g>
		<g>
			<path fill="#FF3F68" d="M72.559,144.776H32.962c-1.124,0-2.193-0.48-2.936-1.328c-0.744-0.843-1.085-1.968-0.942-3.082
				C36.47,83.077,83.559,37.489,141.048,31.965c1.106-0.097,2.19,0.257,3.002,0.998c0.813,0.742,1.278,1.793,1.278,2.896v39.463
				c0,1.945-1.427,3.596-3.353,3.87c-32.931,4.723-59.283,29.806-65.575,62.418C76.043,143.448,74.432,144.776,72.559,144.776z
				 M37.498,136.956h31.895c7.723-33.23,34.525-58.783,68.115-64.957V40.245C87.047,47.012,45.964,86.75,37.498,136.956z"/>
		</g>
		<g>
			<path fill="#FF3F68" d="M153.152,281.647c-65.825,0-120.669-51.422-124.854-117.065c-0.068-1.08,0.311-2.141,1.049-2.926
				c0.742-0.79,1.772-1.236,2.853-1.236h39.221c2.018,0,3.704,1.533,3.895,3.544c3.814,40.337,37.277,70.755,77.835,70.755
				c43.125,0,78.213-35.083,78.213-78.209c0-38.599-28.82-71.836-67.04-77.318c-1.923-0.274-3.353-1.925-3.353-3.87V35.858
				c0-1.103,0.469-2.154,1.281-2.896c0.816-0.74,1.893-1.097,3.002-0.998C229.698,38.155,278.29,91.696,278.29,156.51
				C278.29,225.511,222.152,281.647,153.152,281.647z M36.441,168.244c5.92,59.536,56.398,105.584,116.711,105.584
				c64.689,0,117.317-52.628,117.317-117.318c0-59.315-43.415-108.561-101.674-116.271v31.762
				c40.36,7.442,70.39,43.184,70.39,84.509c0,47.439-38.594,86.033-86.033,86.033c-43.419,0-79.447-31.696-85.217-74.299H36.441z"/>
		</g>
	</g>
</g>
<path fill="#FF3F68" d="M174.09,142.794v4.792c0,0.438-0.141,0.798-0.422,1.081c-0.282,0.281-0.643,0.422-1.08,0.422h-7.892
	c-0.721,4.509-2.74,8.172-6.06,10.991c-3.318,2.818-7.641,4.54-12.964,5.166c5.23,5.573,12.417,13.967,21.56,25.176
	c0.438,0.503,0.5,1.035,0.188,1.599c-0.252,0.563-0.705,0.846-1.362,0.846h-9.16c-0.501,0-0.892-0.188-1.174-0.563
	c-9.583-11.493-17.379-20.433-23.392-26.821c-0.282-0.281-0.423-0.627-0.423-1.034v-5.965c0-0.407,0.148-0.76,0.446-1.057
	c0.298-0.296,0.65-0.445,1.057-0.445h5.261c4.134,0,7.46-0.674,9.981-2.021c2.521-1.347,4.126-3.304,4.814-5.871h-20.057
	c-0.438,0-0.798-0.141-1.081-0.422c-0.282-0.283-0.423-0.643-0.423-1.081v-4.792c0-0.438,0.141-0.799,0.423-1.081
	c0.282-0.282,0.642-0.423,1.081-0.423h19.399c-1.785-3.538-5.981-5.308-12.589-5.308h-6.811c-0.407,0-0.759-0.149-1.057-0.446
	c-0.298-0.297-0.446-0.649-0.446-1.057v-6.247c0-0.438,0.141-0.799,0.423-1.081c0.282-0.282,0.642-0.422,1.081-0.422h39.081
	c0.437,0,0.797,0.141,1.079,0.422c0.281,0.282,0.423,0.642,0.423,1.081v4.792c0,0.438-0.142,0.798-0.423,1.08
	c-0.282,0.282-0.643,0.423-1.079,0.423h-10.945c1.472,1.911,2.473,4.165,3.007,6.764h8.032c0.438,0,0.798,0.141,1.08,0.423
	C173.949,141.996,174.09,142.356,174.09,142.794z"/>
</svg>
