<?xml version="1.0" encoding="utf-8"?>
<!-- Generator: Adobe Illustrator 13.0.0, SVG Export Plug-In . SVG Version: 6.00 Build 14948)  -->
<!DOCTYPE svg PUBLIC "-//W3C//DTD SVG 1.1//EN" "http://www.w3.org/Graphics/SVG/1.1/DTD/svg11.dtd">
<svg version="1.1" id="Layer_1" xmlns="http://www.w3.org/2000/svg" xmlns:xlink="http://www.w3.org/1999/xlink" x="0px" y="0px"
	 width="736.715px" height="297.346px" viewBox="0 0 736.715 297.346" enable-background="new 0 0 736.715 297.346"
	 xml:space="preserve">
<g>
	<path fill="#FFFFFF" stroke="#AFAFAF" d="M565.924,53.172c-0.061-0.158-0.121-0.316-0.185-0.471
		c-7.116-18.56-22.546-38.471-22.546-38.471S528.413,34.63,521.9,53.411c-0.057,0.155-0.11,0.314-0.166,0.473L565.924,53.172z"/>
	<path fill="#FFFFFF" stroke="#AFAFAF" d="M544.159,73.956c-7.841,0.126-14.113,6.606-13.987,14.449
		c0.129,7.84,6.606,14.113,14.447,13.987c7.843-0.125,14.119-6.607,13.989-14.452C558.481,80.104,551.999,73.829,544.159,73.956"/>
	<path fill="#FA684B" stroke="#FFFFFF" d="M567.709,58.02c-0.582,0.008-1.172,0.017-1.754,0.027l-4.685,0.075
		c-2.243,0.035-4.484,0.07-6.732,0.108c-2.633,0.043-5.264,0.087-7.899,0.128c-2.728,0.043-5.461,0.091-8.191,0.131
		c-2.533,0.042-5.067,0.085-7.603,0.123c-2.05,0.033-4.098,0.069-6.141,0.099c-1.269,0.022-2.536,0.042-3.799,0.063
		c-0.16,0-0.322,0.003-0.479,0.008c-0.072,0-0.198-0.023-0.267,0.005c-0.151,0.058-0.17,0.365-0.219,0.525
		c-0.168,0.534-0.336,1.075-0.502,1.613c-0.711,2.339-1.369,4.69-1.971,7.059c-0.679,2.686-1.285,5.39-1.811,8.108
		c-0.584,3.017-1.066,6.048-1.45,9.097c-0.415,3.336-0.712,6.684-0.882,10.04c-0.183,3.643-0.22,7.293-0.114,10.938
		c0.117,3.928,0.401,7.851,0.845,11.754c0.487,4.226,1.162,8.429,2.016,12.6c0.925,4.504,2.056,8.965,3.383,13.371
		c1.433,4.767,3.092,9.465,4.947,14.091c0.986,2.456,2.027,4.89,3.122,7.304c0.281,0.613,0.563,1.227,0.848,1.838
		c0.079,0.167,0.155,0.333,0.233,0.5c0.04,0.083,0.11,0.36,0.189,0.399c0.009,0.004,0.03-0.006,0.041,0
		c0.063,0.025,0.202-0.004,0.27-0.006c0.167-0.005,0.33-0.006,0.494-0.009c2.44-0.04,4.88-0.078,7.318-0.116
		c0.587-0.012,1.171-0.021,1.756-0.029c-0.444-6.37-0.878-12.742-1.119-19.123c-0.076-2.017-0.142-4.033-0.097-6.055
		c0.045-1.791,0.04-3.599,0.624-5.316c0.916-2.696,3.117-4.715,5.972-5.12c2.857-0.404,5.703,0.716,7.326,3.139
		c0.72,1.076,1.164,2.323,1.391,3.597c0.149,0.825,0.145,1.646,0.224,2.479c0.162,1.75,0.166,3.523,0.171,5.28
		c0.024,6.092-0.184,12.183-0.406,18.27c-0.03,0.873-0.062,1.749-0.096,2.623c2.319-0.038,4.643-0.075,6.964-0.112
		c0.631-0.016,1.264-0.02,1.897-0.03c0.214-0.005,0.434-0.01,0.647-0.011c0.093-0.005,0.254,0.025,0.341-0.006
		c0.013-0.008,0.031,0.004,0.047,0c0.084-0.044,0.182-0.418,0.22-0.51c0.086-0.201,0.174-0.403,0.262-0.607
		c0.3-0.703,0.596-1.405,0.885-2.114c0.589-1.421,1.156-2.851,1.708-4.286c2.073-5.418,3.881-10.932,5.384-16.533
		c1.37-5.109,2.485-10.285,3.32-15.506c0.764-4.774,1.29-9.588,1.568-14.414c0.252-4.421,0.295-8.851,0.125-13.272
		c-0.158-4.035-0.495-8.063-1.008-12.069c-0.465-3.616-1.075-7.21-1.824-10.777c-0.671-3.186-1.448-6.347-2.334-9.474
		c-0.771-2.732-1.619-5.442-2.541-8.126C568.121,59.194,567.917,58.608,567.709,58.02 M544.688,106.739
		c-3.846,0.06-7.659-1.089-10.823-3.277c-3.067-2.116-5.469-5.145-6.808-8.625c-1.401-3.633-1.612-7.688-0.611-11.446
		c0.967-3.622,3.054-6.909,5.904-9.343c2.894-2.468,6.521-4.009,10.307-4.36c3.845-0.359,7.758,0.501,11.089,2.456
		c3.212,1.878,5.825,4.724,7.425,8.084c1.672,3.521,2.188,7.548,1.467,11.38c-0.694,3.688-2.529,7.121-5.196,9.761
		c-2.691,2.665-6.181,4.472-9.92,5.111C546.587,106.636,545.638,106.725,544.688,106.739"/>
	<path fill="#FFFFFF" stroke="#AFAFAF" d="M512.748,138.753c0.348,1.535,0.747,3.059,1.16,4.574c0.987,3.623,2.1,7.213,3.36,10.748
		c0.77,2.146,1.587,4.271,2.479,6.369c0.225,0.525,0.453,1.048,0.688,1.564c0.111,0.257,0.227,0.509,0.342,0.76
		c0.11,0.242,0.319,0.532,0.372,0.792c0.035,0.188,0.05,0.031-0.009,0.141c-0.075,0.142-0.26,0.28-0.365,0.401
		c-0.232,0.268-0.46,0.541-0.68,0.82c-0.729,0.932-1.399,1.916-2.022,2.927c-0.94,1.524-1.767,3.11-2.507,4.741
		c-0.975,2.15-1.788,4.37-2.461,6.631c-0.838,2.81-1.462,5.68-1.899,8.577c-0.53,3.515-0.79,7.068-0.83,10.623
		c-0.047,4.281,0.229,8.561,0.753,12.809c0.141,1.147,0.302,2.293,0.478,3.435c-0.344-0.316-0.655-0.66-0.963-1.008
		c-0.859-0.979-1.638-2.028-2.36-3.11c-1.143-1.717-2.14-3.529-3.012-5.393c-1.196-2.547-2.165-5.196-2.937-7.902
		c-0.983-3.43-1.654-6.946-2.071-10.489c-0.521-4.421-0.651-8.89-0.478-13.341c0.095-2.371,0.259-4.748,0.497-7.114
		c0.224-2.21,0.602-4.407,1.091-6.575c0.735-3.25,1.749-6.447,3.116-9.489c1.555-3.461,3.574-6.74,6.181-9.506
		C511.33,140.042,512.022,139.378,512.748,138.753"/>
	<path fill="#FFFFFF" stroke="#AFAFAF" d="M577.648,137.704c-0.293,1.545-0.646,3.079-1.01,4.61
		c-0.868,3.651-1.865,7.272-3.011,10.847c-0.7,2.171-1.447,4.324-2.272,6.449c-0.206,0.531-0.417,1.061-0.635,1.587
		c-0.104,0.256-0.211,0.512-0.316,0.769c-0.106,0.246-0.304,0.542-0.348,0.807c-0.029,0.186-0.05,0.033,0.011,0.137
		c0.082,0.141,0.271,0.273,0.384,0.39c0.239,0.26,0.471,0.526,0.699,0.795c0.767,0.912,1.468,1.871,2.121,2.865
		c0.985,1.489,1.865,3.049,2.655,4.657c1.044,2.116,1.932,4.308,2.678,6.544c0.926,2.783,1.644,5.632,2.174,8.513
		c0.645,3.498,1.019,7.043,1.177,10.594c0.182,4.277,0.048,8.563-0.339,12.824c-0.107,1.151-0.229,2.302-0.367,3.448
		c0.331-0.323,0.635-0.682,0.929-1.035c0.825-1.009,1.571-2.082,2.257-3.189c1.087-1.751,2.026-3.593,2.838-5.483
		c1.111-2.586,1.994-5.266,2.682-7.993c0.866-3.463,1.425-6.999,1.729-10.552c0.377-4.438,0.36-8.908,0.044-13.349
		c-0.17-2.369-0.416-4.738-0.729-7.093c-0.296-2.205-0.742-4.387-1.305-6.539c-0.842-3.223-1.959-6.386-3.422-9.386
		c-1.662-3.404-3.787-6.618-6.482-9.3C579.111,138.943,578.396,138.302,577.648,137.704"/>
</g>
<path fill="#FFFFFF" stroke="#AFAFAF" d="M535.476,174.259"/>
<polygon fill="#FFFFFF" stroke="#AFAFAF" points="539.363,172.068 527.757,265.433 535.881,265.766 "/>
<polygon fill="#FFFFFF" stroke="#AFAFAF" points="542.957,171.815 542.852,265.898 550.953,265.235 "/>
<polygon fill="#FFFFFF" stroke="#AFAFAF" points="546.623,171.431 558.366,264.776 566.321,263.101 "/>
<path fill="#606060" d="M563.178,280.06"/>
<path fill="#AFAFAF" d="M468.12,281.524c0,0,31.541-75.592,75.014-5.586C543.134,275.938,510.316,242.655,468.12,281.524z"/>
<path fill="#AFAFAF" d="M808.143,280.849c0,0,30.743-75.92,74.951-6.374C883.094,274.475,849.928,241.537,808.143,280.849z"/>
<path fill="#AFAFAF" d="M299.917,319.651c0,0,20.216-79.373,73.404-16.431C373.321,303.22,336.013,275.059,299.917,319.651z"/>
<path fill="#AFAFAF" d="M648.32,288.017c0,0,33.339-46.858,52.23,7.829C700.551,295.846,683.717,254.42,648.32,288.017z"/>
<path fill="#AFAFAF" d="M533.331,288.573c0,0,10.161-60.693,53.928-16.901C587.259,271.672,553.721,249.564,533.331,288.573z"/>
<path fill="#AFAFAF" d="M401.165,272.286c0,0,13.954-49.183,41.985-7.038C443.15,265.248,418.991,242.774,401.165,272.286z"/>
<path fill="#AFAFAF" d="M715.036,278.876c0,0,10.651-50.002,41.425-9.815C756.461,269.06,730.86,248.244,715.036,278.876z"/>
<path fill="#AFAFAF" d="M626.711,274.503c0,0,21.336-27.822,31.65,5.91C658.361,280.413,647.398,260.326,626.711,274.503z"/>
<path fill="#AFAFAF" d="M431.604,254.981c0,0,29.75-47.771,51.481,4.513C483.085,259.494,462.44,229.111,431.604,254.981z"/>
<path fill="#AFAFAF" d="M344.449,281.996c0,0,8.682-33.972,31.426-7.007C375.874,274.989,357.898,260.829,344.449,281.996z"/>
<path fill="#AFAFAF" d="M577.024,275.907c0,0,37.984-48.417,55.435,10.988C632.459,286.893,611.385,261.091,577.024,275.907z"/>
<path fill="#AFAFAF" d="M743.637,277.674c0,0,37.984-48.416,55.435,10.988C799.071,288.662,777.998,262.861,743.637,277.674z"/>
<path fill="#AFAFAF" d="M369.082,279.463c0,0,21.259-33.352,36.147,3.548C405.229,283.01,390.131,267.831,369.082,279.463z"/>
<path fill="#AFAFAF" d="M684.098,274.518c0,0,10.225-38.206,35.536-7.502C719.634,267.016,700.665,257.086,684.098,274.518z"/>
<path fill="#AFAFAF" d="M790.375,270.093c0,0,7.884-29.46,27.4-5.785C817.775,264.307,803.149,256.652,790.375,270.093z"/>
</svg>
