<?xml version="1.0" encoding="utf-8"?>
<!-- Generator: Adobe Illustrator 13.0.0, SVG Export Plug-In . SVG Version: 6.00 Build 14948)  -->
<!DOCTYPE svg PUBLIC "-//W3C//DTD SVG 1.1//EN" "http://www.w3.org/Graphics/SVG/1.1/DTD/svg11.dtd">
<svg version="1.1" id="Layer_1" xmlns="http://www.w3.org/2000/svg" xmlns:xlink="http://www.w3.org/1999/xlink" x="0px" y="0px"
	 width="2048px" height="2048px" viewBox="0 0 2048 2048" enable-background="new 0 0 2048 2048" xml:space="preserve">
<g id="Layer_x0020_1">
	<g id="_462436080">
		<g>
			<g>
				<polygon id="_462402304" fill="none" stroke="#FEB500" stroke-width="40" points="256.003,289.393 768.001,289.393 
					768.001,556.524 256.003,556.524 				"/>
			</g>
			<g>
				<polygon id="_462401752" fill="none" stroke="#FEB500" stroke-width="40" points="480.006,589.915 992.004,589.915 
					992.004,857.045 480.006,857.045 				"/>
				<polygon id="_462401176" fill="none" stroke="#FEB500" stroke-width="40" points="256.003,589.915 448.001,589.915 
					448.001,857.045 256.003,857.045 				"/>
			</g>
			<g>
				<polygon id="_462401032" fill="none" stroke="#FEB500" stroke-width="40" points="256.003,890.435 768.001,890.435 
					768.001,1157.57 256.003,1157.57 				"/>
				<polygon id="_462400864" fill="none" stroke="#FEB500" stroke-width="40" points="800,890.435 1312,890.435 1312,1157.57 
					800,1157.57 				"/>
			</g>
			<g>
				<polygon id="_462400480" fill="none" stroke="#FEB500" stroke-width="40" points="480.006,1190.96 992.004,1190.96 
					992.004,1458.09 480.006,1458.09 				"/>
				<polygon id="_462437064" fill="none" stroke="#FEB500" stroke-width="40" points="1024,1190.96 1536,1190.96 1536,1458.09 
					1024,1458.09 				"/>
				<polygon id="_462436968" fill="none" stroke="#FEB500" stroke-width="40" points="1568,1190.96 1792,1190.96 1792,1458.09 
					1568,1458.09 				"/>
				<polygon id="_462436728" fill="none" stroke="#FEB500" stroke-width="40" points="256.003,1190.96 448.001,1190.96 
					448.001,1458.09 256.003,1458.09 				"/>
			</g>
			<g>
				<polygon id="_462436584" fill="none" stroke="#FEB500" stroke-width="40" points="256.003,1491.48 768.001,1491.48 
					768.001,1758.61 256.003,1758.61 				"/>
				<polygon id="_462436416" fill="none" stroke="#FEB500" stroke-width="40" points="800,1491.48 1312,1491.48 1312,1758.61 
					800,1758.61 				"/>
				<polygon id="_462436296" fill="none" stroke="#FEB500" stroke-width="40" points="1344,1491.48 1792,1491.48 1792,1758.61 
					1344,1758.61 				"/>
			</g>
		</g>
	</g>
</g>
</svg>
