<?xml version="1.0" encoding="utf-8"?>
<!-- Generator: Adobe Illustrator 13.0.0, SVG Export Plug-In . SVG Version: 6.00 Build 14948)  -->
<!DOCTYPE svg PUBLIC "-//W3C//DTD SVG 1.1//EN" "http://www.w3.org/Graphics/SVG/1.1/DTD/svg11.dtd">
<svg version="1.1" xmlns="http://www.w3.org/2000/svg" xmlns:xlink="http://www.w3.org/1999/xlink" x="0px" y="0px" width="400px"
	 height="200px" viewBox="0 0 400 200" enable-background="new 0 0 400 200" xml:space="preserve">
<g id="Layer_1">
	
		<linearGradient id="SVGID_1_" gradientUnits="userSpaceOnUse" x1="-29.0767" y1="38.7598" x2="417.8145" y2="38.7598" gradientTransform="matrix(0.9986 0.0522 -0.0522 0.9986 2.2885 -10.0933)">
		<stop  offset="0" style="stop-color:#D4FC79"/>
		<stop  offset="1" style="stop-color:#96E6A1"/>
	</linearGradient>
	<path opacity="0.7" fill="url(#SVGID_1_)" d="M-9.061,72.927c0,0,56.582-67.138,143.03-25.568
		c86.447,41.569,194.023,81.239,258.333,19.511c64.311-61.727-2.236-81.728-48.905-70.148C296.729,8.302,75.789-17.767,63.306-18.42
		c-12.483-0.652-60.417-3.158-62.914-3.288c-2.497-0.131-19.287,5-22.362,6.341c-3.074,1.341-7.055,39.186-6.816,44.205
		C-28.548,33.857-9.061,72.927-9.061,72.927z"/>
	<linearGradient id="SVGID_2_" gradientUnits="userSpaceOnUse" x1="141.1123" y1="49.6826" x2="177.1123" y2="15.1826">
		<stop  offset="0" style="stop-color:#D4FC79"/>
		<stop  offset="1" style="stop-color:#96E6A1"/>
	</linearGradient>
	<path opacity="0.49" fill="url(#SVGID_2_)" d="M-23.796,98.748c0,0,47.872-73.602,138.786-43.008s202.56,56.697,258.768-12.488
		c56.209-69.185-12.296-80.829-57.181-63.583C271.693-3.086,49.225-1.715,36.756-0.824C24.288,0.067-23.59,3.491-26.083,3.669
		s-18.523,7.34-21.409,9.05c-2.886,1.71-2.17,39.756-1.315,44.708C-47.952,62.379-23.796,98.748-23.796,98.748z"/>
	
		<linearGradient id="SVGID_3_" gradientUnits="userSpaceOnUse" x1="159.229" y1="-42.0942" x2="168.562" y2="-12.7607" gradientTransform="matrix(0.9799 -0.1993 0.1993 0.9799 -2.6823 35.8765)">
		<stop  offset="0" style="stop-color:#D4FC79"/>
		<stop  offset="1" style="stop-color:#96E6A1"/>
	</linearGradient>
	<path opacity="0.67" fill="url(#SVGID_3_)" d="M-17.495,100.351c0,0,44.017-75.97,136.387-50.099
		C211.26,76.123,324.104,96.44,376.673,24.452c52.57-71.989-16.443-80.088-60.38-60.554C272.356-16.568,50.254-3.741,37.848-2.208
		C25.443-0.676-22.195,5.209-24.677,5.516c-2.481,0.307-18.121,8.285-20.915,10.141c-2.793,1.857-0.119,39.815,0.99,44.716
		C-43.492,65.274-17.495,100.351-17.495,100.351z"/>
	<path fill="#FFFFFF" d="M308-10.5"/>
	<path fill="#FFFFFF" d="M-5.5,91.5"/>
	<g>
		<title>background</title>
		<rect id="canvas_background" x="14.192" y="-16.5" fill="none" width="138.615" height="95.745"/>
	</g>
</g>
<g id="Layer_3">
	<g>
		<title>background</title>
		<rect id="canvas_background_1_" x="38.167" y="-26.5" fill="none" width="582" height="402"/>
	</g>
	<g>
		<title>Layer 1</title>
		<path id="svg_2_1_" fill="#2B2D03" d="M107.479,65.935H91.795l0,0h-0.151l0,0h-0.151l0,0h-0.151l0,0h-0.15l0,0h-0.15l0,0H90.89
			l0,0h-0.151l0,0h-0.15l0,0h-0.151l0,0h-0.15l0,0h-0.151l0,0h-0.15l0,0h-0.151l0,0h-0.151l0,0h-0.15l0,0h-0.151l0,0h-0.151l0,0
			H89.08l0,0h-0.151l0,0h-0.15l0,0h-0.151l0,0h-0.151l0,0h-0.075l0,0h-0.076l0,0H88.25l0,0h-0.076l0,0L88.1,65.86l0,0l-0.075-0.076
			l0,0l-0.076-0.075l0,0l-0.076-0.075l0,0l-0.076-0.076l0,0l-0.075-0.075l0,0l-0.075-0.075l0,0l0.15-0.302l0,0l-0.075-0.075l0,0
			l-0.075-0.076l0,0l-0.075-0.075l0,0l-0.076-0.075l0,0l-0.076-0.076l0,0l-0.076-0.075l0,0l-0.075-0.076l0,0l-0.075-0.075l0,0
			l-0.076-0.076l0,0l-0.076-0.075l0,0l-0.076-0.075l0,0l-0.376,0.15l0,0l-0.076-0.075l0,0l-0.075-0.075l0,0l-0.076-0.076l0,0
			l-0.076-0.075l0,0l-0.075-0.076l0,0l-0.076-0.076l0,0L86.064,63.9l0,0h-0.227l0,0l-0.075-0.076l0,0l-0.076-0.075l0,0l-0.076-0.076
			l0,0l-0.151-0.076l0,0l-0.075-0.075l0,0l-0.076-0.076l0,0l-0.076-0.076l0,0l-0.076-0.076l0,0l-0.075-0.075l0,0l-0.075-0.076l0,0
			l-0.075-0.076l0,0l-0.076-0.075l0,0l-0.076-0.076l0,0l-0.075-0.075l0,0l-0.075-0.076l0,0l-0.076-0.076l0,0l-0.075-0.075l0,0
			l-0.151-0.151l0,0v-0.075l0,0l-0.075-0.076l0,0l-0.075-0.075l0,0l-0.076-0.151l0,0l-0.076-0.075l0,0l-0.075-0.075l0,0
			l-0.075-0.076l0,0l-0.075-0.076l0,0l-0.076-0.075l0,0l-0.076-0.075l0,0l-0.075-0.075l0,0v-0.227l0,0L83.5,61.261l0,0l-0.075-0.075
			l0,0l-0.076-0.076l0,0l-0.076-0.075l-0.075-0.076l-0.075-0.075l0.075-0.302l0,0l-0.075-0.075l0,0l-0.075-0.075l-0.076-0.076
			l-0.075-0.076l0,0l-0.075-0.076l-0.076-0.075l0.076-0.227l0,0v-0.15l-0.076-0.075l-0.075-0.076l-0.075-0.076l0,0v-0.075l0,0
			v-0.076l0,0V59.3v-0.152v-0.15v-0.151v-0.151v-0.15l0,0v-0.152v-0.149v-0.151v-0.151v-0.15v-0.152v-0.15v-0.151v-0.151v-0.15
			v-0.152v-0.15v-0.151v-0.15v-0.15v-0.152v-0.15v-0.151l0,0l0,0V55.68l0,0v-0.15l0,0v-0.152l0,0v-0.15l0,0v-0.151v-0.151l0,0v-0.15
			v-0.151l0,0v-0.15l0,0v-0.151v-0.151l0,0v-0.15V53.87l0,0v-0.15l0,0v-0.151l0,0v-0.151v-0.15v-0.152v-0.15v-0.15v-0.151l0,0v-0.15
			v-0.152l0,0v-0.075v-0.075v-0.076l0.075-0.076l0.075-0.076l0,0l0.076-0.075l0.075-0.075l0.075-0.076l0.076-0.076l0.075-0.076l0,0
			l0.075-0.075l0.075-0.075l0,0l0.076-0.075l0,0l0.076-0.076l0,0l0.075-0.076l0.076-0.076l0,0l0.075-0.075l0.076-0.075l0.076-0.076
			l0.075-0.076l0,0l0.075-0.076l0,0l0.075-0.075l0.076-0.075l0,0l0.076-0.076l0.075-0.076l0.075-0.075l0,0l0.076-0.076l0,0
			l0.076-0.075l0,0l0.075-0.076l0,0l0.076-0.076l0,0l0.075-0.075l0,0l0.075-0.076l0,0l0.076-0.075l0,0l0.076-0.076l0,0l0.075-0.076
			l0,0l0.075-0.075l0,0l0.075-0.075l0,0l0.076-0.075l0,0l0.076-0.076l0,0l0.076-0.076l0,0l0.075-0.075l0,0l0.075-0.075l0,0
			l0.076-0.075l0,0l0.076-0.076l0,0l0.076-0.076l0,0l0.075-0.075l0,0l0.075-0.075l0.076-0.075l0,0l0.076-0.076l0.075-0.076l0,0
			l0.076-0.075l0,0l0.075-0.075l0,0l0.076-0.076l0,0l0.076-0.076l0,0l0.075-0.075l0,0l0.076-0.076l0,0l0.075-0.075l0,0l0.076-0.075
			l0.076-0.076l0.075-0.075l0,0l0.075-0.076l0.076-0.075l0,0l0.076-0.075l0,0l0.076-0.076l0.075-0.075l0,0
			c0.075-0.076,0.226-0.076,0.302-0.151l0.075-0.075l0.075-0.076l0,0l0.075-0.075l0,0l0.076-0.076l0.076-0.075l0.076-0.075l0,0
			l0.075-0.076l0.075-0.075l0,0c0.076,0,0.151-0.076,0.227-0.076l0,0l0.075-0.076h0.075h0.076h0.076l0,0h0.075l0,0h0.15l0,0h0.151
			l0,0h0.151l0,0h0.151h0.151l0,0h0.15l0,0h0.151l0,0h0.151l0,0h0.15h0.151l0,0h0.15l0,0h0.151l0,0h0.15l0,0h0.151l0,0h0.151l0,0
			h0.15l0,0h0.15l0,0h0.151l0,0h0.151l0,0h0.151l0,0h0.15l0,0h0.151l0,0h15.685v-7.088c0-1.583-0.603-2.941-1.659-3.997
			c-1.056-1.055-2.413-1.658-3.998-1.658h-2.186h-5.43H69.248h-5.429h-9.049l0,0l0,0l0,0l0,0l0,0h-0.075l0,0h-0.075l0,0l0,0l0,0l0,0
			l0,0l0,0l0,0l0,0l0,0l0,0l0,0l0,0l0,0l0,0l0,0l0,0l0,0l0,0l0,0l0,0l0,0l0,0l0,0l0,0h-0.076l0,0
			c-1.282,0.15-2.488,0.753-3.318,1.658c-1.056,1.056-1.659,2.414-1.659,3.997v33.406c0,1.583,0.604,2.94,1.659,3.996
			c1.056,1.055,2.413,1.659,3.997,1.659h47.055c1.584,0,2.941-0.604,3.997-1.659c1.056-1.056,1.659-2.413,1.659-3.996v-0.227v-6.711
			L107.479,65.935L107.479,65.935z M108.988,62.919h3.921l0,0h2.639c0.227,0,0.453-0.075,0.603-0.301
			c0.151-0.151,0.302-0.377,0.302-0.604V50.704c0-0.227-0.075-0.453-0.226-0.604l0,0c-0.151-0.15-0.377-0.226-0.603-0.226h-2.639
			h-3.922H91.795l0,0h-0.076l0,0h-0.075l0,0h-0.076l0,0h-0.075l0,0h-0.075l0,0h-0.076l0,0h-0.075l0,0h-0.076l0,0h-0.076l0,0h-0.075
			l0,0h-0.076l0,0H90.89l0,0h-0.076l0,0h-0.076l0,0h-0.075l0,0h-0.076l0,0h-0.076l0,0h-0.076h-0.075h-0.075l0,0h-0.076l0,0h-0.075
			l0,0H90.06l0,0h-0.075l0,0H89.91l0,0h-0.076h-0.075l0,0l-0.151,0.076l0,0h-0.075l0,0l-0.151,0.076l0,0h-0.076l0,0h-0.075h-0.076
			l0,0H89.08h-0.075h-0.076h-0.075l0,0h-0.075L88.704,50.1l-0.076,0.076l-0.076,0.075l-0.15,0.528h-0.076l0,0l-0.076,0.076l0,0
			l-0.076,0.076H88.1l0,0l-0.075,0.075l0,0l-0.076,0.076l0,0l-0.076,0.075l0,0l-0.076,0.076l0,0l-0.075,0.076l0,0l-0.075,0.075l0,0
			l-0.075,0.076l0,0l-0.152,0.075l0,0l-0.076,0.075l0,0l-0.075,0.076l0,0l0.075-0.151l0,0l-0.075,0.075l-0.075,0.076l0,0
			l-0.076,0.075l0,0l-0.076,0.076l0,0l-0.076,0.075l0,0l-0.075,0.075l0,0l-0.075,0.076l0,0l-0.076,0.075l0,0l-0.076,0.076
			l-0.075,0.075l-0.076,0.075l-0.075,0.076l0.225-0.151l0,0l-0.075,0.075l0,0l-0.076,0.076l-0.075,0.075l0,0l-0.076,0.076l0,0
			l-0.076,0.075l0,0l-0.075,0.075l-0.076,0.076l-0.075,0.075l0,0l-0.076,0.075l0,0l-0.076,0.076h0.227l-0.075,0.075l0,0
			l-0.076,0.075l-0.076,0.076v0.076l0,0v0.075v0.075v0.075l0,0v0.076v0.076l0,0v0.075v0.076v0.075v0.076v0.076l0,0v0.075l0,0v0.075
			l0,0v0.075v0.076v0.076l0,0v0.075v0.076v0.075v0.076v0.076v0.075v0.075v0.075l0,0v0.076l0,0v0.076v0.075v0.075l0,0v0.076l0,0
			v0.076v0.076l0,0v0.075v0.075l0,0v0.076l0,0v0.076l0,0v0.076v0.075l0,0v0.075l0,0v0.075l0,0v0.076l0,0l0,0v0.076v0.076v0.075
			v0.075v0.076v0.076v0.076v0.075v0.075v0.076v0.076v0.075v0.076v0.075v0.076v0.076v0.075v0.076l0,0v0.075l0,0v0.076v0.076v0.075
			v0.075v0.075v0.076v0.076l0,0v0.075l0,0v0.075v0.076v0.076v0.076v0.075v0.075l0,0v0.075l0,0v0.076v0.076l0,0v0.075l0,0v0.075l0,0
			v0.076V59.3l0,0l0.076,0.075l0,0l0.076,0.076l0,0l0.075,0.075l0,0l0.076,0.075l0,0l0.075,0.076l0,0l0.076,0.076l0,0l0.076,0.075
			l0,0l0.075,0.075l0,0l0.076,0.075l0,0l0.075,0.076l0,0l0.076,0.076l0,0l0.076,0.075l0,0l0.075,0.076l0,0l0.075,0.075l0,0
			l0.076,0.076l0,0l0.076,0.076l0.076,0.075l0,0l0.075,0.075l0,0l0.075,0.075l0,0l0.076,0.076l0,0l0.076,0.076l0,0l0.076,0.075l0,0
			l0.075,0.076l0,0l0.075,0.075l0,0l0.075,0.076l0,0l0.076,0.076l0,0l0.076,0.075l0,0l0.076,0.076l0,0l0.075,0.075l0,0l0.075,0.076
			l0,0l0.076,0.076l0,0l0.076,0.075l0,0l0.076,0.075l0,0l0.075,0.076l0,0l0.075,0.076l0,0l0.076,0.076l0,0l0.076,0.075l0,0
			l0.075,0.075l0,0l0.075,0.076l0,0l0.075,0.076l0,0l0.076,0.076l0,0l0.076,0.075l0,0l0.075,0.075l0,0l0.076,0.075l0,0l0.075,0.076
			l0,0l0.076,0.076l0,0l0.076,0.076l0,0l0.075,0.075l0,0h0.075l0,0h0.075l0,0h0.076l0,0h0.075l0,0h0.076l0,0h0.076l0,0h0.075l0,0
			h0.076l0,0h0.075l0,0h0.076l0,0h0.075l0,0h0.075l0,0h0.076l0,0h0.076l0,0h0.076l0,0h0.075l0,0h0.076l0,0h0.076l0,0h0.075l0,0
			h0.076l0,0h0.075l0,0h0.076l0,0h0.076l0,0h0.075l0,0h0.076l0,0h0.075l0,0h0.075l0,0h0.076l0,0h0.075l0,0h0.076l0,0h0.075l0,0
			h0.075l0,0h0.076l0,0h0.075l0,0h0.076l0,0h0.075l0,0h0.075l0,0h0.076l0,0h0.075l0,0h0.076H108.988L108.988,62.919z
			 M111.401,65.935h-0.905v3.544l0.075-0.151c0.528-0.829,0.831-1.885,0.831-2.94V65.935z M101.145,30.946h0.679
			c2.413,0,4.6,0.98,6.107,2.564c1.584,1.583,2.564,3.771,2.564,6.108v7.087h0.905V32.982c0-1.583-0.604-2.94-1.66-3.997
			c-1.056-1.055-2.413-1.659-3.997-1.659h-4.675v3.62H101.145z M92.398,53.794c1.432,0,2.563,1.131,2.563,2.564
			c0,1.432-1.131,2.563-2.563,2.563c-1.434,0-2.564-1.131-2.564-2.563C89.834,54.926,90.965,53.794,92.398,53.794z M62.31,24.31
			v-8.294c0-1.886,0.754-3.544,1.96-4.751s2.866-1.96,4.751-1.96h25.337c1.885,0,3.544,0.754,4.75,1.96
			c1.207,1.207,1.961,2.865,1.961,4.751v8.294h4.675c2.413,0,4.6,0.98,6.108,2.564c1.583,1.584,2.564,3.771,2.564,6.108v13.8h1.131
			c1.056,0,2.036,0.453,2.79,1.131l0,0l0,0l0,0c0.679,0.754,1.131,1.734,1.131,2.791v11.311c0,1.055-0.452,2.036-1.131,2.79
			c-0.678,0.679-1.734,1.13-2.79,1.13h-1.056v0.454c0,1.659-0.452,3.242-1.282,4.524c-0.678,1.131-1.583,2.036-2.714,2.715
			c-0.151,2.111-1.131,4.072-2.564,5.504c-1.583,1.584-3.771,2.564-6.107,2.564H54.769c-2.413,0-4.6-0.98-6.107-2.564
			c-1.584-1.583-2.564-3.771-2.564-6.108V39.619c0-2.413,0.98-4.6,2.564-6.108c0.452-0.453,0.904-0.83,1.433-1.131
			c0.15-2.111,1.131-4.072,2.563-5.505c1.584-1.583,3.771-2.564,6.108-2.564H62.31z M70.832,21.294v9.652h21.868v-9.652
			c-0.829-0.226-1.508-0.678-2.111-1.282c-0.603-0.603-1.056-1.282-1.283-2.112H74.225c-0.226,0.83-0.679,1.509-1.282,2.112
			C72.339,20.616,71.585,21.068,70.832,21.294z M67.739,30.946V20.012c0-0.83,0.679-1.508,1.508-1.508
			c0.604,0,1.131-0.226,1.508-0.604c0.377-0.377,0.603-0.905,0.603-1.508c0-0.83,0.679-1.508,1.508-1.508h17.646
			c0.829,0,1.508,0.678,1.508,1.508c0,0.604,0.226,1.131,0.604,1.508c0.377,0.377,0.905,0.604,1.508,0.604
			c0.829,0,1.508,0.679,1.508,1.508v10.934h2.413v-5.127V15.94c0-0.98-0.377-1.96-1.056-2.564c-0.679-0.679-1.583-1.056-2.563-1.056
			H69.021c-0.98,0-1.96,0.377-2.564,1.056c-0.679,0.679-1.056,1.583-1.056,2.564v9.879v5.127H67.739z M54.769,30.946h7.541v-3.62
			h-3.544c-1.583,0-2.94,0.604-3.997,1.659c-0.603,0.603-1.056,1.282-1.357,2.036c0.226,0,0.452-0.075,0.678-0.075l0,0h0.076l0,0
			l0,0l0,0h0.076l0,0l0,0l0,0l0,0l0,0l0,0l0,0l0,0l0,0l0,0l0,0l0,0l0,0l0,0l0,0l0,0l0,0l0,0l0,0l0,0l0,0l0,0l0,0l0,0l0,0H54.769
			L54.769,30.946L54.769,30.946L54.769,30.946z"/>
		<path id="svg_3_1_" fill="#96E6A1" d="M101.824,33.962H54.769c-3.091,0-5.656,2.489-5.656,5.656v33.405
			c0,3.091,2.564,5.656,5.656,5.656h47.055c3.091,0,5.655-2.564,5.655-5.656v-7.089H91.795l-1.961-0.226h-0.226l-0.679-0.151h-0.075
			h-0.075l-0.453-0.15L88.1,65.332l-0.075-0.075l-0.302-0.151l-0.075-0.075l-0.377-0.227l-0.076-0.076l-0.075-0.075l-0.076-0.076
			l-0.076-0.075l-0.376-0.076l-0.076-0.075l-0.076-0.075l-0.226-0.151l-0.076-0.076l-0.076-0.076L85.989,63.9h-0.151l-0.075-0.076
			l-0.076-0.075l-0.075-0.076l-0.151-0.15l-0.075-0.076l-0.076-0.076l-0.075-0.076l-0.151-0.075l-0.075-0.076l-1.207-1.508
			l-0.679-1.207c-0.754-1.508-0.98-3.243-0.83-4.901l0.377-1.885l1.207-2.639l0.829-1.056l0.302-0.302l0.075-0.075l0.075-0.076
			l0.076-0.075l0.075-0.076l0.076-0.075l0.15-0.151l0.151-0.151l0.076-0.075l0.075-0.075l0.075-0.076l0.076-0.075l0.075-0.076
			l0.076-0.075l0.076-0.075l0.301-0.227l0.226-0.15l0.076-0.076c1.508-0.829,3.092-1.282,4.75-1.282h15.686v-7.087
			C107.479,36.526,104.916,33.962,101.824,33.962L101.824,33.962z"/>
		<path id="svg_4_1_" fill="#C0D863" d="M62.31,30.946v-3.62h-3.544c-2.413,0-4.524,1.508-5.278,3.695l1.357-0.075H62.31z"/>
		<path id="svg_5" fill="#C0D863" d="M70.832,21.294v9.652h21.868v-9.652c-1.583-0.528-2.865-1.81-3.394-3.394H74.225
			C73.697,19.56,72.415,20.841,70.832,21.294z"/>
		<path id="svg_6" fill="#C0D863" d="M69.248,18.504c1.131,0,2.111-0.98,2.111-2.112c0-0.83,0.679-1.508,1.508-1.508h17.646
			c0.829,0,1.508,0.678,1.508,1.508c0,1.131,0.98,2.112,2.111,2.112c0.829,0,1.508,0.679,1.508,1.508v10.934h2.413V15.94
			c0-2.036-1.659-3.695-3.695-3.695H69.021c-2.036,0-3.695,1.659-3.695,3.695v15.006h2.413V20.012
			C67.739,19.183,68.418,18.504,69.248,18.504z"/>
		<path id="svg_7" fill="#C0D863" d="M101.145,27.327v3.62h0.679c4.751,0,8.672,3.921,8.672,8.672v7.087h0.905V32.982
			c0-3.091-2.564-5.655-5.656-5.655H101.145z"/>
		<path id="svg_8" fill="#C0D863" d="M92.398,53.794c1.432,0,2.563,1.131,2.563,2.564c0,1.432-1.131,2.563-2.563,2.563
			c-1.434,0-2.564-1.131-2.564-2.563C89.834,54.926,90.965,53.794,92.398,53.794z M115.624,49.799H91.719l-1.734,0.226l-0.377,0.15
			l-0.453,0.151l-0.83,0.452l-0.075,0.076L88.1,50.93l-0.075,0.075l-0.151,0.076l-0.151,0.075l-0.151,0.076l-0.15,0.076
			l-0.076,0.075v0.151l-0.15,0.075l-0.075,0.076l-0.076,0.075l-0.754,0.905l-0.603,1.056c-0.075,0.301-0.528,1.131-0.603,2.489
			l0.151,1.659c0.151,1.055,1.206,2.488,1.206,2.488l0.604,0.679l0.076,0.075l0.075,0.075l0.076,0.076l0.075,0.075l0.076,0.076
			l0.076,0.076l0.075,0.075l0.151,0.076l0.151,0.075l0.075,0.075l0.076,0.076l0.075,0.075l0.075,0.076l0.076,0.075l0.075,0.075
			l0.076,0.076l0.075,0.075l0.151,0.076l0.075,0.075l0.151,0.075l0.151,0.076h0.075h0.075l0.15,0.075h0.076l0.452,0.151h0.076
			l0.527,0.151h0.076l1.131,0.15h17.57h6.561c0.528,0,0.905-0.377,0.905-0.905V50.93C116.529,50.25,116.076,49.799,115.624,49.799
			L115.624,49.799z"/>
		<path id="svg_9" fill="#EAB43B" d="M110.496,65.935v3.544c0.754-1.206,0.905-2.111,0.905-3.544H110.496z"/>
	</g>
</g>
<g id="Layer_4" display="none">
	<g display="inline">
		<title>Layer 1</title>
		<path id="rect4204" fill="#96E6A1" stroke="#454545" stroke-width="0.25" d="M47.197,17.802h51.609
			c1.979,0,3.571,1.593,3.571,3.572v51.608c0,1.979-1.592,3.572-3.571,3.572H47.197c-1.979,0-3.573-1.592-3.573-3.572V21.374
			C43.625,19.395,45.218,17.802,47.197,17.802z"/>
		<path id="rect4199" stroke="#454545" stroke-width="0.25" d="M47.197,16.579c-2.636,0-4.796,2.16-4.796,4.795v51.609
			c0,2.637,2.16,4.795,4.796,4.795h51.609c2.634,0,4.795-2.159,4.795-4.795V21.375c0-2.636-2.161-4.795-4.795-4.795H47.197z
			 M47.197,19.027h51.609c1.322,0,2.348,1.026,2.348,2.348v51.609c0,1.322-1.026,2.348-2.348,2.348H47.197
			c-1.322,0-2.348-1.025-2.348-2.348V21.375C44.85,20.053,45.875,19.027,47.197,19.027z"/>
		<path id="path4206" fill="#D4FC79" stroke="#454545" stroke-width="0.25" d="M55.865,34.938c0,3.11-1.633,5.984-4.284,7.539
			c-2.65,1.555-5.917,1.555-8.568,0c-2.65-1.555-4.284-4.429-4.284-7.539h8.568H55.865z"/>
		<path id="path4202" fill="#D4FC79" stroke="#454545" stroke-width="0.25" d="M38.729,34.693l4.896-20.563
			c0.472-1.979,1.639-3.672,3.673-3.672h51.408c2.032,0,3.199,1.693,3.672,3.672l4.896,20.563"/>
		<path id="path4210" fill="#96E6A1" stroke="#454545" stroke-width="0.25" d="M73,34.938c0,3.11-1.633,5.984-4.284,7.539
			c-2.65,1.555-5.917,1.555-8.568,0c-2.65-1.555-4.284-4.429-4.284-7.539h8.568H73z"/>
		<path id="path4214" fill="#96E6A1" stroke="#454545" stroke-width="0.25" d="M55.866,34.693l2.448-24.235h14.811v24.235"/>
		<path id="path3833" stroke="#454545" stroke-width="0.25" d="M55.866,33.715c-0.677,0-1.224,0.548-1.224,1.224
			c0,3.54,1.857,6.816,4.887,8.592c3.029,1.776,6.777,1.776,9.806,0c3.029-1.776,4.892-5.053,4.892-8.592
			c0-0.675-0.548-1.224-1.224-1.224h-8.568H55.866z M57.41,36.163h7.023h7.019c-0.373,2.165-1.456,4.146-3.356,5.259
			c-2.272,1.334-5.057,1.334-7.33,0C58.866,40.307,57.783,38.328,57.41,36.163z"/>
		<path id="path3831" stroke="#454545" stroke-width="0.25" d="M38.729,33.715c-0.676,0-1.224,0.548-1.224,1.224
			c0,3.54,1.858,6.816,4.887,8.592s6.777,1.776,9.806,0c3.029-1.776,4.892-5.053,4.892-8.592c0-0.675-0.547-1.224-1.224-1.224
			h-8.568H38.729z M40.274,36.163h7.024h7.019c-0.373,2.165-1.456,4.146-3.356,5.259c-2.272,1.334-5.057,1.334-7.33,0
			C41.73,40.307,40.647,38.328,40.274,36.163z"/>
		<path id="path4208" fill="#D4FC79" stroke="#454545" stroke-width="0.25" d="M90.138,34.938c0,3.11-1.635,5.984-4.284,7.539
			c-2.651,1.555-5.919,1.555-8.568,0c-2.651-1.555-4.284-4.429-4.284-7.539h8.568H90.138z"/>
		<path id="path4212" fill="#96E6A1" stroke="#454545" stroke-width="0.25" d="M107.274,34.938c0,3.11-1.635,5.984-4.284,7.539
			c-2.651,1.555-5.919,1.555-8.568,0c-2.651-1.555-4.284-4.429-4.284-7.539h8.568H107.274z"/>
		<path id="path3835" stroke="#454545" stroke-width="0.25" d="M73.002,33.715c-0.677,0-1.224,0.548-1.224,1.224
			c0,3.54,1.857,6.816,4.887,8.592c3.029,1.776,6.777,1.776,9.806,0s4.891-5.053,4.891-8.592c0-0.675-0.547-1.224-1.224-1.224H81.57
			H73.002z M74.546,36.163h7.023h7.019c-0.373,2.165-1.456,4.146-3.356,5.259c-2.271,1.334-5.059,1.334-7.33,0
			C76.002,40.307,74.919,38.328,74.546,36.163z"/>
		<path id="path4216" fill="#96E6A1" stroke="#454545" stroke-width="0.25" d="M90.262,34.693l-2.448-24.235h10.892
			c2.032,0,3.199,1.693,3.672,3.672l4.896,20.563"/>
		<path id="path3837" stroke="#454545" stroke-width="0.25" d="M90.138,33.715c-0.677,0-1.224,0.548-1.224,1.224
			c0,3.54,1.857,6.816,4.886,8.592c3.029,1.776,6.778,1.776,9.807,0s4.891-5.053,4.891-8.592c0-0.675-0.547-1.224-1.224-1.224
			h-8.568H90.138z M91.682,36.163h7.024h7.019c-0.373,2.165-1.456,4.146-3.356,5.259c-2.271,1.334-5.059,1.334-7.33,0
			C93.138,40.307,92.055,38.328,91.682,36.163z"/>
		<path id="path3839" stroke="#454545" stroke-width="0.25" d="M47.298,9.235c-1.357,0-2.54,0.618-3.333,1.497
			c-0.792,0.88-1.26,1.979-1.53,3.113l-4.896,20.564c-0.163,0.656,0.237,1.321,0.893,1.483c0.656,0.163,1.321-0.236,1.483-0.893
			c0.001-0.007,0.003-0.015,0.004-0.021l4.896-20.564c0.201-0.844,0.549-1.579,0.966-2.042c0.417-0.461,0.838-0.688,1.516-0.688
			h51.408c0.679,0,1.095,0.228,1.511,0.688c0.416,0.462,0.77,1.198,0.971,2.042l4.896,20.564c0.151,0.66,0.808,1.071,1.468,0.92
			c0.658-0.151,1.071-0.807,0.918-1.466c0-0.008-0.002-0.015-0.004-0.024l-4.896-20.564c-0.271-1.134-0.736-2.233-1.53-3.113
			c-0.793-0.878-1.975-1.497-3.333-1.497H47.298z"/>
		<path id="path3841" stroke="#454545" stroke-width="0.25" d="M58.299,9.221c-0.63,0.008-1.151,0.492-1.205,1.119l-2.448,24.241
			c-0.066,0.674,0.428,1.273,1.102,1.339c0.668,0.064,1.265-0.421,1.336-1.09l2.448-24.241c0.079-0.67-0.401-1.279-1.072-1.359
			C58.407,9.223,58.353,9.221,58.299,9.221z"/>
		<path id="path3843" stroke="#454545" stroke-width="0.25" d="M72.983,9.221c-0.677,0.011-1.216,0.568-1.205,1.243l0,0v24.241
			c-0.01,0.676,0.531,1.232,1.208,1.242c0.675,0.01,1.231-0.531,1.241-1.207c0-0.011,0-0.023,0-0.035V10.464
			c0.011-0.675-0.528-1.232-1.205-1.243C73.008,9.221,72.996,9.221,72.983,9.221z"/>
		<path id="path3845" stroke="#454545" stroke-width="0.25" d="M87.666,9.221c-0.676,0.012-1.214,0.569-1.205,1.244
			c0.002,0.042,0.005,0.083,0.01,0.123l2.448,24.241c0.072,0.673,0.674,1.161,1.348,1.089c0.669-0.072,1.155-0.668,1.09-1.337
			l-2.448-24.241C88.854,9.698,88.312,9.208,87.666,9.221z"/>
		<path id="path3847" stroke="#454545" stroke-width="0.25" d="M89.222,55.267c-1.565,0.206-3.062,0.911-4.236,2.085
			c-2.345,2.345-2.826,5.996-1.167,8.869c1.659,2.874,5.057,4.277,8.262,3.418c3.206-0.86,5.446-3.772,5.446-7.09
			c0-0.677-0.547-1.224-1.224-1.224h-6.12c-0.677-0.01-1.231,0.531-1.241,1.205c-0.01,0.676,0.531,1.233,1.205,1.243
			c0.015,0,0.024,0,0.036,0h4.48c-0.457,1.635-1.509,3.045-3.213,3.504c-2.147,0.574-4.396-0.358-5.508-2.281
			c-1.112-1.927-0.796-4.344,0.774-5.914c1.571-1.573,3.99-1.891,5.915-0.78c0.571,0.359,1.327,0.187,1.688-0.382
			c0.361-0.574,0.189-1.329-0.383-1.69c-0.026-0.017-0.055-0.031-0.081-0.045C92.418,55.353,90.786,55.061,89.222,55.267z"/>
	</g>
</g>
<g id="Layer_2" display="none">
	<g display="inline">
		<title>Layer 1</title>
		
			<path id="svg_2" fill="#E5E3E2" stroke="#2C3E50" stroke-width="2" stroke-linecap="round" stroke-linejoin="round" stroke-miterlimit="10" d="
			M93.389,26.63c0,11.221-8.495,26.973-18.979,26.973c-10.485,0-18.98-15.752-18.98-26.973c0-11.22,8.495-20.334,18.98-20.334
			C84.894,6.296,93.389,15.394,93.389,26.63L93.389,26.63z"/>
		
			<path id="svg_3" fill="#F8B41E" stroke="#2C3E50" stroke-width="2" stroke-linecap="round" stroke-linejoin="round" stroke-miterlimit="10" d="
			M63.908,35.426h20.986c0,0-1.438,10.217-10.484,10.368C65.346,45.928,63.908,35.426,63.908,35.426z"/>
		
			<path id="svg_4" fill="#96E6A1" stroke="#2C3E50" stroke-width="2" stroke-linecap="round" stroke-linejoin="round" stroke-miterlimit="10" d="
			M109.208,65.074c-3.177-3.01-22.023-8.562-22.023-8.562L74.426,70.776l0,0l0,0L61.667,56.513c0,0-18.845,5.552-22.023,8.562
			c-4.899,4.632-5.284,22.073-5.284,22.073h80.132C114.475,87.13,114.107,69.706,109.208,65.074L109.208,65.074z"/>
	</g>
</g>
</svg>
