<?xml version="1.0" encoding="utf-8"?>
<!-- Generator: Adobe Illustrator 13.0.0, SVG Export Plug-In . SVG Version: 6.00 Build 14948)  -->
<!DOCTYPE svg PUBLIC "-//W3C//DTD SVG 1.1//EN" "http://www.w3.org/Graphics/SVG/1.1/DTD/svg11.dtd">
<svg version="1.1" xmlns="http://www.w3.org/2000/svg" xmlns:xlink="http://www.w3.org/1999/xlink" x="0px" y="0px" width="400px"
	 height="200px" viewBox="0 0 400 200" enable-background="new 0 0 400 200" xml:space="preserve">
<g id="Layer_1">
	
		<linearGradient id="SVGID_1_" gradientUnits="userSpaceOnUse" x1="-29.0767" y1="38.7598" x2="417.8145" y2="38.7598" gradientTransform="matrix(0.9975 -0.0705 0.0705 0.9975 -2.2496 13.8048)">
		<stop  offset="0" style="stop-color:#D4FC79"/>
		<stop  offset="1" style="stop-color:#96E6A1"/>
	</linearGradient>
	<path fill="url(#SVGID_1_)" d="M-3.343,97.591c0,0,47.931-73.564,138.82-42.897c90.889,30.666,202.514,56.858,258.778-12.282
		c56.265-69.14-12.231-80.838-57.13-63.629C292.228-4.008,69.758-2.815,57.289-1.934C44.82-1.052-3.061,2.333-5.554,2.51
		c-2.494,0.176-18.53,7.325-21.417,9.033c-2.887,1.708-2.202,39.754-1.35,44.707C-27.47,61.202-3.343,97.591-3.343,97.591z"/>
	<linearGradient id="SVGID_2_" gradientUnits="userSpaceOnUse" x1="141.1123" y1="49.6826" x2="177.1123" y2="15.1826">
		<stop  offset="0" style="stop-color:#D4FC79"/>
		<stop  offset="1" style="stop-color:#96E6A1"/>
	</linearGradient>
	<path opacity="0.49" fill="url(#SVGID_2_)" d="M-23.796,98.748c0,0,47.872-73.602,138.786-43.008s202.56,56.697,258.768-12.488
		c56.209-69.185-12.296-80.829-57.181-63.583C271.693-3.086,49.225-1.715,36.756-0.824C24.288,0.067-23.59,3.491-26.083,3.669
		s-18.523,7.34-21.409,9.05c-2.886,1.71-2.17,39.756-1.315,44.708C-47.952,62.379-23.796,98.748-23.796,98.748z"/>
	<linearGradient id="SVGID_3_" gradientUnits="userSpaceOnUse" x1="159.229" y1="-42.0942" x2="168.562" y2="-12.7607">
		<stop  offset="0" style="stop-color:#D4FC79"/>
		<stop  offset="1" style="stop-color:#96E6A1"/>
	</linearGradient>
	<path opacity="0.67" fill="url(#SVGID_3_)" d="M-27.366,60.228c0,0,58.275-65.673,143.635-21.913
		c85.359,43.761,191.89,86.161,257.752,26.094s-0.152-81.759-47.101-71.373C279.973,3.422,59.77-28.272,47.307-29.243
		c-12.462-0.971-60.317-4.698-62.81-4.893c-2.493-0.193-19.409,4.507-22.516,5.769c-3.108,1.263-8.052,38.993-7.942,44.017
		C-45.851,20.674-27.366,60.228-27.366,60.228z"/>
	<path fill="#FFFFFF" d="M308-10.5"/>
	<path fill="#FFFFFF" d="M-5.5,91.5"/>
	<g>
		<title>background</title>
		<rect id="canvas_background" x="14.192" y="-16.5" fill="none" width="138.615" height="95.745"/>
	</g>
</g>
<g id="Layer_3">
	<g>
		<title>Layer 1</title>
		<path id="rect4204" fill="#96E6A1" stroke="#454545" stroke-width="0.25" d="M47.197,17.802h51.609
			c1.979,0,3.571,1.593,3.571,3.572v51.608c0,1.979-1.592,3.572-3.571,3.572H47.197c-1.979,0-3.573-1.592-3.573-3.572V21.374
			C43.625,19.395,45.218,17.802,47.197,17.802z"/>
		<path id="rect4199" stroke="#454545" stroke-width="0.25" d="M47.197,16.579c-2.636,0-4.796,2.16-4.796,4.795v51.609
			c0,2.637,2.16,4.795,4.796,4.795h51.609c2.634,0,4.795-2.159,4.795-4.795V21.375c0-2.636-2.161-4.795-4.795-4.795H47.197z
			 M47.197,19.027h51.609c1.322,0,2.348,1.026,2.348,2.348v51.609c0,1.322-1.026,2.348-2.348,2.348H47.197
			c-1.322,0-2.348-1.025-2.348-2.348V21.375C44.85,20.053,45.875,19.027,47.197,19.027z"/>
		<path id="path4206" fill="#D4FC79" stroke="#454545" stroke-width="0.25" d="M55.865,34.938c0,3.11-1.633,5.984-4.284,7.539
			c-2.65,1.555-5.917,1.555-8.568,0c-2.65-1.555-4.284-4.429-4.284-7.539h8.568H55.865z"/>
		<path id="path4202" fill="#D4FC79" stroke="#454545" stroke-width="0.25" d="M38.729,34.693l4.896-20.563
			c0.472-1.979,1.639-3.672,3.673-3.672h51.408c2.032,0,3.199,1.693,3.672,3.672l4.896,20.563"/>
		<path id="path4210" fill="#96E6A1" stroke="#454545" stroke-width="0.25" d="M73,34.938c0,3.11-1.633,5.984-4.284,7.539
			c-2.65,1.555-5.917,1.555-8.568,0c-2.65-1.555-4.284-4.429-4.284-7.539h8.568H73z"/>
		<path id="path4214" fill="#96E6A1" stroke="#454545" stroke-width="0.25" d="M55.866,34.693l2.448-24.235h14.811v24.235"/>
		<path id="path3833" stroke="#454545" stroke-width="0.25" d="M55.866,33.715c-0.677,0-1.224,0.548-1.224,1.224
			c0,3.54,1.857,6.816,4.887,8.592c3.029,1.776,6.777,1.776,9.806,0c3.029-1.776,4.892-5.053,4.892-8.592
			c0-0.675-0.548-1.224-1.224-1.224h-8.568H55.866z M57.41,36.163h7.023h7.019c-0.373,2.165-1.456,4.146-3.356,5.259
			c-2.272,1.334-5.057,1.334-7.33,0C58.866,40.307,57.783,38.328,57.41,36.163z"/>
		<path id="path3831" stroke="#454545" stroke-width="0.25" d="M38.729,33.715c-0.676,0-1.224,0.548-1.224,1.224
			c0,3.54,1.858,6.816,4.887,8.592s6.777,1.776,9.806,0c3.029-1.776,4.892-5.053,4.892-8.592c0-0.675-0.547-1.224-1.224-1.224
			h-8.568H38.729z M40.274,36.163h7.024h7.019c-0.373,2.165-1.456,4.146-3.356,5.259c-2.272,1.334-5.057,1.334-7.33,0
			C41.73,40.307,40.647,38.328,40.274,36.163z"/>
		<path id="path4208" fill="#D4FC79" stroke="#454545" stroke-width="0.25" d="M90.138,34.938c0,3.11-1.635,5.984-4.284,7.539
			c-2.651,1.555-5.919,1.555-8.568,0c-2.651-1.555-4.284-4.429-4.284-7.539h8.568H90.138z"/>
		<path id="path4212" fill="#96E6A1" stroke="#454545" stroke-width="0.25" d="M107.274,34.938c0,3.11-1.635,5.984-4.284,7.539
			c-2.651,1.555-5.919,1.555-8.568,0c-2.651-1.555-4.284-4.429-4.284-7.539h8.568H107.274z"/>
		<path id="path3835" stroke="#454545" stroke-width="0.25" d="M73.002,33.715c-0.677,0-1.224,0.548-1.224,1.224
			c0,3.54,1.857,6.816,4.887,8.592c3.029,1.776,6.777,1.776,9.806,0s4.891-5.053,4.891-8.592c0-0.675-0.547-1.224-1.224-1.224H81.57
			H73.002z M74.546,36.163h7.023h7.019c-0.373,2.165-1.456,4.146-3.356,5.259c-2.271,1.334-5.059,1.334-7.33,0
			C76.002,40.307,74.919,38.328,74.546,36.163z"/>
		<path id="path4216" fill="#96E6A1" stroke="#454545" stroke-width="0.25" d="M90.262,34.693l-2.448-24.235h10.892
			c2.032,0,3.199,1.693,3.672,3.672l4.896,20.563"/>
		<path id="path3837" stroke="#454545" stroke-width="0.25" d="M90.138,33.715c-0.677,0-1.224,0.548-1.224,1.224
			c0,3.54,1.857,6.816,4.886,8.592c3.029,1.776,6.778,1.776,9.807,0s4.891-5.053,4.891-8.592c0-0.675-0.547-1.224-1.224-1.224
			h-8.568H90.138z M91.682,36.163h7.024h7.019c-0.373,2.165-1.456,4.146-3.356,5.259c-2.271,1.334-5.059,1.334-7.33,0
			C93.138,40.307,92.055,38.328,91.682,36.163z"/>
		<path id="path3839" stroke="#454545" stroke-width="0.25" d="M47.298,9.235c-1.357,0-2.54,0.618-3.333,1.497
			c-0.792,0.88-1.26,1.979-1.53,3.113l-4.896,20.564c-0.163,0.656,0.237,1.321,0.893,1.483c0.656,0.163,1.321-0.236,1.483-0.893
			c0.001-0.007,0.003-0.015,0.004-0.021l4.896-20.564c0.201-0.844,0.549-1.579,0.966-2.042c0.417-0.461,0.838-0.688,1.516-0.688
			h51.408c0.679,0,1.095,0.228,1.511,0.688c0.416,0.462,0.77,1.198,0.971,2.042l4.896,20.564c0.151,0.66,0.808,1.071,1.468,0.92
			c0.658-0.151,1.071-0.807,0.918-1.466c0-0.008-0.002-0.015-0.004-0.024l-4.896-20.564c-0.271-1.134-0.736-2.233-1.53-3.113
			c-0.793-0.878-1.975-1.497-3.333-1.497H47.298z"/>
		<path id="path3841" stroke="#454545" stroke-width="0.25" d="M58.299,9.221c-0.63,0.008-1.151,0.492-1.205,1.119l-2.448,24.241
			c-0.066,0.674,0.428,1.273,1.102,1.339c0.668,0.064,1.265-0.421,1.336-1.09l2.448-24.241c0.079-0.67-0.401-1.279-1.072-1.359
			C58.407,9.223,58.353,9.221,58.299,9.221z"/>
		<path id="path3843" stroke="#454545" stroke-width="0.25" d="M72.983,9.221c-0.677,0.011-1.216,0.568-1.205,1.243l0,0v24.241
			c-0.01,0.676,0.531,1.232,1.208,1.242c0.675,0.01,1.231-0.531,1.241-1.207c0-0.011,0-0.023,0-0.035V10.464
			c0.011-0.675-0.528-1.232-1.205-1.243C73.008,9.221,72.996,9.221,72.983,9.221z"/>
		<path id="path3845" stroke="#454545" stroke-width="0.25" d="M87.666,9.221c-0.676,0.012-1.214,0.569-1.205,1.244
			c0.002,0.042,0.005,0.083,0.01,0.123l2.448,24.241c0.072,0.673,0.674,1.161,1.348,1.089c0.669-0.072,1.155-0.668,1.09-1.337
			l-2.448-24.241C88.854,9.698,88.312,9.208,87.666,9.221z"/>
		<path id="path3847" stroke="#454545" stroke-width="0.25" d="M89.222,55.267c-1.565,0.206-3.062,0.911-4.236,2.085
			c-2.345,2.345-2.826,5.996-1.167,8.869c1.659,2.874,5.057,4.277,8.262,3.418c3.206-0.86,5.446-3.772,5.446-7.09
			c0-0.677-0.547-1.224-1.224-1.224h-6.12c-0.677-0.01-1.231,0.531-1.241,1.205c-0.01,0.676,0.531,1.233,1.205,1.243
			c0.015,0,0.024,0,0.036,0h4.48c-0.457,1.635-1.509,3.045-3.213,3.504c-2.147,0.574-4.396-0.358-5.508-2.281
			c-1.112-1.927-0.796-4.344,0.774-5.914c1.571-1.573,3.99-1.891,5.915-0.78c0.571,0.359,1.327,0.187,1.688-0.382
			c0.361-0.574,0.189-1.329-0.383-1.69c-0.026-0.017-0.055-0.031-0.081-0.045C92.418,55.353,90.786,55.061,89.222,55.267z"/>
	</g>
</g>
<g id="Layer_2" display="none">
	<g display="inline">
		<title>Layer 1</title>
		
			<path id="svg_2" fill="#E5E3E2" stroke="#2C3E50" stroke-width="2" stroke-linecap="round" stroke-linejoin="round" stroke-miterlimit="10" d="
			M93.389,26.63c0,11.221-8.495,26.973-18.979,26.973c-10.485,0-18.98-15.752-18.98-26.973c0-11.22,8.495-20.334,18.98-20.334
			C84.894,6.296,93.389,15.394,93.389,26.63L93.389,26.63z"/>
		
			<path id="svg_3" fill="#F8B41E" stroke="#2C3E50" stroke-width="2" stroke-linecap="round" stroke-linejoin="round" stroke-miterlimit="10" d="
			M63.908,35.426h20.986c0,0-1.438,10.217-10.484,10.368C65.346,45.928,63.908,35.426,63.908,35.426z"/>
		
			<path id="svg_4" fill="#96E6A1" stroke="#2C3E50" stroke-width="2" stroke-linecap="round" stroke-linejoin="round" stroke-miterlimit="10" d="
			M109.208,65.074c-3.177-3.01-22.023-8.562-22.023-8.562L74.426,70.776l0,0l0,0L61.667,56.513c0,0-18.845,5.552-22.023,8.562
			c-4.899,4.632-5.284,22.073-5.284,22.073h80.132C114.475,87.13,114.107,69.706,109.208,65.074L109.208,65.074z"/>
	</g>
</g>
</svg>
