<svg width="24" height="24" xmlns="http://www.w3.org/2000/svg">

 <g>
  <title>background</title>
  <rect fill="none" id="canvas_background" height="402" width="582" y="-1" x="-1"/>
 </g>
 <g>
  <title>Layer 1</title>
  <path stroke="#219ba0" fill="none" id="svg_3" d="m16.999996,14c-1.5,0 -2.7,0.4 -3.6,0.9c1.4,1.2 2,2.6 2.1,2.7l0.1,0.2l0,2.2l8,0l0,-2c-0.1,0 -1.7,-4 -6.6,-4z"/>
  <circle stroke="#219ba0" fill="none" id="svg_5" r="3.5" cy="8.5" cx="16.999996"/>
  <path stroke="#219ba0" fill="none" id="svg_7" d="m4,8.5c0,-1.9 1.6,-3.5 3.5,-3.5s3.5,1.6 3.5,3.5c0,1.9 -1.6,3.5 -3.5,3.5s-3.5,-1.6 -3.5,-3.5zm3.5,5.5c-4.9,0 -6.5,4 -6.5,4l0,2l13,0l0,-2c0,0 -1.6,-4 -6.5,-4z"/>
 </g>
</svg>