<?xml version="1.0" encoding="utf-8"?>
<!-- Generator: Adobe Illustrator 13.0.0, SVG Export Plug-In . SVG Version: 6.00 Build 14948)  -->
<!DOCTYPE svg PUBLIC "-//W3C//DTD SVG 1.1//EN" "http://www.w3.org/Graphics/SVG/1.1/DTD/svg11.dtd">
<svg version="1.1" id="Layer_1" xmlns="http://www.w3.org/2000/svg" xmlns:xlink="http://www.w3.org/1999/xlink" x="0px" y="0px"
	 width="500px" height="500px" viewBox="0 0 500 500" enable-background="new 0 0 500 500" xml:space="preserve">
<g>
	<path fill="#323232" d="M244.819,68.193H402.1v120.473h-31.578c-13.361-70.227-57.082-96.258-125.703-85.965V68.193z
		 M311.618,439.302h-18.217h-102.63c-46.152,0-83.802-37.538-83.802-83.544V149.316c0-46.012,38.258-90.809,83.802-83.544
		c14.574,1.816,12.752-1.817,12.752,17.556v241.551c0,44.198,36.435,80.517,80.765,80.517c44.328,0,80.765-36.318,80.765-80.517
		v-7.87h30.366h6.069v91.415v30.873h-36.436h-53.436V439.302z"/>
</g>
</svg>
