<?xml version="1.0" encoding="utf-8"?>
<!-- Generator: Adobe Illustrator 13.0.0, SVG Export Plug-In . SVG Version: 6.00 Build 14948)  -->
<!DOCTYPE svg PUBLIC "-//W3C//DTD SVG 1.1//EN" "http://www.w3.org/Graphics/SVG/1.1/DTD/svg11.dtd">
<svg version="1.1" id="Layer_1" xmlns="http://www.w3.org/2000/svg" xmlns:xlink="http://www.w3.org/1999/xlink" x="0px" y="0px"
	 width="707.964px" height="178.492px" viewBox="0 0 707.964 178.492" enable-background="new 0 0 707.964 178.492"
	 xml:space="preserve">
<g>
	<path fill="#FFFFFF" d="M79.363,20.043h60.23v46.135H127.5c-5.116-26.893-21.859-36.862-48.138-32.92L79.363,20.043L79.363,20.043z
		 M104.943,162.158h-6.976h-39.3c-17.674,0-32.092-14.373-32.092-31.992V51.109c0-17.62,14.65-34.775,32.092-31.993
		c5.58,0.695,4.883-0.696,4.883,6.723v92.5c0,16.926,13.953,30.834,30.929,30.834s30.929-13.908,30.929-30.834v-3.014h11.629h2.324
		v35.008v11.824h-13.953H104.943L104.943,162.158z"/>
</g>
<g>
	<path fill="#FCFCFC" d="M203.066,111.201c0.337,0,0.675,0.063,1.013,0.188c0.337,0.127,0.66,0.345,0.969,0.653l5.653,5.947
		c-2.475,3.234-5.575,5.676-9.302,7.319c-3.726,1.644-8.134,2.468-13.224,2.468c-4.668,0-8.852-0.794-12.549-2.384
		c-3.698-1.589-6.833-3.782-9.406-6.58c-2.574-2.798-4.549-6.116-5.927-9.955c-1.378-3.84-2.067-8.008-2.067-12.507
		c0-4.584,0.787-8.795,2.362-12.634c1.576-3.838,3.776-7.15,6.602-9.934c2.827-2.784,6.208-4.949,10.145-6.496
		c3.937-1.546,8.281-2.32,13.034-2.32c2.305,0,4.478,0.205,6.517,0.612c2.038,0.408,3.944,0.97,5.716,1.688
		c1.771,0.717,3.402,1.575,4.893,2.573c1.49,0.999,2.812,2.103,3.965,3.311l-4.809,6.454c-0.31,0.394-0.675,0.752-1.097,1.075
		c-0.422,0.324-1.013,0.485-1.772,0.485c-0.506,0-0.985-0.112-1.435-0.337c-0.45-0.225-0.928-0.5-1.434-0.823
		c-0.506-0.323-1.062-0.675-1.667-1.054c-0.604-0.38-1.322-0.731-2.151-1.055c-0.83-0.323-1.8-0.597-2.911-0.822
		c-1.111-0.225-2.411-0.338-3.902-0.338c-2.587,0-4.95,0.458-7.086,1.371c-2.138,0.915-3.973,2.222-5.505,3.923
		c-1.533,1.701-2.728,3.761-3.585,6.181c-0.858,2.418-1.287,5.131-1.287,8.141c0,3.148,0.429,5.947,1.287,8.395
		c0.857,2.446,2.025,4.506,3.501,6.18s3.198,2.945,5.167,3.816c1.967,0.872,4.077,1.309,6.328,1.309
		c1.292,0,2.474-0.063,3.542-0.188c1.068-0.127,2.06-0.345,2.974-0.653c0.914-0.311,1.785-0.711,2.615-1.203
		c0.83-0.491,1.667-1.104,2.51-1.834c0.337-0.281,0.703-0.514,1.097-0.697C202.236,111.291,202.644,111.201,203.066,111.201z"/>
	<path fill="#FCFCFC" d="M217.197,127.103V63.957h13.077v23.242c1.574-1.35,3.281-2.439,5.123-3.269
		c1.843-0.83,4.045-1.245,6.604-1.245c2.389,0,4.506,0.415,6.348,1.245c1.842,0.829,3.395,1.981,4.66,3.46
		c1.266,1.477,2.222,3.232,2.869,5.271s0.971,4.254,0.971,6.645v27.797h-13.076V99.306c0-2.137-0.493-3.803-1.477-4.999
		c-0.986-1.195-2.433-1.793-4.346-1.793c-1.434,0-2.783,0.31-4.049,0.928c-1.265,0.619-2.475,1.448-3.627,2.489v31.172H217.197
		L217.197,127.103z"/>
	<path fill="#FCFCFC" d="M281.143,71.381c0,1.041-0.211,2.018-0.633,2.931c-0.421,0.915-0.998,1.716-1.729,2.405
		c-0.731,0.689-1.581,1.237-2.552,1.645c-0.971,0.409-2.004,0.612-3.1,0.612c-1.07,0-2.068-0.204-2.996-0.612
		c-0.928-0.407-1.75-0.956-2.469-1.645c-0.717-0.689-1.277-1.49-1.687-2.405c-0.407-0.914-0.611-1.891-0.611-2.931
		c0-1.069,0.204-2.067,0.611-2.995c0.409-0.928,0.97-1.743,1.687-2.447c0.719-0.703,1.541-1.25,2.469-1.645
		c0.928-0.393,1.926-0.591,2.996-0.591c1.096,0,2.129,0.198,3.1,0.591c0.971,0.395,1.82,0.942,2.552,1.645
		c0.731,0.704,1.309,1.519,1.729,2.447C280.932,69.313,281.143,70.312,281.143,71.381z M279.625,83.36v43.742h-13.077V83.36H279.625
		z"/>
	<path fill="#FCFCFC" d="M290.17,127.103V83.36h8.098c0.816,0,1.498,0.183,2.047,0.548c0.549,0.366,0.935,0.916,1.16,1.646
		l0.76,2.531c0.844-0.789,1.713-1.521,2.615-2.193c0.899-0.676,1.861-1.245,2.889-1.709c1.025-0.464,2.137-0.829,3.332-1.097
		c1.195-0.267,2.495-0.401,3.902-0.401c2.389,0,4.507,0.415,6.349,1.245c1.841,0.829,3.395,1.981,4.66,3.46
		c1.265,1.477,2.222,3.232,2.867,5.271c0.648,2.039,0.972,4.254,0.972,6.645v27.797h-13.076V99.306c0-2.137-0.492-3.803-1.477-4.999
		c-0.985-1.195-2.432-1.793-4.345-1.793c-1.434,0-2.783,0.31-4.049,0.928c-1.265,0.619-2.475,1.448-3.628,2.489v31.172H290.17z"/>
	<path fill="#FCFCFC" d="M357.828,82.685c2.896,0,5.549,0.451,7.953,1.35c2.402,0.9,4.471,2.208,6.199,3.923
		c1.73,1.715,3.078,3.816,4.051,6.306c0.971,2.489,1.455,5.31,1.455,8.458c0,0.984-0.043,1.785-0.127,2.402
		c-0.084,0.621-0.238,1.112-0.465,1.478c-0.225,0.366-0.525,0.62-0.906,0.76c-0.379,0.142-0.865,0.212-1.455,0.212h-25.226
		c0.422,3.655,1.532,6.305,3.333,7.951c1.8,1.645,4.12,2.467,6.959,2.467c1.52,0,2.826-0.182,3.922-0.548
		c1.1-0.364,2.074-0.774,2.936-1.224c0.855-0.45,1.643-0.857,2.359-1.223c0.717-0.367,1.471-0.549,2.258-0.549
		c1.041,0,1.828,0.379,2.361,1.139l3.795,4.683c-1.35,1.548-2.803,2.806-4.363,3.774c-1.561,0.971-3.164,1.729-4.811,2.277
		c-1.645,0.549-3.289,0.93-4.936,1.141c-1.645,0.211-3.213,0.315-4.701,0.315c-3.066,0-5.943-0.501-8.626-1.498
		c-2.688-0.997-5.036-2.481-7.046-4.45c-2.011-1.968-3.6-4.414-4.767-7.338c-1.168-2.926-1.751-6.328-1.751-10.211
		c0-2.923,0.499-5.693,1.497-8.309c0.999-2.615,2.434-4.907,4.304-6.876c1.87-1.968,4.134-3.528,6.792-4.682
		C351.479,83.26,354.481,82.685,357.828,82.685z M358.082,91.712c-2.502,0-4.457,0.711-5.863,2.129
		c-1.407,1.421-2.334,3.468-2.784,6.139h16.325c0-1.04-0.135-2.053-0.4-3.037c-0.268-0.982-0.703-1.861-1.309-2.636
		c-0.604-0.772-1.398-1.399-2.383-1.877C360.681,91.953,359.488,91.712,358.082,91.712z"/>
	<path fill="#FCFCFC" d="M411.736,92.936c-0.336,0.534-0.695,0.914-1.074,1.14c-0.381,0.225-0.865,0.338-1.457,0.338
		c-0.617,0-1.238-0.135-1.855-0.4c-0.619-0.268-1.287-0.557-2.004-0.865s-1.525-0.598-2.426-0.865c-0.898-0.267-1.926-0.4-3.08-0.4
		c-1.658,0-2.93,0.316-3.816,0.949c-0.885,0.633-1.328,1.514-1.328,2.637c0,0.816,0.289,1.492,0.865,2.025
		c0.574,0.533,1.344,1.004,2.299,1.411c0.955,0.409,2.039,0.796,3.248,1.16c1.209,0.366,2.445,0.774,3.713,1.226
		c1.266,0.449,2.502,0.977,3.711,1.582c1.209,0.604,2.293,1.349,3.248,2.234c0.955,0.885,1.723,1.961,2.299,3.227
		c0.576,1.267,0.865,2.785,0.865,4.557c0,2.165-0.395,4.162-1.182,5.988c-0.789,1.83-1.961,3.404-3.521,4.726
		c-1.563,1.323-3.488,2.349-5.779,3.079c-2.293,0.732-4.93,1.098-7.91,1.098c-1.488,0-2.979-0.142-4.471-0.422
		c-1.49-0.281-2.93-0.66-4.322-1.141c-1.393-0.479-2.68-1.047-3.859-1.706c-1.182-0.661-2.193-1.371-3.037-2.132l3.037-4.81
		c0.363-0.563,0.801-1.006,1.307-1.327c0.506-0.324,1.168-0.484,1.982-0.484c0.76,0,1.441,0.168,2.047,0.506
		s1.258,0.703,1.961,1.096c0.703,0.396,1.525,0.76,2.469,1.098c0.941,0.338,2.131,0.506,3.563,0.506
		c1.014,0,1.871-0.105,2.574-0.315c0.701-0.211,1.266-0.5,1.688-0.864c0.422-0.365,0.73-0.773,0.928-1.224s0.295-0.913,0.295-1.394
		c0-0.871-0.295-1.588-0.887-2.149c-0.59-0.563-1.363-1.048-2.318-1.456c-0.957-0.407-2.045-0.786-3.27-1.139
		s-2.469-0.752-3.732-1.201c-1.266-0.45-2.51-0.992-3.732-1.625c-1.225-0.633-2.314-1.434-3.271-2.404
		c-0.955-0.971-1.729-2.158-2.318-3.563c-0.59-1.407-0.885-3.108-0.885-5.105c0-1.854,0.357-3.62,1.074-5.294
		c0.717-1.673,1.791-3.142,3.227-4.407s3.234-2.271,5.4-3.017c2.164-0.745,4.695-1.118,7.592-1.118c1.574,0,3.102,0.142,4.576,0.422
		c1.477,0.282,2.863,0.675,4.156,1.181c1.293,0.506,2.473,1.104,3.543,1.793c1.068,0.688,2.01,1.44,2.826,2.258L411.736,92.936z"/>
	<path fill="#FCFCFC" d="M440.837,82.685c2.898,0,5.549,0.451,7.953,1.35c2.404,0.9,4.471,2.208,6.199,3.923
		c1.73,1.715,3.08,3.816,4.051,6.306s1.455,5.31,1.455,8.458c0,0.984-0.043,1.785-0.127,2.402c-0.084,0.621-0.238,1.112-0.463,1.478
		c-0.227,0.366-0.527,0.62-0.908,0.76c-0.379,0.142-0.865,0.212-1.455,0.212h-25.225c0.422,3.655,1.531,6.305,3.334,7.951
		c1.799,1.645,4.117,2.467,6.959,2.467c1.518,0,2.826-0.182,3.922-0.548c1.098-0.364,2.074-0.774,2.934-1.224
		c0.855-0.45,1.645-0.857,2.361-1.223c0.717-0.367,1.469-0.549,2.256-0.549c1.041,0,1.828,0.379,2.361,1.139l3.797,4.683
		c-1.35,1.548-2.805,2.806-4.365,3.774c-1.559,0.971-3.162,1.729-4.809,2.277c-1.646,0.549-3.289,0.93-4.936,1.141
		c-1.645,0.211-3.215,0.315-4.703,0.315c-3.066,0-5.941-0.501-8.627-1.498s-5.035-2.481-7.045-4.45
		c-2.01-1.968-3.6-4.414-4.766-7.338c-1.168-2.926-1.752-6.328-1.752-10.211c0-2.923,0.5-5.693,1.498-8.309s2.432-4.907,4.303-6.876
		c1.869-1.968,4.135-3.528,6.791-4.682C434.492,83.262,437.492,82.685,440.837,82.685z M441.091,91.712
		c-2.502,0-4.457,0.711-5.861,2.129c-1.406,1.421-2.336,3.468-2.785,6.139h16.324c0-1.04-0.133-2.053-0.4-3.037
		c-0.268-0.982-0.703-1.861-1.309-2.636c-0.604-0.772-1.398-1.399-2.383-1.877S442.498,91.712,441.091,91.712z"/>
	<path fill="#FCFCFC" d="M497.785,63.957v63.146h-13.076V63.957H497.785z"/>
	<path fill="#FCFCFC" d="M538.533,127.103c-1.238,0-2.172-0.168-2.807-0.506c-0.633-0.338-1.158-1.039-1.582-2.107l-0.928-2.404
		c-1.098,0.928-2.15,1.742-3.164,2.444c-1.012,0.703-2.059,1.302-3.141,1.794c-1.084,0.491-2.236,0.857-3.459,1.096
		c-1.227,0.24-2.58,0.359-4.072,0.359c-1.996,0-3.811-0.262-5.439-0.783c-1.633-0.521-3.018-1.291-4.156-2.307
		c-1.139-1.018-2.02-2.277-2.635-3.788c-0.619-1.509-0.93-3.251-0.93-5.228c0-1.549,0.395-3.146,1.182-4.78
		c0.785-1.638,2.15-3.124,4.092-4.466c1.939-1.34,4.557-2.461,7.848-3.362c3.287-0.903,7.438-1.354,12.443-1.354v-1.873
		c0-2.582-0.527-4.448-1.582-5.6c-1.055-1.148-2.553-1.724-4.494-1.724c-1.547,0-2.813,0.168-3.795,0.506
		c-0.984,0.338-1.865,0.717-2.637,1.14c-0.773,0.422-1.527,0.803-2.256,1.139c-0.732,0.338-1.605,0.507-2.617,0.507
		c-0.9,0-1.666-0.218-2.299-0.653s-1.133-0.979-1.498-1.625l-2.361-4.091c2.645-2.334,5.574-4.069,8.795-5.21
		c3.219-1.139,6.672-1.708,10.355-1.708c2.643,0,5.027,0.429,7.148,1.286c2.125,0.858,3.924,2.054,5.4,3.587
		c1.477,1.53,2.607,3.353,3.395,5.462s1.182,4.414,1.182,6.917v27.334L538.533,127.103L538.533,127.103z M523.515,119.13
		c1.688,0,3.164-0.295,4.43-0.885c1.266-0.592,2.545-1.547,3.84-2.869v-5.989c-2.617,0-4.768,0.171-6.455,0.511
		c-1.688,0.339-3.023,0.766-4.008,1.275c-0.984,0.512-1.664,1.094-2.045,1.746c-0.379,0.651-0.568,1.36-0.568,2.125
		c0,1.504,0.406,2.562,1.223,3.17C520.746,118.826,521.941,119.13,523.515,119.13z"/>
	<path fill="#FCFCFC" d="M580.542,92.936c-0.336,0.534-0.695,0.914-1.074,1.14c-0.381,0.225-0.863,0.338-1.457,0.338
		c-0.615,0-1.236-0.135-1.854-0.4c-0.619-0.268-1.287-0.557-2.004-0.865s-1.525-0.598-2.426-0.865c-0.898-0.267-1.926-0.4-3.078-0.4
		c-1.66,0-2.934,0.316-3.818,0.949s-1.328,1.514-1.328,2.637c0,0.816,0.287,1.492,0.865,2.025c0.574,0.533,1.342,1.004,2.299,1.411
		c0.955,0.409,2.037,0.796,3.246,1.16c1.211,0.366,2.447,0.774,3.713,1.226c1.268,0.449,2.504,0.977,3.713,1.582
		c1.207,0.604,2.291,1.349,3.248,2.234c0.955,0.885,1.721,1.961,2.299,3.227c0.576,1.267,0.863,2.785,0.863,4.557
		c0,2.165-0.393,4.162-1.18,5.988c-0.789,1.83-1.961,3.404-3.521,4.726c-1.563,1.323-3.488,2.349-5.781,3.079
		c-2.291,0.732-4.928,1.098-7.908,1.098c-1.488,0-2.98-0.142-4.471-0.422c-1.49-0.281-2.932-0.66-4.322-1.141
		c-1.395-0.479-2.682-1.047-3.861-1.706c-1.18-0.661-2.193-1.371-3.037-2.132l3.037-4.81c0.365-0.563,0.803-1.006,1.309-1.327
		c0.506-0.324,1.166-0.484,1.982-0.484c0.76,0,1.441,0.168,2.047,0.506s1.256,0.703,1.961,1.096c0.703,0.396,1.525,0.76,2.467,1.098
		s2.131,0.506,3.564,0.506c1.012,0,1.871-0.105,2.574-0.315c0.701-0.211,1.266-0.5,1.688-0.864c0.422-0.365,0.73-0.773,0.928-1.224
		c0.195-0.45,0.295-0.913,0.295-1.394c0-0.871-0.295-1.588-0.887-2.149c-0.59-0.563-1.365-1.048-2.318-1.456
		c-0.957-0.407-2.047-0.786-3.271-1.139c-1.223-0.353-2.467-0.752-3.732-1.201c-1.266-0.45-2.508-0.992-3.732-1.625
		c-1.223-0.633-2.313-1.434-3.27-2.404c-0.955-0.971-1.729-2.158-2.318-3.563c-0.59-1.407-0.885-3.108-0.885-5.105
		c0-1.854,0.355-3.62,1.072-5.294c0.719-1.673,1.793-3.142,3.229-4.407c1.434-1.266,3.232-2.271,5.398-3.017
		c2.166-0.745,4.697-1.118,7.594-1.118c1.574,0,3.1,0.142,4.576,0.422c1.477,0.282,2.861,0.675,4.154,1.181
		c1.295,0.506,2.475,1.104,3.543,1.793c1.07,0.688,2.01,1.44,2.826,2.258L580.542,92.936z"/>
	<path fill="#FCFCFC" d="M609.646,82.685c2.898,0,5.549,0.451,7.953,1.35c2.404,0.9,4.473,2.208,6.199,3.923
		c1.73,1.715,3.08,3.816,4.051,6.306c0.973,2.489,1.455,5.31,1.455,8.458c0,0.984-0.043,1.785-0.127,2.402
		c-0.084,0.621-0.238,1.112-0.463,1.478c-0.227,0.366-0.525,0.62-0.908,0.76c-0.379,0.142-0.863,0.212-1.455,0.212h-25.225
		c0.422,3.655,1.533,6.305,3.334,7.951c1.799,1.645,4.119,2.467,6.959,2.467c1.518,0,2.826-0.182,3.922-0.548
		c1.098-0.364,2.074-0.774,2.934-1.224c0.855-0.45,1.645-0.857,2.361-1.223c0.717-0.367,1.469-0.549,2.256-0.549
		c1.041,0,1.828,0.379,2.361,1.139l3.797,4.683c-1.35,1.548-2.805,2.806-4.365,3.774c-1.559,0.971-3.162,1.729-4.809,2.277
		c-1.645,0.549-3.289,0.93-4.936,1.141c-1.645,0.211-3.215,0.315-4.703,0.315c-3.066,0-5.941-0.501-8.625-1.498
		c-2.688-0.997-5.035-2.481-7.047-4.45c-2.01-1.968-3.6-4.414-4.766-7.338c-1.168-2.926-1.752-6.328-1.752-10.211
		c0-2.923,0.5-5.693,1.498-8.309s2.432-4.907,4.303-6.876c1.869-1.968,4.135-3.528,6.791-4.682
		C603.3,83.262,606.3,82.685,609.646,82.685z M609.902,91.712c-2.504,0-4.457,0.711-5.863,2.129
		c-1.406,1.421-2.334,3.468-2.785,6.139h16.324c0-1.04-0.133-2.053-0.4-3.037c-0.266-0.982-0.703-1.861-1.307-2.636
		c-0.605-0.772-1.4-1.399-2.383-1.877C612.501,91.953,611.306,91.712,609.902,91.712z"/>
	<path fill="#FCFCFC" d="M636.812,127.103V83.36h7.762c0.646,0,1.188,0.056,1.625,0.168c0.434,0.113,0.801,0.29,1.096,0.527
		c0.295,0.24,0.521,0.556,0.674,0.948c0.156,0.396,0.289,0.873,0.4,1.436l0.719,4.092c1.604-2.475,3.402-4.429,5.398-5.863
		c1.998-1.434,4.178-2.151,6.539-2.151c1.996,0,3.6,0.478,4.809,1.434l-1.688,9.618c-0.113,0.591-0.338,1.005-0.676,1.244
		c-0.338,0.237-0.787,0.358-1.35,0.358c-0.479,0-1.041-0.063-1.688-0.188c-0.646-0.127-1.465-0.19-2.447-0.19
		c-3.432,0-6.131,1.828-8.1,5.482v26.828H636.812z"/>
	<path fill="#FCFCFC" d="M698.398,92.936c-0.338,0.534-0.695,0.914-1.074,1.14c-0.381,0.225-0.865,0.338-1.457,0.338
		c-0.617,0-1.236-0.135-1.855-0.4c-0.619-0.268-1.287-0.557-2.004-0.865s-1.523-0.598-2.424-0.865c-0.9-0.267-1.928-0.4-3.08-0.4
		c-1.66,0-2.932,0.316-3.818,0.949c-0.885,0.633-1.326,1.514-1.326,2.637c0,0.816,0.287,1.492,0.863,2.025
		c0.574,0.533,1.344,1.004,2.299,1.411c0.955,0.409,2.037,0.796,3.248,1.16c1.209,0.366,2.447,0.774,3.711,1.226
		c1.268,0.449,2.504,0.977,3.715,1.582c1.207,0.604,2.291,1.349,3.246,2.234c0.955,0.885,1.723,1.961,2.299,3.227
		c0.578,1.267,0.865,2.785,0.865,4.557c0,2.165-0.395,4.162-1.182,5.988c-0.787,1.83-1.961,3.404-3.521,4.726
		c-1.563,1.323-3.486,2.349-5.779,3.079c-2.291,0.732-4.928,1.098-7.908,1.098c-1.49,0-2.982-0.142-4.471-0.422
		c-1.492-0.281-2.934-0.66-4.324-1.141c-1.393-0.479-2.68-1.047-3.861-1.706c-1.18-0.661-2.191-1.371-3.035-2.132l3.035-4.81
		c0.367-0.563,0.805-1.006,1.311-1.327c0.506-0.324,1.166-0.484,1.98-0.484c0.762,0,1.441,0.168,2.047,0.506
		s1.258,0.703,1.961,1.096c0.703,0.396,1.525,0.76,2.469,1.098c0.939,0.338,2.131,0.506,3.563,0.506
		c1.014,0,1.871-0.105,2.574-0.315c0.703-0.211,1.266-0.5,1.688-0.864c0.424-0.365,0.73-0.773,0.93-1.224
		c0.193-0.45,0.295-0.913,0.295-1.394c0-0.871-0.295-1.588-0.889-2.149c-0.59-0.563-1.363-1.048-2.318-1.456
		c-0.955-0.407-2.045-0.786-3.27-1.139c-1.223-0.353-2.467-0.752-3.732-1.201c-1.266-0.45-2.51-0.992-3.732-1.625
		s-2.313-1.434-3.27-2.404c-0.957-0.97-1.73-2.158-2.32-3.563c-0.59-1.407-0.885-3.108-0.885-5.105c0-1.854,0.355-3.62,1.074-5.294
		c0.719-1.673,1.793-3.142,3.229-4.407c1.434-1.266,3.232-2.271,5.398-3.017c2.166-0.745,4.695-1.118,7.594-1.118
		c1.572,0,3.1,0.142,4.576,0.422c1.475,0.282,2.859,0.675,4.154,1.181c1.293,0.506,2.473,1.104,3.541,1.793
		c1.07,0.688,2.012,1.44,2.826,2.258L698.398,92.936z"/>
</g>
</svg>
