<?xml version="1.0" encoding="utf-8"?>
<!-- Generator: Adobe Illustrator 13.0.0, SVG Export Plug-In . SVG Version: 6.00 Build 14948)  -->
<!DOCTYPE svg PUBLIC "-//W3C//DTD SVG 1.1//EN" "http://www.w3.org/Graphics/SVG/1.1/DTD/svg11.dtd">
<svg version="1.1" id="Layer_1" xmlns="http://www.w3.org/2000/svg" xmlns:xlink="http://www.w3.org/1999/xlink" x="0px" y="0px"
	 width="1200px" height="1200px" viewBox="0 0 1200 1200" enable-background="new 0 0 1200 1200" xml:space="preserve">
<g>
	<polygon fill="#E5E5E5" points="50,788.332 560.171,497.694 1150,834.413 929.932,959.957 601.295,773.26 310.031,938.488 	"/>
	<polygon fill="#2193A8" points="1084.595,831.326 928.895,921.231 928.895,648.078 1084.595,558.179 	"/>
	<polygon fill="#B5B5B5" points="928.895,921.231 592.391,726.455 592.391,664.666 622.247,647.638 622.247,472.425 928.895,649.46 
			"/>
	<polygon fill="#4EC0DD" points="311.816,897.701 119.637,786.75 119.637,711.695 311.816,822.65 	"/>
	<polygon fill="#4691AF" points="601.967,731.637 311.816,897.979 311.816,822.929 601.967,656.587 	"/>
	<polygon fill="#EAE3DD" points="314.338,825.102 66.872,682.235 66.872,507.011 314.338,649.884 	"/>
	<polygon fill="#A89D87" points="622.247,647.638 314.338,825.459 314.338,649.884 622.247,472.425 	"/>
	<polygon fill="#F5F1DD" points="66.883,507.011 314.338,649.895 622.199,472.386 928.895,649.471 1084.595,558.179 
		529.881,240.043 	"/>
	<polygon fill="#4691AF" points="355.197,642.696 328.246,658.27 328.246,801.388 355.197,785.814 	"/>
	<polygon fill="#4691AF" points="391.917,764.607 391.917,621.489 363.873,637.692 363.873,780.782 361.965,781.902 	"/>
	<polygon fill="#4691AF" points="584.17,510.466 584.17,653.288 575.494,658.375 575.494,515.48 547.45,531.667 547.45,674.54 
		538.785,679.627 538.785,536.671 510.73,552.874 510.73,695.792 502.066,700.868 502.066,557.878 474.021,574.076 474.021,717.032 
		465.346,722.12 465.346,579.08 437.302,595.283 437.302,738.29 428.626,743.383 428.626,600.287 400.593,616.485 400.593,759.542 
		393.43,763.732 608.352,639.62 608.352,496.496 	"/>
	<polygon fill="#4EC0DD" points="754.561,574.895 726.516,558.703 726.516,701.815 754.561,718.007 	"/>
	<polygon fill="#4EC0DD" points="653.087,659.423 681.132,675.609 681.132,532.497 653.087,516.294 	"/>
	<polygon fill="#4EC0DD" points="827.988,617.287 799.956,601.1 799.956,744.207 827.988,760.41 	"/>
	<polygon fill="#4EC0DD" points="873.384,643.487 873.384,786.605 898.322,801.003 898.322,657.896 	"/>
	<polygon fill="#4EC0DD" points="185.242,591.405 155.384,574.16 155.384,717.283 185.242,734.518 	"/>
	<polygon fill="#4EC0DD" points="116.864,695.039 146.719,712.268 146.719,569.156 116.864,551.927 	"/>
	<polygon fill="#4EC0DD" points="193.917,596.409 193.917,739.527 223.761,756.761 223.761,613.654 232.437,618.658 
		232.437,761.765 262.292,778.994 262.292,636.009 270.957,641.013 270.957,784.014 300.441,801.031 300.441,657.907 	"/>
	<polygon fill="#4EC0DD" points="108.189,546.923 80.78,531.093 80.78,674.205 108.189,690.036 	"/>
	<polygon fill="#2193A8" points="502.642,275.921 326.649,377.722 534.322,503.01 	"/>
	<polygon fill="#2193A8" points="541.499,266.298 575.146,477.223 736.342,379.076 	"/>
	<polygon fill="#2193A8" points="779.063,403.677 660.42,474.342 928.895,629.351 1049.736,559.594 	"/>
	<polygon fill="#2193A8" points="284.146,402.306 102.463,507.418 314.577,629.88 491.771,527.566 	"/>
</g>
</svg>
