<?xml version="1.0" encoding="utf-8"?>
<!-- Generator: Adobe Illustrator 13.0.0, SVG Export Plug-In . SVG Version: 6.00 Build 14948)  -->
<!DOCTYPE svg PUBLIC "-//W3C//DTD SVG 1.1//EN" "http://www.w3.org/Graphics/SVG/1.1/DTD/svg11.dtd">
<svg version="1.1" id="Layer_1" xmlns="http://www.w3.org/2000/svg" xmlns:xlink="http://www.w3.org/1999/xlink" x="0px" y="0px"
	 width="1200px" height="1200px" viewBox="0 0 1200 1200" enable-background="new 0 0 1200 1200" xml:space="preserve">
<g>
	<polygon fill="#E5E5E5" points="50,645.471 465.54,405.563 1150,800.744 734.466,1040.646 	"/>
	<polygon fill="#61AEBE" points="734.438,941.432 391.273,743.329 368.618,766.906 726.868,973.091 734.444,968.751 
		734.444,941.426 	"/>
	<polygon fill="#3F858D" points="860.569,868.616 734.45,941.426 734.45,968.756 877.931,886.692 	"/>
	<polygon fill="#ACD9CF" points="734.433,998.629 692.213,974.251 692.213,909.059 734.433,933.438 	"/>
	<polygon fill="#61AEBE" points="776.669,974.257 734.45,998.635 734.45,933.431 776.669,909.059 	"/>
	<polygon fill="#61AEBE" points="1087.771,517.391 1087.771,802.634 900.86,910.552 860.569,868.616 734.444,941.438 
		734.444,721.387 	"/>
	<polygon fill="#ACD9CF" points="113.21,362.728 113.21,647.976 350.983,785.26 391.285,743.324 734.438,941.454 734.438,721.396 	
		"/>
	<polygon fill="#2193A8" points="113.231,362.749 465.534,159.353 1086.77,518.023 734.466,721.419 	"/>
	<polygon fill="#C0DEC2" points="1076.083,569.533 1058.993,579.408 1058.993,559.785 1076.083,549.921 	"/>
	<polygon fill="#C0DEC2" points="1051.662,583.634 1034.572,593.508 1034.572,573.885 1051.662,564.021 	"/>
	<polygon fill="#C0DEC2" points="1027.241,597.734 1010.151,607.604 1010.151,587.985 1027.241,578.122 	"/>
	<polygon fill="#C0DEC2" points="1002.82,611.835 985.729,621.703 985.729,602.086 1002.82,592.217 	"/>
	<polygon fill="#C0DEC2" points="953.979,640.035 936.887,649.904 936.887,630.287 953.979,620.418 	"/>
	<polygon fill="#C0DEC2" points="929.557,654.13 912.461,664.005 912.461,644.387 929.557,634.518 	"/>
	<polygon fill="#C0DEC2" points="905.135,668.231 888.04,678.105 888.04,658.482 905.135,648.619 	"/>
	<polygon fill="#C0DEC2" points="880.714,682.331 863.619,692.205 863.619,672.582 880.714,662.719 	"/>
	<polygon fill="#C0DEC2" points="831.872,710.532 814.777,720.401 814.777,700.783 831.872,690.92 	"/>
	<polygon fill="#C0DEC2" points="807.451,724.632 790.355,734.501 790.355,714.883 807.451,705.015 	"/>
	<polygon fill="#C0DEC2" points="783.03,738.733 765.934,748.601 765.934,728.984 783.03,719.115 	"/>
	<polygon fill="#C0DEC2" points="758.609,752.833 741.513,762.702 741.513,743.084 758.609,733.216 	"/>
	<polygon fill="#C0DEC2" points="1076.083,616.039 1058.993,625.913 1058.993,606.296 1076.083,596.427 	"/>
	<polygon fill="#C0DEC2" points="1051.662,630.139 1034.572,640.013 1034.572,620.391 1051.662,610.527 	"/>
	<polygon fill="#C0DEC2" points="1027.241,644.24 1010.151,654.114 1010.151,634.491 1027.241,624.628 	"/>
	<polygon fill="#C0DEC2" points="1002.82,658.341 985.729,668.215 985.729,648.591 1002.82,638.729 	"/>
	<polygon fill="#C0DEC2" points="953.979,686.541 936.887,696.41 936.887,676.793 953.979,666.924 	"/>
	<polygon fill="#C0DEC2" points="929.557,700.641 912.461,710.51 912.461,690.893 929.557,681.024 	"/>
	<polygon fill="#C0DEC2" points="905.135,714.742 888.04,724.611 888.04,704.993 905.135,695.125 	"/>
	<polygon fill="#C0DEC2" points="880.714,728.837 863.619,738.711 863.619,719.093 880.714,709.225 	"/>
	<polygon fill="#C0DEC2" points="831.872,757.037 814.777,766.912 814.777,747.289 831.872,737.425 	"/>
	<polygon fill="#C0DEC2" points="807.451,771.138 790.355,781.007 790.355,761.389 807.451,751.526 	"/>
	<polygon fill="#C0DEC2" points="783.03,785.239 765.934,795.107 765.934,775.49 783.03,765.621 	"/>
	<polygon fill="#C0DEC2" points="758.609,799.339 741.513,809.207 741.513,789.59 758.609,779.721 	"/>
	<polygon fill="#C0DEC2" points="1076.083,662.551 1058.993,672.419 1058.993,652.801 1076.083,642.933 	"/>
	<polygon fill="#C0DEC2" points="1051.662,676.651 1034.572,686.519 1034.572,666.902 1051.662,657.033 	"/>
	<polygon fill="#C0DEC2" points="1027.241,690.746 1010.151,700.62 1010.151,681.003 1027.241,671.134 	"/>
	<polygon fill="#C0DEC2" points="1002.82,704.846 985.729,714.72 985.729,695.097 1002.82,685.234 	"/>
	<polygon fill="#C0DEC2" points="953.979,733.047 936.887,742.915 936.887,723.298 953.979,713.435 	"/>
	<polygon fill="#C0DEC2" points="929.557,747.146 912.461,757.016 912.461,737.399 929.557,727.53 	"/>
	<polygon fill="#C0DEC2" points="905.135,761.248 888.04,771.117 888.04,751.499 905.135,741.63 	"/>
	<polygon fill="#C0DEC2" points="880.714,775.348 863.619,785.217 863.619,765.599 880.714,755.731 	"/>
	<polygon fill="#C0DEC2" points="831.872,803.543 814.777,813.417 814.777,793.795 831.872,783.931 	"/>
	<polygon fill="#C0DEC2" points="807.451,817.644 790.355,827.518 790.355,807.895 807.451,798.032 	"/>
	<polygon fill="#C0DEC2" points="783.03,831.744 765.934,841.619 765.934,821.995 783.03,812.132 	"/>
	<polygon fill="#C0DEC2" points="758.609,845.845 741.513,855.713 741.513,836.096 758.609,826.233 	"/>
	<polygon fill="#C0DEC2" points="1076.083,709.056 1058.993,718.925 1058.993,699.307 1076.083,689.438 	"/>
	<polygon fill="#C0DEC2" points="1051.662,723.156 1034.572,733.025 1034.572,713.408 1051.662,703.539 	"/>
	<polygon fill="#C0DEC2" points="1027.241,737.257 1010.151,747.126 1010.151,727.508 1027.241,717.639 	"/>
	<polygon fill="#C0DEC2" points="1002.82,751.352 985.729,761.226 985.729,741.608 1002.82,731.74 	"/>
	<polygon fill="#C0DEC2" points="953.979,779.553 936.887,789.427 936.887,769.804 953.979,759.94 	"/>
	<polygon fill="#C0DEC2" points="929.557,793.653 912.461,803.527 912.461,783.904 929.557,774.041 	"/>
	<polygon fill="#C0DEC2" points="905.135,807.753 888.04,817.622 888.04,798.004 905.135,788.141 	"/>
	<polygon fill="#C0DEC2" points="880.714,821.854 863.619,831.722 863.619,812.105 880.714,802.236 	"/>
	<polygon fill="#C0DEC2" points="831.872,850.055 814.777,859.923 814.777,840.306 831.872,830.438 	"/>
	<polygon fill="#C0DEC2" points="807.451,864.15 790.355,874.024 790.355,854.406 807.451,844.538 	"/>
	<polygon fill="#C0DEC2" points="783.03,878.25 765.934,888.124 765.934,868.501 783.03,858.638 	"/>
	<polygon fill="#C0DEC2" points="758.609,892.35 741.513,902.224 741.513,882.602 758.609,872.738 	"/>
	<polygon fill="#FFFFFF" points="725.855,761.841 708.759,751.972 708.759,732.355 725.855,742.229 	"/>
	<polygon fill="#FFFFFF" points="701.429,747.741 684.338,737.872 684.338,718.255 701.429,728.129 	"/>
	<polygon fill="#FFFFFF" points="677.008,733.64 659.917,723.771 659.917,704.154 677.008,714.028 	"/>
	<polygon fill="#FFFFFF" points="652.587,719.54 635.496,709.672 635.496,690.06 652.587,699.928 	"/>
	<polygon fill="#FFFFFF" points="603.745,691.345 586.654,681.471 586.654,661.859 603.745,671.729 	"/>
	<polygon fill="#FFFFFF" points="579.323,677.244 562.232,667.37 562.232,647.758 579.323,657.627 	"/>
	<polygon fill="#FFFFFF" points="554.902,663.144 537.813,653.276 537.813,633.658 554.902,643.532 	"/>
	<polygon fill="#FFFFFF" points="530.48,649.044 513.391,639.175 513.391,619.558 530.48,629.432 	"/>
	<polygon fill="#FFFFFF" points="481.639,620.843 464.543,610.974 464.543,591.362 481.639,601.231 	"/>
	<polygon fill="#FFFFFF" points="457.218,606.748 440.128,596.874 440.128,577.262 457.218,587.13 	"/>
	<polygon fill="#FFFFFF" points="432.797,592.648 415.707,582.774 415.707,563.161 432.797,573.03 	"/>
	<polygon fill="#FFFFFF" points="408.376,578.547 391.285,568.673 391.285,549.061 408.376,558.93 	"/>
	<polygon fill="#FFFFFF" points="725.855,808.347 708.759,798.479 708.759,778.861 725.855,788.735 	"/>
	<polygon fill="#FFFFFF" points="701.429,794.247 684.338,784.378 684.338,764.766 701.429,774.635 	"/>
	<polygon fill="#FFFFFF" points="677.008,780.152 659.917,770.278 659.917,750.666 677.008,760.534 	"/>
	<polygon fill="#FFFFFF" points="652.587,766.052 635.496,756.177 635.496,736.565 652.587,746.434 	"/>
	<polygon fill="#FFFFFF" points="603.745,737.85 586.654,727.976 586.654,708.364 603.745,718.238 	"/>
	<polygon fill="#FFFFFF" points="579.323,723.75 562.232,713.882 562.232,694.264 579.323,704.138 	"/>
	<polygon fill="#FFFFFF" points="554.902,709.65 537.813,699.781 537.813,680.164 554.902,690.038 	"/>
	<polygon fill="#FFFFFF" points="530.48,695.55 513.391,685.681 513.391,666.063 530.48,675.938 	"/>
	<polygon fill="#FFFFFF" points="481.639,667.354 464.543,657.48 464.543,637.868 481.639,647.736 	"/>
	<polygon fill="#FFFFFF" points="457.218,653.254 440.128,643.38 440.128,623.768 457.218,633.636 	"/>
	<polygon fill="#FFFFFF" points="432.797,639.153 415.707,629.279 415.707,609.667 432.797,619.541 	"/>
	<polygon fill="#FFFFFF" points="408.376,625.053 391.285,615.184 391.285,595.567 408.376,605.441 	"/>
	<polygon fill="#FFFFFF" points="725.855,854.858 708.759,844.984 708.759,825.372 725.855,835.241 	"/>
	<polygon fill="#FFFFFF" points="701.429,840.758 684.338,830.884 684.338,811.271 701.429,821.14 	"/>
	<polygon fill="#FFFFFF" points="677.008,826.657 659.917,816.783 659.917,797.171 677.008,807.04 	"/>
	<polygon fill="#FFFFFF" points="652.587,812.557 635.496,802.683 635.496,783.071 652.587,792.945 	"/>
	<polygon fill="#FFFFFF" points="603.745,784.356 586.654,774.487 586.654,754.87 603.745,764.744 	"/>
	<polygon fill="#FFFFFF" points="579.323,770.256 562.232,760.387 562.232,740.769 579.323,750.644 	"/>
	<polygon fill="#FFFFFF" points="554.902,756.155 537.813,746.287 537.813,726.675 554.902,736.543 	"/>
	<polygon fill="#FFFFFF" points="530.48,742.06 513.391,732.186 513.391,712.574 530.48,722.443 	"/>
	<polygon fill="#FFFFFF" points="481.639,713.86 464.543,703.985 464.543,684.373 481.639,694.242 	"/>
	<polygon fill="#FFFFFF" points="457.218,699.759 440.128,689.885 440.128,670.273 457.218,680.146 	"/>
	<polygon fill="#FFFFFF" points="432.797,685.659 415.707,675.79 415.707,656.173 432.797,666.047 	"/>
	<polygon fill="#FFFFFF" points="408.376,671.559 391.285,661.69 391.285,642.072 408.376,651.947 	"/>
	<polygon fill="#FFFFFF" points="725.855,901.364 708.759,891.49 708.759,871.878 725.855,881.747 	"/>
	<polygon fill="#FFFFFF" points="701.429,887.263 684.338,877.389 684.338,857.777 701.429,867.646 	"/>
	<polygon fill="#FFFFFF" points="677.008,873.163 659.917,863.289 659.917,843.677 677.008,853.551 	"/>
	<polygon fill="#FFFFFF" points="652.587,859.063 635.496,849.194 635.496,829.577 652.587,839.451 	"/>
	<polygon fill="#FFFFFF" points="603.745,830.862 586.654,820.993 586.654,801.376 603.745,811.25 	"/>
	<polygon fill="#FFFFFF" points="579.323,816.761 562.232,806.893 562.232,787.281 579.323,797.149 	"/>
	<polygon fill="#FFFFFF" points="554.902,802.667 537.813,792.793 537.813,773.181 554.902,783.049 	"/>
	<polygon fill="#FFFFFF" points="530.48,788.566 513.391,778.692 513.391,759.08 530.48,768.949 	"/>
	<polygon fill="#FFFFFF" points="481.639,760.365 464.543,750.497 464.543,730.879 481.639,740.753 	"/>
	<polygon fill="#FFFFFF" points="457.218,746.265 440.128,736.396 440.128,716.779 457.218,726.653 	"/>
	<polygon fill="#FFFFFF" points="432.797,732.165 415.707,722.296 415.707,702.679 432.797,712.553 	"/>
	<polygon fill="#FFFFFF" points="408.376,718.064 391.285,708.195 391.285,688.583 408.376,698.452 	"/>
	<polygon fill="#FFFFFF" points="218.448,470.145 201.352,460.276 201.352,440.658 218.448,450.533 	"/>
	<polygon fill="#FFFFFF" points="194.027,456.044 176.931,446.175 176.931,426.558 194.027,436.432 	"/>
	<polygon fill="#FFFFFF" points="169.606,441.944 152.51,432.075 152.51,412.458 169.606,422.332 	"/>
	<polygon fill="#FFFFFF" points="145.185,427.843 128.089,417.975 128.089,398.363 145.185,408.231 	"/>
	<polygon fill="#FFFFFF" points="218.448,516.65 201.352,506.782 201.352,487.164 218.448,497.038 	"/>
	<polygon fill="#FFFFFF" points="194.027,502.55 176.931,492.681 176.931,473.069 194.027,482.938 	"/>
	<polygon fill="#FFFFFF" points="169.606,488.455 152.51,478.581 152.51,458.969 169.606,468.837 	"/>
	<polygon fill="#FFFFFF" points="145.185,474.354 128.089,464.48 128.089,444.868 145.185,454.737 	"/>
	<polygon fill="#FFFFFF" points="218.448,563.156 201.352,553.287 201.352,533.675 218.448,543.544 	"/>
	<polygon fill="#FFFFFF" points="194.027,549.061 176.931,539.188 176.931,519.575 194.027,529.444 	"/>
	<polygon fill="#FFFFFF" points="169.606,534.96 152.51,525.086 152.51,505.474 169.606,515.343 	"/>
	<polygon fill="#FFFFFF" points="145.185,520.86 128.089,510.986 128.089,491.374 145.185,501.243 	"/>
	<polygon fill="#FFFFFF" points="218.448,609.667 201.352,599.793 201.352,580.181 218.448,590.05 	"/>
	<polygon fill="#FFFFFF" points="194.027,595.567 176.931,585.693 176.931,566.081 194.027,575.949 	"/>
	<polygon fill="#FFFFFF" points="169.606,581.466 152.51,571.592 152.51,551.98 169.606,561.854 	"/>
	<polygon fill="#FFFFFF" points="145.185,567.366 128.089,557.497 128.089,537.88 145.185,547.754 	"/>
	<path fill="#AE6B3E" d="M286.336,290.02c-8.137-4.7-8.17-12.292-0.087-16.96c8.082-4.673,21.229-4.646,29.366,0.055
		c8.137,4.695,8.186,12.287,0.098,16.96C307.63,294.742,294.473,294.715,286.336,290.02"/>
	<path fill="#AE6B3E" d="M244.007,314.457c-8.136-4.695-8.18-12.292-0.098-16.96c8.088-4.667,21.241-4.646,29.377,0.06
		c8.137,4.695,8.18,12.281,0.093,16.96C265.292,319.185,252.144,319.157,244.007,314.457"/>
	<path fill="#AE6B3E" d="M201.668,338.9c-8.136-4.695-8.169-12.292-0.087-16.96c8.082-4.667,21.23-4.646,29.366,0.055
		c8.137,4.7,8.18,12.287,0.098,16.96C222.957,343.622,209.805,343.595,201.668,338.9"/>
	<path fill="#AE6B3E" d="M159.34,363.343c-8.137-4.695-8.18-12.292-0.093-16.96c8.082-4.668,21.235-4.646,29.372,0.054
		c8.137,4.695,8.18,12.287,0.093,16.96C180.624,368.065,167.476,368.038,159.34,363.343"/>
	<path fill="#AE6B3E" d="M537.97,434.553c-8.137-4.693-8.175-12.292-0.087-16.96c8.077-4.667,21.229-4.646,29.366,0.057
		c8.137,4.698,8.18,12.285,0.093,16.96C559.259,439.275,546.107,439.248,537.97,434.553"/>
	<path fill="#AE6B3E" d="M495.636,458.996c-8.137-4.695-8.175-12.292-0.093-16.96c8.082-4.667,21.235-4.646,29.372,0.055
		c8.137,4.695,8.18,12.287,0.093,16.96C516.926,463.718,503.773,463.69,495.636,458.996"/>
	<path fill="#AE6B3E" d="M453.302,483.439c-8.137-4.7-8.175-12.292-0.093-16.962c8.082-4.665,21.235-4.646,29.372,0.057
		c8.137,4.693,8.18,12.287,0.093,16.96C474.586,488.161,461.439,488.133,453.302,483.439"/>
	<path fill="#AE6B3E" d="M410.968,507.876c-8.136-4.695-8.18-12.292-0.087-16.96c8.077-4.667,21.23-4.646,29.366,0.06
		c8.137,4.695,8.18,12.287,0.093,16.96C432.252,512.604,419.105,512.577,410.968,507.876"/>
	<polygon fill="#BDB8B6" points="497.041,227.611 481.073,218.391 489.057,213.767 505.031,222.987 	"/>
	<polygon fill="#948F79" points="497.041,246.079 497.041,227.639 505.031,223.015 505.031,241.456 	"/>
	<polygon fill="#DDCDBE" points="481.073,236.799 481.073,218.363 497.145,227.639 497.145,246.074 	"/>
	<polygon fill="#BDB8B6" points="477.086,239.168 461.117,229.953 469.096,225.329 485.07,234.544 	"/>
	<polygon fill="#948F79" points="477.086,257.637 477.086,239.201 485.07,234.577 485.07,253.013 	"/>
	<polygon fill="#DDCDBE" points="461.117,248.362 461.117,229.92 477.184,239.195 477.184,257.637 	"/>
	<polygon fill="#BDB8B6" points="457.125,250.731 441.157,241.51 449.136,236.886 465.104,246.107 	"/>
	<polygon fill="#948F79" points="457.125,269.193 457.125,250.758 465.104,246.134 465.104,264.575 	"/>
	<polygon fill="#DDCDBE" points="441.157,259.918 441.157,241.483 457.223,250.758 457.223,269.193 	"/>
	<polygon fill="#BDB8B6" points="437.165,262.288 421.196,253.072 429.181,248.449 445.148,257.663 	"/>
	<polygon fill="#948F79" points="437.165,280.756 437.165,262.32 445.148,257.696 445.148,276.132 	"/>
	<polygon fill="#DDCDBE" points="421.196,271.481 421.196,253.039 437.263,262.315 437.263,280.75 	"/>
	<polygon fill="#D7E0E1" points="782.78,321.172 749.067,301.708 717.343,320.023 751.055,339.483 	"/>
	<polygon fill="#61AEBE" points="782.78,321.172 751.055,339.483 751.055,376.414 782.78,357.799 	"/>
	<polygon fill="#9ED7E8" points="751.055,339.788 717.343,320.323 717.343,356.949 751.055,376.414 	"/>
	<polygon fill="#61AEBE" points="574.063,250.731 271.179,425.6 380.099,488.667 574.193,376.605 574.193,250.801 	"/>
	<polygon fill="#ACD9CF" points="574.193,250.807 574.193,376.61 682.987,313.798 	"/>
	<polygon fill="#C0DEC2" points="558.568,301.631 541.472,311.505 541.472,291.883 558.568,282.019 	"/>
	<polygon fill="#C0DEC2" points="534.146,315.732 517.05,325.606 517.05,305.983 534.146,296.12 	"/>
	<polygon fill="#C0DEC2" points="509.727,329.832 492.629,339.706 492.629,320.083 509.727,310.22 	"/>
	<polygon fill="#C0DEC2" points="485.304,343.933 468.208,353.807 468.208,334.184 485.304,324.321 	"/>
	<polygon fill="#C0DEC2" points="436.457,372.133 419.366,382.002 419.366,362.385 436.457,352.516 	"/>
	<polygon fill="#C0DEC2" points="412.036,386.234 394.945,396.102 394.945,376.485 412.036,366.616 	"/>
	<polygon fill="#C0DEC2" points="387.614,400.334 370.523,410.203 370.523,390.585 387.614,380.717 	"/>
	<polygon fill="#C0DEC2" points="363.193,414.429 346.104,424.303 346.104,404.686 363.193,394.817 	"/>
	<polygon fill="#C0DEC2" points="339.502,429.172 322.412,439.046 322.412,419.429 339.502,409.56 	"/>
	<polygon fill="#C0DEC2" points="314.351,442.63 307.456,446.606 297.261,440.658 297.261,432.881 314.351,423.018 	"/>
	<polygon fill="#C0DEC2" points="558.568,348.143 541.472,358.011 541.472,338.394 558.568,328.525 	"/>
	<polygon fill="#C0DEC2" points="534.146,362.243 517.05,372.111 517.05,352.494 534.146,342.625 	"/>
	<polygon fill="#C0DEC2" points="509.727,376.338 492.629,386.212 492.629,366.595 509.727,356.726 	"/>
	<polygon fill="#C0DEC2" points="485.304,390.438 468.208,400.313 468.208,380.689 485.304,370.826 	"/>
	<polygon fill="#C0DEC2" points="436.457,418.639 419.366,428.508 419.366,408.891 436.457,399.027 	"/>
	<polygon fill="#C0DEC2" points="412.036,432.739 394.945,442.608 394.945,422.991 412.036,413.122 	"/>
	<polygon fill="#C0DEC2" points="387.614,446.84 370.523,456.709 370.523,437.091 387.614,427.223 	"/>
	<polygon fill="#C0DEC2" points="346.104,468.979 346.104,451.191 363.193,441.317 363.193,460.94 347.59,469.943 	"/>
	<polygon fill="#C0DEC2" points="330.755,460.096 339.502,455.042 339.502,465.161 	"/>
	<polygon fill="#C0DEC2" points="558.568,385.482 541.472,395.356 541.472,384.905 558.568,375.031 	"/>
	<polygon fill="#C0DEC2" points="534.146,399.583 517.05,409.451 517.05,399 534.146,389.131 	"/>
	<polygon fill="#C0DEC2" points="509.727,413.683 492.629,423.552 492.629,413.1 509.727,403.232 	"/>
	<polygon fill="#C0DEC2" points="485.304,427.784 468.208,437.652 468.208,427.201 485.304,417.332 	"/>
	<polygon fill="#C0DEC2" points="436.457,455.979 419.366,465.853 419.366,455.401 436.457,445.527 	"/>
	<polygon fill="#C0DEC2" points="460.431,358.676 443.336,368.55 443.336,348.927 460.431,339.064 	"/>
	<polygon fill="#C0DEC2" points="460.431,405.181 443.336,415.055 443.336,395.433 460.431,385.569 	"/>
	<polygon fill="#C0DEC2" points="460.431,442.526 443.336,452.395 443.336,441.944 460.431,432.075 	"/>
	<polygon fill="#C0DEC2" points="412.036,470.079 394.945,479.953 394.945,469.502 412.036,459.628 	"/>
	<polygon fill="#C0DEC2" points="387.614,484.332 380.104,488.667 370.523,483.597 387.614,473.728 	"/>
	<polygon fill="#BDB8B6" points="664.105,333.312 648.143,324.092 656.126,319.468 672.095,328.688 	"/>
	<polygon fill="#948F79" points="664.105,351.775 664.105,333.34 672.095,328.716 672.095,347.151 	"/>
	<polygon fill="#DDCDBE" points="648.143,342.5 648.143,324.065 664.209,333.334 664.209,351.775 	"/>
	<polygon fill="#BDB8B6" points="644.151,344.87 628.182,335.649 636.161,331.03 652.134,340.246 	"/>
	<polygon fill="#948F79" points="644.151,363.338 644.151,344.897 652.134,340.272 652.134,358.714 	"/>
	<polygon fill="#DDCDBE" points="628.182,354.057 628.182,335.622 644.248,344.897 644.248,363.332 	"/>
	<polygon fill="#BDB8B6" points="624.189,356.432 608.221,347.211 616.205,342.587 632.174,351.808 	"/>
	<polygon fill="#948F79" points="624.189,374.895 624.189,356.459 632.174,351.835 632.174,370.271 	"/>
	<polygon fill="#DDCDBE" points="608.221,365.62 608.221,347.178 624.287,356.453 624.287,374.895 	"/>
	<polygon fill="#BDB8B6" points="604.229,367.989 588.266,358.768 596.245,354.145 612.213,363.365 	"/>
	<polygon fill="#948F79" points="604.229,386.457 604.229,368.016 612.213,363.392 612.213,381.833 	"/>
	<polygon fill="#DDCDBE" points="588.266,377.176 588.266,358.741 604.332,368.016 604.332,386.452 	"/>
	<path fill="#25C485" d="M301.956,530.261c-27.024-15.604-48.935-3.108-48.935,27.901c0,31.016,21.91,68.803,48.935,84.4
		c27.024,15.608,48.929,3.114,48.929-27.896S328.98,545.864,301.956,530.261 M331.316,616.235l-18.147-10.479v20.826l-22.433-12.945
		v-20.832l-18.148-10.479v-25.734l18.148,10.479v-20.826l22.433,12.951v20.819l18.147,10.479V616.235z"/>
</g>
</svg>
