<svg width="80" height="80" xmlns="http://www.w3.org/2000/svg">
 <title/>

 <g>
  <title>background</title>
  <rect fill="none" id="canvas_background" height="402" width="582" y="-1" x="-1"/>
 </g>
 <g>
  <title>Layer 1</title>
  <path fill="#454545" stroke="null" id="svg_1" d="m41.771425,39.908425c2.969166,-1.484583 5.567186,-3.711457 7.608487,-6.309477c1.670156,-2.412447 2.783593,-5.19604 3.340311,-8.165206l8.721924,0c0,0 1.670156,-2.226874 4.639321,-6.680623c0,0 0,-0.185573 -0.185573,-0.185573l-13.361246,0c-0.556719,-2.783593 -1.670156,-5.19604 -3.525884,-7.422914l12.433382,0c1.670156,-2.226874 3.340311,-4.453749 4.639321,-6.866196l0,0l-46.76436,0c-0.185573,0 -1.670156,2.226874 -4.639321,6.680623l0,0.185573l12.247809,0c2.412447,0 4.639321,0.556719 6.866196,1.29901c3.154739,0.927864 5.752759,3.154739 7.422914,5.938331l0,0l-21.897597,0c0,0 -1.670156,2.226874 -4.639321,6.680623c0,0 0,0.185573 0.185573,0.185573c0,0 0,0 0,0l27.835929,0c0,1.113437 -0.185573,2.041301 -0.556719,2.969166c-2.412447,6.680623 -8.907497,10.020934 -19.114004,10.020934c-1.855729,0 -3.89703,0 -5.752759,-0.371146l0,0.185573l0,6.49505c0,0.185573 9.09307,10.763226 27.464783,32.104105l10.020934,0c0.185573,0 0.185573,0 0.185573,-0.185573l0,-1.29901l-23.011035,-27.835929c-1.113437,-1.113437 -2.226874,-2.59802 -3.154739,-4.082603l0,0c4.453749,0 9.09307,-1.113437 12.9901,-3.340311z"/>
 </g>
</svg>