<svg width="24" height="24" xmlns="http://www.w3.org/2000/svg">
 <title/>

 <g>
  <title>background</title>
  <rect fill="none" id="canvas_background" height="402" width="582" y="-1" x="-1"/>
 </g>
 <g>
  <title>Layer 1</title>
  <path fill="none" stroke="#fcfcfc" stroke-linecap="round" stroke-linejoin="round" id="_Path_" d="m17.5,22.5l-14.5,0c-0.828,0 -1.5,-0.672 -1.5,-1.5l0,-16c0,-0.828 0.672,-1.5 1.5,-1.5l18,0c0.828,0 1.5,0.672 1.5,1.5l0,12.5"/>
  <circle fill="none" stroke="#fcfcfc" stroke-linecap="round" stroke-linejoin="round" r="0.5" id="_Path_2" cy="6" cx="7"/>
  <circle fill="none" stroke="#fcfcfc" stroke-linecap="round" stroke-linejoin="round" r="0.5" id="_Path_3" cy="6" cx="17"/>
  <line fill="none" stroke="#fcfcfc" stroke-linecap="round" stroke-linejoin="round" y2="1.5" y1="6" x2="7.5" x1="7.5" id="_Path_4"/>
  <line fill="none" stroke="#fcfcfc" stroke-linecap="round" stroke-linejoin="round" y2="1.5" y1="6" x2="17.5" x1="17.5" id="_Path_5"/>
  <line fill="none" stroke="#fcfcfc" stroke-linecap="round" stroke-linejoin="round" y2="8.5" y1="8.5" x2="22.5" x1="1.5" id="_Path_6"/>
  <path fill="none" stroke="#fcfcfc" stroke-linecap="round" stroke-linejoin="round" id="_Path_7" d="m22.5,17.5l-3.5,0c-0.828,0 -1.5,0.672 -1.5,1.5l0,3.5l5,-5z"/>
  <text xml:space="preserve" text-anchor="start" font-family="Helvetica, Arial, sans-serif" font-size="12" id="svg_5" y="19.111057" x="7.250035" fill-opacity="null" stroke-width="0" stroke="#fcfcfc" fill="#fcfcfc">1</text>
 </g>
</svg>