<?xml version="1.0" encoding="utf-8"?>
<!-- Generator: Adobe Illustrator 13.0.0, SVG Export Plug-In . SVG Version: 6.00 Build 14948)  -->
<!DOCTYPE svg PUBLIC "-//W3C//DTD SVG 1.1//EN" "http://www.w3.org/Graphics/SVG/1.1/DTD/svg11.dtd">
<svg version="1.1" id="Layer_1" xmlns="http://www.w3.org/2000/svg" xmlns:xlink="http://www.w3.org/1999/xlink" x="0px" y="0px"
	 width="70px" height="70px" viewBox="0 0 70 70" enable-background="new 0 0 70 70" xml:space="preserve">
<g>
	<g>
		<g>
			<g>
				<g>
					<path fill="#FCFCFC" d="M42.434,37.159c-0.361,0-0.691-0.246-0.779-0.613c-0.104-0.431,0.16-0.864,0.592-0.969
						c1.67-0.403,3.496-1.878,4.883-3.943c1.291-1.921,1.93-3.967,1.629-5.214c-0.104-0.431,0.162-0.864,0.592-0.968
						c0.43-0.104,0.863,0.16,0.969,0.591c0.414,1.714-0.281,4.139-1.857,6.485c-1.631,2.426-3.758,4.105-5.838,4.608
						C42.559,37.151,42.496,37.159,42.434,37.159z"/>
				</g>
				<g>
					<path fill="#FCFCFC" d="M21.491,23.163c-0.369,0-0.701-0.256-0.783-0.632c-0.375-1.724,0.374-4.132,2.005-6.441
						c1.686-2.387,3.852-4.018,5.942-4.473c0.434-0.095,0.86,0.18,0.955,0.613c0.094,0.433-0.181,0.86-0.613,0.954
						c-1.68,0.365-3.538,1.797-4.974,3.831c-1.335,1.89-2.021,3.922-1.748,5.175c0.094,0.433-0.181,0.86-0.613,0.955
						C21.604,23.156,21.546,23.163,21.491,23.163z"/>
				</g>
				<g>
					<path fill="#FCFCFC" d="M34.912,12.341c-0.113,0-0.228-0.024-0.337-0.075c-0.354-0.164-1.613-0.099-2.569,0.064
						c-0.438,0.074-0.851-0.22-0.925-0.656c-0.075-0.437,0.219-0.851,0.654-0.925c0.579-0.099,2.546-0.388,3.516,0.063
						c0.402,0.187,0.576,0.664,0.388,1.066C35.504,12.169,35.214,12.341,34.912,12.341z"/>
				</g>
			</g>
		</g>
		<path fill="#FCFCFC" d="M38.373,44.8c-0.398,0-0.744-0.297-0.795-0.703c-0.018-0.137-0.424-3.409-0.455-7.173
			c-0.014-1.755,0.059-3.31,0.213-4.663c-0.742,0.087-1.525,0.131-2.347,0.131c-0.765,0-1.496-0.038-2.19-0.113
			c0.155,1.336,0.231,2.869,0.229,4.596c-0.006,3.781-0.384,7.077-0.4,7.216c-0.052,0.44-0.45,0.755-0.89,0.704
			c-0.44-0.051-0.755-0.449-0.704-0.889c0.286-2.465,0.647-7.866,0.12-11.892c-1.097-0.238-2.063-0.589-2.869-1.044
			c-1.502-0.848-2.362-2.006-2.362-3.18c0-1.077,0.846-2.236,2.703-2.236c0.872,0,1.663,0.371,2.288,1.073
			c0.738,0.829,1.284,2.169,1.637,4.007c0.708,0.096,1.517,0.154,2.438,0.154c0.988,0,1.847-0.066,2.595-0.176
			c0.348-1.794,0.887-3.112,1.619-3.941c0.654-0.741,1.453-1.117,2.377-1.117c1.818,0,2.633,1.091,2.633,2.173
			c0,1.16-0.902,2.36-2.412,3.212c-0.799,0.45-1.748,0.8-2.818,1.043c-0.529,4.029-0.123,9.453,0.188,11.915
			c0.055,0.439-0.256,0.841-0.697,0.896C38.439,44.798,38.406,44.8,38.373,44.8z M28.625,27.158c-0.258,0-1.099,0.046-1.099,0.632
			c0,0.42,0.405,1.138,1.546,1.782c0.423,0.239,1.003,0.498,1.774,0.715c-0.262-1.117-0.629-2.028-1.132-2.594
			C29.39,27.329,29.043,27.158,28.625,27.158z M41.58,27.158c-0.457,0-0.828,0.183-1.174,0.573c-0.494,0.56-0.854,1.44-1.111,2.515
			c0.738-0.216,1.303-0.47,1.719-0.705c1.102-0.62,1.594-1.358,1.594-1.813C42.607,27.199,41.82,27.158,41.58,27.158z"/>
		<g>
			<g>
				<g>
					<path fill="#FCFCFC" d="M44.156,48.782H25.995c-0.443,0-0.802-0.359-0.802-0.802c0-0.443,0.358-0.803,0.802-0.803h18.162
						c0.443,0,0.803,0.359,0.803,0.803C44.959,48.423,44.6,48.782,44.156,48.782z"/>
				</g>
				<g>
					<path fill="#FCFCFC" d="M42.512,52.346H27.64c-0.443,0-0.803-0.358-0.803-0.802c0-0.442,0.359-0.803,0.803-0.803h14.872
						c0.443,0,0.803,0.36,0.803,0.803C43.314,51.987,42.955,52.346,42.512,52.346z"/>
				</g>
				<g>
					<path fill="#FCFCFC" d="M35.076,59.233c-2.124,0-3.852-1.728-3.852-3.852c0-0.282,0.031-0.567,0.094-0.845
						c0.053-0.239,0.212-0.439,0.432-0.546c0.219-0.107,0.475-0.108,0.695-0.004c0.828,0.394,1.714,0.593,2.631,0.593
						c0.917,0,1.803-0.199,2.631-0.593c0.221-0.104,0.477-0.104,0.695,0.004c0.219,0.106,0.379,0.307,0.432,0.546
						c0.063,0.277,0.094,0.563,0.094,0.845C38.928,57.506,37.199,59.233,35.076,59.233z M32.88,55.867
						c0.223,1.008,1.122,1.762,2.195,1.762c1.073,0,1.971-0.754,2.196-1.762c-0.711,0.211-1.445,0.317-2.196,0.317
						C34.324,56.185,33.59,56.078,32.88,55.867z"/>
				</g>
				<path fill="#FCFCFC" d="M35.076,56.185c-4.297,0-7.793-3.496-7.793-7.793v-3.884c0-0.443,0.359-0.802,0.802-0.802h13.982
					c0.443,0,0.803,0.358,0.803,0.802v3.884C42.869,52.688,39.373,56.185,35.076,56.185z M28.887,45.31v3.082
					c0,3.412,2.775,6.188,6.188,6.188c3.413,0,6.188-2.776,6.188-6.188V45.31H28.887z"/>
			</g>
		</g>
		<path fill="#FCFCFC" d="M42.066,45.31H28.084c-0.442,0-0.802-0.359-0.802-0.802v-3.676c-0.207-0.161-0.784-0.417-1.258-0.627
			c-2.987-1.325-9.205-4.083-9.205-15.344c0-10.066,8.189-18.256,18.256-18.256c10.065,0,18.256,8.189,18.256,18.256
			c0,4.843-1.025,8.443-3.131,11.009c-1.793,2.18-3.971,3.106-5.563,3.781c-0.83,0.354-1.773,0.753-1.77,1.056v3.801
			C42.869,44.95,42.51,45.31,42.066,45.31z M28.887,43.706h12.376v-2.993c-0.012-1.366,1.268-1.909,2.748-2.538
			c3.072-1.305,7.715-3.276,7.715-13.313c0-9.182-7.469-16.652-16.651-16.652c-9.182,0-16.651,7.47-16.651,16.652
			c0,10.218,5.367,12.598,8.251,13.877c1.25,0.554,2.237,0.992,2.212,1.986V43.706z"/>
	</g>
</g>
</svg>
