<?xml version="1.0" encoding="utf-8"?>
<!-- Generator: Adobe Illustrator 13.0.0, SVG Export Plug-In . SVG Version: 6.00 Build 14948)  -->
<!DOCTYPE svg PUBLIC "-//W3C//DTD SVG 1.1//EN" "http://www.w3.org/Graphics/SVG/1.1/DTD/svg11.dtd">
<svg version="1.1" id="Layer_1" xmlns="http://www.w3.org/2000/svg" xmlns:xlink="http://www.w3.org/1999/xlink" x="0px" y="0px"
	 width="70px" height="70px" viewBox="0 0 70 70" enable-background="new 0 0 70 70" xml:space="preserve">
<path fill="none" stroke="#FCFCFC" d="M37.167,2.5c-8.032,0-15.342,3.017-20.925,7.94l11.262,11.262
	c2.681-2.078,6.004-3.369,9.663-3.369s6.982,1.291,9.663,3.373l11.262-11.262C52.509,5.517,45.198,2.5,37.167,2.5z"/>
<path fill="none" stroke="#FCFCFC" d="M27.504,46.628L16.242,57.889c5.583,4.929,12.893,7.945,20.925,7.945
	c8.031,0,15.342-3.017,20.925-7.94L46.83,46.633C44.149,48.711,40.825,50,37.167,50S30.185,48.711,27.504,46.628z"/>
<path fill="none" stroke="#FCFCFC" d="M49.628,24.504C51.711,27.185,53,30.509,53,34.167s-1.289,6.982-3.372,9.663l11.261,11.262
	c4.929-5.583,7.945-12.894,7.945-20.925c0-8.032-3.017-15.343-7.94-20.924L49.628,24.504z"/>
<path fill="none" stroke="#FCFCFC" d="M24.706,43.83c-2.083-2.681-3.373-6.005-3.373-9.663s1.29-6.982,3.373-9.663L13.44,13.243
	C8.517,18.824,5.5,26.135,5.5,34.167c0,8.031,3.017,15.342,7.94,20.925L24.706,43.83z"/>
</svg>
