<?xml version="1.0" encoding="utf-8"?>
<!-- Generator: Adobe Illustrator 13.0.0, SVG Export Plug-In . SVG Version: 6.00 Build 14948)  -->
<!DOCTYPE svg PUBLIC "-//W3C//DTD SVG 1.1//EN" "http://www.w3.org/Graphics/SVG/1.1/DTD/svg11.dtd">
<svg version="1.1" id="Layer_1" xmlns="http://www.w3.org/2000/svg" xmlns:xlink="http://www.w3.org/1999/xlink" x="0px" y="0px"
	 width="70px" height="70px" viewBox="0 0 70 70" enable-background="new 0 0 70 70" xml:space="preserve">
<g id="Layer_x0020_1">
	<g id="_445719400">
		<path id="_445719760" fill="#FCFCFC" d="M29.14,33.449c-5.082-2.027-6.106-6.129-7.334-11.051
			c-0.465-1.865-0.962-3.857-1.727-5.843c-0.028-0.073-0.047-0.148-0.057-0.222H20.02c-0.202-1.503,0.347-2.586,1.159-3.162
			c0.343-0.243,0.731-0.394,1.133-0.448s0.815-0.012,1.208,0.132c0.914,0.333,1.714,1.197,1.941,2.633
			c0.507,1.35,0.802,2.731,1.094,4.094c0.621,2.901,1.222,5.717,3.807,7.132c0.96,0.525,3.224,0.751,5.494,0.688
			c2.186-0.062,4.295-0.386,5.135-0.963c2.343-1.609,2.903-4.281,3.477-7.015c0.284-1.351,0.57-2.716,1.073-4.053
			c0.228-1.437,1.026-2.301,1.94-2.633c0.393-0.143,0.807-0.186,1.208-0.132c0.401,0.054,0.79,0.205,1.133,0.448
			c0.813,0.576,1.361,1.659,1.159,3.162c-0.013,0.1-0.041,0.194-0.081,0.282c-0.742,1.941-1.24,3.907-1.708,5.755
			c-1.26,4.976-2.321,9.159-7.424,11.197l0.045,13.174l2.372,17.207c0.006,0.044,0.009,0.089,0.009,0.132h0.003
			c0,1.562-0.694,2.594-1.583,3.073c-0.379,0.204-0.791,0.307-1.201,0.307c-0.412,0-0.823-0.103-1.202-0.307
			c-0.877-0.474-1.564-1.485-1.582-3.011l-2.346-14.586c-0.053-0.053-0.225-0.098-0.436-0.13c-0.161-0.025-0.344-0.029-0.531-0.015
			c-0.185,0.014-0.354,0.044-0.495,0.09c-0.116,0.036-0.163-0.161-0.177-0.07l-0.001,0.004h0.001L32.28,64.024
			c-0.018,1.525-0.705,2.537-1.582,3.011c-0.38,0.204-0.792,0.308-1.203,0.308c-0.411,0-0.822-0.104-1.202-0.308
			c-0.888-0.479-1.582-1.512-1.582-3.073c0-0.072,0.008-0.143,0.022-0.21l2.361-17.167L29.14,33.449L29.14,33.449z M23.733,21.925
			c1.136,4.553,2.075,8.315,6.718,9.893l0,0.001c0.391,0.133,0.673,0.503,0.673,0.939l-0.047,13.858
			c0.003,0.059,0,0.118-0.008,0.178l-2.367,17.213c0.009,0.702,0.24,1.12,0.533,1.278c0.082,0.045,0.171,0.066,0.261,0.066
			c0.09,0,0.18-0.021,0.262-0.066c0.299-0.161,0.533-0.595,0.533-1.323h0.003c0-0.051,0.004-0.103,0.012-0.155l2.379-14.801l0,0.001
			c0.116-0.741,0.733-1.257,1.536-1.513c0.301-0.096,0.625-0.158,0.946-0.183c0.317-0.024,0.653-0.014,0.982,0.037
			c0.906,0.14,1.709,0.594,2.015,1.444c0.027,0.067,0.047,0.14,0.059,0.213l2.365,14.718c0.02,0.076,0.029,0.156,0.029,0.238
			c0,0.729,0.233,1.162,0.533,1.323c0.081,0.045,0.172,0.066,0.262,0.066s0.18-0.021,0.261-0.066
			c0.293-0.158,0.523-0.576,0.533-1.278l-2.367-17.174v-0.001c-0.005-0.043-0.008-0.087-0.008-0.131l-0.048-13.874
			c-0.031-0.439,0.235-0.862,0.672-1.01c4.665-1.584,5.64-5.433,6.809-10.048c0.472-1.864,0.974-3.846,1.762-5.918
			c0.062-0.61-0.104-1.004-0.354-1.182c-0.075-0.054-0.16-0.086-0.247-0.099c-0.086-0.012-0.178-0.001-0.268,0.031
			c-0.302,0.11-0.576,0.477-0.666,1.143h-0.002c-0.01,0.074-0.028,0.148-0.056,0.222c-0.464,1.204-0.744,2.539-1.021,3.86
			c-0.657,3.13-1.299,6.189-4.302,8.251c-1.16,0.797-3.681,1.235-6.2,1.306c-2.571,0.072-5.229-0.234-6.496-0.929
			c-3.39-1.856-4.085-5.108-4.802-8.461c-0.282-1.319-0.568-2.656-1.02-3.849c-0.04-0.087-0.068-0.182-0.081-0.281
			c-0.09-0.666-0.364-1.033-0.667-1.143c-0.089-0.032-0.181-0.042-0.268-0.03c-0.086,0.011-0.171,0.044-0.247,0.098
			c-0.25,0.178-0.415,0.572-0.354,1.182C22.768,18.056,23.267,20.052,23.733,21.925L23.733,21.925z"/>
		<path id="_445719592" fill="#FCFCFC" d="M35.454,15.251c1.539,0,2.932,0.624,3.941,1.632c1.008,1.009,1.633,2.402,1.633,3.941
			s-0.624,2.933-1.633,3.941c-1.009,1.009-2.402,1.632-3.941,1.632s-2.933-0.624-3.941-1.632c-1.008-1.008-1.632-2.402-1.632-3.941
			s0.624-2.932,1.632-3.941C32.521,15.875,33.915,15.251,35.454,15.251z M37.987,18.291c-0.648-0.648-1.544-1.049-2.534-1.049
			s-1.885,0.401-2.534,1.049c-0.648,0.649-1.049,1.544-1.049,2.534s0.401,1.885,1.049,2.534c0.648,0.648,1.544,1.049,2.534,1.049
			s1.885-0.401,2.534-1.049c0.648-0.649,1.05-1.544,1.05-2.534S38.636,18.939,37.987,18.291z"/>
		<path id="_445719496" fill="#FCFCFC" d="M24.555,7.508h21.798c0.366,0,0.664,0.297,0.664,0.664v6.808
			c0,0.422-0.172,0.805-0.45,1.082c-0.016,0.016-0.032,0.031-0.05,0.045c-0.273,0.251-0.637,0.404-1.032,0.404H25.423
			c-0.422,0-0.805-0.172-1.083-0.449c-0.277-0.277-0.449-0.66-0.449-1.082V8.172C23.891,7.806,24.188,7.508,24.555,7.508
			L24.555,7.508z M45.689,8.835H25.218v6.145c0,0.055,0.023,0.106,0.061,0.144c0.037,0.038,0.088,0.061,0.144,0.061h20.062
			c0.049,0,0.094-0.016,0.128-0.043c0.005-0.005,0.011-0.012,0.017-0.018c0.037-0.037,0.061-0.088,0.061-0.144V8.835L45.689,8.835z"
			/>
		<g>
			<path id="_445719928" fill="#FCFCFC" d="M28.838,4.746c-0.275-0.24-0.303-0.658-0.062-0.933c0.24-0.275,0.658-0.303,0.933-0.063
				l4.204,3.679c0.275,0.24,0.303,0.658,0.063,0.933c-0.241,0.275-0.659,0.303-0.933,0.063L28.838,4.746z"/>
			<path id="_445719520" fill="#FCFCFC" d="M41.198,3.751c0.274-0.24,0.692-0.212,0.933,0.063s0.213,0.692-0.063,0.933l-4.203,3.679
				c-0.275,0.24-0.693,0.212-0.933-0.063c-0.241-0.274-0.214-0.692,0.062-0.933L41.198,3.751z"/>
			<path id="_445720024" fill="#FCFCFC" d="M32.922,4.495c-0.136-0.339,0.029-0.725,0.368-0.86c0.339-0.136,0.724,0.029,0.86,0.368
				l1.478,3.679c0.136,0.339-0.028,0.724-0.368,0.86c-0.339,0.136-0.724-0.029-0.86-0.368L32.922,4.495L32.922,4.495z"/>
			<path id="_445719832" fill="#FCFCFC" d="M36.758,4.003c0.136-0.339,0.521-0.504,0.86-0.368c0.339,0.136,0.503,0.521,0.367,0.86
				l-1.478,3.679c-0.136,0.339-0.521,0.504-0.86,0.368c-0.339-0.136-0.504-0.521-0.368-0.86L36.758,4.003z"/>
			<path id="_445719712" fill="#FCFCFC" d="M24.033,4.842c-0.327-0.162-0.462-0.559-0.301-0.886
				c0.162-0.328,0.559-0.462,0.886-0.301l7.41,3.679c0.328,0.162,0.462,0.558,0.301,0.886c-0.162,0.327-0.559,0.462-0.886,0.3
				L24.033,4.842z"/>
			<path id="_445719976" fill="#FCFCFC" d="M46.289,3.655c0.327-0.161,0.724-0.027,0.886,0.301s0.027,0.725-0.301,0.886
				l-7.409,3.679c-0.327,0.162-0.724,0.027-0.886-0.3c-0.162-0.328-0.027-0.725,0.301-0.886L46.289,3.655L46.289,3.655z"/>
		</g>
	</g>
</g>
</svg>
