<?xml version="1.0" encoding="utf-8"?>
<!-- Generator: Adobe Illustrator 16.0.0, SVG Export Plug-In . SVG Version: 6.00 Build 0)  -->
<!DOCTYPE svg PUBLIC "-//W3C//DTD SVG 1.1//EN" "http://www.w3.org/Graphics/SVG/1.1/DTD/svg11.dtd">
<svg version="1.1" id="Layer_1" xmlns="http://www.w3.org/2000/svg" xmlns:xlink="http://www.w3.org/1999/xlink" x="0px" y="0px"
	 width="500px" height="500px" viewBox="0 0 500 500" enable-background="new 0 0 500 500" xml:space="preserve">
<g>
	<title>background</title>
</g>
<g>
	<g>
		<g>
			<path fill="#FCFCFC" d="M287.395,202.434c0,3.992,3.231,7.232,7.231,7.232h72.323c4,0,7.231-3.24,7.231-7.232
				c0-3.992-3.231-7.232-7.231-7.232h-72.323C290.626,195.201,287.395,198.441,287.395,202.434z"/>
			<path fill="#FCFCFC" d="M330.789,245.828c0,3.992,3.23,7.232,7.23,7.232h43.395c3.999,0,7.232-3.241,7.232-7.232
				c0-3.992-3.233-7.232-7.232-7.232H338.02C334.021,238.595,330.789,241.835,330.789,245.828z"/>
			<path fill="#FCFCFC" d="M323.555,166.271c4.001,0,7.232-3.24,7.232-7.232s-3.231-7.232-7.232-7.232h-14.464
				c-4,0-7.231,3.24-7.231,7.232s3.231,7.232,7.231,7.232H323.555z"/>
			<path fill="#FCFCFC" d="M236.767,238.595c-3.999,0-7.233,3.24-7.233,7.231c0,3.992,3.234,7.232,7.233,7.232h72.324
				c3.999,0,7.231-3.241,7.231-7.232c0-3.991-3.232-7.231-7.231-7.231H236.767z"/>
			<path fill="#FCFCFC" d="M272.93,441.1H135.515c-11.961,0-21.696-9.733-21.696-21.694V86.716c0-3.992-3.232-7.232-7.232-7.232
				c-19.938,0-36.162,16.222-36.162,36.162c0,3.992,3.233,7.232,7.233,7.232c3.999,0,7.232-3.24,7.232-7.232
				c0-9.431,6.046-17.474,14.464-20.46v324.219c0,19.938,16.222,36.161,36.162,36.161H272.93c4,0,7.233-3.239,7.233-7.232
				C280.162,444.341,276.93,441.1,272.93,441.1z"/>
			<path fill="#FCFCFC" d="M164.445,209.666h101.252c4,0,7.23-3.24,7.23-7.232c0-3.992-3.23-7.232-7.23-7.232H164.445
				c-4,0-7.232,3.241-7.232,7.232C157.213,206.425,160.445,209.666,164.445,209.666z"/>
			<path fill="#FCFCFC" d="M164.445,166.271h28.928c4.001,0,7.233-3.24,7.233-7.232s-3.231-7.232-7.233-7.232h-28.928
				c-4,0-7.232,3.24-7.232,7.232C157.213,163.032,160.445,166.271,164.445,166.271z"/>
			<path fill="#FCFCFC" d="M280.162,151.807h-57.859c-4,0-7.232,3.24-7.232,7.232s3.232,7.231,7.232,7.231h57.859
				c3.999,0,7.23-3.24,7.23-7.231C287.395,155.047,284.161,151.807,280.162,151.807z"/>
			<path fill="#FCFCFC" d="M381.414,50.721H106.586c-35.808,0-64.954,29.067-65.091,64.837v0.087v0.08v0.087v0.086
				c0.093,23.064,12.541,44.551,32.537,56.123c3.458,1.996,7.877,0.817,9.879-2.632c2.011-3.457,0.816-7.883-2.632-9.88
				c-15.592-9.033-25.291-25.797-25.319-43.783c0.05-27.875,22.738-50.54,50.626-50.54h274.828c27.91,0,50.626,22.709,50.626,50.626
				v303.757c0,3.667-1.026,7.348-2.958,10.632c-2.018,3.442-0.875,7.876,2.567,9.901c1.156,0.681,2.416,0.996,3.659,0.996
				c2.48,0,4.896-1.271,6.241-3.563c3.239-5.505,4.954-11.718,4.954-17.966V115.812C446.505,79.918,417.308,50.721,381.414,50.721z"
				/>
			<path fill="#FCFCFC" d="M403.111,383.242c0-23.932-19.462-43.395-43.396-43.395c-23.931,0-43.394,19.463-43.394,43.395
				s19.463,43.395,43.394,43.395C383.649,426.637,403.111,407.174,403.111,383.242z M359.717,412.171
				c-15.954,0-28.928-12.976-28.928-28.929c0-15.955,12.975-28.93,28.928-28.93c15.955,0,28.931,12.975,28.931,28.93
				C388.646,399.195,375.672,412.171,359.717,412.171z"/>
			<path fill="#FCFCFC" d="M346.663,433.876c-3.45-1.996-7.877-0.811-9.88,2.646l-15.571,26.983l-2.473-3.731
				c-1.252-1.901-3.327-3.103-5.599-3.23l-4.471-0.268l15.833-27.411c1.994-3.458,0.809-7.883-2.646-9.881
				c-3.457-2.002-7.884-0.816-9.888,2.646l-21.676,37.543c-1.25,2.171-1.286,4.84-0.102,7.044c1.187,2.206,3.429,3.646,5.938,3.79
				l12.533,0.752l6.921,10.479c1.339,2.032,3.608,3.248,6.032,3.248h0.225c2.495-0.08,4.788-1.447,6.046-3.617l21.43-37.115
				C351.313,440.298,350.127,435.872,346.663,433.876z"/>
			<path fill="#FCFCFC" d="M407.654,421.97c-2.005-3.462-6.438-4.648-9.881-2.646c-3.464,1.996-4.65,6.423-2.654,9.879l15.643,27.07
				l-4.469,0.268c-2.271,0.137-4.347,1.338-5.604,3.232l-2.461,3.731l-15.49-26.848c-2.011-3.455-6.438-4.644-9.888-2.647
				c-3.457,1.998-4.643,6.423-2.646,9.881l21.349,36.979c1.261,2.17,3.553,3.537,6.048,3.619h0.225c2.415,0,4.692-1.219,6.039-3.248
				l6.914-10.473l12.525-0.761c2.511-0.144,4.751-1.584,5.938-3.788c1.187-2.206,1.143-4.875-0.102-7.044L407.654,421.97z"/>
			<path fill="#FCFCFC" d="M164.445,253.061h43.394c4,0,7.232-3.241,7.232-7.232c0-3.992-3.232-7.232-7.232-7.232h-43.394
				c-4,0-7.232,3.24-7.232,7.232C157.213,249.82,160.445,253.061,164.445,253.061z"/>
			<path fill="#FCFCFC" d="M164.445,296.453h86.788c4,0,7.232-3.24,7.232-7.232c0-3.99-3.232-7.23-7.232-7.23h-86.788
				c-4,0-7.232,3.24-7.232,7.23C157.213,293.213,160.445,296.453,164.445,296.453z"/>
			<path fill="#FCFCFC" d="M165.21,386.475c1.779,3.571,6.127,5.02,9.699,3.239c3.571-1.786,5.026-6.131,3.232-9.704
				c-7.16-14.322-8.765-27.164-4.311-34.376c2.373-3.84,6.508-5.786,12.309-5.786c3.45,0,4.737,1.187,5.548,2.344
				c5.387,7.769,0.268,31.425-5.091,45.744c-1.193,3.188,0,6.775,2.864,8.619c2.849,1.83,6.618,1.435,9.026-0.967
				c3.089-3.081,6.438-6.156,9.352-8.65v3.535c0,2.922,1.758,5.563,4.463,6.679c2.705,1.128,5.806,0.504,7.882-1.563
				c3.306-3.3,7.139-6.531,10.364-8.859c-0.087,0.181-0.174,0.354-0.26,0.521c-1.106,2.24-0.984,4.901,0.333,7.028
				c1.324,2.127,3.646,3.428,6.147,3.428h28.928c4,0,7.231-3.238,7.231-7.232c0-3.99-3.231-7.229-7.231-7.229h-18.824
				c0.586-3.442,0.44-6.943-1.302-9.765c-1.844-2.986-5.056-4.701-8.802-4.701c-4.469,0-9.727,2.721-14.53,6.091
				c-0.368-3.153-2.235-5.75-5.069-6.922c-1.931-0.796-4.42-1.839-10.458,1.786c2.378-12.461,3.074-26.825-3.132-35.776
				c-2.713-3.915-7.934-8.571-17.438-8.571c-10.834,0-19.578,4.491-24.618,12.65C154.312,349.706,155.649,367.359,165.21,386.475z"
				/>
			<path fill="#FCFCFC" d="M359.717,289.221c0-3.99-3.23-7.23-7.23-7.23h-72.323c-3.999,0-7.231,3.24-7.231,7.23
				c0,3.992,3.232,7.232,7.231,7.232h72.323C356.485,296.453,359.717,293.213,359.717,289.221z"/>
		</g>
	</g>
</g>
</svg>
