<?xml version="1.0" encoding="utf-8"?>
<!-- Generator: Adobe Illustrator 16.0.0, SVG Export Plug-In . SVG Version: 6.00 Build 0)  -->
<!DOCTYPE svg PUBLIC "-//W3C//DTD SVG 1.1//EN" "http://www.w3.org/Graphics/SVG/1.1/DTD/svg11.dtd">
<svg version="1.1" id="Layer_1" xmlns="http://www.w3.org/2000/svg" xmlns:xlink="http://www.w3.org/1999/xlink" x="0px" y="0px"
	 width="500px" height="500px" viewBox="0 0 500 500" enable-background="new 0 0 500 500" xml:space="preserve">
<g>
	<title>background</title>
</g>
<g>
	<g>
		<g>
			<path fill="none" stroke="#4C9CD4" stroke-width="12" stroke-miterlimit="10" d="M276.488,121.678
				c-13.188-3.76-27.094-5.815-41.487-5.815c-83.441,0-151.082,67.643-151.082,151.083c0,83.334,67.47,150.899,150.763,151.072
				l0.319-151.072C235.001,266.943,260.184,178.628,276.488,121.678z"/>
		</g>
	</g>
	<g>
		<g>
			<path fill="none" stroke="#4C9CD4" stroke-width="12" stroke-miterlimit="10" d="M386.093,266.927
				c0,56.326-30.78,105.398-76.467,131.341c-24.842-45.113-72.551-127.778-74.573-131.207c-0.044-0.088-0.044-0.134-0.044-0.134
				l124.657-85.303C376.33,205.896,386.093,235.268,386.093,266.927z"/>
		</g>
	</g>
	<g>
		<g>
			<path fill="#4C9CD4" d="M265.176,456.764c0.09-0.01,0.174-0.012,0.262-0.021c12.473-1.334,24.304-4.49,35.28-9.149
				l-48.456-114.041L265.176,456.764z"/>
		</g>
	</g>
	<g>
		<g>
			<path fill="#4C9CD4" d="M269.48,473.043l-0.561-5.186l0.204-0.017c1.646-0.175,3.25-0.38,4.843-0.614l0.76,5.16
				c-1.66,0.244-3.332,0.456-5.016,0.638L269.48,473.043z M279.979,471.503l-0.975-5.123c1.678-0.317,3.342-0.672,4.99-1.059
				l1.191,5.075C283.465,470.801,281.729,471.171,279.979,471.503z M290.343,469.074l-1.401-5.024
				c1.644-0.459,3.272-0.949,4.886-1.476l1.616,4.96C293.758,468.081,292.059,468.596,290.343,469.074z M300.467,465.781
				l-1.816-4.89c1.599-0.595,3.181-1.223,4.744-1.881l2.021,4.808C303.785,464.505,302.136,465.16,300.467,465.781z"/>
		</g>
	</g>
	<g>
		<g>
			<path fill="none" stroke="#4C9CD4" stroke-width="12" stroke-miterlimit="10" d="M361.67,181.614
				c-19.655-28.66-48.937-50.172-83.182-59.937c-16.307,56.95-41.487,145.268-41.487,145.268L361.67,181.614z"/>
		</g>
	</g>
</g>
</svg>
