<?xml version="1.0" encoding="utf-8"?>
<!-- Generator: Adobe Illustrator 16.0.0, SVG Export Plug-In . SVG Version: 6.00 Build 0)  -->
<!DOCTYPE svg PUBLIC "-//W3C//DTD SVG 1.1//EN" "http://www.w3.org/Graphics/SVG/1.1/DTD/svg11.dtd">
<svg version="1.1" id="Layer_1" xmlns="http://www.w3.org/2000/svg" xmlns:xlink="http://www.w3.org/1999/xlink" x="0px" y="0px"
	 width="500px" height="500px" viewBox="0 0 500 500" enable-background="new 0 0 500 500" xml:space="preserve">
<g>
	<title>background</title>
</g>
<g>
	<g>
		<path fill="#FCFCFC" d="M362.193,284.346c2.294-1.404,4.571-2.906,6.763-4.464c9.46-6.717,19.647,7.591,10.171,14.317
			c-2.517,1.789-5.133,3.514-7.765,5.129C361.457,305.385,352.279,290.411,362.193,284.346z M399.752,247.937
			c1.488-2.269,2.902-4.599,4.215-6.927c5.682-10.117,21.008-1.516,15.309,8.611c-1.504,2.675-3.131,5.349-4.837,7.946
			C408.071,267.277,393.385,257.643,399.752,247.937z M170.475,226.512c-0.99-2.929-1.899-5.928-2.684-8.917
			c-2.963-11.215,14.021-15.72,16.98-4.481c0.686,2.599,1.47,5.209,2.336,7.759c1.557,4.592-0.9,9.579-5.496,11.136
			C177.031,233.563,172.036,231.117,170.475,226.512z M418.118,198.983c0.363-2.654,0.642-5.367,0.832-8.06
			c0.783-11.582,18.314-10.39,17.521,1.201c-0.215,3.091-0.531,6.207-0.957,9.259C433.924,212.876,416.527,210.497,418.118,198.983z
			 M164.167,166.847c0.352-3.055,0.814-6.148,1.372-9.197c2.102-11.402,19.382-8.244,17.272,3.182
			c-0.488,2.658-0.892,5.355-1.195,8.019C180.294,180.399,162.847,178.371,164.167,166.847z M413.769,146.859
			c-0.796-2.551-1.705-5.122-2.688-7.639c-4.223-10.808,12.126-17.212,16.359-6.394c1.126,2.893,2.168,5.849,3.086,8.784
			c1.449,4.629-1.128,9.556-5.755,11.005C420.104,154.069,415.207,151.456,413.769,146.859z M183.995,110.209
			c1.634-2.618,3.384-5.214,5.197-7.718c6.788-9.408,21.041,0.883,14.228,10.295c-1.583,2.185-3.104,4.451-4.536,6.732
			C192.734,129.359,177.837,120.059,183.995,110.209z M387.515,101.657c-1.837-1.98-3.756-3.921-5.708-5.762
			c-8.443-7.958,3.589-20.752,12.05-12.778c2.238,2.114,4.442,4.335,6.542,6.604c3.294,3.559,3.084,9.114-0.471,12.411
			C396.369,105.426,390.813,105.212,387.515,101.657z M226.137,67.517c2.594-1.67,5.283-3.274,7.984-4.764
			c10.21-5.611,18.618,9.793,8.478,15.385c-2.354,1.297-4.696,2.692-6.959,4.146C225.893,88.573,216.36,73.803,226.137,67.517z
			 M344.459,71.972c-2.513-1.008-5.076-1.938-7.636-2.768c-11.024-3.576-5.648-20.271,5.423-16.706
			c2.933,0.952,5.875,2.019,8.756,3.175c4.499,1.808,6.682,6.921,4.876,11.421C354.064,71.607,348.945,73.774,344.459,71.972z
			 M282.506,46.975c3.071-0.395,6.191-0.686,9.263-0.866c11.599-0.692,12.619,16.852,1.038,17.533
			c-2.675,0.157-5.391,0.412-8.07,0.755C273.193,65.832,271.002,48.452,282.506,46.975z"/>
	</g>
	<g>
		<path fill="#FCFCFC" d="M70.471,440.453l54.598-11.33c-0.399-1.923-27.605-130.166-27.387-132.117l-0.021-0.099l-23.609,4.903
			c-11.394,2.376-14.983-14.867-3.585-17.233c31.255-6.492,40.239-11.455,42.914,1.426c10.39-4.358,21.723-10.449,32.014-15.983
			c14.695-7.896,31.131-18.912,67.913-16.917c13.996,0.74,60.324,28.311,99.72,48.994c14.002,7.345,19.725,24.014,14.144,38.092
			c25.151-8.809,54.499-25.758,87.404-14.333l0,0c12.393,4.303,20.046,15.741,15.678,27.996
			c-2.917,8.143-10.541,11.96-20.193,16.791c-13.038,6.531-13.974,7.089-47.62,29.652c-36.448,24.431-38.708,32.33-99.82,18.509
			c-40.208-9.155-68.569-16.077-82.925-15.467c-8.713,0.357-29.038,2.834-41.083,4.374l5.48,26.456
			c0.987,4.758-2.066,9.416-6.826,10.405L74.047,457.69C62.637,460.047,59.091,442.816,70.471,440.453z M322.419,405.226
			c3.538-1.528,45.312-29.797,60.399-39.559c7.329-4.742,14.006-8.08,19.365-10.765c4.571-2.29,10.836-5.427,11.495-6.975
			c0.905-2.541-2.396-4.581-4.884-5.444l0,0c-44.046-15.308-81.714,36.086-124.328,13.359
			c-36.641-19.606-55.89-18.271-50.728-31.481c1.771-4.528,6.883-6.75,11.402-4.995c51.739,20.221,48.965,24.517,57.549,21.842
			c6.774-2.104,10.513-9.206,8.4-15.998c-2.05-6.582-4.147-6.232-33.447-22.18c-23.146-12.603-58.127-31.646-65.322-32.354
			c-31.847-1.711-45.003,7.547-58.591,14.849c-11.667,6.271-24.604,13.227-36.722,18.004l18.018,86.894
			c12.075-1.555,34.167-4.274,43.952-4.674C215.64,384.335,295.191,415.965,322.419,405.226z"/>
	</g>
</g>
<path fill="#FCFCFC" d="M336.563,148.546v8.239c0,0.754-0.241,1.373-0.727,1.858c-0.484,0.484-1.104,0.727-1.858,0.727h-13.57
	c-1.237,7.754-4.711,14.055-10.419,18.901c-5.708,4.847-13.139,7.809-22.293,8.885c8.993,9.585,21.351,24.017,37.074,43.294
	c0.754,0.861,0.862,1.777,0.323,2.746c-0.431,0.97-1.211,1.455-2.342,1.455h-15.751c-0.862,0-1.535-0.323-2.02-0.969
	c-16.478-19.763-29.887-35.137-40.226-46.122c-0.484-0.485-0.727-1.077-0.727-1.777v-10.258c0-0.7,0.256-1.306,0.768-1.817
	c0.512-0.511,1.117-0.768,1.817-0.768h9.046c7.109,0,12.83-1.157,17.165-3.473c4.335-2.315,7.095-5.681,8.279-10.097h-34.49
	c-0.754,0-1.374-0.242-1.858-0.727c-0.484-0.485-0.727-1.104-0.727-1.858v-8.239c0-0.754,0.242-1.373,0.727-1.858
	c0.484-0.484,1.104-0.727,1.858-0.727h33.359c-3.069-6.085-10.285-9.127-21.647-9.127h-11.712c-0.7,0-1.306-0.256-1.817-0.767
	s-0.768-1.118-0.768-1.817v-10.743c0-0.754,0.242-1.373,0.727-1.858s1.104-0.727,1.858-0.727h67.203
	c0.754,0,1.373,0.242,1.857,0.727c0.485,0.485,0.728,1.104,0.728,1.858v8.238c0,0.754-0.242,1.374-0.728,1.858
	c-0.484,0.484-1.104,0.727-1.857,0.727h-18.82c2.531,3.285,4.254,7.162,5.169,11.631h13.813c0.755,0,1.374,0.243,1.858,0.727
	C336.322,147.173,336.563,147.792,336.563,148.546z"/>
</svg>
