<?xml version="1.0" encoding="utf-8"?>
<!-- Generator: Adobe Illustrator 16.0.0, SVG Export Plug-In . SVG Version: 6.00 Build 0)  -->
<!DOCTYPE svg PUBLIC "-//W3C//DTD SVG 1.1//EN" "http://www.w3.org/Graphics/SVG/1.1/DTD/svg11.dtd">
<svg version="1.1" id="Layer_1" xmlns="http://www.w3.org/2000/svg" xmlns:xlink="http://www.w3.org/1999/xlink" x="0px" y="0px"
	 width="500px" height="500px" viewBox="0 0 500 500" enable-background="new 0 0 500 500" xml:space="preserve">
<g>
	<title>background</title>
</g>
<path fill="#FCFCFC" d="M250,42.033c-109.794,0-199.094,89.298-199.094,199.094c0,109.797,89.3,199.096,199.094,199.096
	c109.796,0,199.095-89.299,199.095-199.096C449.095,131.332,359.796,42.033,250,42.033 M384.994,371.803l-27.198-27.201
	l-4.573,4.578l27.141,27.139c-31.025,30.021-72.206,49.329-117.827,52.331v-37.104h-25.07v37.104
	c-45.628-3.002-86.808-22.31-117.833-52.331l27.138-27.139l-4.572-4.578l-27.201,27.201
	c-30.088-31.021-49.514-72.328-52.526-118.141H99.58v-25.07H62.472c3.012-45.622,22.316-86.803,52.336-117.828l27.391,27.389
	l4.572-4.578l-27.451-27.451c31.025-30.083,72.327-49.508,118.146-52.521v37.104h25.07V53.604
	c45.813,3.013,87.113,22.438,118.139,52.521l-27.451,27.451l4.573,4.578l27.391-27.389c30.021,31.025,49.323,72.206,52.337,117.828
	H400.42v25.07h37.104C434.51,299.475,415.085,340.781,384.994,371.803 M268.614,244.451c-0.314,3.005-1.63,5.886-3.95,8.206
	c-0.563,0.563-1.947,1.696-3.947,3.194c-15.859,12.102-70.889,49.891-70.889,49.891s39.173-52.02,52.087-67.939
	c2.253-26.447,13.16-130.239,13.16-130.239s12.282,115.948,13.478,134.003C268.673,242.504,268.673,243.447,268.614,244.451"/>
</svg>
