<?xml version="1.0" encoding="utf-8"?>
<!-- Generator: Adobe Illustrator 13.0.0, SVG Export Plug-In . SVG Version: 6.00 Build 14948)  -->
<!DOCTYPE svg PUBLIC "-//W3C//DTD SVG 1.1//EN" "http://www.w3.org/Graphics/SVG/1.1/DTD/svg11.dtd">
<svg version="1.1" id="Layer_1" xmlns="http://www.w3.org/2000/svg" xmlns:xlink="http://www.w3.org/1999/xlink" x="0px" y="0px"
	 width="300px" height="300px" viewBox="0 0 300 300" enable-background="new 0 0 300 300" xml:space="preserve">
<polygon fill-rule="evenodd" clip-rule="evenodd" fill="#F39237" points="125.934,255.333 221.294,160.037 180.449,274.735 "/>
<g>
	<g>
		<path fill="#2193A8" d="M180.449,280.146c-0.602,0-1.215-0.1-1.814-0.313l-54.527-19.406c-2.816-0.998-4.285-4.095-3.284-6.911
			c1.001-2.811,4.092-4.29,6.911-3.281l49.431,17.59l41.584-116.784c-0.195-0.533-7.096-19.417-7.221-19.973
			c-0.472,0.623-0.97,1.236-1.494,1.833l-2.933,30.916c-0.122,1.253-0.672,2.425-1.564,3.313l-92.888,92.839
			c-2.111,2.112-5.535,2.112-7.648,0l-65.879-65.87c-1.015-1.014-1.585-2.394-1.585-3.825c0-1.438,0.571-2.812,1.585-3.825
			l92.87-92.859c0.887-0.888,2.061-1.442,3.313-1.559l30.922-2.938c7.471-6.558,17.361-8.925,26.583-7.083l14.234-36.288
			c4.586-11.164,14.305-19.27,26.029-21.762c11.724-2.496,23.902,0.959,32.574,9.242c8.903,8.493,12.867,20.794,10.601,32.889
			c-2.271,12.105-10.416,22.134-21.798,26.837l-32.938,13.601c-1.467,0.603-3.041,0.518-4.37-0.105
			c1.197,6.103,0.55,12.501-1.935,18.292c2.732-0.855,5.694,0.587,6.685,3.318l7.692,21.136c0.432,1.184,0.434,2.479,0.012,3.666
			l-44.052,123.717C184.756,278.767,182.672,280.146,180.449,280.146z M50.598,190.272l58.229,58.218l87.686-87.633l1.506-15.863
			l-15.532,15.535c-2.028,2.029-5.623,2.029-7.654,0c-39.158-39.156-37.831-36.981-37.831-40.068c0-1.437,0.57-2.811,1.584-3.825
			l15.53-15.524l-15.852,1.506L50.598,190.272z M150.065,120.461l28.594,28.591l22.325-22.335c0.088-0.084,0.179-0.169,0.274-0.254
			c7.618-7.904,7.534-20.538-0.264-28.332c-0.684-0.687-1.401-1.311-2.155-1.875l-7.394,18.853
			c-1.094,2.779-4.237,4.153-7.012,3.059c-2.785-1.094-4.153-4.232-3.063-7.012l7.392-18.832
			c-5.838-0.597-11.899,1.337-16.362,5.807c27.053,0-27.054,0,0,0L150.065,120.461z M202.888,85.942
			c4.939,3.017,9.13,7.5,11.788,13.036c0.569-1.067,1.501-1.95,2.709-2.452l32.937-13.6c7.981-3.297,13.698-10.335,15.29-18.827
			c1.59-8.486-1.19-17.109-7.437-23.075c-6.173-5.892-14.502-8.264-22.852-6.483c-8.349,1.775-14.994,7.318-18.24,15.212
			L202.888,85.942z"/>
	</g>
	<g>
		<path fill="#2193A8" d="M116.626,229.621l-3.797-3.794c-2.111-2.113-2.114-5.537-0.002-7.65c2.113-2.113,5.54-2.113,7.653,0
			l3.796,3.794c2.111,2.108,2.114,5.538,0,7.65C122.169,231.729,118.742,231.737,116.626,229.621z M91.956,204.957l-3.793-3.798
			c-2.111-2.115-2.108-5.54,0.005-7.653s5.538-2.108,7.651,0l3.794,3.799c2.11,2.114,2.108,5.537-0.006,7.652
			C97.493,207.069,94.069,207.069,91.956,204.957z M67.293,180.286l-3.796-3.794c-2.111-2.109-2.114-5.538,0-7.651
			s5.538-2.113,7.651,0l3.796,3.797c2.11,2.111,2.113,5.534,0.002,7.648C72.836,182.396,69.412,182.405,67.293,180.286z"/>
	</g>
</g>
</svg>
