<?xml version="1.0" encoding="utf-8"?>
<!-- Generator: Adobe Illustrator 13.0.0, SVG Export Plug-In . SVG Version: 6.00 Build 14948)  -->
<!DOCTYPE svg PUBLIC "-//W3C//DTD SVG 1.1//EN" "http://www.w3.org/Graphics/SVG/1.1/DTD/svg11.dtd">
<svg version="1.1" id="Layer_1" xmlns="http://www.w3.org/2000/svg" xmlns:xlink="http://www.w3.org/1999/xlink" x="0px" y="0px"
	 width="512px" height="512px" viewBox="0 0 512 512" enable-background="new 0 0 512 512" xml:space="preserve">
<g>
	<title>Layer 1</title>
	
		<path id="svg_2" fill="none" stroke="#2193A8" stroke-width="20" stroke-linecap="round" stroke-linejoin="round" stroke-miterlimit="10" d="
		M117.2,89.914c0-11.7,0-23.3,0-35c0-23,13.4-40.2,34.6-44.5c3.6-0.7,7.3-0.8,10.9-0.8c62.3,0,124.7-0.1,187,0c26.8,0,45,18,45,44.8
		c0,87.2,0,174.3,0,261.5"/>
	
		<path id="svg_3" fill="#FCFCFC" stroke="#2193A8" stroke-width="20" stroke-linecap="round" stroke-linejoin="round" stroke-miterlimit="10" d="
		M394.8,337c0,0.3,0,0,0,0.3"/>
	
		<path id="svg_4" fill="none" stroke="#2193A8" stroke-width="20" stroke-linecap="round" stroke-linejoin="round" stroke-miterlimit="10" d="
		M394.8,356.3c0,33.4,0,66.8,0,100.104c0,26.694-18.2,44.694-45,44.8c-62.5,0-125,0-187.5,0c-27.1,0-45-18.104-45-45.2
		c0-66.7,0-133.3,0-200c0-40,0-99,0-139"/>
	<path id="svg_5" fill="none" stroke="#2193A8" stroke-width="20" stroke-miterlimit="10" d="M256.1,426.8
		c11.9,0.104,21.1,9.4,21.1,21.4c-0.101,11.896-9.5,21.1-21.4,21.1c-11.9-0.1-21.1-9.396-21.1-21.396
		C234.8,435.9,244.2,426.7,256.1,426.8z"/>
	<path id="svg_6" fill="#FCFCFC" stroke="#2193A8" stroke-width="20" d="M286.7,58.1h-61.5c-2.8,0-5.1-2.3-5.1-5.1l0,0
		c0-2.8,2.3-5.1,5.1-5.1h61.5c2.8,0,5.1,2.3,5.1,5.1l0,0C291.8,55.8,289.5,58.1,286.7,58.1z"/>
</g>
</svg>
