<?xml version="1.0" encoding="utf-8"?>
<!-- Generator: Adobe Illustrator 13.0.0, SVG Export Plug-In . SVG Version: 6.00 Build 14948)  -->
<!DOCTYPE svg PUBLIC "-//W3C//DTD SVG 1.1//EN" "http://www.w3.org/Graphics/SVG/1.1/DTD/svg11.dtd">
<svg version="1.1" id="Layer_1" xmlns="http://www.w3.org/2000/svg" xmlns:xlink="http://www.w3.org/1999/xlink" x="0px" y="0px"
	 width="300px" height="300px" viewBox="0 0 300 300" enable-background="new 0 0 300 300" xml:space="preserve">
<g>
	<linearGradient id="SVGID_1_" gradientUnits="userSpaceOnUse" x1="20.7529" y1="158.6953" x2="89.4267" y2="158.6953">
		<stop  offset="0" style="stop-color:#F5A9CA"/>
		<stop  offset="0.32" style="stop-color:#EB008B"/>
		<stop  offset="0.67" style="stop-color:#00ADEE"/>
		<stop  offset="1" style="stop-color:#2E3191"/>
	</linearGradient>
	<path fill-rule="evenodd" clip-rule="evenodd" fill="url(#SVGID_1_)" d="M95.962,134.644L61.18,183.521
		c-2.588,3.633-4.283,5.775-6.094,5.775c-1.752,0-3.448-2.123-6.008-5.775l-34.204-48.767c3.434-6.94,8.778-8.001,15.356-5.275
		l25.105,39.28l25.351-39.28C87.925,128.191,93.806,128.804,95.962,134.644z"/>
	<radialGradient id="SVGID_2_" cx="92.0659" cy="123.7422" r="20.0091" gradientUnits="userSpaceOnUse">
		<stop  offset="0" style="stop-color:#6CCADB"/>
		<stop  offset="0.8" style="stop-color:#2B4EA1"/>
		<stop  offset="1" style="stop-color:#0F0B42"/>
	</radialGradient>
	<path fill-rule="evenodd" clip-rule="evenodd" fill="url(#SVGID_2_)" d="M57,145.538c16.257-1.814,23.048-47.982,38.963-10.894
		C87.654,118.467,78.245,154.532,57,145.538z"/>
	<g>
		
			<path fill-rule="evenodd" clip-rule="evenodd" fill="none" stroke="#FFFFFF" stroke-width="0.0958" stroke-miterlimit="2.6131" d="
			M57.409,142.823c-0.072-0.083-0.08-0.078-0.144-0.114c-0.379-0.434-2.336-1.65-1.924-2.505c0.149-0.304,0.735-0.923,1.36-0.29
			c1.62,1.64,2.38,1.67,3.884,2.574c0.938,0.567,1.623,1.726,1.656,3.111c0.058,2.599-3.224,3.16-5.688,4.225
			c-0.312,0.133-2.56,1.153-2.795,1.145c-0.249-0.011-0.498-0.302-0.564-0.68c-0.127-0.686,0.728-0.835,1.338-1.101l1.394-0.597
			c0.293-0.122,0.285-0.078,0.448-0.305l-4.098,1.618c-0.475,0.183-0.769,0.002-0.929-0.536c-0.155-0.531,0.044-0.755,0.536-0.945
			c0.437-0.169,3.716-1.391,3.99-1.629c-0.191-0.005-2.395,0.841-2.779,0.979c-0.475,0.172-0.945,0.34-1.418,0.514
			c-0.54,0.199-0.815,0.213-1.032-0.381c-0.359-1.009,0.65-1.1,1.911-1.56c0.335-0.122,2.536-0.83,2.801-1.078
			c-0.215,0-1.659,0.525-1.996,0.639c-0.332,0.114-0.669,0.218-1,0.329c-0.368,0.125-0.664,0.293-0.918,0.089
			c-0.221-0.185-0.357-0.569-0.332-0.89c0.031-0.365,0.196-0.459,0.614-0.597C53.69,144.199,55.471,143.542,57.409,142.823z"/>
		<radialGradient id="SVGID_3_" cx="63.7598" cy="140.2061" r="9.7214" gradientUnits="userSpaceOnUse">
			<stop  offset="0" style="stop-color:#FFFFFF"/>
			<stop  offset="0.12" style="stop-color:#F9C8CA"/>
			<stop  offset="0.46" style="stop-color:#EB008B"/>
			<stop  offset="1" style="stop-color:#B84C9B"/>
		</radialGradient>
		<path fill-rule="evenodd" clip-rule="evenodd" fill="url(#SVGID_3_)" d="M57.409,142.823c-0.072-0.083-0.08-0.078-0.144-0.114
			c-0.379-0.434-2.336-1.65-1.924-2.505c0.149-0.304,0.735-0.923,1.36-0.29c1.62,1.64,2.38,1.67,3.884,2.574
			c0.938,0.567,1.623,1.726,1.656,3.111c0.058,2.599-3.224,3.16-5.688,4.225c-0.312,0.133-2.56,1.153-2.795,1.145
			c-0.249-0.011-0.498-0.302-0.564-0.68c-0.127-0.686,0.728-0.835,1.338-1.101l1.394-0.597c0.293-0.122,0.285-0.078,0.448-0.305
			l-4.098,1.618c-0.475,0.183-0.769,0.002-0.929-0.536c-0.155-0.531,0.044-0.755,0.536-0.945c0.437-0.169,3.716-1.391,3.99-1.629
			c-0.191-0.005-2.395,0.841-2.779,0.979c-0.475,0.172-0.945,0.34-1.418,0.514c-0.54,0.199-0.815,0.213-1.032-0.381
			c-0.359-1.009,0.65-1.1,1.911-1.56c0.335-0.122,2.536-0.83,2.801-1.078c-0.215,0-1.659,0.525-1.996,0.639
			c-0.332,0.114-0.669,0.218-1,0.329c-0.368,0.125-0.664,0.293-0.918,0.089c-0.221-0.185-0.357-0.569-0.332-0.89
			c0.031-0.365,0.196-0.459,0.614-0.597C53.69,144.199,55.471,143.542,57.409,142.823z"/>
	</g>
	<radialGradient id="SVGID_4_" cx="18.3813" cy="122.248" r="37.4008" gradientUnits="userSpaceOnUse">
		<stop  offset="0" style="stop-color:#FFFFFF"/>
		<stop  offset="0.29" style="stop-color:#EB008B"/>
		<stop  offset="0.55" style="stop-color:#EB008B"/>
		<stop  offset="1" style="stop-color:#B84C9B"/>
	</radialGradient>
	<path fill-rule="evenodd" clip-rule="evenodd" fill="url(#SVGID_4_)" d="M53.842,145.648c-16.263-1.813-23.05-47.984-38.968-10.894
		C23.185,118.577,32.594,154.643,53.842,145.648z"/>
	<g>
		
			<path fill-rule="evenodd" clip-rule="evenodd" fill="none" stroke="#FFFFFF" stroke-width="0.0958" stroke-miterlimit="2.6131" d="
			M52.36,142.95c0.072-0.089,0.08-0.081,0.144-0.117c0.378-0.436,2.336-1.652,1.924-2.505c-0.146-0.304-0.735-0.923-1.36-0.29
			c-1.62,1.64-2.38,1.67-3.884,2.575c-0.94,0.564-1.623,1.725-1.656,3.107c-0.059,2.602,3.224,3.164,5.685,4.228
			c0.313,0.133,2.563,1.153,2.798,1.142c0.249-0.012,0.498-0.299,0.564-0.675c0.127-0.691-0.73-0.84-1.338-1.103l-1.394-0.6
			c-0.295-0.116-0.284-0.075-0.45-0.298l4.1,1.615c0.476,0.182,0.769,0,0.929-0.537c0.155-0.531-0.047-0.757-0.536-0.945
			c-0.437-0.171-3.716-1.394-3.99-1.631c0.191-0.005,2.392,0.84,2.779,0.979c0.473,0.171,0.946,0.343,1.418,0.514
			c0.539,0.199,0.815,0.215,1.028-0.376c0.362-1.013-0.647-1.106-1.911-1.563c-0.332-0.122-2.532-0.83-2.798-1.081
			c0.215,0.005,1.659,0.53,1.994,0.641c0.334,0.111,0.669,0.218,1.003,0.332c0.365,0.122,0.664,0.293,0.918,0.083
			c0.221-0.183,0.357-0.57,0.332-0.885c-0.031-0.37-0.199-0.465-0.617-0.597C56.076,144.323,54.296,143.669,52.36,142.95z"/>
		<radialGradient id="SVGID_5_" cx="47.5264" cy="143.5015" r="11.7407" gradientUnits="userSpaceOnUse">
			<stop  offset="0" style="stop-color:#6CCADB"/>
			<stop  offset="0.8" style="stop-color:#2B4EA1"/>
			<stop  offset="1" style="stop-color:#0F0B42"/>
		</radialGradient>
		<path fill-rule="evenodd" clip-rule="evenodd" fill="url(#SVGID_5_)" d="M52.36,142.95c0.072-0.089,0.08-0.081,0.144-0.117
			c0.378-0.436,2.336-1.652,1.924-2.505c-0.146-0.304-0.735-0.923-1.36-0.29c-1.62,1.64-2.38,1.67-3.884,2.575
			c-0.94,0.564-1.623,1.725-1.656,3.107c-0.059,2.602,3.224,3.164,5.685,4.228c0.313,0.133,2.563,1.153,2.798,1.142
			c0.249-0.012,0.498-0.299,0.564-0.675c0.127-0.691-0.73-0.84-1.338-1.103l-1.394-0.6c-0.295-0.116-0.284-0.075-0.45-0.298
			l4.1,1.615c0.476,0.182,0.769,0,0.929-0.537c0.155-0.531-0.047-0.757-0.536-0.945c-0.437-0.171-3.716-1.394-3.99-1.631
			c0.191-0.005,2.392,0.84,2.779,0.979c0.473,0.171,0.946,0.343,1.418,0.514c0.539,0.199,0.815,0.215,1.028-0.376
			c0.362-1.013-0.647-1.106-1.911-1.563c-0.332-0.122-2.532-0.83-2.798-1.081c0.215,0.005,1.659,0.53,1.994,0.641
			c0.334,0.111,0.669,0.218,1.003,0.332c0.365,0.122,0.664,0.293,0.918,0.083c0.221-0.183,0.357-0.57,0.332-0.885
			c-0.031-0.37-0.199-0.465-0.617-0.597C56.076,144.323,54.296,143.669,52.36,142.95z"/>
	</g>
	<linearGradient id="SVGID_6_" gradientUnits="userSpaceOnUse" x1="188.6016" y1="179.3008" x2="188.6016" y2="161.2888">
		<stop  offset="0" style="stop-color:#2E3191"/>
		<stop  offset="0.5" style="stop-color:#00ADEE"/>
		<stop  offset="1" style="stop-color:#2E3191"/>
	</linearGradient>
	<path fill-rule="evenodd" clip-rule="evenodd" fill="url(#SVGID_6_)" d="M88.08,190.838v-44.836h13.13v44.836H88.08L88.08,190.838z
		 M107.091,190.838V152.6c0-1.49,0.317-2.793,0.959-3.899c0.644-1.123,1.496-1.975,2.555-2.571c1.059-0.586,2.207-0.885,3.445-0.885
		c1.538,0,2.97,0.438,4.297,1.3c1.316,0.865,2.367,2.135,3.13,3.808l6.951,14.518v-18.867h12.89v37.735
		c0,1.717-0.304,3.177-0.918,4.394c-0.616,1.203-1.449,2.109-2.488,2.707c-1.048,0.597-2.188,0.896-3.423,0.896
		c-1.565,0-3.08-0.481-4.538-1.449c-1.455-0.962-2.535-2.272-3.246-3.923l-6.782-14.265v18.741H107.091L107.091,190.838z
		 M152.891,190.838h15.973v-49.287h69.321v-6.105l-138.299,0.136v5.969h53.005V190.838L152.891,190.838z M206.897,190.838h-6.713
		c-3.257,0-6.199-0.639-8.804-1.919c-2.613-1.277-4.802-3.017-6.571-5.212c-1.765-2.188-3.111-4.692-4.032-7.484
		c-0.92-2.805-1.376-5.671-1.376-8.602c0.03-2.771,0.524-5.458,1.507-8.071c0.971-2.609,2.363-4.933,4.186-6.971
		c1.822-2.048,4.012-3.646,6.566-4.818c2.544-1.173,5.356-1.759,8.405-1.759h6.832v11.961h-4.625c-2.099,0-3.88,0.373-5.345,1.12
		c-1.466,0.754-2.556,2.076-3.268,3.986h13.237v10.744H193.66c0.375,1.27,1.255,2.442,2.631,3.518
		c1.389,1.078,3.18,1.609,5.39,1.609h5.217V190.838L206.897,190.838z M237.978,190.838h-6.229c-4.347,0-8.079-1.046-11.198-3.136
		c-3.131-2.099-5.478-4.839-7.051-8.24c-1.573-3.389-2.386-7.014-2.436-10.882c0.05-3.912,0.87-7.59,2.475-11.043
		c1.614-3.456,3.992-6.237,7.13-8.358c3.149-2.121,6.921-3.177,11.307-3.177h6.002v12.857h-4.161c-1.969,0-3.66,0.447-5.079,1.344
		c-1.416,0.893-2.494,2.064-3.245,3.527c-0.744,1.46-1.14,3.024-1.189,4.712c0.05,1.672,0.445,3.24,1.208,4.688
		c0.752,1.44,1.872,2.613,3.346,3.509c1.484,0.893,3.257,1.341,5.317,1.341l3.804,0.13V190.838L237.978,190.838z M244.364,190.838
		v-62.216h18.135v21.655h8.408v-21.655h18.218v62.216h-18.218v-24.423h-8.408v24.423H244.364z"/>
</g>
</svg>
