<?xml version="1.0" encoding="utf-8"?>
<!-- Generator: Adobe Illustrator 16.0.0, SVG Export Plug-In . SVG Version: 6.00 Build 0)  -->
<!DOCTYPE svg PUBLIC "-//W3C//DTD SVG 1.1//EN" "http://www.w3.org/Graphics/SVG/1.1/DTD/svg11.dtd">
<svg version="1.1" id="Layer_1" xmlns="http://www.w3.org/2000/svg" xmlns:xlink="http://www.w3.org/1999/xlink" x="0px" y="0px"
	 width="300px" height="300px" viewBox="0 0 300 300" enable-background="new 0 0 300 300" xml:space="preserve">
<g>
	<g>
		<path fill="#FF3F68" stroke="#FF3F68" stroke-miterlimit="10" d="M290.117,162.343l-25.799-74.635
			c-1.145-3.306-4.262-5.529-7.76-5.529c-0.912,0-1.813,0.152-2.713,0.463l-20.688,7.535c-2.073,0.716-3.744,2.196-4.703,4.168
			c-0.959,1.973-1.093,4.201-0.374,6.273l0.215,0.625l-8.479,2.99c-5.953-3.485-34.002-19.59-42.893-18.845
			c-5.293,0.441-10.615,6.023-16.197,12.381c-20.124-16.634-31.146-10.124-38.495-5.783c-0.376,0.223-0.741,0.44-1.099,0.646
			c-7.675,4.442-30.38,15.046-37.724,14.567c-1.454-0.096-3.8-0.801-6.644-1.875l0.891-2.152c0.837-2.026,0.837-4.258-0.004-6.284
			c-0.84-2.025-2.419-3.604-4.414-4.428l-20.266-8.778c-1.003-0.414-2.058-0.625-3.136-0.625c-3.334,0-6.314,1.991-7.59,5.074
			l-30.19,72.967c-1.729,4.184,0.266,8.995,4.417,10.715l20.267,8.775c1.003,0.415,2.057,0.626,3.136,0.626l0,0
			c3.335,0,6.314-1.991,7.589-5.073l2.803-6.774l8.319,3.7c-1.1,1.748-1.774,3.679-1.813,5.685
			c-0.065,3.334,1.038,6.329,3.103,8.437c1.876,1.914,4.464,2.967,7.287,2.967h0.002c0.304,0,0.631-0.016,0.97-0.043
			c-1.15,1.759-1.923,3.588-2.145,5.354c-0.388,3.087,0.445,5.974,2.344,8.129c2.141,2.427,5.421,3.765,9.238,3.765h0.001
			c1.021,0,2.066-0.104,3.121-0.295c-0.829,1.438-1.384,2.916-1.567,4.363c-0.387,3.08,0.481,6,2.442,8.225
			c2.271,2.574,5.881,4.051,9.904,4.051c1.166,0,2.566-0.124,4.136-0.479c-0.722,1.438-1.218,2.959-1.413,4.495
			c-0.514,4.099,0.456,7.886,2.663,10.388c1.784,2.021,4.22,3.092,7.046,3.092h0.001c3.201,0,6.692-1.354,10.393-4.026
			c4.742,4.963,9.503,7.468,14.226,7.468c0.965,0,1.928-0.104,2.889-0.313c5.215-1.136,8.961-4.101,10.753-5.793
			c2.875,1.542,9.57,4.271,16.713,1.126c5.721-2.518,8.379-6.563,9.587-9.377c2.688,1.775,7.535,3.705,14.712,1.912
			c7.081-1.771,10.215-5.743,11.59-8.662c2.244,1.874,5.869,4.133,10.166,4.105c4.174-0.051,7.99-2.246,11.344-6.529
			c2.13-2.721,2.805-6.635,2.014-11.805c17.27-10.934,23.59-27.798,24.973-32.131l10.032-3.594l0.579,1.675
			c1.145,3.308,4.262,5.53,7.76,5.53c0.913,0,1.813-0.151,2.713-0.465l20.69-7.532C289.316,171.307,291.598,166.621,290.117,162.343
			 M283.718,169.061l-20.69,7.533c-0.451,0.157-0.92,0.235-1.391,0.235c-1.814,0-3.431-1.151-4.023-2.867l-25.797-74.635
			c-0.373-1.074-0.305-2.23,0.193-3.253c0.498-1.022,1.363-1.789,2.469-2.171l20.689-7.535c0.452-0.156,0.92-0.236,1.393-0.236
			c1.813,0,3.431,1.153,4.023,2.87l25.799,74.632C287.146,165.854,285.966,168.283,283.718,169.061 M39.876,177.261
			c-0.557,0-1.104-0.11-1.595-0.313l-20.264-8.775c-2.17-0.899-3.205-3.394-2.308-5.563l30.19-72.965
			c0.662-1.599,2.207-2.633,3.937-2.633c0.556,0,1.103,0.11,1.595,0.313L71.697,96.1c1.051,0.434,1.869,1.252,2.304,2.302
			c0.437,1.051,0.438,2.207,0.002,3.258l-30.191,72.968C43.151,176.229,41.606,177.261,39.876,177.261 M103.908,237.244
			c-1.682,0-3.055-0.592-4.081-1.755c-1.458-1.653-2.08-4.306-1.706-7.279c0.658-5.239,6.472-10.578,11.52-10.578
			c2.772,0,4.952,1.612,6.479,4.789c2.289,4.765-2.461,10.087-3.093,10.763C109.651,235.841,106.5,237.244,103.908,237.244
			L103.908,237.244z M83.051,211.921c0.677-5.396,9.54-12.026,16.071-12.026c3.139,0,5.229,1.441,6.387,4.404
			c3.031,7.758-1.485,10.326-1.989,10.583c-0.132,0.064-0.258,0.142-0.374,0.233c-3.767,2.988-7.911,4.634-11.671,4.634
			c-2.889,0-5.419-0.989-6.939-2.714C83.317,215.654,82.803,213.886,83.051,211.921 M77.574,203.402
			c-2.666,0-4.893-0.859-6.272-2.424c-1.156-1.312-1.635-3.045-1.387-5.021c0.688-5.472,9.595-12.457,15.885-12.457
			c2.919,0,4.884,1.397,6.008,4.272c3.03,7.758-1.485,10.326-1.989,10.582c-0.133,0.063-0.258,0.143-0.374,0.233
			C85.531,201.695,81.314,203.402,77.574,203.402L77.574,203.402z M67.165,186.2c-1.779-0.001-3.323-0.617-4.464-1.781
			c-1.317-1.342-2.018-3.328-1.974-5.591c0.091-4.692,6.677-10.039,12.366-10.039c2.697,0,4.651,1.193,5.811,3.549
			c1.879,3.818-0.964,7.877-1.382,8.439c-3.532,3.498-7.206,5.423-10.355,5.423H67.165L67.165,186.2z M213.169,218.668
			c-2.573,3.286-5.354,4.975-8.262,5.016c-0.038,0-0.077,0.002-0.114,0.002c-4.807-0.002-8.8-4.355-9.345-4.979l-29.867-46.943
			c-0.588-0.922-1.812-1.19-2.729-0.605c-0.922,0.587-1.191,1.808-0.605,2.729l29.523,46.4c-0.426,1.664-2.238,6.243-9.549,8.07
			c-8.549,2.138-12.676-2.142-13.16-2.688l-21.313-33.021c-0.592-0.918-1.815-1.181-2.733-0.59
			c-0.917,0.594-1.181,1.817-0.588,2.733l20.941,32.444c-0.456,1.682-2.196,6.215-8.077,8.804
			c-6.406,2.817-12.657-0.604-14.034-1.444l-15.01-22.578c-0.604-0.91-1.833-1.156-2.741-0.554c-0.909,0.604-1.156,1.832-0.552,2.74
			l14.352,21.587c-1.5,1.381-4.575,3.766-8.729,4.669c-4.234,0.918-8.742-1.11-13.433-6.036c2.015-2.641,5.227-8.128,2.541-13.715
			c-2.178-4.533-5.744-7.029-10.042-7.029c-0.019,0-0.038,0.002-0.057,0.002c1.118-2.594,1.42-6.181-0.393-10.819
			c-1.744-4.464-5.32-6.921-10.069-6.921c-0.946,0-1.915,0.104-2.891,0.287c0.81-2.498,0.863-5.782-0.742-9.893
			c-1.71-4.379-5.151-6.789-9.69-6.789c-1.077,0-2.19,0.145-3.317,0.409c1.005-2.416,1.699-5.847-0.032-9.364
			c-1.827-3.711-5.151-5.756-9.358-5.756c-4.033,0-8.6,2.001-11.876,5.071l-9.436-4.195l23.477-56.742
			c3.265,1.228,6.057,2.052,7.893,2.173c0.217,0.014,0.445,0.021,0.681,0.021c9.722,0,33.821-11.949,39.283-15.11
			c0.368-0.212,0.744-0.435,1.129-0.663c6.759-3.994,15.958-9.417,33.882,5.36c-4.362,5-8.853,10.008-13.284,12.722
			c-10.911,6.682-29.155,10.021-35.283,8.663c-3.122-0.69-6.01,1.246-7.542,5.056c-2.357,5.862-1.38,16.729,8.17,22.533
			c8.472,5.149,23.742,6.02,35.516,2.02c6.166-2.094,10.754-5.279,13.479-9.32c1.928,2.854,5.438,7.131,11.028,10.886
			c4.442,2.983,10.713,5.914,19.078,7.142c1.127,1.601,8.917,12.76,15.541,25.136C213.791,202.344,216.754,214.091,213.169,218.668
			 M240.992,173.789c-0.609,0.217-1.075,0.722-1.243,1.347c-0.051,0.189-5.147,18.444-22.335,30.024
			c-1.542-5.848-4.574-12.98-9.116-21.471c-5.092-9.51-10.854-18.303-13.86-22.73c1.068,0.057,2.155,0.098,3.281,0.098
			c5.643,0,12.026-0.756,19.205-2.589c1.057-0.271,1.695-1.349,1.426-2.405c-0.271-1.058-1.351-1.694-2.406-1.426
			c-17.273,4.417-32.264,2.863-43.348-4.488c-8.371-5.552-11.683-12.532-11.713-12.598c-0.332-0.723-1.08-1.174-1.855-1.151
			c-0.795,0.023-1.496,0.52-1.783,1.261c-2.211,5.702-8.188,8.771-12.813,10.341c-10.601,3.6-24.74,2.873-32.191-1.655
			c-7.574-4.603-8.392-13.109-6.555-17.68c0.29-0.719,1.366-3.034,3.018-2.67c7.683,1.706,26.824-2.183,38.205-9.154
			c5.24-3.208,10.232-8.939,15.059-14.482c5.432-6.233,11.045-12.678,15.288-13.031c6.149-0.525,28.104,10.945,41.349,18.774
			c0.504,0.298,1.112,0.357,1.664,0.164l9.319-3.287l22.42,64.861L240.992,173.789z"/>
		<path fill="#FF3F68" stroke="#FF3F68" stroke-miterlimit="10" d="M277.656,160.514c0.295-4.636-3.238-8.647-7.877-8.942
			c-4.674-0.304-8.648,3.271-8.942,7.876c-0.144,2.246,0.599,4.412,2.086,6.103s3.544,2.699,5.789,2.843
			c0.183,0.01,0.362,0.017,0.543,0.017C273.684,168.407,277.374,164.939,277.656,160.514 M265.891,162.938
			c-0.791-0.897-1.184-2.047-1.106-3.239c0.147-2.351,2.108-4.19,4.459-4.19c0.096,0,0.19,0.003,0.287,0.01
			c2.462,0.155,4.337,2.287,4.182,4.748c-0.155,2.444-2.245,4.349-4.749,4.18C267.771,164.369,266.68,163.833,265.891,162.938"/>
		<path fill="#FF3F68" stroke="#FF3F68" stroke-miterlimit="10" d="M41.457,159.945c-0.019-4.627-3.8-8.391-8.458-8.391
			c-4.647,0.019-8.413,3.813-8.394,8.457c0.019,4.629,3.798,8.396,8.424,8.396h0.035c2.251-0.009,4.363-0.894,5.95-2.492
			C40.597,164.318,41.465,162.199,41.457,159.945 M33.048,164.454l-0.02,1.978v-1.978c-2.455,0-4.46-1.999-4.471-4.456
			c-0.01-2.466,1.989-4.48,4.473-4.491c2.456,0,4.464,1.999,4.474,4.455c0.005,1.195-0.457,2.321-1.298,3.169
			S34.243,164.448,33.048,164.454"/>
	</g>
</g>
</svg>
