<?xml version="1.0" encoding="utf-8"?>
<!-- Generator: Adobe Illustrator 13.0.0, SVG Export Plug-In . SVG Version: 6.00 Build 14948)  -->
<!DOCTYPE svg PUBLIC "-//W3C//DTD SVG 1.1//EN" "http://www.w3.org/Graphics/SVG/1.1/DTD/svg11.dtd">
<svg version="1.1"
	 id="svg2" xmlns:sodipodi="http://sodipodi.sourceforge.net/DTD/sodipodi-0.dtd" xmlns:rdf="http://www.w3.org/1999/02/22-rdf-syntax-ns#" xmlns:dc="http://purl.org/dc/elements/1.1/" xmlns:cc="http://creativecommons.org/ns#" xmlns:inkscape="http://www.inkscape.org/namespaces/inkscape" xmlns:svg="http://www.w3.org/2000/svg"
	 xmlns="http://www.w3.org/2000/svg" xmlns:xlink="http://www.w3.org/1999/xlink" x="0px" y="0px" width="512px" height="512px"
	 viewBox="0 0 512 512" enable-background="new 0 0 512 512" xml:space="preserve">
<g id="layer1" transform="translate(0,-540.36218)">
	<path id="path3796" fill="#0966A1" d="M288.25,692.612c-0.832,1.213-1.738,1.719-2.813,2.094
		c-3.491,1.218-6.693,1.778-10.781,2.281c-6.247,0.769-12.975,2.037-19.125,3.375c-7.867,1.711-15.588,4.027-23.25,6.5
		c-6.941,2.24-13.797,4.76-20.531,7.563c-6.406,2.666-12.693,5.662-18.875,8.813c-5.266,2.684-10.428,5.561-15.5,8.594
		c-5.206,3.113-10.319,6.4-15.313,9.844c-5.717,3.942-11.243,8.113-16.75,12.344c-3.192,2.453-6.413,4.905-9.438,7.563
		c-2.041,1.794-1.845,2.079-4.5,3.875c-2.035,1.376-4.521,1.18-6.813,0.094s-6.094-3.344-6.094-3.344s4.564-3.412,8.156-5.906
		c-0.065,0.011-0.158,0.054-0.219,0.063c-2.283,0.315-5.221-0.536-7.5-0.875c-1.384-0.206-2.822-0.266-4.219-0.188
		c-3.039,0.169-6.015,0.876-9,1.469c-14.71,2.918-29.413,6.06-43.813,10.25c-10.374,3.019-20.642,6.481-30.594,10.688
		c-3.31,1.398-6.664,2.809-9.625,4.844c-2.73,1.876-5.281,4.095-7.344,6.688c-1.947,2.448-3.292,5.357-4.625,8.188
		c-1.245,2.641-2.548,5.295-3.125,8.156c-0.898,4.453-0.465,9.082-0.438,13.625c0.029,4.895,0.176,9.816,0.656,14.688
		c0.493,4.995,1.219,9.329,1.438,14.344c0.046,1.049,0.028,2.763-0.406,3.719c-0.327,0.72-0.396,0.868-0.625,1.625
		c-0.207,0.682,0.126,1.438,0.406,2.094c0.67,1.568,1.731,2.981,2.938,4.188c0.603,0.604,1.474,0.883,2.094,1.469
		c0.903,0.855,1.428,2.063,2.313,2.938c1.878,1.856,3.938,3.596,6.281,4.813c3.314,1.721,7.045,2.554,10.688,3.375
		c3.923,0.885,7.961,1.326,11.969,1.656c2.786,0.229,5.151,0.529,8.375,0.219c2.306-0.043,1.939-0.023,4.031-0.063
		c-1.708-4.896-2.656-10.178-2.656-15.656c0-26.207,21.262-47.438,47.469-47.438s47.438,21.23,47.438,47.438
		c0,4.827-0.723,9.486-2.063,13.875c1.499-0.025,1.209-0.004,2.813-0.031c104.131-1.268,157.896-3.014,236.844-4.188
		c1.388-0.021,2.726-0.065,4.094-0.094c-0.811-3.476-1.25-7.09-1.25-10.813c0-26.207,21.23-47.438,47.438-47.438
		s47.469,21.23,47.469,47.438c0,1.638-0.088,3.248-0.25,4.844c1.43-0.246,2.809-0.685,4.125-1.281
		c2.753-1.248,5.225-3.115,7.563-5.031c2.521-2.067,4.804-4.414,6.906-6.906c1.325-1.57,3.02-3.05,3.563-5.031
		c0.686-2.501-0.49-1.931-0.625-7.781c-0.212-9.222,0.009-18.454-0.625-27.656c-0.251-3.648-0.323-7.803-1.25-10.906
		c-0.325-1.09-1.367-2.156-2.094-3.031c-0.669-0.807-1.983-0.958-2.094-2c-0.419-3.963-0.463-8.104-0.656-12.156
		c-0.125-2.615,0.025-5.238-0.188-7.844c-0.025,0.175-0.072,0.36-0.125,0.531c-0.266,0.854-1.238,1.303-1.656,2.094
		c-0.444,0.84-0.685,1.782-0.844,2.719c-0.31,1.826-0.301,3.712-0.219,5.563c0.086,1.935,0.6,3.819,0.75,5.75
		c0.095,1.22,0.591,2.57,0.094,3.688c-0.373,0.838-1.246,1.432-2.094,1.781c-1.652,0.682-3.57,0.629-5.344,0.406
		c-1.83-0.229-3.667-0.833-5.25-1.781c-3.117-1.866-5.415-4.854-7.969-7.438c-4.189-4.238-8.435-8.468-12.031-13.219
		c-0.919-1.213-2.146-2.375-2.406-3.875c-0.226-1.303,0.048-2.796,0.813-3.875c1.47-2.072,4.209-2.871,6.5-3.969
		c2.71-1.299,5.567-2.406,8.5-3.063c2.123-0.475,4.324-0.61,6.5-0.625c2.104-0.014,4.259-0.045,6.281,0.531
		c1.848,0.526,3.764,1.269,5.125,2.625c0.181,0.18,0.353,0.387,0.5,0.594c-1.344-3.192-3.358-6.003-5.344-8.844
		c-0.385-0.141-4.759-1.764-7.188-2.344c-1.754-0.419-5.031-0.406-5.031-0.406s-4.24-6.146-6.594-9.031
		c-2.86-3.507-5.884-6.873-9.125-10.031c-3.53-3.439-7.274-6.7-11.219-9.656c-3.9-2.923-12.25-7.969-12.25-7.969l6.875-3.406
		c-1.022-1.131,0.384-4.063-0.688-5.375c-0.813-0.995-2.172-0.995-3.875-1.031c-4.61-0.099-8.93-0.349-13.531-0.656
		c-5.896-0.395-11.734-1.321-17.594-2.094c-5.809-0.766-11.582-1.892-17.406-2.531c-12.048-1.322-24.144-2.137-36.25-2.719
		c-13.262-0.638-26.574-0.424-39.844-0.844c-4.962-0.157-9.917-0.365-14.875-0.625C297.033,693.226,292.657,692.507,288.25,692.612z
		 M322.813,704.456c0,0,9.711,0.014,14.563,0.219c6.997,0.295,13.993,0.849,20.969,1.469c7.139,0.635,14.279,1.304,21.375,2.313
		c5.162,0.734,10.536,1.649,15.406,2.719c1.167,0.256,2.799,0.993,2.844,2.188c0.275,7.346,0.32,14.338,0.406,21.5
		c0.092,7.649,0.094,22.938,0.094,22.938s-25.917,0.207-38.875,0.438c-14.079,0.25-42.219,1.031-42.219,1.031L322.813,704.456z
		 M299.969,704.581c0,0-3.334,18.496-5.438,27.656c-2.215,9.645-7.563,28.719-7.563,28.719s-15.506,0.663-23.25,1.25
		c-14.349,1.087-28.671,2.562-42.969,4.188c-5.39,0.613-15.313,1.375-15.313,1.375s0.05-3.933-0.5-5.781
		c-0.553-1.857-2.719-5.125-2.719-5.125l8.25-33.219c0,0,9.283-4.035,14.063-5.656c7.416-2.516,15.006-4.471,22.625-6.281
		c7.691-1.828,15.463-3.453,23.281-4.625c6.111-0.916,12.277-1.386,18.438-1.875C292.572,704.913,299.969,704.581,299.969,704.581z
		 M410.531,715.144c0,0,6.792,1.645,10.063,2.844c4.579,1.678,9.104,3.599,13.313,6.063c5.264,3.082,10.196,6.791,14.781,10.813
		c3.12,2.737,6.393,5.481,8.594,9c1.947,3.112,0.95,2.972-1.906,4.313c-5.946,2.791-12.568,3.867-18.969,5.344
		c-6.122,1.413-18.531,3.344-18.531,3.344L410.531,715.144z M205.656,725.737c-2.221,9.085-5.416,18.888-7.656,27.969
		c0,0-3.456-0.795-5.125-0.625c-1.433,0.146-4.058,1.004-5.969,2c-1.667,0.869-3.672,2.151-5.125,3.344
		c-1.566,1.286-3.362,3.579-4.094,5.469c-1.062,2.743,0,7.938,0,7.938s-4.149,0.376-6.813,0.656
		c-2.648,0.278-7.969,0.625-7.969,0.625s2.583-10.739,4.406-15.938c1.232-3.515,4.406-10.281,4.406-10.281s3.894-3.794,6.063-5.438
		c4.156-3.148,8.681-5.809,13.219-8.375C195.759,730.39,205.656,725.737,205.656,725.737z M70.281,775.8
		c0.742-0.019,1.461,0.065,2.094,0.438c0.62,0.365,1.088,1.189,1.031,1.906c-0.099,1.24-1.438,2.053-2.313,2.938
		c-2.899,2.933-6.396,5.185-9.625,7.75c-4.52,3.59-8.847,7.449-13.625,10.688c-2.073,1.405-4.169,2.835-6.5,3.75
		c-2.067,0.812-4.303,1.148-6.5,1.469c-4.088,0.597-8.213,0.9-12.344,0.844c-1.474-0.02-3.165,0.388-4.406-0.406
		c-0.818-0.522-0.851-1.783-1.469-2.531c-0.945-1.146-2.174-2.063-3.375-2.938c-0.659-0.479-1.953-0.447-2.094-1.25
		c-0.419-2.396,2.955-3.887,4.625-5.656c1.561-1.654,2.912-3.77,5.031-4.594c0.977-0.38,2.105,0.241,3.125,0
		c2.584-0.61,4.682-2.522,7.125-3.563c3.07-1.308,6.269-2.33,9.438-3.375c3.19-1.052,6.386-2.171,9.656-2.938
		c2.896-0.679,5.83-1.101,8.781-1.469c2.504-0.313,5.041-0.52,7.563-0.625C67.722,776.187,69.045,775.832,70.281,775.8z
		 M436.406,815.862c-22.917,0-41.5,18.583-41.5,41.5s18.583,41.5,41.5,41.5s41.5-18.583,41.5-41.5S459.323,815.862,436.406,815.862z
		 M101.094,817.112c-22.917,0-41.5,18.583-41.5,41.5s18.583,41.5,41.5,41.5s41.469-18.583,41.469-41.5
		S124.011,817.112,101.094,817.112z M436.406,827.175c16.668,0,30.188,13.52,30.188,30.188s-13.52,30.188-30.188,30.188
		s-30.156-13.52-30.156-30.188S419.738,827.175,436.406,827.175z M101.094,828.425c16.668,0,30.156,13.52,30.156,30.188
		S117.762,888.8,101.094,888.8s-30.188-13.52-30.188-30.188S84.426,828.425,101.094,828.425z"/>
</g>
</svg>
