<?xml version="1.0" encoding="utf-8"?>
<!-- Generator: Adobe Illustrator 13.0.0, SVG Export Plug-In . SVG Version: 6.00 Build 14948)  -->
<!DOCTYPE svg PUBLIC "-//W3C//DTD SVG 1.1//EN" "http://www.w3.org/Graphics/SVG/1.1/DTD/svg11.dtd">
<svg version="1.1" id="Layer_1" xmlns="http://www.w3.org/2000/svg" xmlns:xlink="http://www.w3.org/1999/xlink" x="0px" y="0px"
	 width="300px" height="300px" viewBox="-142 -134 300 300" enable-background="new -142 -134 300 300" xml:space="preserve">
<g id="Layer_1_1_">
</g>
<g id="question_x5F_mark">
	<g>
		<path fill="#0966A1" d="M54.948,143.188c0,7.285-5.915,13.225-13.223,13.225c-7.297,0-13.225-5.939-13.225-13.225
			c0-7.335,5.927-13.223,13.225-13.223C49.033,129.965,54.948,135.853,54.948,143.188z"/>
		<path fill="#0966A1" d="M40.661,120.883c-9.638,0-18.685-3.758-25.502-10.594c-6.818-7.974-10.57-17.021-10.57-26.663
			c0-9.636,3.752-18.68,10.57-24.319l48.25-48.243c5.446-5.469,8.448-12.711,8.448-20.405c0-7.717-3.002-14.96-8.458-20.398
			c-11.242-11.248-29.55-11.27-40.79,0c-5.467,5.438-8.467,12.675-8.467,20.398h-28.857c0-15.415,6.016-29.926,16.941-40.83
			c21.787-21.813,59.769-21.792,81.587,0.026c10.899,10.871,16.903,25.361,16.903,40.804c0,15.42-6.004,29.905-16.907,40.808
			L35.548,78.528c-2.805,2.817-2.805,7.365,0,10.201c2.822,2.815,7.385,2.815,10.207,0c1.838-1.873,2.112-4.019,2.112-5.134h28.858
			c0,9.644-3.756,18.712-10.566,26.679C59.344,117.104,50.299,120.883,40.661,120.883L40.661,120.883z"/>
	</g>
</g>
</svg>
