<?xml version="1.0" encoding="utf-8"?>
<!-- Generator: Adobe Illustrator 16.0.0, SVG Export Plug-In . SVG Version: 6.00 Build 0)  -->
<!DOCTYPE svg PUBLIC "-//W3C//DTD SVG 1.1//EN" "http://www.w3.org/Graphics/SVG/1.1/DTD/svg11.dtd">
<svg version="1.1" id="Layer_1" xmlns="http://www.w3.org/2000/svg" xmlns:xlink="http://www.w3.org/1999/xlink" x="0px" y="0px"
	 width="1000px" height="1000px" viewBox="0 0 1000 1000" enable-background="new 0 0 1000 1000" xml:space="preserve">
<linearGradient id="SVGID_1_" gradientUnits="userSpaceOnUse" x1="-352.0908" y1="-1090.9004" x2="982.725" y2="-638.0549" gradientTransform="matrix(0.4902 0 0 0.4902 359.4514 614.0588)">
	<stop  offset="0" style="stop-color:#8810AC"/>
	<stop  offset="0.4" style="stop-color:#902C92;stop-opacity:0.92"/>
	<stop  offset="0.6423" style="stop-color:#A52B83;stop-opacity:0.9523"/>
	<stop  offset="1" style="stop-color:#BF296F"/>
	<stop  offset="1" style="stop-color:#EB6299;stop-opacity:0.3483"/>
	<stop  offset="1" style="stop-color:#FF7BAC;stop-opacity:0"/>
</linearGradient>
<rect x="165.196" y="52.941" fill="url(#SVGID_1_)" width="669.607" height="265.196"/>
<text transform="matrix(1 0 0 1 301.2412 141.9092)" fill="#F9F9F9" font-family="'SegoeUI'" font-size="10.2941"> </text>
<text transform="matrix(1 0 0 1 205.4365 181.6133)" fill="#F9F9F9" font-family="'SegoeUI-SemiBold'" font-size="17.6471"> </text>
<text transform="matrix(1 0 0 1 210.2886 161.6133)" fill="#F9F9F9" font-family="'SegoeUI-SemiBold'" font-size="22.0588"> DEAR AUTHOR, </text>
<text transform="matrix(1 0 0 1 205.4365 202.2012)" fill="#F9F9F9" font-family="'SegoeUI'" font-size="11.2745">   </text>
<text transform="matrix(1 0 0 1 214.7012 182.2012)" enable-background="new    "><tspan x="0" y="0" fill="#F9F9F9" font-family="'SegoeUI'" font-size="17.1569">Looking to publish your book?</tspan><tspan x="0" y="20.588" fill="#F9F9F9" font-family="'SegoeUI'" font-size="17.1569">Your search ends here.</tspan></text>
<g>
	<path fill="none" stroke="#F7F7F7" stroke-miterlimit="10" d="M727.471,273.813c-4.461,5.687-12.844,6.716-18.578,2.255
		l-30.932-24.215c-5.735-4.51-6.765-12.843-2.255-18.579l34.901-44.608c4.51-5.735,12.844-6.765,18.579-2.255l30.931,24.216
		c5.735,4.51,6.766,12.843,2.256,18.579L727.471,273.813z"/>
	
		<rect x="718.061" y="211.256" transform="matrix(-0.616 0.7877 -0.7877 -0.616 1344.448 -194.104)" fill="none" stroke="#F2F2F2" stroke-miterlimit="10" width="2.941" height="38.726"/>
	
		<rect x="724.936" y="202.322" transform="matrix(-0.6162 0.7876 -0.7876 -0.6162 1348.635 -213.7934)" fill="none" stroke="#F2F2F2" stroke-miterlimit="10" width="2.941" height="38.726"/>
	
		<rect x="730.376" y="195.368" transform="matrix(-0.6162 0.7876 -0.7876 -0.6162 1351.9513 -229.3175)" fill="none" stroke="#F2F2F2" stroke-miterlimit="10" width="2.941" height="38.726"/>
	
		<rect x="735.517" y="188.803" transform="matrix(-0.6162 0.7876 -0.7876 -0.6162 1355.0895 -243.9766)" fill="none" stroke="#F2F2F2" stroke-miterlimit="10" width="2.941" height="38.726"/>
	
		<rect x="712.322" y="218.599" transform="matrix(-0.616 0.7877 -0.7877 -0.616 1340.9578 -177.7157)" fill="none" stroke="#F2F2F2" stroke-miterlimit="10" width="2.941" height="38.727"/>
	
		<rect x="705.966" y="226.696" transform="matrix(-0.6162 0.7876 -0.7876 -0.6162 1337.1715 -159.4594)" fill="none" stroke="#F2F2F2" stroke-miterlimit="10" width="2.941" height="38.726"/>
	
		<rect x="699.598" y="234.857" transform="matrix(-0.6162 0.7876 -0.7876 -0.6162 1333.3062 -141.2545)" fill="none" stroke="#F2F2F2" stroke-miterlimit="10" width="2.941" height="38.726"/>
</g>
<g display="none">
	<rect x="165.196" display="inline" fill="#FEFDFF" width="669.607" height="52.941"/>
</g>
<text transform="matrix(1 0 0 1 457.4043 29.9473)" fill="#757575" font-family="'SegoeUI'" font-size="10.7843">Home</text>
<text transform="matrix(1 0 0 1 498.5796 29.9473)" fill="#757575" font-family="'SegoeUI'" font-size="10.7843">About Us</text>
<text transform="matrix(1 0 0 1 554.9531 29.9473)" fill="#757575" font-family="'SegoeUI'" font-size="10.7843">Process</text>
<text transform="matrix(1 0 0 1 601.5215 29.9473)" fill="#757575" font-family="'SegoeUI'" font-size="10.7843">Our Materials</text>
<text transform="matrix(1 0 0 1 677.502 29.9473)" fill="#757575" font-family="'SegoeUI'" font-size="10.7843">Enquiry Form</text>
<text transform="matrix(1 0 0 1 754.9531 29.9473)" fill="#757575" font-family="'SegoeUI'" font-size="10.7843">Contact Us</text>
<path fill="#8525AD" d="M484.804,35.784h-26.471c-0.245,0-0.49-0.196-0.49-0.49v-0.49c0-0.294,0.245-0.49,0.49-0.49h26.471
	c0.245,0,0.49,0.196,0.49,0.49v0.49C485.294,35.588,485.049,35.784,484.804,35.784z"/>
<image display="none" overflow="visible" enable-background="new    " width="7000" height="2000" xlink:href="4111BA38.png"  transform="matrix(0.0161 0 0 0.0161 179.9019 10.2939)">
</image>
<image overflow="visible" enable-background="new    " width="224" height="231" xlink:href="4111BA39.png"  transform="matrix(0.174 0 0 0.174 190.6865 5.8828)">
</image>
<g>
	<path fill="none" stroke="#F7F7F7" stroke-miterlimit="10" d="M672.265,187.088c0,0-13.627-15.932-19.167-20
		c-6.323-4.657-28.137-14.02-28.137-14.02l48.578-67.451c0,0,20.834,8.48,26.863,12.843c5.931,4.313,20.44,21.226,20.44,21.226
		L672.265,187.088z"/>
	
		<rect x="673.808" y="114.094" transform="matrix(-0.5886 0.8084 -0.8084 -0.5886 1180.6519 -333.8875)" fill="none" stroke="#F2F2F2" stroke-miterlimit="10" width="2.942" height="38.725"/>
	
		<rect x="689.694" y="123.216" transform="matrix(-0.5886 0.8084 -0.8084 -0.5886 1203.9507 -350.5375)" fill="none" stroke="#F2F2F2" stroke-miterlimit="10" width="2.942" height="15.686"/>
	
		<rect x="694.858" y="116.133" transform="matrix(-0.5884 0.8086 -0.8086 -0.5884 1206.2974 -366.1006)" fill="none" stroke="#F2F2F2" stroke-miterlimit="10" width="2.941" height="15.687"/>
	
		<rect x="699.793" y="109.344" transform="matrix(-0.5886 0.8084 -0.8084 -0.5886 1208.7802 -380.7392)" fill="none" stroke="#F2F2F2" stroke-miterlimit="10" width="2.942" height="15.687"/>
	
		<rect x="666.138" y="103.244" transform="matrix(-0.5885 0.8085 -0.8085 -0.5885 1166.8628 -370.2582)" fill="none" stroke="#F2F2F2" stroke-miterlimit="10" width="23.039" height="17.157"/>
	
		<rect x="668.353" y="121.704" transform="matrix(-0.5886 0.8084 -0.8084 -0.5886 1178.1392 -317.3872)" fill="none" stroke="#F2F2F2" stroke-miterlimit="10" width="2.942" height="38.726"/>
	
		<rect x="662.285" y="130.03" transform="matrix(-0.5884 0.8086 -0.8086 -0.5884 1175.1082 -299.392)" fill="none" stroke="#F2F2F2" stroke-miterlimit="10" width="2.941" height="38.726"/>
	
		<rect x="656.249" y="138.294" transform="matrix(-0.5886 0.8084 -0.8084 -0.5886 1172.3215 -281.246)" fill="none" stroke="#F2F2F2" stroke-miterlimit="10" width="2.942" height="38.726"/>
	<path fill="none" stroke="#F7F7F7" stroke-miterlimit="10" d="M624.765,152.726c0,0-11.961-16.765-16.912-21.814
		c-4.51-4.608-21.029-16.96-21.029-16.96l48.971-68.04c0,0,17.549,12.843,22.206,17.794c4.657,4.951,15.147,21.765,15.147,21.765
		L624.765,152.726z"/>
</g>
<g>
	<path fill="none" stroke="#F7F7F7" stroke-miterlimit="10" d="M825.539,120.98l-33.971-24.02c-1.078-0.785-1.372-2.304-0.588-3.432
		l6.372-9.02c0.784-1.078,2.305-1.373,3.432-0.588l33.971,24.02c1.078,0.784,1.373,2.304,0.588,3.431l-6.372,9.02
		C828.187,121.52,826.617,121.765,825.539,120.98z"/>
	<g>
		<path fill="none" stroke="#F7F7F7" stroke-miterlimit="10" d="M797.157,177.451L751.226,145c-2.647-1.863-3.284-5.539-1.422-8.187
			l2.794-3.97c1.863-2.647,5.539-3.285,8.187-1.422l45.932,32.451L797.157,177.451z"/>
		<line fill="none" stroke="#F7F7F7" stroke-miterlimit="10" x1="763.677" y1="139.068" x2="803.873" y2="167.549"/>
		<line fill="none" stroke="#F7F7F7" stroke-miterlimit="10" x1="761.373" y1="142.353" x2="801.568" y2="170.784"/>
		<line fill="none" stroke="#F7F7F7" stroke-miterlimit="10" x1="759.068" y1="145.588" x2="799.313" y2="174.02"/>
	</g>
	<path fill="none" stroke="#F7F7F7" stroke-miterlimit="10" d="M797.451,177.647l-45.294-32.01
		c-3.138-2.206-3.873-6.618-1.667-9.755l45.245-64.02c1.813-2.549,5.343-3.137,7.843-1.373l46.373,32.794L797.451,177.647z"/>
</g>
<path fill="none" stroke="#FCFCFC" stroke-miterlimit="10" d="M501.567,250.314c0,4.682-3.792,8.475-8.47,8.475l0,0
	c-4.68,0-8.473-3.793-8.473-8.475v-10.116c0-4.682,3.793-8.476,8.473-8.476l0,0c4.678,0,8.47,3.793,8.47,8.476V250.314z"/>
<line fill="none" stroke="#FCFCFC" stroke-miterlimit="10" x1="492.658" y1="236.784" x2="492.658" y2="241.627"/>
<path fill="none" stroke="#FCFCFC" stroke-linecap="round" stroke-linejoin="round" stroke-miterlimit="10" d="M632.912,227.377
	l4.834-5.819l-1.229-22.006l-32.848-27.29c-2.742-2.279-6.813-1.903-9.092,0.84l-43.321,52.144c-2.278,2.742-1.903,6.813,0.84,9.092
	l39.425,32.755c2.742,2.278,6.813,1.901,9.092-0.84l27.172-32.705"/>
<path fill="none" stroke="#FCFCFC" stroke-miterlimit="10" d="M636.773,199.243l-6.445,7.758c-2.279,2.742-1.902,6.813,0.84,9.092
	l6.578,5.464"/>
<g>
	<circle fill="none" stroke="#FCFCFC" stroke-miterlimit="10" cx="600.327" cy="196.929" r="7.596"/>
	<path fill="none" stroke="#FCFCFC" stroke-linecap="round" stroke-linejoin="round" stroke-miterlimit="10" d="M592.869,195.508
		l0.447-1.504l-8.485,6.001l3.466,1.29l-0.111,3.45l5.605-3.963C592.85,199.187,592.527,197.306,592.869,195.508z"/>
	<path fill="none" stroke="#FCFCFC" stroke-linecap="round" stroke-linejoin="round" stroke-miterlimit="10" d="M604.307,203.4
		l-1.213,0.602c-1.705,0.666-3.615,0.693-5.355,0.061l-2.87,6.235l3.644-0.617l1.631,3.046L604.307,203.4z"/>
</g>
<line fill="none" stroke="#FCFCFC" stroke-linecap="round" stroke-linejoin="round" stroke-miterlimit="10" x1="572.123" y1="215.3" x2="601.598" y2="239.788"/>
<line fill="none" stroke="#FCFCFC" stroke-linecap="round" stroke-linejoin="round" stroke-miterlimit="10" x1="564.896" y1="223.999" x2="581.944" y2="238.163"/>
</svg>
