<?xml version="1.0" encoding="utf-8"?>
<!-- Generator: Adobe Illustrator 16.0.0, SVG Export Plug-In . SVG Version: 6.00 Build 0)  -->
<!DOCTYPE svg PUBLIC "-//W3C//DTD SVG 1.1//EN" "http://www.w3.org/Graphics/SVG/1.1/DTD/svg11.dtd">
<svg version="1.1" id="Layer_1" xmlns="http://www.w3.org/2000/svg" xmlns:xlink="http://www.w3.org/1999/xlink" x="0px" y="0px"
	 width="300px" height="300px" viewBox="0 0 300 300" enable-background="new 0 0 300 300" xml:space="preserve">
<g id="Layer_1_2_">
	<g id="Layer_1_1_">
		<g>
			<path fill="#F987A5" stroke="#37474F" stroke-linecap="round" stroke-linejoin="round" stroke-miterlimit="10" d="M277.7,142.78
				v62.286c0,10.26-8.062,18.318-18.319,18.318h-73.277c-1.101,0-2.199,0.367-2.932,1.467l-17.953,23.814
				c-1.466,1.832-4.396,1.832-5.863,0l-17.953-23.814c-0.732-1.101-1.831-1.467-2.931-1.467H65.193
				c-10.259,0-18.319-8.061-18.319-18.318V142.78c0-10.26,8.061-18.319,18.319-18.319h194.188
				C269.641,124.461,277.7,132.521,277.7,142.78z"/>
			<path fill="#FF3F68" stroke="#37474F" stroke-linecap="round" stroke-linejoin="round" stroke-miterlimit="10" d="M277.7,128.125
				v62.286c0,10.259-8.062,18.319-18.319,18.319h-73.277c-1.101,0-2.199,0.364-2.932,1.465l-17.953,23.813
				c-1.466,1.833-4.396,1.833-5.863,0l-17.953-23.813c-0.732-1.101-1.831-1.465-2.931-1.465H65.193
				c-10.259,0-18.319-8.063-18.319-18.319v-62.286c0-10.259,8.061-18.32,18.319-18.32h194.188
				C269.641,109.805,277.7,117.866,277.7,128.125z"/>
			<path fill="none" stroke="#80DEEA" stroke-linecap="round" stroke-linejoin="round" stroke-miterlimit="10" d="M54.202,142.78
				v-14.655c0-6.229,4.763-10.992,10.991-10.992H79.85"/>
			<path fill="#FFCA28" stroke="#37474F" stroke-linecap="round" stroke-linejoin="round" stroke-miterlimit="10" d="
				M252.419,143.513l2.563,5.496c0.367,1.1,1.467,1.832,2.933,2.198l6.229,1.1c2.931,0.366,4.028,4.03,2.196,6.229l-4.764,4.763
				c-0.731,0.733-1.101,1.833-1.101,3.299l1.101,6.594c0.366,2.934-2.563,5.132-5.495,3.666l-5.13-2.933
				c-1.101-0.733-2.563-0.733-3.663,0l-5.13,2.933c-2.563,1.466-5.862-0.732-5.496-3.666l1.101-6.594c0.365-1.1,0-2.199-1.101-3.299
				l-4.765-4.763c-2.196-2.198-0.731-5.862,2.199-6.229l6.229-1.1c1.1-0.366,2.196-1.099,2.931-2.198l2.565-5.496
				C247.29,140.582,251.32,140.582,252.419,143.513z"/>
			<path fill="#F987A5" stroke="#37474F" stroke-linecap="round" stroke-linejoin="round" stroke-miterlimit="10" d="
				M209.186,143.513l2.563,5.496c0.367,1.1,1.466,1.832,2.933,2.198l6.229,1.1c2.931,0.366,4.028,4.03,2.196,6.229l-4.764,4.763
				c-0.732,0.733-1.1,1.833-1.1,3.299l1.1,6.594c0.366,2.934-2.563,5.132-5.496,3.666l-5.129-2.933c-1.1-0.733-2.563-0.733-3.664,0
				l-5.13,2.933c-2.563,1.466-5.862-0.732-5.495-3.666l1.101-6.594c0.364-1.1,0-2.199-1.101-3.299l-4.764-4.763
				c-2.198-2.198-0.732-5.862,2.198-6.229l6.229-1.1c1.101-0.366,2.198-1.1,2.933-2.198l2.563-5.496
				C203.689,140.582,207.721,140.582,209.186,143.513z"/>
			<path fill="#F987A5" stroke="#37474F" stroke-linecap="round" stroke-linejoin="round" stroke-miterlimit="10" d="
				M165.585,143.513l2.563,5.496c0.367,1.1,1.467,1.832,2.932,2.198l6.229,1.1c2.933,0.366,4.03,4.03,2.197,6.229l-4.763,4.763
				c-0.731,0.733-1.101,1.833-1.101,3.299l1.101,6.594c0.366,2.934-2.563,5.132-5.496,3.664l-5.129-2.931
				c-1.101-0.733-2.565-0.733-3.664,0l-5.13,2.931c-2.564,1.468-5.862-0.73-5.496-3.664l1.1-6.594c0.367-1.1,0-2.199-1.1-3.299
				l-4.763-4.763c-2.198-2.198-0.733-5.862,2.198-6.229l6.229-1.1c1.099-0.366,2.197-1.099,2.931-2.198l2.563-5.496
				C160.455,140.582,164.119,140.582,165.585,143.513z"/>
			<path fill="#F987A5" stroke="#37474F" stroke-linecap="round" stroke-linejoin="round" stroke-miterlimit="10" d="
				M122.351,143.513l2.565,5.496c0.366,1.1,1.465,1.832,2.931,2.198l6.229,1.1c2.932,0.366,4.03,4.03,2.198,6.229l-4.763,4.763
				c-0.733,0.733-1.1,1.833-1.1,3.299l1.1,6.594c0.366,2.933-2.565,5.132-5.496,3.664l-5.13-2.931c-1.1-0.733-2.565-0.733-3.664,0
				l-5.129,2.931c-2.565,1.468-5.862-0.731-5.496-3.664l1.1-6.594c0.366-1.101,0-2.199-1.1-3.299l-4.764-4.764
				c-2.198-2.197-0.732-5.862,2.199-6.229l6.229-1.101c1.099-0.366,2.198-1.1,2.931-2.198l2.565-5.496
				C116.854,140.582,120.885,140.582,122.351,143.513z"/>
			<path fill="#F987A5" stroke="#37474F" stroke-linecap="round" stroke-linejoin="round" stroke-miterlimit="10" d="M78.75,143.513
				l2.565,5.496c0.366,1.1,1.465,1.832,2.931,2.198l6.229,1.1c2.932,0.366,4.03,4.03,2.198,6.229l-4.763,4.763
				c-0.733,0.733-1.1,1.833-1.1,3.299l1.1,6.594c0.366,2.934-2.565,5.132-5.496,3.666l-5.13-2.933c-1.099-0.733-2.564-0.733-3.664,0
				l-5.129,2.933c-2.565,1.466-5.862-0.732-5.496-3.666l1.1-6.594c0.366-1.1,0-2.199-1.1-3.299l-4.763-4.763
				c-2.198-2.198-0.732-5.862,2.198-6.229l6.229-1.1c1.1-0.366,2.198-1.1,2.932-2.198l2.564-5.496
				C73.254,140.582,77.284,140.582,78.75,143.513z"/>
			<path fill="#FF3F68" stroke="#37474F" stroke-linecap="round" stroke-linejoin="round" stroke-miterlimit="10" d="M109.16,92.585
				L109.16,92.585c-2.198,2.198-5.496,2.198-7.693,0L86.078,77.196c-2.198-2.198-2.198-5.496,0-7.694l0,0
				c2.198-2.198,5.495-2.198,7.694,0l15.388,15.389C111.358,87.089,111.358,90.387,109.16,92.585z"/>
			<path fill="#FF3F68" stroke="#37474F" stroke-linecap="round" stroke-linejoin="round" stroke-miterlimit="10" d="
				M133.709,76.463L133.709,76.463c-2.932,1.1-5.862,0-7.328-2.931l-8.427-20.151c-1.1-2.931,0-5.862,2.931-7.328l0,0
				c2.931-1.099,5.862,0,7.328,2.932l8.427,20.151C137.739,72.066,136.273,74.998,133.709,76.463z"/>
			<path fill="#FF3F68" stroke="#37474F" stroke-linecap="round" stroke-linejoin="round" stroke-miterlimit="10" d="
				M162.287,70.602L162.287,70.602c-2.932,0-5.496-2.565-5.496-5.496V43.122c0-2.932,2.564-5.496,5.496-5.496l0,0
				c2.932,0,5.495,2.564,5.495,5.496v21.983C167.782,68.036,165.219,70.602,162.287,70.602z"/>
			<path fill="#FF3F68" stroke="#37474F" stroke-linecap="round" stroke-linejoin="round" stroke-miterlimit="10" d="
				M190.865,76.463L190.865,76.463c-2.932-1.099-4.03-4.396-2.932-7.327l8.428-20.151c1.1-2.932,4.396-4.03,7.328-2.932l0,0
				c2.931,1.1,4.028,4.397,2.931,7.328l-8.427,20.151C197.094,76.097,193.797,77.563,190.865,76.463z"/>
			<path fill="#FF3F68" stroke="#37474F" stroke-linecap="round" stroke-linejoin="round" stroke-miterlimit="10" d="
				M215.414,92.585L215.414,92.585c-2.199-2.198-2.199-5.496,0-7.694l15.388-15.389c2.198-2.198,5.496-2.198,7.694,0l0,0
				c2.197,2.198,2.197,5.496,0,7.694l-15.389,15.389C220.91,94.783,217.611,94.783,215.414,92.585z"/>
		</g>
	</g>
</g>
<g id="Layer_2">
	<path fill="#FCFCFC" stroke="#37474F" stroke-linecap="round" stroke-linejoin="round" stroke-miterlimit="10" d="M252.326,143.266
		l2.563,5.495c0.367,1.101,1.467,1.833,2.934,2.198l6.229,1.1c2.932,0.367,4.029,4.031,2.197,6.23l-4.764,4.762
		c-0.732,0.734-1.101,1.834-1.101,3.299l1.101,6.594c0.367,2.935-2.563,5.132-5.495,3.666l-5.13-2.932
		c-1.101-0.734-2.564-0.734-3.664,0l-5.129,2.932c-2.564,1.466-5.862-0.731-5.496-3.666l1.1-6.594c0.366-1.1,0-2.199-1.1-3.299
		l-4.764-4.762c-2.197-2.199-0.732-5.863,2.198-6.23l6.229-1.1c1.1-0.365,2.197-1.099,2.931-2.198l2.565-5.495
		C247.197,140.334,251.229,140.334,252.326,143.266z"/>
	<g>
		<g>
			<defs>
				<rect id="SVGID_1_" x="230.083" y="138.583" width="25.334" height="44"/>
			</defs>
			<clipPath id="SVGID_2_">
				<use xlink:href="#SVGID_1_"  overflow="visible"/>
			</clipPath>
			
				<path clip-path="url(#SVGID_2_)" fill="#FFCA28" stroke="#37474F" stroke-linecap="round" stroke-linejoin="round" stroke-miterlimit="10" d="
				M252.669,143.263l2.563,5.496c0.367,1.1,1.467,1.832,2.933,2.198l6.229,1.1c2.931,0.366,4.028,4.03,2.196,6.229l-4.764,4.763
				c-0.731,0.733-1.101,1.833-1.101,3.299l1.101,6.594c0.366,2.934-2.563,5.132-5.495,3.666l-5.13-2.933
				c-1.101-0.733-2.563-0.733-3.663,0l-5.13,2.933c-2.563,1.466-5.862-0.732-5.496-3.666l1.101-6.594c0.365-1.1,0-2.199-1.101-3.299
				l-4.765-4.763c-2.196-2.198-0.731-5.862,2.199-6.229l6.229-1.1c1.1-0.366,2.196-1.099,2.931-2.198l2.565-5.496
				C247.54,140.332,251.57,140.332,252.669,143.263z"/>
		</g>
		<g>
			<defs>
				<rect id="SVGID_3_" x="230.083" y="138.583" width="25.334" height="44"/>
			</defs>
			<clipPath id="SVGID_4_">
				<use xlink:href="#SVGID_3_"  overflow="visible"/>
			</clipPath>
			
				<path clip-path="url(#SVGID_4_)" fill="#F987A5" stroke="#37474F" stroke-linecap="round" stroke-linejoin="round" stroke-miterlimit="10" d="
				M252.669,143.263l2.563,5.496c0.367,1.1,1.467,1.832,2.933,2.198l6.229,1.1c2.931,0.366,4.028,4.03,2.196,6.229l-4.764,4.763
				c-0.731,0.733-1.101,1.833-1.101,3.299l1.101,6.594c0.366,2.934-2.563,5.132-5.495,3.666l-5.13-2.933
				c-1.101-0.733-2.563-0.733-3.663,0l-5.13,2.933c-2.563,1.466-5.862-0.732-5.496-3.666l1.101-6.594c0.365-1.1,0-2.199-1.101-3.299
				l-4.765-4.763c-2.196-2.198-0.731-5.862,2.199-6.229l6.229-1.1c1.1-0.366,2.196-1.099,2.931-2.198l2.565-5.496
				C247.54,140.332,251.57,140.332,252.669,143.263z"/>
		</g>
	</g>
</g>
</svg>
