<?xml version="1.0" encoding="utf-8"?>
<!-- Generator: Adobe Illustrator 16.0.0, SVG Export Plug-In . SVG Version: 6.00 Build 0)  -->
<!DOCTYPE svg PUBLIC "-//W3C//DTD SVG 1.1//EN" "http://www.w3.org/Graphics/SVG/1.1/DTD/svg11.dtd">
<svg version="1.1" id="Layer_1" xmlns="http://www.w3.org/2000/svg" xmlns:xlink="http://www.w3.org/1999/xlink" x="0px" y="0px"
	 width="300px" height="300px" viewBox="0 0 300 300" enable-background="new 0 0 300 300" xml:space="preserve">
<g>
	<path fill="#FF3F68" d="M243.601,94.205c0.896-3.9-1.539-7.788-5.438-8.684c-27.077-6.22-58.354-18.991-77.83-31.778
		c-2.414-1.584-5.54-1.584-7.954,0c-19.476,12.787-50.753,25.559-77.83,31.778c-3.546,0.814-5.939,4.135-5.59,7.759
		c2.656,27.474,10.773,58.866,21.711,83.977c7.148,16.412,15.579,30.637,25.058,42.279c11.118,13.658,23.76,23.845,37.569,30.276
		c0.971,0.452,2.014,0.679,3.059,0.679c1.046,0,2.091-0.227,3.06-0.679c19.147-8.918,35.86-24.888,49.674-47.467
		c10.802-17.656,19.896-39.711,26.302-63.778c1.029-3.867-1.271-7.836-5.139-8.865c-3.868-1.029-7.838,1.271-8.865,5.139
		c-7.755,29.135-26.399,80.198-65.027,100.325c-20.91-10.936-38.978-32.871-52.403-63.696c-12.98-29.799-18.041-59.109-19.866-73.36
		c25.54-6.579,52.818-17.794,72.266-29.729c21.058,12.922,51.294,25.001,78.563,31.265
		C238.817,100.54,242.705,98.105,243.601,94.205z"/>
	<path fill="#FF3F68" d="M273.127,62.489c-3.827-4.445-9.131-7.372-14.931-8.242c-16.473-2.471-35.658-8.27-54.016-16.327
		c-19.364-8.499-28.742-15.432-30.501-17.19c-9.554-9.553-25.097-9.553-34.649,0c-1.758,1.759-11.137,8.692-30.499,17.19
		c-18.359,8.058-37.543,13.856-54.018,16.327c-5.8,0.87-11.104,3.797-14.931,8.241c-3.828,4.444-5.935,10.123-5.935,15.988
		c0,18.02,4.537,60.075,21.549,103.403c9.149,23.301,20.569,43.407,33.944,59.759c7.171,8.767,15,16.547,23.271,23.125
		c3.131,2.49,7.691,1.97,10.182-1.162s1.971-7.689-1.16-10.181c-7.466-5.938-14.557-12.988-21.076-20.957
		c-12.42-15.184-23.074-33.985-31.672-55.88C52.467,135.271,48.14,95.478,48.14,78.477c0-4.994,3.584-9.157,8.523-9.897
		c17.706-2.656,38.195-8.832,57.691-17.39c20.693-9.083,31.688-16.979,34.924-20.213c1.891-1.891,4.403-2.932,7.076-2.932
		c2.676,0,5.188,1.041,7.079,2.932c3.233,3.233,14.227,11.13,34.922,20.213c19.498,8.558,39.987,14.733,57.691,17.39
		c4.939,0.74,8.523,4.903,8.523,9.897c0,17.001-4.327,56.795-20.547,98.107c-8.596,21.896-19.252,40.696-31.672,55.88
		c-15.069,18.423-32.735,31.494-52.506,38.851c-1.121,0.417-2.294,0.628-3.491,0.628c-4.001,0-7.246,3.244-7.246,7.246
		s3.245,7.246,7.246,7.246c2.927,0,5.801-0.518,8.545-1.538c22.212-8.266,41.951-22.819,58.669-43.258
		c13.375-16.352,24.795-36.457,33.944-59.759c17.012-43.328,21.551-85.384,21.551-103.403
		C279.063,72.611,276.954,66.933,273.127,62.489z"/>
	<path fill="#FF3F68" d="M226.669,111.001c-0.294,1.655-0.608,3.343-0.937,5.012c-0.771,3.928,1.788,7.735,5.717,8.505
		c0.471,0.093,0.938,0.138,1.402,0.138c3.392,0,6.424-2.397,7.103-5.854c0.344-1.755,0.674-3.527,0.982-5.269
		c0.701-3.94-1.928-7.701-5.869-8.4C231.128,104.435,227.368,107.061,226.669,111.001z"/>
	<path fill="#FF3F68" d="M141.227,266.203c-1.451-0.74-2.909-1.523-4.333-2.328c-3.482-1.97-7.902-0.743-9.873,2.739
		c-1.971,3.483-0.744,7.904,2.739,9.874c1.604,0.908,3.251,1.792,4.89,2.627c1.053,0.537,2.176,0.791,3.281,0.791
		c2.64,0,5.185-1.446,6.464-3.958C146.211,272.382,144.793,268.02,141.227,266.203z"/>
</g>
</svg>
