<?xml version="1.0" encoding="utf-8"?>
<!-- Generator: Adobe Illustrator 16.0.0, SVG Export Plug-In . SVG Version: 6.00 Build 0)  -->
<!DOCTYPE svg PUBLIC "-//W3C//DTD SVG 1.1//EN" "http://www.w3.org/Graphics/SVG/1.1/DTD/svg11.dtd">
<svg version="1.1" id="Layer_1" xmlns="http://www.w3.org/2000/svg" xmlns:xlink="http://www.w3.org/1999/xlink" x="0px" y="0px"
	 width="707.964px" height="178.492px" viewBox="0 0 707.964 178.492" enable-background="new 0 0 707.964 178.492"
	 xml:space="preserve">
<g>
	<path fill="#454545" d="M16.97,65.247v17.375h16.838V65.247h10.198v45.216H33.808V91.545H16.97v18.918H6.706V65.247H16.97z"/>
	<path fill="#454545" d="M60.244,97.314c0.335,4.226,4.495,6.238,9.258,6.238c3.488,0,6.306-0.469,9.056-1.341l1.342,6.91
		c-3.354,1.341-7.447,2.079-11.875,2.079c-11.136,0-17.509-6.508-17.509-16.771c0-8.319,5.166-17.51,16.571-17.51
		c10.599,0,14.625,8.251,14.625,16.369c0,1.744-0.201,3.287-0.335,4.025H60.244z M72.252,90.337c0-2.482-1.073-6.641-5.769-6.641
		c-4.293,0-6.038,3.891-6.306,6.641H72.252z"/>
	<path fill="#454545" d="M115.19,102.48c0,3.152,0.134,6.171,0.47,7.982h-9.191l-0.604-3.287h-0.202
		c-2.147,2.616-5.501,4.025-9.392,4.025c-6.642,0-10.6-4.831-10.6-10.063c0-8.521,7.648-12.611,19.254-12.544v-0.47
		c0-1.744-0.939-4.227-5.971-4.227c-3.354,0-6.91,1.14-9.057,2.482l-1.878-6.575c2.281-1.275,6.775-2.885,12.747-2.885
		c10.935,0,14.423,6.44,14.423,14.156V102.48z M105.262,94.966c-5.367-0.066-9.526,1.208-9.526,5.166
		c0,2.616,1.745,3.891,4.025,3.891c2.549,0,4.629-1.678,5.3-3.757c0.134-0.536,0.201-1.141,0.201-1.743V94.966z"/>
	<path fill="#454545" d="M134.111,68.735v8.922h7.313v7.514h-7.313v11.875c0,3.958,0.939,5.771,4.025,5.771
		c1.409,0,2.013-0.068,3.019-0.269l0.067,7.715c-1.341,0.536-3.756,0.938-6.641,0.938c-3.288,0-6.038-1.207-7.648-2.885
		c-1.878-1.946-2.818-5.1-2.818-9.728V85.171h-4.36v-7.514h4.36v-6.171L134.111,68.735z"/>
	<path fill="#454545" d="M171.615,109.658c-1.812,0.805-5.233,1.543-9.124,1.543c-10.6,0-17.375-6.508-17.375-16.839
		c0-9.593,6.574-17.442,18.784-17.442c2.683,0,5.635,0.47,7.782,1.275l-1.61,7.581c-1.208-0.537-3.019-1.006-5.702-1.006
		c-5.367,0-8.855,3.824-8.788,9.192c0,6.037,4.025,9.189,8.989,9.189c2.415,0,4.293-0.402,5.837-1.073L171.615,109.658z"/>
	<path fill="#454545" d="M208.917,93.691c0,12.01-8.52,17.51-17.308,17.51c-9.594,0-16.973-6.306-16.973-16.905
		c0-10.6,6.978-17.376,17.509-17.376C202.208,76.92,208.917,83.83,208.917,93.691z M185.168,94.027c0,5.636,2.348,9.861,6.708,9.861
		c3.958,0,6.507-3.958,6.507-9.861c0-4.897-1.878-9.862-6.507-9.862C186.98,84.166,185.168,89.197,185.168,94.027z"/>
	<path fill="#454545" d="M215.226,88.124c0-4.093-0.134-7.581-0.268-10.466h8.855l0.469,4.495h0.201
		c1.342-2.08,4.696-5.233,10.13-5.233c6.708,0,11.74,4.428,11.74,14.088v19.455h-10.198v-18.18c0-4.227-1.476-7.112-5.166-7.112
		c-2.817,0-4.495,1.946-5.166,3.824c-0.269,0.671-0.403,1.61-0.403,2.549v18.918h-10.197V88.124z"/>
	<path fill="#454545" d="M268.764,99.931c2.751,1.409,6.978,2.817,11.338,2.817c4.696,0,7.178-1.944,7.178-4.897
		c0-2.817-2.146-4.428-7.581-6.373c-7.514-2.616-12.411-6.775-12.411-13.35c0-7.715,6.44-13.619,17.107-13.619
		c5.099,0,8.855,1.074,11.539,2.281l-2.281,8.251c-1.812-0.872-5.032-2.146-9.459-2.146s-6.574,2.013-6.574,4.36
		c0,2.885,2.549,4.16,8.385,6.374c7.983,2.952,11.74,7.111,11.74,13.484c0,7.58-5.836,14.088-18.248,14.088
		c-5.165,0-10.264-1.409-12.813-2.818L268.764,99.931z"/>
	<path fill="#454545" d="M304.322,88.124c0-4.093-0.134-7.581-0.268-10.466h8.587l0.47,4.428h0.201
		c1.409-2.08,4.293-5.166,9.929-5.166c4.227,0,7.581,2.147,8.989,5.568h0.134c1.208-1.745,2.684-3.019,4.227-3.958
		c1.811-1.073,3.824-1.61,6.239-1.61c6.306,0,11.07,4.428,11.07,14.223v19.32h-9.929V92.617c0-4.762-1.543-7.513-4.83-7.513
		c-2.348,0-4.025,1.61-4.696,3.556c-0.268,0.738-0.402,1.812-0.402,2.616v19.187h-9.929V92.081c0-4.159-1.476-6.977-4.696-6.977
		c-2.617,0-4.16,2.013-4.764,3.69c-0.335,0.805-0.402,1.744-0.402,2.549v19.119h-9.929V88.124z"/>
	<path fill="#454545" d="M389.39,102.48c0,3.152,0.135,6.171,0.471,7.982h-9.191l-0.604-3.287h-0.2
		c-2.146,2.616-5.502,4.025-9.393,4.025c-6.642,0-10.6-4.831-10.6-10.063c0-8.521,7.647-12.611,19.254-12.544v-0.47
		c0-1.744-0.939-4.227-5.971-4.227c-3.354,0-6.91,1.14-9.057,2.482l-1.879-6.575c2.281-1.275,6.776-2.885,12.747-2.885
		c10.936,0,14.423,6.44,14.423,14.156V102.48z M379.462,94.966c-5.367-0.066-9.527,1.208-9.527,5.166
		c0,2.616,1.745,3.891,4.025,3.891c2.55,0,4.63-1.678,5.3-3.757c0.135-0.536,0.202-1.141,0.202-1.743V94.966z"/>
	<path fill="#454545" d="M397.443,88.459c0-4.83-0.134-7.983-0.268-10.801h8.788l0.336,6.038h0.269
		c1.677-4.763,5.702-6.776,8.855-6.776c0.938,0,1.408,0,2.146,0.134v9.661c-0.738-0.201-1.61-0.335-2.751-0.335
		c-3.757,0-6.306,2.012-6.977,5.166c-0.134,0.671-0.202,1.476-0.202,2.28v16.638h-10.197V88.459z"/>
	<path fill="#454545" d="M435.751,68.735v8.922h7.313v7.514h-7.313v11.875c0,3.958,0.938,5.771,4.025,5.771
		c1.408,0,2.013-0.068,3.019-0.269l0.066,7.715c-1.342,0.536-3.757,0.938-6.642,0.938c-3.287,0-6.037-1.207-7.647-2.885
		c-1.879-1.946-2.817-5.1-2.817-9.728V85.171h-4.361v-7.514h4.361v-6.171L435.751,68.735z"/>
	<path fill="#454545" d="M463.191,99.931c2.751,1.409,6.977,2.817,11.338,2.817c4.696,0,7.178-1.944,7.178-4.897
		c0-2.817-2.146-4.428-7.581-6.373c-7.513-2.616-12.41-6.775-12.41-13.35c0-7.715,6.44-13.619,17.107-13.619
		c5.098,0,8.855,1.074,11.538,2.281l-2.28,8.251c-1.813-0.872-5.032-2.146-9.46-2.146s-6.574,2.013-6.574,4.36
		c0,2.885,2.549,4.16,8.386,6.374c7.982,2.952,11.74,7.111,11.74,13.484c0,7.58-5.837,14.088-18.247,14.088
		c-5.166,0-10.266-1.409-12.814-2.818L463.191,99.931z"/>
	<path fill="#454545" d="M505.39,77.658l4.897,16.1c0.537,1.946,1.207,4.361,1.609,6.105h0.202c0.47-1.744,1.006-4.226,1.476-6.105
		l4.025-16.1h10.935l-7.647,21.602c-4.696,13.016-7.849,18.248-11.539,21.535c-3.556,3.085-7.313,4.159-9.861,4.494l-2.147-8.653
		c1.275-0.202,2.886-0.806,4.428-1.745c1.543-0.806,3.221-2.415,4.228-4.092c0.335-0.47,0.536-1.007,0.536-1.476
		c0-0.336-0.067-0.873-0.47-1.678l-12.009-29.988H505.39z"/>
	<path fill="#454545" d="M531.691,101.54c1.879,1.141,5.77,2.482,8.788,2.482c3.086,0,4.361-1.073,4.361-2.75
		s-1.007-2.481-4.83-3.758c-6.776-2.28-9.394-5.97-9.325-9.793c0-6.172,5.232-10.801,13.351-10.801c3.823,0,7.244,0.873,9.257,1.878
		l-1.811,7.044c-1.477-0.805-4.294-1.878-7.112-1.878c-2.481,0-3.891,1.006-3.891,2.684c0,1.543,1.275,2.348,5.3,3.757
		c6.239,2.146,8.856,5.3,8.923,10.131c0,6.104-4.83,10.666-14.223,10.666c-4.294,0-8.117-1.006-10.599-2.349L531.691,101.54z"/>
	<path fill="#454545" d="M572.28,68.735v8.922h7.313v7.514h-7.313v11.875c0,3.958,0.938,5.771,4.025,5.771
		c1.409,0,2.013-0.068,3.02-0.269l0.066,7.715c-1.343,0.536-3.758,0.938-6.643,0.938c-3.287,0-6.037-1.207-7.647-2.885
		c-1.878-1.946-2.816-5.1-2.816-9.728V85.171h-4.361v-7.514h4.361v-6.171L572.28,68.735z"/>
	<path fill="#454545" d="M593.011,97.314c0.335,4.226,4.494,6.238,9.258,6.238c3.488,0,6.307-0.469,9.057-1.341l1.342,6.91
		c-3.354,1.341-7.447,2.079-11.875,2.079c-11.136,0-17.509-6.508-17.509-16.771c0-8.319,5.165-17.51,16.57-17.51
		c10.6,0,14.625,8.251,14.625,16.369c0,1.744-0.201,3.287-0.336,4.025H593.011z M605.02,90.337c0-2.482-1.074-6.641-5.77-6.641
		c-4.294,0-6.038,3.891-6.307,6.641H605.02z"/>
	<path fill="#454545" d="M620.585,88.124c0-4.093-0.134-7.581-0.268-10.466h8.587l0.47,4.428h0.201
		c1.409-2.08,4.294-5.166,9.929-5.166c4.227,0,7.581,2.147,8.989,5.568h0.134c1.208-1.745,2.685-3.019,4.228-3.958
		c1.811-1.073,3.823-1.61,6.238-1.61c6.307,0,11.069,4.428,11.069,14.223v19.32h-9.929V92.617c0-4.762-1.543-7.513-4.83-7.513
		c-2.348,0-4.025,1.61-4.696,3.556c-0.268,0.738-0.401,1.812-0.401,2.616v19.187h-9.93V92.081c0-4.159-1.477-6.977-4.696-6.977
		c-2.616,0-4.159,2.013-4.763,3.69c-0.335,0.805-0.402,1.744-0.402,2.549v19.119h-9.93V88.124z"/>
	<path fill="#454545" d="M678.216,101.54c1.879,1.141,5.771,2.482,8.788,2.482c3.087,0,4.361-1.073,4.361-2.75
		s-1.007-2.481-4.83-3.758c-6.776-2.28-9.393-5.97-9.325-9.793c0-6.172,5.232-10.801,13.351-10.801c3.823,0,7.245,0.873,9.258,1.878
		l-1.812,7.044c-1.477-0.805-4.293-1.878-7.111-1.878c-2.482,0-3.892,1.006-3.892,2.684c0,1.543,1.275,2.348,5.3,3.757
		c6.239,2.146,8.856,5.3,8.923,10.131c0,6.104-4.83,10.666-14.223,10.666c-4.294,0-8.117-1.006-10.599-2.349L678.216,101.54z"/>
</g>
</svg>
