<?xml version="1.0" encoding="utf-8"?>
<!-- Generator: Adobe Illustrator 13.0.0, SVG Export Plug-In . SVG Version: 6.00 Build 14948)  -->
<!DOCTYPE svg PUBLIC "-//W3C//DTD SVG 1.1//EN" "http://www.w3.org/Graphics/SVG/1.1/DTD/svg11.dtd">
<svg version="1.1" xmlns="http://www.w3.org/2000/svg" xmlns:xlink="http://www.w3.org/1999/xlink" x="0px" y="0px" width="500px"
	 height="500px" viewBox="0 0 500 500" enable-background="new 0 0 500 500" xml:space="preserve">
<g id="Layer_2">
	<path fill="#FFFFFF" stroke="#B5B5B5" stroke-width="4" d="M403.942,397.101c0,3.501-2.839,6.34-6.34,6.34H293.791
		c-3.502,0-6.34-2.839-6.34-6.34V240.457c0-3.502,2.838-6.34,6.34-6.34h103.812c3.501,0,6.34,2.838,6.34,6.34V397.101z"/>
	<rect x="302.313" y="255.336" fill="#FFFFFF" stroke="#B5B5B5" stroke-width="4" width="16.889" height="11.26"/>
	<rect x="367.236" y="254.903" fill="#FFFFFF" stroke="#B5B5B5" stroke-width="4" width="16.89" height="11.259"/>
	<rect x="302.313" y="284.922" fill="#FFFFFF" stroke="#B5B5B5" stroke-width="4" width="16.889" height="11.26"/>
	<rect x="367.236" y="284.49" fill="#FFFFFF" stroke="#B5B5B5" stroke-width="4" width="16.89" height="11.259"/>
	<rect x="302.313" y="310.811" fill="#FFFFFF" stroke="#B5B5B5" stroke-width="4" width="16.889" height="11.259"/>
	<rect x="367.236" y="310.377" fill="#FFFFFF" stroke="#B5B5B5" stroke-width="4" width="16.89" height="11.261"/>
	<rect x="302.313" y="339.34" fill="#FFFFFF" stroke="#B5B5B5" stroke-width="4" width="16.889" height="11.26"/>
	<rect x="367.236" y="338.907" fill="#FFFFFF" stroke="#B5B5B5" stroke-width="4" width="16.89" height="11.26"/>
	<path fill="none" stroke="#B5B5B5" stroke-width="4" d="M332.488,403.346v-29.327c0-3.501,2.839-6.34,6.34-6.34h17.635
		c3.501,0,6.34,2.839,6.34,6.34v29.327"/>
</g>
<g id="Layer_1">
	<path fill="#FFFFFF" stroke="#FA684B" stroke-width="4" d="M323.942,393.024c0,6.627-5.373,12-12,12H115.451
		c-6.627,0-12-5.373-12-12V96.533c0-6.627,5.373-12,12-12h196.492c6.627,0,12,5.373,12,12V393.024z"/>
	<rect x="148.615" y="124.697" fill="#FFFFFF" stroke="#FA684B" stroke-width="4" width="31.967" height="21.312"/>
	<rect x="254.467" y="123.877" fill="#FFFFFF" stroke="#FA684B" stroke-width="4" width="31.968" height="21.312"/>
	<rect x="148.615" y="180.697" fill="#FFFFFF" stroke="#FA684B" stroke-width="4" width="31.967" height="21.312"/>
	<rect x="254.467" y="179.877" fill="#FFFFFF" stroke="#FA684B" stroke-width="4" width="31.968" height="21.312"/>
	<rect x="148.615" y="229.697" fill="#FFFFFF" stroke="#FA684B" stroke-width="4" width="31.967" height="21.311"/>
	<rect x="254.467" y="228.877" fill="#FFFFFF" stroke="#FA684B" stroke-width="4" width="31.968" height="21.313"/>
	<rect x="148.615" y="283.697" fill="#FFFFFF" stroke="#FA684B" stroke-width="4" width="31.967" height="21.311"/>
	<rect x="254.467" y="282.877" fill="#FFFFFF" stroke="#FA684B" stroke-width="4" width="31.968" height="21.313"/>
	<path fill="none" stroke="#FA684B" stroke-width="4" d="M188.696,404.845v-55.509c0-6.627,5.373-12,12-12h33.378
		c6.627,0,12,5.373,12,12v55.509"/>
</g>
</svg>
