<svg width="512" height="512" xmlns="http://www.w3.org/2000/svg">

 <g>
  <title>background</title>
  <rect fill="none" id="canvas_background" height="402" width="582" y="-1" x="-1"/>
 </g>
 <g>
  <title>Layer 1</title>
  <path stroke="#388697" id="svg_2" fill="none" d="m470.209,256c0,1.9 -0.02,3.79 -0.079,5.67c-1.421,55.101 -23.54,106.69 -62.66,145.801c-40.45,40.46 -94.25,62.74 -151.47,62.74c-57.221,0 -111.021,-22.28 -151.471,-62.74c-39.119,-39.11 -61.239,-90.701 -62.659,-145.801c-0.061,-1.88 -0.08,-3.77 -0.08,-5.67c0,-57.22 22.279,-111.01 62.739,-151.47c40.451,-40.46 94.251,-62.74 151.471,-62.74c57.22,0 111.02,22.28 151.47,62.74c40.46,40.46 62.739,94.25 62.739,151.47z"/>
  <path id="svg_5" fill="#ed6a5a" d="m407.47,104.53c-40.45,-40.46 -94.25,-62.74 -151.47,-62.74c-57.221,0 -111.021,22.28 -151.471,62.74c-40.459,40.46 -62.739,94.25 -62.739,151.47c0,1.9 0.02,3.79 0.08,5.67c1.42,55.101 23.54,106.69 62.659,145.801c40.45,40.46 94.25,62.74 151.471,62.74c57.22,0 111.02,-22.28 151.47,-62.74c39.12,-39.109 61.239,-90.7 62.66,-145.801c0.061,-1.88 0.079,-3.77 0.079,-5.67c0,-57.22 -22.279,-111.01 -62.739,-151.47zm-151.47,355.681c-94.601,0 -174.38,-64.66 -197.471,-152.11c-4.399,-16.631 -6.739,-34.101 -6.739,-52.101c0,-112.6 91.61,-204.21 204.21,-204.21c112.6,0 204.209,91.61 204.209,204.21c0,18 -2.34,35.471 -6.739,52.101c-23.09,87.45 -102.87,152.11 -197.47,152.11z"/>
  <path id="svg_8" fill="#388697" d="m190.55,179.79c-17.59,0 -31.9,14.32 -31.9,31.91s14.311,31.9 31.9,31.9s31.9,-14.311 31.9,-31.9s-14.31,-31.91 -31.9,-31.91zm0,53.81c-12.08,0 -21.9,-9.83 -21.9,-21.9c0,-12.08 9.82,-21.91 21.9,-21.91s21.9,9.83 21.9,21.91c0,12.07 -9.82,21.9 -21.9,21.9z"/>
  <path id="svg_10" fill="#388697" d="m321.449,179.79c-17.59,0 -31.899,14.32 -31.899,31.91s14.311,31.9 31.899,31.9c17.59,0 31.899,-14.311 31.899,-31.9c0.002,-17.59 -14.309,-31.91 -31.899,-31.91zm0,53.81c-12.069,0 -21.899,-9.83 -21.899,-21.9c0,-12.08 9.83,-21.91 21.899,-21.91c12.08,0 21.899,9.83 21.899,21.91c0.002,12.07 -9.818,21.9 -21.899,21.9z"/>
  <path id="svg_12" fill="#388697" d="m256,384.651c-40.753,0 -78.529,-19.065 -98.586,-49.755l8.371,-5.471c18.229,27.896 52.799,45.226 90.215,45.226s71.983,-17.329 90.215,-45.226l8.371,5.471c-20.057,30.69 -57.832,49.755 -98.586,49.755z"/>
 </g>
</svg>