<?xml version="1.0" encoding="utf-8"?>
<!-- Generator: Adobe Illustrator 13.0.0, SVG Export Plug-In . SVG Version: 6.00 Build 14948)  -->
<!DOCTYPE svg PUBLIC "-//W3C//DTD SVG 1.1//EN" "http://www.w3.org/Graphics/SVG/1.1/DTD/svg11.dtd">
<svg version="1.1" id="Layer_1" xmlns="http://www.w3.org/2000/svg" xmlns:xlink="http://www.w3.org/1999/xlink" x="0px" y="0px"
	 width="512px" height="512px" viewBox="0 0 512 512" enable-background="new 0 0 512 512" xml:space="preserve">
<g>
	<title>background</title>
	<rect id="canvas_background" x="-1" y="-1" fill="none" width="582" height="402"/>
</g>
<g>
	<title>Layer 1</title>
	<path id="svg_2" fill="none" stroke="#388697" d="M470.21,256c0,1.9-0.021,3.79-0.079,5.67
		c-1.421,55.102-23.54,106.69-62.66,145.802c-40.45,40.46-94.25,62.74-151.471,62.74s-111.021-22.28-151.471-62.74
		C65.41,368.361,43.29,316.77,41.87,261.67c-0.061-1.88-0.08-3.77-0.08-5.67c0-57.22,22.279-111.01,62.739-151.47
		C144.98,64.07,198.78,41.79,256,41.79c57.221,0,111.021,22.28,151.471,62.74C447.93,144.99,470.209,198.78,470.21,256L470.21,256z"
		/>
	<path id="svg_5" fill="#41CAB1" d="M407.47,104.53C367.02,64.07,313.22,41.79,256,41.79s-111.021,22.28-151.471,62.74
		C64.07,144.99,41.79,198.78,41.79,256c0,1.9,0.021,3.79,0.08,5.67c1.42,55.102,23.54,106.69,62.659,145.802
		c40.45,40.46,94.25,62.74,151.471,62.74s111.021-22.28,151.471-62.74c39.12-39.109,61.238-90.7,62.66-145.802
		c0.061-1.88,0.079-3.77,0.079-5.67C470.21,198.78,447.93,144.99,407.47,104.53L407.47,104.53z M256,460.212
		c-94.601,0-174.38-64.661-197.471-152.11C54.13,291.47,51.79,274,51.79,256C51.79,143.4,143.4,51.79,256,51.79
		C368.6,51.79,460.209,143.4,460.209,256c0,18-2.34,35.472-6.738,52.102C430.381,395.552,350.6,460.212,256,460.212L256,460.212z"/>
	<path id="svg_8" fill="#97EFDE" d="M190.55,179.79c-17.59,0-31.899,14.32-31.899,31.91s14.311,31.9,31.899,31.9
		c17.59,0,31.9-14.312,31.9-31.9S208.14,179.79,190.55,179.79z M190.55,233.6c-12.079,0-21.899-9.83-21.899-21.9
		c0-12.08,9.82-21.91,21.899-21.91c12.08,0,21.9,9.83,21.9,21.91C212.45,223.77,202.63,233.6,190.55,233.6z"/>
	<path id="svg_10" fill="#97EFDE" d="M321.449,179.79c-17.59,0-31.899,14.32-31.899,31.91s14.312,31.9,31.899,31.9
		c17.59,0,31.899-14.312,31.899-31.9C353.35,194.11,339.039,179.79,321.449,179.79z M321.449,233.6
		c-12.068,0-21.899-9.83-21.899-21.9c0-12.08,9.831-21.91,21.899-21.91c12.08,0,21.899,9.83,21.899,21.91
		C343.35,223.77,333.53,233.6,321.449,233.6z"/>
	<path id="svg_12" fill="#97EFDE" d="M256,384.651c-40.753,0-78.528-19.065-98.586-49.755l8.371-5.472
		c18.229,27.896,52.799,45.227,90.215,45.227s71.983-17.329,90.216-45.227l8.371,5.472C334.529,365.586,296.754,384.651,256,384.651
		z"/>
</g>
</svg>
