<?xml version="1.0" encoding="utf-8"?>
<!-- Generator: Adobe Illustrator 13.0.0, SVG Export Plug-In . SVG Version: 6.00 Build 14948)  -->
<!DOCTYPE svg PUBLIC "-//W3C//DTD SVG 1.1//EN" "http://www.w3.org/Graphics/SVG/1.1/DTD/svg11.dtd">
<svg version="1.1" id="Layer_1" xmlns="http://www.w3.org/2000/svg" xmlns:xlink="http://www.w3.org/1999/xlink" x="0px" y="0px"
	 width="512px" height="512px" viewBox="0 0 512 512" enable-background="new 0 0 512 512" xml:space="preserve">
<g>
	<title>background</title>
	<rect id="canvas_background" x="-1" y="-1" fill="none" width="582" height="402"/>
</g>
<g>
	<title>Layer 1</title>
	
		<path id="svg_2" fill="#FA684B" stroke="#919191" stroke-width="11" stroke-linecap="round" stroke-linejoin="round" stroke-miterlimit="10" d="
		M309.2,73.7c0,31.5-23.8,75.6-53.2,75.6c-29.399,0-53.2-44.1-53.2-75.6s23.801-57,53.2-57C285.4,16.7,309.2,42.2,309.2,73.7
		L309.2,73.7z"/>
	
		<path id="svg_3" fill="none" stroke="#919191" stroke-width="11" stroke-linecap="round" stroke-linejoin="round" stroke-miterlimit="10" d="
		M353.5,190c-8.899-8.399-61.7-24-61.7-24L256,206l0,0l0,0l-35.8-40c0,0-52.8,15.601-61.7,24c-13.7,13-14.8,61.9-14.8,61.9h224.7
		C368.301,251.9,367.301,203,353.5,190L353.5,190z"/>
	
		<path id="svg_4" fill="none" stroke="#919191" stroke-width="11" stroke-linecap="round" stroke-linejoin="round" stroke-miterlimit="10" d="
		M85.8,268.5h36.5c23.7,50.8,75.2,86.101,135,86.101c57.7,0,107.801-38,132.501-86.101H425.7"/>
	
		<line id="svg_5" fill="none" stroke="#919191" stroke-width="11" stroke-linecap="round" stroke-linejoin="round" stroke-miterlimit="10" x1="257.2" y1="384.7" x2="257.2" y2="354.6"/>
	
		<circle id="svg_6" fill="none" stroke="#FA684B" stroke-width="11" stroke-linecap="round" stroke-linejoin="round" stroke-miterlimit="10" cx="52.1" cy="268.5" r="33.6"/>
	
		<circle id="svg_7" fill="none" stroke="#FA684B" stroke-width="11" stroke-linecap="round" stroke-linejoin="round" stroke-miterlimit="10" cx="257.2" cy="445" r="56.5"/>
	
		<circle id="svg_8" fill="none" stroke="#FA684B" stroke-width="11" stroke-linecap="round" stroke-linejoin="round" stroke-miterlimit="10" cx="459.9" cy="268.5" r="33.6"/>
</g>
</svg>
