<svg width="512" height="512" xmlns="http://www.w3.org/2000/svg">

 <g>
  <title>background</title>
  <rect fill="none" id="canvas_background" height="402" width="582" y="-1" x="-1"/>
 </g>
 <g>
  <title>Layer 1</title>
  <path stroke-miterlimit="10" stroke-linejoin="round" stroke-linecap="round" stroke-width="11" stroke="#2c3e50" fill="#e5e3e2" id="svg_2" d="m309.2,73.7c0,31.5 -23.8,75.6 -53.2,75.6s-53.2,-44.1 -53.2,-75.6s23.8,-57 53.2,-57s53.2,25.5 53.2,57z" class="st0"/>
  <path stroke-miterlimit="10" stroke-linejoin="round" stroke-linecap="round" stroke-width="11" stroke="#2c3e50" fill="#388697" id="svg_3" d="m353.5,190c-8.9,-8.4 -61.7,-24 -61.7,-24l-35.8,40l0,0l0,0l-35.8,-40c0,0 -52.8,15.6 -61.7,24c-13.7,13 -14.8,61.9 -14.8,61.9l224.7,0c-0.1,0 -1.1,-48.9 -14.9,-61.9z" class="st1"/>
  <path stroke-miterlimit="10" stroke-linejoin="round" stroke-linecap="round" stroke-width="11" stroke="#2c3e50" fill="none" id="svg_4" d="m85.8,268.5l36.5,0c23.7,50.8 75.2,86.1 135,86.1c57.7,0 107.8,-38 132.5,-86.1l35.9,0" class="st2"/>
  <line stroke-miterlimit="10" stroke-linejoin="round" stroke-linecap="round" stroke-width="11" stroke="#2c3e50" fill="none" id="svg_5" y2="354.6" y1="384.7" x2="257.2" x1="257.2" class="st2"/>
  <circle stroke-miterlimit="10" stroke-linejoin="round" stroke-linecap="round" stroke-width="11" stroke="#2c3e50" fill="#41cab1" id="svg_6" r="33.6" cy="268.5" cx="52.1" class="st3"/>
  <circle stroke-miterlimit="10" stroke-linejoin="round" stroke-linecap="round" stroke-width="11" stroke="#2c3e50" fill="#41cab1" id="svg_7" r="56.5" cy="445" cx="257.2" class="st3"/>
  <circle stroke-miterlimit="10" stroke-linejoin="round" stroke-linecap="round" stroke-width="11" stroke="#2c3e50" fill="#41cab1" id="svg_8" r="33.6" cy="268.5" cx="459.9" class="st3"/>
 </g>
</svg>