<svg width="32" height="32" xmlns="http://www.w3.org/2000/svg">

 <g>
  <title>background</title>
  <rect fill="none" id="canvas_background" height="402" width="582" y="-1" x="-1"/>
 </g>
 <g>
  <title>Layer 1</title>
  <line stroke-miterlimit="10" stroke-linejoin="round" stroke-linecap="round" stroke-width="2" stroke="#388697" fill="none" id="svg_6" y2="8.31" y1="12.69" x2="27.5" x1="21.5" class="st0"/>
  <line stroke-miterlimit="10" stroke-linejoin="round" stroke-linecap="round" stroke-width="2" stroke="#388697" fill="none" id="svg_8" y2="10.2" y1="13.8" x2="10.4" x1="4.6" class="st0"/>
  <line stroke-miterlimit="10" stroke-linejoin="round" stroke-linecap="round" stroke-width="2" stroke="#388697" fill="none" id="svg_9" y2="12.94" y1="10.06" x2="18.3" x1="13.7" class="st0"/>
  <polyline stroke-miterlimit="10" stroke-linejoin="round" stroke-linecap="round" stroke-width="2" stroke="#388697" fill="none" id="svg_11" points="30,12 30,27 25,27 25,14    " class="st0"/>
  <polyline stroke-miterlimit="10" stroke-linejoin="round" stroke-linecap="round" stroke-width="2" stroke="#388697" fill="none" id="svg_12" points="8,15 8,27 3,27 3,20    " class="st0"/>
  <polyline stroke-miterlimit="10" stroke-linejoin="round" stroke-linecap="round" stroke-width="2" stroke="#388697" fill="none" id="svg_13" points="19,19 19,27 14,27 14,15    " class="st0"/>
  <circle stroke-miterlimit="10" stroke-linejoin="round" stroke-linecap="round" stroke-width="2" stroke="#ed6a5a" fill="none" id="svg_3" r="2" cy="7" cx="29" class="st0"/>
  <path stroke-miterlimit="10" stroke-linejoin="round" stroke-linecap="round" stroke-width="2" stroke="#ed6a5a" fill="none" id="svg_5" d="m18,14c0,-0.39001 0.10999,-0.75 0.29999,-1.06c0.35998,-0.56 0.98999,-0.94 1.70001,-0.94c0.59998,0 1.14001,0.27002 1.5,0.69c0.32001,0.35004 0.5,0.81 0.5,1.31c0,1.10004 -0.90002,2 -2,2s-2,-0.89996 -2,-2z" class="st0"/>
  <path stroke-miterlimit="10" stroke-linejoin="round" stroke-linecap="round" stroke-width="2" stroke="#ed6a5a" fill="none" id="svg_7" d="m9.932088,8.932088c0,-1.09998 0.90002,-2 2,-2s2,0.90002 2,2c0,0.39001 -0.10999,0.75 -0.29999,1.06c-0.35998,0.56 -0.98999,0.94 -1.70001,0.94c-0.65002,0 -1.22998,-0.32001 -1.59998,-0.79999c-0.25,-0.34002 -0.40002,-0.75 -0.40002,-1.20001z" class="st0"/>
  <path stroke-miterlimit="10" stroke-linejoin="round" stroke-linecap="round" stroke-width="2" stroke="#ed6a5a" fill="none" id="svg_4" d="m1,15c0,-1.09998 0.90002,-2 2,-2c0.65002,0 1.22998,0.32001 1.59998,0.79999c0.25,0.34002 0.40002,0.75 0.40002,1.20001c0,1.10004 -0.90002,2 -2,2s-2,-0.89996 -2,-2z" class="st0"/>
 </g>
</svg>