<?xml version="1.0" encoding="utf-8"?>
<!-- Generator: Adobe Illustrator 13.0.0, SVG Export Plug-In . SVG Version: 6.00 Build 14948)  -->
<!DOCTYPE svg PUBLIC "-//W3C//DTD SVG 1.1//EN" "http://www.w3.org/Graphics/SVG/1.1/DTD/svg11.dtd">
<svg version="1.1" id="Layer_1" xmlns="http://www.w3.org/2000/svg" xmlns:xlink="http://www.w3.org/1999/xlink" x="0px" y="0px"
	 width="128px" height="128px" viewBox="0 0 128 128" enable-background="new 0 0 128 128" xml:space="preserve">
<g>
	<title>background</title>
	<rect id="canvas_background" x="-1" y="-1" fill="none" width="582" height="402"/>
</g>
<g>
	<title>Layer 1</title>
	<path id="svg_1" fill="#ED6A5A" d="M64,12c-28.7,0-52,23.3-52,52s23.3,52,52,52s52-23.3,52-52S92.7,12,64,12z M64,112
		c-26.5,0-48-21.5-48-48s21.5-48,48-48s48,21.5,48,48S90.5,112,64,112z"/>
	<path id="svg_2" fill="#E9B7B1" d="M93.6,44.8c-1.1-0.3-2.199,0.4-2.397,1.5L90,51.1C85.2,41.3,75.2,35,64,35c-16,0-29,13-29,29
		s13,29,29,29c13.2,0,24.8-8.9,28.1-21.7C92.4,70.2,91.7,69.1,90.7,68.9C89.6,68.6,88.5,69.3,88.3,70.3C85.4,81.3,75.4,89,64,89
		c-13.8,0-25-11.2-25-25s11.2-25,25-25c10.4,0,19.6,6.3,23.3,15.9l-7.5-1.8c-1.1-0.3-2.2,0.4-2.399,1.5C77.1,55.7,77.8,56.8,78.9,57
		L90,59.7c0.2,0,0.3,0.1,0.5,0.1c0.9,0,1.7-0.6,1.9-1.5L95.1,47.4C95.3,46.2,94.7,45.1,93.6,44.8z"/>
	<path id="svg_3" fill="none" d="M48.741,62.815c1.481,0.889,2.667,2.074,2.963,2.667c0.296,0.593,0.717,0.717,1.186,1.185
		c0.468,0.47,0.864,0.412,1.185,1.187c0.113,0.272,0.339,0.869,0.592,1.481c0.359,0.865,0.296,1.185,0.296,1.479v0.297l0.296,0.593
		l0.593,0.594"/>
	<line id="svg_4" fill="none" x1="52.296" y1="58.371" x2="55.556" y2="68.148"/>
	<path id="svg_5" fill="none" d="M42.815,60.148c0.593,0,2.508,0.434,3.556,1.481c1.047,1.048,2.582,2.896,4.148,5.63
		c0.932,1.625,2.28,4.195,3.556,6.519c1.663,3.029,2.37,3.853,2.667,4.147l0.296,0.298l0.296,0.295"/>
	<path id="svg_6" fill="none" d="M59.684,71.154c0.227,0.189,1.324-0.01,3.04-1.316c1.434-1.092,3.305-2.842,5.743-4.076
		c0.953-0.484,1.406-0.755,1.598-0.982l0.834-0.07l0.381-0.454"/>
</g>
</svg>
