<svg width="128" height="128" xmlns="http://www.w3.org/2000/svg">

 <g>
  <title>background</title>
  <rect fill="none" id="canvas_background" height="402" width="582" y="-1" x="-1"/>
 </g>
 <g>
  <title>Layer 1</title>
  <path id="svg_1" fill="#388697" d="m64,12c-28.7,0 -52,23.3 -52,52s23.3,52 52,52s52,-23.3 52,-52s-23.3,-52 -52,-52zm0,100c-26.5,0 -48,-21.5 -48,-48s21.5,-48 48,-48s48,21.5 48,48s-21.5,48 -48,48z"/>
  <path id="svg_2" fill="#ed6a5a" d="m93.6,44.8c-1.1,-0.3 -2.2,0.4 -2.4,1.5l-1.2,4.8c-4.8,-9.8 -14.8,-16.1 -26,-16.1c-16,0 -29,13 -29,29c0,16 13,29 29,29c13.2,0 24.8,-8.9 28.1,-21.7c0.3,-1.1 -0.4,-2.2 -1.4,-2.4c-1.1,-0.3 -2.2,0.4 -2.4,1.4c-2.9,11 -12.9,18.7 -24.3,18.7c-13.8,0 -25,-11.2 -25,-25s11.2,-25 25,-25c10.4,0 19.6,6.3 23.3,15.9l-7.5,-1.8c-1.1,-0.3 -2.2,0.4 -2.4,1.5c-0.3,1.1 0.4,2.2 1.5,2.4l11.1,2.7c0.2,0 0.3,0.1 0.5,0.1c0.9,0 1.7,-0.6 1.9,-1.5l2.7,-10.9c0.2,-1.2 -0.4,-2.3 -1.5,-2.6z"/>
  <path stroke="null" d="m48.740856,62.814823c1.481468,0.888882 2.666645,2.074062 2.96294,2.666645c0.296295,0.59259 0.716694,0.716698 1.185177,1.185181c0.468479,0.468475 0.864468,0.410919 1.185177,1.185173c0.113388,0.273743 0.339046,0.86937 0.592587,1.481468c0.358562,0.865646 0.296295,1.185181 0.296295,1.481476l0,0.296295l0.296291,0.592583l0.59259,0.59259" id="svg_3" stroke-opacity="null" stroke-width="null" fill="none"/>
  <line stroke="null" stroke-linecap="null" stroke-linejoin="null" id="svg_4" y2="68.148117" x2="55.555619" y1="58.370413" x1="52.296384" fill-opacity="null" stroke-opacity="null" stroke-width="null" fill="none"/>
  <path d="m42.814972,60.148178c0.59259,0 2.507973,0.43391 3.555531,1.481468c1.047558,1.047558 2.582329,2.896721 4.148117,5.629585c0.931591,1.625969 2.280262,4.195343 3.555531,6.518471c1.662746,3.028984 2.37035,3.851822 2.666645,4.148117l0.296295,0.296295l0.296291,0.296295" id="svg_5" stroke-opacity="null" stroke-width="null" stroke="null" fill="none"/>
  <path stroke="null" transform="rotate(40.01070785522461 65.48146820068358,67.70367431640625) " d="m63.259266,74.073997c0.296291,0 1.007107,-0.858688 1.481472,-2.962936c0.396347,-1.758171 0.705597,-4.302269 1.777763,-6.814766c0.419296,-0.982578 0.59259,-1.481472 0.59259,-1.777767l0.592583,-0.592587l0,-0.592587" id="svg_6" stroke-opacity="null" stroke-width="null" fill="none"/>
 </g>
</svg>