<svg width="200" height="200" xmlns="http://www.w3.org/2000/svg">

 <g>
  <title>background</title>
  <rect fill="none" id="canvas_background" height="402" width="582" y="-1" x="-1"/>
 </g>
 <g>
  <title fill="#717171">Layer 1</title>
  <path fill="#717171" id="svg_2" d="m138,18l-76,0c-5.5,0 -10,4.5 -10,10l0,144c0,5.5 4.5,10 10,10l76,0c5.5,0 10,-4.5 10,-10l0,-144c0,-5.5 -4.5,-10 -10,-10zm8,154c0,4.4 -3.6,8 -8,8l-76,0c-4.4,0 -8,-3.6 -8,-8l0,-144c0,-4.4 3.6,-8 8,-8l76,0c4.4,0 8,3.6 8,8l0,144z"/>
  <path fill="#717171" id="svg_3" d="m100,166.4c-3.2,0 -5.8,2.6 -5.8,5.8s2.6,5.8 5.8,5.8s5.8,-2.6 5.8,-5.8s-2.6,-5.8 -5.8,-5.8zm0,9.6c-2.1,0 -3.8,-1.7 -3.8,-3.8c0,-2.1 1.7,-3.8 3.8,-3.8c2.1,0 3.8,1.7 3.8,3.8c0,2.1 -1.7,3.8 -3.8,3.8z"/>
  <path fill="#717171" id="svg_4" d="m88.4,28l23.2,0c1.4,0 2.5,-1.1 2.5,-2.5s-1.1,-2.5 -2.5,-2.5l-23.2,0c-1.4,0 -2.5,1.1 -2.5,2.5s1.1,2.5 2.5,2.5zm0,-3l23.2,0c0.3,0 0.5,0.2 0.5,0.5s-0.2,0.5 -0.5,0.5l-23.2,0c-0.3,0 -0.5,-0.2 -0.5,-0.5s0.2,-0.5 0.5,-0.5z"/>
  <path fill="#717171" id="svg_5" d="m98,99c0,0.6 0.4,1 1,1l31,0c0.6,0 1,-0.4 1,-1s-0.4,-1 -1,-1l-31,0c-0.6,0 -1,0.4 -1,1z"/>
  <path fill="#717171" id="svg_6" d="m130,105l-31,0c-0.6,0 -1,0.4 -1,1s0.4,1 1,1l31,0c0.6,0 1,-0.4 1,-1s-0.4,-1 -1,-1z"/>
  <path fill="#717171" id="svg_7" d="m130,111l-31,0c-0.6,0 -1,0.4 -1,1s0.4,1 1,1l31,0c0.6,0 1,-0.4 1,-1s-0.4,-1 -1,-1z"/>
  <path fill="#717171" id="svg_8" d="m141,30l-82,0l0,40.4c0,0.2 -0.2,0.4 -0.2,0.6s0.2,0.5 0.2,0.6l0,92.4l11.5,0c0.1,0 0.3,0.2 0.5,0.2s0.3,-0.2 0.5,-0.2l19,0c0.1,0 0.3,0.2 0.5,0.2s0.3,-0.2 0.5,-0.2l49.5,0l0,-92.4c0,-0.2 0.2,-0.4 0.2,-0.6s-0.2,-0.5 -0.2,-0.6l0,-40.4zm-51,132l-18,0l0,-13l18,0l0,13zm49,0l-47,0l0,-15l-22,0l0,15l-9,0l0,-90l24.9,0c0.5,7.6 6.8,13.5 14.5,13.5s14,-6 14.5,-13.5l24,0l0,90l0.1,0zm-26,-90.9c0,2.8 -1,5.3 -2.5,7.4c-1.1,-3.2 -3.7,-5.6 -6.8,-6.6c1.2,-1 2,-2.4 2,-4.1c0,-2.9 -2.3,-5.2 -5.2,-5.2s-5.2,2.3 -5.2,5.2c0,1.6 0.8,3.1 2,4.1c-3.2,1 -5.7,3.5 -6.8,6.6c-1.5,-2 -2.4,-4.4 -2.5,-7.1c0,-0.1 0,-0.2 0,-0.4c0,-0.2 0,-0.3 -0.1,-0.4c0.2,-6.8 5.8,-12.2 12.6,-12.2c6.9,0 12.5,5.6 12.6,12.5c0,0 0,0.1 0,0.1c-0.1,0 -0.1,0.1 -0.1,0.1zm-12.6,2.3c4.1,0 7.6,2.9 8.4,6.8c-2.2,2 -5.2,3.3 -8.4,3.3s-6.2,-1.3 -8.4,-3.3c0.8,-3.9 4.4,-6.8 8.4,-6.8zm-3.1,-5.5c0,-1.8 1.4,-3.2 3.2,-3.2s3.2,1.4 3.2,3.2s-1.4,3.2 -3.2,3.2s-3.2,-1.5 -3.2,-3.2zm41.7,2.1l-24,0c-0.5,-7.6 -6.8,-13.6 -14.5,-13.6s-14,6 -14.5,13.6l-25,0l0,-38l78,0l0,38z"/>
  <path fill="#717171" id="svg_9" d="m70,116l22,0l0,-20l-22,0l0,20zm2,-18l18,0l0,16l-18,0l0,-16z"/>
  <path fill="#717171" id="svg_10" d="m130,123l-31,0c-0.6,0 -1,0.4 -1,1s0.4,1 1,1l31,0c0.6,0 1,-0.4 1,-1s-0.4,-1 -1,-1z"/>
  <path fill="#717171" id="svg_11" d="m130,130l-31,0c-0.6,0 -1,0.4 -1,1s0.4,1 1,1l31,0c0.6,0 1,-0.4 1,-1s-0.4,-1 -1,-1z"/>
  <path fill="#717171" id="svg_12" d="m130,136l-31,0c-0.6,0 -1,0.4 -1,1s0.4,1 1,1l31,0c0.6,0 1,-0.4 1,-1s-0.4,-1 -1,-1z"/>
  <path fill="#717171" id="svg_13" d="m70,141l22,0l0,-20l-22,0l0,20zm2,-18l18,0l0,16l-18,0l0,-16z"/>
  <path fill="#717171" id="svg_14" d="m130,149l-31,0c-0.6,0 -1,0.4 -1,1s0.4,1 1,1l31,0c0.6,0 1,-0.4 1,-1s-0.4,-1 -1,-1z"/>
  <path fill="#717171" id="svg_15" d="m130,156l-31,0c-0.6,0 -1,0.4 -1,1s0.4,1 1,1l31,0c0.6,0 1,-0.4 1,-1s-0.4,-1 -1,-1z"/>
 </g>
</svg>