<?xml version="1.0" encoding="utf-8"?>
<!-- Generator: Adobe Illustrator 13.0.0, SVG Export Plug-In . SVG Version: 6.00 Build 14948)  -->
<!DOCTYPE svg PUBLIC "-//W3C//DTD SVG 1.1//EN" "http://www.w3.org/Graphics/SVG/1.1/DTD/svg11.dtd">
<svg version="1.1" id="Layer_1" xmlns="http://www.w3.org/2000/svg" xmlns:xlink="http://www.w3.org/1999/xlink" x="0px" y="0px"
	 width="300px" height="300px" viewBox="0 0 300 300" enable-background="new 0 0 300 300" xml:space="preserve">
<g id="Livello_110">
	<path fill="#0966A1" d="M210.779,116.926c0,34.243-27.375,62.024-61.141,62.024c-33.771,0-61.138-27.781-61.138-62.024
		c0-34.256,27.373-62.027,61.138-62.027C183.41,54.896,210.779,82.668,210.779,116.926 M242.51,116.926
		c0-50.586-41.192-91.592-92.01-91.592c-50.814,0-92.01,41.005-92.01,91.592c0,22.24,7.972,42.631,21.22,58.494l70.87,101.787
		l71.906-103.272c2.584-3.218,4.947-6.608,7.082-10.172l0.728-1.039h-0.121C238.006,149.245,242.51,133.615,242.51,116.926"/>
</g>
<g id="Livello_1_1_">
</g>
<g>
	<path fill="#0966A1" d="M174.167,86.81c4.025-3.989,10.083,2.034,5.948,6.138l-16.865,16.769l9.418,37.588l-6.229,6.195
		l-15.763-31.054l-12.604,12.534l1.189,9.63l-4.927,4.9l-5.776-10.927l-10.988-5.744l4.928-4.899l9.629,1.126l12.603-12.533
		l-31.23-15.678l6.23-6.195l37.46,9.031L174.167,86.81z"/>
</g>
</svg>
