<?xml version="1.0" encoding="utf-8"?>
<!-- Generator: Adobe Illustrator 13.0.0, SVG Export Plug-In . SVG Version: 6.00 Build 14948)  -->
<!DOCTYPE svg PUBLIC "-//W3C//DTD SVG 1.1//EN" "http://www.w3.org/Graphics/SVG/1.1/DTD/svg11.dtd">
<svg version="1.1" id="Layer_1" xmlns="http://www.w3.org/2000/svg" xmlns:xlink="http://www.w3.org/1999/xlink" x="0px" y="0px"
	 width="100px" height="100px" viewBox="0 0 100 100" enable-background="new 0 0 100 100" xml:space="preserve">
<path fill="none" stroke="#D9D9D9" stroke-width="3" d="M97.167,51.41c0,5.396-5.128,9.77-11.452,9.77H14.453
	C8.128,61.18,3,56.807,3,51.41v-1.764c0-5.395,5.128-9.769,11.453-9.769h71.262c6.324,0,11.452,4.374,11.452,9.769V51.41z"/>
<polygon fill="none" stroke="#FA684B" stroke-width="2" points="22.118,48.982 18.911,51.902 19.5,56.202 15.729,54.057 
	11.823,55.943 12.7,51.695 9.697,48.562 14.01,48.083 16.061,44.259 17.848,48.213 "/>
<polygon fill="none" stroke="#FA684B" stroke-width="2" points="40.843,48.71 37.636,51.633 38.225,55.932 34.455,53.783 
	30.547,55.672 31.424,51.423 28.421,48.291 32.734,47.812 34.786,43.987 36.573,47.941 "/>
<polygon fill="none" stroke="#FA684B" stroke-width="2" points="57.939,48.167 54.732,51.09 55.32,55.389 51.551,53.242 
	47.644,55.129 48.521,50.881 45.518,47.748 49.831,47.269 51.883,43.445 53.67,47.399 "/>
<polygon fill="none" stroke="#FA684B" stroke-width="2" points="75.036,48.167 71.829,51.09 72.417,55.389 68.646,53.242 
	64.74,55.129 65.617,50.881 62.615,47.748 66.928,47.269 68.979,43.445 70.766,47.399 "/>
<polygon fill="none" stroke="#FA684B" stroke-width="2" points="92.146,48.167 88.939,51.09 89.527,55.389 85.757,53.242 
	81.852,55.129 82.729,50.881 79.725,47.748 84.037,47.269 86.089,43.445 87.876,47.399 "/>
<polyline fill="none" stroke="#D9D9D9" stroke-width="2" points="78.984,61.587 84.955,70.406 85.715,61.18 "/>
</svg>
