<svg width="74" height="74" xmlns="http://www.w3.org/2000/svg">

 <g>
  <title>background</title>
  <rect fill="none" id="canvas_background" height="402" width="582" y="-1" x="-1"/>
 </g>
 <g>
  <title>Layer 1</title>
  <path fill="#d9d9d9" id="svg_1" d="m61.6,64.3c-1.7,-2.2 -4.7,-3.8 -8.9,-4.8c1.3,-1.4 2.1,-3.3 2.1,-5.3c0,-3.4 -2.2,-6.3 -5.2,-7.4c-1,-1.6 -5.5,-9.5 -4.2,-23.9l2.8,0c1.1,0 2,-0.9 2,-2s-0.9,-2 -2,-2l-2.7,0c1.6,-1.9 2.5,-4.3 2.5,-6.9c-0.1,-6.1 -5,-11 -11,-11s-10.9,4.9 -10.9,10.9c0,2.6 0.9,5 2.5,6.9l-2.7,0c-1.1,0 -2,0.9 -2,2s0.9,2 2,2l2.8,0c1.3,14.3 -3.2,22.3 -4.2,23.9c-1.1,0.4 -2.1,1 -2.9,1.8c-1.5,1.5 -2.3,3.4 -2.3,5.5c0,2 0.8,3.9 2.1,5.3c-4.2,1 -7.2,2.6 -8.9,4.8c-1.6,2 -2.1,4.5 -1.5,7.2c0.2,0.9 1,1.6 1.9,1.6l48.2,0c0.9,0 1.7,-0.6 1.9,-1.6c0.7,-2.6 0.2,-5.1 -1.4,-7zm-31.5,-52.4c0,-3.8 3.1,-6.9 6.9,-6.9s6.9,3.1 6.9,6.9c0,3.8 -3.1,6.9 -6.9,6.9s-6.9,-3 -6.9,-6.9zm11.2,11c-1,11.7 1.5,19.4 3.4,23.5l-15.4,0c1.9,-4 4.4,-11.8 3.4,-23.5l8.6,0zm-14.2,35.1c-2.1,0 -3.8,-1.7 -3.8,-3.8c0,-1 0.4,-2 1.1,-2.7c0.7,-0.7 1.7,-1.1 2.7,-1.1l19.9,0c2.1,0 3.8,1.7 3.8,3.8c0,1 -0.4,2 -1.1,2.7c-0.8,0.7 -1.7,1.1 -2.8,1.1l-9.4,0c-0.2,0 -0.3,0 -0.5,0s-0.3,0 -0.5,0l-9.4,0zm-12.4,11c0,-0.8 0.3,-1.6 0.9,-2.3c1.4,-1.7 6.1,-4.7 21.4,-4.7s20,3 21.4,4.8c0.5,0.7 0.8,1.4 0.9,2.3l-44.6,0l0,-0.1z" class="st0"/>
 </g>
</svg>