<?xml version="1.0" encoding="utf-8"?>
<!-- Generator: Adobe Illustrator 13.0.0, SVG Export Plug-In . SVG Version: 6.00 Build 14948)  -->
<!DOCTYPE svg PUBLIC "-//W3C//DTD SVG 1.1//EN" "http://www.w3.org/Graphics/SVG/1.1/DTD/svg11.dtd">
<svg version="1.1" id="Layer_1" xmlns="http://www.w3.org/2000/svg" xmlns:xlink="http://www.w3.org/1999/xlink" x="0px" y="0px"
	 width="303.94px" height="203.915px" viewBox="0 0 303.94 203.915" enable-background="new 0 0 303.94 203.915"
	 xml:space="preserve">
<g>
	<path fill-rule="evenodd" clip-rule="evenodd" fill="#323232" d="M135.948,1.225h60.23V47.36h-12.093
		c-5.116-26.893-21.859-36.862-48.138-32.92V1.225z M161.528,143.34h-6.976h-39.301c-17.674,0-32.092-14.374-32.092-31.993V32.291
		c0-17.62,14.651-34.775,32.092-31.993c5.581,0.695,4.883-0.696,4.883,6.723v92.501c0,16.925,13.953,30.834,30.929,30.834
		c16.976,0,30.929-13.909,30.929-30.834v-3.014h11.629h2.324v35.007v11.824h-13.953H161.528z"/>
	<path fill-rule="evenodd" clip-rule="evenodd" fill="#323232" d="M23.952,191.396l4.186,1.16c-0.93,3.709-2.558,6.492-4.883,8.578
		c-2.093,1.854-4.884,2.781-8.371,2.781c-3.257,0-6.047-0.695-8.14-2.086c-2.326-1.623-3.953-3.709-4.884-6.49
		C0.698,192.323,0,189.31,0,186.063c0-3.477,0.698-6.723,2.093-9.272c1.163-2.55,3.023-4.637,5.348-6.028
		c2.326-1.391,4.885-2.086,7.676-2.086c3.023,0,5.813,0.928,7.906,2.551c2.093,1.854,3.721,4.172,4.65,7.418l-4.186,0.928
		c-0.697-2.318-1.86-4.174-3.256-5.332c-1.396-1.16-3.256-1.623-5.348-1.623c-2.326,0-4.419,0.463-6.047,1.854
		c-1.628,1.16-2.791,3.015-3.488,5.102c-0.465,2.086-0.931,4.174-0.931,6.49c0,2.783,0.466,5.332,1.163,7.652
		c0.698,2.086,2.094,3.709,3.721,4.867c1.629,0.928,3.488,1.623,5.35,1.623c2.324,0,4.418-0.928,6.046-2.318
		C22.093,196.497,23.255,194.409,23.952,191.396 M32.789,203.452v-34.08h3.954v12.287c1.859-2.318,3.953-3.477,6.743-3.477
		c1.628,0,3.256,0.231,4.419,0.926c1.395,0.928,2.093,1.855,2.79,3.015c0.465,1.392,0.698,3.245,0.698,5.563v15.766H47.44v-15.766
		c0-2.086-0.233-3.477-1.163-4.404c-0.931-1.159-2.093-1.623-3.488-1.623c-1.163,0-2.326,0.464-3.256,1.159
		c-1.163,0.464-1.86,1.392-2.093,2.55c-0.465,1.16-0.697,2.551-0.697,4.637v13.447H32.789z M57.438,169.372h3.953v4.637h-3.953
		V169.372z M57.438,178.646h3.953v24.805h-3.953V178.646z M67.206,203.452v-24.807h3.488v3.478c1.861-2.55,4.186-3.94,7.441-3.94
		c1.396,0,2.559,0.231,3.722,0.694c1.163,0.696,2.093,1.392,2.558,2.087c0.697,0.928,1.163,2.086,1.396,3.246v3.941v15.301h-3.722
		v-15.07c0-1.621-0.231-3.014-0.465-3.941c-0.465-0.693-0.93-1.391-1.628-1.854c-0.697-0.464-1.627-0.928-2.79-0.928
		c-1.628,0-3.023,0.695-4.186,1.855c-1.164,1.158-1.86,3.246-1.86,6.49v13.447H67.206z M107.67,195.339l3.953,0.693
		c-0.698,2.551-1.86,4.406-3.488,5.797c-1.86,1.391-3.954,2.086-6.512,2.086c-3.488,0-6.046-1.158-8.139-3.244
		c-1.86-2.32-2.79-5.332-2.79-9.506s0.93-7.188,2.79-9.506c2.093-2.318,4.65-3.477,7.907-3.477c3.022,0,5.58,1.158,7.44,3.244
		c1.861,2.32,3.023,5.564,3.023,9.506c0,0.232-0.232,0.695-0.232,1.16H94.647c0,2.781,0.697,4.867,2.093,6.258
		c1.395,1.391,2.79,2.088,4.883,2.088c1.396,0,2.558-0.465,3.489-1.16C106.274,198.351,106.972,197.192,107.67,195.339
		 M94.879,188.614h12.791c-0.232-2.086-0.698-3.477-1.628-4.637c-1.163-1.623-2.791-2.318-4.65-2.318
		c-1.861,0-3.257,0.464-4.651,1.855C95.577,184.673,94.879,186.528,94.879,188.614 M114.879,196.032l3.953-0.693
		c0.232,1.621,0.93,3.012,1.86,3.939c0.93,0.695,2.326,1.16,4.186,1.16c1.628,0,3.023-0.232,3.953-1.16
		c0.931-0.695,1.163-1.623,1.163-2.781c0-0.928-0.232-1.623-1.163-2.088c-0.465-0.463-1.86-0.926-3.953-1.391
		c-2.79-0.926-4.65-1.623-5.813-2.086c-1.162-0.695-2.094-1.391-2.559-2.318c-0.465-1.158-0.93-2.086-0.93-3.477
		c0-0.928,0.233-2.088,0.698-3.015s1.163-1.623,2.093-2.317c0.465-0.465,1.395-0.929,2.325-1.16
		c1.163-0.231,2.093-0.463,3.487-0.463c1.628,0,3.257,0.231,4.651,0.694c1.396,0.696,2.326,1.392,3.024,2.319
		c0.696,0.927,1.161,2.318,1.395,3.941l-3.953,0.463c0-1.16-0.698-2.318-1.396-3.014c-0.931-0.695-2.094-0.928-3.488-0.928
		c-1.86,0-3.023,0.232-3.953,0.928c-0.698,0.463-0.93,1.391-0.93,2.086s0,1.16,0.465,1.623c0.232,0.465,0.697,0.695,1.395,0.928
		c0.466,0.232,1.629,0.695,3.488,1.158c2.791,0.928,4.651,1.391,5.581,1.855c1.163,0.695,2.093,1.391,2.791,2.318
		c0.465,0.928,0.93,2.086,0.93,3.477c0,1.393-0.465,2.783-1.163,3.941c-0.93,1.391-1.859,2.32-3.255,3.014
		c-1.628,0.697-3.256,0.928-4.884,0.928c-3.022,0-5.348-0.695-6.976-2.086C116.506,200.671,115.344,198.583,114.879,196.032
		 M154.412,195.339l3.953,0.693c-0.698,2.551-1.86,4.406-3.488,5.797s-3.954,2.086-6.512,2.086c-3.488,0-6.046-1.158-7.906-3.244
		c-2.093-2.32-3.022-5.332-3.022-9.506s0.93-7.188,3.022-9.506c1.86-2.318,4.418-3.477,7.674-3.477c3.023,0,5.581,1.158,7.441,3.244
		c2.093,2.32,3.023,5.564,3.023,9.506v1.16h-17.209c0.233,2.781,0.931,4.867,2.094,6.258c1.395,1.391,3.022,2.088,4.883,2.088
		c1.396,0,2.558-0.465,3.489-1.16C153.017,198.351,153.714,197.192,154.412,195.339 M141.622,188.614h12.79
		c-0.233-2.086-0.698-3.477-1.396-4.637c-1.396-1.623-3.023-2.318-4.884-2.318c-1.859,0-3.256,0.464-4.419,1.855
		C142.319,184.673,141.854,186.528,141.622,188.614 M176.039,203.452v-34.08h4.187v29.906h15.579v4.174H176.039z M215.339,200.206
		c-1.395,1.391-2.79,2.318-4.186,2.781c-1.396,0.697-2.79,0.928-4.418,0.928c-2.559,0-4.419-0.695-5.814-2.086
		c-1.395-1.158-2.093-3.014-2.093-4.869c0-1.391,0.465-2.318,0.931-3.477c0.465-0.928,1.162-1.623,1.86-2.318
		c0.93-0.695,1.86-1.16,2.79-1.393c0.931-0.23,2.093-0.463,3.489-0.693c3.255-0.232,5.581-0.697,6.976-1.393v-1.158
		c0-1.623-0.232-2.781-0.93-3.479c-1.163-0.927-2.559-1.391-4.419-1.391s-3.255,0.232-4.186,0.928s-1.628,2.086-1.86,3.709
		l-3.953-0.463c0.465-1.855,0.93-3.246,1.859-4.406c0.698-0.927,1.861-1.854,3.489-2.318c1.396-0.694,3.023-0.926,5.116-0.926
		c1.859,0,3.488,0.231,4.883,0.694c1.163,0.464,2.093,1.159,2.558,1.854c0.698,0.695,1.163,1.623,1.396,2.783v3.941v5.563
		c0,3.941,0.233,6.26,0.233,7.42c0.232,0.926,0.465,2.086,0.93,3.014h-3.953C215.572,202.524,215.339,201.597,215.339,200.206
		 M214.874,190.933c-1.395,0.695-3.488,1.16-6.279,1.623c-1.628,0.232-2.79,0.463-3.487,0.928c-0.698,0.232-1.163,0.695-1.396,1.391
		c-0.465,0.465-0.698,1.158-0.698,1.855c0,1.158,0.466,2.086,1.163,2.781c0.931,0.695,2.094,1.16,3.488,1.16
		c1.628,0,2.791-0.465,4.186-1.16c1.163-0.695,1.86-1.623,2.559-2.781c0.232-0.928,0.465-2.32,0.465-4.174V190.933z
		 M223.246,196.032l3.953-0.693c0.232,1.621,0.93,3.012,1.86,3.939c0.931,0.695,2.325,1.16,4.186,1.16
		c1.628,0,3.024-0.232,3.954-1.16c0.93-0.695,1.162-1.623,1.162-2.781c0-0.928-0.232-1.623-1.162-2.088
		c-0.465-0.463-1.861-0.926-3.954-1.391c-2.79-0.926-4.883-1.623-5.813-2.086c-1.162-0.695-2.093-1.391-2.558-2.318
		c-0.465-1.158-0.931-2.086-0.931-3.477c0-0.928,0.232-2.088,0.698-3.015c0.465-0.927,1.162-1.623,2.093-2.317
		c0.465-0.465,1.395-0.929,2.325-1.16c1.162-0.231,2.093-0.463,3.488-0.463c1.628,0,3.255,0.231,4.651,0.694
		c1.395,0.696,2.325,1.392,3.022,2.319c0.697,0.927,1.163,2.318,1.396,3.941l-3.953,0.463c0-1.16-0.698-2.318-1.395-3.014
		c-0.932-0.695-2.094-0.928-3.489-0.928c-1.86,0-3.023,0.232-3.953,0.928c-0.698,0.463-1.163,1.391-1.163,2.086
		s0.233,1.16,0.698,1.623c0.231,0.465,0.697,0.695,1.395,0.928c0.465,0.232,1.396,0.695,3.488,1.158
		c2.558,0.928,4.651,1.391,5.582,1.855c1.162,0.695,2.092,1.391,2.558,2.318c0.697,0.928,1.162,2.086,1.162,3.477
		c0,1.393-0.465,2.783-1.162,3.941c-0.931,1.391-1.86,2.32-3.256,3.014c-1.628,0.697-3.256,0.928-4.884,0.928
		c-3.023,0-5.348-0.695-6.976-2.086C224.874,200.671,223.711,198.583,223.246,196.032 M262.779,195.339l3.953,0.693
		c-0.697,2.551-1.86,4.406-3.488,5.797s-3.953,2.086-6.511,2.086c-3.489,0-6.047-1.158-8.14-3.244
		c-1.86-2.32-2.791-5.332-2.791-9.506s0.931-7.188,3.023-9.506c1.86-2.318,4.418-3.477,7.674-3.477c3.023,0,5.581,1.158,7.442,3.244
		c1.859,2.32,3.022,5.564,3.022,9.506v1.16h-17.209c0.233,2.781,0.931,4.867,2.093,6.258c1.396,1.391,3.023,2.088,4.885,2.088
		c1.395,0,2.558-0.465,3.487-1.16C261.384,198.351,262.081,197.192,262.779,195.339 M249.989,188.614h12.79
		c-0.233-2.086-0.698-3.477-1.396-4.637c-1.396-1.623-3.022-2.318-4.884-2.318c-1.86,0-3.256,0.464-4.418,1.855
		C250.687,184.673,249.989,186.528,249.989,188.614 M271.616,203.452v-24.807h3.488v3.709c0.93-1.623,1.859-2.781,2.558-3.478
		c0.698-0.463,1.628-0.694,2.558-0.694c1.163,0,2.559,0.463,3.953,1.391l-1.395,3.709c-0.931-0.464-1.86-0.695-2.79-0.695
		c-0.932,0-1.628,0.231-2.326,0.695c-0.698,0.465-1.163,1.391-1.396,2.318c-0.465,1.391-0.697,3.014-0.697,4.869v12.982H271.616z
		 M284.871,196.032l3.953-0.693c0.232,1.621,0.698,3.012,1.628,3.939c1.163,0.695,2.558,1.16,4.186,1.16
		c1.86,0,3.257-0.232,3.953-1.16c0.932-0.695,1.396-1.623,1.396-2.781c0-0.928-0.465-1.623-1.163-2.088
		c-0.465-0.463-1.861-0.926-3.953-1.391c-2.791-0.926-4.884-1.623-6.047-2.086c-0.93-0.695-1.86-1.391-2.325-2.318
		c-0.698-1.158-0.93-2.086-0.93-3.477c0-0.928,0.231-2.088,0.697-3.015c0.465-0.927,1.162-1.623,1.86-2.317
		c0.697-0.465,1.396-0.929,2.559-1.16c0.93-0.231,2.093-0.463,3.255-0.463c1.86,0,3.488,0.231,4.884,0.694
		c1.163,0.696,2.325,1.392,3.022,2.319c0.466,0.927,0.931,2.318,1.163,3.941l-3.721,0.463c-0.233-1.16-0.698-2.318-1.628-3.014
		c-0.698-0.695-1.86-0.928-3.488-0.928s-3.022,0.232-3.721,0.928c-0.698,0.463-1.163,1.391-1.163,2.086s0.233,1.16,0.465,1.623
		c0.233,0.465,0.932,0.695,1.628,0.928c0.233,0.232,1.396,0.695,3.256,1.158c2.791,0.928,4.651,1.391,5.814,1.855
		c1.162,0.695,1.86,1.391,2.558,2.318s0.931,2.086,0.931,3.477c0,1.393-0.233,2.783-1.163,3.941c-0.698,1.391-1.86,2.32-3.255,3.014
		c-1.396,0.697-3.024,0.928-4.885,0.928c-3.022,0-5.115-0.695-6.743-2.086C286.267,200.671,285.336,198.583,284.871,196.032"/>
</g>
</svg>
