<?xml version="1.0" encoding="utf-8"?>
<!-- Generator: Adobe Illustrator 16.0.0, SVG Export Plug-In . SVG Version: 6.00 Build 0)  -->
<!DOCTYPE svg PUBLIC "-//W3C//DTD SVG 1.1//EN" "http://www.w3.org/Graphics/SVG/1.1/DTD/svg11.dtd">
<svg version="1.1" id="Layer_1" xmlns="http://www.w3.org/2000/svg" xmlns:xlink="http://www.w3.org/1999/xlink" x="0px" y="0px"
	 width="500px" height="500px" viewBox="0 0 500 500" enable-background="new 0 0 500 500" xml:space="preserve">
<g>
	<path fill="#F16465" d="M211.953,443.019c-0.716,0-1.433-0.099-2.148-0.306c-2.559-0.716-4.504-2.657-5.22-5.22
		c-0.102-0.2-0.513-1.734-1.025-4.398c-0.408-2.251-1.124-6.14-1.738-11.566c-0.614-5.421-1.024-11.359-1.126-17.907l-1.229-79.211
		l-0.716-64.882l-0.511-64.885c-0.102-19.444-0.205-39.093-0.102-56.593V98.036l0.102-15.249c0-7.47,6.141-13.611,13.713-13.611
		c7.572,0,13.611,6.141,13.713,13.611l0.103,15.146v40.016c0,17.602,0,37.149-0.103,56.593l-0.511,64.881l-0.717,64.886
		l-1.227,79.211c-0.102,6.448-0.513,12.483-1.127,17.91c-0.613,5.423-1.331,9.31-1.739,11.665c-0.511,2.664-0.921,4.198-1.023,4.3
		C218.401,440.771,215.432,443.019,211.953,443.019z"/>
	<path fill="#FFFFFF" d="M209.19,436.166c0,0-0.411-1.33-0.921-3.991c-0.511-2.56-1.125-6.347-1.74-11.261
		c-0.512-4.807-0.921-10.745-1.126-17.395c-0.102-6.754-0.204-14.329-0.307-22.617c-0.204-16.579-0.511-35.922-0.818-56.594
		c-0.206-20.676-0.511-42.78-0.718-64.886c-0.204-22.104-0.306-44.209-0.509-64.881c-0.105-20.672-0.207-40.015-0.105-56.593
		c0-16.58,0-30.395,0-40.016c0.105-9.619,0.821-19.035,5.732-19.035c15.76,0,12.383,94.971,12.281,115.644
		c-0.102,20.672-0.307,42.777-0.513,64.881c-0.204,22.105-0.511,44.21-0.714,64.886c-0.309,20.672-0.614,40.015-0.821,56.594
		c-0.102,8.288-0.204,15.863-0.306,22.617c-0.102,6.754-0.512,12.588-1.125,17.395c-0.512,4.813-1.126,8.597-1.739,11.261
		c-0.513,2.556-0.923,3.991-0.923,3.991c-0.408,1.534-2.047,2.454-3.683,2.047C210.111,437.907,209.394,437.086,209.19,436.166z"/>
</g>
<g>
	<path fill="#F16465" d="M311.937,443.019c-0.715,0-1.429-0.099-2.149-0.306c-2.557-0.716-4.499-2.657-5.219-5.22
		c-0.101-0.2-0.51-1.734-1.021-4.398c-0.408-2.251-1.128-6.14-1.741-11.566c-0.614-5.421-1.021-11.359-1.124-17.907l-1.227-79.211
		l-0.721-64.882l-0.508-64.885c-0.106-19.444-0.207-39.093-0.106-56.593V98.036l0.106-15.249c0-7.47,6.14-13.611,13.71-13.611
		c7.575,0,13.614,6.141,13.715,13.611l0.101,15.146v40.016c0,17.602,0,37.149-0.101,56.593l-0.513,64.881l-0.716,64.886
		l-1.227,79.211c-0.101,6.448-0.515,12.483-1.129,17.91c-0.612,5.423-1.328,9.31-1.736,11.665c-0.512,2.664-0.921,4.198-1.026,4.3
		C318.384,440.771,315.42,443.019,311.937,443.019z"/>
	<path fill="#FFFFFF" d="M309.174,436.166c0,0-0.409-1.33-0.921-3.991c-0.51-2.56-1.122-6.347-1.736-11.261
		c-0.515-4.807-0.922-10.745-1.129-17.395c-0.1-6.754-0.205-14.329-0.307-22.617c-0.205-16.579-0.513-35.922-0.819-56.594
		c-0.203-20.676-0.51-42.78-0.715-64.886c-0.207-22.104-0.308-44.209-0.514-64.881c-0.101-20.672-0.201-40.015-0.101-56.593
		c0-16.58,0-30.395,0-40.016c0.101-9.619,0.819-19.035,5.732-19.035c15.758,0,12.381,94.971,12.28,115.644
		c-0.104,20.672-0.307,42.777-0.514,64.881c-0.205,22.105-0.513,44.21-0.715,64.886c-0.307,20.672-0.612,40.015-0.819,56.594
		c-0.101,8.288-0.207,15.863-0.307,22.617c-0.101,6.754-0.515,12.588-1.127,17.395c-0.51,4.813-1.124,8.597-1.738,11.261
		c-0.513,2.556-0.92,3.991-0.92,3.991c-0.413,1.534-2.05,2.454-3.684,2.047C310.094,437.907,309.379,437.086,309.174,436.166z"/>
</g>
<g>
	<path fill="#66C4EF" d="M261.996,443.019c-0.716,0-1.432-0.099-2.148-0.306c-2.559-0.716-4.504-2.657-5.22-5.22
		c-0.102-0.2-0.513-1.636-1.024-4.398c-0.408-2.251-1.124-6.14-1.738-11.566c-0.614-5.421-1.025-11.359-1.126-17.907l-1.229-79.211
		l-0.715-64.882l-0.512-64.885c-0.102-19.649-0.206-39.299-0.102-56.593V98.036l0.102-15.249c0-7.47,6.243-13.611,13.713-13.611
		c7.572,0,13.611,6.141,13.712,13.611l0.106,15.146v40.016c0,17.396,0,36.944-0.106,56.593l-0.508,64.881l-0.719,64.886
		l-1.229,79.211c-0.101,6.448-0.51,12.483-1.123,17.91c-0.614,5.423-1.333,9.31-1.742,11.665c-0.512,2.664-0.92,4.198-1.021,4.398
		C268.446,440.771,265.375,443.019,261.996,443.019z"/>
	<path fill="#FFFFFF" d="M259.132,436.166c0,0-0.41-1.33-0.923-3.991c-0.51-2.56-1.124-6.347-1.738-11.261
		c-0.513-4.807-0.921-10.745-1.127-17.395c-0.102-6.754-0.203-14.329-0.305-22.617c-0.207-16.579-0.513-35.922-0.821-56.594
		c-0.204-20.676-0.51-42.78-0.717-64.886c-0.203-22.104-0.306-44.209-0.511-64.881c-0.102-20.672-0.203-40.015-0.102-56.593
		c0-16.58,0-30.395,0-40.016c0.102-9.619,1.434-16.579,8.29-16.579c15.657,0,9.823,92.516,9.618,113.188
		c-0.102,20.672-0.307,42.777-0.51,64.881c-0.206,22.105-0.512,44.21-0.719,64.886c-0.307,20.672-0.614,40.015-0.815,56.594
		c-0.106,8.288-0.206,15.863-0.307,22.617c-0.106,6.754-0.514,12.588-1.128,17.395c-0.513,4.813-1.127,8.597-1.741,11.261
		c-0.51,2.556-0.922,3.991-0.922,3.991c-0.407,1.534-2.043,2.454-3.683,2.047C260.155,437.907,259.438,437.086,259.132,436.166z"/>
</g>
<g>
	<path fill="#4E4E4E" d="M218.707,71.632c-2.046,0-4.093-0.717-5.833-1.946h-3.89c-4.4,0-7.982-3.581-7.982-7.982
		c0-4.4,3.583-7.982,7.982-7.982h3.89c1.638-1.228,3.684-1.944,5.833-1.944h23.948c2.046,0,4.093,0.716,5.834,1.944h3.888
		c4.402,0,7.982,3.582,7.982,7.982c0,4.402-3.58,7.982-7.982,7.982h-3.888c-1.639,1.229-3.684,1.946-5.834,1.946H218.707z"/>
	<path fill="#FFFFFF" d="M218.707,55.974c-1.739,0-3.173,0.716-4.297,1.944h-5.22c-1.945,0-3.684,1.331-3.991,3.173
		c-0.411,2.354,1.432,4.503,3.786,4.503h5.425c1.022,1.126,2.558,1.944,4.297,1.944h23.948c1.739,0,3.173-0.715,4.3-1.944h3.683
		c1.638,0,2.661-2.047,1.433-3.172C248.283,58.738,233.138,55.974,218.707,55.974z"/>
</g>
<g>
	<path fill="#4E4E4E" d="M277.963,71.632c-2.048,0-4.096-0.717-5.833-1.946h-3.891c-4.398,0-7.982-3.581-7.982-7.982
		c0-4.4,3.584-7.982,7.982-7.982h3.891c1.635-1.228,3.685-1.944,5.833-1.944h24.048c2.048,0,4.092,0.716,5.834,1.944h3.89
		c4.4,0,7.982,3.582,7.982,7.982c0,4.402-3.582,7.982-7.982,7.982h-3.89c-1.636,1.229-3.684,1.946-5.834,1.946H277.963z"/>
	<path fill="#FFFFFF" d="M277.963,55.974c-1.741,0-3.176,0.716-4.299,1.944h-5.218c-1.948,0-3.685,1.331-3.991,3.173
		c-0.414,2.354,1.429,4.503,3.784,4.503h5.425c1.022,1.126,2.558,1.944,4.299,1.944h24.048c1.741,0,3.172-0.715,4.299-1.944h3.684
		c1.637,0,2.663-2.047,1.436-3.172C307.538,58.738,292.393,55.974,277.963,55.974z"/>
</g>
<g>
	<g>
		<path fill="#FFFFFF" d="M173.883,436.064c-2.458,2.043-5.834,2.763-8.903,1.941l-7.779-2.148
			c-3.582-0.92-7.063-2.454-10.132-4.504l-19.957-12.995c-3.172-2.05-5.935-4.606-8.29-7.471l-5.013-6.244
			c-2.764-3.377-2.969-8.085-0.614-11.768l167.325-254.519c0.513-0.82,1.127-1.535,1.841-2.149c3.07-2.558,7.471-2.764,10.848-0.614
			c0.614,0.409,1.333,0.716,2.048,1.023l0.207,0.103c0.101,0,0.2,0.102,0.2,0.102c0.308,0.102,0.614,0.205,0.922,0.205
			c0.207,0,0.513,0.103,0.719,0.103c0.308,0,0.51,0,0.715,0h0.207c0.715,0,1.535-0.205,2.148-0.409l0.202-0.103l0.207-0.102h0.205
			l0.715-0.307c0.715-0.409,1.435-0.819,2.149-1.433c0.308-0.307,0.614-0.511,1.022-0.921c1.026-1.022,2.048-2.251,3.069-3.684
			l70.72-109.502c0.816-1.228,1.736-2.354,2.864-3.275c1.021-0.819,2.249-1.535,3.584-2.149c4.298-1.842,9.209-1.33,13.201,1.331
			l7.57,4.912c2.148,1.433,3.891,3.377,5.018,5.731c1.125,2.354,1.532,4.912,1.226,7.574c-0.305,2.251-1.025,4.298-2.252,6.141
			l-9.104,13.816l-62.738,94.97c-0.922,1.433-1.637,2.865-2.148,4.196c-0.51,1.432-0.816,2.66-0.922,3.888v0.205
			c0,0.102,0,0.205,0,0.409v0.512c0,0.102,0,0.512,0,0.614l0,0v0.102c0.105,0.41,0.105,0.819,0.207,1.228
			c0,0.104,0.101,0.411,0.205,0.718c0.308,0.716,0.715,1.432,1.329,2.046c0.614,0.717,1.329,1.331,2.149,1.842
			c4.197,2.866,5.426,8.597,2.557,12.793L175.929,433.709C175.417,434.629,174.701,435.345,173.883,436.064z"/>
		<path fill="#4E4E4E" d="M403.12,25.886l-7.568-4.912c-2.563-1.638-5.632-1.945-8.29-0.819c-1.641,0.715-3.07,1.842-3.991,3.377
			l-70.72,109.503c-1.229,1.842-2.457,3.377-3.786,4.708c-1.434,1.33-2.862,2.354-4.297,3.172l0.82,1.842l0,0l-1.127-1.739
			l-1.229,0.614l0,0c0,0,0,0-0.101,0l-0.413,0.102c-1.329,0.512-2.657,0.716-3.991,0.716c0,0,0,0-0.101,0c-0.408,0-0.819,0-1.329,0
			c-0.513,0-0.922-0.102-1.334-0.204c-0.508-0.104-0.921-0.205-1.328-0.307c-0.206-0.104-0.408-0.104-0.715-0.307
			c-1.127-0.41-2.148-0.92-3.07-1.535c-1.434-0.922-3.377-0.82-4.71,0.307c-0.308,0.307-0.614,0.613-0.816,0.92L117.699,395.639
			c-1.127,1.741-1.025,3.991,0.306,5.628l5.014,6.244c1.945,2.457,4.4,4.605,7.062,6.344l19.956,12.998
			c2.661,1.738,5.527,3.071,8.597,3.887l7.777,2.05c1.434,0.407,3.07,0,4.196-0.923c0.409-0.306,0.716-0.714,1.023-1.127
			l165.688-255.438c1.229-1.842,0.715-4.298-1.127-5.526c-1.229-0.818-2.25-1.739-3.172-2.865c-0.921-1.126-1.636-2.251-2.148-3.479
			c-0.206-0.41-0.307-0.819-0.407-1.229c-0.207-0.613-0.308-1.228-0.413-1.944c0-0.102,0-0.204,0-0.409c0,0,0-0.205,0-0.307
			s0-0.102,0-0.206c0-0.204,0-0.511,0-0.818s0-0.613,0-1.024l0,0c0-0.102,0-0.102,0-0.102c0.105-1.637,0.514-3.479,1.128-5.219
			c0.614-1.74,1.534-3.583,2.763-5.322l62.732-94.972l9.11-13.816c0.715-1.124,1.228-2.456,1.434-3.888
			c0.201-1.638-0.106-3.275-0.821-4.708C405.477,28.035,404.455,26.808,403.12,25.886z"/>
		<g>
			
				<path fill="#FFFFFF" stroke="#4E4E4E" stroke-width="3.9252" stroke-linecap="round" stroke-linejoin="round" stroke-miterlimit="10" d="
				M119.335,396.766c-0.614,1.021-0.614,2.25,0.206,3.272l5.015,6.244c1.843,2.353,4.093,4.3,6.548,5.936l19.957,12.996
				c2.456,1.639,5.218,2.867,8.086,3.584l7.777,2.046c1.125,0.309,2.354-0.206,2.968-1.126l165.686-255.44
				c0.614-0.92,0.412-2.148-0.614-2.763c-1.021-0.716-2.351-1.74-3.579-3.172c-0.92-1.126-1.842-2.456-2.456-3.991
				c-0.206-0.512-0.411-1.024-0.514-1.535c-0.205-0.614-0.307-1.331-0.407-2.047c0-0.204-0.104-0.409-0.104-0.715
				c0-0.104,0-0.307,0-0.41c0-0.308,0-0.615,0-0.922c0-0.408,0-0.817,0-1.228v-0.102c0.104-1.74,0.512-3.684,1.333-5.833
				c0.715-2.047,1.736-3.992,2.965-5.732l62.737-94.97l4.298-6.448l4.807-7.368c0.614-0.921,0.921-1.944,1.128-2.968
				c0.101-1.229-0.102-2.558-0.614-3.685c-0.514-1.125-1.329-2.046-2.457-2.763l-7.573-4.913c-1.943-1.228-4.399-1.535-6.449-0.715
				c-1.227,0.512-2.351,1.433-3.069,2.557l0,0l-4.706,7.369l-4.198,6.447l-61.71,95.688c-1.228,1.842-2.557,3.479-4.092,5.015
				c-1.636,1.535-3.17,2.661-4.811,3.48c-0.103,0-0.202,0.102-0.308,0.102c-0.202,0.102-0.409,0.205-0.614,0.306
				c-0.202,0.103-0.51,0.206-0.715,0.307c-0.102,0-0.102,0.102-0.206,0.102c-0.101,0-0.201,0.104-0.408,0.104
				c-1.636,0.614-3.172,0.818-4.706,0.921l0,0c-0.514,0-1.025,0-1.535-0.104c-0.513,0-1.026-0.102-1.534-0.204
				c-0.514-0.104-1.028-0.206-1.536-0.411c-0.307-0.102-0.614-0.204-0.921-0.307c-1.434-0.511-2.662-1.125-3.482-1.739
				c-0.921-0.614-2.149-0.307-2.764,0.614l-2.456,3.684L119.335,396.766z"/>
			<path fill="#66C4EF" d="M273.867,214.292L397.595,24.76l-3.069-2.047c-1.843-1.228-4.194-1.637-6.242-0.921
				c-1.434,0.512-2.662,1.433-3.478,2.661l0,0l-4.712,7.369l-4.191,6.447l-61.711,95.688c-1.229,1.842-2.562,3.479-4.098,5.015
				c-1.635,1.535-3.17,2.661-4.806,3.479c-0.105,0-0.207,0.104-0.308,0.104c-0.207,0.102-0.412,0.204-0.614,0.307
				c-0.308,0.102-0.513,0.204-0.719,0.307c-0.101,0-0.101,0.102-0.201,0.102c-0.106,0-0.207,0.102-0.413,0.102
				c-1.637,0.614-3.271,0.819-4.706,0.921l0,0c-0.308,0-2.557-0.409-5.525-0.921c-1.843-0.307-3.991-0.715-6.242-1.125
				c6.854,15.044-7.368,54.239-14.122,71.228C272.024,214.396,273.357,215.111,273.867,214.292z"/>
			<path fill="#4E4E4E" d="M243.167,261.266c0,0-5.118,9.517-13.406,23.438c-2.046,3.479-4.298,7.264-6.754,11.152
				c-2.457,3.992-4.914,8.189-7.677,12.382c-2.661,4.3-5.424,8.701-8.288,13.202c-2.868,4.504-5.834,9.011-8.7,13.508
				c-2.968,4.507-5.935,9.011-8.904,13.409c-2.864,4.399-5.936,8.699-8.699,12.895c-5.73,8.39-11.052,16.066-15.863,22.719
				c-9.413,13.202-16.067,21.7-16.067,21.7s5.118-9.52,13.408-23.441c4.093-6.954,9.006-15.042,14.43-23.639
				c2.661-4.3,5.423-8.699,8.29-13.202c2.866-4.501,5.833-9.005,8.699-13.509c2.968-4.5,5.935-9.004,8.904-13.402
				c2.865-4.405,5.936-8.702,8.699-12.897c2.865-4.194,5.629-8.186,8.288-11.974c2.661-3.787,5.22-7.368,7.575-10.644
				C236.515,269.761,243.167,261.266,243.167,261.266z"/>
			<path fill="#4E4E4E" d="M376.41,37.247c0,0,0.207,0.204,0.614,0.511c0.413,0.306,1.026,0.819,1.641,1.433
				c1.429,1.126,3.271,2.661,5.22,3.991c3.885,2.763,8.083,5.219,8.083,5.219l4.198-7.47c0,0-4.098-1.946-8.09-4.298
				c-1.941-1.126-3.885-2.457-5.319-3.377c-0.715-0.512-1.328-0.921-1.741-1.229c-0.407-0.306-0.614-0.511-0.614-0.511
				L376.41,37.247z"/>
		</g>
	</g>
	<g>
		<path fill="#FFFFFF" d="M350.007,436.064c2.457,2.043,5.834,2.763,8.904,1.941l7.78-2.148c3.579-0.92,7.063-2.454,10.132-4.504
			l19.957-12.995c3.17-2.05,5.933-4.606,8.288-7.471l5.013-6.244c2.765-3.377,2.968-8.085,0.614-11.768L243.472,138.357
			c-0.509-0.82-1.124-1.535-1.841-2.149c-3.07-2.558-7.472-2.764-10.849-0.614c-0.614,0.409-1.329,0.716-2.046,1.023l-0.204,0.103
			c-0.103,0-0.205,0.102-0.205,0.102c-0.307,0.102-0.613,0.205-0.921,0.205c-0.204,0-0.512,0.103-0.716,0.103
			c-0.306,0-0.512,0-0.716,0h-0.204c-0.717,0-1.536-0.205-2.148-0.409l-0.207-0.103l-0.204-0.102h-0.204l-0.717-0.307
			c-0.716-0.409-1.433-0.819-2.15-1.433c-0.306-0.307-0.614-0.511-1.021-0.921c-1.025-1.022-2.048-2.251-3.071-3.684L145.33,20.667
			c-0.818-1.228-1.74-2.354-2.866-3.275c-1.023-0.819-2.25-1.535-3.581-2.149c-4.298-1.842-9.209-1.33-13.201,1.331l-7.575,4.912
			c-2.148,1.433-3.889,3.377-5.013,5.731c-1.127,2.354-1.536,4.912-1.229,7.574c0.307,2.251,1.023,4.298,2.25,6.141l9.109,13.816
			l62.734,94.97c0.921,1.433,1.636,2.865,2.148,4.196c0.512,1.432,0.819,2.66,0.921,3.888v0.205c0,0.102,0,0.205,0,0.409v0.512
			c0,0.102,0,0.512,0,0.614l0,0v0.102c-0.102,0.41-0.102,0.819-0.206,1.228c0,0.104-0.102,0.411-0.204,0.718
			c-0.306,0.716-0.716,1.432-1.331,2.046c-0.614,0.717-1.33,1.331-2.148,1.842c-4.196,2.866-5.423,8.597-2.559,12.793
			l165.382,255.439C348.473,434.629,349.191,435.345,350.007,436.064z"/>
		<path fill="#4E4E4E" d="M120.871,25.886l7.574-4.912c2.558-1.638,5.627-1.945,8.288-0.819c1.638,0.715,3.071,1.842,3.991,3.377
			l70.716,109.503c1.229,1.842,2.458,3.377,3.788,4.708c1.433,1.33,2.865,2.354,4.297,3.172l-0.818,1.842l0,0l1.126-1.739
			l1.227,0.614l0,0c0,0,0,0,0.104,0l0.409,0.102c1.329,0.512,2.661,0.716,3.991,0.716c0,0,0,0,0.102,0c0.409,0,0.819,0,1.332,0
			c0.51,0,0.92-0.102,1.329-0.204c0.512-0.104,0.921-0.205,1.331-0.307c0.205-0.104,0.409-0.104,0.718-0.307
			c1.124-0.41,2.148-0.92,3.07-1.535c1.431-0.922,3.377-0.82,4.706,0.307c0.309,0.307,0.614,0.613,0.821,0.92l167.22,254.415
			c1.127,1.741,1.026,3.992-0.307,5.631l-5.014,6.241c-1.942,2.457-4.398,4.605-7.061,6.347l-19.957,12.996
			c-2.662,1.74-5.526,3.071-8.597,3.889l-7.775,2.044c-1.436,0.414-3.071,0-4.198-0.92c-0.407-0.309-0.715-0.716-1.021-1.124
			L186.674,175.405c-1.229-1.842-0.716-4.298,1.127-5.527c1.227-0.819,2.25-1.74,3.171-2.866c0.922-1.125,1.638-2.251,2.148-3.479
			c0.206-0.409,0.308-0.819,0.411-1.228c0.204-0.614,0.307-1.229,0.409-1.944c0-0.103,0-0.205,0-0.41c0,0,0-0.205,0-0.307
			c0-0.102,0-0.102,0-0.204c0-0.205,0-0.512,0-0.819c0-0.307,0-0.614,0-1.022l0,0c0-0.104,0-0.104,0-0.104
			c-0.102-1.637-0.512-3.479-1.127-5.219c-0.614-1.739-1.534-3.582-2.763-5.322l-62.733-94.97l-9.109-13.816
			c-0.716-1.126-1.227-2.456-1.432-3.889c-0.204-1.637,0.103-3.275,0.818-4.707C118.415,28.035,119.541,26.808,120.871,25.886z"/>
		<g>
			
				<path fill="#FFFFFF" stroke="#4E4E4E" stroke-width="3.9252" stroke-linecap="round" stroke-linejoin="round" stroke-miterlimit="10" d="
				M404.556,396.766c0.614,1.021,0.614,2.25-0.207,3.272l-5.013,6.244c-1.842,2.353-4.092,4.3-6.547,5.936l-19.957,12.996
				c-2.457,1.639-5.22,2.867-8.089,3.584l-7.775,2.046c-1.127,0.309-2.355-0.206-2.97-1.126L188.313,174.38
				c-0.614-0.921-0.411-2.148,0.613-2.763c1.023-0.716,2.354-1.739,3.583-3.172c0.92-1.126,1.841-2.456,2.456-3.992
				c0.205-0.511,0.409-1.022,0.511-1.535c0.207-0.614,0.309-1.33,0.411-2.047c0-0.204,0.102-0.408,0.102-0.715
				c0-0.102,0-0.307,0-0.409c0-0.307,0-0.614,0-0.921c0-0.41,0-0.819,0-1.228v-0.104c-0.102-1.739-0.512-3.684-1.33-5.833
				c-0.716-2.046-1.74-3.991-2.967-5.73l-62.737-94.972l-4.297-6.448l-4.809-7.368c-0.614-0.921-0.921-1.944-1.127-2.967
				c-0.102-1.228,0.102-2.559,0.614-3.684c0.513-1.126,1.331-2.047,2.457-2.763l7.572-4.913c1.945-1.228,4.402-1.535,6.448-0.717
				c1.229,0.512,2.353,1.433,3.07,2.559l0,0l4.708,7.368l4.197,6.448l61.71,95.687c1.227,1.842,2.557,3.48,4.093,5.015
				c1.637,1.536,3.171,2.66,4.811,3.48c0.102,0,0.204,0.102,0.306,0.102c0.204,0.103,0.411,0.205,0.614,0.307
				c0.204,0.103,0.512,0.205,0.716,0.307c0.102,0,0.102,0.104,0.205,0.104c0.102,0,0.204,0.102,0.409,0.102
				c1.638,0.614,3.173,0.82,4.708,0.921l0,0c0.512,0,1.024,0,1.534-0.102c0.512,0,1.024-0.104,1.536-0.206
				c0.512-0.102,1.024-0.205,1.536-0.409c0.306-0.104,0.614-0.206,0.92-0.307c1.434-0.513,2.662-1.126,3.482-1.74
				c0.92-0.614,2.148-0.307,2.763,0.614l2.456,3.684L404.556,396.766z"/>
			<path fill="#66C4EF" d="M250.125,214.292L126.296,24.76l3.068-2.047c1.843-1.228,4.195-1.637,6.243-0.921
				c1.434,0.512,2.661,1.433,3.479,2.661l0,0l4.709,7.369l4.195,6.447l61.71,95.688c1.227,1.842,2.559,3.479,4.095,5.015
				c1.636,1.535,3.172,2.661,4.809,3.479c0.102,0,0.204,0.104,0.306,0.104c0.207,0.102,0.411,0.204,0.614,0.307
				c0.309,0.102,0.513,0.204,0.718,0.307c0.102,0,0.102,0.102,0.204,0.102c0.104,0,0.206,0.102,0.411,0.102
				c1.638,0.614,3.273,0.819,4.708,0.921l0,0c0.307,0,2.558-0.409,5.527-0.921c1.841-0.307,3.991-0.715,6.242-1.125
				c-6.856,15.044,7.368,54.239,14.123,71.228C251.865,214.396,250.637,215.111,250.125,214.292z"/>
			<path fill="#4E4E4E" d="M280.726,261.266c0,0,6.649,8.495,16.067,21.697c2.354,3.275,4.911,6.856,7.573,10.644
				c2.658,3.788,5.421,7.779,8.29,11.974c2.864,4.195,5.834,8.492,8.697,12.897c2.969,4.398,5.934,8.902,8.903,13.402
				c2.97,4.504,5.833,9.109,8.697,13.509c2.869,4.404,5.632,8.902,8.29,13.202c5.324,8.597,10.237,16.685,14.43,23.639
				c8.289,13.922,13.407,23.441,13.407,23.441s-6.653-8.498-16.065-21.7c-4.711-6.547-10.131-14.329-15.863-22.719
				c-2.864-4.195-5.834-8.495-8.697-12.895c-2.97-4.398-5.938-8.902-8.904-13.409c-2.969-4.497-5.834-9.103-8.701-13.508
				c-2.865-4.398-5.628-8.902-8.29-13.202c-2.657-4.297-5.22-8.489-7.675-12.382c-2.457-3.991-4.706-7.674-6.755-11.152
				C285.841,270.782,280.726,261.266,280.726,261.266z"/>
			<path fill="#4E4E4E" d="M147.479,37.247c0,0-0.206,0.204-0.614,0.511c-0.411,0.306-1.023,0.819-1.638,1.433
				c-1.432,1.126-3.275,2.661-5.22,3.991c-3.888,2.763-8.084,5.219-8.084,5.219l-4.197-7.47c0,0,4.095-1.946,8.086-4.298
				c1.945-1.126,3.888-2.457,5.322-3.377c0.716-0.512,1.329-0.921,1.74-1.229c0.409-0.306,0.614-0.511,0.614-0.511L147.479,37.247z"
				/>
		</g>
	</g>
</g>
<g>
	<path fill="#4E4E4E" d="M261.996,462.16c-11.563,0-22.821-2.148-33.464-6.245c-2.253-0.923-4.503-1.843-6.754-2.966
		c-4.503-2.254-8.904-4.81-12.999-7.674l-0.306-0.207c-2.15-1.534-4.3-3.17-6.345-5.013l-0.718-0.614
		c-1.843-1.64-3.684-3.377-5.525-5.221c-1.331-1.432-2.661-2.867-3.89-4.297c-2.252-2.663-4.402-5.426-6.345-8.291
		c-0.716-1.024-1.434-2.148-2.048-3.274l-0.613-1.022c-0.511-0.92-1.023-1.74-1.536-2.664c-0.92-1.74-1.843-3.476-2.659-5.217
		c-0.513-1.021-1.025-2.151-1.434-3.173c-4.911-11.465-7.47-23.744-7.47-36.332c0-50.858,41.345-92.309,92.309-92.309
		c24.767,0,48.101,9.721,65.499,27.324c1.022,1.022,1.943,2.044,2.865,3.071c2.25,2.457,4.298,5.014,6.241,7.678
		c1.434,1.941,2.868,4.09,4.097,6.14c1.736,2.763,3.271,5.726,4.705,8.597c0.821,1.734,1.637,3.577,2.355,5.318
		c1.536,3.785,2.763,7.776,3.785,11.768c0.614,2.354,1.128,4.914,1.535,7.27c0.715,4.09,1.021,8.288,1.229,12.381
		c0,0.92,0,1.84,0,2.661c0,1.944-0.102,3.893-0.207,5.834C351.033,424.192,310.607,462.16,261.996,462.16z"/>
	<path fill="#FFFFFF" d="M349.499,369.849c0,1.843-0.106,3.686-0.207,5.528c-2.863,45.744-40.833,81.971-87.296,81.971
		c-11.156,0-21.901-2.148-31.726-5.933l0,0c-2.148-0.821-4.297-1.741-6.344-2.763l0,0c-4.402-2.148-8.699-4.711-12.69-7.474l0,0
		c-2.046-1.429-4.093-3.071-6.038-4.707l0,0c-2.047-1.741-3.992-3.584-5.936-5.525c-1.229-1.331-2.457-2.664-3.686-3.991
		c-2.148-2.557-4.195-5.118-6.037-7.881c-0.718-1.021-1.332-2.044-1.946-3.071c-0.204-0.309-0.407-0.717-0.613-1.022
		c-0.511-0.82-1.023-1.636-1.432-2.556c-0.921-1.642-1.739-3.278-2.559-5.019c-0.511-1.022-0.921-2.044-1.432-3.071
		c-4.502-10.539-7.061-22.204-7.061-34.486c0-48.303,39.195-87.5,87.499-87.5c24.257,0,46.257,9.925,62.121,25.89
		c0.92,0.923,1.842,1.843,2.763,2.87c2.048,2.35,4.092,4.705,5.935,7.261c1.334,1.948,2.662,3.893,3.89,5.834
		c1.636,2.664,3.071,5.325,4.398,8.189c0.821,1.636,1.536,3.275,2.15,5.013c1.434,3.584,2.662,7.369,3.584,11.159l0,0
		c0.614,2.25,1.021,4.605,1.434,6.955c0.614,3.893,1.021,7.781,1.122,11.772l0,0C349.499,368.107,349.499,369.027,349.499,369.849z"
		/>
	<path fill="#F16465" d="M325.651,318.576c0,0.207,0.207,0.821,0.308,1.33c0.307,0.92,0.614,1.948,0.307,3.068
		c-0.307,1.13-1.127,1.843-1.843,2.563c-0.306,0.309-0.819,0.814-0.92,1.021c-0.102,0.207,0,0.923,0.101,1.33
		c0.207,0.92,0.412,2.047,0,3.177c-0.407,1.021-1.329,1.734-2.044,2.247c-0.412,0.309-0.921,0.716-1.026,0.923
		c-0.102,0.207,0,0.92,0,1.327c0.105,1.028,0.206,2.05-0.407,3.072c-0.514,1.024-1.436,1.533-2.356,2.046
		c-0.408,0.207-1.021,0.614-1.122,0.821c-0.105,0.201-0.105,0.815-0.105,1.33c0,1.022,0,2.047-0.714,3.068
		c-0.615,0.923-1.637,1.436-2.458,1.843c-0.407,0.207-1.021,0.513-1.227,0.717c-0.102,0.203-0.207,0.817-0.308,1.333
		c-0.102,0.92-0.206,2.044-0.921,2.964s-1.741,1.229-2.662,1.642c-0.408,0.201-1.022,0.408-1.229,0.614
		c-0.201,0.201-0.308,0.815-0.408,1.327c-0.206,0.92-0.41,2.05-1.126,2.865c-0.717,0.821-1.843,1.127-2.765,1.433
		c-0.508,0.102-1.122,0.309-1.227,0.515c-0.203,0.201-0.308,0.815-0.409,1.229c-0.205,0.92-0.513,1.942-1.328,2.763
		c-0.82,0.815-1.843,1.022-2.766,1.229c-0.511,0.1-1.125,0.201-1.332,0.408c-0.203,0.203-0.407,0.817-0.508,1.226
		c-0.307,0.923-0.614,1.944-1.435,2.663c-0.82,0.717-1.945,0.92-2.866,1.022c-0.511,0.102-1.125,0.206-1.331,0.306
		c-0.203,0.206-0.407,0.82-0.614,1.229c-0.307,0.923-0.714,1.944-1.636,2.664c-0.921,0.713-1.943,0.814-2.97,0.92
		c-0.508,0.102-1.122,0.102-1.329,0.309c-0.206,0.099-0.407,0.713-0.614,1.229c-0.407,0.92-0.819,1.84-1.74,2.556
		c-0.922,0.614-2.044,0.713-2.965,0.821c-0.513,0-1.127,0.099-1.334,0.2c-0.2,0.105-0.508,0.72-0.715,1.127
		c-0.407,0.821-0.921,1.843-1.843,2.457c-0.92,0.614-2.048,0.614-2.968,0.614c-0.51,0-1.124,0-1.329,0.099
		c-0.206,0.105-0.514,0.72-0.715,1.127c-0.514,0.821-1.027,1.744-1.947,2.358c-1.021,0.611-2.044,0.506-3.071,0.506
		c-0.508,0-1.122,0-1.329,0.105c-0.205,0.102-0.511,0.716-0.819,1.123c-0.51,0.821-1.021,1.741-2.045,2.254
		c-1.023,0.509-2.049,0.41-3.07,0.41c-0.513,0-1.127-0.102-1.33,0c-0.205,0.099-0.614,0.614-0.818,1.021
		c-0.513,0.818-1.127,1.741-2.149,2.149c-1.023,0.512-2.15,0.305-3.07,0.206c-0.512-0.102-1.126-0.102-1.332,0
		c-0.204,0.099-0.613,0.614-0.921,1.022c-0.509,0.817-1.227,1.636-2.25,2.046c-1.023,0.408-2.148,0.309-3.07,0.103
		c-0.513-0.103-1.127-0.204-1.331-0.103c-0.206,0.103-0.614,0.614-0.921,1.022c-0.614,0.719-1.229,1.537-2.354,1.947
		c-1.023,0.407-2.15,0.204-3.07,0c-0.512-0.104-1.126-0.207-1.33-0.207c-0.206,0.103-0.716,0.614-1.025,0.923
		c-0.614,0.714-1.331,1.534-2.456,1.843c-1.125,0.306-2.15,0-3.07-0.206c-0.409-0.103-1.125-0.309-1.331-0.204
		c-0.205,0.102-0.716,0.51-1.022,0.923c-0.719,0.713-1.435,1.43-2.561,1.735c-1.125,0.309-2.251-0.1-3.07-0.408
		c-0.409-0.099-1.023-0.306-1.33-0.306c-0.307,0.103-0.716,0.513-1.127,0.821c-0.716,0.611-1.534,1.327-2.659,1.534
		c-1.125,0.201-2.252-0.207-3.07-0.614c-0.411-0.207-1.025-0.413-1.229-0.413c-0.307,0-0.818,0.413-1.229,0.719
		c-0.716,0.614-1.638,1.229-2.763,1.33c-1.127,0.103-2.252-0.41-3.07-0.92c-0.411-0.206-0.922-0.515-1.228-0.515l0,0
		c-0.309,0-0.821,0.309-1.332,0.614c-0.818,0.512-1.74,1.024-2.764,1.024h-0.102c-1.227,0-2.148-0.716-2.968-1.33
		c-0.307-0.204-0.921-0.614-1.125-0.614c-0.306,0-0.92,0.206-1.331,0.41c-0.921,0.309-1.944,0.716-3.071,0.51
		c-1.227-0.306-2.045-1.121-2.763-1.843c-0.306-0.306-0.716-0.815-0.92-0.815c-0.204-0.104-0.716-0.104-1.229,0
		c-0.511-1.024-0.921-2.047-1.432-3.068c0.307,0,0.614,0,0.818-0.107c0.921-0.1,1.843-0.201,2.866,0.206
		c0.921,0.309,1.536,1.022,2.15,1.637c0.306,0.413,0.818,0.923,1.124,0.923c0.207,0,0.82-0.204,1.229-0.408
		c0.82-0.309,1.843-0.716,2.868-0.614c1.022,0.1,1.841,0.714,2.558,1.226c0.409,0.309,1.023,0.717,1.227,0.717
		c0.207,0,0.819-0.306,1.229-0.614c0.819-0.51,1.741-1.022,2.763-1.022c1.023,0,1.945,0.408,2.763,0.92
		c0.411,0.207,1.025,0.516,1.331,0.516c0.207,0,0.819-0.413,1.126-0.719c0.716-0.51,1.636-1.229,2.661-1.331
		c1.023-0.099,2.046,0.309,2.864,0.614c0.411,0.207,1.127,0.408,1.331,0.408c0.205,0,0.718-0.51,1.023-0.815
		c0.718-0.614,1.536-1.333,2.561-1.534c1.021-0.207,2.045,0.099,2.966,0.407c0.512,0.207,1.126,0.408,1.331,0.306
		c0.205-0.099,0.716-0.512,1.023-0.82c0.614-0.611,1.434-1.43,2.456-1.735c1.025-0.309,2.048,0,2.97,0.201
		c0.512,0.104,1.125,0.309,1.331,0.206c0.204-0.102,0.716-0.614,1.023-0.92c0.614-0.716,1.329-1.537,2.354-1.843
		c1.023-0.309,2.046-0.102,2.966,0.1c0.513,0.107,1.127,0.206,1.331,0.107c0.205-0.107,0.614-0.614,0.921-0.923
		c0.614-0.719,1.229-1.534,2.252-1.948c1.023-0.407,2.046-0.2,2.968-0.099c0.511,0.099,1.125,0.207,1.332,0.099
		c0.204-0.099,0.613-0.614,0.92-1.021c0.511-0.713,1.229-1.636,2.148-2.047c1.025-0.407,2.046-0.309,2.968-0.203
		c0.511,0.102,1.125,0.102,1.332,0c0.204-0.105,0.613-0.72,0.818-1.025c0.511-0.814,1.125-1.636,2.046-2.148
		c1.022-0.509,2.047-0.407,2.969-0.309c0.511,0,1.125,0.105,1.328,0c0.207-0.099,0.615-0.713,0.821-1.12
		c0.51-0.821,1.022-1.744,2.045-2.257c0.922-0.509,2.047-0.509,2.969-0.509c0.514,0,1.128,0,1.328-0.105
		c0.207-0.099,0.515-0.713,0.72-1.12c0.409-0.821,0.921-1.744,1.943-2.355c0.921-0.614,2.048-0.614,2.969-0.614
		c0.408,0,1.123,0,1.329-0.102c0.207-0.105,0.514-0.72,0.715-1.127c0.412-0.821,0.922-1.741,1.843-2.355
		c0.92-0.614,1.948-0.716,2.868-0.716c0.408,0,1.123-0.099,1.328-0.207c0.207-0.099,0.515-0.814,0.614-1.229
		c0.408-0.814,0.821-1.84,1.637-2.454c0.921-0.614,1.947-0.814,2.869-0.923c0.407-0.099,1.122-0.099,1.328-0.306
		c0.206-0.102,0.408-0.815,0.613-1.229c0.307-0.815,0.716-1.843,1.535-2.556c0.821-0.717,1.844-0.821,2.764-1.022
		c0.408-0.104,1.125-0.206,1.328-0.309c0.207-0.206,0.414-0.817,0.515-1.229c0.307-0.92,0.614-1.84,1.434-2.66
		c0.816-0.717,1.843-1.022,2.764-1.127c0.408-0.102,1.122-0.204,1.328-0.407c0.206-0.207,0.307-0.821,0.409-1.331
		c0.205-0.92,0.512-1.947,1.227-2.66c0.721-0.821,1.742-1.13,2.662-1.331c0.409-0.104,1.128-0.306,1.229-0.512
		c0.207-0.207,0.308-0.821,0.408-1.331c0.206-0.92,0.307-1.947,1.025-2.763c0.715-0.818,1.737-1.229,2.558-1.534
		c0.408-0.207,1.127-0.413,1.229-0.614c0.101-0.207,0.206-0.92,0.308-1.333c0.101-0.92,0.205-1.942,0.819-2.865
		c0.614-0.92,1.636-1.327,2.457-1.74c0.407-0.201,1.021-0.51,1.122-0.714c0.105-0.206,0.105-0.923,0.205-1.33
		c0-0.92,0-1.947,0.614-2.867c0.515-0.924,1.436-1.43,2.251-1.945c0.412-0.203,1.026-0.614,1.127-0.818
		c0.102-0.203,0.102-0.923,0-1.33c-0.101-0.92-0.101-1.941,0.307-2.97c0.409-1.021,1.329-1.636,2.05-2.148
		c0.407-0.306,0.92-0.716,1.021-0.92c0.101-0.203,0-0.923-0.102-1.33c-0.205-0.92-0.412-1.941,0-2.97
		c0.307-1.021,1.123-1.734,1.736-2.349c0.307-0.309,0.821-0.821,0.921-1.028c0.106-0.2-0.2-0.92-0.307-1.327
		c-0.308-0.821-0.614-1.843-0.407-2.864c0.206-1.028,0.82-1.843,1.434-2.563c0.307-0.306,0.716-0.923,0.816-1.124
		c0-0.206-0.308-0.82-0.51-1.229c-0.412-0.817-0.819-1.74-0.819-2.864c0-0.716,0.308-1.433,0.614-2.047
		c0.92,0.92,1.842,1.843,2.763,2.865c0.101,0.206,0.207,0.41,0.308,0.614c0.407,0.92,0.921,1.84,0.819,3.068
		c-0.105,1.13-0.819,2.05-1.434,2.763C326.059,317.863,325.651,318.369,325.651,318.576z"/>
	<path fill="#4E4E4E" d="M186.778,414.573c0,0.099,0.102,0.201,0.102,0.306c-0.513-0.817-1.023-1.639-1.434-2.562
		C186.164,413.039,186.471,413.854,186.778,414.573z"/>
	<path fill="#F16465" d="M335.271,327.994c0.307,0.92,0.719,2.043,0.412,3.17c-0.308,1.127-1.127,1.944-1.842,2.559
		c-0.413,0.411-0.821,0.818-0.921,1.025c-0.105,0.2,0.1,0.92,0.1,1.429c0.207,1.028,0.408,2.05,0,3.177
		c-0.407,1.124-1.329,1.738-2.148,2.35c-0.407,0.309-0.921,0.722-1.021,0.923c-0.106,0.206,0,0.92,0,1.435
		c0.101,1.022,0.201,2.148-0.308,3.171c-0.514,1.024-1.535,1.639-2.354,2.148c-0.408,0.306-1.022,0.614-1.129,0.82
		c-0.1,0.207-0.1,0.92-0.1,1.433c0,1.021,0,2.151-0.614,3.071c-0.614,1.022-1.637,1.43-2.557,1.843
		c-0.514,0.201-1.027,0.51-1.229,0.713c-0.104,0.207-0.206,0.924-0.307,1.331c-0.105,1.024-0.207,2.047-0.922,3.068
		c-0.719,0.923-1.74,1.333-2.662,1.642c-0.513,0.201-1.127,0.408-1.227,0.614c-0.207,0.201-0.308,0.815-0.409,1.328
		c-0.205,1.021-0.308,2.049-1.127,2.969c-0.715,0.815-1.843,1.229-2.763,1.43c-0.514,0.107-1.128,0.309-1.329,0.516
		c-0.207,0.206-0.307,0.817-0.413,1.327c-0.201,0.923-0.508,2.05-1.329,2.871c-0.819,0.814-1.941,1.021-2.863,1.327
		c-0.514,0.102-1.128,0.306-1.333,0.407c-0.202,0.207-0.408,0.821-0.51,1.334c-0.308,0.923-0.614,2.043-1.434,2.763
		c-0.821,0.716-1.943,0.923-2.865,1.123c-0.512,0.105-1.126,0.207-1.333,0.414c-0.201,0.2-0.407,0.814-0.614,1.226
		c-0.306,0.923-0.715,1.944-1.635,2.657c-0.921,0.72-2.05,0.821-2.97,0.923c-0.509,0.105-1.123,0.105-1.429,0.306
		c-0.207,0.207-0.514,0.821-0.721,1.229c-0.407,0.92-0.815,1.948-1.736,2.563c-0.922,0.713-2.048,0.713-2.97,0.814
		c-0.513,0-1.229,0.105-1.434,0.207c-0.202,0.102-0.51,0.713-0.715,1.229c-0.407,0.92-0.922,1.843-1.843,2.454
		c-0.922,0.614-2.048,0.614-3.07,0.716c-0.514,0-1.229,0-1.434,0.207c-0.202,0.099-0.509,0.713-0.816,1.229
		c-0.412,0.818-1.026,1.84-1.947,2.454c-1.022,0.614-2.148,0.516-3.07,0.516c-0.508,0-1.122,0-1.43,0.099
		c-0.206,0.103-0.614,0.717-0.82,1.13c-0.513,0.815-1.022,1.735-2.049,2.35c-1.021,0.512-2.148,0.512-3.069,0.413
		c-0.508,0-1.122-0.107-1.43,0c-0.206,0.099-0.614,0.713-0.921,1.121c-0.514,0.82-1.128,1.74-2.15,2.256
		c-1.024,0.507-2.148,0.407-3.071,0.306c-0.511,0-1.125-0.104-1.433,0c-0.205,0.102-0.614,0.716-0.919,1.124
		c-0.615,0.82-1.229,1.639-2.252,2.148c-1.025,0.413-2.15,0.306-3.174,0.104c-0.511-0.104-1.125-0.207-1.432-0.104
		c-0.205,0.104-0.718,0.614-1.023,1.027c-0.614,0.713-1.33,1.637-2.354,2.044c-1.126,0.41-2.15,0.203-3.173,0
		c-0.511-0.103-1.125-0.204-1.432-0.103c-0.307,0.103-0.718,0.614-1.023,1.022c-0.614,0.719-1.331,1.534-2.457,1.947
		c-1.125,0.306-2.148,0.103-3.172-0.206c-0.512-0.1-1.126-0.306-1.331-0.207c-0.307,0.107-0.717,0.516-1.125,0.923
		c-0.716,0.719-1.434,1.433-2.559,1.741c-1.126,0.306-2.253-0.103-3.173-0.408c-0.511-0.104-1.125-0.309-1.331-0.309
		c-0.306,0.103-0.818,0.51-1.127,0.815c-0.716,0.614-1.534,1.436-2.659,1.537c-1.125,0.207-2.252-0.201-3.173-0.614
		c-0.409-0.201-1.023-0.407-1.329-0.407c-0.309,0-0.821,0.407-1.229,0.713c-0.82,0.614-1.638,1.229-2.763,1.333
		c-1.229,0.103-2.252-0.41-3.072-0.92c-0.409-0.206-1.021-0.512-1.229-0.512l0,0c-0.306,0-0.818,0.306-1.329,0.614
		c-0.82,0.512-1.74,1.021-2.866,1.021h-0.102c-1.229,0-2.252-0.716-2.969-1.33c-0.408-0.306-0.92-0.614-1.124-0.714
		c-0.309,0-0.921,0.201-1.434,0.408c-0.921,0.407-1.943,0.817-3.07,0.512c-1.229-0.306-2.046-1.126-2.763-1.947
		c-0.309-0.306-0.716-0.815-1.025-0.92c-0.204-0.102-0.716-0.102-1.125,0c-0.716-1.021-1.329-2.044-1.943-3.071
		c0.204,0.104,0.92,0,1.329,0c0.921-0.103,1.944-0.201,2.866,0.104c0.919,0.309,1.637,1.022,2.251,1.637
		c0.409,0.407,0.818,0.923,1.125,1.021c0.204,0,0.92-0.204,1.33-0.407c0.818-0.306,1.843-0.717,2.967-0.614
		c1.024,0.102,1.843,0.716,2.662,1.229c0.409,0.306,1.023,0.716,1.329,0.716l0,0c0.207,0,0.821-0.41,1.229-0.614
		c0.819-0.51,1.741-1.021,2.868-1.124c1.021,0,1.943,0.408,2.864,0.815c0.513,0.207,1.127,0.513,1.331,0.513
		s0.818-0.408,1.125-0.714c0.716-0.614,1.638-1.229,2.765-1.333c1.021-0.102,2.046,0.207,2.966,0.614
		c0.512,0.207,1.126,0.41,1.432,0.41c0.206,0,0.718-0.512,1.127-0.817c0.716-0.614,1.534-1.331,2.661-1.637
		c1.023-0.207,2.047,0.099,2.967,0.408c0.512,0.206,1.126,0.407,1.434,0.305c0.205-0.099,0.716-0.614,1.023-0.92
		c0.716-0.716,1.432-1.435,2.559-1.74c1.023-0.309,2.046,0,2.966,0.206c0.512,0.1,1.126,0.306,1.434,0.204
		c0.206-0.104,0.716-0.611,1.023-0.92c0.614-0.719,1.331-1.534,2.456-1.947c1.025-0.408,2.048-0.103,3.07,0
		c0.512,0.104,1.229,0.206,1.434,0.104c0.205-0.104,0.614-0.614,0.921-1.024c0.614-0.717,1.229-1.637,2.354-2.044
		c1.023-0.413,2.046-0.207,3.07-0.104c0.513,0.104,1.229,0.203,1.433,0.104c0.205-0.104,0.614-0.614,0.921-1.027
		c0.511-0.815,1.228-1.637,2.252-2.148c1.023-0.408,2.047-0.309,3.071-0.201c0.51,0.099,1.228,0.099,1.433,0
		c0.204-0.107,0.612-0.719,0.92-1.13c0.513-0.817,1.127-1.74,2.149-2.247c1.025-0.516,2.047-0.413,2.969-0.413
		c0.512,0,1.227,0.104,1.434,0c0.204-0.103,0.614-0.717,0.818-1.124c0.511-0.818,1.022-1.741,2.045-2.253
		c1.024-0.51,2.049-0.51,2.969-0.51c0.512,0,1.229,0,1.433-0.105c0.204-0.102,0.511-0.716,0.818-1.229
		c0.41-0.814,0.921-1.843,1.944-2.349c0.922-0.614,2.047-0.614,2.968-0.614c0.513,0,1.228,0,1.435-0.207
		c0.203-0.102,0.511-0.716,0.714-1.229c0.411-0.821,0.922-1.843,1.843-2.457c0.922-0.614,2.049-0.713,2.97-0.818
		c0.511,0,1.228-0.102,1.433-0.203c0.204-0.105,0.511-0.818,0.716-1.229c0.408-0.92,0.818-1.84,1.637-2.56
		c0.921-0.716,1.944-0.817,2.865-0.923c0.512-0.099,1.229-0.099,1.332-0.306c0.204-0.2,0.408-0.814,0.614-1.33
		c0.306-0.92,0.715-1.941,1.534-2.661c0.818-0.716,1.943-0.923,2.865-1.021c0.512-0.102,1.126-0.207,1.33-0.407
		c0.204-0.207,0.41-0.821,0.511-1.334c0.308-0.923,0.614-1.944,1.436-2.657c0.818-0.72,1.842-1.028,2.763-1.229
		c0.511-0.104,1.125-0.309,1.329-0.413c0.205-0.201,0.307-0.815,0.513-1.327c0.203-0.923,0.511-1.945,1.229-2.763
		c0.714-0.821,1.843-1.13,2.66-1.436c0.511-0.102,1.124-0.309,1.331-0.51c0.203-0.206,0.307-0.923,0.407-1.333
		c0.207-0.92,0.307-1.941,1.024-2.864c0.718-0.818,1.74-1.226,2.56-1.534c0.511-0.207,1.125-0.408,1.229-0.614
		c0.203-0.207,0.203-0.92,0.307-1.436c0.101-0.92,0.204-2.044,0.818-2.861c0.612-0.924,1.638-1.331,2.455-1.741
		c0.411-0.204,1.126-0.51,1.229-0.717c0.103-0.206,0.103-0.92,0.103-1.435c0-0.92,0-2.044,0.614-2.967
		c0.511-0.92,1.432-1.534,2.25-1.944c0.411-0.204,1.025-0.614,1.127-0.818s0.102-0.92,0-1.433c-0.102-0.92-0.205-1.944,0.307-2.969
		c0.408-1.022,1.329-1.637,2.047-2.148c0.41-0.31,0.922-0.717,1.024-0.92c0.101-0.207,0-0.924-0.103-1.433
		c-0.204-0.923-0.411-1.948-0.104-2.97c0.307-1.021,1.126-1.741,1.74-2.454c0.308-0.309,0.922-0.821,0.922-1.024
		c0.101-0.204-0.207-0.92-0.307-1.433c-0.308-0.92-0.615-1.843-0.411-2.97c0.204-1.021,0.818-1.843,1.433-2.556
		c0.307-0.41,0.718-0.923,0.821-1.229c0-0.207-0.308-0.92-0.515-1.33c-0.407-0.72-0.817-1.64-0.817-2.56
		c1.332,1.945,2.659,3.89,3.888,5.831c-0.308,0.411-0.614,0.821-0.922,1.229c-0.307,0.411-0.714,0.923-0.817,1.127
		C334.963,326.966,335.17,327.58,335.271,327.994z"/>
	<g>
		<path fill="#F16465" d="M341.103,332.393c-0.2,1.436-0.612,2.97-0.92,4.398l3.07,0.72c0-0.105,0-0.105,0-0.207
			C342.538,335.77,341.823,334.028,341.103,332.393z M338.34,343.039c-0.715,2.044-1.534,3.991-2.455,6.035l2.869,1.333
			c0.92-2.05,1.736-4.198,2.556-6.247L338.34,343.039z M332.92,354.905c-1.026,1.843-2.149,3.79-3.378,5.633l2.658,1.735
			c1.228-1.941,2.456-3.884,3.482-5.831L332.92,354.905z M325.858,365.857c-1.229,1.74-2.662,3.479-4.098,5.117l2.457,2.044
			c1.434-1.735,2.867-3.476,4.196-5.318L325.858,365.857z M317.464,375.89c-1.431,1.534-2.965,3.17-4.605,4.704l2.255,2.25
			c1.635-1.534,3.17-3.17,4.706-4.806L317.464,375.89z M308.051,384.992c-1.641,1.436-3.277,2.871-5.018,4.3l1.947,2.457
			c1.736-1.432,3.479-2.864,5.113-4.3L308.051,384.992z M297.814,393.389c-1.738,1.33-3.579,2.556-5.32,3.887l1.842,2.562
			c1.843-1.333,3.684-2.562,5.426-3.893L297.814,393.389z M286.967,400.858c-1.841,1.229-3.684,2.355-5.627,3.477l1.636,2.766
			c1.943-1.124,3.785-2.353,5.732-3.479L286.967,400.858z M275.708,407.612c-1.943,1.022-3.885,2.047-5.832,3.068l1.434,2.865
			c1.943-1.022,3.991-2.044,5.935-3.171L275.708,407.612z M263.941,413.65c-1.945,0.923-3.991,1.843-6.038,2.658l1.229,2.87
			c2.047-0.923,4.095-1.843,6.138-2.763L263.941,413.65z M251.865,418.766c-2.046,0.821-4.095,1.534-6.14,2.256l1.022,2.964
			c2.048-0.716,4.196-1.534,6.243-2.353L251.865,418.766z M239.379,423.065c-2.148,0.611-4.297,1.226-6.345,1.741l0.819,3.068
			c2.148-0.513,4.297-1.127,6.447-1.84L239.379,423.065z M226.587,426.341c-2.15,0.407-4.402,0.82-6.449,1.126l0.411,3.171
			c2.148-0.306,4.4-0.714,6.652-1.127L226.587,426.341z M195.577,426.853c1.229,1.43,2.457,2.763,3.686,3.991
			c0.306,0.103,0.716,0.103,1.024,0.204l0.408-3.173C198.956,427.668,197.216,427.362,195.577,426.853z M213.692,428.184
			c-2.252,0.206-4.4,0.206-6.549,0.206v3.171c0.306,0,0.716,0,1.022,0c1.843,0,3.788-0.103,5.732-0.207L213.692,428.184z"/>
	</g>
	<path fill="#F16465" d="M348.271,355.52c-0.922,2.97-2.148,6.041-3.584,9.01c-4.196,8.902-10.338,17.7-18.32,26.097
		c-14.223,15.045-33.974,28.553-55.671,38.172c-15.352,6.754-30.907,11.258-43.904,12.486c-2.661,0.306-5.117,0.407-7.572,0.407
		c-2.866,0-5.628-0.207-8.084-0.614l0,0c-2.048-1.436-4.093-3.071-6.04-4.704c5.425,2.043,12.691,2.556,21.39,1.734
		c12.69-1.229,27.837-5.525,42.881-12.175c21.386-9.417,40.728-22.823,54.649-37.455c12.074-12.795,19.751-26.303,22.719-39.913
		C347.451,350.914,347.963,353.17,348.271,355.52z"/>
	<path fill="#F16465" d="M349.499,369.849c0,1.843-0.106,3.686-0.207,5.528c-4.198,8.288-10.131,16.576-17.602,24.46
		c-14.429,15.246-34.592,29.167-56.798,38.885c-15.557,6.961-31.42,11.465-44.725,12.693l0,0l0,0
		c-2.148-0.821-4.297-1.741-6.343-2.763c1.944,0,3.991-0.207,6.14-0.414c12.894-1.229,28.452-5.627,43.7-12.479
		c21.8-9.625,41.549-23.235,55.771-38.179c9.212-9.717,15.966-19.956,20.063-30.288
		C349.499,368.107,349.499,369.027,349.499,369.849z"/>
</g>
</svg>
