<?xml version="1.0" encoding="utf-8"?>
<!-- Generator: Adobe Illustrator 16.0.0, SVG Export Plug-In . SVG Version: 6.00 Build 0)  -->
<!DOCTYPE svg PUBLIC "-//W3C//DTD SVG 1.1//EN" "http://www.w3.org/Graphics/SVG/1.1/DTD/svg11.dtd">
<svg version="1.1" id="Layer_1" xmlns="http://www.w3.org/2000/svg" xmlns:xlink="http://www.w3.org/1999/xlink" x="0px" y="0px"
	 width="500px" height="500px" viewBox="0 0 500 500" enable-background="new 0 0 500 500" xml:space="preserve">
<circle fill="#F16465" cx="145.173" cy="205.641" r="40.758"/>
<g>
	<path fill="#263457" d="M344.75,300.509c0,3.208-2.6,5.809-5.808,5.809c-3.209,0-5.809-2.601-5.809-5.809
		c0-3.205,2.6-5.806,5.809-5.806C342.15,294.703,344.75,297.304,344.75,300.509z"/>
	<circle fill="#263457" cx="43.234" cy="284.84" r="5.808"/>
	<g>
		<g>
			<path fill="#263457" d="M211.051,340.141c-2.252,0-4.375-1.367-5.236-3.594c-1.115-2.891,0.323-6.137,3.217-7.255l48.87-18.86
				c2.877-1.104,6.137,0.32,7.255,3.217c1.115,2.891-0.323,6.137-3.217,7.255l-48.87,18.859
				C212.407,340.018,211.725,340.141,211.051,340.141z"/>
		</g>
		<g>
			<g>
				<path fill="#263457" d="M183.38,375.71c-2.244,0-4.361-1.355-5.227-3.569c-1.129-2.885,0.296-6.14,3.181-7.269l43.827-17.145
					c2.89-1.129,6.14,0.296,7.268,3.181c1.129,2.885-0.296,6.14-3.181,7.268l-43.827,17.146
					C184.75,375.584,184.06,375.71,183.38,375.71z"/>
			</g>
		</g>
		<g>
			<g>
				<path fill="#263457" d="M157.564,412.578c-2.244,0-4.362-1.356-5.228-3.57c-1.128-2.885,0.296-6.139,3.181-7.268l43.827-17.146
					c2.885-1.131,6.142,0.296,7.268,3.181c1.129,2.885-0.296,6.14-3.181,7.269l-43.827,17.146
					C158.934,412.452,158.244,412.578,157.564,412.578z"/>
			</g>
		</g>
		<g>
			<path fill="#263457" d="M316.939,283.186c-16.802,0-32.767-4.255-46.429-13.818c-50.071-35.063-43.748-123.719-4.646-179.564
				c19.679-28.101,47.196-48.265,77.486-56.774c30.692-8.625,60.568-4.293,84.11,12.188c23.545,16.488,37.829,43.076,40.224,74.87
				c2.365,31.372-7.172,64.127-26.849,92.231C412.401,252.926,361.723,283.186,316.939,283.186z M373.788,39.924
				c-8.907,0-18.104,1.293-27.402,3.907c-27.802,7.811-53.133,26.424-71.327,52.41c-36.065,51.506-42.92,132.557,1.89,163.932
				c44.811,31.377,118.631-2.784,154.693-54.292l0,0c18.197-25.986,27.021-56.155,24.854-84.949
				c-2.137-28.377-14.734-52.002-35.474-66.52C407.327,44.82,391.111,39.924,373.788,39.924z M436.239,209.1h0.027H436.239z"/>
		</g>
		<g>
			<path fill="#263457" d="M165.211,477.292c-1.107,0-2.228-0.326-3.203-1.008l-46.879-32.69c-1.225-0.852-2.057-2.156-2.317-3.622
				c-0.26-1.468,0.074-2.978,0.929-4.199l8.915-12.734c4.888-6.976,12.033-12.273,20.123-14.92
				c5.797-1.901,10.92-5.699,14.419-10.698l59.029-84.301c26.342-51.333,19.057-108.055,18.98-108.622
				c-0.417-3.069,1.734-5.896,4.803-6.315c3.063-0.392,5.896,1.729,6.315,4.8c0.337,2.463,7.917,60.958-20.298,115.617
				c-0.115,0.225-0.247,0.441-0.389,0.646l-59.246,84.612c-4.885,6.973-12.03,12.274-20.12,14.923
				c-5.8,1.899-10.923,5.696-14.422,10.696l-5.693,8.129l37.676,26.271l3.997-5.712c3.633-5.187,5.441-11.529,5.09-17.857
				l-0.192-3.441c-0.488-8.824,2.036-17.674,7.104-24.914l58.626-83.73c0.145-0.205,0.304-0.4,0.474-0.586
				c41.715-45.211,99.275-58.093,101.705-58.618c3.022-0.633,6.011,1.269,6.669,4.293c0.657,3.027-1.266,6.014-4.291,6.674
				c-0.562,0.123-56.354,12.677-95.582,54.987l-58.407,83.418c-3.636,5.189-5.444,11.529-5.093,17.854l0.192,3.441
				c0.488,8.83-2.033,17.679-7.101,24.917l-7.211,10.299C168.72,476.459,166.98,477.292,165.211,477.292z"/>
		</g>
		<g>
			<path fill="#263457" d="M266.889,209.858c-1.115,0-2.241-0.332-3.222-1.022c-2.537-1.784-3.146-5.282-1.362-7.816L362.876,58.083
				c1.783-2.534,5.285-3.145,7.816-1.362c2.537,1.784,3.145,5.282,1.361,7.816l-100.57,142.94
				C270.39,209.028,268.653,209.858,266.889,209.858z"/>
		</g>
		<g>
			<path fill="#263457" d="M289.831,247.663c-1.112,0-2.233-0.329-3.214-1.014c-2.537-1.778-3.153-5.276-1.378-7.816L404.103,69.077
				c1.781-2.54,5.276-3.153,7.816-1.378c2.537,1.778,3.153,5.276,1.378,7.816L294.434,245.271
				C293.34,246.83,291.601,247.663,289.831,247.663z"/>
		</g>
		<g>
			<path fill="#263457" d="M333.199,256.29c-1.109,0-2.229-0.328-3.21-1.014c-2.54-1.775-3.159-5.273-1.381-7.813l99.719-142.614
				c1.775-2.537,5.271-3.159,7.813-1.381c2.539,1.775,3.158,5.274,1.381,7.814l-99.719,142.613
				C336.712,255.455,334.97,256.29,333.199,256.29z"/>
		</g>
		<g>
			<path fill="#263457" d="M378.309,232.535c-1.109,0-2.233-0.329-3.214-1.014l-84.886-59.44c-2.537-1.778-3.153-5.277-1.378-7.816
				c1.777-2.537,5.273-3.156,7.815-1.378l84.887,59.44c2.537,1.778,3.153,5.277,1.378,7.816
				C381.818,231.702,380.078,232.535,378.309,232.535z"/>
		</g>
		<g>
			<path fill="#263457" d="M412.124,206.801c-1.112,0-2.232-0.329-3.213-1.014l-123.338-86.363
				c-2.537-1.778-3.153-5.277-1.378-7.816c1.78-2.54,5.276-3.153,7.816-1.378l123.337,86.363c2.537,1.778,3.153,5.277,1.378,7.816
				C415.634,205.968,413.895,206.801,412.124,206.801z"/>
		</g>
		<g>
			<path fill="#263457" d="M404.837,152.287c-1.112,0-2.233-0.329-3.214-1.014L314.57,90.318c-2.537-1.778-3.153-5.276-1.379-7.816
				c1.778-2.534,5.271-3.154,7.816-1.378l87.054,60.955c2.537,1.778,3.153,5.277,1.378,7.816
				C408.347,151.454,406.606,152.287,404.837,152.287z"/>
		</g>
		<g>
			<path fill="#66C4EF" d="M317,260.329c-12.934,0-24.427-3.189-33.487-9.532c-17.021-11.92-26.509-35.72-26.024-65.295
				c0.472-28.775,10.291-58.919,26.942-82.7c33.703-48.123,92.028-65.624,130.03-39.019c38,26.61,41.504,87.41,7.809,135.535
				c-16.652,23.78-41.618,43.317-68.498,53.602C340.849,257.865,328.367,260.326,317,260.329z M373.479,62.497
				c-28.021,0-59.002,16.961-79.854,46.745c-15.399,21.991-24.481,49.854-24.917,76.445c-0.422,25.789,7.32,46.172,21.243,55.917
				l0,0c13.918,9.748,35.715,10.054,59.813,0.835c24.838-9.504,47.914-27.566,63.312-49.558
				c30.147-43.054,27.882-96.845-5.052-119.902C397.872,65.869,385.966,62.497,373.479,62.497z"/>
		</g>
		<g>
			<path fill="#263457" d="M360.999,300.991c-2.358,0-4.553-1.499-5.328-3.857c-0.971-2.945,0.63-6.118,3.572-7.085
				c36.046-11.868,70.843-37.917,93.08-69.684c1.778-2.534,5.274-3.153,7.816-1.378c2.537,1.778,3.153,5.277,1.378,7.816
				c-23.58,33.676-60.5,61.306-98.763,73.903C362.172,300.897,361.58,300.991,360.999,300.991z"/>
		</g>
		<g>
			<path fill="#263457" d="M165.208,477.292c-1.107,0-2.227-0.326-3.203-1.008l-46.876-32.69c-1.225-0.852-2.057-2.156-2.317-3.622
				c-0.258-1.468,0.074-2.978,0.929-4.199l8.915-12.734c4.888-6.976,12.033-12.273,20.123-14.92
				c5.797-1.901,10.92-5.699,14.419-10.698l59.029-84.301c26.405-51.453,19.057-108.055,18.98-108.622
				c-0.107-0.784-0.047-1.564,0.162-2.296c-3.765-37.175,7.811-79.996,30.496-112.398c40.867-58.36,113.354-78.357,161.6-44.585l0,0
				c48.237,33.778,54.234,108.741,13.372,167.104c-23.964,34.221-62.511,60.407-100.601,68.341
				c-12.939,3.367-58.6,17.408-92.801,54.309l-58.407,83.418c-3.636,5.187-5.444,11.529-5.093,17.854l0.192,3.441
				c0.488,8.83-2.033,17.679-7.101,24.917l-7.216,10.299C168.718,476.459,166.978,477.292,165.208,477.292z M126.157,437.605
				l37.673,26.271l4.002-5.712c3.63-5.187,5.438-11.529,5.088-17.857l-0.192-3.441c-0.49-8.827,2.036-17.677,7.107-24.914
				l58.624-83.73c0.145-0.205,0.304-0.4,0.474-0.586c36.304-39.348,84.761-54.263,98.746-57.896
				c35.674-7.438,71.574-31.881,93.963-63.856c37.317-53.295,32.553-121.245-10.616-151.472l0,0
				c-43.169-30.229-108.652-11.465-145.967,41.83c-21.685,30.969-32.515,72.023-28.269,107.144c0.091,0.748,0.03,1.487-0.167,2.186
				c1.241,12.203,4.636,64.15-20.597,113.028c-0.115,0.225-0.247,0.441-0.389,0.646l-59.246,84.612
				c-4.885,6.973-12.03,12.274-20.12,14.923c-5.8,1.899-10.923,5.696-14.422,10.696L126.157,437.605z"/>
		</g>
	</g>
	<g>
		<g>
			<path fill="#263457" d="M139.877,259.159c-11.339,0-22.389-3.461-31.874-10.102c-12.202-8.545-20.35-21.331-22.937-36.002
				c-2.586-14.674,0.696-29.474,9.241-41.676c8.545-12.205,21.331-20.35,36.002-22.937c14.679-2.592,29.474,0.69,41.679,9.238
				c12.203,8.545,20.351,21.331,22.937,36.002c2.586,14.674-0.696,29.474-9.241,41.679c-8.545,12.203-21.331,20.35-36.002,22.937
				C146.411,258.874,143.132,259.159,139.877,259.159z M140.096,158.805c-2.603,0-5.222,0.227-7.835,0.69
				c-11.72,2.065-21.934,8.572-28.761,18.32c-6.827,9.748-9.446,21.572-7.38,33.29c2.065,11.72,8.572,21.934,18.323,28.761
				c9.745,6.824,21.572,9.443,33.29,7.38c11.72-2.065,21.934-8.572,28.761-18.323c6.828-9.748,9.447-21.569,7.381-33.29
				c-2.066-11.72-8.572-21.934-18.323-28.761C157.978,161.569,149.151,158.805,140.096,158.805z"/>
		</g>
		<g>
			<path fill="#263457" d="M175.014,242.217c-1.365,0-2.734-0.493-3.814-1.496c-11.254-10.424-18.619-23.945-21.292-39.098
				c-2.627-14.91-0.441-29.926,6.329-43.424c1.389-2.767,4.753-3.885,7.531-2.501c2.77,1.389,3.89,4.761,2.501,7.531
				c-5.682,11.326-7.518,23.928-5.31,36.443c2.244,12.72,8.424,24.068,17.868,32.818c2.274,2.104,2.408,5.655,0.301,7.929
				C178.024,241.611,176.52,242.217,175.014,242.217z"/>
		</g>
		<g>
			<path fill="#263457" d="M117.636,252.135c-0.854,0-1.723-0.195-2.54-0.611c-2.762-1.405-3.86-4.784-2.455-7.545
				c5.802-11.403,7.693-24.109,5.463-36.748c-2.181-12.38-8.118-23.501-17.167-32.164c-2.238-2.143-2.318-5.693-0.172-7.932
				c2.142-2.238,5.69-2.318,7.931-0.172c10.786,10.323,17.86,23.572,20.46,38.317c2.655,15.058,0.403,30.2-6.515,43.788
				C121.653,251.014,119.68,252.135,117.636,252.135z"/>
		</g>
	</g>
	<g>
		<path fill="#263457" d="M33.827,359.784c-1.112,0-2.232-0.328-3.213-1.014c-2.537-1.777-3.153-5.276-1.378-7.816l61.146-87.327
			c1.781-2.534,5.274-3.153,7.816-1.378c2.537,1.778,3.153,5.276,1.378,7.816L38.43,357.393
			C37.336,358.951,35.597,359.784,33.827,359.784z"/>
	</g>
	<g>
		<path fill="#263457" d="M85.464,336.579c-1.109,0-2.233-0.328-3.214-1.014c-2.537-1.777-3.153-5.276-1.378-7.816l33.791-48.259
			c1.778-2.54,5.277-3.15,7.816-1.378c2.537,1.777,3.153,5.276,1.378,7.815l-33.792,48.26
			C88.974,335.746,87.234,336.579,85.464,336.579z"/>
	</g>
	<g>
		<path fill="#263457" d="M56.057,272.605c-1.109,0-2.233-0.329-3.214-1.014c-2.537-1.778-3.153-5.277-1.378-7.816l16.627-23.748
			c1.781-2.534,5.274-3.153,7.816-1.378c2.537,1.778,3.153,5.277,1.378,7.816l-16.627,23.748
			C59.566,271.772,57.827,272.605,56.057,272.605z"/>
	</g>
</g>
</svg>
