<?xml version="1.0" encoding="utf-8"?>
<!-- Generator: Adobe Illustrator 13.0.0, SVG Export Plug-In . SVG Version: 6.00 Build 14948)  -->
<!DOCTYPE svg PUBLIC "-//W3C//DTD SVG 1.1//EN" "http://www.w3.org/Graphics/SVG/1.1/DTD/svg11.dtd">
<svg version="1.1" id="Layer_1" xmlns="http://www.w3.org/2000/svg" xmlns:xlink="http://www.w3.org/1999/xlink" x="0px" y="0px"
	 width="200px" height="38px" viewBox="50 131 200 38" enable-background="new 50 131 200 38" xml:space="preserve">
<g>
	
		<linearGradient id="SVGID_1_" gradientUnits="userSpaceOnUse" x1="291.4434" y1="-229.6729" x2="324.9805" y2="-229.6729" gradientTransform="matrix(1 0 0 -1 -206 -78)">
		<stop  offset="0" style="stop-color:#F5A9CA"/>
		<stop  offset="0.32" style="stop-color:#EB008B"/>
		<stop  offset="0.67" style="stop-color:#00ADEE"/>
		<stop  offset="1" style="stop-color:#2E3191"/>
	</linearGradient>
	<path fill="url(#SVGID_1_)" d="M122.171,139.928l-16.985,23.869c-1.264,1.774-2.092,2.82-2.976,2.82
		c-0.856,0-1.684-1.036-2.934-2.82l-16.703-23.815c1.677-3.389,4.287-3.907,7.499-2.576l12.26,19.182l12.38-19.182
		C118.246,136.777,121.118,137.076,122.171,139.928z"/>
	
		<radialGradient id="SVGID_2_" cx="326.2686" cy="-212.605" r="9.7726" gradientTransform="matrix(1 0 0 -1 -206 -78)" gradientUnits="userSpaceOnUse">
		<stop  offset="0" style="stop-color:#6CCADB"/>
		<stop  offset="0.8" style="stop-color:#2B4EA1"/>
		<stop  offset="1" style="stop-color:#0F0B42"/>
	</radialGradient>
	<path fill="url(#SVGID_2_)" d="M103.145,145.249c7.939-0.886,11.255-23.432,19.027-5.32
		C118.114,132.028,113.52,149.641,103.145,145.249z"/>
	<g>
		<path fill="none" stroke="#FFFFFF" stroke-width="0.0958" stroke-miterlimit="2.6131" d="M103.345,143.923
			c-0.036-0.041-0.04-0.038-0.071-0.056c-0.185-0.212-1.141-0.806-0.939-1.224c0.073-0.148,0.359-0.451,0.664-0.142
			c0.791,0.801,1.162,0.815,1.897,1.257c0.458,0.277,0.792,0.843,0.809,1.52c0.028,1.269-1.574,1.543-2.778,2.063
			c-0.152,0.065-1.25,0.563-1.365,0.559c-0.121-0.005-0.243-0.146-0.275-0.331c-0.063-0.335,0.355-0.409,0.653-0.538l0.68-0.292
			c0.144-0.06,0.14-0.039,0.219-0.149l-2.001,0.79c-0.232,0.09-0.375,0.002-0.453-0.261c-0.076-0.26,0.021-0.369,0.261-0.462
			c0.214-0.083,1.815-0.679,1.949-0.795c-0.093-0.002-1.17,0.41-1.357,0.478c-0.231,0.084-0.461,0.166-0.692,0.251
			c-0.263,0.097-0.398,0.104-0.504-0.186c-0.175-0.493,0.318-0.537,0.934-0.762c0.164-0.06,1.238-0.405,1.368-0.527
			c-0.105,0-0.81,0.257-0.975,0.313c-0.162,0.055-0.327,0.106-0.489,0.161c-0.179,0.061-0.324,0.143-0.448,0.043
			c-0.107-0.09-0.174-0.277-0.162-0.434c0.016-0.179,0.096-0.224,0.3-0.292C101.528,144.594,102.398,144.274,103.345,143.923z"/>
		
			<radialGradient id="SVGID_3_" cx="312.4453" cy="-220.6445" r="4.7475" gradientTransform="matrix(1 0 0 -1 -206 -78)" gradientUnits="userSpaceOnUse">
			<stop  offset="0" style="stop-color:#FFFFFF"/>
			<stop  offset="0.12" style="stop-color:#F9C8CA"/>
			<stop  offset="0.46" style="stop-color:#EB008B"/>
			<stop  offset="1" style="stop-color:#B84C9B"/>
		</radialGradient>
		<path fill="url(#SVGID_3_)" d="M103.345,143.923c-0.036-0.041-0.04-0.038-0.071-0.056c-0.185-0.212-1.141-0.806-0.939-1.224
			c0.073-0.148,0.359-0.451,0.664-0.142c0.791,0.801,1.162,0.815,1.897,1.257c0.458,0.277,0.792,0.843,0.809,1.52
			c0.028,1.269-1.574,1.543-2.778,2.063c-0.152,0.065-1.25,0.563-1.365,0.559c-0.121-0.005-0.243-0.146-0.275-0.331
			c-0.063-0.335,0.355-0.409,0.653-0.538l0.68-0.292c0.144-0.06,0.14-0.039,0.219-0.149l-2.001,0.79
			c-0.232,0.09-0.375,0.002-0.453-0.261c-0.076-0.26,0.021-0.369,0.261-0.462c0.214-0.083,1.815-0.679,1.949-0.795
			c-0.093-0.002-1.17,0.41-1.357,0.478c-0.231,0.084-0.461,0.166-0.692,0.251c-0.263,0.097-0.398,0.104-0.504-0.186
			c-0.175-0.493,0.318-0.537,0.934-0.762c0.164-0.06,1.238-0.405,1.368-0.527c-0.105,0-0.81,0.257-0.975,0.313
			c-0.162,0.055-0.327,0.106-0.489,0.161c-0.179,0.061-0.324,0.143-0.448,0.043c-0.107-0.09-0.174-0.277-0.162-0.434
			c0.016-0.179,0.096-0.224,0.3-0.292C101.528,144.594,102.398,144.274,103.345,143.923z"/>
	</g>
	
		<radialGradient id="SVGID_4_" cx="290.2852" cy="-211.875" r="18.265" gradientTransform="matrix(1 0 0 -1 -206 -78)" gradientUnits="userSpaceOnUse">
		<stop  offset="0" style="stop-color:#FFFFFF"/>
		<stop  offset="0.29" style="stop-color:#EB008B"/>
		<stop  offset="0.55" style="stop-color:#EB008B"/>
		<stop  offset="1" style="stop-color:#B84C9B"/>
	</radialGradient>
	<path fill="url(#SVGID_4_)" d="M101.603,145.302c-7.942-0.886-11.256-23.433-19.03-5.32
		C86.631,132.082,91.226,149.694,101.603,145.302z"/>
	<g>
		<path fill="none" stroke="#FFFFFF" stroke-width="0.0958" stroke-miterlimit="2.6131" d="M100.878,143.985
			c0.036-0.044,0.039-0.04,0.071-0.057c0.185-0.213,1.14-0.807,0.939-1.224c-0.071-0.148-0.359-0.451-0.665-0.142
			c-0.791,0.801-1.162,0.815-1.896,1.257c-0.459,0.275-0.792,0.842-0.809,1.518c-0.029,1.271,1.574,1.544,2.776,2.064
			c0.153,0.065,1.251,0.563,1.366,0.558c0.122-0.006,0.243-0.146,0.275-0.33c0.063-0.337-0.356-0.41-0.653-0.54l-0.681-0.292
			c-0.144-0.056-0.139-0.037-0.22-0.146l2.002,0.789c0.232,0.089,0.375,0,0.453-0.262c0.076-0.26-0.023-0.37-0.261-0.462
			c-0.214-0.083-1.815-0.681-1.949-0.796c0.093-0.002,1.168,0.411,1.357,0.478c0.231,0.083,0.462,0.167,0.692,0.251
			c0.263,0.097,0.398,0.104,0.502-0.184c0.177-0.495-0.316-0.541-0.934-0.764c-0.162-0.06-1.236-0.405-1.366-0.528
			c0.105,0.002,0.81,0.259,0.974,0.313c0.163,0.055,0.326,0.106,0.49,0.163c0.178,0.06,0.324,0.143,0.448,0.041
			c0.107-0.09,0.174-0.279,0.162-0.432c-0.015-0.181-0.097-0.228-0.301-0.292C102.694,144.655,101.824,144.335,100.878,143.985z"/>
		
			<radialGradient id="SVGID_5_" cx="304.5195" cy="-222.2539" r="5.7324" gradientTransform="matrix(1 0 0 -1 -206 -78)" gradientUnits="userSpaceOnUse">
			<stop  offset="0" style="stop-color:#6CCADB"/>
			<stop  offset="0.8" style="stop-color:#2B4EA1"/>
			<stop  offset="1" style="stop-color:#0F0B42"/>
		</radialGradient>
		<path fill="url(#SVGID_5_)" d="M100.878,143.985c0.036-0.044,0.039-0.04,0.071-0.057c0.185-0.213,1.14-0.807,0.939-1.224
			c-0.071-0.148-0.359-0.451-0.665-0.142c-0.791,0.801-1.162,0.815-1.896,1.257c-0.459,0.275-0.792,0.842-0.809,1.518
			c-0.029,1.271,1.574,1.544,2.776,2.064c0.153,0.065,1.251,0.563,1.366,0.558c0.122-0.006,0.243-0.146,0.275-0.33
			c0.063-0.337-0.356-0.41-0.653-0.54l-0.681-0.292c-0.144-0.056-0.139-0.037-0.22-0.146l2.002,0.789
			c0.232,0.089,0.375,0,0.453-0.262c0.076-0.26-0.023-0.37-0.261-0.462c-0.214-0.083-1.815-0.681-1.949-0.796
			c0.093-0.002,1.168,0.411,1.357,0.478c0.231,0.083,0.462,0.167,0.692,0.251c0.263,0.097,0.398,0.104,0.502-0.184
			c0.177-0.495-0.316-0.541-0.934-0.764c-0.162-0.06-1.236-0.405-1.366-0.528c0.105,0.002,0.81,0.259,0.974,0.313
			c0.163,0.055,0.326,0.106,0.49,0.163c0.178,0.06,0.324,0.143,0.448,0.041c0.107-0.09,0.174-0.279,0.162-0.432
			c-0.015-0.181-0.097-0.228-0.301-0.292C102.694,144.655,101.824,144.335,100.878,143.985z"/>
	</g>
	
		<linearGradient id="SVGID_6_" gradientUnits="userSpaceOnUse" x1="373.4111" y1="-239.7363" x2="373.4111" y2="-230.9404" gradientTransform="matrix(1 0 0 -1 -206 -78)">
		<stop  offset="0" style="stop-color:#2E3191"/>
		<stop  offset="0.5" style="stop-color:#00ADEE"/>
		<stop  offset="1" style="stop-color:#2E3191"/>
	</linearGradient>
	<path fill="url(#SVGID_6_)" d="M118.322,167.37v-21.895h6.412v21.895H118.322L118.322,167.37z M127.606,167.37v-18.673
		c0-0.728,0.155-1.363,0.468-1.904c0.314-0.548,0.73-0.964,1.248-1.255c0.517-0.287,1.078-0.432,1.682-0.432
		c0.751,0,1.45,0.214,2.098,0.634c0.643,0.422,1.156,1.043,1.529,1.86l3.395,7.09v-9.213h6.294v18.427
		c0,0.838-0.148,1.552-0.448,2.146c-0.301,0.588-0.708,1.03-1.215,1.322c-0.512,0.292-1.069,0.438-1.672,0.438
		c-0.764,0-1.504-0.235-2.216-0.708c-0.711-0.469-1.238-1.108-1.585-1.915l-3.312-6.967v9.152L127.606,167.37L127.606,167.37z
		 M149.972,167.37h7.8v-24.069h33.853v-2.981l-67.538,0.066v2.915h25.885V167.37L149.972,167.37z M176.346,167.37h-3.279
		c-1.59,0-3.026-0.312-4.299-0.938c-1.275-0.623-2.345-1.473-3.209-2.545c-0.861-1.068-1.519-2.29-1.969-3.655
		c-0.449-1.369-0.672-2.769-0.672-4.2c0.015-1.353,0.256-2.666,0.736-3.941c0.474-1.273,1.153-2.409,2.043-3.404
		c0.891-1,1.96-1.78,3.207-2.353c1.242-0.573,2.616-0.858,4.104-0.858h3.337v5.841h-2.26c-1.024,0-1.894,0.182-2.609,0.546
		c-0.717,0.368-1.248,1.014-1.596,1.947h6.465v5.246h-6.464c0.183,0.621,0.612,1.193,1.284,1.719
		c0.679,0.525,1.553,0.785,2.632,0.785h2.548V167.37L176.346,167.37z M191.523,167.37h-3.042c-2.123,0-3.945-0.511-5.469-1.531
		c-1.528-1.025-2.674-2.363-3.443-4.023c-0.768-1.655-1.166-3.426-1.189-5.314c0.023-1.91,0.425-3.706,1.209-5.394
		c0.787-1.688,1.949-3.046,3.481-4.081c1.538-1.036,3.381-1.552,5.522-1.552h2.931v6.279h-2.033c-0.961,0-1.786,0.219-2.479,0.656
		c-0.692,0.436-1.218,1.009-1.586,1.723c-0.362,0.713-0.556,1.476-0.579,2.3c0.023,0.816,0.217,1.583,0.589,2.29
		c0.367,0.703,0.914,1.276,1.634,1.713c0.725,0.437,1.591,0.655,2.597,0.655l1.857,0.063V167.37L191.523,167.37z M194.642,167.37
		v-30.382h8.856v10.575h4.105v-10.575h8.896v30.382h-8.896v-11.927h-4.105v11.927H194.642z"/>
</g>
</svg>
