<?xml version="1.0" encoding="utf-8"?>
<!-- Generator: Adobe Illustrator 13.0.0, SVG Export Plug-In . SVG Version: 6.00 Build 14948)  -->
<!DOCTYPE svg PUBLIC "-//W3C//DTD SVG 1.1//EN" "http://www.w3.org/Graphics/SVG/1.1/DTD/svg11.dtd">
<svg version="1.1" id="Layer_1" xmlns="http://www.w3.org/2000/svg" xmlns:xlink="http://www.w3.org/1999/xlink" x="0px" y="0px"
	 width="300px" height="300px" viewBox="0 0 300 300" enable-background="new 0 0 300 300" xml:space="preserve">
<g>
	<rect x="49.178" y="144.213" fill="#FCFCFC" width="205.077" height="110.427"/>
	<g>
		<path fill="#FCFCFC" d="M257.482,131.307h-16.458l-71.63-71.633c0.966-1.937,0.966-3.872,0.966-5.809
			c0-10.648-8.714-19.36-19.36-19.36s-19.36,8.712-19.36,19.36c0,1.937,0,4.84,0.966,6.777l-70.665,70.665H44.518
			c-5.806,0-9.68,3.872-9.68,9.68v116.162c0,5.803,3.874,9.681,9.68,9.681h212.964c5.806,0,9.68-3.878,9.68-9.681V140.987
			C267.162,135.178,263.288,131.307,257.482,131.307z M151,44.185c5.807,0,9.681,3.872,9.681,9.68s-3.874,9.68-9.681,9.68
			s-9.68-3.872-9.68-9.68S145.193,44.185,151,44.185z M138.417,68.386c2.903,2.903,7.744,4.84,12.583,4.84s9.681-1.937,13.554-4.84
			l62.921,62.921H75.496L138.417,68.386z M247.802,247.469H54.198v-96.802h193.604V247.469z"/>
		<path fill="#19647E" d="M83.239,228.108c10.646,0,19.36-8.718,19.36-19.36v-19.36c0-10.643-8.714-19.36-19.36-19.36
			s-19.36,8.718-19.36,19.36v19.36C63.878,219.391,72.592,228.108,83.239,228.108z M73.559,189.388c0-5.802,3.874-9.681,9.68-9.681
			c5.807,0,9.68,3.879,9.68,9.681v19.36c0,5.802-3.874,9.68-9.68,9.68c-5.806,0-9.68-3.878-9.68-9.68V189.388z"/>
		<polygon fill="#19647E" points="189.721,228.108 189.721,218.428 170.36,218.428 170.36,208.748 189.721,208.748 189.721,199.068 
			170.36,199.068 170.36,179.707 189.721,179.707 189.721,170.027 160.681,170.027 160.681,179.707 160.681,228.108 170.36,228.108 
					"/>
		<polygon fill="#19647E" points="209.081,189.388 228.441,228.108 238.122,228.108 238.122,170.027 228.441,170.027 
			228.441,208.748 209.081,170.027 199.401,170.027 199.401,228.108 209.081,228.108 		"/>
		<path fill="#19647E" d="M121.959,208.748h9.68c10.646,0,19.36-8.718,19.36-19.36s-8.714-19.36-19.36-19.36h-9.68h-9.68v58.081
			h9.68V208.748z M121.959,179.707h9.68c5.807,0,9.68,3.879,9.68,9.681s-3.874,9.681-9.68,9.681h-9.68V179.707z"/>
	</g>
</g>
</svg>
