<?xml version="1.0" encoding="utf-8"?>
<!-- Generator: Adobe Illustrator 13.0.0, SVG Export Plug-In . SVG Version: 6.00 Build 14948)  -->
<!DOCTYPE svg PUBLIC "-//W3C//DTD SVG 1.1//EN" "http://www.w3.org/Graphics/SVG/1.1/DTD/svg11.dtd">
<svg version="1.1" id="Layer_1" xmlns="http://www.w3.org/2000/svg" xmlns:xlink="http://www.w3.org/1999/xlink" x="0px" y="0px"
	 width="300px" height="300px" viewBox="0 0 300 300" enable-background="new 0 0 300 300" xml:space="preserve">
<g>
	<g>
		<path fill="#0093A9" d="M290.117,162.343l-25.798-74.635c-1.145-3.306-4.263-5.529-7.76-5.529c-0.912,0-1.814,0.152-2.714,0.463
			l-20.688,7.535c-2.073,0.716-3.744,2.196-4.703,4.168c-0.959,1.973-1.092,4.201-0.374,6.273l0.215,0.625l-8.479,2.99
			c-5.952-3.485-34.001-19.59-42.892-18.845c-5.293,0.441-10.616,6.023-16.198,12.381c-20.123-16.634-31.146-10.124-38.494-5.783
			c-0.376,0.223-0.741,0.44-1.099,0.646c-7.675,4.442-30.38,15.046-37.724,14.567c-1.454-0.096-3.8-0.801-6.644-1.875l0.891-2.152
			c0.837-2.026,0.837-4.258-0.004-6.284c-0.84-2.025-2.419-3.604-4.414-4.428l-20.266-8.778c-1.003-0.414-2.058-0.625-3.136-0.625
			c-3.334,0-6.314,1.991-7.59,5.074l-30.19,72.967c-1.729,4.183,0.266,8.995,4.417,10.715l20.267,8.775
			c1.003,0.415,2.057,0.626,3.136,0.626h0c3.335,0,6.314-1.992,7.589-5.074l2.803-6.774l8.319,3.7
			c-1.1,1.749-1.774,3.679-1.813,5.685c-0.065,3.334,1.038,6.329,3.103,8.437c1.876,1.913,4.464,2.966,7.287,2.967h0.002
			c0.304,0,0.631-0.017,0.97-0.043c-1.15,1.758-1.923,3.587-2.145,5.354c-0.388,3.087,0.445,5.974,2.344,8.129
			c2.141,2.427,5.421,3.764,9.238,3.764h0.001c1.021,0,2.066-0.104,3.121-0.295c-0.829,1.438-1.384,2.916-1.567,4.364
			c-0.387,3.08,0.481,6,2.442,8.225c2.271,2.574,5.881,4.05,9.904,4.05c1.166,0,2.566-0.124,4.136-0.479
			c-0.722,1.439-1.218,2.959-1.413,4.496c-0.514,4.098,0.456,7.885,2.663,10.387c1.784,2.022,4.22,3.092,7.046,3.092h0.001
			c3.201,0,6.692-1.354,10.393-4.026c4.742,4.963,9.503,7.467,14.226,7.467c0.965,0,1.928-0.104,2.889-0.313
			c5.215-1.135,8.961-4.1,10.753-5.793c2.875,1.542,9.57,4.271,16.713,1.126c5.721-2.518,8.379-6.563,9.587-9.377
			c2.688,1.775,7.535,3.706,14.711,1.913c7.082-1.771,10.215-5.744,11.591-8.663c2.244,1.874,5.868,4.133,10.166,4.106
			c4.173-0.051,7.99-2.247,11.344-6.53c2.129-2.72,2.804-6.635,2.013-11.804c17.27-10.934,23.59-27.798,24.973-32.131l10.032-3.594
			l0.579,1.675c1.144,3.308,4.261,5.53,7.76,5.53c0.913,0,1.813-0.151,2.712-0.465l20.691-7.532
			C289.316,171.306,291.597,166.621,290.117,162.343 M283.718,169.061l-20.691,7.533c-0.451,0.157-0.919,0.235-1.39,0.235
			c-1.814,0-3.431-1.151-4.024-2.867l-25.797-74.635c-0.372-1.074-0.304-2.23,0.194-3.253c0.498-1.022,1.363-1.789,2.468-2.171
			l20.69-7.535c0.452-0.156,0.92-0.236,1.392-0.236c1.813,0,3.431,1.153,4.024,2.87l25.799,74.632
			C287.147,165.853,285.966,168.283,283.718,169.061 M39.876,177.261c-0.557,0-1.104-0.11-1.595-0.313l-20.264-8.775
			c-2.17-0.899-3.205-3.394-2.308-5.563l30.19-72.966c0.662-1.599,2.207-2.633,3.937-2.633c0.556,0,1.103,0.11,1.595,0.313
			L71.697,96.1c1.051,0.434,1.869,1.252,2.304,2.302c0.437,1.051,0.438,2.207,0.002,3.258l-30.191,72.968
			C43.151,176.228,41.606,177.261,39.876,177.261 M103.908,237.244c-1.682,0-3.055-0.592-4.081-1.755
			c-1.458-1.653-2.08-4.306-1.706-7.279c0.658-5.239,6.472-10.578,11.52-10.578c2.772,0,4.952,1.612,6.479,4.789
			c2.289,4.765-2.461,10.087-3.093,10.763C109.651,235.841,106.5,237.244,103.908,237.244L103.908,237.244z M83.051,211.921
			c0.677-5.396,9.54-12.027,16.071-12.027c3.139,0,5.229,1.442,6.387,4.405c3.031,7.758-1.485,10.326-1.989,10.583
			c-0.132,0.064-0.258,0.142-0.374,0.233c-3.767,2.989-7.911,4.634-11.671,4.634c-2.889,0-5.419-0.989-6.939-2.714
			C83.317,215.654,82.803,213.886,83.051,211.921 M77.574,203.403c-2.666,0-4.893-0.86-6.272-2.424
			c-1.156-1.312-1.635-3.046-1.387-5.021c0.688-5.471,9.595-12.457,15.885-12.457c2.919,0,4.884,1.398,6.008,4.273
			c3.03,7.757-1.485,10.325-1.989,10.582c-0.133,0.063-0.258,0.142-0.374,0.233C85.531,201.695,81.314,203.403,77.574,203.403
			L77.574,203.403z M67.165,186.2c-1.779-0.001-3.323-0.617-4.464-1.781c-1.317-1.342-2.018-3.328-1.974-5.591
			c0.091-4.692,6.677-10.039,12.366-10.039c2.697,0,4.651,1.194,5.811,3.549c1.879,3.818-0.964,7.877-1.382,8.44
			c-3.532,3.497-7.206,5.422-10.355,5.422H67.165z M213.169,218.668c-2.574,3.286-5.354,4.974-8.262,5.015
			c-0.038,0.001-0.077,0.002-0.114,0.002c-4.807-0.001-8.8-4.355-9.345-4.978l-29.867-46.943c-0.588-0.922-1.811-1.191-2.729-0.606
			c-0.922,0.587-1.192,1.808-0.606,2.729l29.523,46.4c-0.425,1.664-2.238,6.243-9.548,8.071c-8.549,2.137-12.676-2.142-13.16-2.688
			l-21.314-33.021c-0.592-0.918-1.815-1.181-2.733-0.59c-0.917,0.593-1.181,1.817-0.588,2.733l20.941,32.444
			c-0.456,1.682-2.196,6.215-8.077,8.804c-6.406,2.818-12.657-0.604-14.034-1.445l-15.01-22.578
			c-0.604-0.91-1.833-1.155-2.741-0.553c-0.909,0.605-1.156,1.832-0.552,2.74l14.352,21.587c-1.5,1.381-4.575,3.766-8.729,4.669
			c-4.234,0.918-8.742-1.11-13.433-6.036c2.015-2.641,5.227-8.128,2.541-13.715c-2.178-4.533-5.744-7.029-10.042-7.029
			c-0.019,0-0.038,0.001-0.057,0.001c1.118-2.593,1.42-6.18-0.393-10.819c-1.744-4.463-5.32-6.921-10.069-6.921
			c-0.946,0-1.915,0.104-2.891,0.287c0.81-2.498,0.863-5.782-0.742-9.892c-1.71-4.379-5.151-6.789-9.69-6.789
			c-1.077,0-2.19,0.145-3.317,0.409c1.005-2.416,1.699-5.846-0.032-9.364c-1.827-3.711-5.151-5.756-9.358-5.756
			c-4.033,0-8.6,2.001-11.876,5.071l-9.436-4.195l23.477-56.742c3.265,1.228,6.057,2.052,7.893,2.173
			c0.217,0.014,0.445,0.021,0.681,0.021c9.722,0,33.821-11.949,39.283-15.11c0.368-0.212,0.744-0.435,1.129-0.663
			c6.759-3.994,15.958-9.417,33.882,5.36c-4.363,5-8.853,10.008-13.284,12.722c-10.911,6.682-29.155,10.021-35.283,8.663
			c-3.122-0.69-6.01,1.246-7.542,5.056c-2.357,5.862-1.38,16.729,8.17,22.533c8.472,5.149,23.742,6.02,35.516,2.02
			c6.166-2.094,10.754-5.279,13.479-9.32c1.928,2.854,5.437,7.131,11.028,10.885c4.443,2.984,10.713,5.915,19.078,7.142
			c1.127,1.601,8.917,12.76,15.541,25.136C213.791,202.344,216.754,214.091,213.169,218.668 M240.992,173.789
			c-0.609,0.217-1.075,0.722-1.243,1.347c-0.051,0.189-5.147,18.444-22.335,30.024c-1.542-5.847-4.574-12.981-9.116-21.47
			c-5.092-9.51-10.854-18.303-13.86-22.731c1.068,0.057,2.155,0.098,3.281,0.098c5.642,0,12.026-0.756,19.205-2.589
			c1.057-0.271,1.695-1.349,1.425-2.406c-0.271-1.057-1.35-1.694-2.405-1.425c-17.274,4.417-32.264,2.863-43.349-4.488
			c-8.371-5.552-11.682-12.532-11.712-12.598c-0.332-0.723-1.081-1.174-1.855-1.151c-0.795,0.023-1.497,0.52-1.784,1.261
			c-2.211,5.702-8.188,8.771-12.813,10.341c-10.601,3.6-24.74,2.873-32.191-1.655c-7.574-4.603-8.392-13.109-6.555-17.68
			c0.29-0.719,1.366-3.034,3.018-2.67c7.683,1.706,26.824-2.183,38.205-9.154c5.241-3.208,10.232-8.939,15.059-14.482
			c5.431-6.233,11.045-12.678,15.288-13.031c6.149-0.525,28.105,10.945,41.349,18.774c0.503,0.298,1.112,0.357,1.663,0.164
			l9.32-3.287l22.42,64.861L240.992,173.789z"/>
		<path fill="#FF922A" d="M277.656,160.514c0.295-4.636-3.238-8.648-7.877-8.943c-4.673-0.303-8.648,3.271-8.942,7.876
			c-0.144,2.247,0.599,4.413,2.086,6.103s3.544,2.699,5.789,2.842c0.182,0.011,0.362,0.017,0.543,0.017
			C273.683,168.407,277.374,164.939,277.656,160.514 M265.89,162.937c-0.79-0.897-1.183-2.047-1.106-3.239
			c0.148-2.35,2.108-4.19,4.459-4.19c0.096,0,0.191,0.003,0.287,0.009c2.462,0.156,4.337,2.287,4.182,4.748
			c-0.155,2.445-2.245,4.349-4.749,4.18C267.771,164.369,266.679,163.833,265.89,162.937"/>
		<path fill="#FF922A" d="M41.457,159.946c-0.019-4.627-3.8-8.392-8.458-8.392c-4.647,0.019-8.413,3.813-8.394,8.458
			c0.019,4.629,3.798,8.395,8.424,8.395h0.035c2.251-0.009,4.363-0.893,5.95-2.492C40.597,164.318,41.465,162.199,41.457,159.946
			 M33.048,164.454l-0.02,1.977v-1.977c-2.455,0-4.46-1.999-4.471-4.456c-0.01-2.466,1.989-4.481,4.473-4.491
			c2.456,0,4.464,1.999,4.474,4.455c0.005,1.195-0.457,2.321-1.298,3.169C35.365,163.979,34.243,164.448,33.048,164.454"/>
	</g>
</g>
</svg>
