<?xml version="1.0" encoding="utf-8"?>
<!-- Generator: Adobe Illustrator 13.0.0, SVG Export Plug-In . SVG Version: 6.00 Build 14948)  -->
<!DOCTYPE svg PUBLIC "-//W3C//DTD SVG 1.1//EN" "http://www.w3.org/Graphics/SVG/1.1/DTD/svg11.dtd">
<svg version="1.1" id="Layer_1" xmlns="http://www.w3.org/2000/svg" xmlns:xlink="http://www.w3.org/1999/xlink" x="0px" y="0px"
	 width="300px" height="300px" viewBox="0 0 300 300" enable-background="new 0 0 300 300" xml:space="preserve">
<g>
	<rect x="65.778" y="65.953" fill="#19647E" width="172.641" height="174.323"/>
	<path fill="#FCFCFC" d="M224.943,193.152c0-1.056-0.099-1.83-0.291-2.313c-0.292-0.775-2.146-2.196-5.571-4.269
		s-7.698-4.461-12.81-7.165l-7.673-4.199c-0.484-0.291-1.396-0.913-2.749-1.88c-1.352-0.967-2.556-1.688-3.622-2.171
		c-1.061-0.483-2.072-0.726-3.039-0.726c-1.737,0-4.002,1.569-6.8,4.702c-2.803,3.139-5.551,6.297-8.25,9.484
		c-2.704,3.183-4.826,4.776-6.371,4.776c-0.676,0-1.47-0.168-2.388-0.508c-0.918-0.341-1.663-0.651-2.245-0.942
		c-0.577-0.286-1.396-0.745-2.458-1.372c-1.065-0.632-1.736-1.036-2.027-1.233c-9.553-5.305-17.779-11.409-24.677-18.307
		c-6.898-6.898-13.007-15.129-18.312-24.68c-0.192-0.289-0.602-0.965-1.229-2.026c-0.631-1.063-1.085-1.882-1.376-2.462
		c-0.291-0.577-0.602-1.325-0.942-2.243c-0.336-0.917-0.503-1.712-0.503-2.388c0-1.253,0.987-2.872,2.965-4.848
		c1.979-1.979,4.15-3.836,6.514-5.573s4.535-3.642,6.513-5.716c1.979-2.075,2.966-3.837,2.966-5.285c0-0.964-0.237-1.976-0.72-3.04
		c-0.484-1.061-1.209-2.267-2.171-3.617c-0.967-1.352-1.594-2.268-1.885-2.751c-0.286-0.58-1.012-1.954-2.171-4.125
		c-1.155-2.171-2.363-4.367-3.617-6.585c-1.253-2.221-2.532-4.513-3.834-6.876c-1.303-2.363-2.512-4.317-3.622-5.862
		c-1.105-1.544-1.905-2.413-2.388-2.605c-0.484-0.192-1.253-0.289-2.314-0.289c-4.633,0-9.503,1.061-14.621,3.183
		c-4.436,2.028-8.3,6.587-11.576,13.678c-3.281,7.093-4.924,13.39-4.924,18.889c0,1.545,0.123,3.186,0.365,4.922
		c0.237,1.737,0.484,3.208,0.721,4.414c0.242,1.207,0.676,2.8,1.303,4.777c0.631,1.979,1.11,3.402,1.451,4.271
		c0.335,0.869,0.938,2.46,1.806,4.777c0.868,2.316,1.401,3.762,1.594,4.342c5.788,15.827,16.234,31.292,31.338,46.392
		c15.099,15.099,30.564,25.545,46.388,31.333c0.577,0.197,2.028,0.726,4.343,1.594c2.314,0.869,3.908,1.476,4.776,1.812
		c0.868,0.335,2.295,0.818,4.269,1.445c1.979,0.627,3.572,1.061,4.776,1.303c1.209,0.242,2.679,0.483,4.416,0.726
		c1.737,0.236,3.38,0.36,4.92,0.36c5.502,0,11.798-1.644,18.889-4.92c7.096-3.281,11.655-7.146,13.679-11.581
		C223.877,202.656,224.943,197.786,224.943,193.152z M261.996,80.69v138.951c0,11.487-4.076,21.307-12.232,29.459
		c-8.152,8.151-17.972,12.227-29.454,12.227H81.356c-11.482,0-21.302-4.075-29.454-12.227c-8.157-8.152-12.232-17.972-12.232-29.459
		V80.69c0-11.482,4.076-21.302,12.232-29.456c8.152-8.154,17.971-12.23,29.454-12.23H220.31c11.482,0,21.302,4.076,29.454,12.23
		C257.92,59.388,261.996,69.208,261.996,80.69z"/>
</g>
</svg>
