<?xml version="1.0" encoding="utf-8"?>
<!-- Generator: Adobe Illustrator 16.0.0, SVG Export Plug-In . SVG Version: 6.00 Build 0)  -->
<!DOCTYPE svg PUBLIC "-//W3C//DTD SVG 1.1//EN" "http://www.w3.org/Graphics/SVG/1.1/DTD/svg11.dtd">
<svg version="1.1" id="Layer_1" xmlns="http://www.w3.org/2000/svg" xmlns:xlink="http://www.w3.org/1999/xlink" x="0px" y="0px"
	 width="300px" height="300px" viewBox="0 0 300 300" enable-background="new 0 0 300 300" xml:space="preserve">
<path id="path2180" fill="none" stroke="#FF3F68" stroke-width="8" stroke-miterlimit="10" d="M65.621,115.908
	c-2.589,0-4.184,1.474-4.184,4.38v7.264H45.716c-8.458,0-12.937,4.529-15.008,9.828l-11.021,27.828
	c-4.359,0.547-12.071,5.56-12.071,15.062v35.412h10.7v11.306c0,13.926,20.101,13.762,20.101,0v-11.306h36.16h0.036h36.16v11.306
	c0,13.762,20.1,13.926,20.1,0v-11.306h10.7V180.27c0-9.502-7.729-14.515-12.089-15.062l-11.002-27.828
	c-2.072-5.299-6.568-9.828-15.027-9.828H87.912v-7.264c0-2.906-1.577-4.38-4.166-4.38h-9.133h-0.036H65.621z M45.592,137.683h28.967
	h0.018h0.036h28.984c3.626,0.033,5.178,2.265,6.214,5.341l8.279,21.525H74.612h-0.036h-0.018H31.082l8.297-21.525
	C40.414,139.947,41.967,137.715,45.592,137.683z M28.696,175.268c5.129,0,9.276,4.199,9.276,9.383c0,5.183-4.146,9.382-9.276,9.382
	c-5.128,0-9.293-4.199-9.293-9.382C19.403,179.467,23.567,175.268,28.696,175.268z M120.493,175.268
	c5.129,0,9.276,4.199,9.276,9.383c0,5.183-4.146,9.382-9.276,9.382c-5.13,0-9.294-4.199-9.294-9.382
	C111.199,179.467,115.363,175.268,120.493,175.268z"/>
<path id="path2200" fill="none" stroke="#FF3F68" stroke-width="8" stroke-miterlimit="10" d="M219.5,62.995
	c0.232,0,0.479,0.017,0.712,0.018c0.229-0.001,0.468-0.018,0.694-0.018H219.5z M220.212,63.013
	c-16.358,0.125-38.515,4.66-47.769,8.457c-9.383,3.852-15.652,7.698-17.607,17.323l-7.032,53.358v73.529h12.124v11.538
	c0,14.058,20.885,14.058,20.885,0V215.68h38.563h0.125h40.094v11.538c0,14.058,20.902,14.058,20.902,0V215.68h12.106v-73.529
	l-7.033-53.358c-1.954-9.625-8.207-13.473-17.59-17.323C258.73,67.674,236.568,63.141,220.212,63.013z M190.426,76.473H219.5h30.498
	c5.863,0,5.863,8.653,0,8.653H219.43h-29.004C184.563,85.125,184.563,76.473,190.426,76.473z M174.616,93.885h44.813h46.379
	c6.193,0,7.812,3.096,8.563,7.798l5.484,38.706c0.511,3.709-0.584,7.388-5.787,7.388H219.5h-53.145
	c-5.203,0-6.297-3.679-5.787-7.388l5.483-38.706C166.807,96.98,168.422,93.885,174.616,93.885z M170.379,172.898
	c5.534,0,10.023,4.412,10.023,9.862c0,5.449-4.489,9.864-10.023,9.864c-5.533,0-10.023-4.415-10.023-9.864
	C160.355,177.313,164.846,172.898,170.379,172.898z M270.045,172.898c5.534,0,10.006,4.412,10.006,9.862
	c0,5.449-4.472,9.864-10.006,9.864c-5.533,0-10.023-4.415-10.023-9.864C260.021,177.313,264.512,172.898,270.045,172.898z"/>
</svg>
