<?xml version="1.0" encoding="utf-8"?>
<!-- Generator: Adobe Illustrator 13.0.0, SVG Export Plug-In . SVG Version: 6.00 Build 14948)  -->
<!DOCTYPE svg PUBLIC "-//W3C//DTD SVG 1.1//EN" "http://www.w3.org/Graphics/SVG/1.1/DTD/svg11.dtd">
<svg version="1.1" id="Capa_1" xmlns="http://www.w3.org/2000/svg" xmlns:xlink="http://www.w3.org/1999/xlink" x="0px" y="0px"
	 width="500px" height="500px" viewBox="-174.164 -174.164 500 500" enable-background="new -174.164 -174.164 500 500"
	 xml:space="preserve">
<g>
	<g>
		<path fill="#FFFFFF" d="M133.641,76.917c17.11-11.513,31.927-27.638,43.672-45.999l-76.536,60.991
			c2.462-0.711,5.022-1.188,7.423-2.043l-21.462,24.577h-0.536l55.264,114.037l-65.641,65.634L10.18,228.461l55.267-114.04h-0.574
			L43.401,89.807c3.073,1.108,6.263,1.773,9.433,2.598l-83.849-70.464c12.413,22.075,29.168,41.613,49.02,54.956
			C-83.367,102.622-158.49,190.636-158.49,255.847c0,77.091,468.653,77.091,468.653,0
			C310.146,190.658,235.04,102.639,133.641,76.917z"/>
		<polygon fill="#FFFFFF" points="110.914,31.029 110.914,26.533 40.744,26.63 40.744,31.029 40.804,31.22 110.914,31.109 		"/>
		<path fill="#FFFFFF" d="M75.846,66.15c16.874,0,30.354-12.184,33.677-28.12l-67.336,0.115
			C45.539,53.986,58.992,66.15,75.846,66.15z"/>
		<path fill="#FFFFFF" d="M111.489,19.612c3.057-32.425,45.525-39.91,45.525-100.417c0-44.817-36.285-81.187-81.168-81.187
			c-44.857,0-81.208,36.37-81.208,81.187c0,60.601,42.68,68.027,45.476,100.51L111.489,19.612z M78.462-133.833
			c10.646-6.122,33.026,2.367,44.483,22.216c11.421,19.842,7.604,43.501-3.017,49.632c-10.541,6.108-4.964-18.562-16.421-38.414
			C92.017-120.229,67.912-127.714,78.462-133.833z"/>
	</g>
</g>
</svg>
