<?xml version="1.0" encoding="utf-8"?>
<!-- Generator: Adobe Illustrator 16.0.0, SVG Export Plug-In . SVG Version: 6.00 Build 0)  -->
<!DOCTYPE svg PUBLIC "-//W3C//DTD SVG 1.1//EN" "http://www.w3.org/Graphics/SVG/1.1/DTD/svg11.dtd">
<svg version="1.1" id="Layer_1" xmlns="http://www.w3.org/2000/svg" xmlns:xlink="http://www.w3.org/1999/xlink" x="0px" y="0px"
	 width="200px" height="200px" viewBox="0 0 200 200" enable-background="new 0 0 200 200" xml:space="preserve">
<g>
	<g>
		<path fill="#E81A24" d="M142.118,132.684l-13.958-0.932l-7.104-7.102c1.414-1.068,2.344-2.745,2.344-4.65
			c0-1.504-0.588-2.863-1.521-3.9c0.938-1.037,1.521-2.396,1.521-3.898c0-1.641-0.684-3.118-1.773-4.182
			c7.258-6.271,11.523-15.427,11.523-25.068c0-18.28-14.871-33.15-33.15-33.15c-18.279,0-33.15,14.869-33.15,33.149
			c0,9.643,4.264,18.798,11.522,25.069c-1.09,1.063-1.772,2.541-1.772,4.181c0,1.503,0.587,2.862,1.521,3.899
			c-0.936,1.036-1.521,2.396-1.521,3.899c0,2.021,1.029,3.803,2.589,4.854l-5.522,6.902l-15.711,0.982
			c-9.228,0.576-16.456,8.271-16.456,17.517V159h3.9v-8.744c0-7.191,5.622-13.174,12.798-13.623l15.783-0.986l13.047,11.185
			c0.369,0.313,0.821,0.47,1.271,0.47c0.499,0,1-0.193,1.379-0.57l2.217-2.217l1.896,2.844l-5.214,8.691
			c-0.181,0.303-0.277,0.647-0.277,1.002V159h3.9v-1.41l5.571-9.287c0.388-0.646,0.369-1.459-0.049-2.085l-3.013-4.521l5.291-5.29
			l5.29,5.29l-3.013,4.521c-0.418,0.626-0.438,1.438-0.049,2.085l5.57,9.287V159h3.9v-1.95c0-0.354-0.096-0.7-0.279-1.004
			l-5.214-8.69l1.896-2.846l2.217,2.217c0.381,0.381,0.881,0.573,1.382,0.573c0.409,0,0.819-0.127,1.17-0.39l15.021-11.266
			l13.969,0.931c7.146,0.476,12.74,6.458,12.74,13.618V159h3.9v-8.807C158.5,140.986,151.305,133.295,142.118,132.684z M70.75,82.95
			c0-16.129,13.122-29.25,29.25-29.25s29.25,13.121,29.25,29.25c0,9.182-4.376,17.877-11.741,23.399H107.8V93.614l6.829-5.691
			c3.098-2.58,4.871-6.371,4.871-10.397c0-5.516-4.466-10.176-9.75-10.176c-1.73,0-3.393,0.474-4.881,1.359
			c-3.001-1.739-6.733-1.739-9.734,0c-1.492-0.886-3.153-1.359-4.885-1.359c-5.285,0-9.75,4.66-9.75,10.176
			c0,4.026,1.774,7.817,4.871,10.397l6.829,5.691v12.735h-9.709C75.126,100.827,70.75,92.132,70.75,82.95z M117.55,114.15h-35.1
			c-1.074,0-1.95-0.875-1.95-1.95c0-1.077,0.875-1.95,1.95-1.95h35.094l0.021,0.002c1.067,0.008,1.937,0.877,1.937,1.948
			C119.5,113.275,118.624,114.15,117.55,114.15z M119.5,120c0,1.076-0.876,1.95-1.95,1.95h-35.1c-1.074,0-1.95-0.874-1.95-1.95
			s0.875-1.95,1.95-1.95h35.1C118.624,118.05,119.5,118.924,119.5,120z M93.9,84.662c0.357,0.286,0.792,0.433,1.225,0.433
			s0.868-0.145,1.225-0.433c2.32-1.876,3.65-4.631,3.65-7.563c0-0.45-0.043-0.895-0.104-1.336c-0.018-0.126-0.041-0.249-0.064-0.376
			c-0.06-0.337-0.14-0.667-0.236-0.994c-0.031-0.107-0.059-0.217-0.094-0.324c-0.138-0.415-0.302-0.822-0.495-1.215
			c-0.033-0.067-0.076-0.133-0.111-0.2c-0.171-0.33-0.362-0.647-0.573-0.956c-0.035-0.051-0.06-0.109-0.095-0.16
			c1.141-0.38,2.404-0.38,3.545,0c-0.035,0.051-0.062,0.109-0.097,0.16c-0.208,0.309-0.401,0.628-0.573,0.956
			c-0.035,0.067-0.078,0.133-0.11,0.2c-0.193,0.394-0.356,0.8-0.496,1.215c-0.035,0.107-0.063,0.217-0.094,0.324
			c-0.095,0.325-0.175,0.657-0.236,0.994c-0.023,0.125-0.046,0.25-0.064,0.376C100.043,76.205,100,76.649,100,77.1
			c0,2.932,1.33,5.687,3.65,7.563c0.355,0.286,0.791,0.433,1.225,0.433s0.867-0.145,1.225-0.433c2.32-1.876,3.65-4.631,3.65-7.563
			c0-0.45-0.043-0.895-0.104-1.336c-0.019-0.126-0.041-0.249-0.064-0.376c-0.061-0.335-0.141-0.667-0.234-0.992
			c-0.031-0.109-0.06-0.219-0.095-0.326c-0.14-0.415-0.301-0.821-0.493-1.213c-0.037-0.074-0.082-0.142-0.119-0.216
			c-0.168-0.322-0.354-0.632-0.56-0.935c-0.037-0.055-0.063-0.117-0.104-0.172c0.569-0.187,1.164-0.284,1.772-0.284
			c3.116,0,5.851,2.933,5.851,6.275c0,2.868-1.265,5.565-3.468,7.4l-7.53,6.276c-0.444,0.37-0.701,0.918-0.701,1.498v13.648h-7.8
			V92.7c0-0.58-0.257-1.128-0.702-1.5l-7.531-6.277c-2.204-1.835-3.467-4.531-3.467-7.397c0-3.343,2.734-6.275,5.85-6.275
			c0.606,0,1.201,0.098,1.772,0.284c-0.039,0.055-0.064,0.117-0.104,0.172c-0.205,0.303-0.39,0.612-0.56,0.935
			c-0.039,0.071-0.083,0.142-0.119,0.216c-0.193,0.392-0.354,0.798-0.493,1.213c-0.035,0.107-0.063,0.217-0.094,0.326
			c-0.095,0.325-0.175,0.657-0.236,0.992c-0.023,0.125-0.046,0.25-0.064,0.376c-0.061,0.441-0.104,0.886-0.104,1.336
			C90.25,80.031,91.58,82.786,93.9,84.662z M94.15,77.1c0-0.388,0.055-0.769,0.131-1.143c0.019-0.092,0.039-0.183,0.062-0.273
			c0.094-0.364,0.213-0.721,0.376-1.061c0.014-0.029,0.035-0.057,0.049-0.088c0.1-0.198,0.234-0.378,0.357-0.565
			c0.123,0.188,0.257,0.367,0.357,0.565c0.016,0.031,0.035,0.059,0.049,0.088c0.164,0.34,0.283,0.696,0.376,1.061
			c0.023,0.091,0.043,0.182,0.063,0.273c0.076,0.374,0.13,0.755,0.13,1.143c0,0.389-0.054,0.769-0.13,1.143
			c-0.02,0.092-0.039,0.184-0.063,0.273c-0.093,0.364-0.212,0.721-0.376,1.061c-0.016,0.031-0.036,0.059-0.051,0.088
			c-0.1,0.197-0.234,0.376-0.357,0.563c-0.123-0.188-0.257-0.366-0.357-0.563c-0.016-0.031-0.035-0.059-0.051-0.088
			c-0.164-0.34-0.283-0.696-0.376-1.061c-0.023-0.09-0.042-0.182-0.062-0.273C94.205,77.868,94.15,77.488,94.15,77.1z M103.9,77.1
			c0-0.388,0.055-0.769,0.129-1.143c0.021-0.092,0.039-0.183,0.063-0.273c0.095-0.364,0.214-0.721,0.378-1.061
			c0.014-0.029,0.033-0.057,0.047-0.088c0.101-0.198,0.234-0.378,0.357-0.565c0.123,0.188,0.258,0.367,0.355,0.565
			c0.017,0.031,0.035,0.059,0.049,0.088c0.164,0.34,0.283,0.696,0.378,1.061c0.022,0.091,0.043,0.182,0.063,0.273
			c0.074,0.374,0.129,0.755,0.129,1.143c0,0.389-0.055,0.769-0.129,1.143c-0.021,0.092-0.039,0.184-0.063,0.273
			c-0.095,0.364-0.214,0.721-0.378,1.061c-0.016,0.031-0.034,0.059-0.051,0.088c-0.099,0.197-0.232,0.376-0.355,0.563
			c-0.123-0.188-0.258-0.366-0.357-0.563c-0.016-0.031-0.035-0.059-0.05-0.088c-0.164-0.34-0.282-0.696-0.377-1.061
			c-0.022-0.09-0.043-0.182-0.063-0.273C103.955,77.868,103.9,77.488,103.9,77.1z M88.198,142.693l-10.848-9.297l5.593-6.994
			l13.851,7.695L88.198,142.693z M89.975,125.85h20.05L100,131.419L89.975,125.85z M111.883,142.775l-2.703-2.705l-5.972-5.971
			l14.005-7.779l7.119,7.119L111.883,142.775z M136.479,57.03l-2.758-2.758l-3.9,3.899l2.759,2.758L136.479,57.03z M129.827,107.725
			l3.899,3.899l2.758-2.758l-3.899-3.899L129.827,107.725z M142.9,81H139v3.9h3.9V81z M70.177,58.172l-3.899-3.899L63.52,57.03
			l3.899,3.899L70.177,58.172z M67.424,104.969l-3.899,3.899l2.758,2.759l3.899-3.9L67.424,104.969z M61,81h-3.9v3.9H61V81z
			 M101.95,42h-3.9v3.899h3.9V42z"/>
	</g>
</g>
</svg>
