<?xml version="1.0" encoding="utf-8"?>
<!-- Generator: Adobe Illustrator 16.0.0, SVG Export Plug-In . SVG Version: 6.00 Build 0)  -->
<!DOCTYPE svg PUBLIC "-//W3C//DTD SVG 1.1//EN" "http://www.w3.org/Graphics/SVG/1.1/DTD/svg11.dtd">
<svg version="1.1" id="Layer_1" xmlns="http://www.w3.org/2000/svg" xmlns:xlink="http://www.w3.org/1999/xlink" x="0px" y="0px"
	 width="200px" height="200px" viewBox="0 0 200 200" enable-background="new 0 0 200 200" xml:space="preserve">
<g>
	<g>
		<path fill="#E81A24" d="M170.835,77.002L143.294,49.53c-0.886-0.884-2.321-0.884-3.207,0l-13.771,13.736
			c-0.426,0.424-0.664,0.999-0.664,1.6c0,0.6,0.238,1.175,0.664,1.599l1.373,1.371l-3.156,3.148
			c-2.051,2.043-5.229,2.601-7.912,1.386c-2.516-1.139-5.313-1.74-8.088-1.74c-3.297,0-6.518,0.825-9.379,2.388
			c-1.193-0.293-2.418-0.443-3.654-0.443c-1.789,0-3.547,0.309-5.223,0.916c-2.677,0.97-5.546,0.369-7.489-1.569l-5.668-5.654
			l0.675-0.673c0.425-0.424,0.664-1,0.664-1.6c0-0.601-0.239-1.176-0.664-1.6L64.024,48.658c-0.886-0.884-2.321-0.884-3.207,0
			L30.16,79.238c-0.886,0.884-0.886,2.315,0,3.199l13.771,13.735c0.425,0.425,1.002,0.663,1.604,0.663
			c0.603,0,1.179-0.238,1.604-0.663l0.821-0.819l3.997,3.988c1.009,1.006,1.678,2.263,1.934,3.634
			c1.327,7.104,4.739,13.563,9.865,18.682l0.753,0.751c-1.446,1.519-2.241,3.498-2.241,5.601c0,2.176,0.85,4.221,2.391,5.758
			c1.592,1.588,3.682,2.381,5.771,2.381c0.137,0,0.272-0.004,0.408-0.011c-0.11,2.218,0.682,4.474,2.377,6.164
			c1.541,1.538,3.592,2.386,5.771,2.386c0.061,0,0.121-0.004,0.182-0.004c-0.046,2.144,0.747,4.303,2.383,5.935
			c1.542,1.538,3.592,2.385,5.772,2.385c2.18,0,4.229-0.847,5.772-2.385c0.129-0.13,0.252-0.265,0.371-0.398
			c0.803,0.279,1.652,0.429,2.511,0.429c2.039,0,3.955-0.793,5.392-2.23c0.765-0.764,1.345-1.659,1.723-2.637l0.232,0.231
			c1.486,1.482,3.438,2.224,5.391,2.224s3.904-0.74,5.391-2.224c0.791-0.788,1.385-1.719,1.761-2.733
			c1.329,0.967,2.905,1.449,4.481,1.449c1.951,0,3.904-0.742,5.394-2.224c1.438-1.437,2.231-3.349,2.231-5.38
			c0-0.614-0.074-1.217-0.214-1.799c1.452-0.295,2.786-1.006,3.857-2.075c1.438-1.437,2.231-3.347,2.231-5.377
			c0-1.601-0.494-3.124-1.406-4.401l1.82-1.814c5.186-5.176,8.611-11.717,9.907-18.915c0.218-1.206,0.815-2.325,1.731-3.239
			l6.767-6.749l1.188,1.187c0.443,0.441,1.023,0.662,1.604,0.662s1.161-0.221,1.604-0.662l13.771-13.736
			c0.425-0.424,0.664-0.999,0.664-1.6C171.5,78.002,171.26,77.427,170.835,77.002z M45.534,91.375L34.971,80.838l27.449-27.38
			l10.563,10.536L45.534,91.375z M72.994,130.566c-1.413,1.41-3.714,1.41-5.129,0c-0.685-0.685-1.063-1.592-1.063-2.559
			c0-0.966,0.378-1.875,1.063-2.559c0.707-0.705,1.636-1.059,2.564-1.059c0.928,0,1.857,0.354,2.564,1.059
			C74.408,126.861,74.408,129.156,72.994,130.566z M81.55,139.102c-0.685,0.684-1.595,1.06-2.564,1.06
			c-0.968,0-1.879-0.376-2.563-1.06c-1.414-1.41-1.414-3.705,0-5.117c0.707-0.704,1.635-1.058,2.564-1.058
			c0.928,0,1.857,0.354,2.563,1.058C82.965,135.395,82.965,137.689,81.55,139.102z M89.887,147.416
			c-0.685,0.684-1.596,1.061-2.564,1.061c-0.968,0-1.879-0.377-2.563-1.061c-1.415-1.41-1.415-3.705,0-5.116
			c0.706-0.705,1.635-1.058,2.563-1.058c0.928,0,1.857,0.353,2.564,1.058C91.301,143.711,91.301,146.006,89.887,147.416z
			 M128.407,130.05c-0.583,0.583-1.358,0.903-2.183,0.903c-0.826,0-1.601-0.32-2.185-0.904l-22.002-21.941
			c-0.888-0.883-2.322-0.883-3.207,0c-0.886,0.885-0.886,2.315,0,3.199l23.7,23.639c0.582,0.582,0.904,1.354,0.904,2.178
			s-0.322,1.6-0.903,2.18c-1.206,1.201-3.167,1.202-4.37,0.001l-3.999-3.987c-0.021-0.023-0.043-0.047-0.065-0.069
			c-0.008-0.006-0.015-0.013-0.021-0.019l-18.379-18.334c-0.886-0.884-2.321-0.884-3.207,0c-0.886,0.883-0.886,2.315,0,3.199
			l18.438,18.393c0.564,0.576,0.874,1.339,0.874,2.146c0,0.822-0.321,1.598-0.903,2.178c-1.203,1.201-3.162,1.201-4.366,0
			L86.54,122.869c-0.887-0.885-2.322-0.885-3.208,0c-0.886,0.883-0.886,2.314,0,3.199l14.82,14.781
			c0.004,0.006,0.007,0.01,0.012,0.014c0.583,0.58,0.903,1.353,0.903,2.174c0,0.822-0.321,1.597-0.907,2.181
			c-0.582,0.582-1.356,0.903-2.183,0.903c-0.199,0-0.395-0.021-0.585-0.057c0.367-2.467-0.398-5.068-2.297-6.963
			c-1.542-1.537-3.592-2.386-5.772-2.386c-0.061,0-0.121,0.003-0.182,0.004c0.047-2.143-0.746-4.302-2.383-5.935
			c-1.542-1.537-3.592-2.385-5.771-2.385c-0.137,0-0.272,0.002-0.408,0.01c0.109-2.217-0.683-4.471-2.377-6.16
			c-2.062-2.057-4.96-2.777-7.611-2.171l-1.626-1.622c-4.477-4.467-7.455-10.107-8.614-16.313c-0.424-2.271-1.525-4.348-3.185-6.002
			l-3.998-3.988l22.745-22.688l5.669,5.653c2.179,2.174,5.146,3.337,8.184,3.337c1.36,0,2.737-0.233,4.063-0.714
			c0.643-0.233,1.308-0.401,1.981-0.507L79.766,91.243c-1.719,1.713-2.665,3.992-2.665,6.416c0,2.423,0.946,4.702,2.665,6.415
			c1.773,1.77,4.102,2.652,6.432,2.652c2.329,0,4.658-0.885,6.432-2.652l7.054-7.035l1.909,1.906c0,0,0,0,0.001,0.001l0.155,0.155
			c0,0,0.001,0,0.002,0.001l0.001,0.001c0.021,0.021,0.043,0.043,0.064,0.063l26.593,26.525c0.583,0.582,0.903,1.355,0.903,2.179
			S128.991,129.468,128.407,130.05z M142.691,96.302c-1.572,1.57-2.605,3.521-2.986,5.64c-1.132,6.285-4.124,11.996-8.65,16.516
			l-1.744,1.738l-14.348-14.313c0.313,0.023,0.625,0.038,0.939,0.038c1.453,0,2.939-0.254,4.42-0.856
			c1.158-0.475,1.715-1.795,1.24-2.95c-0.476-1.156-1.797-1.711-2.957-1.237c-5.838,2.382-12.836-4.183-13.615-4.94
			c-0.014-0.013-0.025-0.024-0.039-0.037l-0.08-0.08h-0.001l-0.071-0.071l-1.908-1.906l2.164-2.159c0.887-0.884,0.887-2.316,0-3.199
			c-0.886-0.884-2.322-0.884-3.207,0l-3.764,3.754c-0.002,0.001-0.004,0.003-0.005,0.004c-0.001,0.002-0.003,0.003-0.004,0.004
			l-8.653,8.633c-1.778,1.772-4.671,1.772-6.449,0c-0.861-0.859-1.335-2.002-1.335-3.217s0.474-2.357,1.335-3.217L97.91,79.548
			c0.831-0.829,1.754-1.558,2.747-2.168c2.358-1.454,5.082-2.224,7.877-2.224c2.134,0,4.282,0.463,6.213,1.337
			c4.396,1.988,9.616,1.063,12.994-2.307l3.157-3.148l18.563,18.516L142.691,96.302z M155.461,89.139l-24.334-24.272l10.563-10.537
			l24.334,24.272L155.461,89.139z M157.745,82.594c1.253,0,2.269-1.013,2.269-2.262s-1.016-2.262-2.269-2.262
			c-1.252,0-2.269,1.013-2.269,2.262S156.493,82.594,157.745,82.594z M44.353,80.305c-1.252,0-2.268,1.013-2.268,2.263
			c0,1.249,1.016,2.262,2.268,2.262c1.253,0,2.269-1.013,2.269-2.262C46.621,81.317,45.605,80.305,44.353,80.305z"/>
	</g>
</g>
</svg>
