<?xml version="1.0" encoding="utf-8"?>
<!-- Generator: Adobe Illustrator 13.0.0, SVG Export Plug-In . SVG Version: 6.00 Build 14948)  -->
<!DOCTYPE svg PUBLIC "-//W3C//DTD SVG 1.1//EN" "http://www.w3.org/Graphics/SVG/1.1/DTD/svg11.dtd">
<svg version="1.1" id="Capa_1" xmlns="http://www.w3.org/2000/svg" xmlns:xlink="http://www.w3.org/1999/xlink" x="0px" y="0px"
	 width="500px" height="500px" viewBox="-150 -231 500 500" enable-background="new -150 -231 500 500" xml:space="preserve">
<g>
	<path fill="#D94D4C" d="M207.905,7.098c-4.773-6.655-6.798-14.998-5.346-23.407l2.859-16.752l-12.165-11.868
		c-0.187-0.176-0.352-0.374-0.527-0.555C99.573,32.22,88.976,156.775,89.993,217.932c0.039,2.222,1.749,4.069,3.965,4.278
		c2.222,0.209,4.24-1.286,4.686-3.476C124.333,93.596,172.928,34.441,207.905,7.098z"/>
	<path fill="#D94D4C" d="M25.235-76.464l-28.114,6.292L-13.631-43.45c-0.192,0.484-0.413,0.957-0.632,1.424
		c43.871,62.069,66.722,188.792,75.856,252.609c0.214,1.496,1.545,2.574,3.058,2.475c1.507-0.099,2.684-1.353,2.695-2.859
		c1.111-137.678-19.953-229.539-41.208-286.9C25.834-76.624,25.537-76.536,25.235-76.464z"/>
	<path fill="#D94D4C" d="M217.475,146.458l-3.981-5.478c-3.234-4.443-5.148-9.481-5.764-14.673
		c-30.666,8.184-76.786,29.104-91.525,82.032c-0.803,2.86,0.583,5.874,3.278,7.128c2.684,1.254,5.884,0.396,7.578-2.046
		c16.081-23.329,44.987-54.128,88.093-60.375c0.033-0.077,0.044-0.143,0.066-0.209L217.475,146.458z"/>
	<path fill="#D94D4C" d="M-1.791,93.002c-2.805,3.927-6.534,7.227-11.021,9.559l-6.005,3.123l-0.836,6.721
		c-0.248,2.024-0.699,3.982-1.314,5.874c25.744,29.082,44.718,69.021,56.184,97.706c0.765,1.925,2.866,2.948,4.862,2.387
		c1.991-0.561,3.239-2.529,2.893-4.575C32.819,153.85,15.066,116.32-1.791,93.002z"/>
	<path fill="#D94D4C" d="M235.381-42.795l-5.345,31.205c-0.221,1.237,0.297,2.491,1.319,3.234c0.572,0.418,1.254,0.632,1.936,0.632
		c0.528,0,1.057-0.126,1.54-0.379l28.026-14.733l28.026,14.733c0.483,0.253,1.012,0.379,1.54,0.379c0.682,0,1.363-0.214,1.936-0.632
		c1.034-0.743,1.54-1.997,1.32-3.234l-5.346-31.205l22.669-22.103c0.902-0.88,1.222-2.194,0.836-3.393
		c-0.385-1.199-1.419-2.068-2.673-2.25l-31.325-4.554l-14.014-28.389c-0.561-1.133-1.716-1.848-2.97-1.848s-2.409,0.715-2.97,1.848
		l-14.013,28.389l-31.326,4.554c-1.254,0.182-2.288,1.05-2.673,2.25c-0.385,1.199-0.066,2.513,0.836,3.393L235.381-42.795z"/>
	<path fill="#D94D4C" d="M19.141-103.676c1.232-0.275,2.194-1.227,2.491-2.453c0.297-1.221-0.121-2.508-1.089-3.316l-33.339-27.889
		l4.081-43.277c0.115-1.254-0.49-2.464-1.557-3.129c-0.533-0.325-1.138-0.49-1.738-0.49c-0.61,0-1.221,0.17-1.754,0.506
		l-36.831,23.082l-39.895-17.247c-0.423-0.182-0.869-0.275-1.314-0.275c-0.77,0-1.534,0.269-2.145,0.792
		c-0.957,0.814-1.37,2.101-1.067,3.322l10.576,42.161l-28.736,32.613c-0.83,0.946-1.056,2.282-0.577,3.442
		c0.484,1.166,1.578,1.958,2.837,2.046l43.365,2.97l22.136,37.408c0.6,1.012,1.683,1.623,2.843,1.623c0.088,0,0.17,0,0.253-0.011
		c1.259-0.093,2.348-0.891,2.821-2.062l16.224-40.324L19.141-103.676z"/>
	<path fill="#D94D4C" d="M307.416,133.358c-0.188-1.243-1.057-2.277-2.255-2.673l-20.382-6.61l-6.104-20.547
		c-0.353-1.199-1.375-2.102-2.618-2.321c-0.176-0.021-0.374-0.044-0.55-0.044c-1.056,0-2.046,0.506-2.684,1.364l-12.584,17.346
		l-21.426-0.539c-0.033,0-0.066,0-0.089,0c-1.231,0-2.354,0.682-2.926,1.76c-0.594,1.122-0.483,2.464,0.254,3.487l12.594,17.335
		l-7.128,20.205c-0.418,1.188-0.132,2.519,0.748,3.421c0.639,0.649,1.496,1.001,2.376,1.001c0.33,0,0.682-0.066,1.012-0.165
		l20.393-6.633l17.005,13.034c0.595,0.451,1.298,0.683,2.024,0.683c0.495,0,0.99-0.121,1.452-0.342
		c1.144-0.561,1.848-1.716,1.848-2.97v-21.427l17.643-12.165C307.053,135.854,307.603,134.601,307.416,133.358z"/>
	<path fill="#D94D4C" d="M-25.675,77.823c1.116-0.583,1.804-1.749,1.782-3.015c-0.027-1.254-0.77-2.387-1.908-2.926l-19.414-9.063
		l-3.531-21.141c-0.209-1.254-1.1-2.266-2.31-2.628c-0.313-0.1-0.638-0.144-0.952-0.144c-0.902,0-1.787,0.374-2.42,1.056
		l-14.629,15.663l-21.195-3.189c-0.165-0.022-0.33-0.022-0.495-0.022c-1.073,0-2.09,0.518-2.711,1.408
		c-0.72,1.034-0.792,2.397-0.182,3.498l10.373,18.754l-9.569,19.172c-0.561,1.133-0.435,2.485,0.324,3.476
		c0.633,0.836,1.611,1.319,2.634,1.319c0.209,0,0.418-0.021,0.627-0.065l21.047-4.07l15.278,15.025
		c0.627,0.627,1.469,0.957,2.321,0.957c0.369,0,0.731-0.055,1.089-0.188c1.188-0.418,2.041-1.474,2.194-2.717l2.635-21.262
		L-25.675,77.823z"/>
	<path fill="#D94D4C" d="M114.973-101.553l-2.574-6.264l-6.621-1.43c-4.939-1.072-9.405-3.267-13.145-6.313
		C81.969-87.188,74.5-43.301,82.354,22.711c0.423,3.547,5.604,3.515,5.939-0.05C91.203-7.96,98.682-57.474,117.799-96.229
		C116.699-97.885,115.753-99.662,114.973-101.553z"/>
	<path fill="#D94D4C" d="M124.409-177.454l2.167,21.322l-16.345,13.87c-0.957,0.819-1.364,2.106-1.066,3.327
		c0.308,1.221,1.286,2.167,2.519,2.431l20.942,4.532l8.14,19.826c0.484,1.166,1.584,1.958,2.838,2.046
		c0.065,0,0.154,0.005,0.22,0.005c1.177,0,2.266-0.622,2.86-1.645l10.779-18.523l21.382-1.617c1.254-0.093,2.343-0.891,2.816-2.063
		c0.462-1.166,0.242-2.502-0.605-3.442l-14.288-15.977l5.071-20.822c0.297-1.227-0.121-2.513-1.089-3.322
		c-0.616-0.506-1.364-0.775-2.135-0.775c-0.439,0-0.901,0.093-1.319,0.286l-19.623,8.645L129.437-180.6
		c-0.528-0.33-1.133-0.495-1.738-0.495c-0.604,0-1.21,0.17-1.76,0.506C124.883-179.923,124.289-178.708,124.409-177.454z"/>
</g>
</svg>
