<?xml version="1.0" encoding="utf-8"?>
<!-- Generator: Adobe Illustrator 13.0.0, SVG Export Plug-In . SVG Version: 6.00 Build 14948)  -->
<!DOCTYPE svg PUBLIC "-//W3C//DTD SVG 1.1//EN" "http://www.w3.org/Graphics/SVG/1.1/DTD/svg11.dtd">
<svg version="1.1" id="Layer_1" xmlns="http://www.w3.org/2000/svg" xmlns:xlink="http://www.w3.org/1999/xlink" x="0px" y="0px"
	 width="200px" height="200px" viewBox="0 0 200 200" enable-background="new 0 0 200 200" xml:space="preserve">
<path fill="#FFFFFF" d="M190.488,75.99V27.529c0-9.938-8.081-18.018-18.018-18.018c-9.934,0-18.018,8.079-18.018,18.018v19.452
	c-1.878-0.667-3.899-1.031-6.006-1.031c-2.345,0-4.582,0.455-6.642,1.273c-2.084-7.647-9.082-13.283-17.382-13.283
	c-2.104,0-4.125,0.364-6.006,1.031V15.519c0-9.935-8.084-18.018-18.018-18.018c-9.935,0-18.018,8.083-18.018,18.018
	c0,2.476,0,51.638,0,54.452H51.539c-4.334-5.763-10.69-9.918-18-11.408v-0.605c0-3.319-2.692-6.007-6.008-6.007
	c-3.319,0-6.007,2.688-6.007,6.007v0.605C7.834,61.351-2.5,73.485-2.5,87.988v24.022c0,14.503,10.334,26.639,24.023,29.425v0.607
	c0,3.32,2.688,6.009,6.007,6.009c3.316,0,6.008-2.688,6.008-6.009v-0.607c7.313-1.486,13.666-5.646,18-11.407h21.558
	c3.088,10.41,8.734,19.949,16.624,27.846c2.477,2.479,4.107,5.987,4.545,9.667c-6.924,2.514-11.883,9.155-11.883,16.943
	c0,9.937,8.083,18.018,18.018,18.018h60.059c9.934,0,18.018-8.081,18.018-18.018c0-7.788-4.96-14.43-11.885-16.943
	c0.445-3.68,2.072-7.188,4.544-9.667c9.063-9.06,15.206-20.365,17.878-32.825c8.116-5.383,13.486-14.599,13.486-25.047
	C202.5,90.193,197.778,81.477,190.488,75.99z M21.523,128.994c-6.989-2.481-12.01-9.154-12.01-16.984V87.984
	c0-7.83,5.021-14.506,12.01-16.986V128.994z M45.548,112.01c0,7.83-5.021,14.503-12.01,16.984V71.001
	c6.989,2.48,12.01,9.153,12.01,16.986V112.01z M166.465,27.529c0-3.313,2.694-6.007,6.006-6.007c3.314,0,6.009,2.694,6.009,6.007
	v43.047c-1.941-0.397-3.949-0.605-6.009-0.605h-6.006C166.465,65.431,166.465,32.732,166.465,27.529z M142.441,63.962
	c0-3.311,2.694-6.006,6.006-6.006c3.314,0,6.006,2.695,6.006,6.006v24.025c0,3.313-2.691,6.006-6.006,6.006
	c-3.312,0-6.006-2.693-6.006-6.006V63.962z M118.418,51.949c0-3.313,2.694-6.006,6.006-6.006s6.006,2.693,6.006,6.006v19.049
	c-1.881-0.667-3.902-1.031-6.006-1.031h-6.006V51.949z M94.393,15.516c0-3.313,2.694-6.008,6.007-6.008
	c3.312,0,6.006,2.695,6.006,6.008v54.451H100.4c-2.056,0-4.064,0.205-6.007,0.605C94.393,69.84,94.393,16.553,94.393,15.516z
	 M70.373,99.998v11.161c0,2.307,0.121,4.595,0.351,6.857H56.957c0.397-1.945,0.605-3.95,0.605-6.006V87.984
	c0-2.058-0.208-4.064-0.605-6.007h19.439C72.615,87.001,70.373,93.242,70.373,99.998z M160.459,190.486H100.4
	c-3.313,0-6.007-2.695-6.007-6.006c0-3.312,2.694-6.006,6.007-6.006h60.059c3.312,0,6.006,2.694,6.006,6.006
	C166.465,187.791,163.771,190.486,160.459,190.486z M162.646,149.376c-4.424,4.424-7.306,10.643-8.015,17.087h-48.402
	c-0.712-6.438-3.591-12.663-8.014-17.087c-10.442-10.445-15.832-24.131-15.832-38.218V99.998c0-9.938,8.083-18.018,18.018-18.018
	h24.023c3.312,0,6.006,2.695,6.006,6.008c0,3.313-2.694,6.006-6.006,6.006H100.4c-3.319,0-6.007,2.688-6.007,6.007
	c0,3.32,2.688,6.009,6.007,6.009c9.934,0,18.018,8.078,18.018,18.015v12.012c0,3.32,2.688,6.006,6.006,6.006
	s6.006-2.686,6.006-6.006v-6.009h42.041c0.896,0,1.779-0.048,2.653-0.127C172.445,137.18,168.222,143.799,162.646,149.376z
	 M172.471,118.016h-42.648c-0.905-4.437-2.786-8.52-5.411-12.012h0.013c1.551,0,3.057-0.197,4.5-0.569
	c2.831-0.733,5.396-2.139,7.515-4.034c3.188,2.862,7.401,4.604,12.009,4.604c9.934,0,18.018-8.083,18.018-18.016V81.98h6.006
	c9.937,0,18.018,8.08,18.018,18.018C190.488,109.932,182.404,118.016,172.471,118.016z"/>
</svg>
