<?xml version="1.0" encoding="utf-8"?>
<!-- Generator: Adobe Illustrator 16.0.0, SVG Export Plug-In . SVG Version: 6.00 Build 0)  -->
<!DOCTYPE svg PUBLIC "-//W3C//DTD SVG 1.1//EN" "http://www.w3.org/Graphics/SVG/1.1/DTD/svg11.dtd">
<svg version="1.1" id="Layer_1" xmlns="http://www.w3.org/2000/svg" xmlns:xlink="http://www.w3.org/1999/xlink" x="0px" y="0px"
	 width="200px" height="200px" viewBox="0 0 200 200" enable-background="new 0 0 200 200" xml:space="preserve">
<path fill="#121212" d="M127.809,92.622V77.729c0-3.054-2.484-5.537-5.537-5.537s-5.537,2.483-5.537,5.537v5.978
	c-0.578-0.205-1.199-0.317-1.846-0.317c-0.721,0-1.408,0.14-2.041,0.391c-0.641-2.35-2.792-4.082-5.342-4.082
	c-0.646,0-1.268,0.112-1.846,0.317v-5.978c0-3.053-2.484-5.537-5.537-5.537c-3.053,0-5.537,2.484-5.537,5.537
	c0,0.761,0,15.869,0,16.734h-9.479c-1.332-1.771-3.285-3.048-5.532-3.506V87.08c0-1.02-0.827-1.846-1.846-1.846
	c-1.02,0-1.846,0.826-1.846,1.846v0.186c-4.207,0.857-7.383,4.586-7.383,9.043v7.383c0,4.457,3.176,8.186,7.383,9.043v0.186
	c0,1.02,0.826,1.846,1.846,1.846c1.019,0,1.846-0.826,1.846-1.846v-0.186c2.248-0.458,4.2-1.736,5.532-3.506h6.625
	c0.949,3.199,2.684,6.131,5.109,8.557c0.761,0.762,1.262,1.84,1.397,2.971c-2.128,0.773-3.652,2.814-3.652,5.207
	c0,3.053,2.484,5.537,5.537,5.537h18.457c3.053,0,5.537-2.484,5.537-5.537c0-2.393-1.524-4.434-3.652-5.207
	c0.136-1.131,0.636-2.209,1.396-2.971c2.785-2.784,4.673-6.258,5.494-10.088c2.494-1.654,4.145-4.486,4.145-7.697
	C131.5,96.987,130.049,94.308,127.809,92.622z M75.883,108.911c-2.148-0.763-3.691-2.813-3.691-5.22v-7.383
	c0-2.406,1.543-4.458,3.691-5.22V108.911z M83.266,103.691c0,2.406-1.543,4.457-3.691,5.22V91.089
	c2.148,0.762,3.691,2.813,3.691,5.22V103.691z M120.426,77.729c0-1.018,0.828-1.846,1.846-1.846s1.846,0.828,1.846,1.846v13.229
	c-0.597-0.122-1.214-0.186-1.846-0.186h-1.846C120.426,89.377,120.426,79.328,120.426,77.729z M113.043,88.926
	c0-1.018,0.828-1.846,1.846-1.846s1.846,0.828,1.846,1.846v7.383c0,1.018-0.828,1.846-1.846,1.846s-1.846-0.828-1.846-1.846V88.926z
	 M105.66,85.234c0-1.018,0.828-1.846,1.846-1.846s1.846,0.828,1.846,1.846v5.854c-0.578-0.205-1.199-0.317-1.846-0.317h-1.846
	V85.234z M98.277,74.037c0-1.018,0.828-1.846,1.846-1.846s1.846,0.828,1.846,1.846v16.734h-1.846c-0.632,0-1.249,0.063-1.846,0.186
	C98.277,90.732,98.277,74.356,98.277,74.037z M90.895,100v3.429c0,0.709,0.037,1.413,0.108,2.108h-4.231
	c0.122-0.597,0.186-1.214,0.186-1.846v-7.383c0-0.632-0.064-1.249-0.186-1.846h5.974C91.584,96.006,90.895,97.924,90.895,100z
	 M118.58,127.809h-18.457c-1.018,0-1.846-0.828-1.846-1.846s0.828-1.846,1.846-1.846h18.457c1.018,0,1.846,0.828,1.846,1.846
	S119.598,127.809,118.58,127.809z M119.252,115.175c-1.359,1.359-2.245,3.271-2.463,5.251h-14.875
	c-0.218-1.979-1.103-3.892-2.463-5.251c-3.209-3.21-4.865-7.416-4.865-11.746V100c0-3.054,2.484-5.537,5.537-5.537h7.383
	c1.018,0,1.846,0.828,1.846,1.846s-0.828,1.846-1.846,1.846h-7.383c-1.02,0-1.846,0.826-1.846,1.846s0.826,1.846,1.846,1.846
	c3.053,0,5.537,2.483,5.537,5.537v3.691c0,1.02,0.826,1.846,1.846,1.846s1.846-0.826,1.846-1.846v-1.846h12.92
	c0.275,0,0.547-0.015,0.815-0.039C122.264,111.427,120.966,113.461,119.252,115.175z M122.271,105.537h-13.106
	c-0.278-1.363-0.856-2.618-1.663-3.691h0.004c0.477,0,0.939-0.061,1.383-0.175c0.87-0.225,1.658-0.657,2.309-1.24
	c0.98,0.88,2.274,1.415,3.691,1.415c3.053,0,5.537-2.484,5.537-5.537v-1.846h1.846c3.053,0,5.537,2.483,5.537,5.537
	C127.809,103.053,125.324,105.537,122.271,105.537z"/>
</svg>
