<?xml version="1.0" encoding="utf-8"?>
<!-- Generator: Adobe Illustrator 13.0.0, SVG Export Plug-In . SVG Version: 6.00 Build 14948)  -->
<!DOCTYPE svg PUBLIC "-//W3C//DTD SVG 1.1//EN" "http://www.w3.org/Graphics/SVG/1.1/DTD/svg11.dtd">
<svg version="1.1" id="Capa_1" xmlns="http://www.w3.org/2000/svg" xmlns:xlink="http://www.w3.org/1999/xlink" x="0px" y="0px"
	 width="500px" height="500px" viewBox="240.95 240.951 500 500" enable-background="new 240.95 240.951 500 500"
	 xml:space="preserve">
<g>
	<path fill="#D94D4C" d="M670.023,671.015c0-14.711-11.904-26.615-26.615-26.615H338.493c-14.711,0-26.615,11.904-26.615,26.615
		c0,14.712,11.904,26.615,26.615,26.615h304.916C658.119,697.63,670.023,685.677,670.023,671.015z"/>
	<path fill="#D94D4C" d="M285.02,455.576c0.436,0,0.823,0,1.258-0.048l42.197,152.724h162.499h162.45l42.198-152.724
		c0.435,0,0.822,0.048,1.258,0.048c17.469,0,31.648-14.179,31.648-31.648s-14.18-31.648-31.648-31.648
		c-17.468,0-31.647,14.179-31.647,31.648c0,3.388,0.532,6.678,1.548,9.727l-76.313,44.617l-82.023-135.98
		c8.518-5.662,14.18-15.388,14.18-26.374c0-17.469-14.18-31.648-31.648-31.648s-31.648,14.179-31.648,31.648
		c0,11.033,5.614,20.712,14.18,26.374l-82.024,135.98l-76.314-44.617c0.968-3.049,1.548-6.339,1.548-9.727
		c0-17.469-14.178-31.648-31.648-31.648c-17.518,0-31.696,14.179-31.696,31.648S267.55,455.576,285.02,455.576z"/>
</g>
</svg>
