<?xml version="1.0" encoding="utf-8"?>
<!-- Generator: Adobe Illustrator 13.0.0, SVG Export Plug-In . SVG Version: 6.00 Build 14948)  -->
<!DOCTYPE svg PUBLIC "-//W3C//DTD SVG 1.1//EN" "http://www.w3.org/Graphics/SVG/1.1/DTD/svg11.dtd">
<svg version="1.1" id="Layer_1" xmlns="http://www.w3.org/2000/svg" xmlns:xlink="http://www.w3.org/1999/xlink" x="0px" y="0px"
	 width="500px" height="500px" viewBox="-28.571 -28.571 500 500" enable-background="new -28.571 -28.571 500 500"
	 xml:space="preserve">
<g>
	<g>
		<path fill="#FFFFFF" d="M343.807,232.018V53.811h-60.292v189.617c0.524-0.159,1.186-0.373,1.577-0.514
			C304.474,234.589,326.402,232.52,343.807,232.018z M253.374,250.324V-17.158h-60.306V250.34
			c8.929,1.372,19.198,2.396,30.151,2.396C234.148,252.734,244.379,251.712,253.374,250.324z M434.266,162.616h-60.295v69.419
			c16.707,0.564,39.44,2.776,60.295,11.393V162.616z M162.917,243.478V87.855h-60.307v144.138c17.47,0.526,39.66,2.712,60.043,11.39
			C162.707,243.428,162.853,243.455,162.917,243.478z M72.463,149.361H12.17v94.038c20.827-8.587,43.582-10.839,60.292-11.381
			V149.361z M359.398,249.854c-16.849,0-45.098,0.025-69.002,10.225c-7.732,2.584-34.747,10.68-67.161,10.68
			c-32.447,0-59.489-8.131-67.212-10.68c-23.884-10.199-52.115-10.199-68.965-10.199c-33.482,0-111.853,0-111.853,79.747
			c0,63.884,50.172,115.832,111.853,115.832c61.673,0,111.839-51.948,111.839-115.832c0-5.048-0.333-9.788-0.93-14.225
			c6.376-2.673,14.597-5.214,23.977-5.214c10.48,0,19.831,3.169,26.426,6.2c-0.503,4.149-0.81,8.558-0.81,13.238
			c0,63.866,50.145,115.809,111.835,115.809c61.674,0,111.842-51.942,111.842-115.809
			C471.242,249.854,392.876,249.854,359.398,249.854z M87.06,418.415c-47.285,0-85.736-39.82-85.736-88.788
			c0-38.409,23.237-52.706,85.736-52.706c62.493,0,85.73,14.297,85.73,52.706C172.788,378.579,134.333,418.415,87.06,418.415z
			 M359.398,418.415c-47.277,0-85.729-39.82-85.729-88.788c0-38.409,23.219-52.706,85.729-52.706
			c62.492,0,85.729,14.297,85.729,52.706C445.131,378.579,406.675,418.415,359.398,418.415z"/>
	</g>
</g>
</svg>
