<?xml version="1.0" encoding="utf-8"?>
<!-- Generator: Adobe Illustrator 13.0.0, SVG Export Plug-In . SVG Version: 6.00 Build 14948)  -->
<!DOCTYPE svg PUBLIC "-//W3C//DTD SVG 1.1//EN" "http://www.w3.org/Graphics/SVG/1.1/DTD/svg11.dtd">
<svg version="1.1" id="Capa_1" xmlns="http://www.w3.org/2000/svg" xmlns:xlink="http://www.w3.org/1999/xlink" x="0px" y="0px"
	 width="500px" height="500px" viewBox="-150 -231 500 500" enable-background="new -150 -231 500 500" xml:space="preserve">
<g>
	<g>
		<path fill="#FFFFFF" d="M68.402-67.902c-13.071,0-23.699,10.635-23.699,23.699h15.799c0-4.349,3.539-7.9,7.9-7.9
			c4.361,0,7.899,3.551,7.899,7.9h15.799C92.101-57.267,81.466-67.902,68.402-67.902z"/>
	</g>
</g>
<g>
	<g>
		<path fill="#FFFFFF" d="M131.599-67.902c-13.059,0-23.705,10.635-23.705,23.699h15.812c0-4.349,3.532-7.9,7.894-7.9
			c4.36,0,7.894,3.551,7.894,7.9h15.812C155.304-57.267,144.669-67.902,131.599-67.902z"/>
	</g>
</g>
<g>
	<g>
		<path fill="#FFFFFF" d="M100,145.394c-17.425,0-31.598,14.179-31.598,31.599c0,17.443,14.173,31.61,31.598,31.61
			c17.419,0,31.599-14.167,31.599-31.61C131.599,159.572,117.419,145.394,100,145.394z M100,192.804
			c-8.716,0-15.799-7.09-15.799-15.812c0-8.698,7.083-15.787,15.799-15.787c8.722,0,15.799,7.089,15.799,15.787
			C115.799,185.714,108.722,192.804,100,192.804z"/>
	</g>
</g>
<g>
	<g>
		<path fill="#FFFFFF" d="M289.603,240.201V137.5c0-65.341-53.159-118.5-118.5-118.5h-8.612c2.826-2.473,5.457-5.11,7.967-7.899
			h8.551c21.78,0,39.492-17.718,39.492-39.498v-13.923c9.525-6.383,15.799-17.237,15.799-29.527c0-12.34-6.321-23.212-15.896-29.589
			C217.355-165.876,164.695-218,100-218c-64.695,0-117.355,52.124-118.402,116.563c-9.568,6.377-15.897,17.249-15.897,29.589
			c0,19.6,15.952,35.551,35.551,35.551H6.63C10.327-14.407,21.516,4.924,37.51,19h-8.612c-65.34,0-118.5,53.159-118.5,118.5v102.701
			H-137V256h55.297h39.504h284.404h39.492H337v-15.799H289.603z M202.701-28.397c0,11.98-8.978,21.811-20.525,23.376
			c5.469-9.52,9.306-20.069,11.194-31.276h5.372c1.364,0,2.655-0.255,3.959-0.408V-28.397z M218.5-71.848
			c0,10.884-8.855,19.746-19.758,19.746h-3.947v-39.498h3.947C209.645-91.601,218.5-82.738,218.5-71.848z M5.199-52.103H1.252
			c-10.896,0-19.752-8.862-19.752-19.746c0-10.89,8.856-19.752,19.752-19.752h3.947V-52.103z M1.252-107.399
			c-1.224,0-2.381,0.237-3.575,0.365C1.569-160.151,45.915-202.201,100-202.201s98.425,42.05,102.323,95.167
			c-1.193-0.128-2.351-0.365-3.581-0.365h-5.372c-7.553-44.761-46.496-79.002-93.37-79.002c-46.88,0-85.817,34.242-93.37,79.002
			H1.252z M178.983-91.795c-57.008-2.01-94.783-25.319-94.783-47.203c0-4.361-3.532-7.899-7.899-7.899s-7.899,3.539-7.899,7.899
			c0,19.74-20.416,36.1-46.941,38.999c4.208-39.626,37.823-70.603,78.539-70.603C143.487-170.603,178.887-135.265,178.983-91.795z
			 M20.998-52.103v-32.037c24.673-2.144,45.607-14.039,56.059-30.703c16.53,21.902,55.15,37.312,101.951,38.883v23.857
			c0,17.803-5.993,34.181-15.957,47.404H100v15.799h47.19c-4.531,3.398-9.429,6.322-14.642,8.691
			c-20.721,9.416-44.383,9.416-65.122,0C40.092,7.354,20.998-20.151,20.998-52.103z M75.583,39.392
			c7.802,2.095,15.964,3.313,24.417,3.313c8.454,0,16.615-1.219,24.411-3.313L100,88.238L75.583,39.392z M87.216,98.008H73.28
			L41.682,34.799h13.935L87.216,98.008z M144.389,34.799h13.936l-31.599,63.209H112.79L144.389,34.799z M-50.098,137.5v102.701
			h-23.699V137.5c0-55.023,43.523-99.936,97.932-102.457l31.482,62.965h-66.218C-32.38,98.008-50.098,115.72-50.098,137.5z
			 M234.299,240.201H-34.299V137.5c0-13.059,10.634-23.705,23.699-23.705h79.002H100h31.599h79.008
			c13.059,0,23.692,10.646,23.692,23.705V240.201z M273.804,240.201h-23.705V137.5c0-21.78-17.712-39.492-39.492-39.492h-66.218
			l31.477-62.965c54.402,2.521,97.938,47.434,97.938,102.457V240.201z"/>
	</g>
</g>
<g>
	<g>
		<rect x="202.701" y="169.099" fill="#FFFFFF" width="15.799" height="55.303"/>
	</g>
</g>
<g>
	<g>
		<rect x="202.701" y="137.5" fill="#FFFFFF" width="15.799" height="15.799"/>
	</g>
</g>
<g>
	<g>
		<rect x="273.804" y="-146.897" fill="#FFFFFF" width="15.799" height="15.799"/>
	</g>
</g>
<g>
	<g>
		<rect x="273.804" y="-115.299" fill="#FFFFFF" width="15.799" height="15.799"/>
	</g>
</g>
<g>
	<g>
		<rect x="273.804" y="-83.701" fill="#FFFFFF" width="15.799" height="15.799"/>
	</g>
</g>
<g>
	<g>
		<rect x="-89.603" y="-52.103" fill="#FFFFFF" width="15.806" height="15.805"/>
	</g>
</g>
<g>
	<g>
		<rect x="-89.603" y="-20.498" fill="#FFFFFF" width="15.806" height="15.799"/>
	</g>
</g>
<g>
	<g>
		<rect x="-89.603" y="11.101" fill="#FFFFFF" width="15.806" height="15.793"/>
	</g>
</g>
</svg>
