<?xml version="1.0" encoding="utf-8"?>
<!-- Generator: Adobe Illustrator 13.0.0, SVG Export Plug-In . SVG Version: 6.00 Build 14948)  -->
<!DOCTYPE svg PUBLIC "-//W3C//DTD SVG 1.1//EN" "http://www.w3.org/Graphics/SVG/1.1/DTD/svg11.dtd">
<svg version="1.1" id="Isolation_Mode" xmlns="http://www.w3.org/2000/svg" xmlns:xlink="http://www.w3.org/1999/xlink" x="0px"
	 y="0px" width="500px" height="500px" viewBox="229.5 29.5 500 500" enable-background="new 229.5 29.5 500 500"
	 xml:space="preserve">
<path fill="#D94D4C" d="M467.543,144.396c34.947-4.393,60.243,14.552,69.403,41.075c15.956,46.208-22.517,100.95-80.734,84.983
	C396.187,253.991,396.628,153.309,467.543,144.396z M442.049,244.96c31.733,29.286,81.575,6.471,83.566-33.993
	c1.696-34.489-23.818-57.334-59.488-50.99C425.413,167.219,413.924,219.003,442.049,244.96z"/>
<path fill="#D94D4C" d="M466.127,159.977c35.669-6.344,61.184,16.5,59.488,50.99c-1.991,40.464-51.833,63.279-83.566,33.993
	C413.924,219.003,425.413,167.219,466.127,159.977z"/>
<path fill="#D94D4C" d="M291.912,252.042c29.845-3.439,26.361,24.856,9.915,33.993c2.978,9.815,4.865,24.07-4.249,28.328
	c-11.169,0.78-15.837-4.938-22.662-8.499c-8.113,2.748-12.335,9.381-24.079,8.499c-8.818-4.211-7.23-17.249-4.25-26.912
	c-13.85-11.597-21.735-37.622,9.915-35.409C260.003,226.684,288.419,226.622,291.912,252.042z M252.253,269.039
	c4.371,3.181,8.148,6.958,11.331,11.331c-0.799,3.993-4.432,12.469-1.417,15.581c3.493-3.118,7.246-5.977,12.748-7.082
	c4.809,1.801,8.189,5.027,12.748,7.082c-4.059-13.612,1.423-22.078,8.498-28.328c-5.664,0.471-7.864-2.525-14.164-1.417
	c-4.091-3.465-4.036-11.074-8.498-14.164C272.812,264.102,262.498,266.537,252.253,269.039z"/>
<path fill="#D94D4C" d="M694.166,252.042c31.209-3.395,27.421,23.42,11.331,33.993c2.3,10.493,5.193,23.739-4.25,28.328
	c-11.017,0.63-16.042-4.733-22.661-8.499c-13.871,15.022-41.217,6.736-28.328-18.413c-14.018-10.364-21.845-37.449,8.498-35.409
	C663.429,230.402,691.807,222.976,694.166,252.042z M655.923,269.039c10.305,3.53,9.404,17.016,9.915,26.912
	c3.492-3.118,7.246-5.977,12.748-7.082c4.81,1.801,8.188,5.027,12.747,7.082c-0.444-6.166-1.637-11.586-2.833-16.997
	c4.372-3.183,8.148-6.96,11.331-11.331c-5.662,0.471-7.863-2.525-14.164-1.417c-3.635-3.919-4.76-10.348-8.498-14.164
	C675.804,263.422,666.618,266.984,655.923,269.039z"/>
<path fill="#D94D4C" d="M273.499,252.042c4.462,3.09,4.407,10.699,8.498,14.164c6.3-1.109,8.5,1.887,14.164,1.417
	c-7.075,6.252-12.557,14.716-8.498,28.328c-4.558-2.055-7.938-5.281-12.748-7.082c-5.502,1.105-9.255,3.964-12.748,7.082
	c-3.015-3.111,0.617-11.588,1.417-15.581c-3.183-4.373-6.96-8.15-11.331-11.331C262.498,266.537,272.812,264.102,273.499,252.042z"
	/>
<path fill="#D94D4C" d="M677.169,252.042c3.738,3.815,4.863,10.245,8.498,14.164c6.301-1.109,8.502,1.887,14.164,1.417
	c-3.183,4.371-6.959,8.148-11.331,11.331c1.196,5.411,2.389,10.831,2.833,16.997c-4.559-2.055-7.938-5.281-12.747-7.082
	c-5.502,1.105-9.256,3.964-12.748,7.082c-0.511-9.896,0.39-23.382-9.915-26.912C666.618,266.984,675.804,263.422,677.169,252.042z"
	/>
<path fill="#D94D4C" d="M433.551,274.704c-26.417,8.99-48.744,22.074-60.905,45.324c-26.752-17.619,26.28-48.794,42.492-55.239
	c0.814-0.325,1.986,0.248,2.832,0C424.772,266.486,426.553,273.202,433.551,274.704z"/>
<path fill="#D94D4C" d="M587.937,307.28c-3.551,4.001-6.13,8.979-8.498,14.164c-14.771-20.169-31.284-38.591-60.904-43.907
	c2.099-6.399,10.294-6.703,12.747-12.748C556.468,272.651,573.792,288.376,587.937,307.28z"/>
<path fill="#D94D4C" d="M364.147,338.441c34.796-4.974,31.046,26.26,11.332,35.41c12.884,28.58-12.928,40.188-29.744,22.661
	c-13.526,2.326-17.221,13.692-28.328,8.499c-11.835-5.535-1.955-14.812-4.25-28.328c-1.679-9.887-16.628-14.631-15.58-25.495
	c1.198-12.421,16.406-11.808,26.911-12.747C331.927,311.292,356.566,306.904,364.147,338.441z M332.987,352.604
	c-6.527,0.082-12.565,0.655-16.997,2.834c5.109,4.804,11.408,8.418,14.164,15.58c-0.248,5.007-4.61,13.248-1.417,16.996
	c4.92-3.106,9.345-6.708,15.58-8.498c7.11,1.859,12.096,5.844,18.414,8.498c-2.095-5.934-1.983-14.069-4.25-19.829
	c5.314-4.129,10.035-8.85,14.164-14.164c-18.427,2.373-22.971-9.136-28.328-19.829C340.361,340.148,339.184,348.886,332.987,352.604
	z"/>
<path fill="#D94D4C" d="M626.179,338.441c15.12,0.537,26.621,1.912,28.328,11.331c2.311,12.749-12.771,12.383-15.58,25.495
	c-2.988,13.933,8.469,19.295-1.417,28.328c-10.885,5.848-20.417-3.253-29.744-7.083c-17.172,15.554-44.069,8.191-31.16-21.245
	c-15.742-11.802-28.525-38.453,9.915-36.826C594.26,312.663,618.864,305.637,626.179,338.441z M579.438,355.438
	c5.313,4.127,10.035,8.849,14.164,14.164c-1.542,4.642-4.567,15.198-2.833,18.412c5.439-3.53,10.619-7.322,18.413-8.498
	c5.254,2.771,9.921,6.13,15.58,8.498c-0.192-7.364-2.642-12.468-2.833-19.829c4.376-4.596,10.652-7.289,12.748-14.164
	c-6.709,0.569-9.748-2.528-16.997-1.417c-4.806-5.111-5.696-14.133-11.331-18.412C604.623,348.517,593.914,353.859,579.438,355.438z
	"/>
<path fill="#D94D4C" d="M344.318,334.192c5.357,10.693,9.901,22.202,28.328,19.829c-4.129,5.314-8.85,10.035-14.164,14.164
	c2.266,5.76,2.155,13.896,4.25,19.829c-6.317-2.654-11.304-6.639-18.414-8.498c-6.235,1.79-10.66,5.392-15.58,8.498
	c-3.194-3.748,1.169-11.989,1.417-16.996c-2.755-7.162-9.055-10.776-14.164-15.58c4.432-2.179,10.469-2.752,16.997-2.834
	C339.184,348.886,340.361,340.148,344.318,334.192z"/>
<path fill="#D94D4C" d="M606.35,334.192c5.635,4.279,6.525,13.301,11.331,18.412c7.249-1.111,10.288,1.986,16.997,1.417
	c-2.096,6.875-8.372,9.568-12.748,14.164c0.191,7.361,2.641,12.465,2.833,19.829c-5.659-2.368-10.326-5.728-15.58-8.498
	c-7.794,1.176-12.974,4.968-18.413,8.498c-1.734-3.214,1.291-13.771,2.833-18.412c-4.129-5.315-8.851-10.037-14.164-14.164
	C593.914,353.859,604.623,348.517,606.35,334.192z"/>
<path fill="#D94D4C" d="M502.953,382.349c16.958,3.174,38.01,0.295,41.076,14.164c3.926,17.769-19.121,23.812-25.495,38.243
	c1.175,15.738,13.262,41.281-2.833,46.74c-15.235,5.165-25.685-12.069-39.659-15.58c-13.957,3.511-24.438,20.741-39.659,15.58
	c-15.663-5.311-4.626-30.169-2.833-45.324c-4.797-15.76-28.066-20.33-25.496-38.243c2.096-14.608,21.983-12.448,39.659-15.58
	c12.313-11.69,11.086-43.263,33.993-36.825C494.544,349.13,493.644,372.012,502.953,382.349z M459.046,395.097
	c-10.539,3.624-25.608,2.72-35.41,7.082c5.827,9.766,22.622,13.928,25.495,26.912c2.567,11.603-6.862,24.288-4.249,36.825
	c10.021-6.03,20.268-11.837,31.16-16.996c11.504,5.02,21.117,11.931,32.577,16.996c-2.089-12.55-5.263-24.011-5.666-38.243
	c7.666-9.804,17.83-17.107,25.496-26.91c-12.808-1.358-25.001-3.329-36.827-5.666c-5.485-11.039-9.054-23.996-16.996-32.577
	C470.754,374.7,465.275,385.273,459.046,395.097z"/>
<path fill="#D94D4C" d="M474.626,362.52c7.942,8.581,11.511,21.538,16.996,32.577c11.826,2.337,24.02,4.308,36.827,5.666
	c-7.666,9.803-17.83,17.106-25.496,26.91c0.403,14.232,3.577,25.693,5.666,38.243c-11.46-5.065-21.073-11.977-32.577-16.996
	c-10.893,5.159-21.139,10.966-31.16,16.996c-2.613-12.537,6.816-25.223,4.249-36.825c-2.873-12.984-19.668-17.146-25.495-26.912
	c9.802-4.362,24.871-3.458,35.41-7.082C465.275,385.273,470.754,374.7,474.626,362.52z"/>
<path fill="#D94D4C" d="M358.482,424.841c23.415-0.749,55.541-2.67,56.656,14.164c-29.562-3.488-78.329,12.229-76.485-22.662
	C347.305,408.917,353.838,419.785,358.482,424.841z"/>
<path fill="#D94D4C" d="M613.432,416.343c1.951,34.527-45.781,19.372-75.068,22.662c-3.557-14.98,31.22-15.924,53.822-14.164
	C598.898,421.513,603.808,408.217,613.432,416.343z"/>
</svg>
