<?xml version="1.0" encoding="utf-8"?>
<!-- Generator: Adobe Illustrator 16.0.0, SVG Export Plug-In . SVG Version: 6.00 Build 0)  -->
<!DOCTYPE svg PUBLIC "-//W3C//DTD SVG 1.1//EN" "http://www.w3.org/Graphics/SVG/1.1/DTD/svg11.dtd">
<svg version="1.1" id="Layer_1" xmlns="http://www.w3.org/2000/svg" xmlns:xlink="http://www.w3.org/1999/xlink" x="0px" y="0px"
	 width="56.693px" height="56.693px" viewBox="0 0 56.693 56.693" enable-background="new 0 0 56.693 56.693" xml:space="preserve">
<g>
	<title>background</title>
</g>
<g>
	<title>Layer 1</title>
	<path id="svg_2" fill="#FCFCFC" d="M28.346,17.839c-5.7,0-10.425,4.643-10.425,10.425c0,5.784,4.643,10.427,10.425,10.427
		c5.784,0,10.426-4.727,10.426-10.427C38.772,22.563,34.049,17.839,28.346,17.839z M28.346,34.945c-3.665,0-6.678-3.015-6.678-6.681
		s3.013-6.678,6.678-6.678c3.668,0,6.679,3.012,6.679,6.678S32.014,34.945,28.346,34.945z"/>
	<path id="svg_3" fill="#FCFCFC" d="M39.181,15.233c1.301,0,2.36,1.057,2.36,2.361c0,1.306-1.06,2.362-2.36,2.362
		c-1.308,0-2.363-1.057-2.363-2.362C36.818,16.29,37.874,15.233,39.181,15.233z"/>
	<path id="svg_4" fill="#FCFCFC" d="M45.288,11.487c-2.118-2.2-5.133-3.34-8.552-3.34H19.957c-7.085,0-11.81,4.725-11.81,11.81
		v16.699c0,3.502,1.141,6.515,3.421,8.714c2.2,2.118,5.13,3.177,8.47,3.177h16.615c3.501,0,6.437-1.141,8.553-3.177
		c2.199-2.12,3.339-5.133,3.339-8.633v-16.78C48.546,16.536,47.406,13.604,45.288,11.487z M44.962,36.736
		c0,2.524-0.896,4.559-2.361,5.945c-1.464,1.385-3.503,2.118-5.946,2.118H20.039c-2.442,0-4.479-0.733-5.946-2.118
		c-1.466-1.466-2.199-3.503-2.199-6.026V19.956c0-2.442,0.732-4.479,2.199-5.945c1.385-1.385,3.503-2.117,5.946-2.117h16.779
		c2.442,0,4.479,0.732,5.946,2.199c1.384,1.466,2.197,3.501,2.197,5.864V36.736L44.962,36.736z"/>
</g>
</svg>
