<?xml version="1.0" encoding="utf-8"?>
<!-- Generator: Adobe Illustrator 16.0.0, SVG Export Plug-In . SVG Version: 6.00 Build 0)  -->
<!DOCTYPE svg PUBLIC "-//W3C//DTD SVG 1.1//EN" "http://www.w3.org/Graphics/SVG/1.1/DTD/svg11.dtd">
<svg version="1.1" id="Capa_1" xmlns="http://www.w3.org/2000/svg" xmlns:xlink="http://www.w3.org/1999/xlink" x="0px" y="0px"
	 width="100px" height="100px" viewBox="256 346 100 100" enable-background="new 256 346 100 100" xml:space="preserve">
<g>
	<g>
		<path fill="#2193A8" d="M295.252,384.709v-16.963c0-9.234-7.513-16.746-16.746-16.746s-16.746,7.512-16.746,16.746v16.963
			c-0.483,0.859-0.76,1.849-0.76,2.903v11.514c0,0.971,0.787,1.758,1.758,1.758h31.496c0.971,0,1.758-0.787,1.758-1.758v-11.514
			C296.012,386.559,295.735,385.569,295.252,384.709z M265.275,367.746c0-7.295,5.935-13.23,13.23-13.23
			c7.295,0,13.23,5.935,13.23,13.23v14.161c-0.002,0-0.003-0.001-0.005-0.001c-0.13-0.038-0.262-0.072-0.396-0.101
			c-0.003-0.001-0.006-0.001-0.01-0.002c-0.133-0.029-0.267-0.053-0.403-0.073c-0.011-0.001-0.022-0.002-0.033-0.004
			c-0.115-0.016-0.23-0.028-0.347-0.038c-0.03-0.002-0.06-0.005-0.091-0.007c-0.128-0.008-0.256-0.014-0.386-0.014h-5.609
			c-0.211-0.199-0.413-0.502-0.524-1c0.639-0.449,1.255-0.956,1.827-1.493c1.087-1.022,2.01-2.16,2.599-3.248l0.064-0.118
			c0.806-1.482,1.34-2.721,1.423-6.293c0.016-0.701-0.386-1.345-1.023-1.638c-2.346-1.079-6.808-6.058-8.777-8.505
			c-0.057-0.07-0.111-0.139-0.164-0.205c-0.333-0.42-0.84-0.665-1.377-0.665l0,0c-0.537,0-1.044,0.245-1.377,0.665
			c-1.875,2.362-6.528,7.6-8.941,8.709c-0.637,0.293-1.039,0.937-1.022,1.638c0.083,3.572,0.617,4.811,1.423,6.293l0.064,0.119
			c0.612,1.13,1.584,2.315,2.727,3.367c0.011,0.01,0.021,0.021,0.033,0.031c0.049,0.045,0.1,0.089,0.15,0.134
			c0.057,0.051,0.113,0.102,0.17,0.152c0.01,0.008,0.02,0.017,0.03,0.025c0.098,0.085,0.197,0.169,0.297,0.252
			c0.01,0.008,0.02,0.016,0.03,0.024c0.321,0.265,0.652,0.518,0.989,0.754c-0.006,0.027-0.014,0.051-0.02,0.077
			c-0.01,0.039-0.02,0.077-0.03,0.112c-0.015,0.049-0.031,0.096-0.048,0.141c-0.001,0.004-0.003,0.008-0.004,0.013
			c-0.115,0.302-0.27,0.509-0.429,0.657h-5.6c-0.13,0-0.258,0.005-0.387,0.014c-0.03,0.002-0.061,0.005-0.091,0.007
			c-0.116,0.009-0.232,0.021-0.347,0.038c-0.011,0.001-0.022,0.002-0.033,0.004c-0.136,0.02-0.271,0.044-0.404,0.073
			c-0.003,0.001-0.006,0.001-0.009,0.002c-0.134,0.029-0.266,0.063-0.396,0.101c-0.001,0-0.003,0.001-0.005,0.001V367.746z
			 M275.823,378.258c-1.655-0.982-3.332-2.629-4.078-4.006l-0.067-0.123c-0.031-0.054-0.06-0.107-0.088-0.16
			c-0.426-0.792-0.747-1.492-0.868-3.491c2.13-1.366,4.63-3.917,6.48-5.976c0.485-0.539,0.925-1.045,1.303-1.487
			c1.818,2.129,5.095,5.739,7.784,7.463c-0.097,1.6-0.322,2.368-0.626,3.017c-0.102,0.216-0.211,0.418-0.329,0.634l-0.067,0.123
			c-0.746,1.377-2.423,3.024-4.078,4.006c-0.533,0.317-0.86,0.891-0.86,1.512c0,0.171,0.006,0.336,0.015,0.497
			c0.004,0.071,0.011,0.14,0.017,0.209c0.007,0.082,0.014,0.164,0.023,0.243c0.011,0.091,0.023,0.181,0.037,0.269
			c0.007,0.045,0.014,0.09,0.022,0.135c0.019,0.108,0.039,0.214,0.062,0.317c0.001,0.004,0.002,0.007,0.003,0.011
			c0.237,1.058,0.689,1.849,1.213,2.439c0.021,0.024,0.042,0.047,0.063,0.071c0.035,0.038,0.069,0.076,0.105,0.111
			c0.121,0.125,0.242,0.238,0.36,0.337c0.016,0.013,0.033,0.024,0.048,0.037c0.083,0.069,0.167,0.134,0.251,0.194
			c0.06,0.044,0.121,0.084,0.183,0.125c0.036,0.024,0.072,0.048,0.108,0.07c0.239,0.15,0.483,0.279,0.729,0.387
			c0.551,0.243,1.11,0.392,1.634,0.476c-0.013,0.022-0.027,0.044-0.04,0.066c-0.026,0.044-0.052,0.088-0.079,0.13
			c-0.019,0.03-0.041,0.058-0.061,0.087c-0.024,0.034-0.046,0.069-0.071,0.102c-0.027,0.037-0.057,0.072-0.086,0.108
			c-0.019,0.023-0.037,0.048-0.057,0.071c-0.037,0.043-0.075,0.083-0.114,0.125c-0.014,0.015-0.027,0.031-0.041,0.045
			c-0.046,0.047-0.094,0.093-0.143,0.138c-0.008,0.007-0.015,0.015-0.022,0.022c-0.052,0.046-0.105,0.091-0.159,0.135
			c-0.006,0.004-0.011,0.009-0.017,0.014c-0.06,0.047-0.121,0.093-0.184,0.137c0,0,0,0,0,0c-0.252,0.174-0.528,0.317-0.822,0.421
			c0,0-0.001,0.001-0.002,0.001c-0.073,0.026-0.147,0.049-0.222,0.07c0,0-0.001,0-0.002,0.001c-0.15,0.042-0.304,0.074-0.46,0.096
			c-0.002,0-0.004,0.001-0.006,0.001c-0.056,0.008-0.112,0.013-0.169,0.018c-0.024,0.002-0.048,0.006-0.072,0.008
			c-0.081,0.005-0.163,0.008-0.245,0.008h-7.314c-0.083,0-0.164-0.003-0.245-0.008c-0.019-0.001-0.037-0.004-0.056-0.006
			c-0.062-0.005-0.124-0.011-0.184-0.019c-0.03-0.004-0.059-0.011-0.089-0.016c-0.049-0.008-0.098-0.015-0.146-0.025
			c-0.024-0.005-0.047-0.012-0.072-0.018c-0.053-0.013-0.106-0.024-0.158-0.039c-0.031-0.009-0.062-0.02-0.093-0.03
			c-0.043-0.013-0.088-0.026-0.131-0.042c-0.033-0.012-0.064-0.025-0.097-0.038c-0.04-0.016-0.081-0.03-0.12-0.047
			c-0.032-0.014-0.063-0.029-0.094-0.044c-0.039-0.018-0.078-0.035-0.116-0.055c-0.031-0.016-0.061-0.034-0.092-0.051
			c-0.037-0.021-0.074-0.04-0.11-0.061c-0.033-0.02-0.063-0.041-0.095-0.061c-0.033-0.021-0.067-0.042-0.099-0.063
			c-0.031-0.022-0.061-0.045-0.092-0.068c-0.031-0.023-0.063-0.045-0.093-0.068c-0.032-0.025-0.063-0.053-0.094-0.079
			c-0.027-0.023-0.055-0.045-0.081-0.069c-0.032-0.029-0.062-0.059-0.093-0.089c-0.024-0.023-0.049-0.046-0.073-0.07
			c-0.031-0.032-0.06-0.065-0.09-0.098c-0.021-0.024-0.043-0.046-0.064-0.071c-0.03-0.035-0.059-0.072-0.087-0.109
			c-0.019-0.023-0.038-0.046-0.056-0.07c-0.029-0.039-0.056-0.078-0.083-0.118c-0.016-0.023-0.034-0.046-0.049-0.07
			c-0.027-0.042-0.052-0.085-0.078-0.128c-0.014-0.022-0.028-0.044-0.042-0.068c0.976-0.151,2.08-0.512,3.019-1.305
			c0.116-0.098,0.235-0.208,0.354-0.33c0.038-0.038,0.074-0.079,0.111-0.118c0.02-0.022,0.039-0.043,0.059-0.065
			c0.528-0.592,0.983-1.386,1.22-2.449l0,0c0.023-0.104,0.043-0.211,0.063-0.32c0.008-0.044,0.015-0.088,0.022-0.132
			c0.014-0.088,0.026-0.178,0.037-0.27c0.009-0.079,0.016-0.161,0.023-0.242c0.006-0.07,0.013-0.138,0.017-0.21
			c0.01-0.161,0.016-0.325,0.016-0.496C276.684,379.149,276.356,378.575,275.823,378.258z M292.497,397.369L292.497,397.369h-27.981
			v-9.756c0-0.541,0.18-1.039,0.479-1.443c0.038-0.05,0.076-0.1,0.117-0.146c0.021-0.024,0.043-0.048,0.065-0.071
			c0.042-0.045,0.086-0.088,0.131-0.129c0.021-0.019,0.041-0.038,0.062-0.057c0.065-0.055,0.132-0.108,0.202-0.156
			c0.002-0.001,0.004-0.003,0.007-0.005c0.077-0.053,0.156-0.1,0.238-0.143c0.012-0.006,0.025-0.011,0.037-0.018
			c0.069-0.035,0.139-0.066,0.21-0.094c0.021-0.008,0.042-0.015,0.063-0.023c0.065-0.023,0.131-0.044,0.198-0.062
			c0.024-0.006,0.048-0.013,0.072-0.019c0.067-0.016,0.135-0.027,0.204-0.038c0.023-0.003,0.046-0.008,0.069-0.011
			c0.091-0.01,0.184-0.017,0.276-0.017h0.929c0.008,0.042,0.017,0.084,0.025,0.126c0.008,0.043,0.017,0.086,0.025,0.129
			c0.015,0.07,0.032,0.139,0.048,0.208c0.009,0.039,0.018,0.078,0.028,0.116c0.021,0.079,0.043,0.158,0.067,0.236
			c0.008,0.027,0.016,0.055,0.024,0.082c0.033,0.105,0.068,0.209,0.105,0.312c0.008,0.021,0.016,0.041,0.024,0.062
			c0.03,0.081,0.062,0.162,0.095,0.242c0.015,0.036,0.031,0.071,0.047,0.106c0.028,0.064,0.057,0.128,0.086,0.191
			c0.019,0.039,0.039,0.077,0.058,0.116c0.029,0.059,0.059,0.117,0.089,0.174c0.021,0.04,0.043,0.079,0.065,0.118
			c0.031,0.056,0.063,0.11,0.095,0.165c0.023,0.039,0.046,0.078,0.07,0.116c0.034,0.054,0.068,0.107,0.103,0.16
			c0.025,0.038,0.049,0.075,0.075,0.112c0.037,0.054,0.075,0.106,0.113,0.159c0.025,0.035,0.05,0.069,0.076,0.104
			c0.042,0.056,0.086,0.111,0.13,0.166c0.023,0.029,0.046,0.059,0.07,0.087c0.063,0.076,0.127,0.15,0.193,0.223
			c0.006,0.007,0.011,0.014,0.018,0.02c0.072,0.079,0.146,0.156,0.221,0.232c0.025,0.025,0.052,0.05,0.078,0.075
			c0.051,0.05,0.102,0.099,0.154,0.147c0.032,0.029,0.064,0.057,0.096,0.085c0.049,0.043,0.097,0.085,0.146,0.127
			c0.035,0.029,0.07,0.057,0.105,0.085c0.049,0.039,0.098,0.078,0.147,0.116c0.037,0.028,0.074,0.055,0.111,0.083
			c0.05,0.037,0.101,0.073,0.151,0.108c0.038,0.026,0.076,0.052,0.114,0.078c0.053,0.035,0.106,0.069,0.159,0.103
			c0.038,0.024,0.076,0.048,0.114,0.071c0.057,0.034,0.115,0.067,0.173,0.1c0.036,0.02,0.072,0.041,0.108,0.061
			c0.069,0.037,0.139,0.072,0.209,0.107c0.026,0.013,0.052,0.027,0.079,0.04c0.097,0.047,0.196,0.092,0.295,0.134
			c0.025,0.011,0.051,0.02,0.077,0.031c0.075,0.031,0.15,0.061,0.227,0.09c0.039,0.014,0.077,0.027,0.116,0.04
			c0.064,0.023,0.129,0.045,0.195,0.066c0.042,0.014,0.085,0.026,0.128,0.039c0.063,0.019,0.125,0.037,0.189,0.054
			c0.045,0.012,0.09,0.023,0.135,0.034c0.063,0.016,0.126,0.03,0.189,0.044c0.046,0.01,0.092,0.02,0.138,0.028
			c0.064,0.013,0.129,0.024,0.194,0.035c0.045,0.007,0.091,0.015,0.137,0.022c0.067,0.01,0.136,0.018,0.204,0.026
			c0.044,0.005,0.088,0.011,0.132,0.015c0.075,0.007,0.151,0.012,0.227,0.017c0.038,0.002,0.076,0.006,0.113,0.008
			c0.114,0.005,0.229,0.009,0.344,0.009h7.314c0.115,0,0.229-0.003,0.344-0.009c0.038-0.002,0.076-0.005,0.113-0.008
			c0.076-0.005,0.151-0.01,0.227-0.017c0.044-0.004,0.088-0.01,0.132-0.015c0.068-0.008,0.136-0.016,0.204-0.026
			c0.046-0.007,0.092-0.015,0.137-0.022c0.065-0.011,0.13-0.022,0.194-0.035c0.046-0.009,0.092-0.019,0.138-0.028
			c0.063-0.014,0.126-0.028,0.189-0.044c0.045-0.011,0.09-0.022,0.135-0.034c0.063-0.017,0.127-0.035,0.189-0.054
			c0.043-0.013,0.086-0.025,0.128-0.039c0.066-0.021,0.13-0.043,0.195-0.066c0.039-0.013,0.077-0.026,0.115-0.04
			c0.077-0.028,0.152-0.059,0.227-0.09c0.025-0.011,0.051-0.02,0.077-0.031c0.1-0.042,0.198-0.087,0.295-0.134
			c0.026-0.013,0.053-0.027,0.079-0.04c0.07-0.035,0.141-0.07,0.209-0.107c0.036-0.02,0.072-0.041,0.107-0.061
			c0.058-0.033,0.117-0.065,0.174-0.1c0.038-0.023,0.076-0.047,0.114-0.071c0.054-0.034,0.107-0.067,0.16-0.103
			c0.038-0.025,0.076-0.051,0.114-0.078c0.051-0.035,0.102-0.071,0.152-0.108c0.037-0.027,0.074-0.055,0.11-0.083
			c0.05-0.038,0.099-0.077,0.148-0.116c0.035-0.028,0.07-0.057,0.104-0.085c0.05-0.042,0.098-0.084,0.146-0.127
			c0.032-0.028,0.064-0.056,0.096-0.085c0.053-0.048,0.104-0.098,0.155-0.147c0.026-0.025,0.052-0.049,0.078-0.075
			c0.075-0.076,0.149-0.153,0.221-0.232c0.006-0.006,0.012-0.013,0.018-0.02c0.065-0.073,0.13-0.147,0.193-0.223
			c0.024-0.028,0.046-0.058,0.07-0.087c0.044-0.055,0.088-0.109,0.13-0.166c0.026-0.034,0.051-0.069,0.076-0.104
			c0.038-0.053,0.076-0.105,0.113-0.159c0.025-0.037,0.05-0.074,0.075-0.112c0.035-0.053,0.069-0.106,0.103-0.16
			c0.024-0.039,0.047-0.077,0.07-0.116c0.033-0.055,0.064-0.109,0.095-0.165c0.022-0.04,0.044-0.079,0.065-0.118
			c0.03-0.058,0.06-0.116,0.089-0.174c0.02-0.039,0.039-0.077,0.058-0.116c0.03-0.063,0.058-0.127,0.086-0.191
			c0.016-0.036,0.032-0.07,0.047-0.106c0.034-0.08,0.065-0.161,0.096-0.242c0.008-0.021,0.017-0.041,0.024-0.062
			c0.038-0.103,0.073-0.207,0.106-0.312c0.008-0.027,0.016-0.055,0.023-0.082c0.023-0.078,0.046-0.157,0.067-0.236
			c0.01-0.039,0.019-0.078,0.028-0.116c0.017-0.069,0.033-0.138,0.048-0.208c0.009-0.043,0.017-0.086,0.025-0.129
			c0.008-0.042,0.018-0.084,0.025-0.126h1c0.093,0,0.185,0.006,0.276,0.017c0.024,0.002,0.047,0.007,0.07,0.011
			c0.068,0.01,0.137,0.022,0.204,0.038c0.024,0.005,0.048,0.012,0.073,0.019c0.066,0.018,0.132,0.038,0.196,0.062
			c0.021,0.007,0.043,0.015,0.064,0.023c0.07,0.027,0.139,0.059,0.207,0.092c0.013,0.007,0.027,0.013,0.04,0.02
			c0.082,0.043,0.161,0.09,0.237,0.142c0.005,0.003,0.009,0.007,0.014,0.01c0.067,0.047,0.132,0.097,0.195,0.15
			c0.022,0.019,0.043,0.04,0.065,0.059c0.044,0.041,0.087,0.083,0.129,0.126c0.022,0.024,0.044,0.048,0.066,0.073
			c0.041,0.047,0.08,0.096,0.117,0.146c0.3,0.404,0.479,0.902,0.479,1.443V397.369L292.497,397.369z"/>
	</g>
</g>
<g>
	<g>
		<path fill="#2193A8" stroke="#2193A8" stroke-miterlimit="10" d="M345.054,383.32h-5.88l-0.002-0.521
			c4.172-2.12,6.807-6.362,6.807-11.12v-3.782c0.903-2.66,1.954-7.813-1.374-12.053l0,0c-1.914-2.438-4.227-3.526-6.377-3.058
			c-1.73-1.2-3.756-1.786-6.16-1.786c-7.482,0-11.954,5.749-11.954,11.307c0,4.248,0.672,7.212,0.896,8.084v1.288
			c0,4.758,2.635,9,6.807,11.12l-0.002,0.521h-5.879c-3.279,0-5.947,2.667-5.947,5.946v9.86c0,0.971,0.787,1.758,1.758,1.758h31.496
			c0.971,0,1.758-0.787,1.758-1.758v-9.86C351,385.987,348.332,383.32,345.054,383.32z M324.409,365.054
			c-0.068,0.053-0.136,0.106-0.202,0.16c-0.036,0.029-0.071,0.059-0.106,0.089c-0.067,0.056-0.132,0.113-0.196,0.17
			c-0.03,0.027-0.061,0.054-0.091,0.082c-0.011,0.01-0.022,0.02-0.033,0.03c-0.09-0.957-0.151-2.059-0.151-3.277
			c0-3.235,2.618-7.792,8.438-7.792c2.556,0,3.899,0.896,4.688,1.57c0.531,0.454,1.281,0.55,1.911,0.244
			c0.824-0.402,2.041,0.244,3.172,1.685l0,0c1.787,2.277,1.685,5.113,1.236,7.193c-0.019-0.02-0.04-0.041-0.059-0.06
			c-0.057-0.058-0.113-0.116-0.171-0.174c-0.034-0.034-0.068-0.068-0.104-0.103c-0.055-0.054-0.109-0.108-0.166-0.163
			c-0.037-0.036-0.074-0.072-0.112-0.108c-0.06-0.057-0.122-0.115-0.184-0.173c-0.036-0.033-0.071-0.066-0.107-0.1
			c-0.097-0.089-0.196-0.178-0.299-0.269c-0.002-0.002-0.004-0.003-0.006-0.005c-0.05-0.044-0.103-0.086-0.155-0.128
			c-0.026-0.021-0.051-0.043-0.077-0.063c-0.003-0.002-0.006-0.004-0.01-0.007c-0.332-0.256-0.706-0.475-1.103-0.683
			c-0.267-0.14-0.544-0.276-0.826-0.414c-0.463-0.225-1.224-0.596-1.642-0.908c-0.139-0.104-0.24-0.201-0.279-0.285
			c-0.222-0.577-0.73-0.996-1.339-1.102c-0.609-0.106-1.229,0.115-1.633,0.583c-0.087,0.1-0.174,0.196-0.262,0.289
			c-0.177,0.186-0.358,0.358-0.545,0.518c-0.188,0.159-0.38,0.304-0.578,0.437c-1.091,0.729-2.369,1.066-3.964,1.066
			c-0.177,0-0.35,0.006-0.52,0.016c-0.054,0.003-0.106,0.008-0.16,0.012c-0.115,0.009-0.23,0.019-0.343,0.032
			c-0.06,0.007-0.118,0.015-0.177,0.023c-0.106,0.014-0.212,0.031-0.316,0.049c-0.055,0.009-0.11,0.019-0.165,0.03
			c-0.113,0.022-0.225,0.047-0.335,0.074c-0.04,0.01-0.081,0.019-0.121,0.029c-0.149,0.038-0.295,0.08-0.438,0.126
			c-0.022,0.007-0.044,0.015-0.066,0.022c-0.119,0.04-0.236,0.081-0.352,0.125c-0.045,0.017-0.089,0.036-0.133,0.054
			c-0.092,0.037-0.183,0.075-0.271,0.115c-0.046,0.021-0.092,0.042-0.138,0.063c-0.087,0.041-0.172,0.083-0.256,0.126
			c-0.042,0.021-0.084,0.042-0.124,0.064c-0.098,0.053-0.193,0.106-0.287,0.162c-0.023,0.014-0.048,0.027-0.071,0.042
			c-0.117,0.071-0.23,0.144-0.342,0.219c-0.027,0.019-0.054,0.038-0.081,0.057c-0.082,0.057-0.163,0.114-0.242,0.173
			C324.481,364.998,324.445,365.025,324.409,365.054z M324.525,371.679v-1.181c0.006-0.013,0.012-0.026,0.018-0.04
			c0.004-0.01,0.009-0.019,0.013-0.029c0.012-0.025,0.024-0.053,0.037-0.08c0.004-0.008,0.008-0.016,0.012-0.024
			c0.035-0.074,0.075-0.155,0.121-0.243c0.006-0.012,0.013-0.024,0.019-0.036c0.017-0.032,0.034-0.064,0.053-0.098
			c0.009-0.016,0.018-0.033,0.027-0.05c0.017-0.03,0.034-0.061,0.053-0.093c0.01-0.018,0.021-0.037,0.032-0.055
			c0.019-0.032,0.038-0.064,0.058-0.097c0.012-0.019,0.022-0.038,0.034-0.057c0.021-0.035,0.044-0.07,0.067-0.106
			c0.011-0.017,0.021-0.034,0.033-0.052c0.031-0.048,0.064-0.097,0.099-0.147c0.003-0.004,0.006-0.009,0.01-0.014
			c0.037-0.054,0.076-0.108,0.116-0.164c0.013-0.017,0.025-0.033,0.038-0.05c0.028-0.039,0.058-0.077,0.088-0.116
			c0.017-0.021,0.033-0.042,0.05-0.063c0.028-0.035,0.057-0.07,0.086-0.104c0.019-0.022,0.037-0.044,0.057-0.066
			c0.029-0.034,0.059-0.068,0.089-0.102c0.02-0.022,0.04-0.044,0.06-0.067c0.032-0.035,0.065-0.069,0.1-0.104
			c0.02-0.021,0.038-0.041,0.059-0.061c0.04-0.041,0.082-0.081,0.124-0.121c0.014-0.014,0.028-0.027,0.042-0.041
			c0.057-0.053,0.115-0.105,0.175-0.156c0.017-0.014,0.034-0.028,0.051-0.042c0.044-0.037,0.089-0.074,0.135-0.11
			c0.023-0.019,0.048-0.037,0.072-0.055c0.041-0.031,0.082-0.061,0.124-0.091c0.026-0.019,0.054-0.038,0.081-0.057
			c0.041-0.028,0.083-0.056,0.126-0.083c0.028-0.018,0.058-0.037,0.086-0.054c0.045-0.027,0.09-0.053,0.135-0.079
			c0.029-0.017,0.058-0.033,0.086-0.049c0.052-0.028,0.105-0.055,0.158-0.082c0.024-0.012,0.048-0.024,0.072-0.036
			c0.078-0.037,0.157-0.073,0.238-0.106c0.017-0.007,0.034-0.012,0.051-0.019c0.065-0.026,0.133-0.051,0.2-0.074
			c0.031-0.01,0.063-0.02,0.093-0.03c0.056-0.018,0.112-0.035,0.17-0.051c0.035-0.01,0.071-0.019,0.106-0.028
			c0.056-0.014,0.111-0.027,0.169-0.039c0.037-0.008,0.074-0.015,0.112-0.022c0.059-0.011,0.117-0.021,0.177-0.029
			c0.038-0.005,0.075-0.011,0.113-0.016c0.065-0.008,0.133-0.014,0.2-0.02c0.033-0.003,0.065-0.006,0.099-0.009
			c0.102-0.006,0.204-0.01,0.31-0.01h0.001c2.612,0,4.783-0.706,6.586-2.149c0.168,0.123,0.341,0.238,0.518,0.348
			c0.53,0.328,1.087,0.599,1.598,0.848c0.131,0.064,0.267,0.13,0.4,0.196c0.002,0.001,0.005,0.002,0.008,0.004
			c0.001,0,0.003,0.001,0.004,0.002c0.406,0.203,0.79,0.408,0.97,0.566c0.117,0.104,0.23,0.206,0.338,0.306
			c0.033,0.031,0.063,0.06,0.096,0.091c0.073,0.069,0.146,0.138,0.216,0.206c0.038,0.037,0.072,0.072,0.108,0.108
			c0.059,0.059,0.12,0.119,0.176,0.176c0.042,0.044,0.081,0.085,0.122,0.128c0.045,0.048,0.093,0.097,0.136,0.144
			c0.046,0.048,0.087,0.095,0.13,0.142c0.034,0.039,0.07,0.078,0.104,0.115c0.049,0.055,0.094,0.108,0.14,0.161
			c0.022,0.027,0.047,0.054,0.069,0.08c0.052,0.062,0.101,0.121,0.148,0.18c0.012,0.015,0.024,0.03,0.036,0.045
			c0.057,0.07,0.109,0.137,0.159,0.201c0.001,0.001,0.002,0.003,0.003,0.005c0.41,0.532,0.592,0.867,0.606,0.893
			c0.006,0.013,0.016,0.024,0.022,0.037c0.035,0.065,0.073,0.128,0.115,0.187c0.019,0.026,0.039,0.049,0.059,0.073
			c0.036,0.045,0.073,0.089,0.113,0.13c0.01,0.01,0.018,0.022,0.027,0.032v1.553c0,3.714-2.235,6.991-5.694,8.349
			c-0.675,0.265-1.117,0.917-1.115,1.641l0.006,2.364c-0.015,0.02-0.028,0.041-0.042,0.061l-2.123,3.147l-2.123-3.147
			c-0.014-0.021-0.028-0.041-0.043-0.061l0.007-2.364c0.002-0.725-0.441-1.376-1.116-1.641
			C326.76,378.67,324.525,375.393,324.525,371.679z M347.484,397.369L347.484,397.369h-27.98v-8.103c0-1.34,1.091-2.431,2.431-2.431
			h7.045l3.058,4.533c0.326,0.484,0.873,0.775,1.457,0.775s1.131-0.291,1.457-0.775l3.058-4.533h7.045
			c1.34,0,2.431,1.09,2.431,2.431V397.369L347.484,397.369z"/>
	</g>
</g>
<g>
	<g>
		<path fill="#2193A8" d="M349.031,404.903h-86.063c-0.971,0-1.758,0.787-1.758,1.758v8.851c0,0.971,0.787,1.758,1.758,1.758h34.636
			l-5.549,20.215H276.09c-0.971,0-1.758,0.787-1.758,1.758S275.119,441,276.09,441h17.305h25.209h11.147
			c0.971,0,1.758-0.787,1.758-1.758s-0.787-1.758-1.758-1.758h-9.808l-5.549-20.215h34.636c0.971,0,1.758-0.787,1.758-1.758v-8.851
			C350.789,405.69,350.002,404.903,349.031,404.903z M316.299,437.484h-8.541v-10.126c0-0.971-0.787-1.758-1.758-1.758
			s-1.758,0.787-1.758,1.758v10.126h-8.541l5.549-20.215h9.5L316.299,437.484z M347.273,413.754h-82.547v-5.335h82.547V413.754z"/>
	</g>
</g>
</svg>
