<?xml version="1.0" encoding="utf-8"?>
<!-- Generator: Adobe Illustrator 16.0.0, SVG Export Plug-In . SVG Version: 6.00 Build 0)  -->
<!DOCTYPE svg PUBLIC "-//W3C//DTD SVG 1.1//EN" "http://www.w3.org/Graphics/SVG/1.1/DTD/svg11.dtd">
<svg version="1.1" id="Capa_1" xmlns="http://www.w3.org/2000/svg" xmlns:xlink="http://www.w3.org/1999/xlink" x="0px" y="0px"
	 width="100px" height="100px" viewBox="193.905 193.905 100 100" enable-background="new 193.905 193.905 100 100"
	 xml:space="preserve">
<g>
	<g id="_x33_6_24_">
		<g>
			<path fill="#2193A8" d="M224.75,216.356h30.855c0.811,0,1.468-0.657,1.468-1.468c0-0.811-0.657-1.468-1.468-1.468H224.75
				c-0.811,0-1.468,0.657-1.468,1.468C223.282,215.699,223.939,216.356,224.75,216.356z"/>
			<path fill="#2193A8" d="M197.155,230.709h30.854c0.811,0,1.468-0.657,1.468-1.468c0-0.811-0.657-1.468-1.468-1.468h-30.854
				c-0.811,0-1.468,0.657-1.468,1.468C195.687,230.052,196.344,230.709,197.155,230.709z"/>
			<path fill="#2193A8" d="M205.438,245.813c0,0.811,0.657,1.468,1.468,1.468h30.854c0.811,0,1.468-0.657,1.468-1.468
				s-0.657-1.468-1.468-1.468h-30.854C206.095,244.345,205.438,245.002,205.438,245.813z"/>
			<path fill="#2193A8" d="M223.096,262.875h-27.723c-0.811,0-1.468,0.656-1.468,1.468c0,0.811,0.657,1.468,1.468,1.468h27.723
				c0.811,0,1.468-0.657,1.468-1.468C224.564,263.531,223.907,262.875,223.096,262.875z"/>
			<path fill="#2193A8" d="M272.979,225.56c4.428,0,8.018-3.59,8.018-8.018s-3.59-8.018-8.018-8.018c-4.429,0-8.02,3.59-8.02,8.018
				C264.959,221.97,268.55,225.56,272.979,225.56z"/>
			<path fill="#2193A8" d="M286.168,223.251c-4.604,6.449-10.77,7.196-17.403,3.257c-0.452-0.268-2.456-1.372-2.899-1.635
				c-10.672-6.335-21.332-3.851-28.481,6.16c-3.038,4.258,3.988,8.294,6.992,4.085c3.694-5.172,8.39-6.669,13.527-5.031
				c-2.63,4.565-4.93,9.103-8.174,15.55c-3.246,6.446-10.412,11.595-17.297,7.568c-4.968-2.903-9.448,4.233-4.495,7.128
				c9.4,5.494,20.422,2.12,26.048-5.021c0.195,0.104,0.401,0.198,0.628,0.277c4.597,1.602,10.622,5.865,12.458,7.376
				c1.835,1.511,4.988,9.209,6.861,13.076c2.271,4.693,9.608,1.275,7.328-3.438c-2.123-4.389-5.686-13.146-8.465-15.362
				c-2.229-1.777-6.558-5.085-10.229-6.961c2.483-4.811,5.069-9.569,7.792-14.246c8.677,2.659,16.924-0.473,22.798-8.701
				C296.198,223.079,289.174,219.042,286.168,223.251z"/>
		</g>
	</g>
</g>
</svg>
