<?xml version="1.0" encoding="utf-8"?>
<!-- Generator: Adobe Illustrator 16.0.0, SVG Export Plug-In . SVG Version: 6.00 Build 0)  -->
<!DOCTYPE svg PUBLIC "-//W3C//DTD SVG 1.1//EN" "http://www.w3.org/Graphics/SVG/1.1/DTD/svg11.dtd">
<svg version="1.1" id="Capa_1" xmlns="http://www.w3.org/2000/svg" xmlns:xlink="http://www.w3.org/1999/xlink" x="0px" y="0px"
	 width="100px" height="100px" viewBox="256 346 100 100" enable-background="new 256 346 100 100" xml:space="preserve">
<g>
	<g>
		<path fill="#2193A8" d="M323.523,372.007L323.523,372.007h-35.01c-0.615,0-1.113,0.498-1.113,1.113v42.271
			c0,0.285,0.11,0.561,0.307,0.768l17.505,18.569c0.421,0.448,1.125,0.47,1.572,0.048c0.017-0.015,0.033-0.031,0.049-0.048
			l17.505-18.599c0.197-0.207,0.307-0.481,0.307-0.768V373.11C324.641,372.496,324.138,372.002,323.523,372.007z M322.421,414.95
			l-16.402,17.381l-16.402-17.381v-40.727h32.805V414.95z"/>
	</g>
</g>
<g>
	<g>
		<path fill="#2193A8" d="M338.803,352.306h-1.938c-0.509-2.101-2.625-3.39-4.726-2.881c-1.423,0.346-2.535,1.457-2.88,2.881
			h-46.482c-0.51-2.101-2.625-3.39-4.726-2.88c-1.423,0.345-2.535,1.457-2.88,2.88h-1.976c-2.167,0-3.923,1.756-3.924,3.923
			c0,2.167,1.756,3.923,3.922,3.924c0,0,0.001,0,0.001,0h1.976c0.509,2.1,2.625,3.39,4.726,2.88c1.424-0.345,2.535-1.457,2.88-2.88
			h4.202v4.239h-2.878c-0.61,0.005-1.103,0.502-1.103,1.113v52.851c0,0.286,0.11,0.561,0.307,0.768l21.889,23.212
			c0.421,0.448,1.125,0.47,1.573,0.049c0.016-0.016,0.032-0.032,0.048-0.049l21.889-23.212c0.197-0.207,0.307-0.481,0.307-0.768
			v-52.851c0-0.615-0.498-1.113-1.112-1.113h-2.878v-4.239h4.201c0.51,2.1,2.626,3.39,4.726,2.88
			c1.424-0.345,2.535-1.457,2.881-2.88h1.976c2.167-0.001,3.923-1.757,3.923-3.924S340.97,352.306,338.803,352.306z
			 M275.046,357.936h-1.851c-0.943,0-1.708-0.764-1.708-1.707c0.005-0.936,0.762-1.693,1.698-1.698h1.861V357.936z M278.974,360.934
			c-0.94,0-1.703-0.762-1.703-1.703v-6.004c0.005-0.936,0.762-1.692,1.698-1.698c0.936,0.005,1.692,0.762,1.698,1.698l0.01,6.004
			C280.677,360.171,279.915,360.934,278.974,360.934z M289.204,354.531h33.619v3.405h-33.619V354.531L289.204,354.531z
			 M289.204,360.152h33.629v4.24h-33.629V360.152L289.204,360.152z M282.902,357.927v-3.396h4.086v3.405L282.902,357.927z
			 M326.795,366.617v51.297l-20.776,22.023l-20.776-22.062v-51.259H326.795z M329.135,357.936h-4.076v-3.405h4.076V357.936z
			 M334.794,359.231c0,0.94-0.763,1.703-1.702,1.703c-0.94,0-1.703-0.762-1.703-1.703v-6.004c0.006-0.936,0.763-1.692,1.698-1.698
			c0.939,0,1.702,0.758,1.707,1.698V359.231L334.794,359.231z M338.852,357.936l0.028-0.009h-1.89v-3.396h1.861
			c0.94,0,1.702,0.762,1.702,1.702C340.554,357.174,339.792,357.936,338.852,357.936z"/>
	</g>
</g>
</svg>
